solid OpenSCAD_Model
  facet normal -1 0 0
    outer loop
      vertex 0.0000 0.0000 0.0000
      vertex 0.0000 0.0000 6.2000
      vertex 0.0000 24.9000 2.9000
    endloop
  endfacet
  facet normal -1 0 0
    outer loop
      vertex 0.0000 0.0000 0.0000
      vertex 0.0000 24.9000 2.9000
      vertex 0.0000 24.9246 2.5871
    endloop
  endfacet
  facet normal -1 0 0
    outer loop
      vertex 0.0000 0.0000 0.0000
      vertex 0.0000 24.9246 2.5871
      vertex 0.0000 24.9979 2.2820
    endloop
  endfacet
  facet normal -1 0 0
    outer loop
      vertex 0.0000 0.0000 0.0000
      vertex 0.0000 24.9979 2.2820
      vertex 0.0000 25.1180 1.9920
    endloop
  endfacet
  facet normal -1 0 0
    outer loop
      vertex 0.0000 0.0000 0.0000
      vertex 0.0000 25.1180 1.9920
      vertex 0.0000 25.2820 1.7244
    endloop
  endfacet
  facet normal -1 0 0
    outer loop
      vertex 0.0000 0.0000 0.0000
      vertex 0.0000 25.2820 1.7244
      vertex 0.0000 25.4858 1.4858
    endloop
  endfacet
  facet normal -1 0 0
    outer loop
      vertex 0.0000 0.0000 0.0000
      vertex 0.0000 25.4858 1.4858
      vertex 0.0000 25.7244 1.2820
    endloop
  endfacet
  facet normal -1 0 0
    outer loop
      vertex 0.0000 0.0000 0.0000
      vertex 0.0000 25.7244 1.2820
      vertex 0.0000 25.9920 1.1180
    endloop
  endfacet
  facet normal -1 0 0
    outer loop
      vertex 0.0000 0.0000 0.0000
      vertex 0.0000 25.9920 1.1180
      vertex 0.0000 26.2820 0.9979
    endloop
  endfacet
  facet normal -1 0 0
    outer loop
      vertex 0.0000 0.0000 0.0000
      vertex 0.0000 26.2820 0.9979
      vertex 0.0000 26.5871 0.9246
    endloop
  endfacet
  facet normal -1 0 0
    outer loop
      vertex 0.0000 0.0000 0.0000
      vertex 0.0000 26.5871 0.9246
      vertex 0.0000 26.9000 0.9000
    endloop
  endfacet
  facet normal -1 0 0
    outer loop
      vertex 0.0000 0.0000 0.0000
      vertex 0.0000 26.9000 0.9000
      vertex 0.0000 51.0000 0.0000
    endloop
  endfacet
  facet normal 0 0 -1
    outer loop
      vertex 0.0000 0.0000 0.0000
      vertex 0.0000 51.0000 0.0000
      vertex 4.5000 30.5000 0.0000
    endloop
  endfacet
  facet normal 0 0 -1
    outer loop
      vertex 0.0000 0.0000 0.0000
      vertex 4.5000 30.5000 0.0000
      vertex 15.5000 4.5000 0.0000
    endloop
  endfacet
  facet normal 0 0 -1
    outer loop
      vertex 0.0000 0.0000 0.0000
      vertex 15.5000 4.5000 0.0000
      vertex 15.5250 4.1871 0.0000
    endloop
  endfacet
  facet normal 0 0 -1
    outer loop
      vertex 0.0000 0.0000 0.0000
      vertex 15.5250 4.1871 0.0000
      vertex 15.5980 3.8820 0.0000
    endloop
  endfacet
  facet normal 0 0 -1
    outer loop
      vertex 0.0000 0.0000 0.0000
      vertex 15.5980 3.8820 0.0000
      vertex 15.7180 3.5920 0.0000
    endloop
  endfacet
  facet normal 0 0 -1
    outer loop
      vertex 0.0000 0.0000 0.0000
      vertex 15.7180 3.5920 0.0000
      vertex 15.8820 3.3244 0.0000
    endloop
  endfacet
  facet normal 0 0 -1
    outer loop
      vertex 0.0000 0.0000 0.0000
      vertex 15.8820 3.3244 0.0000
      vertex 16.0860 3.0858 0.0000
    endloop
  endfacet
  facet normal 0 0 -1
    outer loop
      vertex 0.0000 0.0000 0.0000
      vertex 16.0860 3.0858 0.0000
      vertex 16.3240 2.8820 0.0000
    endloop
  endfacet
  facet normal 0 0 -1
    outer loop
      vertex 0.0000 0.0000 0.0000
      vertex 16.3240 2.8820 0.0000
      vertex 16.5920 2.7180 0.0000
    endloop
  endfacet
  facet normal 0 0 -1
    outer loop
      vertex 0.0000 0.0000 0.0000
      vertex 16.5920 2.7180 0.0000
      vertex 16.8820 2.5979 0.0000
    endloop
  endfacet
  facet normal 0 0 -1
    outer loop
      vertex 0.0000 0.0000 0.0000
      vertex 16.8820 2.5979 0.0000
      vertex 17.1870 2.5246 0.0000
    endloop
  endfacet
  facet normal 0 0 -1
    outer loop
      vertex 0.0000 0.0000 0.0000
      vertex 17.1870 2.5246 0.0000
      vertex 17.5000 2.5000 0.0000
    endloop
  endfacet
  facet normal 0 0 -1
    outer loop
      vertex 0.0000 0.0000 0.0000
      vertex 17.5000 2.5000 0.0000
      vertex 29.9000 0.0000 0.0000
    endloop
  endfacet
  facet normal 0 -1 0
    outer loop
      vertex 0.0000 0.0000 0.0000
      vertex 29.9000 0.0000 0.0000
      vertex 29.9000 0.0000 6.2000
    endloop
  endfacet
  facet normal 0 -1 0
    outer loop
      vertex 0.0000 0.0000 0.0000
      vertex 29.9000 0.0000 6.2000
      vertex 0.0000 0.0000 6.2000
    endloop
  endfacet
  facet normal -1 0 0
    outer loop
      vertex 0.0000 0.0000 6.2000
      vertex 0.0000 24.9246 3.2129
      vertex 0.0000 24.9000 2.9000
    endloop
  endfacet
  facet normal -1 0 0
    outer loop
      vertex 0.0000 0.0000 6.2000
      vertex 0.0000 24.9979 3.5180
      vertex 0.0000 24.9246 3.2129
    endloop
  endfacet
  facet normal -1 0 0
    outer loop
      vertex 0.0000 0.0000 6.2000
      vertex 0.0000 25.1180 3.8080
      vertex 0.0000 24.9979 3.5180
    endloop
  endfacet
  facet normal -1 0 0
    outer loop
      vertex 0.0000 0.0000 6.2000
      vertex 0.0000 25.2820 4.0756
      vertex 0.0000 25.1180 3.8080
    endloop
  endfacet
  facet normal -1 0 0
    outer loop
      vertex 0.0000 0.0000 6.2000
      vertex 0.0000 25.4858 4.3142
      vertex 0.0000 25.2820 4.0756
    endloop
  endfacet
  facet normal -1 0 0
    outer loop
      vertex 0.0000 0.0000 6.2000
      vertex 0.0000 25.7244 4.5180
      vertex 0.0000 25.4858 4.3142
    endloop
  endfacet
  facet normal -1 0 0
    outer loop
      vertex 0.0000 0.0000 6.2000
      vertex 0.0000 25.9920 4.6820
      vertex 0.0000 25.7244 4.5180
    endloop
  endfacet
  facet normal -1 0 0
    outer loop
      vertex 0.0000 0.0000 6.2000
      vertex 0.0000 26.2820 4.8021
      vertex 0.0000 25.9920 4.6820
    endloop
  endfacet
  facet normal -1 0 0
    outer loop
      vertex 0.0000 0.0000 6.2000
      vertex 0.0000 26.5871 4.8754
      vertex 0.0000 26.2820 4.8021
    endloop
  endfacet
  facet normal -1 0 0
    outer loop
      vertex 0.0000 0.0000 6.2000
      vertex 0.0000 26.9000 4.9000
      vertex 0.0000 26.5871 4.8754
    endloop
  endfacet
  facet normal -1 0 0
    outer loop
      vertex 0.0000 0.0000 6.2000
      vertex 0.0000 51.0000 6.2000
      vertex 0.0000 26.9000 4.9000
    endloop
  endfacet
  facet normal 0 0 1
    outer loop
      vertex 0.0000 0.0000 6.2000
      vertex 4.5000 30.5000 6.2000
      vertex 0.0000 51.0000 6.2000
    endloop
  endfacet
  facet normal 0 0 1
    outer loop
      vertex 0.0000 0.0000 6.2000
      vertex 11.0000 29.0000 6.2000
      vertex 4.5000 30.5000 6.2000
    endloop
  endfacet
  facet normal 0 0 1
    outer loop
      vertex 0.0000 0.0000 6.2000
      vertex 29.9000 0.0000 6.2000
      vertex 29.9000 4.5000 6.2000
    endloop
  endfacet
  facet normal 0 0 1
    outer loop
      vertex 0.0000 0.0000 6.2000
      vertex 29.9000 4.5000 6.2000
      vertex 11.0000 29.0000 6.2000
    endloop
  endfacet
  facet normal 0 0.996924 -0.078378
    outer loop
      vertex 0.0000 24.9000 2.9000
      vertex 0.0000 24.9246 3.2129
      vertex 5.6000 24.9000 2.9000
    endloop
  endfacet
  facet normal 0 0.996924 0.078378
    outer loop
      vertex 0.0000 24.9000 2.9000
      vertex 5.6000 24.9000 2.9000
      vertex 5.6000 24.9246 2.5871
    endloop
  endfacet
  facet normal 0 0.996924 0.078378
    outer loop
      vertex 0.0000 24.9000 2.9000
      vertex 5.6000 24.9246 2.5871
      vertex 0.0000 24.9246 2.5871
    endloop
  endfacet
  facet normal 0 0.972332 0.233602
    outer loop
      vertex 0.0000 24.9246 2.5871
      vertex 5.6000 24.9246 2.5871
      vertex 5.6000 24.9979 2.2820
    endloop
  endfacet
  facet normal 0 0.972332 0.233602
    outer loop
      vertex 0.0000 24.9246 2.5871
      vertex 5.6000 24.9979 2.2820
      vertex 0.0000 24.9979 2.2820
    endloop
  endfacet
  facet normal 0 0.972332 -0.233602
    outer loop
      vertex 0.0000 24.9246 3.2129
      vertex 0.0000 24.9979 3.5180
      vertex 5.6000 24.9246 3.2129
    endloop
  endfacet
  facet normal 0 0.996924 -0.078378
    outer loop
      vertex 0.0000 24.9246 3.2129
      vertex 5.6000 24.9246 3.2129
      vertex 5.6000 24.9000 2.9000
    endloop
  endfacet
  facet normal 0 0.923904 0.382624
    outer loop
      vertex 0.0000 24.9979 2.2820
      vertex 5.6000 24.9979 2.2820
      vertex 5.6000 25.1180 1.9920
    endloop
  endfacet
  facet normal 0 0.923904 0.382624
    outer loop
      vertex 0.0000 24.9979 2.2820
      vertex 5.6000 25.1180 1.9920
      vertex 0.0000 25.1180 1.9920
    endloop
  endfacet
  facet normal 0 0.923904 -0.382624
    outer loop
      vertex 0.0000 24.9979 3.5180
      vertex 0.0000 25.1180 3.8080
      vertex 5.6000 24.9979 3.5180
    endloop
  endfacet
  facet normal 0 0.972332 -0.233602
    outer loop
      vertex 0.0000 24.9979 3.5180
      vertex 5.6000 24.9979 3.5180
      vertex 5.6000 24.9246 3.2129
    endloop
  endfacet
  facet normal 0 0.85262 0.522532
    outer loop
      vertex 0.0000 25.1180 1.9920
      vertex 5.6000 25.1180 1.9920
      vertex 5.6000 25.2820 1.7244
    endloop
  endfacet
  facet normal 0 0.85262 0.522532
    outer loop
      vertex 0.0000 25.1180 1.9920
      vertex 5.6000 25.2820 1.7244
      vertex 0.0000 25.2820 1.7244
    endloop
  endfacet
  facet normal 0 0.85262 -0.522532
    outer loop
      vertex 0.0000 25.1180 3.8080
      vertex 0.0000 25.2820 4.0756
      vertex 5.6000 25.1180 3.8080
    endloop
  endfacet
  facet normal 0 0.923904 -0.382624
    outer loop
      vertex 0.0000 25.1180 3.8080
      vertex 5.6000 25.1180 3.8080
      vertex 5.6000 24.9979 3.5180
    endloop
  endfacet
  facet normal 0 0.76038 0.649478
    outer loop
      vertex 0.0000 25.2820 1.7244
      vertex 5.6000 25.2820 1.7244
      vertex 5.6000 25.4858 1.4858
    endloop
  endfacet
  facet normal 0 0.76038 0.649478
    outer loop
      vertex 0.0000 25.2820 1.7244
      vertex 5.6000 25.4858 1.4858
      vertex 0.0000 25.4858 1.4858
    endloop
  endfacet
  facet normal 0 0.76038 -0.649478
    outer loop
      vertex 0.0000 25.2820 4.0756
      vertex 0.0000 25.4858 4.3142
      vertex 5.6000 25.2820 4.0756
    endloop
  endfacet
  facet normal 0 0.85262 -0.522532
    outer loop
      vertex 0.0000 25.2820 4.0756
      vertex 5.6000 25.2820 4.0756
      vertex 5.6000 25.1180 3.8080
    endloop
  endfacet
  facet normal 0 0.649478 0.76038
    outer loop
      vertex 0.0000 25.4858 1.4858
      vertex 5.6000 25.4858 1.4858
      vertex 0.0000 25.7244 1.2820
    endloop
  endfacet
  facet normal 0 0.649478 -0.76038
    outer loop
      vertex 0.0000 25.4858 4.3142
      vertex 0.0000 25.7244 4.5180
      vertex 5.6000 25.7244 4.5180
    endloop
  endfacet
  facet normal 0 0.76038 -0.649478
    outer loop
      vertex 0.0000 25.4858 4.3142
      vertex 5.6000 25.4858 4.3142
      vertex 5.6000 25.2820 4.0756
    endloop
  endfacet
  facet normal 0 0.649478 -0.76038
    outer loop
      vertex 0.0000 25.4858 4.3142
      vertex 5.6000 25.7244 4.5180
      vertex 5.6000 25.4858 4.3142
    endloop
  endfacet
  facet normal 0 0.649478 0.76038
    outer loop
      vertex 0.0000 25.7244 1.2820
      vertex 5.6000 25.4858 1.4858
      vertex 5.6000 25.7244 1.2820
    endloop
  endfacet
  facet normal 0 0.522532 0.85262
    outer loop
      vertex 0.0000 25.7244 1.2820
      vertex 5.6000 25.7244 1.2820
      vertex 0.0000 25.9920 1.1180
    endloop
  endfacet
  facet normal 0 0.522532 -0.85262
    outer loop
      vertex 0.0000 25.7244 4.5180
      vertex 0.0000 25.9920 4.6820
      vertex 5.6000 25.9920 4.6820
    endloop
  endfacet
  facet normal 0 0.522532 -0.85262
    outer loop
      vertex 0.0000 25.7244 4.5180
      vertex 5.6000 25.9920 4.6820
      vertex 5.6000 25.7244 4.5180
    endloop
  endfacet
  facet normal 0 0.522532 0.85262
    outer loop
      vertex 0.0000 25.9920 1.1180
      vertex 5.6000 25.7244 1.2820
      vertex 5.6000 25.9920 1.1180
    endloop
  endfacet
  facet normal 0 0.382624 0.923904
    outer loop
      vertex 0.0000 25.9920 1.1180
      vertex 5.6000 25.9920 1.1180
      vertex 0.0000 26.2820 0.9979
    endloop
  endfacet
  facet normal 0 0.382624 -0.923904
    outer loop
      vertex 0.0000 25.9920 4.6820
      vertex 0.0000 26.2820 4.8021
      vertex 5.6000 26.2820 4.8021
    endloop
  endfacet
  facet normal 0 0.382624 -0.923904
    outer loop
      vertex 0.0000 25.9920 4.6820
      vertex 5.6000 26.2820 4.8021
      vertex 5.6000 25.9920 4.6820
    endloop
  endfacet
  facet normal 0 0.382624 0.923904
    outer loop
      vertex 0.0000 26.2820 0.9979
      vertex 5.6000 25.9920 1.1180
      vertex 5.6000 26.2820 0.9979
    endloop
  endfacet
  facet normal 0 0.233602 0.972332
    outer loop
      vertex 0.0000 26.2820 0.9979
      vertex 5.6000 26.2820 0.9979
      vertex 0.0000 26.5871 0.9246
    endloop
  endfacet
  facet normal 0 0.233602 -0.972332
    outer loop
      vertex 0.0000 26.2820 4.8021
      vertex 0.0000 26.5871 4.8754
      vertex 5.6000 26.5871 4.8754
    endloop
  endfacet
  facet normal 0 0.233602 -0.972332
    outer loop
      vertex 0.0000 26.2820 4.8021
      vertex 5.6000 26.5871 4.8754
      vertex 5.6000 26.2820 4.8021
    endloop
  endfacet
  facet normal 0 0.233602 0.972332
    outer loop
      vertex 0.0000 26.5871 0.9246
      vertex 5.6000 26.2820 0.9979
      vertex 5.6000 26.5871 0.9246
    endloop
  endfacet
  facet normal 0 0.078378 0.996924
    outer loop
      vertex 0.0000 26.5871 0.9246
      vertex 5.6000 26.5871 0.9246
      vertex 0.0000 26.9000 0.9000
    endloop
  endfacet
  facet normal 0 0.078378 -0.996924
    outer loop
      vertex 0.0000 26.5871 4.8754
      vertex 0.0000 26.9000 4.9000
      vertex 5.6000 26.9000 4.9000
    endloop
  endfacet
  facet normal 0 0.078378 -0.996924
    outer loop
      vertex 0.0000 26.5871 4.8754
      vertex 5.6000 26.9000 4.9000
      vertex 5.6000 26.5871 4.8754
    endloop
  endfacet
  facet normal -1 0 0
    outer loop
      vertex 0.0000 26.9000 0.9000
      vertex 0.0000 27.2129 0.9246
      vertex 0.0000 51.0000 0.0000
    endloop
  endfacet
  facet normal 0 0.078378 0.996924
    outer loop
      vertex 0.0000 26.9000 0.9000
      vertex 5.6000 26.5871 0.9246
      vertex 5.6000 26.9000 0.9000
    endloop
  endfacet
  facet normal 0 -0.078378 0.996924
    outer loop
      vertex 0.0000 26.9000 0.9000
      vertex 5.6000 26.9000 0.9000
      vertex 0.0000 27.2129 0.9246
    endloop
  endfacet
  facet normal 0 -0.078378 -0.996924
    outer loop
      vertex 0.0000 26.9000 4.9000
      vertex 0.0000 27.2129 4.8754
      vertex 5.6000 27.2129 4.8754
    endloop
  endfacet
  facet normal -1 0 0
    outer loop
      vertex 0.0000 26.9000 4.9000
      vertex 0.0000 51.0000 6.2000
      vertex 0.0000 27.2129 4.8754
    endloop
  endfacet
  facet normal 0 -0.078378 -0.996924
    outer loop
      vertex 0.0000 26.9000 4.9000
      vertex 5.6000 27.2129 4.8754
      vertex 5.6000 26.9000 4.9000
    endloop
  endfacet
  facet normal -1 0 0
    outer loop
      vertex 0.0000 27.2129 0.9246
      vertex 0.0000 27.5180 0.9979
      vertex 0.0000 51.0000 0.0000
    endloop
  endfacet
  facet normal 0 -0.078378 0.996924
    outer loop
      vertex 0.0000 27.2129 0.9246
      vertex 5.6000 26.9000 0.9000
      vertex 5.6000 27.2129 0.9246
    endloop
  endfacet
  facet normal 0 -0.233602 0.972332
    outer loop
      vertex 0.0000 27.2129 0.9246
      vertex 5.6000 27.2129 0.9246
      vertex 0.0000 27.5180 0.9979
    endloop
  endfacet
  facet normal 0 -0.233602 -0.972332
    outer loop
      vertex 0.0000 27.2129 4.8754
      vertex 0.0000 27.5180 4.8021
      vertex 5.6000 27.5180 4.8021
    endloop
  endfacet
  facet normal -1 0 0
    outer loop
      vertex 0.0000 27.2129 4.8754
      vertex 0.0000 51.0000 6.2000
      vertex 0.0000 27.5180 4.8021
    endloop
  endfacet
  facet normal 0 -0.233602 -0.972332
    outer loop
      vertex 0.0000 27.2129 4.8754
      vertex 5.6000 27.5180 4.8021
      vertex 5.6000 27.2129 4.8754
    endloop
  endfacet
  facet normal -1 0 0
    outer loop
      vertex 0.0000 27.5180 0.9979
      vertex 0.0000 27.8080 1.1180
      vertex 0.0000 51.0000 0.0000
    endloop
  endfacet
  facet normal 0 -0.233602 0.972332
    outer loop
      vertex 0.0000 27.5180 0.9979
      vertex 5.6000 27.2129 0.9246
      vertex 5.6000 27.5180 0.9979
    endloop
  endfacet
  facet normal 0 -0.382624 0.923904
    outer loop
      vertex 0.0000 27.5180 0.9979
      vertex 5.6000 27.5180 0.9979
      vertex 0.0000 27.8080 1.1180
    endloop
  endfacet
  facet normal 0 -0.382624 -0.923904
    outer loop
      vertex 0.0000 27.5180 4.8021
      vertex 0.0000 27.8080 4.6820
      vertex 5.6000 27.8080 4.6820
    endloop
  endfacet
  facet normal -1 0 0
    outer loop
      vertex 0.0000 27.5180 4.8021
      vertex 0.0000 51.0000 6.2000
      vertex 0.0000 27.8080 4.6820
    endloop
  endfacet
  facet normal 0 -0.382624 -0.923904
    outer loop
      vertex 0.0000 27.5180 4.8021
      vertex 5.6000 27.8080 4.6820
      vertex 5.6000 27.5180 4.8021
    endloop
  endfacet
  facet normal -1 0 0
    outer loop
      vertex 0.0000 27.8080 1.1180
      vertex 0.0000 28.0756 1.2820
      vertex 0.0000 51.0000 0.0000
    endloop
  endfacet
  facet normal 0 -0.382624 0.923904
    outer loop
      vertex 0.0000 27.8080 1.1180
      vertex 5.6000 27.5180 0.9979
      vertex 5.6000 27.8080 1.1180
    endloop
  endfacet
  facet normal 0 -0.522532 0.85262
    outer loop
      vertex 0.0000 27.8080 1.1180
      vertex 5.6000 27.8080 1.1180
      vertex 0.0000 28.0756 1.2820
    endloop
  endfacet
  facet normal 0 -0.522532 -0.85262
    outer loop
      vertex 0.0000 27.8080 4.6820
      vertex 0.0000 28.0756 4.5180
      vertex 5.6000 28.0756 4.5180
    endloop
  endfacet
  facet normal -1 0 0
    outer loop
      vertex 0.0000 27.8080 4.6820
      vertex 0.0000 51.0000 6.2000
      vertex 0.0000 28.0756 4.5180
    endloop
  endfacet
  facet normal 0 -0.522532 -0.85262
    outer loop
      vertex 0.0000 27.8080 4.6820
      vertex 5.6000 28.0756 4.5180
      vertex 5.6000 27.8080 4.6820
    endloop
  endfacet
  facet normal -1 0 0
    outer loop
      vertex 0.0000 28.0756 1.2820
      vertex 0.0000 28.3142 1.4858
      vertex 0.0000 51.0000 0.0000
    endloop
  endfacet
  facet normal 0 -0.522532 0.85262
    outer loop
      vertex 0.0000 28.0756 1.2820
      vertex 5.6000 27.8080 1.1180
      vertex 5.6000 28.0756 1.2820
    endloop
  endfacet
  facet normal 0 -0.649478 0.76038
    outer loop
      vertex 0.0000 28.0756 1.2820
      vertex 5.6000 28.0756 1.2820
      vertex 0.0000 28.3142 1.4858
    endloop
  endfacet
  facet normal 0 -0.649478 -0.76038
    outer loop
      vertex 0.0000 28.0756 4.5180
      vertex 0.0000 28.3142 4.3142
      vertex 5.6000 28.3142 4.3142
    endloop
  endfacet
  facet normal -1 0 0
    outer loop
      vertex 0.0000 28.0756 4.5180
      vertex 0.0000 51.0000 6.2000
      vertex 0.0000 28.3142 4.3142
    endloop
  endfacet
  facet normal 0 -0.649478 -0.76038
    outer loop
      vertex 0.0000 28.0756 4.5180
      vertex 5.6000 28.3142 4.3142
      vertex 5.6000 28.0756 4.5180
    endloop
  endfacet
  facet normal -1 0 0
    outer loop
      vertex 0.0000 28.3142 1.4858
      vertex 0.0000 28.5180 1.7244
      vertex 0.0000 51.0000 0.0000
    endloop
  endfacet
  facet normal 0 -0.649478 0.76038
    outer loop
      vertex 0.0000 28.3142 1.4858
      vertex 5.6000 28.0756 1.2820
      vertex 5.6000 28.3142 1.4858
    endloop
  endfacet
  facet normal 0 -0.76038 0.649478
    outer loop
      vertex 0.0000 28.3142 1.4858
      vertex 5.6000 28.3142 1.4858
      vertex 5.6000 28.5180 1.7244
    endloop
  endfacet
  facet normal 0 -0.76038 0.649478
    outer loop
      vertex 0.0000 28.3142 1.4858
      vertex 5.6000 28.5180 1.7244
      vertex 0.0000 28.5180 1.7244
    endloop
  endfacet
  facet normal 0 -0.76038 -0.649478
    outer loop
      vertex 0.0000 28.3142 4.3142
      vertex 0.0000 28.5180 4.0756
      vertex 5.6000 28.3142 4.3142
    endloop
  endfacet
  facet normal -1 0 0
    outer loop
      vertex 0.0000 28.3142 4.3142
      vertex 0.0000 51.0000 6.2000
      vertex 0.0000 28.5180 4.0756
    endloop
  endfacet
  facet normal -1 0 0
    outer loop
      vertex 0.0000 28.5180 1.7244
      vertex 0.0000 28.6820 1.9920
      vertex 0.0000 51.0000 0.0000
    endloop
  endfacet
  facet normal 0 -0.85262 0.522532
    outer loop
      vertex 0.0000 28.5180 1.7244
      vertex 5.6000 28.5180 1.7244
      vertex 5.6000 28.6820 1.9920
    endloop
  endfacet
  facet normal 0 -0.85262 0.522532
    outer loop
      vertex 0.0000 28.5180 1.7244
      vertex 5.6000 28.6820 1.9920
      vertex 0.0000 28.6820 1.9920
    endloop
  endfacet
  facet normal 0 -0.85262 -0.522532
    outer loop
      vertex 0.0000 28.5180 4.0756
      vertex 0.0000 28.6820 3.8080
      vertex 5.6000 28.5180 4.0756
    endloop
  endfacet
  facet normal -1 0 0
    outer loop
      vertex 0.0000 28.5180 4.0756
      vertex 0.0000 51.0000 6.2000
      vertex 0.0000 28.6820 3.8080
    endloop
  endfacet
  facet normal 0 -0.76038 -0.649478
    outer loop
      vertex 0.0000 28.5180 4.0756
      vertex 5.6000 28.5180 4.0756
      vertex 5.6000 28.3142 4.3142
    endloop
  endfacet
  facet normal -1 0 0
    outer loop
      vertex 0.0000 28.6820 1.9920
      vertex 0.0000 28.8021 2.2820
      vertex 0.0000 51.0000 0.0000
    endloop
  endfacet
  facet normal 0 -0.923904 0.382624
    outer loop
      vertex 0.0000 28.6820 1.9920
      vertex 5.6000 28.6820 1.9920
      vertex 5.6000 28.8021 2.2820
    endloop
  endfacet
  facet normal 0 -0.923904 0.382624
    outer loop
      vertex 0.0000 28.6820 1.9920
      vertex 5.6000 28.8021 2.2820
      vertex 0.0000 28.8021 2.2820
    endloop
  endfacet
  facet normal 0 -0.923904 -0.382624
    outer loop
      vertex 0.0000 28.6820 3.8080
      vertex 0.0000 28.8021 3.5180
      vertex 5.6000 28.6820 3.8080
    endloop
  endfacet
  facet normal -1 0 0
    outer loop
      vertex 0.0000 28.6820 3.8080
      vertex 0.0000 51.0000 6.2000
      vertex 0.0000 28.8021 3.5180
    endloop
  endfacet
  facet normal 0 -0.85262 -0.522532
    outer loop
      vertex 0.0000 28.6820 3.8080
      vertex 5.6000 28.6820 3.8080
      vertex 5.6000 28.5180 4.0756
    endloop
  endfacet
  facet normal -1 0 0
    outer loop
      vertex 0.0000 28.8021 2.2820
      vertex 0.0000 28.8754 2.5871
      vertex 0.0000 51.0000 0.0000
    endloop
  endfacet
  facet normal 0 -0.972332 0.233602
    outer loop
      vertex 0.0000 28.8021 2.2820
      vertex 5.6000 28.8021 2.2820
      vertex 5.6000 28.8754 2.5871
    endloop
  endfacet
  facet normal 0 -0.972332 0.233602
    outer loop
      vertex 0.0000 28.8021 2.2820
      vertex 5.6000 28.8754 2.5871
      vertex 0.0000 28.8754 2.5871
    endloop
  endfacet
  facet normal 0 -0.972332 -0.233602
    outer loop
      vertex 0.0000 28.8021 3.5180
      vertex 0.0000 28.8754 3.2129
      vertex 5.6000 28.8021 3.5180
    endloop
  endfacet
  facet normal -1 0 0
    outer loop
      vertex 0.0000 28.8021 3.5180
      vertex 0.0000 51.0000 6.2000
      vertex 0.0000 28.8754 3.2129
    endloop
  endfacet
  facet normal 0 -0.923904 -0.382624
    outer loop
      vertex 0.0000 28.8021 3.5180
      vertex 5.6000 28.8021 3.5180
      vertex 5.6000 28.6820 3.8080
    endloop
  endfacet
  facet normal -1 0 0
    outer loop
      vertex 0.0000 28.8754 2.5871
      vertex 0.0000 28.9000 2.9000
      vertex 0.0000 51.0000 0.0000
    endloop
  endfacet
  facet normal 0 -0.996924 0.078378
    outer loop
      vertex 0.0000 28.8754 2.5871
      vertex 5.6000 28.8754 2.5871
      vertex 5.6000 28.9000 2.9000
    endloop
  endfacet
  facet normal 0 -0.996924 0.078378
    outer loop
      vertex 0.0000 28.8754 2.5871
      vertex 5.6000 28.9000 2.9000
      vertex 0.0000 28.9000 2.9000
    endloop
  endfacet
  facet normal 0 -0.996924 -0.078378
    outer loop
      vertex 0.0000 28.8754 3.2129
      vertex 0.0000 28.9000 2.9000
      vertex 5.6000 28.8754 3.2129
    endloop
  endfacet
  facet normal -1 0 0
    outer loop
      vertex 0.0000 28.8754 3.2129
      vertex 0.0000 51.0000 6.2000
      vertex 0.0000 28.9000 2.9000
    endloop
  endfacet
  facet normal 0 -0.972332 -0.233602
    outer loop
      vertex 0.0000 28.8754 3.2129
      vertex 5.6000 28.8754 3.2129
      vertex 5.6000 28.8021 3.5180
    endloop
  endfacet
  facet normal -1 0 0
    outer loop
      vertex 0.0000 28.9000 2.9000
      vertex 0.0000 51.0000 6.2000
      vertex 0.0000 51.0000 0.0000
    endloop
  endfacet
  facet normal 0 -0.996924 -0.078378
    outer loop
      vertex 0.0000 28.9000 2.9000
      vertex 5.6000 28.9000 2.9000
      vertex 5.6000 28.8754 3.2129
    endloop
  endfacet
  facet normal 0 1 0
    outer loop
      vertex 0.0000 51.0000 0.0000
      vertex 0.0000 51.0000 6.2000
      vertex 4.5000 51.0000 0.0000
    endloop
  endfacet
  facet normal 0 0 -1
    outer loop
      vertex 0.0000 51.0000 0.0000
      vertex 4.5000 51.0000 0.0000
      vertex 4.5000 30.5000 0.0000
    endloop
  endfacet
  facet normal 0 0 1
    outer loop
      vertex 0.0000 51.0000 6.2000
      vertex 4.5000 30.5000 6.2000
      vertex 4.5000 51.0000 6.2000
    endloop
  endfacet
  facet normal 0 1 0
    outer loop
      vertex 0.0000 51.0000 6.2000
      vertex 4.5000 51.0000 6.2000
      vertex 4.5000 51.0000 0.0000
    endloop
  endfacet
  facet normal 0 1 0
    outer loop
      vertex 4.5000 30.5000 0.0000
      vertex 4.5000 30.5000 6.2000
      vertex 11.0000 30.5000 0.0000
    endloop
  endfacet
  facet normal 1 0 0
    outer loop
      vertex 4.5000 30.5000 0.0000
      vertex 4.5000 51.0000 0.0000
      vertex 4.5000 30.5000 6.2000
    endloop
  endfacet
  facet normal 0 0 -1
    outer loop
      vertex 4.5000 30.5000 0.0000
      vertex 11.0000 29.0000 0.0000
      vertex 15.5000 4.5000 0.0000
    endloop
  endfacet
  facet normal 0 0 -1
    outer loop
      vertex 4.5000 30.5000 0.0000
      vertex 11.0000 30.5000 0.0000
      vertex 11.0000 29.0000 0.0000
    endloop
  endfacet
  facet normal 1 0 0
    outer loop
      vertex 4.5000 30.5000 6.2000
      vertex 4.5000 51.0000 0.0000
      vertex 4.5000 51.0000 6.2000
    endloop
  endfacet
  facet normal 0 0 1
    outer loop
      vertex 4.5000 30.5000 6.2000
      vertex 11.0000 29.0000 6.2000
      vertex 11.0000 30.5000 6.2000
    endloop
  endfacet
  facet normal 0 1 0
    outer loop
      vertex 4.5000 30.5000 6.2000
      vertex 11.0000 30.5000 6.2000
      vertex 11.0000 30.5000 0.0000
    endloop
  endfacet
  facet normal -1 0 0
    outer loop
      vertex 5.6000 24.9000 2.9000
      vertex 5.6000 24.9246 3.2129
      vertex 5.6000 25.2500 2.9000
    endloop
  endfacet
  facet normal -1 0 0
    outer loop
      vertex 5.6000 24.9000 2.9000
      vertex 5.6000 25.2500 2.9000
      vertex 5.6000 24.9246 2.5871
    endloop
  endfacet
  facet normal -1 0 0
    outer loop
      vertex 5.6000 24.9246 2.5871
      vertex 5.6000 25.2500 2.9000
      vertex 5.6000 25.3062 2.4730
    endloop
  endfacet
  facet normal -1 0 0
    outer loop
      vertex 5.6000 24.9246 2.5871
      vertex 5.6000 25.3062 2.4730
      vertex 5.6000 24.9979 2.2820
    endloop
  endfacet
  facet normal -1 0 0
    outer loop
      vertex 5.6000 24.9246 3.2129
      vertex 5.6000 24.9979 3.5180
      vertex 5.6000 25.3062 3.3271
    endloop
  endfacet
  facet normal -1 0 0
    outer loop
      vertex 5.6000 24.9246 3.2129
      vertex 5.6000 25.3062 3.3271
      vertex 5.6000 25.2500 2.9000
    endloop
  endfacet
  facet normal -1 0 0
    outer loop
      vertex 5.6000 24.9979 2.2820
      vertex 5.6000 25.3062 2.4730
      vertex 5.6000 25.1180 1.9920
    endloop
  endfacet
  facet normal -1 0 0
    outer loop
      vertex 5.6000 24.9979 3.5180
      vertex 5.6000 25.1180 3.8080
      vertex 5.6000 25.3062 3.3271
    endloop
  endfacet
  facet normal -1 0 0
    outer loop
      vertex 5.6000 25.1180 1.9920
      vertex 5.6000 25.3062 2.4730
      vertex 5.6000 25.4711 2.0750
    endloop
  endfacet
  facet normal -1 0 0
    outer loop
      vertex 5.6000 25.1180 1.9920
      vertex 5.6000 25.4711 2.0750
      vertex 5.6000 25.2820 1.7244
    endloop
  endfacet
  facet normal -1 0 0
    outer loop
      vertex 5.6000 25.1180 3.8080
      vertex 5.6000 25.2820 4.0756
      vertex 5.6000 25.4711 3.7250
    endloop
  endfacet
  facet normal -1 0 0
    outer loop
      vertex 5.6000 25.1180 3.8080
      vertex 5.6000 25.4711 3.7250
      vertex 5.6000 25.3062 3.3271
    endloop
  endfacet
  facet normal 0 0.991454 -0.130461
    outer loop
      vertex 5.6000 25.2500 2.9000
      vertex 5.6000 25.3062 3.3271
      vertex 9.0000 25.2500 2.9000
    endloop
  endfacet
  facet normal 0 0.99145 0.130491
    outer loop
      vertex 5.6000 25.2500 2.9000
      vertex 9.0000 25.2500 2.9000
      vertex 9.0000 25.3062 2.4730
    endloop
  endfacet
  facet normal 0 0.99145 0.130491
    outer loop
      vertex 5.6000 25.2500 2.9000
      vertex 9.0000 25.3062 2.4730
      vertex 5.6000 25.3062 2.4730
    endloop
  endfacet
  facet normal -1 0 0
    outer loop
      vertex 5.6000 25.2820 1.7244
      vertex 5.6000 25.4711 2.0750
      vertex 5.6000 25.7333 1.7333
    endloop
  endfacet
  facet normal -1 0 0
    outer loop
      vertex 5.6000 25.2820 1.7244
      vertex 5.6000 25.7333 1.7333
      vertex 5.6000 25.4858 1.4858
    endloop
  endfacet
  facet normal -1 0 0
    outer loop
      vertex 5.6000 25.2820 4.0756
      vertex 5.6000 25.4858 4.3142
      vertex 5.6000 25.7333 4.0667
    endloop
  endfacet
  facet normal -1 0 0
    outer loop
      vertex 5.6000 25.2820 4.0756
      vertex 5.6000 25.7333 4.0667
      vertex 5.6000 25.4711 3.7250
    endloop
  endfacet
  facet normal 0 0.923844 0.382769
    outer loop
      vertex 5.6000 25.3062 2.4730
      vertex 9.0000 25.3062 2.4730
      vertex 9.0000 25.4711 2.0750
    endloop
  endfacet
  facet normal 0 0.923844 0.382769
    outer loop
      vertex 5.6000 25.3062 2.4730
      vertex 9.0000 25.4711 2.0750
      vertex 5.6000 25.4711 2.0750
    endloop
  endfacet
  facet normal 0 0.92381 -0.382851
    outer loop
      vertex 5.6000 25.3062 3.3271
      vertex 5.6000 25.4711 3.7250
      vertex 9.0000 25.3062 3.3271
    endloop
  endfacet
  facet normal 0 0.991454 -0.130461
    outer loop
      vertex 5.6000 25.3062 3.3271
      vertex 9.0000 25.3062 3.3271
      vertex 9.0000 25.2500 2.9000
    endloop
  endfacet
  facet normal 0 0.793348 0.608768
    outer loop
      vertex 5.6000 25.4711 2.0750
      vertex 9.0000 25.4711 2.0750
      vertex 9.0000 25.7333 1.7333
    endloop
  endfacet
  facet normal 0 0.793348 0.608768
    outer loop
      vertex 5.6000 25.4711 2.0750
      vertex 9.0000 25.7333 1.7333
      vertex 5.6000 25.7333 1.7333
    endloop
  endfacet
  facet normal 0 0.793348 -0.608768
    outer loop
      vertex 5.6000 25.4711 3.7250
      vertex 5.6000 25.7333 4.0667
      vertex 9.0000 25.4711 3.7250
    endloop
  endfacet
  facet normal 0 0.92381 -0.382851
    outer loop
      vertex 5.6000 25.4711 3.7250
      vertex 9.0000 25.4711 3.7250
      vertex 9.0000 25.3062 3.3271
    endloop
  endfacet
  facet normal -1 0 0
    outer loop
      vertex 5.6000 25.4858 1.4858
      vertex 5.6000 25.7333 1.7333
      vertex 5.6000 25.7244 1.2820
    endloop
  endfacet
  facet normal -1 0 0
    outer loop
      vertex 5.6000 25.4858 4.3142
      vertex 5.6000 25.7244 4.5180
      vertex 5.6000 25.7333 4.0667
    endloop
  endfacet
  facet normal -1 0 0
    outer loop
      vertex 5.6000 25.7244 1.2820
      vertex 5.6000 25.7333 1.7333
      vertex 5.6000 26.0750 1.4711
    endloop
  endfacet
  facet normal -1 0 0
    outer loop
      vertex 5.6000 25.7244 1.2820
      vertex 5.6000 26.0750 1.4711
      vertex 5.6000 25.9920 1.1180
    endloop
  endfacet
  facet normal -1 0 0
    outer loop
      vertex 5.6000 25.7244 4.5180
      vertex 5.6000 25.9920 4.6820
      vertex 5.6000 26.0750 4.3289
    endloop
  endfacet
  facet normal -1 0 0
    outer loop
      vertex 5.6000 25.7244 4.5180
      vertex 5.6000 26.0750 4.3289
      vertex 5.6000 25.7333 4.0667
    endloop
  endfacet
  facet normal 0 0.608768 0.793348
    outer loop
      vertex 5.6000 25.7333 1.7333
      vertex 9.0000 25.7333 1.7333
      vertex 5.6000 26.0750 1.4711
    endloop
  endfacet
  facet normal 0 0.608768 -0.793348
    outer loop
      vertex 5.6000 25.7333 4.0667
      vertex 5.6000 26.0750 4.3289
      vertex 9.0000 26.0750 4.3289
    endloop
  endfacet
  facet normal 0 0.793348 -0.608768
    outer loop
      vertex 5.6000 25.7333 4.0667
      vertex 9.0000 25.7333 4.0667
      vertex 9.0000 25.4711 3.7250
    endloop
  endfacet
  facet normal 0 0.608768 -0.793348
    outer loop
      vertex 5.6000 25.7333 4.0667
      vertex 9.0000 26.0750 4.3289
      vertex 9.0000 25.7333 4.0667
    endloop
  endfacet
  facet normal -1 0 0
    outer loop
      vertex 5.6000 25.9920 1.1180
      vertex 5.6000 26.0750 1.4711
      vertex 5.6000 26.2820 0.9979
    endloop
  endfacet
  facet normal -1 0 0
    outer loop
      vertex 5.6000 25.9920 4.6820
      vertex 5.6000 26.2820 4.8021
      vertex 5.6000 26.0750 4.3289
    endloop
  endfacet
  facet normal -1 0 0
    outer loop
      vertex 5.6000 26.0750 1.4711
      vertex 5.6000 26.4729 1.3062
      vertex 5.6000 26.2820 0.9979
    endloop
  endfacet
  facet normal 0 0.608768 0.793348
    outer loop
      vertex 5.6000 26.0750 1.4711
      vertex 9.0000 25.7333 1.7333
      vertex 9.0000 26.0750 1.4711
    endloop
  endfacet
  facet normal 0 0.382851 0.92381
    outer loop
      vertex 5.6000 26.0750 1.4711
      vertex 9.0000 26.0750 1.4711
      vertex 5.6000 26.4729 1.3062
    endloop
  endfacet
  facet normal -1 0 0
    outer loop
      vertex 5.6000 26.0750 4.3289
      vertex 5.6000 26.2820 4.8021
      vertex 5.6000 26.4729 4.4938
    endloop
  endfacet
  facet normal 0 0.382851 -0.92381
    outer loop
      vertex 5.6000 26.0750 4.3289
      vertex 5.6000 26.4729 4.4938
      vertex 9.0000 26.4729 4.4938
    endloop
  endfacet
  facet normal 0 0.382851 -0.92381
    outer loop
      vertex 5.6000 26.0750 4.3289
      vertex 9.0000 26.4729 4.4938
      vertex 9.0000 26.0750 4.3289
    endloop
  endfacet
  facet normal -1 0 0
    outer loop
      vertex 5.6000 26.2820 0.9979
      vertex 5.6000 26.4729 1.3062
      vertex 5.6000 26.5871 0.9246
    endloop
  endfacet
  facet normal -1 0 0
    outer loop
      vertex 5.6000 26.2820 4.8021
      vertex 5.6000 26.5871 4.8754
      vertex 5.6000 26.4729 4.4938
    endloop
  endfacet
  facet normal -1 0 0
    outer loop
      vertex 5.6000 26.4729 1.3062
      vertex 5.6000 26.9000 1.2500
      vertex 5.6000 26.5871 0.9246
    endloop
  endfacet
  facet normal 0 0.382851 0.92381
    outer loop
      vertex 5.6000 26.4729 1.3062
      vertex 9.0000 26.0750 1.4711
      vertex 9.0000 26.4729 1.3062
    endloop
  endfacet
  facet normal 0 0.130461 0.991454
    outer loop
      vertex 5.6000 26.4729 1.3062
      vertex 9.0000 26.4729 1.3062
      vertex 5.6000 26.9000 1.2500
    endloop
  endfacet
  facet normal -1 0 0
    outer loop
      vertex 5.6000 26.4729 4.4938
      vertex 5.6000 26.5871 4.8754
      vertex 5.6000 26.9000 4.5500
    endloop
  endfacet
  facet normal 0 0.130461 -0.991454
    outer loop
      vertex 5.6000 26.4729 4.4938
      vertex 5.6000 26.9000 4.5500
      vertex 9.0000 26.9000 4.5500
    endloop
  endfacet
  facet normal 0 0.130461 -0.991454
    outer loop
      vertex 5.6000 26.4729 4.4938
      vertex 9.0000 26.9000 4.5500
      vertex 9.0000 26.4729 4.4938
    endloop
  endfacet
  facet normal -1 0 0
    outer loop
      vertex 5.6000 26.5871 0.9246
      vertex 5.6000 26.9000 1.2500
      vertex 5.6000 26.9000 0.9000
    endloop
  endfacet
  facet normal -1 0 0
    outer loop
      vertex 5.6000 26.5871 4.8754
      vertex 5.6000 26.9000 4.9000
      vertex 5.6000 26.9000 4.5500
    endloop
  endfacet
  facet normal -1 0 0
    outer loop
      vertex 5.6000 26.9000 0.9000
      vertex 5.6000 26.9000 1.2500
      vertex 5.6000 27.2129 0.9246
    endloop
  endfacet
  facet normal -1 0 0
    outer loop
      vertex 5.6000 26.9000 1.2500
      vertex 5.6000 27.3271 1.3062
      vertex 5.6000 27.2129 0.9246
    endloop
  endfacet
  facet normal 0 0.130461 0.991454
    outer loop
      vertex 5.6000 26.9000 1.2500
      vertex 9.0000 26.4729 1.3062
      vertex 9.0000 26.9000 1.2500
    endloop
  endfacet
  facet normal 0 -0.130461 0.991454
    outer loop
      vertex 5.6000 26.9000 1.2500
      vertex 9.0000 26.9000 1.2500
      vertex 5.6000 27.3271 1.3062
    endloop
  endfacet
  facet normal -1 0 0
    outer loop
      vertex 5.6000 26.9000 4.5500
      vertex 5.6000 26.9000 4.9000
      vertex 5.6000 27.2129 4.8754
    endloop
  endfacet
  facet normal -1 0 0
    outer loop
      vertex 5.6000 26.9000 4.5500
      vertex 5.6000 27.2129 4.8754
      vertex 5.6000 27.3271 4.4938
    endloop
  endfacet
  facet normal 0 -0.130461 -0.991454
    outer loop
      vertex 5.6000 26.9000 4.5500
      vertex 5.6000 27.3271 4.4938
      vertex 9.0000 27.3271 4.4938
    endloop
  endfacet
  facet normal 0 -0.130461 -0.991454
    outer loop
      vertex 5.6000 26.9000 4.5500
      vertex 9.0000 27.3271 4.4938
      vertex 9.0000 26.9000 4.5500
    endloop
  endfacet
  facet normal -1 0 0
    outer loop
      vertex 5.6000 27.2129 0.9246
      vertex 5.6000 27.3271 1.3062
      vertex 5.6000 27.5180 0.9979
    endloop
  endfacet
  facet normal -1 0 0
    outer loop
      vertex 5.6000 27.2129 4.8754
      vertex 5.6000 27.5180 4.8021
      vertex 5.6000 27.3271 4.4938
    endloop
  endfacet
  facet normal -1 0 0
    outer loop
      vertex 5.6000 27.3271 1.3062
      vertex 5.6000 27.7250 1.4711
      vertex 5.6000 27.5180 0.9979
    endloop
  endfacet
  facet normal 0 -0.130461 0.991454
    outer loop
      vertex 5.6000 27.3271 1.3062
      vertex 9.0000 26.9000 1.2500
      vertex 9.0000 27.3271 1.3062
    endloop
  endfacet
  facet normal 0 -0.382851 0.92381
    outer loop
      vertex 5.6000 27.3271 1.3062
      vertex 9.0000 27.3271 1.3062
      vertex 5.6000 27.7250 1.4711
    endloop
  endfacet
  facet normal -1 0 0
    outer loop
      vertex 5.6000 27.3271 4.4938
      vertex 5.6000 27.5180 4.8021
      vertex 5.6000 27.7250 4.3289
    endloop
  endfacet
  facet normal 0 -0.382851 -0.92381
    outer loop
      vertex 5.6000 27.3271 4.4938
      vertex 5.6000 27.7250 4.3289
      vertex 9.0000 27.7250 4.3289
    endloop
  endfacet
  facet normal 0 -0.382851 -0.92381
    outer loop
      vertex 5.6000 27.3271 4.4938
      vertex 9.0000 27.7250 4.3289
      vertex 9.0000 27.3271 4.4938
    endloop
  endfacet
  facet normal -1 0 0
    outer loop
      vertex 5.6000 27.5180 0.9979
      vertex 5.6000 27.7250 1.4711
      vertex 5.6000 27.8080 1.1180
    endloop
  endfacet
  facet normal -1 0 0
    outer loop
      vertex 5.6000 27.5180 4.8021
      vertex 5.6000 27.8080 4.6820
      vertex 5.6000 27.7250 4.3289
    endloop
  endfacet
  facet normal -1 0 0
    outer loop
      vertex 5.6000 27.7250 1.4711
      vertex 5.6000 28.0667 1.7333
      vertex 5.6000 28.0756 1.2820
    endloop
  endfacet
  facet normal -1 0 0
    outer loop
      vertex 5.6000 27.7250 1.4711
      vertex 5.6000 28.0756 1.2820
      vertex 5.6000 27.8080 1.1180
    endloop
  endfacet
  facet normal 0 -0.382851 0.92381
    outer loop
      vertex 5.6000 27.7250 1.4711
      vertex 9.0000 27.3271 1.3062
      vertex 9.0000 27.7250 1.4711
    endloop
  endfacet
  facet normal 0 -0.608768 0.793348
    outer loop
      vertex 5.6000 27.7250 1.4711
      vertex 9.0000 27.7250 1.4711
      vertex 5.6000 28.0667 1.7333
    endloop
  endfacet
  facet normal -1 0 0
    outer loop
      vertex 5.6000 27.7250 4.3289
      vertex 5.6000 27.8080 4.6820
      vertex 5.6000 28.0756 4.5180
    endloop
  endfacet
  facet normal 0 -0.608768 -0.793348
    outer loop
      vertex 5.6000 27.7250 4.3289
      vertex 5.6000 28.0667 4.0667
      vertex 9.0000 28.0667 4.0667
    endloop
  endfacet
  facet normal -1 0 0
    outer loop
      vertex 5.6000 27.7250 4.3289
      vertex 5.6000 28.0756 4.5180
      vertex 5.6000 28.0667 4.0667
    endloop
  endfacet
  facet normal 0 -0.608768 -0.793348
    outer loop
      vertex 5.6000 27.7250 4.3289
      vertex 9.0000 28.0667 4.0667
      vertex 9.0000 27.7250 4.3289
    endloop
  endfacet
  facet normal -1 0 0
    outer loop
      vertex 5.6000 28.0667 1.7333
      vertex 5.6000 28.3142 1.4858
      vertex 5.6000 28.0756 1.2820
    endloop
  endfacet
  facet normal -1 0 0
    outer loop
      vertex 5.6000 28.0667 1.7333
      vertex 5.6000 28.3289 2.0750
      vertex 5.6000 28.5180 1.7244
    endloop
  endfacet
  facet normal -1 0 0
    outer loop
      vertex 5.6000 28.0667 1.7333
      vertex 5.6000 28.5180 1.7244
      vertex 5.6000 28.3142 1.4858
    endloop
  endfacet
  facet normal 0 -0.608768 0.793348
    outer loop
      vertex 5.6000 28.0667 1.7333
      vertex 9.0000 27.7250 1.4711
      vertex 9.0000 28.0667 1.7333
    endloop
  endfacet
  facet normal 0 -0.793348 0.608768
    outer loop
      vertex 5.6000 28.0667 1.7333
      vertex 9.0000 28.0667 1.7333
      vertex 9.0000 28.3289 2.0750
    endloop
  endfacet
  facet normal 0 -0.793348 0.608768
    outer loop
      vertex 5.6000 28.0667 1.7333
      vertex 9.0000 28.3289 2.0750
      vertex 5.6000 28.3289 2.0750
    endloop
  endfacet
  facet normal -1 0 0
    outer loop
      vertex 5.6000 28.0667 4.0667
      vertex 5.6000 28.0756 4.5180
      vertex 5.6000 28.3142 4.3142
    endloop
  endfacet
  facet normal -1 0 0
    outer loop
      vertex 5.6000 28.0667 4.0667
      vertex 5.6000 28.3142 4.3142
      vertex 5.6000 28.5180 4.0756
    endloop
  endfacet
  facet normal 0 -0.793348 -0.608768
    outer loop
      vertex 5.6000 28.0667 4.0667
      vertex 5.6000 28.3289 3.7250
      vertex 9.0000 28.0667 4.0667
    endloop
  endfacet
  facet normal -1 0 0
    outer loop
      vertex 5.6000 28.0667 4.0667
      vertex 5.6000 28.5180 4.0756
      vertex 5.6000 28.3289 3.7250
    endloop
  endfacet
  facet normal -1 0 0
    outer loop
      vertex 5.6000 28.3289 2.0750
      vertex 5.6000 28.4938 2.4730
      vertex 5.6000 28.6820 1.9920
    endloop
  endfacet
  facet normal -1 0 0
    outer loop
      vertex 5.6000 28.3289 2.0750
      vertex 5.6000 28.6820 1.9920
      vertex 5.6000 28.5180 1.7244
    endloop
  endfacet
  facet normal 0 -0.923844 0.382769
    outer loop
      vertex 5.6000 28.3289 2.0750
      vertex 9.0000 28.3289 2.0750
      vertex 9.0000 28.4938 2.4730
    endloop
  endfacet
  facet normal 0 -0.923844 0.382769
    outer loop
      vertex 5.6000 28.3289 2.0750
      vertex 9.0000 28.4938 2.4730
      vertex 5.6000 28.4938 2.4730
    endloop
  endfacet
  facet normal 0 -0.92381 -0.382851
    outer loop
      vertex 5.6000 28.3289 3.7250
      vertex 5.6000 28.4938 3.3271
      vertex 9.0000 28.3289 3.7250
    endloop
  endfacet
  facet normal -1 0 0
    outer loop
      vertex 5.6000 28.3289 3.7250
      vertex 5.6000 28.5180 4.0756
      vertex 5.6000 28.6820 3.8080
    endloop
  endfacet
  facet normal -1 0 0
    outer loop
      vertex 5.6000 28.3289 3.7250
      vertex 5.6000 28.6820 3.8080
      vertex 5.6000 28.4938 3.3271
    endloop
  endfacet
  facet normal 0 -0.793348 -0.608768
    outer loop
      vertex 5.6000 28.3289 3.7250
      vertex 9.0000 28.3289 3.7250
      vertex 9.0000 28.0667 4.0667
    endloop
  endfacet
  facet normal -1 0 0
    outer loop
      vertex 5.6000 28.4938 2.4730
      vertex 5.6000 28.5500 2.9000
      vertex 5.6000 28.8754 2.5871
    endloop
  endfacet
  facet normal -1 0 0
    outer loop
      vertex 5.6000 28.4938 2.4730
      vertex 5.6000 28.8021 2.2820
      vertex 5.6000 28.6820 1.9920
    endloop
  endfacet
  facet normal -1 0 0
    outer loop
      vertex 5.6000 28.4938 2.4730
      vertex 5.6000 28.8754 2.5871
      vertex 5.6000 28.8021 2.2820
    endloop
  endfacet
  facet normal 0 -0.99145 0.130491
    outer loop
      vertex 5.6000 28.4938 2.4730
      vertex 9.0000 28.4938 2.4730
      vertex 9.0000 28.5500 2.9000
    endloop
  endfacet
  facet normal 0 -0.99145 0.130491
    outer loop
      vertex 5.6000 28.4938 2.4730
      vertex 9.0000 28.5500 2.9000
      vertex 5.6000 28.5500 2.9000
    endloop
  endfacet
  facet normal 0 -0.991454 -0.130461
    outer loop
      vertex 5.6000 28.4938 3.3271
      vertex 5.6000 28.5500 2.9000
      vertex 9.0000 28.4938 3.3271
    endloop
  endfacet
  facet normal -1 0 0
    outer loop
      vertex 5.6000 28.4938 3.3271
      vertex 5.6000 28.6820 3.8080
      vertex 5.6000 28.8021 3.5180
    endloop
  endfacet
  facet normal -1 0 0
    outer loop
      vertex 5.6000 28.4938 3.3271
      vertex 5.6000 28.8021 3.5180
      vertex 5.6000 28.8754 3.2129
    endloop
  endfacet
  facet normal -1 0 0
    outer loop
      vertex 5.6000 28.4938 3.3271
      vertex 5.6000 28.8754 3.2129
      vertex 5.6000 28.5500 2.9000
    endloop
  endfacet
  facet normal 0 -0.92381 -0.382851
    outer loop
      vertex 5.6000 28.4938 3.3271
      vertex 9.0000 28.4938 3.3271
      vertex 9.0000 28.3289 3.7250
    endloop
  endfacet
  facet normal -1 0 0
    outer loop
      vertex 5.6000 28.5500 2.9000
      vertex 5.6000 28.8754 3.2129
      vertex 5.6000 28.9000 2.9000
    endloop
  endfacet
  facet normal -1 0 0
    outer loop
      vertex 5.6000 28.5500 2.9000
      vertex 5.6000 28.9000 2.9000
      vertex 5.6000 28.8754 2.5871
    endloop
  endfacet
  facet normal 0 -0.991454 -0.130461
    outer loop
      vertex 5.6000 28.5500 2.9000
      vertex 9.0000 28.5500 2.9000
      vertex 9.0000 28.4938 3.3271
    endloop
  endfacet
  facet normal -1 0 0
    outer loop
      vertex 9.0000 25.2500 2.9000
      vertex 9.0000 25.3062 3.3271
      vertex 9.0000 25.3062 2.4730
    endloop
  endfacet
  facet normal -1 0 0
    outer loop
      vertex 9.0000 25.3062 2.4730
      vertex 9.0000 25.3062 3.3271
      vertex 9.0000 25.4711 3.7250
    endloop
  endfacet
  facet normal -1 0 0
    outer loop
      vertex 9.0000 25.3062 2.4730
      vertex 9.0000 25.4711 3.7250
      vertex 9.0000 25.4711 2.0750
    endloop
  endfacet
  facet normal -1 0 0
    outer loop
      vertex 9.0000 25.4711 2.0750
      vertex 9.0000 25.4711 3.7250
      vertex 9.0000 25.7333 4.0667
    endloop
  endfacet
  facet normal -1 0 0
    outer loop
      vertex 9.0000 25.4711 2.0750
      vertex 9.0000 25.7333 4.0667
      vertex 9.0000 25.7333 1.7333
    endloop
  endfacet
  facet normal -1 0 0
    outer loop
      vertex 9.0000 25.7333 1.7333
      vertex 9.0000 25.7333 4.0667
      vertex 9.0000 26.0750 4.3289
    endloop
  endfacet
  facet normal -1 0 0
    outer loop
      vertex 9.0000 25.7333 1.7333
      vertex 9.0000 26.0750 4.3289
      vertex 9.0000 26.0750 1.4711
    endloop
  endfacet
  facet normal -1 0 0
    outer loop
      vertex 9.0000 26.0750 1.4711
      vertex 9.0000 26.0750 4.3289
      vertex 9.0000 26.4729 4.4938
    endloop
  endfacet
  facet normal -1 0 0
    outer loop
      vertex 9.0000 26.0750 1.4711
      vertex 9.0000 26.4729 4.4938
      vertex 9.0000 26.4729 1.3062
    endloop
  endfacet
  facet normal -1 0 0
    outer loop
      vertex 9.0000 26.4729 1.3062
      vertex 9.0000 26.4729 4.4938
      vertex 9.0000 26.9000 4.5500
    endloop
  endfacet
  facet normal -1 0 0
    outer loop
      vertex 9.0000 26.4729 1.3062
      vertex 9.0000 26.9000 4.5500
      vertex 9.0000 26.9000 1.2500
    endloop
  endfacet
  facet normal -1 0 0
    outer loop
      vertex 9.0000 26.9000 1.2500
      vertex 9.0000 26.9000 4.5500
      vertex 9.0000 27.3271 4.4938
    endloop
  endfacet
  facet normal -1 0 0
    outer loop
      vertex 9.0000 26.9000 1.2500
      vertex 9.0000 27.3271 4.4938
      vertex 9.0000 27.3271 1.3062
    endloop
  endfacet
  facet normal -1 0 0
    outer loop
      vertex 9.0000 27.3271 1.3062
      vertex 9.0000 27.3271 4.4938
      vertex 9.0000 27.7250 4.3289
    endloop
  endfacet
  facet normal -1 0 0
    outer loop
      vertex 9.0000 27.3271 1.3062
      vertex 9.0000 27.7250 4.3289
      vertex 9.0000 27.7250 1.4711
    endloop
  endfacet
  facet normal -1 0 0
    outer loop
      vertex 9.0000 27.7250 1.4711
      vertex 9.0000 27.7250 4.3289
      vertex 9.0000 28.0667 4.0667
    endloop
  endfacet
  facet normal -1 0 0
    outer loop
      vertex 9.0000 27.7250 1.4711
      vertex 9.0000 28.0667 4.0667
      vertex 9.0000 28.0667 1.7333
    endloop
  endfacet
  facet normal -1 0 0
    outer loop
      vertex 9.0000 28.0667 1.7333
      vertex 9.0000 28.0667 4.0667
      vertex 9.0000 28.3289 3.7250
    endloop
  endfacet
  facet normal -1 0 0
    outer loop
      vertex 9.0000 28.0667 1.7333
      vertex 9.0000 28.3289 3.7250
      vertex 9.0000 28.3289 2.0750
    endloop
  endfacet
  facet normal -1 0 0
    outer loop
      vertex 9.0000 28.3289 2.0750
      vertex 9.0000 28.3289 3.7250
      vertex 9.0000 28.4938 3.3271
    endloop
  endfacet
  facet normal -1 0 0
    outer loop
      vertex 9.0000 28.3289 2.0750
      vertex 9.0000 28.4938 3.3271
      vertex 9.0000 28.4938 2.4730
    endloop
  endfacet
  facet normal -1 0 0
    outer loop
      vertex 9.0000 28.4938 2.4730
      vertex 9.0000 28.4938 3.3271
      vertex 9.0000 28.5500 2.9000
    endloop
  endfacet
  facet normal 0 1 0
    outer loop
      vertex 11.0000 29.0000 0.0000
      vertex 11.0000 29.0000 6.2000
      vertex 29.9000 29.0000 0.0000
    endloop
  endfacet
  facet normal 1 0 0
    outer loop
      vertex 11.0000 29.0000 0.0000
      vertex 11.0000 30.5000 0.0000
      vertex 11.0000 29.0000 6.2000
    endloop
  endfacet
  facet normal 0 0 -1
    outer loop
      vertex 11.0000 29.0000 0.0000
      vertex 15.5250 4.8129 0.0000
      vertex 15.5000 4.5000 0.0000
    endloop
  endfacet
  facet normal 0 0 -1
    outer loop
      vertex 11.0000 29.0000 0.0000
      vertex 15.5980 5.1180 0.0000
      vertex 15.5250 4.8129 0.0000
    endloop
  endfacet
  facet normal 0 0 -1
    outer loop
      vertex 11.0000 29.0000 0.0000
      vertex 15.7180 5.4080 0.0000
      vertex 15.5980 5.1180 0.0000
    endloop
  endfacet
  facet normal 0 0 -1
    outer loop
      vertex 11.0000 29.0000 0.0000
      vertex 15.8820 5.6756 0.0000
      vertex 15.7180 5.4080 0.0000
    endloop
  endfacet
  facet normal 0 0 -1
    outer loop
      vertex 11.0000 29.0000 0.0000
      vertex 16.0860 5.9142 0.0000
      vertex 15.8820 5.6756 0.0000
    endloop
  endfacet
  facet normal 0 0 -1
    outer loop
      vertex 11.0000 29.0000 0.0000
      vertex 16.3240 6.1180 0.0000
      vertex 16.0860 5.9142 0.0000
    endloop
  endfacet
  facet normal 0 0 -1
    outer loop
      vertex 11.0000 29.0000 0.0000
      vertex 16.5920 6.2820 0.0000
      vertex 16.3240 6.1180 0.0000
    endloop
  endfacet
  facet normal 0 0 -1
    outer loop
      vertex 11.0000 29.0000 0.0000
      vertex 16.8820 6.4021 0.0000
      vertex 16.5920 6.2820 0.0000
    endloop
  endfacet
  facet normal 0 0 -1
    outer loop
      vertex 11.0000 29.0000 0.0000
      vertex 17.1870 6.4754 0.0000
      vertex 16.8820 6.4021 0.0000
    endloop
  endfacet
  facet normal 0 0 -1
    outer loop
      vertex 11.0000 29.0000 0.0000
      vertex 17.5000 6.5000 0.0000
      vertex 17.1870 6.4754 0.0000
    endloop
  endfacet
  facet normal 0 0 -1
    outer loop
      vertex 11.0000 29.0000 0.0000
      vertex 17.8129 6.4754 0.0000
      vertex 17.5000 6.5000 0.0000
    endloop
  endfacet
  facet normal 0 0 -1
    outer loop
      vertex 11.0000 29.0000 0.0000
      vertex 29.9000 26.0000 0.0000
      vertex 17.8129 6.4754 0.0000
    endloop
  endfacet
  facet normal 0 0 -1
    outer loop
      vertex 11.0000 29.0000 0.0000
      vertex 29.9000 29.0000 0.0000
      vertex 29.9000 26.0000 0.0000
    endloop
  endfacet
  facet normal 1 0 0
    outer loop
      vertex 11.0000 29.0000 6.2000
      vertex 11.0000 30.5000 0.0000
      vertex 11.0000 30.5000 6.2000
    endloop
  endfacet
  facet normal 0 0 1
    outer loop
      vertex 11.0000 29.0000 6.2000
      vertex 29.9000 4.5000 6.2000
      vertex 29.9000 26.0000 6.2000
    endloop
  endfacet
  facet normal 0 0 1
    outer loop
      vertex 11.0000 29.0000 6.2000
      vertex 29.9000 26.0000 6.2000
      vertex 29.9000 29.0000 6.2000
    endloop
  endfacet
  facet normal 0 1 0
    outer loop
      vertex 11.0000 29.0000 6.2000
      vertex 29.9000 29.0000 6.2000
      vertex 29.9000 29.0000 0.0000
    endloop
  endfacet
  facet normal 0.996823 0.079644 0
    outer loop
      vertex 15.5000 4.5000 0.0000
      vertex 15.5000 4.5000 5.6000
      vertex 15.5250 4.1871 5.6000
    endloop
  endfacet
  facet normal 0.996823 0.079644 0
    outer loop
      vertex 15.5000 4.5000 0.0000
      vertex 15.5250 4.1871 5.6000
      vertex 15.5250 4.1871 0.0000
    endloop
  endfacet
  facet normal 0.996823 -0.079644 0
    outer loop
      vertex 15.5000 4.5000 0.0000
      vertex 15.5250 4.8129 0.0000
      vertex 15.5000 4.5000 5.6000
    endloop
  endfacet
  facet normal 0.996823 -0.079644 0
    outer loop
      vertex 15.5000 4.5000 5.6000
      vertex 15.5250 4.8129 0.0000
      vertex 15.5250 4.8129 5.6000
    endloop
  endfacet
  facet normal 0 0 -1
    outer loop
      vertex 15.5000 4.5000 5.6000
      vertex 15.5250 4.8129 5.6000
      vertex 15.5250 4.1871 5.6000
    endloop
  endfacet
  facet normal 0.972549 0.232698 0
    outer loop
      vertex 15.5250 4.1871 0.0000
      vertex 15.5250 4.1871 5.6000
      vertex 15.5980 3.8820 5.6000
    endloop
  endfacet
  facet normal 0.972549 0.232698 0
    outer loop
      vertex 15.5250 4.1871 0.0000
      vertex 15.5980 3.8820 5.6000
      vertex 15.5980 3.8820 0.0000
    endloop
  endfacet
  facet normal 0 0 -1
    outer loop
      vertex 15.5250 4.1871 5.6000
      vertex 15.5250 4.8129 5.6000
      vertex 15.5980 5.1180 5.6000
    endloop
  endfacet
  facet normal 0 0 -1
    outer loop
      vertex 15.5250 4.1871 5.6000
      vertex 15.5980 5.1180 5.6000
      vertex 15.5980 3.8820 5.6000
    endloop
  endfacet
  facet normal 0.972549 -0.232698 0
    outer loop
      vertex 15.5250 4.8129 0.0000
      vertex 15.5980 5.1180 0.0000
      vertex 15.5250 4.8129 5.6000
    endloop
  endfacet
  facet normal 0.972549 -0.232698 0
    outer loop
      vertex 15.5250 4.8129 5.6000
      vertex 15.5980 5.1180 0.0000
      vertex 15.5980 5.1180 5.6000
    endloop
  endfacet
  facet normal 0.924017 0.382352 0
    outer loop
      vertex 15.5980 3.8820 0.0000
      vertex 15.5980 3.8820 5.6000
      vertex 15.7180 3.5920 5.6000
    endloop
  endfacet
  facet normal 0.924017 0.382352 0
    outer loop
      vertex 15.5980 3.8820 0.0000
      vertex 15.7180 3.5920 5.6000
      vertex 15.7180 3.5920 0.0000
    endloop
  endfacet
  facet normal 0 0 -1
    outer loop
      vertex 15.5980 3.8820 5.6000
      vertex 15.5980 5.1180 5.6000
      vertex 15.7180 5.4080 5.6000
    endloop
  endfacet
  facet normal 0 0 -1
    outer loop
      vertex 15.5980 3.8820 5.6000
      vertex 15.7180 5.4080 5.6000
      vertex 15.7180 3.5920 5.6000
    endloop
  endfacet
  facet normal 0.924017 -0.382352 0
    outer loop
      vertex 15.5980 5.1180 0.0000
      vertex 15.7180 5.4080 0.0000
      vertex 15.5980 5.1180 5.6000
    endloop
  endfacet
  facet normal 0.924017 -0.382352 0
    outer loop
      vertex 15.5980 5.1180 5.6000
      vertex 15.7180 5.4080 0.0000
      vertex 15.7180 5.4080 5.6000
    endloop
  endfacet
  facet normal 0.85262 0.522532 0
    outer loop
      vertex 15.7180 3.5920 0.0000
      vertex 15.7180 3.5920 5.6000
      vertex 15.8820 3.3244 5.6000
    endloop
  endfacet
  facet normal 0.85262 0.522532 0
    outer loop
      vertex 15.7180 3.5920 0.0000
      vertex 15.8820 3.3244 5.6000
      vertex 15.8820 3.3244 0.0000
    endloop
  endfacet
  facet normal 0 0 -1
    outer loop
      vertex 15.7180 3.5920 5.6000
      vertex 15.7180 5.4080 5.6000
      vertex 15.8820 5.6756 5.6000
    endloop
  endfacet
  facet normal 0 0 -1
    outer loop
      vertex 15.7180 3.5920 5.6000
      vertex 15.8820 5.6756 5.6000
      vertex 15.8820 3.3244 5.6000
    endloop
  endfacet
  facet normal 0.85262 -0.522532 0
    outer loop
      vertex 15.7180 5.4080 0.0000
      vertex 15.8820 5.6756 0.0000
      vertex 15.7180 5.4080 5.6000
    endloop
  endfacet
  facet normal 0.85262 -0.522532 0
    outer loop
      vertex 15.7180 5.4080 5.6000
      vertex 15.8820 5.6756 0.0000
      vertex 15.8820 5.6756 5.6000
    endloop
  endfacet
  facet normal 0.760066 0.649846 0
    outer loop
      vertex 15.8820 3.3244 0.0000
      vertex 15.8820 3.3244 5.6000
      vertex 16.0860 3.0858 5.6000
    endloop
  endfacet
  facet normal 0.760066 0.649846 0
    outer loop
      vertex 15.8820 3.3244 0.0000
      vertex 16.0860 3.0858 5.6000
      vertex 16.0860 3.0858 0.0000
    endloop
  endfacet
  facet normal 0 0 -1
    outer loop
      vertex 15.8820 3.3244 5.6000
      vertex 15.8820 5.6756 5.6000
      vertex 16.0860 5.9142 5.6000
    endloop
  endfacet
  facet normal 0 0 -1
    outer loop
      vertex 15.8820 3.3244 5.6000
      vertex 16.0860 5.9142 5.6000
      vertex 16.0860 3.0858 5.6000
    endloop
  endfacet
  facet normal 0.760066 -0.649846 0
    outer loop
      vertex 15.8820 5.6756 0.0000
      vertex 16.0860 5.9142 0.0000
      vertex 15.8820 5.6756 5.6000
    endloop
  endfacet
  facet normal 0.760066 -0.649846 0
    outer loop
      vertex 15.8820 5.6756 5.6000
      vertex 16.0860 5.9142 0.0000
      vertex 16.0860 5.9142 5.6000
    endloop
  endfacet
  facet normal 0.650423 0.759572 0
    outer loop
      vertex 16.0860 3.0858 0.0000
      vertex 16.0860 3.0858 5.6000
      vertex 16.3240 2.8820 0.0000
    endloop
  endfacet
  facet normal 0 0 -1
    outer loop
      vertex 16.0860 3.0858 5.6000
      vertex 16.0860 5.9142 5.6000
      vertex 16.3240 6.1180 5.6000
    endloop
  endfacet
  facet normal 0.650423 0.759572 0
    outer loop
      vertex 16.0860 3.0858 5.6000
      vertex 16.3240 2.8820 5.6000
      vertex 16.3240 2.8820 0.0000
    endloop
  endfacet
  facet normal 0 0 -1
    outer loop
      vertex 16.0860 3.0858 5.6000
      vertex 16.3240 6.1180 5.6000
      vertex 16.3240 2.8820 5.6000
    endloop
  endfacet
  facet normal 0.650423 -0.759572 0
    outer loop
      vertex 16.0860 5.9142 0.0000
      vertex 16.3240 6.1180 0.0000
      vertex 16.3240 6.1180 5.6000
    endloop
  endfacet
  facet normal 0.650423 -0.759572 0
    outer loop
      vertex 16.0860 5.9142 0.0000
      vertex 16.3240 6.1180 5.6000
      vertex 16.0860 5.9142 5.6000
    endloop
  endfacet
  facet normal 0.521965 0.852967 0
    outer loop
      vertex 16.3240 2.8820 0.0000
      vertex 16.3240 2.8820 5.6000
      vertex 16.5920 2.7180 0.0000
    endloop
  endfacet
  facet normal 0 0 -1
    outer loop
      vertex 16.3240 2.8820 5.6000
      vertex 16.3240 6.1180 5.6000
      vertex 16.5920 6.2820 5.6000
    endloop
  endfacet
  facet normal 0.521965 0.852967 0
    outer loop
      vertex 16.3240 2.8820 5.6000
      vertex 16.5920 2.7180 5.6000
      vertex 16.5920 2.7180 0.0000
    endloop
  endfacet
  facet normal 0 0 -1
    outer loop
      vertex 16.3240 2.8820 5.6000
      vertex 16.5920 6.2820 5.6000
      vertex 16.5920 2.7180 5.6000
    endloop
  endfacet
  facet normal 0.521965 -0.852967 0
    outer loop
      vertex 16.3240 6.1180 0.0000
      vertex 16.5920 6.2820 0.0000
      vertex 16.5920 6.2820 5.6000
    endloop
  endfacet
  facet normal 0.521965 -0.852967 0
    outer loop
      vertex 16.3240 6.1180 0.0000
      vertex 16.5920 6.2820 5.6000
      vertex 16.3240 6.1180 5.6000
    endloop
  endfacet
  facet normal 0.382624 0.923904 0
    outer loop
      vertex 16.5920 2.7180 0.0000
      vertex 16.5920 2.7180 5.6000
      vertex 16.8820 2.5979 0.0000
    endloop
  endfacet
  facet normal 0 0 -1
    outer loop
      vertex 16.5920 2.7180 5.6000
      vertex 16.5920 6.2820 5.6000
      vertex 16.8820 6.4021 5.6000
    endloop
  endfacet
  facet normal 0.382624 0.923904 0
    outer loop
      vertex 16.5920 2.7180 5.6000
      vertex 16.8820 2.5979 5.6000
      vertex 16.8820 2.5979 0.0000
    endloop
  endfacet
  facet normal 0 0 -1
    outer loop
      vertex 16.5920 2.7180 5.6000
      vertex 16.8820 6.4021 5.6000
      vertex 16.8820 2.5979 5.6000
    endloop
  endfacet
  facet normal 0.382624 -0.923904 0
    outer loop
      vertex 16.5920 6.2820 0.0000
      vertex 16.8820 6.4021 0.0000
      vertex 16.8820 6.4021 5.6000
    endloop
  endfacet
  facet normal 0.382624 -0.923904 0
    outer loop
      vertex 16.5920 6.2820 0.0000
      vertex 16.8820 6.4021 5.6000
      vertex 16.5920 6.2820 5.6000
    endloop
  endfacet
  facet normal 0.233674 0.972315 0
    outer loop
      vertex 16.8820 2.5979 0.0000
      vertex 16.8820 2.5979 5.6000
      vertex 17.1870 2.5246 0.0000
    endloop
  endfacet
  facet normal 0 0 -1
    outer loop
      vertex 16.8820 2.5979 5.6000
      vertex 16.8820 6.4021 5.6000
      vertex 17.1870 6.4754 5.6000
    endloop
  endfacet
  facet normal 0.233674 0.972315 0
    outer loop
      vertex 16.8820 2.5979 5.6000
      vertex 17.1870 2.5246 5.6000
      vertex 17.1870 2.5246 0.0000
    endloop
  endfacet
  facet normal 0 0 -1
    outer loop
      vertex 16.8820 2.5979 5.6000
      vertex 17.1870 6.4754 5.6000
      vertex 17.1870 2.5246 5.6000
    endloop
  endfacet
  facet normal 0.233674 -0.972315 0
    outer loop
      vertex 16.8820 6.4021 0.0000
      vertex 17.1870 6.4754 0.0000
      vertex 17.1870 6.4754 5.6000
    endloop
  endfacet
  facet normal 0.233674 -0.972315 0
    outer loop
      vertex 16.8820 6.4021 0.0000
      vertex 17.1870 6.4754 5.6000
      vertex 16.8820 6.4021 5.6000
    endloop
  endfacet
  facet normal 0.078353 0.996926 0
    outer loop
      vertex 17.1870 2.5246 0.0000
      vertex 17.1870 2.5246 5.6000
      vertex 17.5000 2.5000 0.0000
    endloop
  endfacet
  facet normal 0 0 -1
    outer loop
      vertex 17.1870 2.5246 5.6000
      vertex 17.1870 6.4754 5.6000
      vertex 17.5000 6.5000 5.6000
    endloop
  endfacet
  facet normal 0.078353 0.996926 0
    outer loop
      vertex 17.1870 2.5246 5.6000
      vertex 17.5000 2.5000 5.6000
      vertex 17.5000 2.5000 0.0000
    endloop
  endfacet
  facet normal 0 0 -1
    outer loop
      vertex 17.1870 2.5246 5.6000
      vertex 17.5000 6.5000 5.6000
      vertex 17.5000 2.5000 5.6000
    endloop
  endfacet
  facet normal 0.078353 -0.996926 0
    outer loop
      vertex 17.1870 6.4754 0.0000
      vertex 17.5000 6.5000 0.0000
      vertex 17.5000 6.5000 5.6000
    endloop
  endfacet
  facet normal 0.078353 -0.996926 0
    outer loop
      vertex 17.1870 6.4754 0.0000
      vertex 17.5000 6.5000 5.6000
      vertex 17.1870 6.4754 5.6000
    endloop
  endfacet
  facet normal -0.078378 0.996924 0
    outer loop
      vertex 17.5000 2.5000 0.0000
      vertex 17.5000 2.5000 5.6000
      vertex 17.8129 2.5246 0.0000
    endloop
  endfacet
  facet normal 0 0 -1
    outer loop
      vertex 17.5000 2.5000 0.0000
      vertex 17.8129 2.5246 0.0000
      vertex 29.9000 0.0000 0.0000
    endloop
  endfacet
  facet normal 0 0 -1
    outer loop
      vertex 17.5000 2.5000 5.6000
      vertex 17.5000 6.5000 5.6000
      vertex 17.8129 6.4754 5.6000
    endloop
  endfacet
  facet normal -0.078378 0.996924 0
    outer loop
      vertex 17.5000 2.5000 5.6000
      vertex 17.8129 2.5246 5.6000
      vertex 17.8129 2.5246 0.0000
    endloop
  endfacet
  facet normal 0 0 -1
    outer loop
      vertex 17.5000 2.5000 5.6000
      vertex 17.8129 6.4754 5.6000
      vertex 17.8129 2.5246 5.6000
    endloop
  endfacet
  facet normal -0.078378 -0.996924 0
    outer loop
      vertex 17.5000 6.5000 0.0000
      vertex 17.8129 6.4754 0.0000
      vertex 17.8129 6.4754 5.6000
    endloop
  endfacet
  facet normal -0.078378 -0.996924 0
    outer loop
      vertex 17.5000 6.5000 0.0000
      vertex 17.8129 6.4754 5.6000
      vertex 17.5000 6.5000 5.6000
    endloop
  endfacet
  facet normal -0.233602 0.972332 0
    outer loop
      vertex 17.8129 2.5246 0.0000
      vertex 17.8129 2.5246 5.6000
      vertex 18.1180 2.5979 0.0000
    endloop
  endfacet
  facet normal 0 0 -1
    outer loop
      vertex 17.8129 2.5246 0.0000
      vertex 18.1180 2.5979 0.0000
      vertex 29.9000 0.0000 0.0000
    endloop
  endfacet
  facet normal 0 0 -1
    outer loop
      vertex 17.8129 2.5246 5.6000
      vertex 17.8129 6.4754 5.6000
      vertex 18.1180 6.4021 5.6000
    endloop
  endfacet
  facet normal -0.233602 0.972332 0
    outer loop
      vertex 17.8129 2.5246 5.6000
      vertex 18.1180 2.5979 5.6000
      vertex 18.1180 2.5979 0.0000
    endloop
  endfacet
  facet normal 0 0 -1
    outer loop
      vertex 17.8129 2.5246 5.6000
      vertex 18.1180 6.4021 5.6000
      vertex 18.1180 2.5979 5.6000
    endloop
  endfacet
  facet normal -0.233602 -0.972332 0
    outer loop
      vertex 17.8129 6.4754 0.0000
      vertex 18.1180 6.4021 0.0000
      vertex 18.1180 6.4021 5.6000
    endloop
  endfacet
  facet normal -0.233602 -0.972332 0
    outer loop
      vertex 17.8129 6.4754 0.0000
      vertex 18.1180 6.4021 5.6000
      vertex 17.8129 6.4754 5.6000
    endloop
  endfacet
  facet normal 0 0 -1
    outer loop
      vertex 17.8129 6.4754 0.0000
      vertex 29.9000 26.0000 0.0000
      vertex 18.1180 6.4021 0.0000
    endloop
  endfacet
  facet normal -0.382624 0.923904 0
    outer loop
      vertex 18.1180 2.5979 0.0000
      vertex 18.1180 2.5979 5.6000
      vertex 18.4080 2.7180 0.0000
    endloop
  endfacet
  facet normal 0 0 -1
    outer loop
      vertex 18.1180 2.5979 0.0000
      vertex 18.4080 2.7180 0.0000
      vertex 29.9000 0.0000 0.0000
    endloop
  endfacet
  facet normal 0 0 -1
    outer loop
      vertex 18.1180 2.5979 5.6000
      vertex 18.1180 6.4021 5.6000
      vertex 18.4080 6.2820 5.6000
    endloop
  endfacet
  facet normal -0.382624 0.923904 0
    outer loop
      vertex 18.1180 2.5979 5.6000
      vertex 18.4080 2.7180 5.6000
      vertex 18.4080 2.7180 0.0000
    endloop
  endfacet
  facet normal 0 0 -1
    outer loop
      vertex 18.1180 2.5979 5.6000
      vertex 18.4080 6.2820 5.6000
      vertex 18.4080 2.7180 5.6000
    endloop
  endfacet
  facet normal -0.382624 -0.923904 0
    outer loop
      vertex 18.1180 6.4021 0.0000
      vertex 18.4080 6.2820 0.0000
      vertex 18.4080 6.2820 5.6000
    endloop
  endfacet
  facet normal -0.382624 -0.923904 0
    outer loop
      vertex 18.1180 6.4021 0.0000
      vertex 18.4080 6.2820 5.6000
      vertex 18.1180 6.4021 5.6000
    endloop
  endfacet
  facet normal 0 0 -1
    outer loop
      vertex 18.1180 6.4021 0.0000
      vertex 29.9000 26.0000 0.0000
      vertex 18.4080 6.2820 0.0000
    endloop
  endfacet
  facet normal -0.522532 0.85262 0
    outer loop
      vertex 18.4080 2.7180 0.0000
      vertex 18.4080 2.7180 5.6000
      vertex 18.6756 2.8820 0.0000
    endloop
  endfacet
  facet normal 0 0 -1
    outer loop
      vertex 18.4080 2.7180 0.0000
      vertex 18.6756 2.8820 0.0000
      vertex 29.9000 0.0000 0.0000
    endloop
  endfacet
  facet normal 0 0 -1
    outer loop
      vertex 18.4080 2.7180 5.6000
      vertex 18.4080 6.2820 5.6000
      vertex 18.6756 6.1180 5.6000
    endloop
  endfacet
  facet normal -0.522532 0.85262 0
    outer loop
      vertex 18.4080 2.7180 5.6000
      vertex 18.6756 2.8820 5.6000
      vertex 18.6756 2.8820 0.0000
    endloop
  endfacet
  facet normal 0 0 -1
    outer loop
      vertex 18.4080 2.7180 5.6000
      vertex 18.6756 6.1180 5.6000
      vertex 18.6756 2.8820 5.6000
    endloop
  endfacet
  facet normal -0.522532 -0.85262 0
    outer loop
      vertex 18.4080 6.2820 0.0000
      vertex 18.6756 6.1180 0.0000
      vertex 18.6756 6.1180 5.6000
    endloop
  endfacet
  facet normal -0.522532 -0.85262 0
    outer loop
      vertex 18.4080 6.2820 0.0000
      vertex 18.6756 6.1180 5.6000
      vertex 18.4080 6.2820 5.6000
    endloop
  endfacet
  facet normal 0 0 -1
    outer loop
      vertex 18.4080 6.2820 0.0000
      vertex 29.9000 26.0000 0.0000
      vertex 18.6756 6.1180 0.0000
    endloop
  endfacet
  facet normal -0.649478 0.76038 0
    outer loop
      vertex 18.6756 2.8820 0.0000
      vertex 18.6756 2.8820 5.6000
      vertex 18.9142 3.0858 0.0000
    endloop
  endfacet
  facet normal 0 0 -1
    outer loop
      vertex 18.6756 2.8820 0.0000
      vertex 18.9142 3.0858 0.0000
      vertex 29.9000 0.0000 0.0000
    endloop
  endfacet
  facet normal 0 0 -1
    outer loop
      vertex 18.6756 2.8820 5.6000
      vertex 18.6756 6.1180 5.6000
      vertex 18.9142 5.9142 5.6000
    endloop
  endfacet
  facet normal -0.649478 0.76038 0
    outer loop
      vertex 18.6756 2.8820 5.6000
      vertex 18.9142 3.0858 5.6000
      vertex 18.9142 3.0858 0.0000
    endloop
  endfacet
  facet normal 0 0 -1
    outer loop
      vertex 18.6756 2.8820 5.6000
      vertex 18.9142 5.9142 5.6000
      vertex 18.9142 3.0858 5.6000
    endloop
  endfacet
  facet normal -0.649478 -0.76038 0
    outer loop
      vertex 18.6756 6.1180 0.0000
      vertex 18.9142 5.9142 0.0000
      vertex 18.9142 5.9142 5.6000
    endloop
  endfacet
  facet normal -0.649478 -0.76038 0
    outer loop
      vertex 18.6756 6.1180 0.0000
      vertex 18.9142 5.9142 5.6000
      vertex 18.6756 6.1180 5.6000
    endloop
  endfacet
  facet normal 0 0 -1
    outer loop
      vertex 18.6756 6.1180 0.0000
      vertex 29.9000 4.5000 0.0000
      vertex 18.9142 5.9142 0.0000
    endloop
  endfacet
  facet normal 0 0 -1
    outer loop
      vertex 18.6756 6.1180 0.0000
      vertex 29.9000 26.0000 0.0000
      vertex 29.9000 4.5000 0.0000
    endloop
  endfacet
  facet normal -0.76038 0.649478 0
    outer loop
      vertex 18.9142 3.0858 0.0000
      vertex 18.9142 3.0858 5.6000
      vertex 19.1180 3.3244 5.6000
    endloop
  endfacet
  facet normal 0 0 -1
    outer loop
      vertex 18.9142 3.0858 0.0000
      vertex 19.1180 3.3244 0.0000
      vertex 29.9000 0.0000 0.0000
    endloop
  endfacet
  facet normal -0.76038 0.649478 0
    outer loop
      vertex 18.9142 3.0858 0.0000
      vertex 19.1180 3.3244 5.6000
      vertex 19.1180 3.3244 0.0000
    endloop
  endfacet
  facet normal 0 0 -1
    outer loop
      vertex 18.9142 3.0858 5.6000
      vertex 18.9142 5.9142 5.6000
      vertex 19.1180 5.6756 5.6000
    endloop
  endfacet
  facet normal 0 0 -1
    outer loop
      vertex 18.9142 3.0858 5.6000
      vertex 19.1180 5.6756 5.6000
      vertex 19.1180 3.3244 5.6000
    endloop
  endfacet
  facet normal -0.76038 -0.649478 0
    outer loop
      vertex 18.9142 5.9142 0.0000
      vertex 19.1180 5.6756 0.0000
      vertex 18.9142 5.9142 5.6000
    endloop
  endfacet
  facet normal 0 0 -1
    outer loop
      vertex 18.9142 5.9142 0.0000
      vertex 29.9000 4.5000 0.0000
      vertex 19.1180 5.6756 0.0000
    endloop
  endfacet
  facet normal -0.76038 -0.649478 0
    outer loop
      vertex 18.9142 5.9142 5.6000
      vertex 19.1180 5.6756 0.0000
      vertex 19.1180 5.6756 5.6000
    endloop
  endfacet
  facet normal -0.85262 0.522532 0
    outer loop
      vertex 19.1180 3.3244 0.0000
      vertex 19.1180 3.3244 5.6000
      vertex 19.2820 3.5920 5.6000
    endloop
  endfacet
  facet normal 0 0 -1
    outer loop
      vertex 19.1180 3.3244 0.0000
      vertex 19.2820 3.5920 0.0000
      vertex 29.9000 0.0000 0.0000
    endloop
  endfacet
  facet normal -0.85262 0.522532 0
    outer loop
      vertex 19.1180 3.3244 0.0000
      vertex 19.2820 3.5920 5.6000
      vertex 19.2820 3.5920 0.0000
    endloop
  endfacet
  facet normal 0 0 -1
    outer loop
      vertex 19.1180 3.3244 5.6000
      vertex 19.1180 5.6756 5.6000
      vertex 19.2820 5.4080 5.6000
    endloop
  endfacet
  facet normal 0 0 -1
    outer loop
      vertex 19.1180 3.3244 5.6000
      vertex 19.2820 5.4080 5.6000
      vertex 19.2820 3.5920 5.6000
    endloop
  endfacet
  facet normal -0.85262 -0.522532 0
    outer loop
      vertex 19.1180 5.6756 0.0000
      vertex 19.2820 5.4080 0.0000
      vertex 19.1180 5.6756 5.6000
    endloop
  endfacet
  facet normal 0 0 -1
    outer loop
      vertex 19.1180 5.6756 0.0000
      vertex 29.9000 4.5000 0.0000
      vertex 19.2820 5.4080 0.0000
    endloop
  endfacet
  facet normal -0.85262 -0.522532 0
    outer loop
      vertex 19.1180 5.6756 5.6000
      vertex 19.2820 5.4080 0.0000
      vertex 19.2820 5.4080 5.6000
    endloop
  endfacet
  facet normal -0.923904 0.382624 0
    outer loop
      vertex 19.2820 3.5920 0.0000
      vertex 19.2820 3.5920 5.6000
      vertex 19.4021 3.8820 5.6000
    endloop
  endfacet
  facet normal 0 0 -1
    outer loop
      vertex 19.2820 3.5920 0.0000
      vertex 19.4021 3.8820 0.0000
      vertex 29.9000 0.0000 0.0000
    endloop
  endfacet
  facet normal -0.923904 0.382624 0
    outer loop
      vertex 19.2820 3.5920 0.0000
      vertex 19.4021 3.8820 5.6000
      vertex 19.4021 3.8820 0.0000
    endloop
  endfacet
  facet normal 0 0 -1
    outer loop
      vertex 19.2820 3.5920 5.6000
      vertex 19.2820 5.4080 5.6000
      vertex 19.4021 5.1180 5.6000
    endloop
  endfacet
  facet normal 0 0 -1
    outer loop
      vertex 19.2820 3.5920 5.6000
      vertex 19.4021 5.1180 5.6000
      vertex 19.4021 3.8820 5.6000
    endloop
  endfacet
  facet normal -0.923904 -0.382624 0
    outer loop
      vertex 19.2820 5.4080 0.0000
      vertex 19.4021 5.1180 0.0000
      vertex 19.2820 5.4080 5.6000
    endloop
  endfacet
  facet normal 0 0 -1
    outer loop
      vertex 19.2820 5.4080 0.0000
      vertex 29.9000 4.5000 0.0000
      vertex 19.4021 5.1180 0.0000
    endloop
  endfacet
  facet normal -0.923904 -0.382624 0
    outer loop
      vertex 19.2820 5.4080 5.6000
      vertex 19.4021 5.1180 0.0000
      vertex 19.4021 5.1180 5.6000
    endloop
  endfacet
  facet normal -0.972332 0.233602 0
    outer loop
      vertex 19.4021 3.8820 0.0000
      vertex 19.4021 3.8820 5.6000
      vertex 19.4754 4.1871 5.6000
    endloop
  endfacet
  facet normal 0 0 -1
    outer loop
      vertex 19.4021 3.8820 0.0000
      vertex 19.4754 4.1871 0.0000
      vertex 29.9000 4.5000 0.0000
    endloop
  endfacet
  facet normal -0.972332 0.233602 0
    outer loop
      vertex 19.4021 3.8820 0.0000
      vertex 19.4754 4.1871 5.6000
      vertex 19.4754 4.1871 0.0000
    endloop
  endfacet
  facet normal 0 0 -1
    outer loop
      vertex 19.4021 3.8820 0.0000
      vertex 29.9000 4.5000 0.0000
      vertex 29.9000 0.0000 0.0000
    endloop
  endfacet
  facet normal 0 0 -1
    outer loop
      vertex 19.4021 3.8820 5.6000
      vertex 19.4021 5.1180 5.6000
      vertex 19.4754 4.8129 5.6000
    endloop
  endfacet
  facet normal 0 0 -1
    outer loop
      vertex 19.4021 3.8820 5.6000
      vertex 19.4754 4.8129 5.6000
      vertex 19.4754 4.1871 5.6000
    endloop
  endfacet
  facet normal -0.972332 -0.233602 0
    outer loop
      vertex 19.4021 5.1180 0.0000
      vertex 19.4754 4.8129 0.0000
      vertex 19.4021 5.1180 5.6000
    endloop
  endfacet
  facet normal 0 0 -1
    outer loop
      vertex 19.4021 5.1180 0.0000
      vertex 29.9000 4.5000 0.0000
      vertex 19.4754 4.8129 0.0000
    endloop
  endfacet
  facet normal -0.972332 -0.233602 0
    outer loop
      vertex 19.4021 5.1180 5.6000
      vertex 19.4754 4.8129 0.0000
      vertex 19.4754 4.8129 5.6000
    endloop
  endfacet
  facet normal -0.996924 0.078378 0
    outer loop
      vertex 19.4754 4.1871 0.0000
      vertex 19.4754 4.1871 5.6000
      vertex 19.5000 4.5000 5.6000
    endloop
  endfacet
  facet normal 0 0 -1
    outer loop
      vertex 19.4754 4.1871 0.0000
      vertex 19.5000 4.5000 0.0000
      vertex 29.9000 4.5000 0.0000
    endloop
  endfacet
  facet normal -0.996924 0.078378 0
    outer loop
      vertex 19.4754 4.1871 0.0000
      vertex 19.5000 4.5000 5.6000
      vertex 19.5000 4.5000 0.0000
    endloop
  endfacet
  facet normal 0 0 -1
    outer loop
      vertex 19.4754 4.1871 5.6000
      vertex 19.4754 4.8129 5.6000
      vertex 19.5000 4.5000 5.6000
    endloop
  endfacet
  facet normal -0.996924 -0.078378 0
    outer loop
      vertex 19.4754 4.8129 0.0000
      vertex 19.5000 4.5000 0.0000
      vertex 19.4754 4.8129 5.6000
    endloop
  endfacet
  facet normal 0 0 -1
    outer loop
      vertex 19.4754 4.8129 0.0000
      vertex 29.9000 4.5000 0.0000
      vertex 19.5000 4.5000 0.0000
    endloop
  endfacet
  facet normal -0.996924 -0.078378 0
    outer loop
      vertex 19.4754 4.8129 5.6000
      vertex 19.5000 4.5000 0.0000
      vertex 19.5000 4.5000 5.6000
    endloop
  endfacet
  facet normal 1 0 0
    outer loop
      vertex 29.9000 0.0000 0.0000
      vertex 29.9000 4.5000 0.0000
      vertex 29.9000 0.0000 6.2000
    endloop
  endfacet
  facet normal 1 0 0
    outer loop
      vertex 29.9000 0.0000 6.2000
      vertex 29.9000 4.5000 0.0000
      vertex 29.9000 4.5000 6.2000
    endloop
  endfacet
  facet normal 0 0 -1
    outer loop
      vertex 29.9000 4.5000 0.0000
      vertex 29.9000 26.0000 0.0000
      vertex 103.6000 26.0000 0.0000
    endloop
  endfacet
  facet normal 0 0 -1
    outer loop
      vertex 29.9000 4.5000 0.0000
      vertex 103.6000 26.0000 0.0000
      vertex 108.1000 8.5000 0.0000
    endloop
  endfacet
  facet normal 0 -1 0
    outer loop
      vertex 29.9000 4.5000 0.0000
      vertex 108.1000 4.5000 0.0000
      vertex 108.1000 4.5000 6.2000
    endloop
  endfacet
  facet normal 0 -1 0
    outer loop
      vertex 29.9000 4.5000 0.0000
      vertex 108.1000 4.5000 6.2000
      vertex 29.9000 4.5000 6.2000
    endloop
  endfacet
  facet normal 0 0 -1
    outer loop
      vertex 29.9000 4.5000 0.0000
      vertex 108.1000 4.9000 0.0000
      vertex 108.1000 4.5000 0.0000
    endloop
  endfacet
  facet normal 0 0 -1
    outer loop
      vertex 29.9000 4.5000 0.0000
      vertex 108.1000 8.5000 0.0000
      vertex 108.1000 4.9000 0.0000
    endloop
  endfacet
  facet normal 0 0 1
    outer loop
      vertex 29.9000 4.5000 6.2000
      vertex 103.6000 26.0000 6.2000
      vertex 29.9000 26.0000 6.2000
    endloop
  endfacet
  facet normal 0 0 1
    outer loop
      vertex 29.9000 4.5000 6.2000
      vertex 108.1000 4.5000 6.2000
      vertex 103.6000 26.0000 6.2000
    endloop
  endfacet
  facet normal 0 1 0
    outer loop
      vertex 29.9000 26.0000 0.0000
      vertex 29.9000 26.0000 6.2000
      vertex 103.6000 26.0000 0.0000
    endloop
  endfacet
  facet normal 1 0 0
    outer loop
      vertex 29.9000 26.0000 0.0000
      vertex 29.9000 29.0000 0.0000
      vertex 29.9000 26.0000 6.2000
    endloop
  endfacet
  facet normal 1 0 0
    outer loop
      vertex 29.9000 26.0000 6.2000
      vertex 29.9000 29.0000 0.0000
      vertex 29.9000 29.0000 6.2000
    endloop
  endfacet
  facet normal 0 1 0
    outer loop
      vertex 29.9000 26.0000 6.2000
      vertex 103.6000 26.0000 6.2000
      vertex 103.6000 26.0000 0.0000
    endloop
  endfacet
  facet normal -1 0 0
    outer loop
      vertex 103.6000 26.0000 0.0000
      vertex 103.6000 26.0000 6.2000
      vertex 103.6000 48.8000 6.2000
    endloop
  endfacet
  facet normal 0 0 -1
    outer loop
      vertex 103.6000 26.0000 0.0000
      vertex 103.6000 48.8000 0.0000
      vertex 108.1000 45.5500 0.0000
    endloop
  endfacet
  facet normal -1 0 0
    outer loop
      vertex 103.6000 26.0000 0.0000
      vertex 103.6000 48.8000 6.2000
      vertex 103.6000 48.8000 0.0000
    endloop
  endfacet
  facet normal 0 0 -1
    outer loop
      vertex 103.6000 26.0000 0.0000
      vertex 108.1000 25.2500 0.0000
      vertex 108.1000 8.5000 0.0000
    endloop
  endfacet
  facet normal 0 0 -1
    outer loop
      vertex 103.6000 26.0000 0.0000
      vertex 108.1000 28.8500 0.0000
      vertex 108.1000 25.2500 0.0000
    endloop
  endfacet
  facet normal 0 0 -1
    outer loop
      vertex 103.6000 26.0000 0.0000
      vertex 108.1000 45.5500 0.0000
      vertex 108.1000 28.8500 0.0000
    endloop
  endfacet
  facet normal 0 0 1
    outer loop
      vertex 103.6000 26.0000 6.2000
      vertex 108.1000 4.5000 6.2000
      vertex 108.1000 48.8000 6.2000
    endloop
  endfacet
  facet normal 0 0 1
    outer loop
      vertex 103.6000 26.0000 6.2000
      vertex 108.1000 48.8000 6.2000
      vertex 103.6000 48.8000 6.2000
    endloop
  endfacet
  facet normal 0 1 0
    outer loop
      vertex 103.6000 48.8000 0.0000
      vertex 103.6000 48.8000 6.2000
      vertex 108.0900 48.8000 2.6000
    endloop
  endfacet
  facet normal 0 0 -1
    outer loop
      vertex 103.6000 48.8000 0.0000
      vertex 108.0900 48.8000 0.0000
      vertex 108.1000 45.5500 0.0000
    endloop
  endfacet
  facet normal 0 1 0
    outer loop
      vertex 103.6000 48.8000 0.0000
      vertex 108.0900 48.8000 2.6000
      vertex 108.0900 48.8000 0.0000
    endloop
  endfacet
  facet normal 0 1 0
    outer loop
      vertex 103.6000 48.8000 6.2000
      vertex 108.1000 48.8000 6.2000
      vertex 108.0900 48.8000 2.6000
    endloop
  endfacet
  facet normal -1 0 0
    outer loop
      vertex 108.0900 48.8000 0.0000
      vertex 108.0900 48.8000 2.6000
      vertex 108.0900 49.1500 2.6000
    endloop
  endfacet
  facet normal 0 0 -1
    outer loop
      vertex 108.0900 48.8000 0.0000
      vertex 108.0900 49.1500 0.0000
      vertex 119.4000 49.1500 0.0000
    endloop
  endfacet
  facet normal -1 0 0
    outer loop
      vertex 108.0900 48.8000 0.0000
      vertex 108.0900 49.1500 2.6000
      vertex 108.0900 49.1500 0.0000
    endloop
  endfacet
  facet normal 0 0 -1
    outer loop
      vertex 108.0900 48.8000 0.0000
      vertex 119.4000 45.5500 0.0000
      vertex 108.1000 45.5500 0.0000
    endloop
  endfacet
  facet normal 0 0 -1
    outer loop
      vertex 108.0900 48.8000 0.0000
      vertex 119.4000 49.1500 0.0000
      vertex 119.4000 45.5500 0.0000
    endloop
  endfacet
  facet normal 0 0 1
    outer loop
      vertex 108.0900 48.8000 2.6000
      vertex 108.1000 48.8000 2.6000
      vertex 108.0900 49.1500 2.6000
    endloop
  endfacet
  facet normal 0 1 0
    outer loop
      vertex 108.0900 48.8000 2.6000
      vertex 108.1000 48.8000 6.2000
      vertex 108.1000 48.8000 2.6000
    endloop
  endfacet
  facet normal 0 1 0
    outer loop
      vertex 108.0900 49.1500 0.0000
      vertex 108.0900 49.1500 2.6000
      vertex 119.4000 49.1500 0.0000
    endloop
  endfacet
  facet normal 0 0 1
    outer loop
      vertex 108.0900 49.1500 2.6000
      vertex 108.1000 48.8000 2.6000
      vertex 119.4000 49.1500 2.6000
    endloop
  endfacet
  facet normal 0 1 0
    outer loop
      vertex 108.0900 49.1500 2.6000
      vertex 119.4000 49.1500 2.6000
      vertex 119.4000 49.1500 0.0000
    endloop
  endfacet
  facet normal 1 0 0
    outer loop
      vertex 108.1000 4.5000 0.0000
      vertex 108.1000 4.9000 0.0000
      vertex 108.1000 4.9000 2.6000
    endloop
  endfacet
  facet normal 1 0 0
    outer loop
      vertex 108.1000 4.5000 0.0000
      vertex 108.1000 4.9000 2.6000
      vertex 108.1000 4.5000 6.2000
    endloop
  endfacet
  facet normal 1 0 0
    outer loop
      vertex 108.1000 4.5000 6.2000
      vertex 108.1000 4.9000 2.6000
      vertex 108.1000 8.5000 2.6000
    endloop
  endfacet
  facet normal 1 0 0
    outer loop
      vertex 108.1000 4.5000 6.2000
      vertex 108.1000 8.5000 2.6000
      vertex 108.1000 25.2500 2.6000
    endloop
  endfacet
  facet normal 1 0 0
    outer loop
      vertex 108.1000 4.5000 6.2000
      vertex 108.1000 25.2500 2.6000
      vertex 108.1000 48.8000 6.2000
    endloop
  endfacet
  facet normal 0 0 -1
    outer loop
      vertex 108.1000 4.9000 0.0000
      vertex 108.1000 8.5000 0.0000
      vertex 119.4000 8.5000 0.0000
    endloop
  endfacet
  facet normal 0 -1 0
    outer loop
      vertex 108.1000 4.9000 0.0000
      vertex 119.4000 4.9000 0.0000
      vertex 119.4000 4.9000 2.6000
    endloop
  endfacet
  facet normal 0 -1 0
    outer loop
      vertex 108.1000 4.9000 0.0000
      vertex 119.4000 4.9000 2.6000
      vertex 108.1000 4.9000 2.6000
    endloop
  endfacet
  facet normal 0 0 -1
    outer loop
      vertex 108.1000 4.9000 0.0000
      vertex 119.4000 8.5000 0.0000
      vertex 119.4000 4.9000 0.0000
    endloop
  endfacet
  facet normal 0 0 1
    outer loop
      vertex 108.1000 4.9000 2.6000
      vertex 119.4000 4.9000 2.6000
      vertex 108.1000 8.5000 2.6000
    endloop
  endfacet
  facet normal 0 1 0
    outer loop
      vertex 108.1000 8.5000 0.0000
      vertex 108.1000 8.5000 2.6000
      vertex 119.4000 8.5000 0.0000
    endloop
  endfacet
  facet normal 1 0 0
    outer loop
      vertex 108.1000 8.5000 0.0000
      vertex 108.1000 25.2500 0.0000
      vertex 108.1000 8.5000 2.6000
    endloop
  endfacet
  facet normal 1 0 0
    outer loop
      vertex 108.1000 8.5000 2.6000
      vertex 108.1000 25.2500 0.0000
      vertex 108.1000 25.2500 2.6000
    endloop
  endfacet
  facet normal 0 0 1
    outer loop
      vertex 108.1000 8.5000 2.6000
      vertex 119.4000 4.9000 2.6000
      vertex 119.4000 8.5000 2.6000
    endloop
  endfacet
  facet normal 0 1 0
    outer loop
      vertex 108.1000 8.5000 2.6000
      vertex 119.4000 8.5000 2.6000
      vertex 119.4000 8.5000 0.0000
    endloop
  endfacet
  facet normal 0 0 -1
    outer loop
      vertex 108.1000 25.2500 0.0000
      vertex 108.1000 28.8500 0.0000
      vertex 119.4000 28.8500 0.0000
    endloop
  endfacet
  facet normal 0 -1 0
    outer loop
      vertex 108.1000 25.2500 0.0000
      vertex 119.4000 25.2500 0.0000
      vertex 119.4000 25.2500 2.6000
    endloop
  endfacet
  facet normal 0 -1 0
    outer loop
      vertex 108.1000 25.2500 0.0000
      vertex 119.4000 25.2500 2.6000
      vertex 108.1000 25.2500 2.6000
    endloop
  endfacet
  facet normal 0 0 -1
    outer loop
      vertex 108.1000 25.2500 0.0000
      vertex 119.4000 28.8500 0.0000
      vertex 119.4000 25.2500 0.0000
    endloop
  endfacet
  facet normal 1 0 0
    outer loop
      vertex 108.1000 25.2500 2.6000
      vertex 108.1000 28.8500 2.6000
      vertex 108.1000 48.8000 6.2000
    endloop
  endfacet
  facet normal 0 0 1
    outer loop
      vertex 108.1000 25.2500 2.6000
      vertex 119.4000 25.2500 2.6000
      vertex 108.1000 28.8500 2.6000
    endloop
  endfacet
  facet normal 0 1 0
    outer loop
      vertex 108.1000 28.8500 0.0000
      vertex 108.1000 28.8500 2.6000
      vertex 119.4000 28.8500 0.0000
    endloop
  endfacet
  facet normal 1 0 0
    outer loop
      vertex 108.1000 28.8500 0.0000
      vertex 108.1000 45.5500 0.0000
      vertex 108.1000 28.8500 2.6000
    endloop
  endfacet
  facet normal 1 0 0
    outer loop
      vertex 108.1000 28.8500 2.6000
      vertex 108.1000 45.5500 0.0000
      vertex 108.1000 45.5500 2.6000
    endloop
  endfacet
  facet normal 1 0 0
    outer loop
      vertex 108.1000 28.8500 2.6000
      vertex 108.1000 45.5500 2.6000
      vertex 108.1000 48.8000 6.2000
    endloop
  endfacet
  facet normal 0 0 1
    outer loop
      vertex 108.1000 28.8500 2.6000
      vertex 119.4000 25.2500 2.6000
      vertex 119.4000 28.8500 2.6000
    endloop
  endfacet
  facet normal 0 1 0
    outer loop
      vertex 108.1000 28.8500 2.6000
      vertex 119.4000 28.8500 2.6000
      vertex 119.4000 28.8500 0.0000
    endloop
  endfacet
  facet normal 0 -1 0
    outer loop
      vertex 108.1000 45.5500 0.0000
      vertex 119.4000 45.5500 0.0000
      vertex 119.4000 45.5500 2.6000
    endloop
  endfacet
  facet normal 0 -1 0
    outer loop
      vertex 108.1000 45.5500 0.0000
      vertex 119.4000 45.5500 2.6000
      vertex 108.1000 45.5500 2.6000
    endloop
  endfacet
  facet normal 1 0 0
    outer loop
      vertex 108.1000 45.5500 2.6000
      vertex 108.1000 48.8000 2.6000
      vertex 108.1000 48.8000 6.2000
    endloop
  endfacet
  facet normal 0 0 1
    outer loop
      vertex 108.1000 45.5500 2.6000
      vertex 119.4000 45.5500 2.6000
      vertex 108.1000 48.8000 2.6000
    endloop
  endfacet
  facet normal 0 0 1
    outer loop
      vertex 108.1000 48.8000 2.6000
      vertex 119.4000 45.5500 2.6000
      vertex 119.4000 49.1500 2.6000
    endloop
  endfacet
  facet normal 1 0 0
    outer loop
      vertex 119.4000 4.9000 0.0000
      vertex 119.4000 8.5000 0.0000
      vertex 119.4000 4.9000 2.6000
    endloop
  endfacet
  facet normal 1 0 0
    outer loop
      vertex 119.4000 4.9000 2.6000
      vertex 119.4000 8.5000 0.0000
      vertex 119.4000 8.5000 2.6000
    endloop
  endfacet
  facet normal 1 0 0
    outer loop
      vertex 119.4000 25.2500 0.0000
      vertex 119.4000 28.8500 0.0000
      vertex 119.4000 25.2500 2.6000
    endloop
  endfacet
  facet normal 1 0 0
    outer loop
      vertex 119.4000 25.2500 2.6000
      vertex 119.4000 28.8500 0.0000
      vertex 119.4000 28.8500 2.6000
    endloop
  endfacet
  facet normal 1 0 0
    outer loop
      vertex 119.4000 45.5500 0.0000
      vertex 119.4000 49.1500 0.0000
      vertex 119.4000 45.5500 2.6000
    endloop
  endfacet
  facet normal 1 0 0
    outer loop
      vertex 119.4000 45.5500 2.6000
      vertex 119.4000 49.1500 0.0000
      vertex 119.4000 49.1500 2.6000
    endloop
  endfacet
endsolid OpenSCAD_Model
