solid OpenSCAD_Model
  facet normal 0 0 -1
    outer loop
      vertex 0.0000 0.0000 0.0000
      vertex 144.0000 47.0000 0.0000
      vertex 144.0000 0.0000 0.0000
    endloop
  endfacet
  facet normal 0 0 -1
    outer loop
      vertex 144.0000 47.0000 0.0000
      vertex 93.0000 100.0000 0.0000
      vertex 144.0000 53.0000 0.0000
    endloop
  endfacet
  facet normal 0 0 -1
    outer loop
      vertex 144.0000 53.0000 0.0000
      vertex 99.0000 100.0000 0.0000
      vertex 144.0000 100.0000 0.0000
    endloop
  endfacet
  facet normal 0 0 -1
    outer loop
      vertex 99.0000 100.0000 0.0000
      vertex 93.0000 100.0000 0.0000
      vertex 99.0000 101.0000 0.0000
    endloop
  endfacet
  facet normal 0 0 -1
    outer loop
      vertex 144.0000 53.0000 0.0000
      vertex 93.0000 100.0000 0.0000
      vertex 99.0000 100.0000 0.0000
    endloop
  endfacet
  facet normal 0 0 -1
    outer loop
      vertex 144.0000 47.0000 0.0000
      vertex 51.0000 100.0000 0.0000
      vertex 93.0000 100.0000 0.0000
    endloop
  endfacet
  facet normal 0 0 -1
    outer loop
      vertex 51.0000 100.0000 0.0000
      vertex 45.0000 100.0000 0.0000
      vertex 51.0000 101.0000 0.0000
    endloop
  endfacet
  facet normal -0 0 -1
    outer loop
      vertex 144.0000 47.0000 0.0000
      vertex 0.0000 0.0000 0.0000
      vertex 51.0000 100.0000 0.0000
    endloop
  endfacet
  facet normal -0 0 -1
    outer loop
      vertex 51.0000 100.0000 0.0000
      vertex 0.0000 0.0000 0.0000
      vertex 45.0000 100.0000 0.0000
    endloop
  endfacet
  facet normal -0 0 -1
    outer loop
      vertex 45.0000 100.0000 0.0000
      vertex 0.0000 0.0000 0.0000
      vertex 0.0000 100.0000 0.0000
    endloop
  endfacet
  facet normal 0 0 -1
    outer loop
      vertex 145.0000 47.0000 0.0000
      vertex 150.5000 44.8000 0.0000
      vertex 146.2000 44.8000 0.0000
    endloop
  endfacet
  facet normal 0 0 -1
    outer loop
      vertex 150.5000 44.8000 0.0000
      vertex 145.0000 47.0000 0.0000
      vertex 150.5000 55.2000 0.0000
    endloop
  endfacet
  facet normal 0 0 -1
    outer loop
      vertex 145.0000 53.0000 0.0000
      vertex 150.5000 55.2000 0.0000
      vertex 145.0000 47.0000 0.0000
    endloop
  endfacet
  facet normal -0 0 -1
    outer loop
      vertex 150.5000 55.2000 0.0000
      vertex 145.0000 53.0000 0.0000
      vertex 146.2000 55.2000 0.0000
    endloop
  endfacet
  facet normal 0 0 -1
    outer loop
      vertex 144.0000 47.0000 0.0000
      vertex 145.0000 53.0000 0.0000
      vertex 145.0000 47.0000 0.0000
    endloop
  endfacet
  facet normal -0 0 -1
    outer loop
      vertex 145.0000 53.0000 0.0000
      vertex 144.0000 47.0000 0.0000
      vertex 144.0000 53.0000 0.0000
    endloop
  endfacet
  facet normal 0 0 -1
    outer loop
      vertex 99.0000 101.0000 0.0000
      vertex 101.2000 106.5000 0.0000
      vertex 101.2000 102.2000 0.0000
    endloop
  endfacet
  facet normal 0 0 -1
    outer loop
      vertex 93.0000 101.0000 0.0000
      vertex 99.0000 101.0000 0.0000
      vertex 93.0000 100.0000 0.0000
    endloop
  endfacet
  facet normal 0 0 -1
    outer loop
      vertex 99.0000 101.0000 0.0000
      vertex 93.0000 101.0000 0.0000
      vertex 101.2000 106.5000 0.0000
    endloop
  endfacet
  facet normal 0 0 -1
    outer loop
      vertex 90.8000 106.5000 0.0000
      vertex 93.0000 101.0000 0.0000
      vertex 90.8000 102.2000 0.0000
    endloop
  endfacet
  facet normal 0 0 -1
    outer loop
      vertex 93.0000 101.0000 0.0000
      vertex 90.8000 106.5000 0.0000
      vertex 101.2000 106.5000 0.0000
    endloop
  endfacet
  facet normal 0 0 -1
    outer loop
      vertex 51.0000 101.0000 0.0000
      vertex 53.2000 106.5000 0.0000
      vertex 53.2000 102.2000 0.0000
    endloop
  endfacet
  facet normal 0 0 -1
    outer loop
      vertex 45.0000 101.0000 0.0000
      vertex 51.0000 101.0000 0.0000
      vertex 45.0000 100.0000 0.0000
    endloop
  endfacet
  facet normal 0 0 -1
    outer loop
      vertex 51.0000 101.0000 0.0000
      vertex 45.0000 101.0000 0.0000
      vertex 53.2000 106.5000 0.0000
    endloop
  endfacet
  facet normal 0 0 -1
    outer loop
      vertex 42.8000 106.5000 0.0000
      vertex 45.0000 101.0000 0.0000
      vertex 42.8000 102.2000 0.0000
    endloop
  endfacet
  facet normal 0 0 -1
    outer loop
      vertex 45.0000 101.0000 0.0000
      vertex 42.8000 106.5000 0.0000
      vertex 53.2000 106.5000 0.0000
    endloop
  endfacet
  facet normal 0 0 1
    outer loop
      vertex 5.0000 100.0000 3.0000
      vertex 0.0000 100.0000 3.0000
      vertex 5.0000 15.5000 3.0000
    endloop
  endfacet
  facet normal 0 0 1
    outer loop
      vertex 53.2000 106.5000 3.0000
      vertex 51.0000 101.0000 3.0000
      vertex 53.2000 102.2000 3.0000
    endloop
  endfacet
  facet normal 0 0 1
    outer loop
      vertex 51.0000 101.0000 3.0000
      vertex 45.0000 101.0000 3.0000
      vertex 51.0000 100.0000 3.0000
    endloop
  endfacet
  facet normal 0 0 1
    outer loop
      vertex 53.2000 106.5000 3.0000
      vertex 45.0000 101.0000 3.0000
      vertex 51.0000 101.0000 3.0000
    endloop
  endfacet
  facet normal -0 0 1
    outer loop
      vertex 42.8000 106.5000 3.0000
      vertex 45.0000 101.0000 3.0000
      vertex 53.2000 106.5000 3.0000
    endloop
  endfacet
  facet normal 0 0 1
    outer loop
      vertex 45.0000 101.0000 3.0000
      vertex 42.8000 106.5000 3.0000
      vertex 42.8000 102.2000 3.0000
    endloop
  endfacet
  facet normal 0 0 1
    outer loop
      vertex 101.2000 106.5000 3.0000
      vertex 99.0000 101.0000 3.0000
      vertex 101.2000 102.2000 3.0000
    endloop
  endfacet
  facet normal 0 0 1
    outer loop
      vertex 99.0000 101.0000 3.0000
      vertex 93.0000 101.0000 3.0000
      vertex 99.0000 100.0000 3.0000
    endloop
  endfacet
  facet normal 0 0 1
    outer loop
      vertex 101.2000 106.5000 3.0000
      vertex 93.0000 101.0000 3.0000
      vertex 99.0000 101.0000 3.0000
    endloop
  endfacet
  facet normal -0 0 1
    outer loop
      vertex 90.8000 106.5000 3.0000
      vertex 93.0000 101.0000 3.0000
      vertex 101.2000 106.5000 3.0000
    endloop
  endfacet
  facet normal 0 0 1
    outer loop
      vertex 93.0000 101.0000 3.0000
      vertex 90.8000 106.5000 3.0000
      vertex 90.8000 102.2000 3.0000
    endloop
  endfacet
  facet normal -0 0 1
    outer loop
      vertex 99.0000 100.0000 3.0000
      vertex 144.0000 53.0000 3.0000
      vertex 144.0000 100.0000 3.0000
    endloop
  endfacet
  facet normal -0 0 1
    outer loop
      vertex 93.0000 100.0000 3.0000
      vertex 144.0000 53.0000 3.0000
      vertex 99.0000 100.0000 3.0000
    endloop
  endfacet
  facet normal 0 0 1
    outer loop
      vertex 144.0000 53.0000 3.0000
      vertex 93.0000 100.0000 3.0000
      vertex 144.0000 47.0000 3.0000
    endloop
  endfacet
  facet normal 0 0 1
    outer loop
      vertex 93.0000 100.0000 3.0000
      vertex 99.0000 100.0000 3.0000
      vertex 93.0000 101.0000 3.0000
    endloop
  endfacet
  facet normal 0 0 1
    outer loop
      vertex 15.5000 6.5000 3.0000
      vertex 144.0000 47.0000 3.0000
      vertex 93.0000 100.0000 3.0000
    endloop
  endfacet
  facet normal 0 0 1
    outer loop
      vertex 13.0000 13.0000 3.0000
      vertex 93.0000 100.0000 3.0000
      vertex 51.0000 100.0000 3.0000
    endloop
  endfacet
  facet normal 0 0 1
    outer loop
      vertex 45.0000 100.0000 3.0000
      vertex 51.0000 100.0000 3.0000
      vertex 45.0000 101.0000 3.0000
    endloop
  endfacet
  facet normal 0 0 1
    outer loop
      vertex 13.0000 13.0000 3.0000
      vertex 51.0000 100.0000 3.0000
      vertex 45.0000 100.0000 3.0000
    endloop
  endfacet
  facet normal 0 -0 1
    outer loop
      vertex 15.5000 6.5000 3.0000
      vertex 93.0000 100.0000 3.0000
      vertex 13.0000 13.0000 3.0000
    endloop
  endfacet
  facet normal -0 0 1
    outer loop
      vertex 13.0000 7.0000 3.0000
      vertex 15.5000 6.5000 3.0000
      vertex 13.0000 13.0000 3.0000
    endloop
  endfacet
  facet normal 0 0 1
    outer loop
      vertex 144.0000 47.0000 3.0000
      vertex 15.5000 6.5000 3.0000
      vertex 144.0000 6.5000 3.0000
    endloop
  endfacet
  facet normal -0 0 1
    outer loop
      vertex 6.5000 15.5000 3.0000
      vertex 13.0000 13.0000 3.0000
      vertex 45.0000 100.0000 3.0000
    endloop
  endfacet
  facet normal 0 0 1
    outer loop
      vertex 13.0000 13.0000 3.0000
      vertex 6.5000 15.5000 3.0000
      vertex 7.0000 13.0000 3.0000
    endloop
  endfacet
  facet normal 0 0 1
    outer loop
      vertex 6.5000 15.5000 3.0000
      vertex 45.0000 100.0000 3.0000
      vertex 6.5000 100.0000 3.0000
    endloop
  endfacet
  facet normal 0 0 1
    outer loop
      vertex 145.0000 53.0000 3.0000
      vertex 150.5000 55.2000 3.0000
      vertex 146.2000 55.2000 3.0000
    endloop
  endfacet
  facet normal 0 0 1
    outer loop
      vertex 150.5000 55.2000 3.0000
      vertex 145.0000 53.0000 3.0000
      vertex 150.5000 44.8000 3.0000
    endloop
  endfacet
  facet normal -0 0 1
    outer loop
      vertex 145.0000 47.0000 3.0000
      vertex 150.5000 44.8000 3.0000
      vertex 145.0000 53.0000 3.0000
    endloop
  endfacet
  facet normal 0 0 1
    outer loop
      vertex 150.5000 44.8000 3.0000
      vertex 145.0000 47.0000 3.0000
      vertex 146.2000 44.8000 3.0000
    endloop
  endfacet
  facet normal -0 0 1
    outer loop
      vertex 144.0000 53.0000 3.0000
      vertex 145.0000 47.0000 3.0000
      vertex 145.0000 53.0000 3.0000
    endloop
  endfacet
  facet normal 0 0 1
    outer loop
      vertex 145.0000 47.0000 3.0000
      vertex 144.0000 53.0000 3.0000
      vertex 144.0000 47.0000 3.0000
    endloop
  endfacet
  facet normal -0 0 1
    outer loop
      vertex 15.5000 5.0000 3.0000
      vertex 144.0000 0.0000 3.0000
      vertex 144.0000 5.0000 3.0000
    endloop
  endfacet
  facet normal 0 0 1
    outer loop
      vertex 15.5000 6.5000 3.0000
      vertex 13.0000 7.0000 3.0000
      vertex 15.5000 5.0000 3.0000
    endloop
  endfacet
  facet normal -0 0 1
    outer loop
      vertex 7.0000 7.0000 3.0000
      vertex 15.5000 5.0000 3.0000
      vertex 13.0000 7.0000 3.0000
    endloop
  endfacet
  facet normal -0 0 1
    outer loop
      vertex 5.0000 15.5000 3.0000
      vertex 7.0000 13.0000 3.0000
      vertex 6.5000 15.5000 3.0000
    endloop
  endfacet
  facet normal 0 0 1
    outer loop
      vertex 7.0000 13.0000 3.0000
      vertex 5.0000 15.5000 3.0000
      vertex 7.0000 7.0000 3.0000
    endloop
  endfacet
  facet normal 0 0 1
    outer loop
      vertex 15.5000 5.0000 3.0000
      vertex 0.0000 0.0000 3.0000
      vertex 144.0000 0.0000 3.0000
    endloop
  endfacet
  facet normal 0 0 1
    outer loop
      vertex 7.0000 7.0000 3.0000
      vertex 0.0000 0.0000 3.0000
      vertex 15.5000 5.0000 3.0000
    endloop
  endfacet
  facet normal 0 0 1
    outer loop
      vertex 5.0000 15.5000 3.0000
      vertex 0.0000 0.0000 3.0000
      vertex 7.0000 7.0000 3.0000
    endloop
  endfacet
  facet normal 0 0 1
    outer loop
      vertex 0.0000 0.0000 3.0000
      vertex 5.0000 15.5000 3.0000
      vertex 0.0000 100.0000 3.0000
    endloop
  endfacet
  facet normal -1 0 0
    outer loop
      vertex 0.0000 0.0000 0.0000
      vertex 0.0000 100.0000 3.0000
      vertex 0.0000 100.0000 0.0000
    endloop
  endfacet
  facet normal -1 -0 0
    outer loop
      vertex 0.0000 100.0000 3.0000
      vertex 0.0000 0.0000 0.0000
      vertex 0.0000 0.0000 3.0000
    endloop
  endfacet
  facet normal 0 -1 0
    outer loop
      vertex 0.0000 0.0000 0.0000
      vertex 144.0000 0.0000 3.0000
      vertex 0.0000 0.0000 3.0000
    endloop
  endfacet
  facet normal 0 -1 -0
    outer loop
      vertex 144.0000 0.0000 3.0000
      vertex 0.0000 0.0000 0.0000
      vertex 144.0000 0.0000 0.0000
    endloop
  endfacet
  facet normal 1 -0 0
    outer loop
      vertex 6.5000 15.5000 7.0000
      vertex 6.5000 100.0000 3.0000
      vertex 6.5000 100.0000 7.0000
    endloop
  endfacet
  facet normal 1 0 0
    outer loop
      vertex 6.5000 100.0000 3.0000
      vertex 6.5000 15.5000 7.0000
      vertex 6.5000 15.5000 3.0000
    endloop
  endfacet
  facet normal -0 0 1
    outer loop
      vertex 5.0000 100.0000 7.0000
      vertex 6.5000 15.5000 7.0000
      vertex 6.5000 100.0000 7.0000
    endloop
  endfacet
  facet normal 0 0 1
    outer loop
      vertex 6.5000 15.5000 7.0000
      vertex 5.0000 100.0000 7.0000
      vertex 5.0000 15.5000 7.0000
    endloop
  endfacet
  facet normal -1 0 0
    outer loop
      vertex 5.0000 15.5000 3.0000
      vertex 5.0000 100.0000 7.0000
      vertex 5.0000 100.0000 3.0000
    endloop
  endfacet
  facet normal -1 -0 0
    outer loop
      vertex 5.0000 100.0000 7.0000
      vertex 5.0000 15.5000 3.0000
      vertex 5.0000 15.5000 7.0000
    endloop
  endfacet
  facet normal 0 -1 0
    outer loop
      vertex 5.0000 15.5000 3.0000
      vertex 6.5000 15.5000 7.0000
      vertex 5.0000 15.5000 7.0000
    endloop
  endfacet
  facet normal 0 -1 -0
    outer loop
      vertex 6.5000 15.5000 7.0000
      vertex 5.0000 15.5000 3.0000
      vertex 6.5000 15.5000 3.0000
    endloop
  endfacet
  facet normal -0 0 1
    outer loop
      vertex 15.5000 6.5000 7.0000
      vertex 144.0000 5.0000 7.0000
      vertex 144.0000 6.5000 7.0000
    endloop
  endfacet
  facet normal 0 0 1
    outer loop
      vertex 144.0000 5.0000 7.0000
      vertex 15.5000 6.5000 7.0000
      vertex 15.5000 5.0000 7.0000
    endloop
  endfacet
  facet normal -1 0 0
    outer loop
      vertex 15.5000 5.0000 3.0000
      vertex 15.5000 6.5000 7.0000
      vertex 15.5000 6.5000 3.0000
    endloop
  endfacet
  facet normal -1 -0 0
    outer loop
      vertex 15.5000 6.5000 7.0000
      vertex 15.5000 5.0000 3.0000
      vertex 15.5000 5.0000 7.0000
    endloop
  endfacet
  facet normal 0 1 -0
    outer loop
      vertex 144.0000 6.5000 3.0000
      vertex 15.5000 6.5000 7.0000
      vertex 144.0000 6.5000 7.0000
    endloop
  endfacet
  facet normal 0 1 0
    outer loop
      vertex 15.5000 6.5000 7.0000
      vertex 144.0000 6.5000 3.0000
      vertex 15.5000 6.5000 3.0000
    endloop
  endfacet
  facet normal 0 -1 0
    outer loop
      vertex 15.5000 5.0000 3.0000
      vertex 144.0000 5.0000 7.0000
      vertex 15.5000 5.0000 7.0000
    endloop
  endfacet
  facet normal 0 -1 -0
    outer loop
      vertex 144.0000 5.0000 7.0000
      vertex 15.5000 5.0000 3.0000
      vertex 144.0000 5.0000 3.0000
    endloop
  endfacet
  facet normal 1 -0 0
    outer loop
      vertex 13.0000 7.0000 6.6000
      vertex 13.0000 13.0000 3.0000
      vertex 13.0000 13.0000 6.6000
    endloop
  endfacet
  facet normal 1 0 0
    outer loop
      vertex 13.0000 13.0000 3.0000
      vertex 13.0000 7.0000 6.6000
      vertex 13.0000 7.0000 3.0000
    endloop
  endfacet
  facet normal -0 0 1
    outer loop
      vertex 7.0000 13.0000 6.6000
      vertex 13.0000 7.0000 6.6000
      vertex 13.0000 13.0000 6.6000
    endloop
  endfacet
  facet normal 0 0 1
    outer loop
      vertex 13.0000 7.0000 6.6000
      vertex 7.0000 13.0000 6.6000
      vertex 7.0000 7.0000 6.6000
    endloop
  endfacet
  facet normal -1 0 0
    outer loop
      vertex 7.0000 7.0000 3.0000
      vertex 7.0000 13.0000 6.6000
      vertex 7.0000 13.0000 3.0000
    endloop
  endfacet
  facet normal -1 -0 0
    outer loop
      vertex 7.0000 13.0000 6.6000
      vertex 7.0000 7.0000 3.0000
      vertex 7.0000 7.0000 6.6000
    endloop
  endfacet
  facet normal 0 1 -0
    outer loop
      vertex 13.0000 13.0000 3.0000
      vertex 7.0000 13.0000 6.6000
      vertex 13.0000 13.0000 6.6000
    endloop
  endfacet
  facet normal 0 1 0
    outer loop
      vertex 7.0000 13.0000 6.6000
      vertex 13.0000 13.0000 3.0000
      vertex 7.0000 13.0000 3.0000
    endloop
  endfacet
  facet normal 0 -1 0
    outer loop
      vertex 7.0000 7.0000 3.0000
      vertex 13.0000 7.0000 6.6000
      vertex 7.0000 7.0000 6.6000
    endloop
  endfacet
  facet normal 0 -1 -0
    outer loop
      vertex 13.0000 7.0000 6.6000
      vertex 7.0000 7.0000 3.0000
      vertex 13.0000 7.0000 3.0000
    endloop
  endfacet
  facet normal 1 0 0
    outer loop
      vertex 144.0000 6.5000 7.0000
      vertex 144.0000 5.0000 7.0000
      vertex 144.0000 6.5000 3.0000
    endloop
  endfacet
  facet normal 1 -0 0
    outer loop
      vertex 144.0000 6.5000 3.0000
      vertex 144.0000 47.0000 0.0000
      vertex 144.0000 47.0000 3.0000
    endloop
  endfacet
  facet normal 1 0 0
    outer loop
      vertex 144.0000 5.0000 3.0000
      vertex 144.0000 6.5000 3.0000
      vertex 144.0000 5.0000 7.0000
    endloop
  endfacet
  facet normal 1 0 0
    outer loop
      vertex 144.0000 0.0000 0.0000
      vertex 144.0000 6.5000 3.0000
      vertex 144.0000 5.0000 3.0000
    endloop
  endfacet
  facet normal 1 0 0
    outer loop
      vertex 144.0000 0.0000 0.0000
      vertex 144.0000 5.0000 3.0000
      vertex 144.0000 0.0000 3.0000
    endloop
  endfacet
  facet normal 1 0 0
    outer loop
      vertex 144.0000 6.5000 3.0000
      vertex 144.0000 0.0000 0.0000
      vertex 144.0000 47.0000 0.0000
    endloop
  endfacet
  facet normal 1 -0 0
    outer loop
      vertex 144.0000 53.0000 3.0000
      vertex 144.0000 100.0000 0.0000
      vertex 144.0000 100.0000 3.0000
    endloop
  endfacet
  facet normal 1 0 0
    outer loop
      vertex 144.0000 100.0000 0.0000
      vertex 144.0000 53.0000 3.0000
      vertex 144.0000 53.0000 0.0000
    endloop
  endfacet
  facet normal 0 1 -0
    outer loop
      vertex 45.0000 100.0000 0.0000
      vertex 6.5000 100.0000 3.0000
      vertex 45.0000 100.0000 3.0000
    endloop
  endfacet
  facet normal 0 1 0
    outer loop
      vertex 0.0000 100.0000 0.0000
      vertex 6.5000 100.0000 3.0000
      vertex 45.0000 100.0000 0.0000
    endloop
  endfacet
  facet normal 0 1 0
    outer loop
      vertex 6.5000 100.0000 3.0000
      vertex 0.0000 100.0000 0.0000
      vertex 5.0000 100.0000 3.0000
    endloop
  endfacet
  facet normal 0 1 0
    outer loop
      vertex 5.0000 100.0000 3.0000
      vertex 0.0000 100.0000 0.0000
      vertex 0.0000 100.0000 3.0000
    endloop
  endfacet
  facet normal 0 1 -0
    outer loop
      vertex 6.5000 100.0000 3.0000
      vertex 5.0000 100.0000 7.0000
      vertex 6.5000 100.0000 7.0000
    endloop
  endfacet
  facet normal 0 1 0
    outer loop
      vertex 5.0000 100.0000 7.0000
      vertex 6.5000 100.0000 3.0000
      vertex 5.0000 100.0000 3.0000
    endloop
  endfacet
  facet normal 0 1 -0
    outer loop
      vertex 144.0000 100.0000 0.0000
      vertex 99.0000 100.0000 3.0000
      vertex 144.0000 100.0000 3.0000
    endloop
  endfacet
  facet normal 0 1 0
    outer loop
      vertex 99.0000 100.0000 3.0000
      vertex 144.0000 100.0000 0.0000
      vertex 99.0000 100.0000 0.0000
    endloop
  endfacet
  facet normal 0 1 -0
    outer loop
      vertex 93.0000 100.0000 0.0000
      vertex 51.0000 100.0000 3.0000
      vertex 93.0000 100.0000 3.0000
    endloop
  endfacet
  facet normal 0 1 0
    outer loop
      vertex 51.0000 100.0000 3.0000
      vertex 93.0000 100.0000 0.0000
      vertex 51.0000 100.0000 0.0000
    endloop
  endfacet
  facet normal 0.478852 -0.877896 0
    outer loop
      vertex 51.0000 101.0000 0.0000
      vertex 53.2000 102.2000 3.0000
      vertex 51.0000 101.0000 3.0000
    endloop
  endfacet
  facet normal 0.478852 -0.877896 0
    outer loop
      vertex 53.2000 102.2000 3.0000
      vertex 51.0000 101.0000 0.0000
      vertex 53.2000 102.2000 0.0000
    endloop
  endfacet
  facet normal 1 -0 0
    outer loop
      vertex 53.2000 102.2000 3.0000
      vertex 53.2000 106.5000 0.0000
      vertex 53.2000 106.5000 3.0000
    endloop
  endfacet
  facet normal 1 0 0
    outer loop
      vertex 53.2000 106.5000 0.0000
      vertex 53.2000 102.2000 3.0000
      vertex 53.2000 102.2000 0.0000
    endloop
  endfacet
  facet normal 0 1 -0
    outer loop
      vertex 53.2000 106.5000 0.0000
      vertex 42.8000 106.5000 3.0000
      vertex 53.2000 106.5000 3.0000
    endloop
  endfacet
  facet normal 0 1 0
    outer loop
      vertex 42.8000 106.5000 3.0000
      vertex 53.2000 106.5000 0.0000
      vertex 42.8000 106.5000 0.0000
    endloop
  endfacet
  facet normal -1 0 0
    outer loop
      vertex 42.8000 102.2000 0.0000
      vertex 42.8000 106.5000 3.0000
      vertex 42.8000 106.5000 0.0000
    endloop
  endfacet
  facet normal -1 -0 0
    outer loop
      vertex 42.8000 106.5000 3.0000
      vertex 42.8000 102.2000 0.0000
      vertex 42.8000 102.2000 3.0000
    endloop
  endfacet
  facet normal -0.478852 -0.877896 0
    outer loop
      vertex 42.8000 102.2000 0.0000
      vertex 45.0000 101.0000 3.0000
      vertex 42.8000 102.2000 3.0000
    endloop
  endfacet
  facet normal -0.478852 -0.877896 -0
    outer loop
      vertex 45.0000 101.0000 3.0000
      vertex 42.8000 102.2000 0.0000
      vertex 45.0000 101.0000 0.0000
    endloop
  endfacet
  facet normal -1 0 0
    outer loop
      vertex 45.0000 100.0000 0.0000
      vertex 45.0000 101.0000 3.0000
      vertex 45.0000 101.0000 0.0000
    endloop
  endfacet
  facet normal -1 -0 0
    outer loop
      vertex 45.0000 101.0000 3.0000
      vertex 45.0000 100.0000 0.0000
      vertex 45.0000 100.0000 3.0000
    endloop
  endfacet
  facet normal 1 -0 0
    outer loop
      vertex 51.0000 100.0000 3.0000
      vertex 51.0000 101.0000 0.0000
      vertex 51.0000 101.0000 3.0000
    endloop
  endfacet
  facet normal 1 0 0
    outer loop
      vertex 51.0000 101.0000 0.0000
      vertex 51.0000 100.0000 3.0000
      vertex 51.0000 100.0000 0.0000
    endloop
  endfacet
  facet normal 0.478852 -0.877896 0
    outer loop
      vertex 99.0000 101.0000 0.0000
      vertex 101.2000 102.2000 3.0000
      vertex 99.0000 101.0000 3.0000
    endloop
  endfacet
  facet normal 0.478852 -0.877896 0
    outer loop
      vertex 101.2000 102.2000 3.0000
      vertex 99.0000 101.0000 0.0000
      vertex 101.2000 102.2000 0.0000
    endloop
  endfacet
  facet normal 1 -0 0
    outer loop
      vertex 101.2000 102.2000 3.0000
      vertex 101.2000 106.5000 0.0000
      vertex 101.2000 106.5000 3.0000
    endloop
  endfacet
  facet normal 1 0 0
    outer loop
      vertex 101.2000 106.5000 0.0000
      vertex 101.2000 102.2000 3.0000
      vertex 101.2000 102.2000 0.0000
    endloop
  endfacet
  facet normal 0 1 -0
    outer loop
      vertex 101.2000 106.5000 0.0000
      vertex 90.8000 106.5000 3.0000
      vertex 101.2000 106.5000 3.0000
    endloop
  endfacet
  facet normal 0 1 0
    outer loop
      vertex 90.8000 106.5000 3.0000
      vertex 101.2000 106.5000 0.0000
      vertex 90.8000 106.5000 0.0000
    endloop
  endfacet
  facet normal -1 0 0
    outer loop
      vertex 90.8000 102.2000 0.0000
      vertex 90.8000 106.5000 3.0000
      vertex 90.8000 106.5000 0.0000
    endloop
  endfacet
  facet normal -1 -0 0
    outer loop
      vertex 90.8000 106.5000 3.0000
      vertex 90.8000 102.2000 0.0000
      vertex 90.8000 102.2000 3.0000
    endloop
  endfacet
  facet normal -0.478852 -0.877896 0
    outer loop
      vertex 90.8000 102.2000 0.0000
      vertex 93.0000 101.0000 3.0000
      vertex 90.8000 102.2000 3.0000
    endloop
  endfacet
  facet normal -0.478852 -0.877896 -0
    outer loop
      vertex 93.0000 101.0000 3.0000
      vertex 90.8000 102.2000 0.0000
      vertex 93.0000 101.0000 0.0000
    endloop
  endfacet
  facet normal -1 0 0
    outer loop
      vertex 93.0000 100.0000 0.0000
      vertex 93.0000 101.0000 3.0000
      vertex 93.0000 101.0000 0.0000
    endloop
  endfacet
  facet normal -1 -0 0
    outer loop
      vertex 93.0000 101.0000 3.0000
      vertex 93.0000 100.0000 0.0000
      vertex 93.0000 100.0000 3.0000
    endloop
  endfacet
  facet normal 1 -0 0
    outer loop
      vertex 99.0000 100.0000 3.0000
      vertex 99.0000 101.0000 0.0000
      vertex 99.0000 101.0000 3.0000
    endloop
  endfacet
  facet normal 1 0 0
    outer loop
      vertex 99.0000 101.0000 0.0000
      vertex 99.0000 100.0000 3.0000
      vertex 99.0000 100.0000 0.0000
    endloop
  endfacet
  facet normal -0.877896 -0.478852 -4.72562e-18
    outer loop
      vertex 146.2000 44.8000 0.0000
      vertex 145.0000 47.0000 3.0000
      vertex 145.0000 47.0000 0.0000
    endloop
  endfacet
  facet normal -0.877896 -0.478852 -4.72562e-18
    outer loop
      vertex 145.0000 47.0000 3.0000
      vertex 146.2000 44.8000 0.0000
      vertex 146.2000 44.8000 3.0000
    endloop
  endfacet
  facet normal 0 -1 0
    outer loop
      vertex 146.2000 44.8000 0.0000
      vertex 150.5000 44.8000 3.0000
      vertex 146.2000 44.8000 3.0000
    endloop
  endfacet
  facet normal 0 -1 -0
    outer loop
      vertex 150.5000 44.8000 3.0000
      vertex 146.2000 44.8000 0.0000
      vertex 150.5000 44.8000 0.0000
    endloop
  endfacet
  facet normal 1 -0 0
    outer loop
      vertex 150.5000 44.8000 3.0000
      vertex 150.5000 55.2000 0.0000
      vertex 150.5000 55.2000 3.0000
    endloop
  endfacet
  facet normal 1 0 0
    outer loop
      vertex 150.5000 55.2000 0.0000
      vertex 150.5000 44.8000 3.0000
      vertex 150.5000 44.8000 0.0000
    endloop
  endfacet
  facet normal 0 1 -0
    outer loop
      vertex 150.5000 55.2000 0.0000
      vertex 146.2000 55.2000 3.0000
      vertex 150.5000 55.2000 3.0000
    endloop
  endfacet
  facet normal 0 1 0
    outer loop
      vertex 146.2000 55.2000 3.0000
      vertex 150.5000 55.2000 0.0000
      vertex 146.2000 55.2000 0.0000
    endloop
  endfacet
  facet normal -0.877896 0.478852 4.72562e-18
    outer loop
      vertex 145.0000 53.0000 0.0000
      vertex 146.2000 55.2000 3.0000
      vertex 146.2000 55.2000 0.0000
    endloop
  endfacet
  facet normal -0.877896 0.478852 4.72562e-18
    outer loop
      vertex 146.2000 55.2000 3.0000
      vertex 145.0000 53.0000 0.0000
      vertex 145.0000 53.0000 3.0000
    endloop
  endfacet
  facet normal 0 1 -0
    outer loop
      vertex 145.0000 53.0000 0.0000
      vertex 144.0000 53.0000 3.0000
      vertex 145.0000 53.0000 3.0000
    endloop
  endfacet
  facet normal 0 1 0
    outer loop
      vertex 144.0000 53.0000 3.0000
      vertex 145.0000 53.0000 0.0000
      vertex 144.0000 53.0000 0.0000
    endloop
  endfacet
  facet normal 0 -1 0
    outer loop
      vertex 144.0000 47.0000 0.0000
      vertex 145.0000 47.0000 3.0000
      vertex 144.0000 47.0000 3.0000
    endloop
  endfacet
  facet normal 0 -1 -0
    outer loop
      vertex 145.0000 47.0000 3.0000
      vertex 144.0000 47.0000 0.0000
      vertex 145.0000 47.0000 0.0000
    endloop
  endfacet
endsolid OpenSCAD_Model
