solid OpenSCAD_Model
  facet normal 1 -0 0
    outer loop
      vertex 126.7000 0.0000 3.0000
      vertex 126.7000 100.0000 0.0000
      vertex 126.7000 100.0000 3.0000
    endloop
  endfacet
  facet normal 1 0 0
    outer loop
      vertex 126.7000 100.0000 0.0000
      vertex 126.7000 0.0000 3.0000
      vertex 126.7000 0.0000 0.0000
    endloop
  endfacet
  facet normal 0 0 -1
    outer loop
      vertex 126.7000 0.0000 0.0000
      vertex 87.4670 100.0000 0.0000
      vertex 126.7000 100.0000 0.0000
    endloop
  endfacet
  facet normal 0 0 -1
    outer loop
      vertex 87.4670 100.0000 0.0000
      vertex 81.4670 100.0000 0.0000
      vertex 87.4670 101.0000 0.0000
    endloop
  endfacet
  facet normal 0 0 -1
    outer loop
      vertex 126.7000 0.0000 0.0000
      vertex 81.4670 100.0000 0.0000
      vertex 87.4670 100.0000 0.0000
    endloop
  endfacet
  facet normal 0 0 -1
    outer loop
      vertex 6.7000 44.6000 0.0000
      vertex 81.4670 100.0000 0.0000
      vertex 126.7000 0.0000 0.0000
    endloop
  endfacet
  facet normal 0 0 -1
    outer loop
      vertex 45.2330 100.0000 0.0000
      vertex 39.2330 100.0000 0.0000
      vertex 45.2330 101.0000 0.0000
    endloop
  endfacet
  facet normal -0 0 -1
    outer loop
      vertex 81.4670 100.0000 0.0000
      vertex 6.7000 44.6000 0.0000
      vertex 45.2330 100.0000 0.0000
    endloop
  endfacet
  facet normal 0 0 -1
    outer loop
      vertex 6.7000 55.4000 0.0000
      vertex 45.2330 100.0000 0.0000
      vertex 6.7000 44.6000 0.0000
    endloop
  endfacet
  facet normal 0 0 -1
    outer loop
      vertex 0.0000 0.0000 0.0000
      vertex 6.7000 44.6000 0.0000
      vertex 126.7000 0.0000 0.0000
    endloop
  endfacet
  facet normal -0 0 -1
    outer loop
      vertex 6.7000 44.6000 0.0000
      vertex 0.0000 0.0000 0.0000
      vertex 2.0810 44.6000 0.0000
    endloop
  endfacet
  facet normal 0 0 -1
    outer loop
      vertex 0.0000 46.8000 0.0000
      vertex 2.0810 44.6000 0.0000
      vertex 0.0000 0.0000 0.0000
    endloop
  endfacet
  facet normal 0 0 -1
    outer loop
      vertex 2.0810 44.6000 0.0000
      vertex 0.0000 46.8000 0.0000
      vertex 0.8810 46.8000 0.0000
    endloop
  endfacet
  facet normal 0 0 -1
    outer loop
      vertex 87.4670 101.0000 0.0000
      vertex 89.6670 106.5000 0.0000
      vertex 89.6670 102.2000 0.0000
    endloop
  endfacet
  facet normal 0 0 -1
    outer loop
      vertex 81.4670 101.0000 0.0000
      vertex 87.4670 101.0000 0.0000
      vertex 81.4670 100.0000 0.0000
    endloop
  endfacet
  facet normal 0 0 -1
    outer loop
      vertex 87.4670 101.0000 0.0000
      vertex 81.4670 101.0000 0.0000
      vertex 89.6670 106.5000 0.0000
    endloop
  endfacet
  facet normal 0 0 -1
    outer loop
      vertex 79.2670 106.5000 0.0000
      vertex 81.4670 101.0000 0.0000
      vertex 79.2670 102.2000 0.0000
    endloop
  endfacet
  facet normal 0 0 -1
    outer loop
      vertex 81.4670 101.0000 0.0000
      vertex 79.2670 106.5000 0.0000
      vertex 89.6670 106.5000 0.0000
    endloop
  endfacet
  facet normal 0 0 -1
    outer loop
      vertex 45.2330 101.0000 0.0000
      vertex 47.4330 106.5000 0.0000
      vertex 47.4330 102.2000 0.0000
    endloop
  endfacet
  facet normal 0 0 -1
    outer loop
      vertex 39.2330 101.0000 0.0000
      vertex 45.2330 101.0000 0.0000
      vertex 39.2330 100.0000 0.0000
    endloop
  endfacet
  facet normal 0 0 -1
    outer loop
      vertex 45.2330 101.0000 0.0000
      vertex 39.2330 101.0000 0.0000
      vertex 47.4330 106.5000 0.0000
    endloop
  endfacet
  facet normal 0 0 -1
    outer loop
      vertex 37.0330 106.5000 0.0000
      vertex 39.2330 101.0000 0.0000
      vertex 37.0330 102.2000 0.0000
    endloop
  endfacet
  facet normal 0 0 -1
    outer loop
      vertex 39.2330 101.0000 0.0000
      vertex 37.0330 106.5000 0.0000
      vertex 47.4330 106.5000 0.0000
    endloop
  endfacet
  facet normal -0 0 -1
    outer loop
      vertex 45.2330 100.0000 0.0000
      vertex 6.7000 55.4000 0.0000
      vertex 39.2330 100.0000 0.0000
    endloop
  endfacet
  facet normal 0 0 -1
    outer loop
      vertex 0.0000 100.0000 0.0000
      vertex 6.7000 55.4000 0.0000
      vertex 2.0810 55.4000 0.0000
    endloop
  endfacet
  facet normal 0 0 -1
    outer loop
      vertex 0.0000 53.2000 0.0000
      vertex 2.0810 55.4000 0.0000
      vertex 0.8810 53.2000 0.0000
    endloop
  endfacet
  facet normal 0 0 -1
    outer loop
      vertex 0.0000 100.0000 0.0000
      vertex 2.0810 55.4000 0.0000
      vertex 0.0000 53.2000 0.0000
    endloop
  endfacet
  facet normal 0 0 -1
    outer loop
      vertex 6.7000 55.4000 0.0000
      vertex 0.0000 100.0000 0.0000
      vertex 39.2330 100.0000 0.0000
    endloop
  endfacet
  facet normal 0 0 1
    outer loop
      vertex 0.0000 6.5000 3.0000
      vertex 7.0000 13.0000 3.0000
      vertex 2.0810 44.6000 3.0000
    endloop
  endfacet
  facet normal -0 0 1
    outer loop
      vertex 0.0000 46.8000 3.0000
      vertex 2.0810 44.6000 3.0000
      vertex 0.8810 46.8000 3.0000
    endloop
  endfacet
  facet normal 0 0 1
    outer loop
      vertex 2.0810 44.6000 3.0000
      vertex 0.0000 46.8000 3.0000
      vertex 0.0000 6.5000 3.0000
    endloop
  endfacet
  facet normal 0 0 1
    outer loop
      vertex 7.0000 13.0000 3.0000
      vertex 0.0000 6.5000 3.0000
      vertex 2.5000 6.5000 3.0000
    endloop
  endfacet
  facet normal 0 0 1
    outer loop
      vertex 47.4330 106.5000 3.0000
      vertex 45.2330 101.0000 3.0000
      vertex 47.4330 102.2000 3.0000
    endloop
  endfacet
  facet normal 0 0 1
    outer loop
      vertex 45.2330 101.0000 3.0000
      vertex 39.2330 101.0000 3.0000
      vertex 45.2330 100.0000 3.0000
    endloop
  endfacet
  facet normal 0 0 1
    outer loop
      vertex 47.4330 106.5000 3.0000
      vertex 39.2330 101.0000 3.0000
      vertex 45.2330 101.0000 3.0000
    endloop
  endfacet
  facet normal -0 0 1
    outer loop
      vertex 37.0330 106.5000 3.0000
      vertex 39.2330 101.0000 3.0000
      vertex 47.4330 106.5000 3.0000
    endloop
  endfacet
  facet normal 0 0 1
    outer loop
      vertex 39.2330 101.0000 3.0000
      vertex 37.0330 106.5000 3.0000
      vertex 37.0330 102.2000 3.0000
    endloop
  endfacet
  facet normal 0 0 1
    outer loop
      vertex 89.6670 106.5000 3.0000
      vertex 87.4670 101.0000 3.0000
      vertex 89.6670 102.2000 3.0000
    endloop
  endfacet
  facet normal 0 0 1
    outer loop
      vertex 87.4670 101.0000 3.0000
      vertex 81.4670 101.0000 3.0000
      vertex 87.4670 100.0000 3.0000
    endloop
  endfacet
  facet normal 0 0 1
    outer loop
      vertex 89.6670 106.5000 3.0000
      vertex 81.4670 101.0000 3.0000
      vertex 87.4670 101.0000 3.0000
    endloop
  endfacet
  facet normal -0 0 1
    outer loop
      vertex 79.2670 106.5000 3.0000
      vertex 81.4670 101.0000 3.0000
      vertex 89.6670 106.5000 3.0000
    endloop
  endfacet
  facet normal 0 0 1
    outer loop
      vertex 81.4670 101.0000 3.0000
      vertex 79.2670 106.5000 3.0000
      vertex 79.2670 102.2000 3.0000
    endloop
  endfacet
  facet normal -0 0 1
    outer loop
      vertex 87.4670 100.0000 3.0000
      vertex 120.2000 15.5000 3.0000
      vertex 120.2000 100.0000 3.0000
    endloop
  endfacet
  facet normal 0 0 1
    outer loop
      vertex 120.2000 15.5000 3.0000
      vertex 113.7000 13.0000 3.0000
      vertex 119.7000 13.0000 3.0000
    endloop
  endfacet
  facet normal 0 0 1
    outer loop
      vertex 113.7000 13.0000 3.0000
      vertex 111.2000 6.5000 3.0000
      vertex 113.7000 7.0000 3.0000
    endloop
  endfacet
  facet normal 0 0 1
    outer loop
      vertex 120.2000 15.5000 3.0000
      vertex 87.4670 100.0000 3.0000
      vertex 113.7000 13.0000 3.0000
    endloop
  endfacet
  facet normal -0 0 1
    outer loop
      vertex 81.4670 100.0000 3.0000
      vertex 113.7000 13.0000 3.0000
      vertex 87.4670 100.0000 3.0000
    endloop
  endfacet
  facet normal 0 0 1
    outer loop
      vertex 81.4670 100.0000 3.0000
      vertex 87.4670 100.0000 3.0000
      vertex 81.4670 101.0000 3.0000
    endloop
  endfacet
  facet normal -0 0 1
    outer loop
      vertex 6.7000 44.6000 3.0000
      vertex 113.7000 13.0000 3.0000
      vertex 81.4670 100.0000 3.0000
    endloop
  endfacet
  facet normal 0 0 1
    outer loop
      vertex 6.7000 44.6000 3.0000
      vertex 81.4670 100.0000 3.0000
      vertex 45.2330 100.0000 3.0000
    endloop
  endfacet
  facet normal 0 0 1
    outer loop
      vertex 39.2330 100.0000 3.0000
      vertex 45.2330 100.0000 3.0000
      vertex 39.2330 101.0000 3.0000
    endloop
  endfacet
  facet normal 0 0 1
    outer loop
      vertex 6.7000 55.4000 3.0000
      vertex 45.2330 100.0000 3.0000
      vertex 39.2330 100.0000 3.0000
    endloop
  endfacet
  facet normal 0 -0 1
    outer loop
      vertex 17.5000 6.5000 3.0000
      vertex 113.7000 13.0000 3.0000
      vertex 6.7000 44.6000 3.0000
    endloop
  endfacet
  facet normal -0 0 1
    outer loop
      vertex 13.0000 7.0000 3.0000
      vertex 17.5000 6.5000 3.0000
      vertex 13.0000 13.0000 3.0000
    endloop
  endfacet
  facet normal 0 0 1
    outer loop
      vertex 113.7000 13.0000 3.0000
      vertex 17.5000 6.5000 3.0000
      vertex 111.2000 6.5000 3.0000
    endloop
  endfacet
  facet normal 0 0 1
    outer loop
      vertex 17.5000 6.5000 3.0000
      vertex 6.7000 44.6000 3.0000
      vertex 13.0000 13.0000 3.0000
    endloop
  endfacet
  facet normal 0 0 1
    outer loop
      vertex 13.0000 13.0000 3.0000
      vertex 6.7000 44.6000 3.0000
      vertex 7.0000 13.0000 3.0000
    endloop
  endfacet
  facet normal 0 0 1
    outer loop
      vertex 45.2330 100.0000 3.0000
      vertex 6.7000 55.4000 3.0000
      vertex 6.7000 44.6000 3.0000
    endloop
  endfacet
  facet normal -0 0 1
    outer loop
      vertex 0.0000 100.0000 3.0000
      vertex 6.7000 55.4000 3.0000
      vertex 39.2330 100.0000 3.0000
    endloop
  endfacet
  facet normal 0 0 1
    outer loop
      vertex 6.7000 55.4000 3.0000
      vertex 0.0000 100.0000 3.0000
      vertex 2.0810 55.4000 3.0000
    endloop
  endfacet
  facet normal 0 0 1
    outer loop
      vertex 0.0000 53.2000 3.0000
      vertex 2.0810 55.4000 3.0000
      vertex 0.0000 100.0000 3.0000
    endloop
  endfacet
  facet normal 0 0 1
    outer loop
      vertex 2.0810 55.4000 3.0000
      vertex 0.0000 53.2000 3.0000
      vertex 0.8810 53.2000 3.0000
    endloop
  endfacet
  facet normal 0 0 1
    outer loop
      vertex 121.7000 15.5000 3.0000
      vertex 126.7000 100.0000 3.0000
      vertex 121.7000 100.0000 3.0000
    endloop
  endfacet
  facet normal 0 0 1
    outer loop
      vertex 126.7000 100.0000 3.0000
      vertex 121.7000 15.5000 3.0000
      vertex 126.7000 0.0000 3.0000
    endloop
  endfacet
  facet normal 0 0 1
    outer loop
      vertex 119.7000 13.0000 3.0000
      vertex 121.7000 15.5000 3.0000
      vertex 120.2000 15.5000 3.0000
    endloop
  endfacet
  facet normal 0 0 1
    outer loop
      vertex 119.7000 7.0000 3.0000
      vertex 121.7000 15.5000 3.0000
      vertex 119.7000 13.0000 3.0000
    endloop
  endfacet
  facet normal 0 0 1
    outer loop
      vertex 121.7000 15.5000 3.0000
      vertex 119.7000 7.0000 3.0000
      vertex 126.7000 0.0000 3.0000
    endloop
  endfacet
  facet normal 0 0 1
    outer loop
      vertex 111.2000 5.0000 3.0000
      vertex 119.7000 7.0000 3.0000
      vertex 113.7000 7.0000 3.0000
    endloop
  endfacet
  facet normal 0 0 1
    outer loop
      vertex 111.2000 5.0000 3.0000
      vertex 113.7000 7.0000 3.0000
      vertex 111.2000 6.5000 3.0000
    endloop
  endfacet
  facet normal 0 0 1
    outer loop
      vertex 119.7000 7.0000 3.0000
      vertex 111.2000 5.0000 3.0000
      vertex 126.7000 0.0000 3.0000
    endloop
  endfacet
  facet normal -0 0 1
    outer loop
      vertex 17.5000 5.0000 3.0000
      vertex 126.7000 0.0000 3.0000
      vertex 111.2000 5.0000 3.0000
    endloop
  endfacet
  facet normal 0 0 1
    outer loop
      vertex 17.5000 6.5000 3.0000
      vertex 13.0000 7.0000 3.0000
      vertex 17.5000 5.0000 3.0000
    endloop
  endfacet
  facet normal 0 0 1
    outer loop
      vertex 0.0000 0.0000 3.0000
      vertex 13.0000 7.0000 3.0000
      vertex 7.0000 7.0000 3.0000
    endloop
  endfacet
  facet normal -0 0 1
    outer loop
      vertex 2.0810 44.6000 3.0000
      vertex 7.0000 13.0000 3.0000
      vertex 6.7000 44.6000 3.0000
    endloop
  endfacet
  facet normal 0 0 1
    outer loop
      vertex 7.0000 13.0000 3.0000
      vertex 2.5000 6.5000 3.0000
      vertex 7.0000 7.0000 3.0000
    endloop
  endfacet
  facet normal 0 0 1
    outer loop
      vertex 2.5000 5.0000 3.0000
      vertex 7.0000 7.0000 3.0000
      vertex 2.5000 6.5000 3.0000
    endloop
  endfacet
  facet normal 0 0 1
    outer loop
      vertex 0.0000 0.0000 3.0000
      vertex 7.0000 7.0000 3.0000
      vertex 2.5000 5.0000 3.0000
    endloop
  endfacet
  facet normal 0 0 1
    outer loop
      vertex 13.0000 7.0000 3.0000
      vertex 0.0000 0.0000 3.0000
      vertex 17.5000 5.0000 3.0000
    endloop
  endfacet
  facet normal 0 0 1
    outer loop
      vertex 0.0000 0.0000 3.0000
      vertex 2.5000 5.0000 3.0000
      vertex 0.0000 5.0000 3.0000
    endloop
  endfacet
  facet normal 0 0 1
    outer loop
      vertex 17.5000 5.0000 3.0000
      vertex 0.0000 0.0000 3.0000
      vertex 126.7000 0.0000 3.0000
    endloop
  endfacet
  facet normal 0 -1 0
    outer loop
      vertex 0.0000 0.0000 0.0000
      vertex 126.7000 0.0000 3.0000
      vertex 0.0000 0.0000 3.0000
    endloop
  endfacet
  facet normal 0 -1 -0
    outer loop
      vertex 126.7000 0.0000 3.0000
      vertex 0.0000 0.0000 0.0000
      vertex 126.7000 0.0000 0.0000
    endloop
  endfacet
  facet normal 1 -0 0
    outer loop
      vertex 121.7000 15.5000 7.0000
      vertex 121.7000 100.0000 3.0000
      vertex 121.7000 100.0000 7.0000
    endloop
  endfacet
  facet normal 1 0 0
    outer loop
      vertex 121.7000 100.0000 3.0000
      vertex 121.7000 15.5000 7.0000
      vertex 121.7000 15.5000 3.0000
    endloop
  endfacet
  facet normal -0 0 1
    outer loop
      vertex 120.2000 100.0000 7.0000
      vertex 121.7000 15.5000 7.0000
      vertex 121.7000 100.0000 7.0000
    endloop
  endfacet
  facet normal 0 0 1
    outer loop
      vertex 121.7000 15.5000 7.0000
      vertex 120.2000 100.0000 7.0000
      vertex 120.2000 15.5000 7.0000
    endloop
  endfacet
  facet normal -1 0 0
    outer loop
      vertex 120.2000 15.5000 3.0000
      vertex 120.2000 100.0000 7.0000
      vertex 120.2000 100.0000 3.0000
    endloop
  endfacet
  facet normal -1 -0 0
    outer loop
      vertex 120.2000 100.0000 7.0000
      vertex 120.2000 15.5000 3.0000
      vertex 120.2000 15.5000 7.0000
    endloop
  endfacet
  facet normal 0 -1 0
    outer loop
      vertex 120.2000 15.5000 3.0000
      vertex 121.7000 15.5000 7.0000
      vertex 120.2000 15.5000 7.0000
    endloop
  endfacet
  facet normal 0 -1 -0
    outer loop
      vertex 121.7000 15.5000 7.0000
      vertex 120.2000 15.5000 3.0000
      vertex 121.7000 15.5000 3.0000
    endloop
  endfacet
  facet normal 1 -0 0
    outer loop
      vertex 2.5000 5.0000 7.0000
      vertex 2.5000 6.5000 3.0000
      vertex 2.5000 6.5000 7.0000
    endloop
  endfacet
  facet normal 1 0 0
    outer loop
      vertex 2.5000 6.5000 3.0000
      vertex 2.5000 5.0000 7.0000
      vertex 2.5000 5.0000 3.0000
    endloop
  endfacet
  facet normal -0 0 1
    outer loop
      vertex 0.0000 6.5000 7.0000
      vertex 2.5000 5.0000 7.0000
      vertex 2.5000 6.5000 7.0000
    endloop
  endfacet
  facet normal 0 0 1
    outer loop
      vertex 2.5000 5.0000 7.0000
      vertex 0.0000 6.5000 7.0000
      vertex 0.0000 5.0000 7.0000
    endloop
  endfacet
  facet normal 0 1 -0
    outer loop
      vertex 2.5000 6.5000 3.0000
      vertex 0.0000 6.5000 7.0000
      vertex 2.5000 6.5000 7.0000
    endloop
  endfacet
  facet normal 0 1 0
    outer loop
      vertex 0.0000 6.5000 7.0000
      vertex 2.5000 6.5000 3.0000
      vertex 0.0000 6.5000 3.0000
    endloop
  endfacet
  facet normal 0 -1 0
    outer loop
      vertex 0.0000 5.0000 3.0000
      vertex 2.5000 5.0000 7.0000
      vertex 0.0000 5.0000 7.0000
    endloop
  endfacet
  facet normal 0 -1 -0
    outer loop
      vertex 2.5000 5.0000 7.0000
      vertex 0.0000 5.0000 3.0000
      vertex 2.5000 5.0000 3.0000
    endloop
  endfacet
  facet normal 1 -0 0
    outer loop
      vertex 111.2000 5.0000 7.0000
      vertex 111.2000 6.5000 3.0000
      vertex 111.2000 6.5000 7.0000
    endloop
  endfacet
  facet normal 1 0 0
    outer loop
      vertex 111.2000 6.5000 3.0000
      vertex 111.2000 5.0000 7.0000
      vertex 111.2000 5.0000 3.0000
    endloop
  endfacet
  facet normal -0 0 1
    outer loop
      vertex 17.5000 6.5000 7.0000
      vertex 111.2000 5.0000 7.0000
      vertex 111.2000 6.5000 7.0000
    endloop
  endfacet
  facet normal 0 0 1
    outer loop
      vertex 111.2000 5.0000 7.0000
      vertex 17.5000 6.5000 7.0000
      vertex 17.5000 5.0000 7.0000
    endloop
  endfacet
  facet normal -1 0 0
    outer loop
      vertex 17.5000 5.0000 3.0000
      vertex 17.5000 6.5000 7.0000
      vertex 17.5000 6.5000 3.0000
    endloop
  endfacet
  facet normal -1 -0 0
    outer loop
      vertex 17.5000 6.5000 7.0000
      vertex 17.5000 5.0000 3.0000
      vertex 17.5000 5.0000 7.0000
    endloop
  endfacet
  facet normal 0 1 -0
    outer loop
      vertex 111.2000 6.5000 3.0000
      vertex 17.5000 6.5000 7.0000
      vertex 111.2000 6.5000 7.0000
    endloop
  endfacet
  facet normal 0 1 0
    outer loop
      vertex 17.5000 6.5000 7.0000
      vertex 111.2000 6.5000 3.0000
      vertex 17.5000 6.5000 3.0000
    endloop
  endfacet
  facet normal 0 -1 0
    outer loop
      vertex 17.5000 5.0000 3.0000
      vertex 111.2000 5.0000 7.0000
      vertex 17.5000 5.0000 7.0000
    endloop
  endfacet
  facet normal 0 -1 -0
    outer loop
      vertex 111.2000 5.0000 7.0000
      vertex 17.5000 5.0000 3.0000
      vertex 111.2000 5.0000 3.0000
    endloop
  endfacet
  facet normal 1 -0 0
    outer loop
      vertex 119.7000 7.0000 6.6000
      vertex 119.7000 13.0000 3.0000
      vertex 119.7000 13.0000 6.6000
    endloop
  endfacet
  facet normal 1 0 0
    outer loop
      vertex 119.7000 13.0000 3.0000
      vertex 119.7000 7.0000 6.6000
      vertex 119.7000 7.0000 3.0000
    endloop
  endfacet
  facet normal -0 0 1
    outer loop
      vertex 113.7000 13.0000 6.6000
      vertex 119.7000 7.0000 6.6000
      vertex 119.7000 13.0000 6.6000
    endloop
  endfacet
  facet normal 0 0 1
    outer loop
      vertex 119.7000 7.0000 6.6000
      vertex 113.7000 13.0000 6.6000
      vertex 113.7000 7.0000 6.6000
    endloop
  endfacet
  facet normal -1 0 0
    outer loop
      vertex 113.7000 7.0000 3.0000
      vertex 113.7000 13.0000 6.6000
      vertex 113.7000 13.0000 3.0000
    endloop
  endfacet
  facet normal -1 -0 0
    outer loop
      vertex 113.7000 13.0000 6.6000
      vertex 113.7000 7.0000 3.0000
      vertex 113.7000 7.0000 6.6000
    endloop
  endfacet
  facet normal 0 1 -0
    outer loop
      vertex 119.7000 13.0000 3.0000
      vertex 113.7000 13.0000 6.6000
      vertex 119.7000 13.0000 6.6000
    endloop
  endfacet
  facet normal 0 1 0
    outer loop
      vertex 113.7000 13.0000 6.6000
      vertex 119.7000 13.0000 3.0000
      vertex 113.7000 13.0000 3.0000
    endloop
  endfacet
  facet normal 0 -1 0
    outer loop
      vertex 113.7000 7.0000 3.0000
      vertex 119.7000 7.0000 6.6000
      vertex 113.7000 7.0000 6.6000
    endloop
  endfacet
  facet normal 0 -1 -0
    outer loop
      vertex 119.7000 7.0000 6.6000
      vertex 113.7000 7.0000 3.0000
      vertex 119.7000 7.0000 3.0000
    endloop
  endfacet
  facet normal 1 -0 0
    outer loop
      vertex 13.0000 7.0000 6.6000
      vertex 13.0000 13.0000 3.0000
      vertex 13.0000 13.0000 6.6000
    endloop
  endfacet
  facet normal 1 0 0
    outer loop
      vertex 13.0000 13.0000 3.0000
      vertex 13.0000 7.0000 6.6000
      vertex 13.0000 7.0000 3.0000
    endloop
  endfacet
  facet normal -0 0 1
    outer loop
      vertex 7.0000 13.0000 6.6000
      vertex 13.0000 7.0000 6.6000
      vertex 13.0000 13.0000 6.6000
    endloop
  endfacet
  facet normal 0 0 1
    outer loop
      vertex 13.0000 7.0000 6.6000
      vertex 7.0000 13.0000 6.6000
      vertex 7.0000 7.0000 6.6000
    endloop
  endfacet
  facet normal -1 0 0
    outer loop
      vertex 7.0000 7.0000 3.0000
      vertex 7.0000 13.0000 6.6000
      vertex 7.0000 13.0000 3.0000
    endloop
  endfacet
  facet normal -1 -0 0
    outer loop
      vertex 7.0000 13.0000 6.6000
      vertex 7.0000 7.0000 3.0000
      vertex 7.0000 7.0000 6.6000
    endloop
  endfacet
  facet normal 0 1 -0
    outer loop
      vertex 13.0000 13.0000 3.0000
      vertex 7.0000 13.0000 6.6000
      vertex 13.0000 13.0000 6.6000
    endloop
  endfacet
  facet normal 0 1 0
    outer loop
      vertex 7.0000 13.0000 6.6000
      vertex 13.0000 13.0000 3.0000
      vertex 7.0000 13.0000 3.0000
    endloop
  endfacet
  facet normal 0 -1 0
    outer loop
      vertex 7.0000 7.0000 3.0000
      vertex 13.0000 7.0000 6.6000
      vertex 7.0000 7.0000 6.6000
    endloop
  endfacet
  facet normal 0 -1 -0
    outer loop
      vertex 13.0000 7.0000 6.6000
      vertex 7.0000 7.0000 3.0000
      vertex 13.0000 7.0000 3.0000
    endloop
  endfacet
  facet normal -1 0 0
    outer loop
      vertex 0.0000 46.8000 0.0000
      vertex 0.0000 6.5000 3.0000
      vertex 0.0000 46.8000 3.0000
    endloop
  endfacet
  facet normal -1 0 0
    outer loop
      vertex 0.0000 6.5000 3.0000
      vertex 0.0000 5.0000 3.0000
      vertex 0.0000 6.5000 7.0000
    endloop
  endfacet
  facet normal -1 0 0
    outer loop
      vertex 0.0000 0.0000 0.0000
      vertex 0.0000 6.5000 3.0000
      vertex 0.0000 46.8000 0.0000
    endloop
  endfacet
  facet normal -1 -0 0
    outer loop
      vertex 0.0000 6.5000 3.0000
      vertex 0.0000 0.0000 0.0000
      vertex 0.0000 5.0000 3.0000
    endloop
  endfacet
  facet normal -1 -0 0
    outer loop
      vertex 0.0000 5.0000 3.0000
      vertex 0.0000 0.0000 0.0000
      vertex 0.0000 0.0000 3.0000
    endloop
  endfacet
  facet normal -1 -0 0
    outer loop
      vertex 0.0000 6.5000 7.0000
      vertex 0.0000 5.0000 3.0000
      vertex 0.0000 5.0000 7.0000
    endloop
  endfacet
  facet normal -1 0 0
    outer loop
      vertex 0.0000 53.2000 0.0000
      vertex 0.0000 100.0000 3.0000
      vertex 0.0000 100.0000 0.0000
    endloop
  endfacet
  facet normal -1 -0 0
    outer loop
      vertex 0.0000 100.0000 3.0000
      vertex 0.0000 53.2000 0.0000
      vertex 0.0000 53.2000 3.0000
    endloop
  endfacet
  facet normal 0 1 -0
    outer loop
      vertex 126.7000 100.0000 0.0000
      vertex 121.7000 100.0000 3.0000
      vertex 126.7000 100.0000 3.0000
    endloop
  endfacet
  facet normal 0 1 0
    outer loop
      vertex 121.7000 100.0000 3.0000
      vertex 126.7000 100.0000 0.0000
      vertex 120.2000 100.0000 3.0000
    endloop
  endfacet
  facet normal 0 1 0
    outer loop
      vertex 87.4670 100.0000 0.0000
      vertex 120.2000 100.0000 3.0000
      vertex 126.7000 100.0000 0.0000
    endloop
  endfacet
  facet normal 0 1 0
    outer loop
      vertex 120.2000 100.0000 3.0000
      vertex 87.4670 100.0000 0.0000
      vertex 87.4670 100.0000 3.0000
    endloop
  endfacet
  facet normal 0 1 -0
    outer loop
      vertex 121.7000 100.0000 3.0000
      vertex 120.2000 100.0000 7.0000
      vertex 121.7000 100.0000 7.0000
    endloop
  endfacet
  facet normal 0 1 0
    outer loop
      vertex 120.2000 100.0000 7.0000
      vertex 121.7000 100.0000 3.0000
      vertex 120.2000 100.0000 3.0000
    endloop
  endfacet
  facet normal 0 1 -0
    outer loop
      vertex 39.2330 100.0000 0.0000
      vertex 0.0000 100.0000 3.0000
      vertex 39.2330 100.0000 3.0000
    endloop
  endfacet
  facet normal 0 1 0
    outer loop
      vertex 0.0000 100.0000 3.0000
      vertex 39.2330 100.0000 0.0000
      vertex 0.0000 100.0000 0.0000
    endloop
  endfacet
  facet normal 0 1 -0
    outer loop
      vertex 81.4670 100.0000 0.0000
      vertex 45.2330 100.0000 3.0000
      vertex 81.4670 100.0000 3.0000
    endloop
  endfacet
  facet normal 0 1 0
    outer loop
      vertex 45.2330 100.0000 3.0000
      vertex 81.4670 100.0000 0.0000
      vertex 45.2330 100.0000 0.0000
    endloop
  endfacet
  facet normal 0.478852 -0.877896 0
    outer loop
      vertex 45.2330 101.0000 0.0000
      vertex 47.4330 102.2000 3.0000
      vertex 45.2330 101.0000 3.0000
    endloop
  endfacet
  facet normal 0.478852 -0.877896 0
    outer loop
      vertex 47.4330 102.2000 3.0000
      vertex 45.2330 101.0000 0.0000
      vertex 47.4330 102.2000 0.0000
    endloop
  endfacet
  facet normal 1 -0 0
    outer loop
      vertex 47.4330 102.2000 3.0000
      vertex 47.4330 106.5000 0.0000
      vertex 47.4330 106.5000 3.0000
    endloop
  endfacet
  facet normal 1 0 0
    outer loop
      vertex 47.4330 106.5000 0.0000
      vertex 47.4330 102.2000 3.0000
      vertex 47.4330 102.2000 0.0000
    endloop
  endfacet
  facet normal 0 1 -0
    outer loop
      vertex 47.4330 106.5000 0.0000
      vertex 37.0330 106.5000 3.0000
      vertex 47.4330 106.5000 3.0000
    endloop
  endfacet
  facet normal 0 1 0
    outer loop
      vertex 37.0330 106.5000 3.0000
      vertex 47.4330 106.5000 0.0000
      vertex 37.0330 106.5000 0.0000
    endloop
  endfacet
  facet normal -1 0 0
    outer loop
      vertex 37.0330 102.2000 0.0000
      vertex 37.0330 106.5000 3.0000
      vertex 37.0330 106.5000 0.0000
    endloop
  endfacet
  facet normal -1 -0 0
    outer loop
      vertex 37.0330 106.5000 3.0000
      vertex 37.0330 102.2000 0.0000
      vertex 37.0330 102.2000 3.0000
    endloop
  endfacet
  facet normal -0.478852 -0.877896 0
    outer loop
      vertex 37.0330 102.2000 0.0000
      vertex 39.2330 101.0000 3.0000
      vertex 37.0330 102.2000 3.0000
    endloop
  endfacet
  facet normal -0.478852 -0.877896 -0
    outer loop
      vertex 39.2330 101.0000 3.0000
      vertex 37.0330 102.2000 0.0000
      vertex 39.2330 101.0000 0.0000
    endloop
  endfacet
  facet normal -1 0 0
    outer loop
      vertex 39.2330 100.0000 0.0000
      vertex 39.2330 101.0000 3.0000
      vertex 39.2330 101.0000 0.0000
    endloop
  endfacet
  facet normal -1 -0 0
    outer loop
      vertex 39.2330 101.0000 3.0000
      vertex 39.2330 100.0000 0.0000
      vertex 39.2330 100.0000 3.0000
    endloop
  endfacet
  facet normal 1 -0 0
    outer loop
      vertex 45.2330 100.0000 3.0000
      vertex 45.2330 101.0000 0.0000
      vertex 45.2330 101.0000 3.0000
    endloop
  endfacet
  facet normal 1 0 0
    outer loop
      vertex 45.2330 101.0000 0.0000
      vertex 45.2330 100.0000 3.0000
      vertex 45.2330 100.0000 0.0000
    endloop
  endfacet
  facet normal 0.478852 -0.877896 0
    outer loop
      vertex 87.4670 101.0000 0.0000
      vertex 89.6670 102.2000 3.0000
      vertex 87.4670 101.0000 3.0000
    endloop
  endfacet
  facet normal 0.478852 -0.877896 0
    outer loop
      vertex 89.6670 102.2000 3.0000
      vertex 87.4670 101.0000 0.0000
      vertex 89.6670 102.2000 0.0000
    endloop
  endfacet
  facet normal 1 -0 0
    outer loop
      vertex 89.6670 102.2000 3.0000
      vertex 89.6670 106.5000 0.0000
      vertex 89.6670 106.5000 3.0000
    endloop
  endfacet
  facet normal 1 0 0
    outer loop
      vertex 89.6670 106.5000 0.0000
      vertex 89.6670 102.2000 3.0000
      vertex 89.6670 102.2000 0.0000
    endloop
  endfacet
  facet normal 0 1 -0
    outer loop
      vertex 89.6670 106.5000 0.0000
      vertex 79.2670 106.5000 3.0000
      vertex 89.6670 106.5000 3.0000
    endloop
  endfacet
  facet normal 0 1 0
    outer loop
      vertex 79.2670 106.5000 3.0000
      vertex 89.6670 106.5000 0.0000
      vertex 79.2670 106.5000 0.0000
    endloop
  endfacet
  facet normal -1 0 0
    outer loop
      vertex 79.2670 102.2000 0.0000
      vertex 79.2670 106.5000 3.0000
      vertex 79.2670 106.5000 0.0000
    endloop
  endfacet
  facet normal -1 -0 0
    outer loop
      vertex 79.2670 106.5000 3.0000
      vertex 79.2670 102.2000 0.0000
      vertex 79.2670 102.2000 3.0000
    endloop
  endfacet
  facet normal -0.478852 -0.877896 0
    outer loop
      vertex 79.2670 102.2000 0.0000
      vertex 81.4670 101.0000 3.0000
      vertex 79.2670 102.2000 3.0000
    endloop
  endfacet
  facet normal -0.478852 -0.877896 -0
    outer loop
      vertex 81.4670 101.0000 3.0000
      vertex 79.2670 102.2000 0.0000
      vertex 81.4670 101.0000 0.0000
    endloop
  endfacet
  facet normal -1 0 0
    outer loop
      vertex 81.4670 100.0000 0.0000
      vertex 81.4670 101.0000 3.0000
      vertex 81.4670 101.0000 0.0000
    endloop
  endfacet
  facet normal -1 -0 0
    outer loop
      vertex 81.4670 101.0000 3.0000
      vertex 81.4670 100.0000 0.0000
      vertex 81.4670 100.0000 3.0000
    endloop
  endfacet
  facet normal 1 -0 0
    outer loop
      vertex 87.4670 100.0000 3.0000
      vertex 87.4670 101.0000 0.0000
      vertex 87.4670 101.0000 3.0000
    endloop
  endfacet
  facet normal 1 0 0
    outer loop
      vertex 87.4670 101.0000 0.0000
      vertex 87.4670 100.0000 3.0000
      vertex 87.4670 100.0000 0.0000
    endloop
  endfacet
  facet normal 0.877896 0.478852 -4.72562e-18
    outer loop
      vertex 2.0810 44.6000 3.0000
      vertex 0.8810 46.8000 0.0000
      vertex 0.8810 46.8000 3.0000
    endloop
  endfacet
  facet normal 0.877896 0.478852 -4.72562e-18
    outer loop
      vertex 0.8810 46.8000 0.0000
      vertex 2.0810 44.6000 3.0000
      vertex 2.0810 44.6000 0.0000
    endloop
  endfacet
  facet normal 0 1 -0
    outer loop
      vertex 6.7000 44.6000 0.0000
      vertex 2.0810 44.6000 3.0000
      vertex 6.7000 44.6000 3.0000
    endloop
  endfacet
  facet normal 0 1 0
    outer loop
      vertex 2.0810 44.6000 3.0000
      vertex 6.7000 44.6000 0.0000
      vertex 2.0810 44.6000 0.0000
    endloop
  endfacet
  facet normal -1 0 0
    outer loop
      vertex 6.7000 44.6000 0.0000
      vertex 6.7000 55.4000 3.0000
      vertex 6.7000 55.4000 0.0000
    endloop
  endfacet
  facet normal -1 -0 0
    outer loop
      vertex 6.7000 55.4000 3.0000
      vertex 6.7000 44.6000 0.0000
      vertex 6.7000 44.6000 3.0000
    endloop
  endfacet
  facet normal 0 -1 0
    outer loop
      vertex 2.0810 55.4000 0.0000
      vertex 6.7000 55.4000 3.0000
      vertex 2.0810 55.4000 3.0000
    endloop
  endfacet
  facet normal 0 -1 -0
    outer loop
      vertex 6.7000 55.4000 3.0000
      vertex 2.0810 55.4000 0.0000
      vertex 6.7000 55.4000 0.0000
    endloop
  endfacet
  facet normal 0.877896 -0.478852 4.72562e-18
    outer loop
      vertex 0.8810 53.2000 3.0000
      vertex 2.0810 55.4000 0.0000
      vertex 2.0810 55.4000 3.0000
    endloop
  endfacet
  facet normal 0.877896 -0.478852 4.72562e-18
    outer loop
      vertex 2.0810 55.4000 0.0000
      vertex 0.8810 53.2000 3.0000
      vertex 0.8810 53.2000 0.0000
    endloop
  endfacet
  facet normal 0 -1 0
    outer loop
      vertex 0.0000 53.2000 0.0000
      vertex 0.8810 53.2000 3.0000
      vertex 0.0000 53.2000 3.0000
    endloop
  endfacet
  facet normal 0 -1 -0
    outer loop
      vertex 0.8810 53.2000 3.0000
      vertex 0.0000 53.2000 0.0000
      vertex 0.8810 53.2000 0.0000
    endloop
  endfacet
  facet normal 0 1 -0
    outer loop
      vertex 0.8810 46.8000 0.0000
      vertex 0.0000 46.8000 3.0000
      vertex 0.8810 46.8000 3.0000
    endloop
  endfacet
  facet normal 0 1 0
    outer loop
      vertex 0.0000 46.8000 3.0000
      vertex 0.8810 46.8000 0.0000
      vertex 0.0000 46.8000 0.0000
    endloop
  endfacet
endsolid OpenSCAD_Model
