solid OpenSCAD_Model
  facet normal 0 0 -1
    outer loop
      vertex 54.6000 0.0000 0.0000
      vertex 29.6000 3.0000 0.0000
      vertex 54.6000 3.0000 0.0000
    endloop
  endfacet
  facet normal -0 0 -1
    outer loop
      vertex 29.6000 3.0000 0.0000
      vertex 2.4000 0.0000 0.0000
      vertex 29.6000 46.2000 0.0000
    endloop
  endfacet
  facet normal 0 0 -1
    outer loop
      vertex 2.4000 0.0000 0.0000
      vertex 29.6000 3.0000 0.0000
      vertex 54.6000 0.0000 0.0000
    endloop
  endfacet
  facet normal 0 0 -1
    outer loop
      vertex 29.6000 46.2000 0.0000
      vertex 54.6000 49.2000 0.0000
      vertex 54.6000 46.2000 0.0000
    endloop
  endfacet
  facet normal 0 0 -1
    outer loop
      vertex 29.6000 46.2000 0.0000
      vertex 2.4000 49.2000 0.0000
      vertex 54.6000 49.2000 0.0000
    endloop
  endfacet
  facet normal 0 0 -1
    outer loop
      vertex 2.4000 49.2000 0.0000
      vertex 29.6000 46.2000 0.0000
      vertex 2.4000 0.0000 0.0000
    endloop
  endfacet
  facet normal 1 0 0
    outer loop
      vertex 54.6000 48.3213 9.0000
      vertex 54.6000 49.2000 18.0000
      vertex 54.6000 48.3213 18.0000
    endloop
  endfacet
  facet normal 1 0 0
    outer loop
      vertex 54.6000 49.2000 18.0000
      vertex 54.6000 48.3213 9.0000
      vertex 54.6000 49.2000 0.0000
    endloop
  endfacet
  facet normal 1 0 0
    outer loop
      vertex 54.6000 46.2000 0.0000
      vertex 54.6000 48.3213 9.0000
      vertex 54.6000 46.2000 9.0000
    endloop
  endfacet
  facet normal 1 0 0
    outer loop
      vertex 54.6000 48.3213 9.0000
      vertex 54.6000 46.2000 0.0000
      vertex 54.6000 49.2000 0.0000
    endloop
  endfacet
  facet normal -1 0 0
    outer loop
      vertex 2.4000 49.2000 0.0000
      vertex 2.4000 41.7000 6.0000
      vertex 2.4000 49.2000 18.0000
    endloop
  endfacet
  facet normal -1 0 0
    outer loop
      vertex 2.4000 49.2000 0.0000
      vertex 2.4000 35.7000 6.0000
      vertex 2.4000 41.7000 6.0000
    endloop
  endfacet
  facet normal -1 0 0
    outer loop
      vertex 2.4000 35.7000 6.0000
      vertex 2.4000 13.5000 6.0000
      vertex 2.4000 35.7000 12.0000
    endloop
  endfacet
  facet normal -1 0 0
    outer loop
      vertex 2.4000 49.2000 0.0000
      vertex 2.4000 13.5000 6.0000
      vertex 2.4000 35.7000 6.0000
    endloop
  endfacet
  facet normal -1 0 0
    outer loop
      vertex 2.4000 0.0000 0.0000
      vertex 2.4000 13.5000 6.0000
      vertex 2.4000 49.2000 0.0000
    endloop
  endfacet
  facet normal -1 -0 0
    outer loop
      vertex 2.4000 7.5000 6.0000
      vertex 2.4000 0.0000 0.0000
      vertex 2.4000 7.5000 12.0000
    endloop
  endfacet
  facet normal -1 -0 0
    outer loop
      vertex 2.4000 13.5000 6.0000
      vertex 2.4000 0.0000 0.0000
      vertex 2.4000 7.5000 6.0000
    endloop
  endfacet
  facet normal -1 0 0
    outer loop
      vertex 2.4000 41.7000 12.0000
      vertex 2.4000 49.2000 18.0000
      vertex 2.4000 41.7000 6.0000
    endloop
  endfacet
  facet normal -1 0 0
    outer loop
      vertex 2.4000 35.7000 12.0000
      vertex 2.4000 49.2000 18.0000
      vertex 2.4000 41.7000 12.0000
    endloop
  endfacet
  facet normal -1 0 0
    outer loop
      vertex 2.4000 13.5000 12.0000
      vertex 2.4000 35.7000 12.0000
      vertex 2.4000 13.5000 6.0000
    endloop
  endfacet
  facet normal -1 0 0
    outer loop
      vertex 2.4000 35.7000 12.0000
      vertex 2.4000 13.5000 12.0000
      vertex 2.4000 49.2000 18.0000
    endloop
  endfacet
  facet normal -1 0 0
    outer loop
      vertex 2.4000 0.0000 18.0000
      vertex 2.4000 13.5000 12.0000
      vertex 2.4000 7.5000 12.0000
    endloop
  endfacet
  facet normal -1 0 0
    outer loop
      vertex 2.4000 13.5000 12.0000
      vertex 2.4000 0.0000 18.0000
      vertex 2.4000 49.2000 18.0000
    endloop
  endfacet
  facet normal -1 0 0
    outer loop
      vertex 2.4000 0.0000 18.0000
      vertex 2.4000 7.5000 12.0000
      vertex 2.4000 0.0000 0.0000
    endloop
  endfacet
  facet normal 0 0 1
    outer loop
      vertex 54.6000 49.2000 18.0000
      vertex 52.4787 46.2000 18.0000
      vertex 54.6000 48.3213 18.0000
    endloop
  endfacet
  facet normal 0 0 1
    outer loop
      vertex 54.6000 49.2000 18.0000
      vertex 29.6000 46.2000 18.0000
      vertex 52.4787 46.2000 18.0000
    endloop
  endfacet
  facet normal 0 0 1
    outer loop
      vertex 29.6000 46.2000 18.0000
      vertex 2.4000 49.2000 18.0000
      vertex 29.6000 3.0000 18.0000
    endloop
  endfacet
  facet normal -0 0 1
    outer loop
      vertex 2.4000 49.2000 18.0000
      vertex 29.6000 46.2000 18.0000
      vertex 54.6000 49.2000 18.0000
    endloop
  endfacet
  facet normal 0 0 1
    outer loop
      vertex 52.4787 3.0000 18.0000
      vertex 54.6000 0.0000 18.0000
      vertex 54.6000 0.8787 18.0000
    endloop
  endfacet
  facet normal -0 0 1
    outer loop
      vertex 29.6000 3.0000 18.0000
      vertex 54.6000 0.0000 18.0000
      vertex 52.4787 3.0000 18.0000
    endloop
  endfacet
  facet normal 0 0 1
    outer loop
      vertex 29.6000 3.0000 18.0000
      vertex 2.4000 0.0000 18.0000
      vertex 54.6000 0.0000 18.0000
    endloop
  endfacet
  facet normal 0 0 1
    outer loop
      vertex 2.4000 0.0000 18.0000
      vertex 29.6000 3.0000 18.0000
      vertex 2.4000 49.2000 18.0000
    endloop
  endfacet
  facet normal 0 -1 0
    outer loop
      vertex 29.6000 46.2000 18.0000
      vertex 52.4787 46.2000 9.0000
      vertex 52.4787 46.2000 18.0000
    endloop
  endfacet
  facet normal 0 -1 0
    outer loop
      vertex 29.6000 46.2000 0.0000
      vertex 52.4787 46.2000 9.0000
      vertex 29.6000 46.2000 18.0000
    endloop
  endfacet
  facet normal 0 -1 0
    outer loop
      vertex 54.6000 46.2000 0.0000
      vertex 52.4787 46.2000 9.0000
      vertex 29.6000 46.2000 0.0000
    endloop
  endfacet
  facet normal 0 -1 0
    outer loop
      vertex 52.4787 46.2000 9.0000
      vertex 54.6000 46.2000 0.0000
      vertex 54.6000 46.2000 9.0000
    endloop
  endfacet
  facet normal 0 1 -0
    outer loop
      vertex 54.6000 49.2000 0.0000
      vertex 2.4000 49.2000 18.0000
      vertex 54.6000 49.2000 18.0000
    endloop
  endfacet
  facet normal 0 1 0
    outer loop
      vertex 2.4000 49.2000 18.0000
      vertex 54.6000 49.2000 0.0000
      vertex 2.4000 49.2000 0.0000
    endloop
  endfacet
  facet normal 1 0 0
    outer loop
      vertex 54.6000 0.8787 18.0000
      vertex 54.6000 0.0000 18.0000
      vertex 54.6000 0.8787 9.0000
    endloop
  endfacet
  facet normal 1 -0 0
    outer loop
      vertex 54.6000 0.8787 9.0000
      vertex 54.6000 3.0000 0.0000
      vertex 54.6000 3.0000 9.0000
    endloop
  endfacet
  facet normal 1 0 0
    outer loop
      vertex 54.6000 0.8787 9.0000
      vertex 54.6000 0.0000 0.0000
      vertex 54.6000 3.0000 0.0000
    endloop
  endfacet
  facet normal 1 0 0
    outer loop
      vertex 54.6000 0.0000 0.0000
      vertex 54.6000 0.8787 9.0000
      vertex 54.6000 0.0000 18.0000
    endloop
  endfacet
  facet normal 0 -1 0
    outer loop
      vertex 2.4000 0.0000 0.0000
      vertex 54.6000 0.0000 18.0000
      vertex 2.4000 0.0000 18.0000
    endloop
  endfacet
  facet normal 0 -1 -0
    outer loop
      vertex 54.6000 0.0000 18.0000
      vertex 2.4000 0.0000 0.0000
      vertex 54.6000 0.0000 0.0000
    endloop
  endfacet
  facet normal 0 1 0
    outer loop
      vertex 54.6000 3.0000 9.0000
      vertex 54.6000 3.0000 0.0000
      vertex 52.4787 3.0000 9.0000
    endloop
  endfacet
  facet normal 0 1 -0
    outer loop
      vertex 52.4787 3.0000 9.0000
      vertex 29.6000 3.0000 18.0000
      vertex 52.4787 3.0000 18.0000
    endloop
  endfacet
  facet normal 0 1 0
    outer loop
      vertex 29.6000 3.0000 0.0000
      vertex 52.4787 3.0000 9.0000
      vertex 54.6000 3.0000 0.0000
    endloop
  endfacet
  facet normal 0 1 0
    outer loop
      vertex 52.4787 3.0000 9.0000
      vertex 29.6000 3.0000 0.0000
      vertex 29.6000 3.0000 18.0000
    endloop
  endfacet
  facet normal 1 -0 0
    outer loop
      vertex 29.6000 3.0000 18.0000
      vertex 29.6000 46.2000 0.0000
      vertex 29.6000 46.2000 18.0000
    endloop
  endfacet
  facet normal 1 0 0
    outer loop
      vertex 29.6000 46.2000 0.0000
      vertex 29.6000 3.0000 18.0000
      vertex 29.6000 3.0000 0.0000
    endloop
  endfacet
  facet normal 0 0 1
    outer loop
      vertex 52.4787 46.2000 9.0000
      vertex 54.6000 46.2000 9.0000
      vertex 54.6000 48.3213 9.0000
    endloop
  endfacet
  facet normal 0.707107 -0.707107 0
    outer loop
      vertex 52.4787 46.2000 9.0000
      vertex 54.6000 48.3213 18.0000
      vertex 52.4787 46.2000 18.0000
    endloop
  endfacet
  facet normal 0.707107 -0.707107 0
    outer loop
      vertex 54.6000 48.3213 18.0000
      vertex 52.4787 46.2000 9.0000
      vertex 54.6000 48.3213 9.0000
    endloop
  endfacet
  facet normal 0.707107 0.707107 1.10899e-17
    outer loop
      vertex 54.6000 0.8787 18.0000
      vertex 52.4787 3.0000 9.0000
      vertex 52.4787 3.0000 18.0000
    endloop
  endfacet
  facet normal 0.707107 0.707107 1.10899e-17
    outer loop
      vertex 52.4787 3.0000 9.0000
      vertex 54.6000 0.8787 18.0000
      vertex 54.6000 0.8787 9.0000
    endloop
  endfacet
  facet normal -0 0 1
    outer loop
      vertex 52.4787 3.0000 9.0000
      vertex 54.6000 0.8787 9.0000
      vertex 54.6000 3.0000 9.0000
    endloop
  endfacet
  facet normal 0 0 -1
    outer loop
      vertex 0.0000 35.7000 6.0000
      vertex 2.4000 41.7000 6.0000
      vertex 2.4000 35.7000 6.0000
    endloop
  endfacet
  facet normal -0 0 -1
    outer loop
      vertex 2.4000 41.7000 6.0000
      vertex 0.0000 35.7000 6.0000
      vertex 0.0000 41.7000 6.0000
    endloop
  endfacet
  facet normal -1 0 0
    outer loop
      vertex 0.0000 35.7000 6.0000
      vertex 0.0000 41.7000 12.0000
      vertex 0.0000 41.7000 6.0000
    endloop
  endfacet
  facet normal -1 -0 0
    outer loop
      vertex 0.0000 41.7000 12.0000
      vertex 0.0000 35.7000 6.0000
      vertex 0.0000 35.7000 12.0000
    endloop
  endfacet
  facet normal -0 0 1
    outer loop
      vertex 0.0000 41.7000 12.0000
      vertex 2.4000 35.7000 12.0000
      vertex 2.4000 41.7000 12.0000
    endloop
  endfacet
  facet normal 0 0 1
    outer loop
      vertex 2.4000 35.7000 12.0000
      vertex 0.0000 41.7000 12.0000
      vertex 0.0000 35.7000 12.0000
    endloop
  endfacet
  facet normal 0 -1 0
    outer loop
      vertex 0.0000 35.7000 6.0000
      vertex 2.4000 35.7000 12.0000
      vertex 0.0000 35.7000 12.0000
    endloop
  endfacet
  facet normal 0 -1 -0
    outer loop
      vertex 2.4000 35.7000 12.0000
      vertex 0.0000 35.7000 6.0000
      vertex 2.4000 35.7000 6.0000
    endloop
  endfacet
  facet normal 0 1 -0
    outer loop
      vertex 2.4000 41.7000 6.0000
      vertex 0.0000 41.7000 12.0000
      vertex 2.4000 41.7000 12.0000
    endloop
  endfacet
  facet normal 0 1 0
    outer loop
      vertex 0.0000 41.7000 12.0000
      vertex 2.4000 41.7000 6.0000
      vertex 0.0000 41.7000 6.0000
    endloop
  endfacet
  facet normal 0 0 -1
    outer loop
      vertex 0.0000 7.5000 6.0000
      vertex 2.4000 13.5000 6.0000
      vertex 2.4000 7.5000 6.0000
    endloop
  endfacet
  facet normal -0 0 -1
    outer loop
      vertex 2.4000 13.5000 6.0000
      vertex 0.0000 7.5000 6.0000
      vertex 0.0000 13.5000 6.0000
    endloop
  endfacet
  facet normal -1 0 0
    outer loop
      vertex 0.0000 7.5000 6.0000
      vertex 0.0000 13.5000 12.0000
      vertex 0.0000 13.5000 6.0000
    endloop
  endfacet
  facet normal -1 -0 0
    outer loop
      vertex 0.0000 13.5000 12.0000
      vertex 0.0000 7.5000 6.0000
      vertex 0.0000 7.5000 12.0000
    endloop
  endfacet
  facet normal -0 0 1
    outer loop
      vertex 0.0000 13.5000 12.0000
      vertex 2.4000 7.5000 12.0000
      vertex 2.4000 13.5000 12.0000
    endloop
  endfacet
  facet normal 0 0 1
    outer loop
      vertex 2.4000 7.5000 12.0000
      vertex 0.0000 13.5000 12.0000
      vertex 0.0000 7.5000 12.0000
    endloop
  endfacet
  facet normal 0 -1 0
    outer loop
      vertex 0.0000 7.5000 6.0000
      vertex 2.4000 7.5000 12.0000
      vertex 0.0000 7.5000 12.0000
    endloop
  endfacet
  facet normal 0 -1 -0
    outer loop
      vertex 2.4000 7.5000 12.0000
      vertex 0.0000 7.5000 6.0000
      vertex 2.4000 7.5000 6.0000
    endloop
  endfacet
  facet normal 0 1 -0
    outer loop
      vertex 2.4000 13.5000 6.0000
      vertex 0.0000 13.5000 12.0000
      vertex 2.4000 13.5000 12.0000
    endloop
  endfacet
  facet normal 0 1 0
    outer loop
      vertex 0.0000 13.5000 12.0000
      vertex 2.4000 13.5000 6.0000
      vertex 0.0000 13.5000 6.0000
    endloop
  endfacet
endsolid OpenSCAD_Model
