solid OpenSCAD_Model
  facet normal 0.321487 -0.946914 0
    outer loop
      vertex 9.73528 -42.9637 118.55
      vertex 10.2307 -42.7955 120.15
      vertex 9.73528 -42.9637 120.15
    endloop
  endfacet
  facet normal 0.321487 -0.946914 0
    outer loop
      vertex 10.2307 -42.7955 120.15
      vertex 9.73528 -42.9637 118.55
      vertex 10.2307 -42.7955 118.55
    endloop
  endfacet
  facet normal 0.980779 -0.195124 1.38733e-18
    outer loop
      vertex 12.5637 -40.1353 120.15
      vertex 12.6658 -39.6221 118.55
      vertex 12.6658 -39.6221 120.15
    endloop
  endfacet
  facet normal 0.980779 -0.195124 1.38733e-18
    outer loop
      vertex 12.6658 -39.6221 118.55
      vertex 12.5637 -40.1353 120.15
      vertex 12.5637 -40.1353 118.55
    endloop
  endfacet
  facet normal 0.997861 -0.0653646 -2.00566e-18
    outer loop
      vertex 12.6658 -39.6221 120.15
      vertex 12.7 -39.1 118.55
      vertex 12.7 -39.1 120.15
    endloop
  endfacet
  facet normal 0.997861 -0.0653646 -2.00566e-18
    outer loop
      vertex 12.7 -39.1 118.55
      vertex 12.6658 -39.6221 120.15
      vertex 12.6658 -39.6221 118.55
    endloop
  endfacet
  facet normal 0.94691 -0.321498 -1.54776e-18
    outer loop
      vertex 12.3955 -40.6307 120.15
      vertex 12.5637 -40.1353 118.55
      vertex 12.5637 -40.1353 120.15
    endloop
  endfacet
  facet normal 0.94691 -0.321498 -1.54776e-18
    outer loop
      vertex 12.5637 -40.1353 118.55
      vertex 12.3955 -40.6307 120.15
      vertex 12.3955 -40.6307 118.55
    endloop
  endfacet
  facet normal 0.442238 -0.896898 0
    outer loop
      vertex 10.2307 -42.7955 118.55
      vertex 10.7 -42.5641 120.15
      vertex 10.2307 -42.7955 120.15
    endloop
  endfacet
  facet normal 0.442238 -0.896898 0
    outer loop
      vertex 10.7 -42.5641 120.15
      vertex 10.2307 -42.7955 118.55
      vertex 10.7 -42.5641 118.55
    endloop
  endfacet
  facet normal -0.997859 0.0654027 3.11402e-19
    outer loop
      vertex 4.7 -39.1 118.55
      vertex 4.73422 -38.5779 120.15
      vertex 4.73422 -38.5779 118.55
    endloop
  endfacet
  facet normal -0.997859 0.0654027 3.11402e-19
    outer loop
      vertex 4.73422 -38.5779 120.15
      vertex 4.7 -39.1 118.55
      vertex 4.7 -39.1 120.15
    endloop
  endfacet
  facet normal 0.896898 -0.442238 -6.61095e-18
    outer loop
      vertex 12.1641 -41.1 120.15
      vertex 12.3955 -40.6307 118.55
      vertex 12.3955 -40.6307 120.15
    endloop
  endfacet
  facet normal 0.896898 -0.442238 -6.61095e-18
    outer loop
      vertex 12.3955 -40.6307 118.55
      vertex 12.1641 -41.1 120.15
      vertex 12.1641 -41.1 118.55
    endloop
  endfacet
  facet normal 0.831432 -0.555626 1.30949e-17
    outer loop
      vertex 11.8734 -41.535 120.15
      vertex 12.1641 -41.1 118.55
      vertex 12.1641 -41.1 120.15
    endloop
  endfacet
  facet normal 0.831432 -0.555626 1.30949e-17
    outer loop
      vertex 12.1641 -41.1 118.55
      vertex 11.8734 -41.535 120.15
      vertex 11.8734 -41.535 118.55
    endloop
  endfacet
  facet normal -0.659362 -0.751826 0
    outer loop
      vertex 5.87157 -41.9284 118.55
      vertex 6.26495 -42.2734 120.15
      vertex 5.87157 -41.9284 120.15
    endloop
  endfacet
  facet normal -0.659362 -0.751826 -0
    outer loop
      vertex 6.26495 -42.2734 120.15
      vertex 5.87157 -41.9284 118.55
      vertex 6.26495 -42.2734 118.55
    endloop
  endfacet
  facet normal 0.751842 -0.659343 -3.18481e-18
    outer loop
      vertex 11.5284 -41.9284 120.15
      vertex 11.8734 -41.535 118.55
      vertex 11.8734 -41.535 120.15
    endloop
  endfacet
  facet normal 0.751842 -0.659343 -3.18481e-18
    outer loop
      vertex 11.8734 -41.535 118.55
      vertex 11.5284 -41.9284 120.15
      vertex 11.5284 -41.9284 118.55
    endloop
  endfacet
  facet normal -0.980786 -0.195087 8.37614e-19
    outer loop
      vertex 4.8363 -40.1353 118.55
      vertex 4.73422 -39.6221 120.15
      vertex 4.73422 -39.6221 118.55
    endloop
  endfacet
  facet normal -0.980786 -0.195087 8.37614e-19
    outer loop
      vertex 4.73422 -39.6221 120.15
      vertex 4.8363 -40.1353 118.55
      vertex 4.8363 -40.1353 120.15
    endloop
  endfacet
  facet normal -0.555582 0.831462 0
    outer loop
      vertex 6.7 -35.6359 118.55
      vertex 6.26495 -35.9266 120.15
      vertex 6.7 -35.6359 120.15
    endloop
  endfacet
  facet normal -0.555582 0.831462 0
    outer loop
      vertex 6.26495 -35.9266 120.15
      vertex 6.7 -35.6359 118.55
      vertex 6.26495 -35.9266 118.55
    endloop
  endfacet
  facet normal -0.997859 -0.0654027 -3.11402e-19
    outer loop
      vertex 4.73422 -39.6221 118.55
      vertex 4.7 -39.1 120.15
      vertex 4.7 -39.1 118.55
    endloop
  endfacet
  facet normal -0.997859 -0.0654027 -3.11402e-19
    outer loop
      vertex 4.7 -39.1 120.15
      vertex 4.73422 -39.6221 118.55
      vertex 4.73422 -39.6221 120.15
    endloop
  endfacet
  facet normal -0.751861 0.659321 -1.5963e-17
    outer loop
      vertex 5.52659 -36.665 118.55
      vertex 5.87157 -36.2716 120.15
      vertex 5.87157 -36.2716 118.55
    endloop
  endfacet
  facet normal -0.751861 0.659321 -1.5963e-17
    outer loop
      vertex 5.87157 -36.2716 120.15
      vertex 5.52659 -36.665 118.55
      vertex 5.52659 -36.665 120.15
    endloop
  endfacet
  facet normal 0.195131 0.980777 -0
    outer loop
      vertex 9.73528 -35.2363 118.55
      vertex 9.2221 -35.1342 120.15
      vertex 9.73528 -35.2363 120.15
    endloop
  endfacet
  facet normal 0.195131 0.980777 0
    outer loop
      vertex 9.2221 -35.1342 120.15
      vertex 9.73528 -35.2363 118.55
      vertex 9.2221 -35.1342 118.55
    endloop
  endfacet
  facet normal -0.44226 -0.896887 0
    outer loop
      vertex 6.7 -42.5641 118.55
      vertex 7.16927 -42.7955 120.15
      vertex 6.7 -42.5641 120.15
    endloop
  endfacet
  facet normal -0.44226 -0.896887 -0
    outer loop
      vertex 7.16927 -42.7955 120.15
      vertex 6.7 -42.5641 118.55
      vertex 7.16927 -42.7955 118.55
    endloop
  endfacet
  facet normal -0.321469 0.94692 0
    outer loop
      vertex 7.66472 -35.2363 118.55
      vertex 7.16927 -35.4045 120.15
      vertex 7.66472 -35.2363 120.15
    endloop
  endfacet
  facet normal -0.321469 0.94692 0
    outer loop
      vertex 7.16927 -35.4045 120.15
      vertex 7.66472 -35.2363 118.55
      vertex 7.16927 -35.4045 118.55
    endloop
  endfacet
  facet normal 0.980779 0.195124 -1.38733e-18
    outer loop
      vertex 12.6658 -38.5779 120.15
      vertex 12.5637 -38.0647 118.55
      vertex 12.5637 -38.0647 120.15
    endloop
  endfacet
  facet normal 0.980779 0.195124 -1.38733e-18
    outer loop
      vertex 12.5637 -38.0647 118.55
      vertex 12.6658 -38.5779 120.15
      vertex 12.6658 -38.5779 118.55
    endloop
  endfacet
  facet normal -0.751861 -0.659321 5.52355e-18
    outer loop
      vertex 5.87157 -41.9284 118.55
      vertex 5.52659 -41.535 120.15
      vertex 5.52659 -41.535 118.55
    endloop
  endfacet
  facet normal -0.751861 -0.659321 5.52355e-18
    outer loop
      vertex 5.52659 -41.535 120.15
      vertex 5.87157 -41.9284 118.55
      vertex 5.87157 -41.9284 120.15
    endloop
  endfacet
  facet normal 0.831432 0.555626 6.16232e-18
    outer loop
      vertex 12.1641 -37.1 120.15
      vertex 11.8734 -36.665 118.55
      vertex 11.8734 -36.665 120.15
    endloop
  endfacet
  facet normal 0.831432 0.555626 6.16232e-18
    outer loop
      vertex 11.8734 -36.665 118.55
      vertex 12.1641 -37.1 120.15
      vertex 12.1641 -37.1 118.55
    endloop
  endfacet
  facet normal -0.321469 -0.94692 0
    outer loop
      vertex 7.16927 -42.7955 118.55
      vertex 7.66472 -42.9637 120.15
      vertex 7.16927 -42.7955 120.15
    endloop
  endfacet
  facet normal -0.321469 -0.94692 -0
    outer loop
      vertex 7.66472 -42.9637 120.15
      vertex 7.16927 -42.7955 118.55
      vertex 7.66472 -42.9637 118.55
    endloop
  endfacet
  facet normal -0.980786 0.195087 -8.37614e-19
    outer loop
      vertex 4.73422 -38.5779 118.55
      vertex 4.8363 -38.0647 120.15
      vertex 4.8363 -38.0647 118.55
    endloop
  endfacet
  facet normal -0.980786 0.195087 -8.37614e-19
    outer loop
      vertex 4.8363 -38.0647 120.15
      vertex 4.73422 -38.5779 118.55
      vertex 4.73422 -38.5779 120.15
    endloop
  endfacet
  facet normal -0.195131 0.980777 0
    outer loop
      vertex 8.1779 -35.1342 118.55
      vertex 7.66472 -35.2363 120.15
      vertex 8.1779 -35.1342 120.15
    endloop
  endfacet
  facet normal -0.195131 0.980777 0
    outer loop
      vertex 7.66472 -35.2363 120.15
      vertex 8.1779 -35.1342 118.55
      vertex 7.66472 -35.2363 118.55
    endloop
  endfacet
  facet normal 0.555626 -0.831432 0
    outer loop
      vertex 10.7 -42.5641 118.55
      vertex 11.135 -42.2734 120.15
      vertex 10.7 -42.5641 120.15
    endloop
  endfacet
  facet normal 0.555626 -0.831432 0
    outer loop
      vertex 11.135 -42.2734 120.15
      vertex 10.7 -42.5641 118.55
      vertex 11.135 -42.2734 118.55
    endloop
  endfacet
  facet normal 0.94691 0.321498 -4.15165e-19
    outer loop
      vertex 12.5637 -38.0647 120.15
      vertex 12.3955 -37.5693 118.55
      vertex 12.3955 -37.5693 120.15
    endloop
  endfacet
  facet normal 0.94691 0.321498 -4.15165e-19
    outer loop
      vertex 12.3955 -37.5693 118.55
      vertex 12.5637 -38.0647 120.15
      vertex 12.5637 -38.0647 118.55
    endloop
  endfacet
  facet normal 0.0653646 0.997861 -0
    outer loop
      vertex 9.2221 -35.1342 118.55
      vertex 8.7 -35.1 120.15
      vertex 9.2221 -35.1342 120.15
    endloop
  endfacet
  facet normal 0.0653646 0.997861 0
    outer loop
      vertex 8.7 -35.1 120.15
      vertex 9.2221 -35.1342 118.55
      vertex 8.7 -35.1 118.55
    endloop
  endfacet
  facet normal 0.751842 0.659343 1.37938e-17
    outer loop
      vertex 11.8734 -36.665 120.15
      vertex 11.5284 -36.2716 118.55
      vertex 11.5284 -36.2716 120.15
    endloop
  endfacet
  facet normal 0.751842 0.659343 1.37938e-17
    outer loop
      vertex 11.5284 -36.2716 118.55
      vertex 11.8734 -36.665 120.15
      vertex 11.8734 -36.665 118.55
    endloop
  endfacet
  facet normal -0.0653646 -0.997861 0
    outer loop
      vertex 8.1779 -43.0658 118.55
      vertex 8.7 -43.1 120.15
      vertex 8.1779 -43.0658 120.15
    endloop
  endfacet
  facet normal -0.0653646 -0.997861 -0
    outer loop
      vertex 8.7 -43.1 120.15
      vertex 8.1779 -43.0658 118.55
      vertex 8.7 -43.1 118.55
    endloop
  endfacet
  facet normal 0.555626 0.831432 -0
    outer loop
      vertex 11.135 -35.9266 118.55
      vertex 10.7 -35.6359 120.15
      vertex 11.135 -35.9266 120.15
    endloop
  endfacet
  facet normal 0.555626 0.831432 0
    outer loop
      vertex 10.7 -35.6359 120.15
      vertex 11.135 -35.9266 118.55
      vertex 10.7 -35.6359 118.55
    endloop
  endfacet
  facet normal -0.659362 0.751826 0
    outer loop
      vertex 6.26495 -35.9266 118.55
      vertex 5.87157 -36.2716 120.15
      vertex 6.26495 -35.9266 120.15
    endloop
  endfacet
  facet normal -0.659362 0.751826 0
    outer loop
      vertex 5.87157 -36.2716 120.15
      vertex 6.26495 -35.9266 118.55
      vertex 5.87157 -36.2716 118.55
    endloop
  endfacet
  facet normal 0.659343 -0.751842 0
    outer loop
      vertex 11.135 -42.2734 118.55
      vertex 11.5284 -41.9284 120.15
      vertex 11.135 -42.2734 120.15
    endloop
  endfacet
  facet normal 0.659343 -0.751842 0
    outer loop
      vertex 11.5284 -41.9284 120.15
      vertex 11.135 -42.2734 118.55
      vertex 11.5284 -41.9284 118.55
    endloop
  endfacet
  facet normal -0.896883 -0.442268 9.58439e-20
    outer loop
      vertex 5.2359 -41.1 118.55
      vertex 5.00448 -40.6307 120.15
      vertex 5.00448 -40.6307 118.55
    endloop
  endfacet
  facet normal -0.896883 -0.442268 9.58439e-20
    outer loop
      vertex 5.00448 -40.6307 120.15
      vertex 5.2359 -41.1 118.55
      vertex 5.2359 -41.1 120.15
    endloop
  endfacet
  facet normal 0.0653646 -0.997861 0
    outer loop
      vertex 8.7 -43.1 118.55
      vertex 9.2221 -43.0658 120.15
      vertex 8.7 -43.1 120.15
    endloop
  endfacet
  facet normal 0.0653646 -0.997861 0
    outer loop
      vertex 9.2221 -43.0658 120.15
      vertex 8.7 -43.1 118.55
      vertex 9.2221 -43.0658 118.55
    endloop
  endfacet
  facet normal 0.997861 0.0653646 2.00566e-18
    outer loop
      vertex 12.7 -39.1 120.15
      vertex 12.6658 -38.5779 118.55
      vertex 12.6658 -38.5779 120.15
    endloop
  endfacet
  facet normal 0.997861 0.0653646 2.00566e-18
    outer loop
      vertex 12.6658 -38.5779 118.55
      vertex 12.7 -39.1 120.15
      vertex 12.7 -39.1 118.55
    endloop
  endfacet
  facet normal -0.195131 -0.980777 0
    outer loop
      vertex 7.66472 -42.9637 118.55
      vertex 8.1779 -43.0658 120.15
      vertex 7.66472 -42.9637 120.15
    endloop
  endfacet
  facet normal -0.195131 -0.980777 -0
    outer loop
      vertex 8.1779 -43.0658 120.15
      vertex 7.66472 -42.9637 118.55
      vertex 8.1779 -43.0658 118.55
    endloop
  endfacet
  facet normal -0.555582 -0.831462 0
    outer loop
      vertex 6.26495 -42.2734 118.55
      vertex 6.7 -42.5641 120.15
      vertex 6.26495 -42.2734 120.15
    endloop
  endfacet
  facet normal -0.555582 -0.831462 -0
    outer loop
      vertex 6.7 -42.5641 120.15
      vertex 6.26495 -42.2734 118.55
      vertex 6.7 -42.5641 118.55
    endloop
  endfacet
  facet normal -0.0653646 0.997861 0
    outer loop
      vertex 8.7 -35.1 118.55
      vertex 8.1779 -35.1342 120.15
      vertex 8.7 -35.1 120.15
    endloop
  endfacet
  facet normal -0.0653646 0.997861 0
    outer loop
      vertex 8.1779 -35.1342 120.15
      vertex 8.7 -35.1 118.55
      vertex 8.1779 -35.1342 118.55
    endloop
  endfacet
  facet normal 0.896898 0.442238 -2.06187e-18
    outer loop
      vertex 12.3955 -37.5693 120.15
      vertex 12.1641 -37.1 118.55
      vertex 12.1641 -37.1 120.15
    endloop
  endfacet
  facet normal 0.896898 0.442238 -2.06187e-18
    outer loop
      vertex 12.1641 -37.1 118.55
      vertex 12.3955 -37.5693 120.15
      vertex 12.3955 -37.5693 118.55
    endloop
  endfacet
  facet normal -0.946922 -0.321464 -7.3689e-18
    outer loop
      vertex 5.00448 -40.6307 118.55
      vertex 4.8363 -40.1353 120.15
      vertex 4.8363 -40.1353 118.55
    endloop
  endfacet
  facet normal -0.946922 -0.321464 -7.3689e-18
    outer loop
      vertex 4.8363 -40.1353 120.15
      vertex 5.00448 -40.6307 118.55
      vertex 5.00448 -40.6307 120.15
    endloop
  endfacet
  facet normal -0.946922 0.321464 -7.41692e-18
    outer loop
      vertex 4.8363 -38.0647 118.55
      vertex 5.00448 -37.5693 120.15
      vertex 5.00448 -37.5693 118.55
    endloop
  endfacet
  facet normal -0.946922 0.321464 -7.41692e-18
    outer loop
      vertex 5.00448 -37.5693 120.15
      vertex 4.8363 -38.0647 118.55
      vertex 4.8363 -38.0647 120.15
    endloop
  endfacet
  facet normal 0 0 -1
    outer loop
      vertex 10.4 -39.1 118.55
      vertex 12.7 -39.1 118.55
      vertex 12.6658 -39.6221 118.55
    endloop
  endfacet
  facet normal 0 0 -1
    outer loop
      vertex 10.3629 -39.4534 118.55
      vertex 12.6658 -39.6221 118.55
      vertex 12.5637 -40.1353 118.55
    endloop
  endfacet
  facet normal 0 0 -1
    outer loop
      vertex 12.7 -39.1 118.55
      vertex 10.4 -39.1 118.55
      vertex 12.6658 -38.5779 118.55
    endloop
  endfacet
  facet normal 0 0 -1
    outer loop
      vertex 10.253 -39.7915 118.55
      vertex 12.5637 -40.1353 118.55
      vertex 12.3955 -40.6307 118.55
    endloop
  endfacet
  facet normal 0 0 -1
    outer loop
      vertex 10.3629 -38.7466 118.55
      vertex 12.6658 -38.5779 118.55
      vertex 10.4 -39.1 118.55
    endloop
  endfacet
  facet normal 0 0 -1
    outer loop
      vertex 10.253 -39.7915 118.55
      vertex 12.3955 -40.6307 118.55
      vertex 12.1641 -41.1 118.55
    endloop
  endfacet
  facet normal -0 0 -1
    outer loop
      vertex 12.6658 -38.5779 118.55
      vertex 10.3629 -38.7466 118.55
      vertex 12.5637 -38.0647 118.55
    endloop
  endfacet
  facet normal 0 0 -1
    outer loop
      vertex 10.0753 -40.0992 118.55
      vertex 12.1641 -41.1 118.55
      vertex 11.8734 -41.535 118.55
    endloop
  endfacet
  facet normal 0 0 -1
    outer loop
      vertex 10.253 -38.4085 118.55
      vertex 12.5637 -38.0647 118.55
      vertex 10.3629 -38.7466 118.55
    endloop
  endfacet
  facet normal 0 0 -1
    outer loop
      vertex 10.0753 -40.0992 118.55
      vertex 11.8734 -41.535 118.55
      vertex 11.5284 -41.9284 118.55
    endloop
  endfacet
  facet normal -0 0 -1
    outer loop
      vertex 12.5637 -38.0647 118.55
      vertex 10.253 -38.4085 118.55
      vertex 12.3955 -37.5693 118.55
    endloop
  endfacet
  facet normal 0 0 -1
    outer loop
      vertex 9.83752 -40.3633 118.55
      vertex 11.5284 -41.9284 118.55
      vertex 11.135 -42.2734 118.55
    endloop
  endfacet
  facet normal -0 0 -1
    outer loop
      vertex 12.3955 -37.5693 118.55
      vertex 10.253 -38.4085 118.55
      vertex 12.1641 -37.1 118.55
    endloop
  endfacet
  facet normal 0 0 -1
    outer loop
      vertex 9.55 -40.5722 118.55
      vertex 11.135 -42.2734 118.55
      vertex 10.7 -42.5641 118.55
    endloop
  endfacet
  facet normal 0 0 -1
    outer loop
      vertex 10.0753 -38.1008 118.55
      vertex 12.1641 -37.1 118.55
      vertex 10.253 -38.4085 118.55
    endloop
  endfacet
  facet normal -0 0 -1
    outer loop
      vertex 12.1641 -37.1 118.55
      vertex 10.0753 -38.1008 118.55
      vertex 11.8734 -36.665 118.55
    endloop
  endfacet
  facet normal 0 0 -1
    outer loop
      vertex 12.6658 -39.6221 118.55
      vertex 10.3629 -39.4534 118.55
      vertex 10.4 -39.1 118.55
    endloop
  endfacet
  facet normal 0 0 -1
    outer loop
      vertex 12.5637 -40.1353 118.55
      vertex 10.253 -39.7915 118.55
      vertex 10.3629 -39.4534 118.55
    endloop
  endfacet
  facet normal 0 0 -1
    outer loop
      vertex 9.55 -40.5722 118.55
      vertex 10.7 -42.5641 118.55
      vertex 10.2307 -42.7955 118.55
    endloop
  endfacet
  facet normal 0 0 -1
    outer loop
      vertex 12.1641 -41.1 118.55
      vertex 10.0753 -40.0992 118.55
      vertex 10.253 -39.7915 118.55
    endloop
  endfacet
  facet normal 0 0 -1
    outer loop
      vertex 11.5284 -41.9284 118.55
      vertex 9.83752 -40.3633 118.55
      vertex 10.0753 -40.0992 118.55
    endloop
  endfacet
  facet normal 0 0 -1
    outer loop
      vertex 9.22533 -40.7168 118.55
      vertex 10.2307 -42.7955 118.55
      vertex 9.73528 -42.9637 118.55
    endloop
  endfacet
  facet normal 0 0 -1
    outer loop
      vertex 11.135 -42.2734 118.55
      vertex 9.55 -40.5722 118.55
      vertex 9.83752 -40.3633 118.55
    endloop
  endfacet
  facet normal 0 0 -1
    outer loop
      vertex 10.2307 -42.7955 118.55
      vertex 9.22533 -40.7168 118.55
      vertex 9.55 -40.5722 118.55
    endloop
  endfacet
  facet normal 0 0 -1
    outer loop
      vertex 8.8777 -40.7907 118.55
      vertex 9.73528 -42.9637 118.55
      vertex 9.2221 -43.0658 118.55
    endloop
  endfacet
  facet normal 0 0 -1
    outer loop
      vertex 9.73528 -42.9637 118.55
      vertex 8.8777 -40.7907 118.55
      vertex 9.22533 -40.7168 118.55
    endloop
  endfacet
  facet normal 0 0 -1
    outer loop
      vertex 8.7 -43.1 118.55
      vertex 8.8777 -40.7907 118.55
      vertex 9.2221 -43.0658 118.55
    endloop
  endfacet
  facet normal 0 0 -1
    outer loop
      vertex 8.7 -43.1 118.55
      vertex 8.5223 -40.7907 118.55
      vertex 8.8777 -40.7907 118.55
    endloop
  endfacet
  facet normal 0 0 -1
    outer loop
      vertex 8.1779 -43.0658 118.55
      vertex 8.5223 -40.7907 118.55
      vertex 8.7 -43.1 118.55
    endloop
  endfacet
  facet normal 0 0 -1
    outer loop
      vertex 7.66472 -42.9637 118.55
      vertex 8.5223 -40.7907 118.55
      vertex 8.1779 -43.0658 118.55
    endloop
  endfacet
  facet normal -0 0 -1
    outer loop
      vertex 8.5223 -40.7907 118.55
      vertex 7.66472 -42.9637 118.55
      vertex 8.17467 -40.7168 118.55
    endloop
  endfacet
  facet normal 0 0 -1
    outer loop
      vertex 7.16927 -42.7955 118.55
      vertex 8.17467 -40.7168 118.55
      vertex 7.66472 -42.9637 118.55
    endloop
  endfacet
  facet normal -0 0 -1
    outer loop
      vertex 8.17467 -40.7168 118.55
      vertex 7.16927 -42.7955 118.55
      vertex 7.85 -40.5722 118.55
    endloop
  endfacet
  facet normal 0 0 -1
    outer loop
      vertex 6.7 -42.5641 118.55
      vertex 7.85 -40.5722 118.55
      vertex 7.16927 -42.7955 118.55
    endloop
  endfacet
  facet normal 0 0 -1
    outer loop
      vertex 6.26495 -42.2734 118.55
      vertex 7.85 -40.5722 118.55
      vertex 6.7 -42.5641 118.55
    endloop
  endfacet
  facet normal -0 0 -1
    outer loop
      vertex 7.85 -40.5722 118.55
      vertex 6.26495 -42.2734 118.55
      vertex 7.56248 -40.3633 118.55
    endloop
  endfacet
  facet normal 0 0 -1
    outer loop
      vertex 5.87157 -41.9284 118.55
      vertex 7.56248 -40.3633 118.55
      vertex 6.26495 -42.2734 118.55
    endloop
  endfacet
  facet normal -0 0 -1
    outer loop
      vertex 7.56248 -40.3633 118.55
      vertex 5.87157 -41.9284 118.55
      vertex 7.32467 -40.0992 118.55
    endloop
  endfacet
  facet normal 0 0 -1
    outer loop
      vertex 5.52659 -41.535 118.55
      vertex 7.32467 -40.0992 118.55
      vertex 5.87157 -41.9284 118.55
    endloop
  endfacet
  facet normal -0 0 -1
    outer loop
      vertex 11.8734 -36.665 118.55
      vertex 10.0753 -38.1008 118.55
      vertex 11.5284 -36.2716 118.55
    endloop
  endfacet
  facet normal 0 0 -1
    outer loop
      vertex 9.83752 -37.8367 118.55
      vertex 11.5284 -36.2716 118.55
      vertex 10.0753 -38.1008 118.55
    endloop
  endfacet
  facet normal -0 0 -1
    outer loop
      vertex 11.5284 -36.2716 118.55
      vertex 9.83752 -37.8367 118.55
      vertex 11.135 -35.9266 118.55
    endloop
  endfacet
  facet normal 0 0 -1
    outer loop
      vertex 9.55 -37.6278 118.55
      vertex 11.135 -35.9266 118.55
      vertex 9.83752 -37.8367 118.55
    endloop
  endfacet
  facet normal -0 0 -1
    outer loop
      vertex 11.135 -35.9266 118.55
      vertex 9.55 -37.6278 118.55
      vertex 10.7 -35.6359 118.55
    endloop
  endfacet
  facet normal -0 0 -1
    outer loop
      vertex 10.7 -35.6359 118.55
      vertex 9.55 -37.6278 118.55
      vertex 10.2307 -35.4045 118.55
    endloop
  endfacet
  facet normal 0 0 -1
    outer loop
      vertex 9.22533 -37.4832 118.55
      vertex 10.2307 -35.4045 118.55
      vertex 9.55 -37.6278 118.55
    endloop
  endfacet
  facet normal -0 0 -1
    outer loop
      vertex 10.2307 -35.4045 118.55
      vertex 9.22533 -37.4832 118.55
      vertex 9.73528 -35.2363 118.55
    endloop
  endfacet
  facet normal 0 0 -1
    outer loop
      vertex 8.8777 -37.4093 118.55
      vertex 9.73528 -35.2363 118.55
      vertex 9.22533 -37.4832 118.55
    endloop
  endfacet
  facet normal -0 0 -1
    outer loop
      vertex 9.73528 -35.2363 118.55
      vertex 8.8777 -37.4093 118.55
      vertex 9.2221 -35.1342 118.55
    endloop
  endfacet
  facet normal 0 0 -1
    outer loop
      vertex 8.8777 -37.4093 118.55
      vertex 8.7 -35.1 118.55
      vertex 9.2221 -35.1342 118.55
    endloop
  endfacet
  facet normal 0 0 -1
    outer loop
      vertex 8.5223 -37.4093 118.55
      vertex 8.7 -35.1 118.55
      vertex 8.8777 -37.4093 118.55
    endloop
  endfacet
  facet normal 0 0 -1
    outer loop
      vertex 8.5223 -37.4093 118.55
      vertex 8.1779 -35.1342 118.55
      vertex 8.7 -35.1 118.55
    endloop
  endfacet
  facet normal 0 0 -1
    outer loop
      vertex 7.66472 -35.2363 118.55
      vertex 8.5223 -37.4093 118.55
      vertex 8.17467 -37.4832 118.55
    endloop
  endfacet
  facet normal 0 0 -1
    outer loop
      vertex 7.16927 -35.4045 118.55
      vertex 8.17467 -37.4832 118.55
      vertex 7.85 -37.6278 118.55
    endloop
  endfacet
  facet normal 0 0 -1
    outer loop
      vertex 8.5223 -37.4093 118.55
      vertex 7.66472 -35.2363 118.55
      vertex 8.1779 -35.1342 118.55
    endloop
  endfacet
  facet normal 0 0 -1
    outer loop
      vertex 6.26495 -35.9266 118.55
      vertex 7.85 -37.6278 118.55
      vertex 7.56248 -37.8367 118.55
    endloop
  endfacet
  facet normal 0 0 -1
    outer loop
      vertex 5.87157 -36.2716 118.55
      vertex 7.56248 -37.8367 118.55
      vertex 7.32467 -38.1008 118.55
    endloop
  endfacet
  facet normal 0 0 -1
    outer loop
      vertex 8.17467 -37.4832 118.55
      vertex 7.16927 -35.4045 118.55
      vertex 7.66472 -35.2363 118.55
    endloop
  endfacet
  facet normal 0 0 -1
    outer loop
      vertex 5.2359 -37.1 118.55
      vertex 7.32467 -38.1008 118.55
      vertex 7.14697 -38.4085 118.55
    endloop
  endfacet
  facet normal 0 0 -1
    outer loop
      vertex 4.8363 -38.0647 118.55
      vertex 7.14697 -38.4085 118.55
      vertex 7.03715 -38.7466 118.55
    endloop
  endfacet
  facet normal 0 0 -1
    outer loop
      vertex 4.73422 -38.5779 118.55
      vertex 7.03715 -38.7466 118.55
      vertex 7 -39.1 118.55
    endloop
  endfacet
  facet normal 0 0 -1
    outer loop
      vertex 5.2359 -41.1 118.55
      vertex 7.32467 -40.0992 118.55
      vertex 5.52659 -41.535 118.55
    endloop
  endfacet
  facet normal 0 0 -1
    outer loop
      vertex 7.85 -37.6278 118.55
      vertex 6.7 -35.6359 118.55
      vertex 7.16927 -35.4045 118.55
    endloop
  endfacet
  facet normal -0 0 -1
    outer loop
      vertex 7.32467 -40.0992 118.55
      vertex 5.2359 -41.1 118.55
      vertex 7.14697 -39.7915 118.55
    endloop
  endfacet
  facet normal 0 0 -1
    outer loop
      vertex 7.85 -37.6278 118.55
      vertex 6.26495 -35.9266 118.55
      vertex 6.7 -35.6359 118.55
    endloop
  endfacet
  facet normal 0 0 -1
    outer loop
      vertex 5.00448 -40.6307 118.55
      vertex 7.14697 -39.7915 118.55
      vertex 5.2359 -41.1 118.55
    endloop
  endfacet
  facet normal 0 0 -1
    outer loop
      vertex 7.56248 -37.8367 118.55
      vertex 5.87157 -36.2716 118.55
      vertex 6.26495 -35.9266 118.55
    endloop
  endfacet
  facet normal 0 0 -1
    outer loop
      vertex 4.8363 -40.1353 118.55
      vertex 7.14697 -39.7915 118.55
      vertex 5.00448 -40.6307 118.55
    endloop
  endfacet
  facet normal 0 0 -1
    outer loop
      vertex 7.32467 -38.1008 118.55
      vertex 5.52659 -36.665 118.55
      vertex 5.87157 -36.2716 118.55
    endloop
  endfacet
  facet normal -0 0 -1
    outer loop
      vertex 7.14697 -39.7915 118.55
      vertex 4.8363 -40.1353 118.55
      vertex 7.03715 -39.4534 118.55
    endloop
  endfacet
  facet normal 0 0 -1
    outer loop
      vertex 7.32467 -38.1008 118.55
      vertex 5.2359 -37.1 118.55
      vertex 5.52659 -36.665 118.55
    endloop
  endfacet
  facet normal 0 0 -1
    outer loop
      vertex 4.73422 -39.6221 118.55
      vertex 7.03715 -39.4534 118.55
      vertex 4.8363 -40.1353 118.55
    endloop
  endfacet
  facet normal 0 0 -1
    outer loop
      vertex 7.14697 -38.4085 118.55
      vertex 5.00448 -37.5693 118.55
      vertex 5.2359 -37.1 118.55
    endloop
  endfacet
  facet normal -0 0 -1
    outer loop
      vertex 7.03715 -39.4534 118.55
      vertex 4.73422 -39.6221 118.55
      vertex 7 -39.1 118.55
    endloop
  endfacet
  facet normal 0 0 -1
    outer loop
      vertex 7.14697 -38.4085 118.55
      vertex 4.8363 -38.0647 118.55
      vertex 5.00448 -37.5693 118.55
    endloop
  endfacet
  facet normal 0 0 -1
    outer loop
      vertex 4.7 -39.1 118.55
      vertex 7 -39.1 118.55
      vertex 4.73422 -39.6221 118.55
    endloop
  endfacet
  facet normal 0 0 -1
    outer loop
      vertex 7.03715 -38.7466 118.55
      vertex 4.73422 -38.5779 118.55
      vertex 4.8363 -38.0647 118.55
    endloop
  endfacet
  facet normal 0 0 -1
    outer loop
      vertex 7 -39.1 118.55
      vertex 4.7 -39.1 118.55
      vertex 4.73422 -38.5779 118.55
    endloop
  endfacet
  facet normal -0.831441 -0.555613 5.41501e-18
    outer loop
      vertex 5.52659 -41.535 118.55
      vertex 5.2359 -41.1 120.15
      vertex 5.2359 -41.1 118.55
    endloop
  endfacet
  facet normal -0.831441 -0.555613 5.41501e-18
    outer loop
      vertex 5.2359 -41.1 120.15
      vertex 5.52659 -41.535 118.55
      vertex 5.52659 -41.535 120.15
    endloop
  endfacet
  facet normal 0.442238 0.896898 -0
    outer loop
      vertex 10.7 -35.6359 118.55
      vertex 10.2307 -35.4045 120.15
      vertex 10.7 -35.6359 120.15
    endloop
  endfacet
  facet normal 0.442238 0.896898 0
    outer loop
      vertex 10.2307 -35.4045 120.15
      vertex 10.7 -35.6359 118.55
      vertex 10.2307 -35.4045 118.55
    endloop
  endfacet
  facet normal 0.321487 0.946914 -0
    outer loop
      vertex 10.2307 -35.4045 118.55
      vertex 9.73528 -35.2363 120.15
      vertex 10.2307 -35.4045 120.15
    endloop
  endfacet
  facet normal 0.321487 0.946914 0
    outer loop
      vertex 9.73528 -35.2363 120.15
      vertex 10.2307 -35.4045 118.55
      vertex 9.73528 -35.2363 118.55
    endloop
  endfacet
  facet normal 0.659343 0.751842 -0
    outer loop
      vertex 11.5284 -36.2716 118.55
      vertex 11.135 -35.9266 120.15
      vertex 11.5284 -36.2716 120.15
    endloop
  endfacet
  facet normal 0.659343 0.751842 0
    outer loop
      vertex 11.135 -35.9266 120.15
      vertex 11.5284 -36.2716 118.55
      vertex 11.135 -35.9266 118.55
    endloop
  endfacet
  facet normal -0.896883 0.442268 -8.16912e-18
    outer loop
      vertex 5.00448 -37.5693 118.55
      vertex 5.2359 -37.1 120.15
      vertex 5.2359 -37.1 118.55
    endloop
  endfacet
  facet normal -0.896883 0.442268 -8.16912e-18
    outer loop
      vertex 5.2359 -37.1 120.15
      vertex 5.00448 -37.5693 118.55
      vertex 5.00448 -37.5693 120.15
    endloop
  endfacet
  facet normal 0.195131 -0.980777 0
    outer loop
      vertex 9.2221 -43.0658 118.55
      vertex 9.73528 -42.9637 120.15
      vertex 9.2221 -43.0658 120.15
    endloop
  endfacet
  facet normal 0.195131 -0.980777 0
    outer loop
      vertex 9.73528 -42.9637 120.15
      vertex 9.2221 -43.0658 118.55
      vertex 9.73528 -42.9637 118.55
    endloop
  endfacet
  facet normal -0.44226 0.896887 0
    outer loop
      vertex 7.16927 -35.4045 118.55
      vertex 6.7 -35.6359 120.15
      vertex 7.16927 -35.4045 120.15
    endloop
  endfacet
  facet normal -0.44226 0.896887 0
    outer loop
      vertex 6.7 -35.6359 120.15
      vertex 7.16927 -35.4045 118.55
      vertex 6.7 -35.6359 118.55
    endloop
  endfacet
  facet normal -0.831441 0.555613 8.39944e-18
    outer loop
      vertex 5.2359 -37.1 118.55
      vertex 5.52659 -36.665 120.15
      vertex 5.52659 -36.665 118.55
    endloop
  endfacet
  facet normal -0.831441 0.555613 8.39944e-18
    outer loop
      vertex 5.52659 -36.665 120.15
      vertex 5.2359 -37.1 118.55
      vertex 5.2359 -37.1 120.15
    endloop
  endfacet
  facet normal 0 0 1
    outer loop
      vertex 10.4 -39.1 120.15
      vertex 12.7 -39.1 120.15
      vertex 12.6658 -38.5779 120.15
    endloop
  endfacet
  facet normal 0 0 1
    outer loop
      vertex 10.3629 -38.7466 120.15
      vertex 12.6658 -38.5779 120.15
      vertex 12.5637 -38.0647 120.15
    endloop
  endfacet
  facet normal 0 0 1
    outer loop
      vertex 12.7 -39.1 120.15
      vertex 10.4 -39.1 120.15
      vertex 12.6658 -39.6221 120.15
    endloop
  endfacet
  facet normal 0 0 1
    outer loop
      vertex 10.253 -38.4085 120.15
      vertex 12.5637 -38.0647 120.15
      vertex 12.3955 -37.5693 120.15
    endloop
  endfacet
  facet normal -0 0 1
    outer loop
      vertex 10.3629 -39.4534 120.15
      vertex 12.6658 -39.6221 120.15
      vertex 10.4 -39.1 120.15
    endloop
  endfacet
  facet normal 0 0 1
    outer loop
      vertex 10.253 -38.4085 120.15
      vertex 12.3955 -37.5693 120.15
      vertex 12.1641 -37.1 120.15
    endloop
  endfacet
  facet normal 0 0 1
    outer loop
      vertex 12.6658 -39.6221 120.15
      vertex 10.3629 -39.4534 120.15
      vertex 12.5637 -40.1353 120.15
    endloop
  endfacet
  facet normal 0 0 1
    outer loop
      vertex 10.0753 -38.1008 120.15
      vertex 12.1641 -37.1 120.15
      vertex 11.8734 -36.665 120.15
    endloop
  endfacet
  facet normal -0 0 1
    outer loop
      vertex 10.253 -39.7915 120.15
      vertex 12.5637 -40.1353 120.15
      vertex 10.3629 -39.4534 120.15
    endloop
  endfacet
  facet normal 0 0 1
    outer loop
      vertex 10.0753 -38.1008 120.15
      vertex 11.8734 -36.665 120.15
      vertex 11.5284 -36.2716 120.15
    endloop
  endfacet
  facet normal 0 0 1
    outer loop
      vertex 12.5637 -40.1353 120.15
      vertex 10.253 -39.7915 120.15
      vertex 12.3955 -40.6307 120.15
    endloop
  endfacet
  facet normal 0 0 1
    outer loop
      vertex 9.83752 -37.8367 120.15
      vertex 11.5284 -36.2716 120.15
      vertex 11.135 -35.9266 120.15
    endloop
  endfacet
  facet normal 0 0 1
    outer loop
      vertex 12.3955 -40.6307 120.15
      vertex 10.253 -39.7915 120.15
      vertex 12.1641 -41.1 120.15
    endloop
  endfacet
  facet normal 0 0 1
    outer loop
      vertex 9.55 -37.6278 120.15
      vertex 11.135 -35.9266 120.15
      vertex 10.7 -35.6359 120.15
    endloop
  endfacet
  facet normal -0 0 1
    outer loop
      vertex 10.0753 -40.0992 120.15
      vertex 12.1641 -41.1 120.15
      vertex 10.253 -39.7915 120.15
    endloop
  endfacet
  facet normal 0 0 1
    outer loop
      vertex 12.1641 -41.1 120.15
      vertex 10.0753 -40.0992 120.15
      vertex 11.8734 -41.535 120.15
    endloop
  endfacet
  facet normal 0 0 1
    outer loop
      vertex 12.6658 -38.5779 120.15
      vertex 10.3629 -38.7466 120.15
      vertex 10.4 -39.1 120.15
    endloop
  endfacet
  facet normal 0 0 1
    outer loop
      vertex 12.5637 -38.0647 120.15
      vertex 10.253 -38.4085 120.15
      vertex 10.3629 -38.7466 120.15
    endloop
  endfacet
  facet normal 0 0 1
    outer loop
      vertex 9.55 -37.6278 120.15
      vertex 10.7 -35.6359 120.15
      vertex 10.2307 -35.4045 120.15
    endloop
  endfacet
  facet normal 0 0 1
    outer loop
      vertex 12.1641 -37.1 120.15
      vertex 10.0753 -38.1008 120.15
      vertex 10.253 -38.4085 120.15
    endloop
  endfacet
  facet normal 0 0 1
    outer loop
      vertex 11.5284 -36.2716 120.15
      vertex 9.83752 -37.8367 120.15
      vertex 10.0753 -38.1008 120.15
    endloop
  endfacet
  facet normal 0 0 1
    outer loop
      vertex 9.22533 -37.4832 120.15
      vertex 10.2307 -35.4045 120.15
      vertex 9.73528 -35.2363 120.15
    endloop
  endfacet
  facet normal 0 0 1
    outer loop
      vertex 11.135 -35.9266 120.15
      vertex 9.55 -37.6278 120.15
      vertex 9.83752 -37.8367 120.15
    endloop
  endfacet
  facet normal 0 0 1
    outer loop
      vertex 10.2307 -35.4045 120.15
      vertex 9.22533 -37.4832 120.15
      vertex 9.55 -37.6278 120.15
    endloop
  endfacet
  facet normal 0 0 1
    outer loop
      vertex 8.8777 -37.4093 120.15
      vertex 9.73528 -35.2363 120.15
      vertex 9.2221 -35.1342 120.15
    endloop
  endfacet
  facet normal 0 0 1
    outer loop
      vertex 9.73528 -35.2363 120.15
      vertex 8.8777 -37.4093 120.15
      vertex 9.22533 -37.4832 120.15
    endloop
  endfacet
  facet normal 0 0 1
    outer loop
      vertex 8.7 -35.1 120.15
      vertex 8.8777 -37.4093 120.15
      vertex 9.2221 -35.1342 120.15
    endloop
  endfacet
  facet normal 0 0 1
    outer loop
      vertex 8.7 -35.1 120.15
      vertex 8.5223 -37.4093 120.15
      vertex 8.8777 -37.4093 120.15
    endloop
  endfacet
  facet normal -0 0 1
    outer loop
      vertex 8.1779 -35.1342 120.15
      vertex 8.5223 -37.4093 120.15
      vertex 8.7 -35.1 120.15
    endloop
  endfacet
  facet normal -0 0 1
    outer loop
      vertex 7.66472 -35.2363 120.15
      vertex 8.5223 -37.4093 120.15
      vertex 8.1779 -35.1342 120.15
    endloop
  endfacet
  facet normal 0 0 1
    outer loop
      vertex 8.5223 -37.4093 120.15
      vertex 7.66472 -35.2363 120.15
      vertex 8.17467 -37.4832 120.15
    endloop
  endfacet
  facet normal -0 0 1
    outer loop
      vertex 7.16927 -35.4045 120.15
      vertex 8.17467 -37.4832 120.15
      vertex 7.66472 -35.2363 120.15
    endloop
  endfacet
  facet normal 0 0 1
    outer loop
      vertex 8.17467 -37.4832 120.15
      vertex 7.16927 -35.4045 120.15
      vertex 7.85 -37.6278 120.15
    endloop
  endfacet
  facet normal -0 0 1
    outer loop
      vertex 6.7 -35.6359 120.15
      vertex 7.85 -37.6278 120.15
      vertex 7.16927 -35.4045 120.15
    endloop
  endfacet
  facet normal -0 0 1
    outer loop
      vertex 6.26495 -35.9266 120.15
      vertex 7.85 -37.6278 120.15
      vertex 6.7 -35.6359 120.15
    endloop
  endfacet
  facet normal 0 0 1
    outer loop
      vertex 7.85 -37.6278 120.15
      vertex 6.26495 -35.9266 120.15
      vertex 7.56248 -37.8367 120.15
    endloop
  endfacet
  facet normal -0 0 1
    outer loop
      vertex 5.87157 -36.2716 120.15
      vertex 7.56248 -37.8367 120.15
      vertex 6.26495 -35.9266 120.15
    endloop
  endfacet
  facet normal 0 0 1
    outer loop
      vertex 7.56248 -37.8367 120.15
      vertex 5.87157 -36.2716 120.15
      vertex 7.32467 -38.1008 120.15
    endloop
  endfacet
  facet normal -0 0 1
    outer loop
      vertex 5.52659 -36.665 120.15
      vertex 7.32467 -38.1008 120.15
      vertex 5.87157 -36.2716 120.15
    endloop
  endfacet
  facet normal 0 0 1
    outer loop
      vertex 11.8734 -41.535 120.15
      vertex 10.0753 -40.0992 120.15
      vertex 11.5284 -41.9284 120.15
    endloop
  endfacet
  facet normal -0 0 1
    outer loop
      vertex 9.83752 -40.3633 120.15
      vertex 11.5284 -41.9284 120.15
      vertex 10.0753 -40.0992 120.15
    endloop
  endfacet
  facet normal 0 0 1
    outer loop
      vertex 11.5284 -41.9284 120.15
      vertex 9.83752 -40.3633 120.15
      vertex 11.135 -42.2734 120.15
    endloop
  endfacet
  facet normal -0 0 1
    outer loop
      vertex 9.55 -40.5722 120.15
      vertex 11.135 -42.2734 120.15
      vertex 9.83752 -40.3633 120.15
    endloop
  endfacet
  facet normal 0 0 1
    outer loop
      vertex 11.135 -42.2734 120.15
      vertex 9.55 -40.5722 120.15
      vertex 10.7 -42.5641 120.15
    endloop
  endfacet
  facet normal 0 0 1
    outer loop
      vertex 10.7 -42.5641 120.15
      vertex 9.55 -40.5722 120.15
      vertex 10.2307 -42.7955 120.15
    endloop
  endfacet
  facet normal -0 0 1
    outer loop
      vertex 9.22533 -40.7168 120.15
      vertex 10.2307 -42.7955 120.15
      vertex 9.55 -40.5722 120.15
    endloop
  endfacet
  facet normal 0 0 1
    outer loop
      vertex 10.2307 -42.7955 120.15
      vertex 9.22533 -40.7168 120.15
      vertex 9.73528 -42.9637 120.15
    endloop
  endfacet
  facet normal -0 0 1
    outer loop
      vertex 8.8777 -40.7907 120.15
      vertex 9.73528 -42.9637 120.15
      vertex 9.22533 -40.7168 120.15
    endloop
  endfacet
  facet normal 0 0 1
    outer loop
      vertex 9.73528 -42.9637 120.15
      vertex 8.8777 -40.7907 120.15
      vertex 9.2221 -43.0658 120.15
    endloop
  endfacet
  facet normal 0 0 1
    outer loop
      vertex 8.8777 -40.7907 120.15
      vertex 8.7 -43.1 120.15
      vertex 9.2221 -43.0658 120.15
    endloop
  endfacet
  facet normal -0 0 1
    outer loop
      vertex 8.5223 -40.7907 120.15
      vertex 8.7 -43.1 120.15
      vertex 8.8777 -40.7907 120.15
    endloop
  endfacet
  facet normal 0 0 1
    outer loop
      vertex 8.5223 -40.7907 120.15
      vertex 8.1779 -43.0658 120.15
      vertex 8.7 -43.1 120.15
    endloop
  endfacet
  facet normal 0 0 1
    outer loop
      vertex 7.66472 -42.9637 120.15
      vertex 8.5223 -40.7907 120.15
      vertex 8.17467 -40.7168 120.15
    endloop
  endfacet
  facet normal 0 0 1
    outer loop
      vertex 7.16927 -42.7955 120.15
      vertex 8.17467 -40.7168 120.15
      vertex 7.85 -40.5722 120.15
    endloop
  endfacet
  facet normal 0 0 1
    outer loop
      vertex 8.5223 -40.7907 120.15
      vertex 7.66472 -42.9637 120.15
      vertex 8.1779 -43.0658 120.15
    endloop
  endfacet
  facet normal 0 0 1
    outer loop
      vertex 6.26495 -42.2734 120.15
      vertex 7.85 -40.5722 120.15
      vertex 7.56248 -40.3633 120.15
    endloop
  endfacet
  facet normal 0 0 1
    outer loop
      vertex 5.87157 -41.9284 120.15
      vertex 7.56248 -40.3633 120.15
      vertex 7.32467 -40.0992 120.15
    endloop
  endfacet
  facet normal 0 0 1
    outer loop
      vertex 8.17467 -40.7168 120.15
      vertex 7.16927 -42.7955 120.15
      vertex 7.66472 -42.9637 120.15
    endloop
  endfacet
  facet normal 0 0 1
    outer loop
      vertex 5.2359 -41.1 120.15
      vertex 7.32467 -40.0992 120.15
      vertex 7.14697 -39.7915 120.15
    endloop
  endfacet
  facet normal 0 0 1
    outer loop
      vertex 4.8363 -40.1353 120.15
      vertex 7.14697 -39.7915 120.15
      vertex 7.03715 -39.4534 120.15
    endloop
  endfacet
  facet normal 0 0 1
    outer loop
      vertex 4.73422 -39.6221 120.15
      vertex 7.03715 -39.4534 120.15
      vertex 7 -39.1 120.15
    endloop
  endfacet
  facet normal -0 0 1
    outer loop
      vertex 5.2359 -37.1 120.15
      vertex 7.32467 -38.1008 120.15
      vertex 5.52659 -36.665 120.15
    endloop
  endfacet
  facet normal 0 0 1
    outer loop
      vertex 7.85 -40.5722 120.15
      vertex 6.7 -42.5641 120.15
      vertex 7.16927 -42.7955 120.15
    endloop
  endfacet
  facet normal 0 0 1
    outer loop
      vertex 7.32467 -38.1008 120.15
      vertex 5.2359 -37.1 120.15
      vertex 7.14697 -38.4085 120.15
    endloop
  endfacet
  facet normal 0 0 1
    outer loop
      vertex 7.85 -40.5722 120.15
      vertex 6.26495 -42.2734 120.15
      vertex 6.7 -42.5641 120.15
    endloop
  endfacet
  facet normal -0 0 1
    outer loop
      vertex 5.00448 -37.5693 120.15
      vertex 7.14697 -38.4085 120.15
      vertex 5.2359 -37.1 120.15
    endloop
  endfacet
  facet normal 0 0 1
    outer loop
      vertex 7.56248 -40.3633 120.15
      vertex 5.87157 -41.9284 120.15
      vertex 6.26495 -42.2734 120.15
    endloop
  endfacet
  facet normal -0 0 1
    outer loop
      vertex 4.8363 -38.0647 120.15
      vertex 7.14697 -38.4085 120.15
      vertex 5.00448 -37.5693 120.15
    endloop
  endfacet
  facet normal 0 0 1
    outer loop
      vertex 7.32467 -40.0992 120.15
      vertex 5.52659 -41.535 120.15
      vertex 5.87157 -41.9284 120.15
    endloop
  endfacet
  facet normal 0 0 1
    outer loop
      vertex 7.14697 -38.4085 120.15
      vertex 4.8363 -38.0647 120.15
      vertex 7.03715 -38.7466 120.15
    endloop
  endfacet
  facet normal 0 0 1
    outer loop
      vertex 7.32467 -40.0992 120.15
      vertex 5.2359 -41.1 120.15
      vertex 5.52659 -41.535 120.15
    endloop
  endfacet
  facet normal -0 0 1
    outer loop
      vertex 4.73422 -38.5779 120.15
      vertex 7.03715 -38.7466 120.15
      vertex 4.8363 -38.0647 120.15
    endloop
  endfacet
  facet normal 0 0 1
    outer loop
      vertex 7.14697 -39.7915 120.15
      vertex 5.00448 -40.6307 120.15
      vertex 5.2359 -41.1 120.15
    endloop
  endfacet
  facet normal 0 0 1
    outer loop
      vertex 7.03715 -38.7466 120.15
      vertex 4.73422 -38.5779 120.15
      vertex 7 -39.1 120.15
    endloop
  endfacet
  facet normal 0 0 1
    outer loop
      vertex 7.14697 -39.7915 120.15
      vertex 4.8363 -40.1353 120.15
      vertex 5.00448 -40.6307 120.15
    endloop
  endfacet
  facet normal 0 0 1
    outer loop
      vertex 4.7 -39.1 120.15
      vertex 7 -39.1 120.15
      vertex 4.73422 -38.5779 120.15
    endloop
  endfacet
  facet normal 0 0 1
    outer loop
      vertex 7.03715 -39.4534 120.15
      vertex 4.73422 -39.6221 120.15
      vertex 4.8363 -40.1353 120.15
    endloop
  endfacet
  facet normal 0 0 1
    outer loop
      vertex 7 -39.1 120.15
      vertex 4.7 -39.1 120.15
      vertex 4.73422 -39.6221 120.15
    endloop
  endfacet
  facet normal -0.95102 0.309131 6.37753e-19
    outer loop
      vertex 10.253 -39.7915 118.55
      vertex 10.3629 -39.4534 120.15
      vertex 10.3629 -39.4534 118.55
    endloop
  endfacet
  facet normal -0.95102 0.309131 6.37753e-19
    outer loop
      vertex 10.3629 -39.4534 120.15
      vertex 10.253 -39.7915 118.55
      vertex 10.253 -39.7915 120.15
    endloop
  endfacet
  facet normal -0.994535 0.104406 7.80923e-19
    outer loop
      vertex 10.3629 -39.4534 118.55
      vertex 10.4 -39.1 120.15
      vertex 10.4 -39.1 118.55
    endloop
  endfacet
  facet normal -0.994535 0.104406 7.80923e-19
    outer loop
      vertex 10.4 -39.1 120.15
      vertex 10.3629 -39.4534 118.55
      vertex 10.3629 -39.4534 120.15
    endloop
  endfacet
  facet normal -0.95102 -0.309131 5.00294e-18
    outer loop
      vertex 10.3629 -38.7466 118.55
      vertex 10.253 -38.4085 120.15
      vertex 10.253 -38.4085 118.55
    endloop
  endfacet
  facet normal -0.95102 -0.309131 5.00294e-18
    outer loop
      vertex 10.253 -38.4085 120.15
      vertex 10.3629 -38.7466 118.55
      vertex 10.3629 -38.7466 120.15
    endloop
  endfacet
  facet normal 0.587794 -0.809011 0
    outer loop
      vertex 7.56248 -37.8367 118.55
      vertex 7.85 -37.6278 120.15
      vertex 7.56248 -37.8367 120.15
    endloop
  endfacet
  facet normal 0.587794 -0.809011 0
    outer loop
      vertex 7.85 -37.6278 120.15
      vertex 7.56248 -37.8367 118.55
      vertex 7.85 -37.6278 118.55
    endloop
  endfacet
  facet normal -0.406848 0.913496 0
    outer loop
      vertex 9.55 -40.5722 118.55
      vertex 9.22533 -40.7168 120.15
      vertex 9.55 -40.5722 120.15
    endloop
  endfacet
  facet normal -0.406848 0.913496 0
    outer loop
      vertex 9.22533 -40.7168 120.15
      vertex 9.55 -40.5722 118.55
      vertex 9.22533 -40.7168 118.55
    endloop
  endfacet
  facet normal 0.587794 0.809011 -0
    outer loop
      vertex 7.85 -40.5722 118.55
      vertex 7.56248 -40.3633 120.15
      vertex 7.85 -40.5722 120.15
    endloop
  endfacet
  facet normal 0.587794 0.809011 0
    outer loop
      vertex 7.56248 -40.3633 120.15
      vertex 7.85 -40.5722 118.55
      vertex 7.56248 -40.3633 118.55
    endloop
  endfacet
  facet normal -0.743168 -0.669105 1.21444e-17
    outer loop
      vertex 10.0753 -38.1008 118.55
      vertex 9.83752 -37.8367 120.15
      vertex 9.83752 -37.8367 118.55
    endloop
  endfacet
  facet normal -0.743168 -0.669105 1.21444e-17
    outer loop
      vertex 9.83752 -37.8367 120.15
      vertex 10.0753 -38.1008 118.55
      vertex 10.0753 -38.1008 120.15
    endloop
  endfacet
  facet normal 0.207936 -0.978142 0
    outer loop
      vertex 8.17467 -37.4832 118.55
      vertex 8.5223 -37.4093 120.15
      vertex 8.17467 -37.4832 120.15
    endloop
  endfacet
  facet normal 0.207936 -0.978142 0
    outer loop
      vertex 8.5223 -37.4093 120.15
      vertex 8.17467 -37.4832 118.55
      vertex 8.5223 -37.4093 118.55
    endloop
  endfacet
  facet normal 0.865965 -0.500104 1.1202e-18
    outer loop
      vertex 7.14697 -38.4085 120.15
      vertex 7.32467 -38.1008 118.55
      vertex 7.32467 -38.1008 120.15
    endloop
  endfacet
  facet normal 0.865965 -0.500104 1.1202e-18
    outer loop
      vertex 7.32467 -38.1008 118.55
      vertex 7.14697 -38.4085 120.15
      vertex 7.14697 -38.4085 118.55
    endloop
  endfacet
  facet normal -0.406848 -0.913496 0
    outer loop
      vertex 9.22533 -37.4832 118.55
      vertex 9.55 -37.6278 120.15
      vertex 9.22533 -37.4832 120.15
    endloop
  endfacet
  facet normal -0.406848 -0.913496 -0
    outer loop
      vertex 9.55 -37.6278 120.15
      vertex 9.22533 -37.4832 118.55
      vertex 9.55 -37.6278 118.55
    endloop
  endfacet
  facet normal -0.587794 0.809011 0
    outer loop
      vertex 9.83752 -40.3633 118.55
      vertex 9.55 -40.5722 120.15
      vertex 9.83752 -40.3633 120.15
    endloop
  endfacet
  facet normal -0.587794 0.809011 0
    outer loop
      vertex 9.55 -40.5722 120.15
      vertex 9.83752 -40.3633 118.55
      vertex 9.55 -40.5722 118.55
    endloop
  endfacet
  facet normal 0.951086 0.308927 -9.1724e-19
    outer loop
      vertex 7.14697 -39.7915 120.15
      vertex 7.03715 -39.4534 118.55
      vertex 7.03715 -39.4534 120.15
    endloop
  endfacet
  facet normal 0.951086 0.308927 -9.1724e-19
    outer loop
      vertex 7.03715 -39.4534 118.55
      vertex 7.14697 -39.7915 120.15
      vertex 7.14697 -39.7915 118.55
    endloop
  endfacet
  facet normal 0.406848 -0.913496 0
    outer loop
      vertex 7.85 -37.6278 118.55
      vertex 8.17467 -37.4832 120.15
      vertex 7.85 -37.6278 120.15
    endloop
  endfacet
  facet normal 0.406848 -0.913496 0
    outer loop
      vertex 8.17467 -37.4832 120.15
      vertex 7.85 -37.6278 118.55
      vertex 8.17467 -37.4832 118.55
    endloop
  endfacet
  facet normal 0.865965 0.500104 -6.90581e-19
    outer loop
      vertex 7.32467 -40.0992 120.15
      vertex 7.14697 -39.7915 118.55
      vertex 7.14697 -39.7915 120.15
    endloop
  endfacet
  facet normal 0.865965 0.500104 -6.90581e-19
    outer loop
      vertex 7.14697 -39.7915 118.55
      vertex 7.32467 -40.0992 120.15
      vertex 7.32467 -40.0992 118.55
    endloop
  endfacet
  facet normal -0.587794 -0.809011 0
    outer loop
      vertex 9.55 -37.6278 118.55
      vertex 9.83752 -37.8367 120.15
      vertex 9.55 -37.6278 120.15
    endloop
  endfacet
  facet normal -0.587794 -0.809011 -0
    outer loop
      vertex 9.83752 -37.8367 120.15
      vertex 9.55 -37.6278 118.55
      vertex 9.83752 -37.8367 118.55
    endloop
  endfacet
  facet normal 0.207936 0.978142 -0
    outer loop
      vertex 8.5223 -40.7907 118.55
      vertex 8.17467 -40.7168 120.15
      vertex 8.5223 -40.7907 120.15
    endloop
  endfacet
  facet normal 0.207936 0.978142 0
    outer loop
      vertex 8.17467 -40.7168 120.15
      vertex 8.5223 -40.7907 118.55
      vertex 8.17467 -40.7168 118.55
    endloop
  endfacet
  facet normal -0.994535 -0.104406 -7.80923e-19
    outer loop
      vertex 10.4 -39.1 118.55
      vertex 10.3629 -38.7466 120.15
      vertex 10.3629 -38.7466 118.55
    endloop
  endfacet
  facet normal -0.994535 -0.104406 -7.80923e-19
    outer loop
      vertex 10.3629 -38.7466 120.15
      vertex 10.4 -39.1 118.55
      vertex 10.4 -39.1 120.15
    endloop
  endfacet
  facet normal 0 1 -0
    outer loop
      vertex 8.8777 -40.7907 118.55
      vertex 8.5223 -40.7907 120.15
      vertex 8.8777 -40.7907 120.15
    endloop
  endfacet
  facet normal 0 1 0
    outer loop
      vertex 8.5223 -40.7907 120.15
      vertex 8.8777 -40.7907 118.55
      vertex 8.5223 -40.7907 118.55
    endloop
  endfacet
  facet normal -0.865965 -0.500104 3.5861e-18
    outer loop
      vertex 10.253 -38.4085 118.55
      vertex 10.0753 -38.1008 120.15
      vertex 10.0753 -38.1008 118.55
    endloop
  endfacet
  facet normal -0.865965 -0.500104 3.5861e-18
    outer loop
      vertex 10.0753 -38.1008 120.15
      vertex 10.253 -38.4085 118.55
      vertex 10.253 -38.4085 120.15
    endloop
  endfacet
  facet normal 0.406848 0.913496 -0
    outer loop
      vertex 8.17467 -40.7168 118.55
      vertex 7.85 -40.5722 120.15
      vertex 8.17467 -40.7168 120.15
    endloop
  endfacet
  facet normal 0.406848 0.913496 0
    outer loop
      vertex 7.85 -40.5722 120.15
      vertex 8.17467 -40.7168 118.55
      vertex 7.85 -40.5722 118.55
    endloop
  endfacet
  facet normal -0.207936 -0.978142 0
    outer loop
      vertex 8.8777 -37.4093 118.55
      vertex 9.22533 -37.4832 120.15
      vertex 8.8777 -37.4093 120.15
    endloop
  endfacet
  facet normal -0.207936 -0.978142 -0
    outer loop
      vertex 9.22533 -37.4832 120.15
      vertex 8.8777 -37.4093 118.55
      vertex 9.22533 -37.4832 118.55
    endloop
  endfacet
  facet normal -0.743168 0.669105 -1.21444e-17
    outer loop
      vertex 9.83752 -40.3633 118.55
      vertex 10.0753 -40.0992 120.15
      vertex 10.0753 -40.0992 118.55
    endloop
  endfacet
  facet normal -0.743168 0.669105 -1.21444e-17
    outer loop
      vertex 10.0753 -40.0992 120.15
      vertex 9.83752 -40.3633 118.55
      vertex 9.83752 -40.3633 120.15
    endloop
  endfacet
  facet normal 0.99452 0.104546 -2.62733e-19
    outer loop
      vertex 7.03715 -39.4534 120.15
      vertex 7 -39.1 118.55
      vertex 7 -39.1 120.15
    endloop
  endfacet
  facet normal 0.99452 0.104546 -2.62733e-19
    outer loop
      vertex 7 -39.1 118.55
      vertex 7.03715 -39.4534 120.15
      vertex 7.03715 -39.4534 118.55
    endloop
  endfacet
  facet normal 0 -1 0
    outer loop
      vertex 8.5223 -37.4093 118.55
      vertex 8.8777 -37.4093 120.15
      vertex 8.5223 -37.4093 120.15
    endloop
  endfacet
  facet normal 0 -1 -0
    outer loop
      vertex 8.8777 -37.4093 120.15
      vertex 8.5223 -37.4093 118.55
      vertex 8.8777 -37.4093 118.55
    endloop
  endfacet
  facet normal -0.865965 0.500104 -4.01573e-18
    outer loop
      vertex 10.0753 -40.0992 118.55
      vertex 10.253 -39.7915 120.15
      vertex 10.253 -39.7915 118.55
    endloop
  endfacet
  facet normal -0.865965 0.500104 -4.01573e-18
    outer loop
      vertex 10.253 -39.7915 120.15
      vertex 10.0753 -40.0992 118.55
      vertex 10.0753 -40.0992 120.15
    endloop
  endfacet
  facet normal 0.743126 0.669151 -9.52102e-18
    outer loop
      vertex 7.56248 -40.3633 120.15
      vertex 7.32467 -40.0992 118.55
      vertex 7.32467 -40.0992 120.15
    endloop
  endfacet
  facet normal 0.743126 0.669151 -9.52102e-18
    outer loop
      vertex 7.32467 -40.0992 118.55
      vertex 7.56248 -40.3633 120.15
      vertex 7.56248 -40.3633 118.55
    endloop
  endfacet
  facet normal 0.951086 -0.308927 -5.72323e-18
    outer loop
      vertex 7.03715 -38.7466 120.15
      vertex 7.14697 -38.4085 118.55
      vertex 7.14697 -38.4085 120.15
    endloop
  endfacet
  facet normal 0.951086 -0.308927 -5.72323e-18
    outer loop
      vertex 7.14697 -38.4085 118.55
      vertex 7.03715 -38.7466 120.15
      vertex 7.03715 -38.7466 118.55
    endloop
  endfacet
  facet normal 0.743126 -0.669151 9.52102e-18
    outer loop
      vertex 7.32467 -38.1008 120.15
      vertex 7.56248 -37.8367 118.55
      vertex 7.56248 -37.8367 120.15
    endloop
  endfacet
  facet normal 0.743126 -0.669151 9.52102e-18
    outer loop
      vertex 7.56248 -37.8367 118.55
      vertex 7.32467 -38.1008 120.15
      vertex 7.32467 -38.1008 118.55
    endloop
  endfacet
  facet normal -0.207936 0.978142 0
    outer loop
      vertex 9.22533 -40.7168 118.55
      vertex 8.8777 -40.7907 120.15
      vertex 9.22533 -40.7168 120.15
    endloop
  endfacet
  facet normal -0.207936 0.978142 0
    outer loop
      vertex 8.8777 -40.7907 120.15
      vertex 9.22533 -40.7168 118.55
      vertex 8.8777 -40.7907 118.55
    endloop
  endfacet
  facet normal 0.99452 -0.104546 2.62733e-19
    outer loop
      vertex 7 -39.1 120.15
      vertex 7.03715 -38.7466 118.55
      vertex 7.03715 -38.7466 120.15
    endloop
  endfacet
  facet normal 0.99452 -0.104546 2.62733e-19
    outer loop
      vertex 7.03715 -38.7466 118.55
      vertex 7 -39.1 120.15
      vertex 7 -39.1 118.55
    endloop
  endfacet
endsolid OpenSCAD_Model
