solid OpenSCAD_Model
  facet normal -1 0 0
    outer loop
      vertex 235.7000 -63.1000 0.0000
      vertex 235.7000 -63.1000 52.2000
      vertex 235.7000 -60.1000 27.2000
    endloop
  endfacet
  facet normal -1 0 0
    outer loop
      vertex 235.7000 -63.1000 0.0000
      vertex 235.7000 -60.1000 27.2000
      vertex 235.7000 -13.9000 0.0000
    endloop
  endfacet
  facet normal 0 0 -1
    outer loop
      vertex 235.7000 -63.1000 0.0000
      vertex 235.7000 -13.9000 0.0000
      vertex 241.7000 -27.4000 0.0000
    endloop
  endfacet
  facet normal 0 0 -1
    outer loop
      vertex 235.7000 -63.1000 0.0000
      vertex 241.7000 -55.6000 0.0000
      vertex 253.7000 -63.1000 0.0000
    endloop
  endfacet
  facet normal 0 0 -1
    outer loop
      vertex 235.7000 -63.1000 0.0000
      vertex 241.7000 -49.6000 0.0000
      vertex 241.7000 -55.6000 0.0000
    endloop
  endfacet
  facet normal 0 0 -1
    outer loop
      vertex 235.7000 -63.1000 0.0000
      vertex 241.7000 -27.4000 0.0000
      vertex 241.7000 -49.6000 0.0000
    endloop
  endfacet
  facet normal 0 -1 0
    outer loop
      vertex 235.7000 -63.1000 0.0000
      vertex 253.7000 -63.1000 0.0000
      vertex 253.7000 -63.1000 52.2000
    endloop
  endfacet
  facet normal 0 -1 0
    outer loop
      vertex 235.7000 -63.1000 0.0000
      vertex 253.7000 -63.1000 52.2000
      vertex 235.7000 -63.1000 52.2000
    endloop
  endfacet
  facet normal -1 0 0
    outer loop
      vertex 235.7000 -63.1000 52.2000
      vertex 235.7000 -62.2213 52.2000
      vertex 235.7000 -60.1000 50.0787
    endloop
  endfacet
  facet normal -1 0 0
    outer loop
      vertex 235.7000 -63.1000 52.2000
      vertex 235.7000 -60.1000 50.0787
      vertex 235.7000 -60.1000 27.2000
    endloop
  endfacet
  facet normal 0 0 1
    outer loop
      vertex 235.7000 -63.1000 52.2000
      vertex 244.7000 -62.2213 52.2000
      vertex 235.7000 -62.2213 52.2000
    endloop
  endfacet
  facet normal 0 0 1
    outer loop
      vertex 235.7000 -63.1000 52.2000
      vertex 253.7000 -63.1000 52.2000
      vertex 244.7000 -62.2213 52.2000
    endloop
  endfacet
  facet normal 0 0.707107 0.707107
    outer loop
      vertex 235.7000 -62.2213 52.2000
      vertex 244.7000 -62.2213 52.2000
      vertex 244.7000 -60.1000 50.0787
    endloop
  endfacet
  facet normal 0 0.707107 0.707107
    outer loop
      vertex 235.7000 -62.2213 52.2000
      vertex 244.7000 -60.1000 50.0787
      vertex 235.7000 -60.1000 50.0787
    endloop
  endfacet
  facet normal 0 1 0
    outer loop
      vertex 235.7000 -60.1000 27.2000
      vertex 235.7000 -60.1000 50.0787
      vertex 244.7000 -60.1000 50.0787
    endloop
  endfacet
  facet normal -1 0 0
    outer loop
      vertex 235.7000 -60.1000 27.2000
      vertex 235.7000 -16.9000 27.2000
      vertex 235.7000 -13.9000 0.0000
    endloop
  endfacet
  facet normal 0 1 0
    outer loop
      vertex 235.7000 -60.1000 27.2000
      vertex 244.7000 -60.1000 50.0787
      vertex 253.7000 -60.1000 27.2000
    endloop
  endfacet
  facet normal 0 0 1
    outer loop
      vertex 235.7000 -60.1000 27.2000
      vertex 253.7000 -60.1000 27.2000
      vertex 235.7000 -16.9000 27.2000
    endloop
  endfacet
  facet normal -1 0 0
    outer loop
      vertex 235.7000 -16.9000 27.2000
      vertex 235.7000 -16.9000 50.0787
      vertex 235.7000 -13.9000 52.2000
    endloop
  endfacet
  facet normal -1 0 0
    outer loop
      vertex 235.7000 -16.9000 27.2000
      vertex 235.7000 -13.9000 52.2000
      vertex 235.7000 -13.9000 0.0000
    endloop
  endfacet
  facet normal 0 -1 0
    outer loop
      vertex 235.7000 -16.9000 27.2000
      vertex 244.7000 -16.9000 50.0787
      vertex 235.7000 -16.9000 50.0787
    endloop
  endfacet
  facet normal 0 0 1
    outer loop
      vertex 235.7000 -16.9000 27.2000
      vertex 253.7000 -60.1000 27.2000
      vertex 253.7000 -16.9000 27.2000
    endloop
  endfacet
  facet normal 0 -1 0
    outer loop
      vertex 235.7000 -16.9000 27.2000
      vertex 253.7000 -16.9000 27.2000
      vertex 244.7000 -16.9000 50.0787
    endloop
  endfacet
  facet normal -1 0 0
    outer loop
      vertex 235.7000 -16.9000 50.0787
      vertex 235.7000 -14.7787 52.2000
      vertex 235.7000 -13.9000 52.2000
    endloop
  endfacet
  facet normal 0 -0.707107 0.707107
    outer loop
      vertex 235.7000 -16.9000 50.0787
      vertex 244.7000 -16.9000 50.0787
      vertex 244.7000 -14.7787 52.2000
    endloop
  endfacet
  facet normal 0 -0.707107 0.707107
    outer loop
      vertex 235.7000 -16.9000 50.0787
      vertex 244.7000 -14.7787 52.2000
      vertex 235.7000 -14.7787 52.2000
    endloop
  endfacet
  facet normal 0 0 1
    outer loop
      vertex 235.7000 -14.7787 52.2000
      vertex 244.7000 -14.7787 52.2000
      vertex 235.7000 -13.9000 52.2000
    endloop
  endfacet
  facet normal 0 1 0
    outer loop
      vertex 235.7000 -13.9000 0.0000
      vertex 235.7000 -13.9000 52.2000
      vertex 253.7000 -13.9000 0.0000
    endloop
  endfacet
  facet normal 0 0 -1
    outer loop
      vertex 235.7000 -13.9000 0.0000
      vertex 241.7000 -21.4000 0.0000
      vertex 241.7000 -27.4000 0.0000
    endloop
  endfacet
  facet normal 0 0 -1
    outer loop
      vertex 235.7000 -13.9000 0.0000
      vertex 253.7000 -13.9000 0.0000
      vertex 241.7000 -21.4000 0.0000
    endloop
  endfacet
  facet normal 0 0 1
    outer loop
      vertex 235.7000 -13.9000 52.2000
      vertex 244.7000 -14.7787 52.2000
      vertex 253.7000 -13.9000 52.2000
    endloop
  endfacet
  facet normal 0 1 0
    outer loop
      vertex 235.7000 -13.9000 52.2000
      vertex 253.7000 -13.9000 52.2000
      vertex 253.7000 -13.9000 0.0000
    endloop
  endfacet
  facet normal -1 0 0
    outer loop
      vertex 241.7000 -55.6000 -2.4000
      vertex 241.7000 -55.6000 0.0000
      vertex 241.7000 -49.6000 0.0000
    endloop
  endfacet
  facet normal 0 0 -1
    outer loop
      vertex 241.7000 -55.6000 -2.4000
      vertex 241.7000 -49.6000 -2.4000
      vertex 247.7000 -49.6000 -2.4000
    endloop
  endfacet
  facet normal -1 0 0
    outer loop
      vertex 241.7000 -55.6000 -2.4000
      vertex 241.7000 -49.6000 0.0000
      vertex 241.7000 -49.6000 -2.4000
    endloop
  endfacet
  facet normal 0 -1 0
    outer loop
      vertex 241.7000 -55.6000 -2.4000
      vertex 247.7000 -55.6000 -2.4000
      vertex 247.7000 -55.6000 0.0000
    endloop
  endfacet
  facet normal 0 -1 0
    outer loop
      vertex 241.7000 -55.6000 -2.4000
      vertex 247.7000 -55.6000 0.0000
      vertex 241.7000 -55.6000 0.0000
    endloop
  endfacet
  facet normal 0 0 -1
    outer loop
      vertex 241.7000 -55.6000 -2.4000
      vertex 247.7000 -49.6000 -2.4000
      vertex 247.7000 -55.6000 -2.4000
    endloop
  endfacet
  facet normal 0 0 -1
    outer loop
      vertex 241.7000 -55.6000 0.0000
      vertex 247.7000 -55.6000 0.0000
      vertex 253.7000 -63.1000 0.0000
    endloop
  endfacet
  facet normal 0 1 0
    outer loop
      vertex 241.7000 -49.6000 -2.4000
      vertex 241.7000 -49.6000 0.0000
      vertex 247.7000 -49.6000 -2.4000
    endloop
  endfacet
  facet normal 0 0 -1
    outer loop
      vertex 241.7000 -49.6000 0.0000
      vertex 241.7000 -27.4000 0.0000
      vertex 247.7000 -27.4000 0.0000
    endloop
  endfacet
  facet normal 0 1 0
    outer loop
      vertex 241.7000 -49.6000 0.0000
      vertex 247.7000 -49.6000 0.0000
      vertex 247.7000 -49.6000 -2.4000
    endloop
  endfacet
  facet normal 0 0 -1
    outer loop
      vertex 241.7000 -49.6000 0.0000
      vertex 247.7000 -27.4000 0.0000
      vertex 247.7000 -49.6000 0.0000
    endloop
  endfacet
  facet normal -1 0 0
    outer loop
      vertex 241.7000 -27.4000 -2.4000
      vertex 241.7000 -27.4000 0.0000
      vertex 241.7000 -21.4000 0.0000
    endloop
  endfacet
  facet normal 0 0 -1
    outer loop
      vertex 241.7000 -27.4000 -2.4000
      vertex 241.7000 -21.4000 -2.4000
      vertex 247.7000 -21.4000 -2.4000
    endloop
  endfacet
  facet normal -1 0 0
    outer loop
      vertex 241.7000 -27.4000 -2.4000
      vertex 241.7000 -21.4000 0.0000
      vertex 241.7000 -21.4000 -2.4000
    endloop
  endfacet
  facet normal 0 -1 0
    outer loop
      vertex 241.7000 -27.4000 -2.4000
      vertex 247.7000 -27.4000 -2.4000
      vertex 247.7000 -27.4000 0.0000
    endloop
  endfacet
  facet normal 0 -1 0
    outer loop
      vertex 241.7000 -27.4000 -2.4000
      vertex 247.7000 -27.4000 0.0000
      vertex 241.7000 -27.4000 0.0000
    endloop
  endfacet
  facet normal 0 0 -1
    outer loop
      vertex 241.7000 -27.4000 -2.4000
      vertex 247.7000 -21.4000 -2.4000
      vertex 247.7000 -27.4000 -2.4000
    endloop
  endfacet
  facet normal 0 1 0
    outer loop
      vertex 241.7000 -21.4000 -2.4000
      vertex 241.7000 -21.4000 0.0000
      vertex 247.7000 -21.4000 -2.4000
    endloop
  endfacet
  facet normal 0 1 0
    outer loop
      vertex 241.7000 -21.4000 0.0000
      vertex 247.7000 -21.4000 0.0000
      vertex 247.7000 -21.4000 -2.4000
    endloop
  endfacet
  facet normal 0 0 -1
    outer loop
      vertex 241.7000 -21.4000 0.0000
      vertex 253.7000 -13.9000 0.0000
      vertex 247.7000 -21.4000 0.0000
    endloop
  endfacet
  facet normal -1 0 0
    outer loop
      vertex 244.7000 -62.2213 52.2000
      vertex 244.7000 -60.1000 52.2000
      vertex 244.7000 -60.1000 50.0787
    endloop
  endfacet
  facet normal 0 0 1
    outer loop
      vertex 244.7000 -62.2213 52.2000
      vertex 253.7000 -63.1000 52.2000
      vertex 253.7000 -60.1000 52.2000
    endloop
  endfacet
  facet normal 0 0 1
    outer loop
      vertex 244.7000 -62.2213 52.2000
      vertex 253.7000 -60.1000 52.2000
      vertex 244.7000 -60.1000 52.2000
    endloop
  endfacet
  facet normal 0 1 0
    outer loop
      vertex 244.7000 -60.1000 50.0787
      vertex 244.7000 -60.1000 52.2000
      vertex 253.7000 -60.1000 52.2000
    endloop
  endfacet
  facet normal 0 1 0
    outer loop
      vertex 244.7000 -60.1000 50.0787
      vertex 253.7000 -60.1000 52.2000
      vertex 253.7000 -60.1000 27.2000
    endloop
  endfacet
  facet normal -1 0 0
    outer loop
      vertex 244.7000 -16.9000 50.0787
      vertex 244.7000 -16.9000 52.2000
      vertex 244.7000 -14.7787 52.2000
    endloop
  endfacet
  facet normal 0 -1 0
    outer loop
      vertex 244.7000 -16.9000 50.0787
      vertex 253.7000 -16.9000 27.2000
      vertex 253.7000 -16.9000 52.2000
    endloop
  endfacet
  facet normal 0 -1 0
    outer loop
      vertex 244.7000 -16.9000 50.0787
      vertex 253.7000 -16.9000 52.2000
      vertex 244.7000 -16.9000 52.2000
    endloop
  endfacet
  facet normal 0 0 1
    outer loop
      vertex 244.7000 -16.9000 52.2000
      vertex 253.7000 -16.9000 52.2000
      vertex 244.7000 -14.7787 52.2000
    endloop
  endfacet
  facet normal 0 0 1
    outer loop
      vertex 244.7000 -14.7787 52.2000
      vertex 253.7000 -16.9000 52.2000
      vertex 253.7000 -13.9000 52.2000
    endloop
  endfacet
  facet normal 1 0 0
    outer loop
      vertex 247.7000 -55.6000 -2.4000
      vertex 247.7000 -49.6000 -2.4000
      vertex 247.7000 -55.6000 0.0000
    endloop
  endfacet
  facet normal 1 0 0
    outer loop
      vertex 247.7000 -55.6000 0.0000
      vertex 247.7000 -49.6000 -2.4000
      vertex 247.7000 -49.6000 0.0000
    endloop
  endfacet
  facet normal 0 0 -1
    outer loop
      vertex 247.7000 -55.6000 0.0000
      vertex 247.7000 -49.6000 0.0000
      vertex 253.7000 -63.1000 0.0000
    endloop
  endfacet
  facet normal 0 0 -1
    outer loop
      vertex 247.7000 -49.6000 0.0000
      vertex 247.7000 -27.4000 0.0000
      vertex 253.7000 -13.9000 0.0000
    endloop
  endfacet
  facet normal 0 0 -1
    outer loop
      vertex 247.7000 -49.6000 0.0000
      vertex 253.7000 -13.9000 0.0000
      vertex 253.7000 -63.1000 0.0000
    endloop
  endfacet
  facet normal 1 0 0
    outer loop
      vertex 247.7000 -27.4000 -2.4000
      vertex 247.7000 -21.4000 -2.4000
      vertex 247.7000 -27.4000 0.0000
    endloop
  endfacet
  facet normal 1 0 0
    outer loop
      vertex 247.7000 -27.4000 0.0000
      vertex 247.7000 -21.4000 -2.4000
      vertex 247.7000 -21.4000 0.0000
    endloop
  endfacet
  facet normal 0 0 -1
    outer loop
      vertex 247.7000 -27.4000 0.0000
      vertex 247.7000 -21.4000 0.0000
      vertex 253.7000 -13.9000 0.0000
    endloop
  endfacet
  facet normal 1 0 0
    outer loop
      vertex 253.7000 -63.1000 0.0000
      vertex 253.7000 -60.1000 27.2000
      vertex 253.7000 -63.1000 52.2000
    endloop
  endfacet
  facet normal 1 0 0
    outer loop
      vertex 253.7000 -63.1000 0.0000
      vertex 253.7000 -13.9000 0.0000
      vertex 253.7000 -60.1000 27.2000
    endloop
  endfacet
  facet normal 1 0 0
    outer loop
      vertex 253.7000 -63.1000 52.2000
      vertex 253.7000 -60.1000 27.2000
      vertex 253.7000 -60.1000 52.2000
    endloop
  endfacet
  facet normal 1 0 0
    outer loop
      vertex 253.7000 -60.1000 27.2000
      vertex 253.7000 -13.9000 0.0000
      vertex 253.7000 -16.9000 27.2000
    endloop
  endfacet
  facet normal 1 0 0
    outer loop
      vertex 253.7000 -16.9000 27.2000
      vertex 253.7000 -13.9000 0.0000
      vertex 253.7000 -13.9000 52.2000
    endloop
  endfacet
  facet normal 1 0 0
    outer loop
      vertex 253.7000 -16.9000 27.2000
      vertex 253.7000 -13.9000 52.2000
      vertex 253.7000 -16.9000 52.2000
    endloop
  endfacet
endsolid OpenSCAD_Model
