solid OpenSCAD_Model
  facet normal -1 0 0
    outer loop
      vertex 85.7000 48.0000 0.0500
      vertex 85.7000 48.0000 150.0000
      vertex 85.7000 134.0000 150.0000
    endloop
  endfacet
  facet normal 0 0 -1
    outer loop
      vertex 85.7000 48.0000 0.0500
      vertex 85.7000 134.0000 0.0500
      vertex 245.7000 134.0000 0.0500
    endloop
  endfacet
  facet normal -1 0 0
    outer loop
      vertex 85.7000 48.0000 0.0500
      vertex 85.7000 134.0000 150.0000
      vertex 85.7000 134.0000 0.0500
    endloop
  endfacet
  facet normal 0 -1 0
    outer loop
      vertex 85.7000 48.0000 0.0500
      vertex 245.7000 48.0000 0.0500
      vertex 245.7000 48.0000 150.0000
    endloop
  endfacet
  facet normal 0 -1 0
    outer loop
      vertex 85.7000 48.0000 0.0500
      vertex 245.7000 48.0000 150.0000
      vertex 85.7000 48.0000 150.0000
    endloop
  endfacet
  facet normal 0 0 -1
    outer loop
      vertex 85.7000 48.0000 0.0500
      vertex 245.7000 134.0000 0.0500
      vertex 245.7000 48.0000 0.0500
    endloop
  endfacet
  facet normal 0 0 1
    outer loop
      vertex 85.7000 48.0000 150.0000
      vertex 245.7000 48.0000 150.0000
      vertex 85.7000 134.0000 150.0000
    endloop
  endfacet
  facet normal 0 1 0
    outer loop
      vertex 85.7000 134.0000 0.0500
      vertex 85.7000 134.0000 150.0000
      vertex 245.7000 134.0000 0.0500
    endloop
  endfacet
  facet normal 0 0 1
    outer loop
      vertex 85.7000 134.0000 150.0000
      vertex 245.7000 48.0000 150.0000
      vertex 245.7000 134.0000 150.0000
    endloop
  endfacet
  facet normal 0 1 0
    outer loop
      vertex 85.7000 134.0000 150.0000
      vertex 245.7000 134.0000 150.0000
      vertex 245.7000 134.0000 0.0500
    endloop
  endfacet
  facet normal 1 0 0
    outer loop
      vertex 245.7000 48.0000 0.0500
      vertex 245.7000 134.0000 0.0500
      vertex 245.7000 48.0000 150.0000
    endloop
  endfacet
  facet normal 1 0 0
    outer loop
      vertex 245.7000 48.0000 150.0000
      vertex 245.7000 134.0000 0.0500
      vertex 245.7000 134.0000 150.0000
    endloop
  endfacet
endsolid OpenSCAD_Model
