solid OpenSCAD_Model
  facet normal 0.321435 -0.946932 0
    outer loop
      vertex 5.0353 0.1363 0.0000
      vertex 5.5307 0.3045 1.6000
      vertex 5.0353 0.1363 1.6000
    endloop
  endfacet
  facet normal 0.321435 -0.946932 0
    outer loop
      vertex 5.5307 0.3045 1.6000
      vertex 5.0353 0.1363 0.0000
      vertex 5.5307 0.3045 0.0000
    endloop
  endfacet
  facet normal 0.980784 -0.195096 3.65328e-19
    outer loop
      vertex 7.8637 2.9647 1.6000
      vertex 7.9658 3.4779 0.0000
      vertex 7.9658 3.4779 1.6000
    endloop
  endfacet
  facet normal 0.980784 -0.195096 3.65328e-19
    outer loop
      vertex 7.9658 3.4779 0.0000
      vertex 7.8637 2.9647 1.6000
      vertex 7.8637 2.9647 0.0000
    endloop
  endfacet
  facet normal 0.997859 -0.0654022 2.85806e-19
    outer loop
      vertex 7.9658 3.4779 1.6000
      vertex 8.0000 4.0000 0.0000
      vertex 8.0000 4.0000 1.6000
    endloop
  endfacet
  facet normal 0.997859 -0.0654022 2.85806e-19
    outer loop
      vertex 8.0000 4.0000 0.0000
      vertex 7.9658 3.4779 1.6000
      vertex 7.9658 3.4779 0.0000
    endloop
  endfacet
  facet normal 0.946932 -0.321435 2.81118e-18
    outer loop
      vertex 7.6955 2.4693 1.6000
      vertex 7.8637 2.9647 0.0000
      vertex 7.8637 2.9647 1.6000
    endloop
  endfacet
  facet normal 0.946932 -0.321435 2.81118e-18
    outer loop
      vertex 7.8637 2.9647 0.0000
      vertex 7.6955 2.4693 1.6000
      vertex 7.6955 2.4693 0.0000
    endloop
  endfacet
  facet normal 0.442291 -0.896871 0
    outer loop
      vertex 5.5307 0.3045 0.0000
      vertex 6.0000 0.5359 1.6000
      vertex 5.5307 0.3045 1.6000
    endloop
  endfacet
  facet normal 0.442291 -0.896871 0
    outer loop
      vertex 6.0000 0.5359 1.6000
      vertex 5.5307 0.3045 0.0000
      vertex 6.0000 0.5359 0.0000
    endloop
  endfacet
  facet normal -0.997859 0.0654022 2.85806e-19
    outer loop
      vertex 0.0000 4.0000 0.0000
      vertex 0.0342 4.5221 1.6000
      vertex 0.0342 4.5221 0.0000
    endloop
  endfacet
  facet normal -0.997859 0.0654022 2.85806e-19
    outer loop
      vertex 0.0342 4.5221 1.6000
      vertex 0.0000 4.0000 0.0000
      vertex 0.0000 4.0000 1.6000
    endloop
  endfacet
  facet normal 0.896871 -0.442291 8.65761e-19
    outer loop
      vertex 7.4641 2.0000 1.6000
      vertex 7.6955 2.4693 0.0000
      vertex 7.6955 2.4693 1.6000
    endloop
  endfacet
  facet normal 0.896871 -0.442291 8.65761e-19
    outer loop
      vertex 7.6955 2.4693 0.0000
      vertex 7.4641 2.0000 1.6000
      vertex 7.4641 2.0000 0.0000
    endloop
  endfacet
  facet normal 0.831471 -0.555569 -4.32025e-18
    outer loop
      vertex 7.1734 1.5650 1.6000
      vertex 7.4641 2.0000 0.0000
      vertex 7.4641 2.0000 1.6000
    endloop
  endfacet
  facet normal 0.831471 -0.555569 -4.32025e-18
    outer loop
      vertex 7.4641 2.0000 0.0000
      vertex 7.1734 1.5650 1.6000
      vertex 7.1734 1.5650 0.0000
    endloop
  endfacet
  facet normal -0.65934 -0.751845 0
    outer loop
      vertex 1.1716 1.1716 0.0000
      vertex 1.5650 0.8266 1.6000
      vertex 1.1716 1.1716 1.6000
    endloop
  endfacet
  facet normal -0.65934 -0.751845 -0
    outer loop
      vertex 1.5650 0.8266 1.6000
      vertex 1.1716 1.1716 0.0000
      vertex 1.5650 0.8266 0.0000
    endloop
  endfacet
  facet normal 0.751845 -0.65934 2.36824e-18
    outer loop
      vertex 6.8284 1.1716 1.6000
      vertex 7.1734 1.5650 0.0000
      vertex 7.1734 1.5650 1.6000
    endloop
  endfacet
  facet normal 0.751845 -0.65934 2.36824e-18
    outer loop
      vertex 7.1734 1.5650 0.0000
      vertex 6.8284 1.1716 1.6000
      vertex 6.8284 1.1716 0.0000
    endloop
  endfacet
  facet normal -0.980784 -0.195096 -3.65328e-19
    outer loop
      vertex 0.1363 2.9647 0.0000
      vertex 0.0342 3.4779 1.6000
      vertex 0.0342 3.4779 0.0000
    endloop
  endfacet
  facet normal -0.980784 -0.195096 -3.65328e-19
    outer loop
      vertex 0.0342 3.4779 1.6000
      vertex 0.1363 2.9647 0.0000
      vertex 0.1363 2.9647 1.6000
    endloop
  endfacet
  facet normal -0.555569 0.831471 0
    outer loop
      vertex 2.0000 7.4641 0.0000
      vertex 1.5650 7.1734 1.6000
      vertex 2.0000 7.4641 1.6000
    endloop
  endfacet
  facet normal -0.555569 0.831471 0
    outer loop
      vertex 1.5650 7.1734 1.6000
      vertex 2.0000 7.4641 0.0000
      vertex 1.5650 7.1734 0.0000
    endloop
  endfacet
  facet normal -0.997859 -0.0654022 -2.85806e-19
    outer loop
      vertex 0.0342 3.4779 0.0000
      vertex 0.0000 4.0000 1.6000
      vertex 0.0000 4.0000 0.0000
    endloop
  endfacet
  facet normal -0.997859 -0.0654022 -2.85806e-19
    outer loop
      vertex 0.0000 4.0000 1.6000
      vertex 0.0342 3.4779 0.0000
      vertex 0.0342 3.4779 1.6000
    endloop
  endfacet
  facet normal -0.751845 0.65934 2.36824e-18
    outer loop
      vertex 0.8266 6.4351 0.0000
      vertex 1.1716 6.8284 1.6000
      vertex 1.1716 6.8284 0.0000
    endloop
  endfacet
  facet normal -0.751845 0.65934 2.36824e-18
    outer loop
      vertex 1.1716 6.8284 1.6000
      vertex 0.8266 6.4351 0.0000
      vertex 0.8266 6.4351 1.6000
    endloop
  endfacet
  facet normal 0.195096 0.980784 -0
    outer loop
      vertex 5.0353 7.8637 0.0000
      vertex 4.5221 7.9658 1.6000
      vertex 5.0353 7.8637 1.6000
    endloop
  endfacet
  facet normal 0.195096 0.980784 0
    outer loop
      vertex 4.5221 7.9658 1.6000
      vertex 5.0353 7.8637 0.0000
      vertex 4.5221 7.9658 0.0000
    endloop
  endfacet
  facet normal -0.442291 -0.896871 0
    outer loop
      vertex 2.0000 0.5359 0.0000
      vertex 2.4693 0.3045 1.6000
      vertex 2.0000 0.5359 1.6000
    endloop
  endfacet
  facet normal -0.442291 -0.896871 -0
    outer loop
      vertex 2.4693 0.3045 1.6000
      vertex 2.0000 0.5359 0.0000
      vertex 2.4693 0.3045 0.0000
    endloop
  endfacet
  facet normal -0.321435 0.946932 0
    outer loop
      vertex 2.9647 7.8637 0.0000
      vertex 2.4693 7.6955 1.6000
      vertex 2.9647 7.8637 1.6000
    endloop
  endfacet
  facet normal -0.321435 0.946932 0
    outer loop
      vertex 2.4693 7.6955 1.6000
      vertex 2.9647 7.8637 0.0000
      vertex 2.4693 7.6955 0.0000
    endloop
  endfacet
  facet normal 0.980784 0.195096 -3.65328e-19
    outer loop
      vertex 7.9658 4.5221 1.6000
      vertex 7.8637 5.0353 0.0000
      vertex 7.8637 5.0353 1.6000
    endloop
  endfacet
  facet normal 0.980784 0.195096 -3.65328e-19
    outer loop
      vertex 7.8637 5.0353 0.0000
      vertex 7.9658 4.5221 1.6000
      vertex 7.9658 4.5221 0.0000
    endloop
  endfacet
  facet normal -0.751845 -0.65934 -2.36824e-18
    outer loop
      vertex 1.1716 1.1716 0.0000
      vertex 0.8266 1.5650 1.6000
      vertex 0.8266 1.5650 0.0000
    endloop
  endfacet
  facet normal -0.751845 -0.65934 -2.36824e-18
    outer loop
      vertex 0.8266 1.5650 1.6000
      vertex 1.1716 1.1716 0.0000
      vertex 1.1716 1.1716 1.6000
    endloop
  endfacet
  facet normal 0.831471 0.555569 4.32025e-18
    outer loop
      vertex 7.4641 6.0000 1.6000
      vertex 7.1734 6.4351 0.0000
      vertex 7.1734 6.4351 1.6000
    endloop
  endfacet
  facet normal 0.831471 0.555569 4.32025e-18
    outer loop
      vertex 7.1734 6.4351 0.0000
      vertex 7.4641 6.0000 1.6000
      vertex 7.4641 6.0000 0.0000
    endloop
  endfacet
  facet normal -0.321435 -0.946932 0
    outer loop
      vertex 2.4693 0.3045 0.0000
      vertex 2.9647 0.1363 1.6000
      vertex 2.4693 0.3045 1.6000
    endloop
  endfacet
  facet normal -0.321435 -0.946932 -0
    outer loop
      vertex 2.9647 0.1363 1.6000
      vertex 2.4693 0.3045 0.0000
      vertex 2.9647 0.1363 0.0000
    endloop
  endfacet
  facet normal -0.980784 0.195096 3.65328e-19
    outer loop
      vertex 0.0342 4.5221 0.0000
      vertex 0.1363 5.0353 1.6000
      vertex 0.1363 5.0353 0.0000
    endloop
  endfacet
  facet normal -0.980784 0.195096 3.65328e-19
    outer loop
      vertex 0.1363 5.0353 1.6000
      vertex 0.0342 4.5221 0.0000
      vertex 0.0342 4.5221 1.6000
    endloop
  endfacet
  facet normal -0.195096 0.980784 0
    outer loop
      vertex 3.4779 7.9658 0.0000
      vertex 2.9647 7.8637 1.6000
      vertex 3.4779 7.9658 1.6000
    endloop
  endfacet
  facet normal -0.195096 0.980784 0
    outer loop
      vertex 2.9647 7.8637 1.6000
      vertex 3.4779 7.9658 0.0000
      vertex 2.9647 7.8637 0.0000
    endloop
  endfacet
  facet normal 0.555569 -0.831471 0
    outer loop
      vertex 6.0000 0.5359 0.0000
      vertex 6.4351 0.8266 1.6000
      vertex 6.0000 0.5359 1.6000
    endloop
  endfacet
  facet normal 0.555569 -0.831471 0
    outer loop
      vertex 6.4351 0.8266 1.6000
      vertex 6.0000 0.5359 0.0000
      vertex 6.4351 0.8266 0.0000
    endloop
  endfacet
  facet normal 0.946932 0.321435 -2.81118e-18
    outer loop
      vertex 7.8637 5.0353 1.6000
      vertex 7.6955 5.5307 0.0000
      vertex 7.6955 5.5307 1.6000
    endloop
  endfacet
  facet normal 0.946932 0.321435 -2.81118e-18
    outer loop
      vertex 7.6955 5.5307 0.0000
      vertex 7.8637 5.0353 1.6000
      vertex 7.8637 5.0353 0.0000
    endloop
  endfacet
  facet normal 0.0654022 0.997859 -0
    outer loop
      vertex 4.5221 7.9658 0.0000
      vertex 4.0000 8.0000 1.6000
      vertex 4.5221 7.9658 1.6000
    endloop
  endfacet
  facet normal 0.0654022 0.997859 0
    outer loop
      vertex 4.0000 8.0000 1.6000
      vertex 4.5221 7.9658 0.0000
      vertex 4.0000 8.0000 0.0000
    endloop
  endfacet
  facet normal 0.751845 0.65934 -2.36824e-18
    outer loop
      vertex 7.1734 6.4351 1.6000
      vertex 6.8284 6.8284 0.0000
      vertex 6.8284 6.8284 1.6000
    endloop
  endfacet
  facet normal 0.751845 0.65934 -2.36824e-18
    outer loop
      vertex 6.8284 6.8284 0.0000
      vertex 7.1734 6.4351 1.6000
      vertex 7.1734 6.4351 0.0000
    endloop
  endfacet
  facet normal -0.0654022 -0.997859 0
    outer loop
      vertex 3.4779 0.0342 0.0000
      vertex 4.0000 0.0000 1.6000
      vertex 3.4779 0.0342 1.6000
    endloop
  endfacet
  facet normal -0.0654022 -0.997859 -0
    outer loop
      vertex 4.0000 0.0000 1.6000
      vertex 3.4779 0.0342 0.0000
      vertex 4.0000 0.0000 0.0000
    endloop
  endfacet
  facet normal 0.555569 0.831471 -0
    outer loop
      vertex 6.4351 7.1734 0.0000
      vertex 6.0000 7.4641 1.6000
      vertex 6.4351 7.1734 1.6000
    endloop
  endfacet
  facet normal 0.555569 0.831471 0
    outer loop
      vertex 6.0000 7.4641 1.6000
      vertex 6.4351 7.1734 0.0000
      vertex 6.0000 7.4641 0.0000
    endloop
  endfacet
  facet normal -0.65934 0.751845 0
    outer loop
      vertex 1.5650 7.1734 0.0000
      vertex 1.1716 6.8284 1.6000
      vertex 1.5650 7.1734 1.6000
    endloop
  endfacet
  facet normal -0.65934 0.751845 0
    outer loop
      vertex 1.1716 6.8284 1.6000
      vertex 1.5650 7.1734 0.0000
      vertex 1.1716 6.8284 0.0000
    endloop
  endfacet
  facet normal 0.65934 -0.751845 0
    outer loop
      vertex 6.4351 0.8266 0.0000
      vertex 6.8284 1.1716 1.6000
      vertex 6.4351 0.8266 1.6000
    endloop
  endfacet
  facet normal 0.65934 -0.751845 0
    outer loop
      vertex 6.8284 1.1716 1.6000
      vertex 6.4351 0.8266 0.0000
      vertex 6.8284 1.1716 0.0000
    endloop
  endfacet
  facet normal -0.896871 -0.442291 -8.65761e-19
    outer loop
      vertex 0.5359 2.0000 0.0000
      vertex 0.3045 2.4693 1.6000
      vertex 0.3045 2.4693 0.0000
    endloop
  endfacet
  facet normal -0.896871 -0.442291 -8.65761e-19
    outer loop
      vertex 0.3045 2.4693 1.6000
      vertex 0.5359 2.0000 0.0000
      vertex 0.5359 2.0000 1.6000
    endloop
  endfacet
  facet normal 0.0654022 -0.997859 0
    outer loop
      vertex 4.0000 0.0000 0.0000
      vertex 4.5221 0.0342 1.6000
      vertex 4.0000 0.0000 1.6000
    endloop
  endfacet
  facet normal 0.0654022 -0.997859 0
    outer loop
      vertex 4.5221 0.0342 1.6000
      vertex 4.0000 0.0000 0.0000
      vertex 4.5221 0.0342 0.0000
    endloop
  endfacet
  facet normal 0.997859 0.0654022 -2.85806e-19
    outer loop
      vertex 8.0000 4.0000 1.6000
      vertex 7.9658 4.5221 0.0000
      vertex 7.9658 4.5221 1.6000
    endloop
  endfacet
  facet normal 0.997859 0.0654022 -2.85806e-19
    outer loop
      vertex 7.9658 4.5221 0.0000
      vertex 8.0000 4.0000 1.6000
      vertex 8.0000 4.0000 0.0000
    endloop
  endfacet
  facet normal -0.195096 -0.980784 0
    outer loop
      vertex 2.9647 0.1363 0.0000
      vertex 3.4779 0.0342 1.6000
      vertex 2.9647 0.1363 1.6000
    endloop
  endfacet
  facet normal -0.195096 -0.980784 -0
    outer loop
      vertex 3.4779 0.0342 1.6000
      vertex 2.9647 0.1363 0.0000
      vertex 3.4779 0.0342 0.0000
    endloop
  endfacet
  facet normal -0.555569 -0.831471 0
    outer loop
      vertex 1.5650 0.8266 0.0000
      vertex 2.0000 0.5359 1.6000
      vertex 1.5650 0.8266 1.6000
    endloop
  endfacet
  facet normal -0.555569 -0.831471 -0
    outer loop
      vertex 2.0000 0.5359 1.6000
      vertex 1.5650 0.8266 0.0000
      vertex 2.0000 0.5359 0.0000
    endloop
  endfacet
  facet normal -0.0654022 0.997859 0
    outer loop
      vertex 4.0000 8.0000 0.0000
      vertex 3.4779 7.9658 1.6000
      vertex 4.0000 8.0000 1.6000
    endloop
  endfacet
  facet normal -0.0654022 0.997859 0
    outer loop
      vertex 3.4779 7.9658 1.6000
      vertex 4.0000 8.0000 0.0000
      vertex 3.4779 7.9658 0.0000
    endloop
  endfacet
  facet normal 0.896871 0.442291 -8.65761e-19
    outer loop
      vertex 7.6955 5.5307 1.6000
      vertex 7.4641 6.0000 0.0000
      vertex 7.4641 6.0000 1.6000
    endloop
  endfacet
  facet normal 0.896871 0.442291 -8.65761e-19
    outer loop
      vertex 7.4641 6.0000 0.0000
      vertex 7.6955 5.5307 1.6000
      vertex 7.6955 5.5307 0.0000
    endloop
  endfacet
  facet normal -0.946932 -0.321435 -2.81118e-18
    outer loop
      vertex 0.3045 2.4693 0.0000
      vertex 0.1363 2.9647 1.6000
      vertex 0.1363 2.9647 0.0000
    endloop
  endfacet
  facet normal -0.946932 -0.321435 -2.81118e-18
    outer loop
      vertex 0.1363 2.9647 1.6000
      vertex 0.3045 2.4693 0.0000
      vertex 0.3045 2.4693 1.6000
    endloop
  endfacet
  facet normal -0.946932 0.321435 2.81118e-18
    outer loop
      vertex 0.1363 5.0353 0.0000
      vertex 0.3045 5.5307 1.6000
      vertex 0.3045 5.5307 0.0000
    endloop
  endfacet
  facet normal -0.946932 0.321435 2.81118e-18
    outer loop
      vertex 0.3045 5.5307 1.6000
      vertex 0.1363 5.0353 0.0000
      vertex 0.1363 5.0353 1.6000
    endloop
  endfacet
  facet normal 0 0 -1
    outer loop
      vertex 5.7000 4.0000 0.0000
      vertex 8.0000 4.0000 0.0000
      vertex 7.9658 3.4779 0.0000
    endloop
  endfacet
  facet normal 0 0 -1
    outer loop
      vertex 5.6628 3.6465 0.0000
      vertex 7.9658 3.4779 0.0000
      vertex 7.8637 2.9647 0.0000
    endloop
  endfacet
  facet normal 0 0 -1
    outer loop
      vertex 8.0000 4.0000 0.0000
      vertex 5.7000 4.0000 0.0000
      vertex 7.9658 4.5221 0.0000
    endloop
  endfacet
  facet normal 0 0 -1
    outer loop
      vertex 5.5530 3.3085 0.0000
      vertex 7.8637 2.9647 0.0000
      vertex 7.6955 2.4693 0.0000
    endloop
  endfacet
  facet normal 0 0 -1
    outer loop
      vertex 5.6628 4.3534 0.0000
      vertex 7.9658 4.5221 0.0000
      vertex 5.7000 4.0000 0.0000
    endloop
  endfacet
  facet normal 0 0 -1
    outer loop
      vertex 5.5530 3.3085 0.0000
      vertex 7.6955 2.4693 0.0000
      vertex 7.4641 2.0000 0.0000
    endloop
  endfacet
  facet normal -0 0 -1
    outer loop
      vertex 7.9658 4.5221 0.0000
      vertex 5.6628 4.3534 0.0000
      vertex 7.8637 5.0353 0.0000
    endloop
  endfacet
  facet normal 0 0 -1
    outer loop
      vertex 5.3753 3.0008 0.0000
      vertex 7.4641 2.0000 0.0000
      vertex 7.1734 1.5650 0.0000
    endloop
  endfacet
  facet normal 0 0 -1
    outer loop
      vertex 5.5530 4.6915 0.0000
      vertex 7.8637 5.0353 0.0000
      vertex 5.6628 4.3534 0.0000
    endloop
  endfacet
  facet normal 0 0 -1
    outer loop
      vertex 5.3753 3.0008 0.0000
      vertex 7.1734 1.5650 0.0000
      vertex 6.8284 1.1716 0.0000
    endloop
  endfacet
  facet normal -0 0 -1
    outer loop
      vertex 7.8637 5.0353 0.0000
      vertex 5.5530 4.6915 0.0000
      vertex 7.6955 5.5307 0.0000
    endloop
  endfacet
  facet normal 0 0 -1
    outer loop
      vertex 5.1375 2.7367 0.0000
      vertex 6.8284 1.1716 0.0000
      vertex 6.4351 0.8266 0.0000
    endloop
  endfacet
  facet normal -0 0 -1
    outer loop
      vertex 7.6955 5.5307 0.0000
      vertex 5.5530 4.6915 0.0000
      vertex 7.4641 6.0000 0.0000
    endloop
  endfacet
  facet normal 0 0 -1
    outer loop
      vertex 4.8500 2.5278 0.0000
      vertex 6.4351 0.8266 0.0000
      vertex 6.0000 0.5359 0.0000
    endloop
  endfacet
  facet normal 0 0 -1
    outer loop
      vertex 5.3753 4.9992 0.0000
      vertex 7.4641 6.0000 0.0000
      vertex 5.5530 4.6915 0.0000
    endloop
  endfacet
  facet normal -0 0 -1
    outer loop
      vertex 7.4641 6.0000 0.0000
      vertex 5.3753 4.9992 0.0000
      vertex 7.1734 6.4351 0.0000
    endloop
  endfacet
  facet normal 0 0 -1
    outer loop
      vertex 7.9658 3.4779 0.0000
      vertex 5.6628 3.6465 0.0000
      vertex 5.7000 4.0000 0.0000
    endloop
  endfacet
  facet normal 0 0 -1
    outer loop
      vertex 7.8637 2.9647 0.0000
      vertex 5.5530 3.3085 0.0000
      vertex 5.6628 3.6465 0.0000
    endloop
  endfacet
  facet normal 0 0 -1
    outer loop
      vertex 4.8500 2.5278 0.0000
      vertex 6.0000 0.5359 0.0000
      vertex 5.5307 0.3045 0.0000
    endloop
  endfacet
  facet normal 0 0 -1
    outer loop
      vertex 7.4641 2.0000 0.0000
      vertex 5.3753 3.0008 0.0000
      vertex 5.5530 3.3085 0.0000
    endloop
  endfacet
  facet normal 0 0 -1
    outer loop
      vertex 6.8284 1.1716 0.0000
      vertex 5.1375 2.7367 0.0000
      vertex 5.3753 3.0008 0.0000
    endloop
  endfacet
  facet normal 0 0 -1
    outer loop
      vertex 4.5253 2.3832 0.0000
      vertex 5.5307 0.3045 0.0000
      vertex 5.0353 0.1363 0.0000
    endloop
  endfacet
  facet normal 0 0 -1
    outer loop
      vertex 6.4351 0.8266 0.0000
      vertex 4.8500 2.5278 0.0000
      vertex 5.1375 2.7367 0.0000
    endloop
  endfacet
  facet normal 0 0 -1
    outer loop
      vertex 5.5307 0.3045 0.0000
      vertex 4.5253 2.3832 0.0000
      vertex 4.8500 2.5278 0.0000
    endloop
  endfacet
  facet normal 0 0 -1
    outer loop
      vertex 4.1777 2.3093 0.0000
      vertex 5.0353 0.1363 0.0000
      vertex 4.5221 0.0342 0.0000
    endloop
  endfacet
  facet normal 0 0 -1
    outer loop
      vertex 5.0353 0.1363 0.0000
      vertex 4.1777 2.3093 0.0000
      vertex 4.5253 2.3832 0.0000
    endloop
  endfacet
  facet normal 0 0 -1
    outer loop
      vertex 4.0000 0.0000 0.0000
      vertex 4.1777 2.3093 0.0000
      vertex 4.5221 0.0342 0.0000
    endloop
  endfacet
  facet normal 0 0 -1
    outer loop
      vertex 4.0000 0.0000 0.0000
      vertex 3.8223 2.3093 0.0000
      vertex 4.1777 2.3093 0.0000
    endloop
  endfacet
  facet normal 0 0 -1
    outer loop
      vertex 3.4779 0.0342 0.0000
      vertex 3.8223 2.3093 0.0000
      vertex 4.0000 0.0000 0.0000
    endloop
  endfacet
  facet normal 0 0 -1
    outer loop
      vertex 2.9647 0.1363 0.0000
      vertex 3.8223 2.3093 0.0000
      vertex 3.4779 0.0342 0.0000
    endloop
  endfacet
  facet normal -0 0 -1
    outer loop
      vertex 3.8223 2.3093 0.0000
      vertex 2.9647 0.1363 0.0000
      vertex 3.4747 2.3832 0.0000
    endloop
  endfacet
  facet normal 0 0 -1
    outer loop
      vertex 2.4693 0.3045 0.0000
      vertex 3.4747 2.3832 0.0000
      vertex 2.9647 0.1363 0.0000
    endloop
  endfacet
  facet normal -0 0 -1
    outer loop
      vertex 3.4747 2.3832 0.0000
      vertex 2.4693 0.3045 0.0000
      vertex 3.1500 2.5278 0.0000
    endloop
  endfacet
  facet normal 0 0 -1
    outer loop
      vertex 2.0000 0.5359 0.0000
      vertex 3.1500 2.5278 0.0000
      vertex 2.4693 0.3045 0.0000
    endloop
  endfacet
  facet normal 0 0 -1
    outer loop
      vertex 1.5650 0.8266 0.0000
      vertex 3.1500 2.5278 0.0000
      vertex 2.0000 0.5359 0.0000
    endloop
  endfacet
  facet normal -0 0 -1
    outer loop
      vertex 3.1500 2.5278 0.0000
      vertex 1.5650 0.8266 0.0000
      vertex 2.8625 2.7367 0.0000
    endloop
  endfacet
  facet normal 0 0 -1
    outer loop
      vertex 1.1716 1.1716 0.0000
      vertex 2.8625 2.7367 0.0000
      vertex 1.5650 0.8266 0.0000
    endloop
  endfacet
  facet normal -0 0 -1
    outer loop
      vertex 2.8625 2.7367 0.0000
      vertex 1.1716 1.1716 0.0000
      vertex 2.6247 3.0008 0.0000
    endloop
  endfacet
  facet normal 0 0 -1
    outer loop
      vertex 0.8266 1.5650 0.0000
      vertex 2.6247 3.0008 0.0000
      vertex 1.1716 1.1716 0.0000
    endloop
  endfacet
  facet normal -0 0 -1
    outer loop
      vertex 7.1734 6.4351 0.0000
      vertex 5.3753 4.9992 0.0000
      vertex 6.8284 6.8284 0.0000
    endloop
  endfacet
  facet normal 0 0 -1
    outer loop
      vertex 5.1375 5.2633 0.0000
      vertex 6.8284 6.8284 0.0000
      vertex 5.3753 4.9992 0.0000
    endloop
  endfacet
  facet normal -0 0 -1
    outer loop
      vertex 6.8284 6.8284 0.0000
      vertex 5.1375 5.2633 0.0000
      vertex 6.4351 7.1734 0.0000
    endloop
  endfacet
  facet normal 0 0 -1
    outer loop
      vertex 4.8500 5.4722 0.0000
      vertex 6.4351 7.1734 0.0000
      vertex 5.1375 5.2633 0.0000
    endloop
  endfacet
  facet normal -0 0 -1
    outer loop
      vertex 6.4351 7.1734 0.0000
      vertex 4.8500 5.4722 0.0000
      vertex 6.0000 7.4641 0.0000
    endloop
  endfacet
  facet normal -0 0 -1
    outer loop
      vertex 6.0000 7.4641 0.0000
      vertex 4.8500 5.4722 0.0000
      vertex 5.5307 7.6955 0.0000
    endloop
  endfacet
  facet normal 0 0 -1
    outer loop
      vertex 4.5253 5.6168 0.0000
      vertex 5.5307 7.6955 0.0000
      vertex 4.8500 5.4722 0.0000
    endloop
  endfacet
  facet normal -0 0 -1
    outer loop
      vertex 5.5307 7.6955 0.0000
      vertex 4.5253 5.6168 0.0000
      vertex 5.0353 7.8637 0.0000
    endloop
  endfacet
  facet normal 0 0 -1
    outer loop
      vertex 4.1777 5.6907 0.0000
      vertex 5.0353 7.8637 0.0000
      vertex 4.5253 5.6168 0.0000
    endloop
  endfacet
  facet normal -0 0 -1
    outer loop
      vertex 5.0353 7.8637 0.0000
      vertex 4.1777 5.6907 0.0000
      vertex 4.5221 7.9658 0.0000
    endloop
  endfacet
  facet normal 0 0 -1
    outer loop
      vertex 4.1777 5.6907 0.0000
      vertex 4.0000 8.0000 0.0000
      vertex 4.5221 7.9658 0.0000
    endloop
  endfacet
  facet normal 0 0 -1
    outer loop
      vertex 3.8223 5.6907 0.0000
      vertex 4.0000 8.0000 0.0000
      vertex 4.1777 5.6907 0.0000
    endloop
  endfacet
  facet normal 0 0 -1
    outer loop
      vertex 3.8223 5.6907 0.0000
      vertex 3.4779 7.9658 0.0000
      vertex 4.0000 8.0000 0.0000
    endloop
  endfacet
  facet normal 0 0 -1
    outer loop
      vertex 2.9647 7.8637 0.0000
      vertex 3.8223 5.6907 0.0000
      vertex 3.4747 5.6168 0.0000
    endloop
  endfacet
  facet normal 0 0 -1
    outer loop
      vertex 2.4693 7.6955 0.0000
      vertex 3.4747 5.6168 0.0000
      vertex 3.1500 5.4722 0.0000
    endloop
  endfacet
  facet normal 0 0 -1
    outer loop
      vertex 3.8223 5.6907 0.0000
      vertex 2.9647 7.8637 0.0000
      vertex 3.4779 7.9658 0.0000
    endloop
  endfacet
  facet normal 0 0 -1
    outer loop
      vertex 1.5650 7.1734 0.0000
      vertex 3.1500 5.4722 0.0000
      vertex 2.8625 5.2633 0.0000
    endloop
  endfacet
  facet normal 0 0 -1
    outer loop
      vertex 1.1716 6.8284 0.0000
      vertex 2.8625 5.2633 0.0000
      vertex 2.6247 4.9992 0.0000
    endloop
  endfacet
  facet normal 0 0 -1
    outer loop
      vertex 3.4747 5.6168 0.0000
      vertex 2.4693 7.6955 0.0000
      vertex 2.9647 7.8637 0.0000
    endloop
  endfacet
  facet normal 0 0 -1
    outer loop
      vertex 0.5359 6.0000 0.0000
      vertex 2.6247 4.9992 0.0000
      vertex 2.4470 4.6915 0.0000
    endloop
  endfacet
  facet normal 0 0 -1
    outer loop
      vertex 0.1363 5.0353 0.0000
      vertex 2.4470 4.6915 0.0000
      vertex 2.3372 4.3534 0.0000
    endloop
  endfacet
  facet normal 0 0 -1
    outer loop
      vertex 0.0342 4.5221 0.0000
      vertex 2.3372 4.3534 0.0000
      vertex 2.3000 4.0000 0.0000
    endloop
  endfacet
  facet normal 0 0 -1
    outer loop
      vertex 0.5359 2.0000 0.0000
      vertex 2.6247 3.0008 0.0000
      vertex 0.8266 1.5650 0.0000
    endloop
  endfacet
  facet normal 0 0 -1
    outer loop
      vertex 3.1500 5.4722 0.0000
      vertex 2.0000 7.4641 0.0000
      vertex 2.4693 7.6955 0.0000
    endloop
  endfacet
  facet normal -0 0 -1
    outer loop
      vertex 2.6247 3.0008 0.0000
      vertex 0.5359 2.0000 0.0000
      vertex 2.4470 3.3085 0.0000
    endloop
  endfacet
  facet normal 0 0 -1
    outer loop
      vertex 3.1500 5.4722 0.0000
      vertex 1.5650 7.1734 0.0000
      vertex 2.0000 7.4641 0.0000
    endloop
  endfacet
  facet normal 0 0 -1
    outer loop
      vertex 0.3045 2.4693 0.0000
      vertex 2.4470 3.3085 0.0000
      vertex 0.5359 2.0000 0.0000
    endloop
  endfacet
  facet normal 0 0 -1
    outer loop
      vertex 2.8625 5.2633 0.0000
      vertex 1.1716 6.8284 0.0000
      vertex 1.5650 7.1734 0.0000
    endloop
  endfacet
  facet normal 0 0 -1
    outer loop
      vertex 0.1363 2.9647 0.0000
      vertex 2.4470 3.3085 0.0000
      vertex 0.3045 2.4693 0.0000
    endloop
  endfacet
  facet normal 0 0 -1
    outer loop
      vertex 2.6247 4.9992 0.0000
      vertex 0.8266 6.4351 0.0000
      vertex 1.1716 6.8284 0.0000
    endloop
  endfacet
  facet normal -0 0 -1
    outer loop
      vertex 2.4470 3.3085 0.0000
      vertex 0.1363 2.9647 0.0000
      vertex 2.3372 3.6465 0.0000
    endloop
  endfacet
  facet normal 0 0 -1
    outer loop
      vertex 2.6247 4.9992 0.0000
      vertex 0.5359 6.0000 0.0000
      vertex 0.8266 6.4351 0.0000
    endloop
  endfacet
  facet normal 0 0 -1
    outer loop
      vertex 0.0342 3.4779 0.0000
      vertex 2.3372 3.6465 0.0000
      vertex 0.1363 2.9647 0.0000
    endloop
  endfacet
  facet normal 0 0 -1
    outer loop
      vertex 2.4470 4.6915 0.0000
      vertex 0.3045 5.5307 0.0000
      vertex 0.5359 6.0000 0.0000
    endloop
  endfacet
  facet normal -0 0 -1
    outer loop
      vertex 2.3372 3.6465 0.0000
      vertex 0.0342 3.4779 0.0000
      vertex 2.3000 4.0000 0.0000
    endloop
  endfacet
  facet normal 0 0 -1
    outer loop
      vertex 2.4470 4.6915 0.0000
      vertex 0.1363 5.0353 0.0000
      vertex 0.3045 5.5307 0.0000
    endloop
  endfacet
  facet normal 0 0 -1
    outer loop
      vertex 0.0000 4.0000 0.0000
      vertex 2.3000 4.0000 0.0000
      vertex 0.0342 3.4779 0.0000
    endloop
  endfacet
  facet normal 0 0 -1
    outer loop
      vertex 2.3372 4.3534 0.0000
      vertex 0.0342 4.5221 0.0000
      vertex 0.1363 5.0353 0.0000
    endloop
  endfacet
  facet normal 0 0 -1
    outer loop
      vertex 2.3000 4.0000 0.0000
      vertex 0.0000 4.0000 0.0000
      vertex 0.0342 4.5221 0.0000
    endloop
  endfacet
  facet normal -0.831471 -0.555569 4.32025e-18
    outer loop
      vertex 0.8266 1.5650 0.0000
      vertex 0.5359 2.0000 1.6000
      vertex 0.5359 2.0000 0.0000
    endloop
  endfacet
  facet normal -0.831471 -0.555569 4.32025e-18
    outer loop
      vertex 0.5359 2.0000 1.6000
      vertex 0.8266 1.5650 0.0000
      vertex 0.8266 1.5650 1.6000
    endloop
  endfacet
  facet normal 0.442291 0.896871 -0
    outer loop
      vertex 6.0000 7.4641 0.0000
      vertex 5.5307 7.6955 1.6000
      vertex 6.0000 7.4641 1.6000
    endloop
  endfacet
  facet normal 0.442291 0.896871 0
    outer loop
      vertex 5.5307 7.6955 1.6000
      vertex 6.0000 7.4641 0.0000
      vertex 5.5307 7.6955 0.0000
    endloop
  endfacet
  facet normal 0.321435 0.946932 -0
    outer loop
      vertex 5.5307 7.6955 0.0000
      vertex 5.0353 7.8637 1.6000
      vertex 5.5307 7.6955 1.6000
    endloop
  endfacet
  facet normal 0.321435 0.946932 0
    outer loop
      vertex 5.0353 7.8637 1.6000
      vertex 5.5307 7.6955 0.0000
      vertex 5.0353 7.8637 0.0000
    endloop
  endfacet
  facet normal 0.65934 0.751845 -0
    outer loop
      vertex 6.8284 6.8284 0.0000
      vertex 6.4351 7.1734 1.6000
      vertex 6.8284 6.8284 1.6000
    endloop
  endfacet
  facet normal 0.65934 0.751845 0
    outer loop
      vertex 6.4351 7.1734 1.6000
      vertex 6.8284 6.8284 0.0000
      vertex 6.4351 7.1734 0.0000
    endloop
  endfacet
  facet normal -0.896871 0.442291 8.65761e-19
    outer loop
      vertex 0.3045 5.5307 0.0000
      vertex 0.5359 6.0000 1.6000
      vertex 0.5359 6.0000 0.0000
    endloop
  endfacet
  facet normal -0.896871 0.442291 8.65761e-19
    outer loop
      vertex 0.5359 6.0000 1.6000
      vertex 0.3045 5.5307 0.0000
      vertex 0.3045 5.5307 1.6000
    endloop
  endfacet
  facet normal 0.195096 -0.980784 0
    outer loop
      vertex 4.5221 0.0342 0.0000
      vertex 5.0353 0.1363 1.6000
      vertex 4.5221 0.0342 1.6000
    endloop
  endfacet
  facet normal 0.195096 -0.980784 0
    outer loop
      vertex 5.0353 0.1363 1.6000
      vertex 4.5221 0.0342 0.0000
      vertex 5.0353 0.1363 0.0000
    endloop
  endfacet
  facet normal -0.442291 0.896871 0
    outer loop
      vertex 2.4693 7.6955 0.0000
      vertex 2.0000 7.4641 1.6000
      vertex 2.4693 7.6955 1.6000
    endloop
  endfacet
  facet normal -0.442291 0.896871 0
    outer loop
      vertex 2.0000 7.4641 1.6000
      vertex 2.4693 7.6955 0.0000
      vertex 2.0000 7.4641 0.0000
    endloop
  endfacet
  facet normal -0.831471 0.555569 -4.32025e-18
    outer loop
      vertex 0.5359 6.0000 0.0000
      vertex 0.8266 6.4351 1.6000
      vertex 0.8266 6.4351 0.0000
    endloop
  endfacet
  facet normal -0.831471 0.555569 -4.32025e-18
    outer loop
      vertex 0.8266 6.4351 1.6000
      vertex 0.5359 6.0000 0.0000
      vertex 0.5359 6.0000 1.6000
    endloop
  endfacet
  facet normal 0 0 1
    outer loop
      vertex 5.7000 4.0000 1.6000
      vertex 8.0000 4.0000 1.6000
      vertex 7.9658 4.5221 1.6000
    endloop
  endfacet
  facet normal 0 0 1
    outer loop
      vertex 5.6628 4.3534 1.6000
      vertex 7.9658 4.5221 1.6000
      vertex 7.8637 5.0353 1.6000
    endloop
  endfacet
  facet normal 0 0 1
    outer loop
      vertex 8.0000 4.0000 1.6000
      vertex 5.7000 4.0000 1.6000
      vertex 7.9658 3.4779 1.6000
    endloop
  endfacet
  facet normal 0 0 1
    outer loop
      vertex 5.5530 4.6915 1.6000
      vertex 7.8637 5.0353 1.6000
      vertex 7.6955 5.5307 1.6000
    endloop
  endfacet
  facet normal -0 0 1
    outer loop
      vertex 5.6628 3.6465 1.6000
      vertex 7.9658 3.4779 1.6000
      vertex 5.7000 4.0000 1.6000
    endloop
  endfacet
  facet normal 0 0 1
    outer loop
      vertex 5.5530 4.6915 1.6000
      vertex 7.6955 5.5307 1.6000
      vertex 7.4641 6.0000 1.6000
    endloop
  endfacet
  facet normal 0 0 1
    outer loop
      vertex 7.9658 3.4779 1.6000
      vertex 5.6628 3.6465 1.6000
      vertex 7.8637 2.9647 1.6000
    endloop
  endfacet
  facet normal 0 0 1
    outer loop
      vertex 5.3753 4.9992 1.6000
      vertex 7.4641 6.0000 1.6000
      vertex 7.1734 6.4351 1.6000
    endloop
  endfacet
  facet normal -0 0 1
    outer loop
      vertex 5.5530 3.3085 1.6000
      vertex 7.8637 2.9647 1.6000
      vertex 5.6628 3.6465 1.6000
    endloop
  endfacet
  facet normal 0 0 1
    outer loop
      vertex 5.3753 4.9992 1.6000
      vertex 7.1734 6.4351 1.6000
      vertex 6.8284 6.8284 1.6000
    endloop
  endfacet
  facet normal 0 0 1
    outer loop
      vertex 7.8637 2.9647 1.6000
      vertex 5.5530 3.3085 1.6000
      vertex 7.6955 2.4693 1.6000
    endloop
  endfacet
  facet normal 0 0 1
    outer loop
      vertex 5.1375 5.2633 1.6000
      vertex 6.8284 6.8284 1.6000
      vertex 6.4351 7.1734 1.6000
    endloop
  endfacet
  facet normal 0 0 1
    outer loop
      vertex 7.6955 2.4693 1.6000
      vertex 5.5530 3.3085 1.6000
      vertex 7.4641 2.0000 1.6000
    endloop
  endfacet
  facet normal 0 0 1
    outer loop
      vertex 4.8500 5.4722 1.6000
      vertex 6.4351 7.1734 1.6000
      vertex 6.0000 7.4641 1.6000
    endloop
  endfacet
  facet normal -0 0 1
    outer loop
      vertex 5.3753 3.0008 1.6000
      vertex 7.4641 2.0000 1.6000
      vertex 5.5530 3.3085 1.6000
    endloop
  endfacet
  facet normal 0 0 1
    outer loop
      vertex 7.4641 2.0000 1.6000
      vertex 5.3753 3.0008 1.6000
      vertex 7.1734 1.5650 1.6000
    endloop
  endfacet
  facet normal 0 0 1
    outer loop
      vertex 7.9658 4.5221 1.6000
      vertex 5.6628 4.3534 1.6000
      vertex 5.7000 4.0000 1.6000
    endloop
  endfacet
  facet normal 0 0 1
    outer loop
      vertex 7.8637 5.0353 1.6000
      vertex 5.5530 4.6915 1.6000
      vertex 5.6628 4.3534 1.6000
    endloop
  endfacet
  facet normal 0 0 1
    outer loop
      vertex 4.8500 5.4722 1.6000
      vertex 6.0000 7.4641 1.6000
      vertex 5.5307 7.6955 1.6000
    endloop
  endfacet
  facet normal 0 0 1
    outer loop
      vertex 7.4641 6.0000 1.6000
      vertex 5.3753 4.9992 1.6000
      vertex 5.5530 4.6915 1.6000
    endloop
  endfacet
  facet normal 0 0 1
    outer loop
      vertex 6.8284 6.8284 1.6000
      vertex 5.1375 5.2633 1.6000
      vertex 5.3753 4.9992 1.6000
    endloop
  endfacet
  facet normal 0 0 1
    outer loop
      vertex 4.5253 5.6168 1.6000
      vertex 5.5307 7.6955 1.6000
      vertex 5.0353 7.8637 1.6000
    endloop
  endfacet
  facet normal 0 0 1
    outer loop
      vertex 6.4351 7.1734 1.6000
      vertex 4.8500 5.4722 1.6000
      vertex 5.1375 5.2633 1.6000
    endloop
  endfacet
  facet normal 0 0 1
    outer loop
      vertex 5.5307 7.6955 1.6000
      vertex 4.5253 5.6168 1.6000
      vertex 4.8500 5.4722 1.6000
    endloop
  endfacet
  facet normal 0 0 1
    outer loop
      vertex 4.1777 5.6907 1.6000
      vertex 5.0353 7.8637 1.6000
      vertex 4.5221 7.9658 1.6000
    endloop
  endfacet
  facet normal 0 0 1
    outer loop
      vertex 5.0353 7.8637 1.6000
      vertex 4.1777 5.6907 1.6000
      vertex 4.5253 5.6168 1.6000
    endloop
  endfacet
  facet normal 0 0 1
    outer loop
      vertex 4.0000 8.0000 1.6000
      vertex 4.1777 5.6907 1.6000
      vertex 4.5221 7.9658 1.6000
    endloop
  endfacet
  facet normal 0 0 1
    outer loop
      vertex 4.0000 8.0000 1.6000
      vertex 3.8223 5.6907 1.6000
      vertex 4.1777 5.6907 1.6000
    endloop
  endfacet
  facet normal -0 0 1
    outer loop
      vertex 3.4779 7.9658 1.6000
      vertex 3.8223 5.6907 1.6000
      vertex 4.0000 8.0000 1.6000
    endloop
  endfacet
  facet normal -0 0 1
    outer loop
      vertex 2.9647 7.8637 1.6000
      vertex 3.8223 5.6907 1.6000
      vertex 3.4779 7.9658 1.6000
    endloop
  endfacet
  facet normal 0 0 1
    outer loop
      vertex 3.8223 5.6907 1.6000
      vertex 2.9647 7.8637 1.6000
      vertex 3.4747 5.6168 1.6000
    endloop
  endfacet
  facet normal -0 0 1
    outer loop
      vertex 2.4693 7.6955 1.6000
      vertex 3.4747 5.6168 1.6000
      vertex 2.9647 7.8637 1.6000
    endloop
  endfacet
  facet normal 0 0 1
    outer loop
      vertex 3.4747 5.6168 1.6000
      vertex 2.4693 7.6955 1.6000
      vertex 3.1500 5.4722 1.6000
    endloop
  endfacet
  facet normal -0 0 1
    outer loop
      vertex 2.0000 7.4641 1.6000
      vertex 3.1500 5.4722 1.6000
      vertex 2.4693 7.6955 1.6000
    endloop
  endfacet
  facet normal -0 0 1
    outer loop
      vertex 1.5650 7.1734 1.6000
      vertex 3.1500 5.4722 1.6000
      vertex 2.0000 7.4641 1.6000
    endloop
  endfacet
  facet normal 0 0 1
    outer loop
      vertex 3.1500 5.4722 1.6000
      vertex 1.5650 7.1734 1.6000
      vertex 2.8625 5.2633 1.6000
    endloop
  endfacet
  facet normal -0 0 1
    outer loop
      vertex 1.1716 6.8284 1.6000
      vertex 2.8625 5.2633 1.6000
      vertex 1.5650 7.1734 1.6000
    endloop
  endfacet
  facet normal 0 0 1
    outer loop
      vertex 2.8625 5.2633 1.6000
      vertex 1.1716 6.8284 1.6000
      vertex 2.6247 4.9992 1.6000
    endloop
  endfacet
  facet normal -0 0 1
    outer loop
      vertex 0.8266 6.4351 1.6000
      vertex 2.6247 4.9992 1.6000
      vertex 1.1716 6.8284 1.6000
    endloop
  endfacet
  facet normal 0 0 1
    outer loop
      vertex 7.1734 1.5650 1.6000
      vertex 5.3753 3.0008 1.6000
      vertex 6.8284 1.1716 1.6000
    endloop
  endfacet
  facet normal -0 0 1
    outer loop
      vertex 5.1375 2.7367 1.6000
      vertex 6.8284 1.1716 1.6000
      vertex 5.3753 3.0008 1.6000
    endloop
  endfacet
  facet normal 0 0 1
    outer loop
      vertex 6.8284 1.1716 1.6000
      vertex 5.1375 2.7367 1.6000
      vertex 6.4351 0.8266 1.6000
    endloop
  endfacet
  facet normal -0 0 1
    outer loop
      vertex 4.8500 2.5278 1.6000
      vertex 6.4351 0.8266 1.6000
      vertex 5.1375 2.7367 1.6000
    endloop
  endfacet
  facet normal 0 0 1
    outer loop
      vertex 6.4351 0.8266 1.6000
      vertex 4.8500 2.5278 1.6000
      vertex 6.0000 0.5359 1.6000
    endloop
  endfacet
  facet normal 0 0 1
    outer loop
      vertex 6.0000 0.5359 1.6000
      vertex 4.8500 2.5278 1.6000
      vertex 5.5307 0.3045 1.6000
    endloop
  endfacet
  facet normal -0 0 1
    outer loop
      vertex 4.5253 2.3832 1.6000
      vertex 5.5307 0.3045 1.6000
      vertex 4.8500 2.5278 1.6000
    endloop
  endfacet
  facet normal 0 0 1
    outer loop
      vertex 5.5307 0.3045 1.6000
      vertex 4.5253 2.3832 1.6000
      vertex 5.0353 0.1363 1.6000
    endloop
  endfacet
  facet normal -0 0 1
    outer loop
      vertex 4.1777 2.3093 1.6000
      vertex 5.0353 0.1363 1.6000
      vertex 4.5253 2.3832 1.6000
    endloop
  endfacet
  facet normal 0 0 1
    outer loop
      vertex 5.0353 0.1363 1.6000
      vertex 4.1777 2.3093 1.6000
      vertex 4.5221 0.0342 1.6000
    endloop
  endfacet
  facet normal 0 0 1
    outer loop
      vertex 4.1777 2.3093 1.6000
      vertex 4.0000 0.0000 1.6000
      vertex 4.5221 0.0342 1.6000
    endloop
  endfacet
  facet normal -0 0 1
    outer loop
      vertex 3.8223 2.3093 1.6000
      vertex 4.0000 0.0000 1.6000
      vertex 4.1777 2.3093 1.6000
    endloop
  endfacet
  facet normal 0 0 1
    outer loop
      vertex 3.8223 2.3093 1.6000
      vertex 3.4779 0.0342 1.6000
      vertex 4.0000 0.0000 1.6000
    endloop
  endfacet
  facet normal 0 0 1
    outer loop
      vertex 2.9647 0.1363 1.6000
      vertex 3.8223 2.3093 1.6000
      vertex 3.4747 2.3832 1.6000
    endloop
  endfacet
  facet normal 0 0 1
    outer loop
      vertex 2.4693 0.3045 1.6000
      vertex 3.4747 2.3832 1.6000
      vertex 3.1500 2.5278 1.6000
    endloop
  endfacet
  facet normal 0 0 1
    outer loop
      vertex 3.8223 2.3093 1.6000
      vertex 2.9647 0.1363 1.6000
      vertex 3.4779 0.0342 1.6000
    endloop
  endfacet
  facet normal 0 0 1
    outer loop
      vertex 1.5650 0.8266 1.6000
      vertex 3.1500 2.5278 1.6000
      vertex 2.8625 2.7367 1.6000
    endloop
  endfacet
  facet normal 0 0 1
    outer loop
      vertex 1.1716 1.1716 1.6000
      vertex 2.8625 2.7367 1.6000
      vertex 2.6247 3.0008 1.6000
    endloop
  endfacet
  facet normal 0 0 1
    outer loop
      vertex 3.4747 2.3832 1.6000
      vertex 2.4693 0.3045 1.6000
      vertex 2.9647 0.1363 1.6000
    endloop
  endfacet
  facet normal 0 0 1
    outer loop
      vertex 0.5359 2.0000 1.6000
      vertex 2.6247 3.0008 1.6000
      vertex 2.4470 3.3085 1.6000
    endloop
  endfacet
  facet normal 0 0 1
    outer loop
      vertex 0.1363 2.9647 1.6000
      vertex 2.4470 3.3085 1.6000
      vertex 2.3372 3.6465 1.6000
    endloop
  endfacet
  facet normal 0 0 1
    outer loop
      vertex 0.0342 3.4779 1.6000
      vertex 2.3372 3.6465 1.6000
      vertex 2.3000 4.0000 1.6000
    endloop
  endfacet
  facet normal -0 0 1
    outer loop
      vertex 0.5359 6.0000 1.6000
      vertex 2.6247 4.9992 1.6000
      vertex 0.8266 6.4351 1.6000
    endloop
  endfacet
  facet normal 0 0 1
    outer loop
      vertex 3.1500 2.5278 1.6000
      vertex 2.0000 0.5359 1.6000
      vertex 2.4693 0.3045 1.6000
    endloop
  endfacet
  facet normal 0 0 1
    outer loop
      vertex 2.6247 4.9992 1.6000
      vertex 0.5359 6.0000 1.6000
      vertex 2.4470 4.6915 1.6000
    endloop
  endfacet
  facet normal 0 0 1
    outer loop
      vertex 3.1500 2.5278 1.6000
      vertex 1.5650 0.8266 1.6000
      vertex 2.0000 0.5359 1.6000
    endloop
  endfacet
  facet normal -0 0 1
    outer loop
      vertex 0.3045 5.5307 1.6000
      vertex 2.4470 4.6915 1.6000
      vertex 0.5359 6.0000 1.6000
    endloop
  endfacet
  facet normal 0 0 1
    outer loop
      vertex 2.8625 2.7367 1.6000
      vertex 1.1716 1.1716 1.6000
      vertex 1.5650 0.8266 1.6000
    endloop
  endfacet
  facet normal -0 0 1
    outer loop
      vertex 0.1363 5.0353 1.6000
      vertex 2.4470 4.6915 1.6000
      vertex 0.3045 5.5307 1.6000
    endloop
  endfacet
  facet normal 0 0 1
    outer loop
      vertex 2.6247 3.0008 1.6000
      vertex 0.8266 1.5650 1.6000
      vertex 1.1716 1.1716 1.6000
    endloop
  endfacet
  facet normal 0 0 1
    outer loop
      vertex 2.4470 4.6915 1.6000
      vertex 0.1363 5.0353 1.6000
      vertex 2.3372 4.3534 1.6000
    endloop
  endfacet
  facet normal 0 0 1
    outer loop
      vertex 2.6247 3.0008 1.6000
      vertex 0.5359 2.0000 1.6000
      vertex 0.8266 1.5650 1.6000
    endloop
  endfacet
  facet normal -0 0 1
    outer loop
      vertex 0.0342 4.5221 1.6000
      vertex 2.3372 4.3534 1.6000
      vertex 0.1363 5.0353 1.6000
    endloop
  endfacet
  facet normal 0 0 1
    outer loop
      vertex 2.4470 3.3085 1.6000
      vertex 0.3045 2.4693 1.6000
      vertex 0.5359 2.0000 1.6000
    endloop
  endfacet
  facet normal 0 0 1
    outer loop
      vertex 2.3372 4.3534 1.6000
      vertex 0.0342 4.5221 1.6000
      vertex 2.3000 4.0000 1.6000
    endloop
  endfacet
  facet normal 0 0 1
    outer loop
      vertex 2.4470 3.3085 1.6000
      vertex 0.1363 2.9647 1.6000
      vertex 0.3045 2.4693 1.6000
    endloop
  endfacet
  facet normal 0 0 1
    outer loop
      vertex 0.0000 4.0000 1.6000
      vertex 2.3000 4.0000 1.6000
      vertex 0.0342 4.5221 1.6000
    endloop
  endfacet
  facet normal 0 0 1
    outer loop
      vertex 2.3372 3.6465 1.6000
      vertex 0.0342 3.4779 1.6000
      vertex 0.1363 2.9647 1.6000
    endloop
  endfacet
  facet normal 0 0 1
    outer loop
      vertex 2.3000 4.0000 1.6000
      vertex 0.0000 4.0000 1.6000
      vertex 0.0342 3.4779 1.6000
    endloop
  endfacet
  facet normal -0.951059 0.309008 1.71499e-18
    outer loop
      vertex 5.5530 3.3085 0.0000
      vertex 5.6628 3.6465 1.6000
      vertex 5.6628 3.6465 0.0000
    endloop
  endfacet
  facet normal -0.951059 0.309008 1.71499e-18
    outer loop
      vertex 5.6628 3.6465 1.6000
      vertex 5.5530 3.3085 0.0000
      vertex 5.5530 3.3085 1.6000
    endloop
  endfacet
  facet normal -0.994522 0.104531 -8.73051e-20
    outer loop
      vertex 5.6628 3.6465 0.0000
      vertex 5.7000 4.0000 1.6000
      vertex 5.7000 4.0000 0.0000
    endloop
  endfacet
  facet normal -0.994522 0.104531 -8.73051e-20
    outer loop
      vertex 5.7000 4.0000 1.6000
      vertex 5.6628 3.6465 0.0000
      vertex 5.6628 3.6465 1.6000
    endloop
  endfacet
  facet normal -0.951059 -0.309008 -1.71499e-18
    outer loop
      vertex 5.6628 4.3534 0.0000
      vertex 5.5530 4.6915 1.6000
      vertex 5.5530 4.6915 0.0000
    endloop
  endfacet
  facet normal -0.951059 -0.309008 -1.71499e-18
    outer loop
      vertex 5.5530 4.6915 1.6000
      vertex 5.6628 4.3534 0.0000
      vertex 5.6628 4.3534 1.6000
    endloop
  endfacet
  facet normal 0.587774 -0.809025 0
    outer loop
      vertex 2.8625 5.2633 0.0000
      vertex 3.1500 5.4722 1.6000
      vertex 2.8625 5.2633 1.6000
    endloop
  endfacet
  facet normal 0.587774 -0.809025 0
    outer loop
      vertex 3.1500 5.4722 1.6000
      vertex 2.8625 5.2633 0.0000
      vertex 3.1500 5.4722 0.0000
    endloop
  endfacet
  facet normal -0.406754 0.913538 0
    outer loop
      vertex 4.8500 2.5278 0.0000
      vertex 4.5253 2.3832 1.6000
      vertex 4.8500 2.5278 1.6000
    endloop
  endfacet
  facet normal -0.406754 0.913538 0
    outer loop
      vertex 4.5253 2.3832 1.6000
      vertex 4.8500 2.5278 0.0000
      vertex 4.5253 2.3832 0.0000
    endloop
  endfacet
  facet normal 0.587774 0.809025 -0
    outer loop
      vertex 3.1500 2.5278 0.0000
      vertex 2.8625 2.7367 1.6000
      vertex 3.1500 2.5278 1.6000
    endloop
  endfacet
  facet normal 0.587774 0.809025 0
    outer loop
      vertex 2.8625 2.7367 1.6000
      vertex 3.1500 2.5278 0.0000
      vertex 2.8625 2.7367 0.0000
    endloop
  endfacet
  facet normal 0.207908 -0.978148 0
    outer loop
      vertex 3.4747 5.6168 0.0000
      vertex 3.8223 5.6907 1.6000
      vertex 3.4747 5.6168 1.6000
    endloop
  endfacet
  facet normal 0.207908 -0.978148 0
    outer loop
      vertex 3.8223 5.6907 1.6000
      vertex 3.4747 5.6168 0.0000
      vertex 3.8223 5.6907 0.0000
    endloop
  endfacet
  facet normal 0.866023 -0.500004 -5.81562e-18
    outer loop
      vertex 2.4470 4.6915 1.6000
      vertex 2.6247 4.9992 0.0000
      vertex 2.6247 4.9992 1.6000
    endloop
  endfacet
  facet normal 0.866023 -0.500004 -5.81562e-18
    outer loop
      vertex 2.6247 4.9992 0.0000
      vertex 2.4470 4.6915 1.6000
      vertex 2.4470 4.6915 0.0000
    endloop
  endfacet
  facet normal -0.406754 -0.913538 0
    outer loop
      vertex 4.5253 5.6168 0.0000
      vertex 4.8500 5.4722 1.6000
      vertex 4.5253 5.6168 1.6000
    endloop
  endfacet
  facet normal -0.406754 -0.913538 -0
    outer loop
      vertex 4.8500 5.4722 1.6000
      vertex 4.5253 5.6168 0.0000
      vertex 4.8500 5.4722 0.0000
    endloop
  endfacet
  facet normal -0.587774 0.809025 0
    outer loop
      vertex 5.1375 2.7367 0.0000
      vertex 4.8500 2.5278 1.6000
      vertex 5.1375 2.7367 1.6000
    endloop
  endfacet
  facet normal -0.587774 0.809025 0
    outer loop
      vertex 4.8500 2.5278 1.6000
      vertex 5.1375 2.7367 0.0000
      vertex 4.8500 2.5278 0.0000
    endloop
  endfacet
  facet normal 0.951059 0.309008 -1.71499e-18
    outer loop
      vertex 2.4470 3.3085 1.6000
      vertex 2.3372 3.6465 0.0000
      vertex 2.3372 3.6465 1.6000
    endloop
  endfacet
  facet normal 0.951059 0.309008 -1.71499e-18
    outer loop
      vertex 2.3372 3.6465 0.0000
      vertex 2.4470 3.3085 1.6000
      vertex 2.4470 3.3085 0.0000
    endloop
  endfacet
  facet normal 0.406754 -0.913538 0
    outer loop
      vertex 3.1500 5.4722 0.0000
      vertex 3.4747 5.6168 1.6000
      vertex 3.1500 5.4722 1.6000
    endloop
  endfacet
  facet normal 0.406754 -0.913538 0
    outer loop
      vertex 3.4747 5.6168 1.6000
      vertex 3.1500 5.4722 0.0000
      vertex 3.4747 5.6168 0.0000
    endloop
  endfacet
  facet normal 0.866023 0.500004 5.81562e-18
    outer loop
      vertex 2.6247 3.0008 1.6000
      vertex 2.4470 3.3085 0.0000
      vertex 2.4470 3.3085 1.6000
    endloop
  endfacet
  facet normal 0.866023 0.500004 5.81562e-18
    outer loop
      vertex 2.4470 3.3085 0.0000
      vertex 2.6247 3.0008 1.6000
      vertex 2.6247 3.0008 0.0000
    endloop
  endfacet
  facet normal -0.587774 -0.809025 0
    outer loop
      vertex 4.8500 5.4722 0.0000
      vertex 5.1375 5.2633 1.6000
      vertex 4.8500 5.4722 1.6000
    endloop
  endfacet
  facet normal -0.587774 -0.809025 -0
    outer loop
      vertex 5.1375 5.2633 1.6000
      vertex 4.8500 5.4722 0.0000
      vertex 5.1375 5.2633 0.0000
    endloop
  endfacet
  facet normal 0.207908 0.978148 -0
    outer loop
      vertex 3.8223 2.3093 0.0000
      vertex 3.4747 2.3832 1.6000
      vertex 3.8223 2.3093 1.6000
    endloop
  endfacet
  facet normal 0.207908 0.978148 0
    outer loop
      vertex 3.4747 2.3832 1.6000
      vertex 3.8223 2.3093 0.0000
      vertex 3.4747 2.3832 0.0000
    endloop
  endfacet
  facet normal -0.994522 -0.104531 8.73051e-20
    outer loop
      vertex 5.7000 4.0000 0.0000
      vertex 5.6628 4.3534 1.6000
      vertex 5.6628 4.3534 0.0000
    endloop
  endfacet
  facet normal -0.994522 -0.104531 8.73051e-20
    outer loop
      vertex 5.6628 4.3534 1.6000
      vertex 5.7000 4.0000 0.0000
      vertex 5.7000 4.0000 1.6000
    endloop
  endfacet
  facet normal 0 1 -0
    outer loop
      vertex 4.1777 2.3093 0.0000
      vertex 3.8223 2.3093 1.6000
      vertex 4.1777 2.3093 1.6000
    endloop
  endfacet
  facet normal 0 1 0
    outer loop
      vertex 3.8223 2.3093 1.6000
      vertex 4.1777 2.3093 0.0000
      vertex 3.8223 2.3093 0.0000
    endloop
  endfacet
  facet normal -0.866023 -0.500004 5.81562e-18
    outer loop
      vertex 5.5530 4.6915 0.0000
      vertex 5.3753 4.9992 1.6000
      vertex 5.3753 4.9992 0.0000
    endloop
  endfacet
  facet normal -0.866023 -0.500004 5.81562e-18
    outer loop
      vertex 5.3753 4.9992 1.6000
      vertex 5.5530 4.6915 0.0000
      vertex 5.5530 4.6915 1.6000
    endloop
  endfacet
  facet normal 0.406754 0.913538 -0
    outer loop
      vertex 3.4747 2.3832 0.0000
      vertex 3.1500 2.5278 1.6000
      vertex 3.4747 2.3832 1.6000
    endloop
  endfacet
  facet normal 0.406754 0.913538 0
    outer loop
      vertex 3.1500 2.5278 1.6000
      vertex 3.4747 2.3832 0.0000
      vertex 3.1500 2.5278 0.0000
    endloop
  endfacet
  facet normal -0.743146 -0.669129 8.20341e-18
    outer loop
      vertex 5.3753 4.9992 0.0000
      vertex 5.1375 5.2633 1.6000
      vertex 5.1375 5.2633 0.0000
    endloop
  endfacet
  facet normal -0.743146 -0.669129 8.20341e-18
    outer loop
      vertex 5.1375 5.2633 1.6000
      vertex 5.3753 4.9992 0.0000
      vertex 5.3753 4.9992 1.6000
    endloop
  endfacet
  facet normal -0.207908 -0.978148 0
    outer loop
      vertex 4.1777 5.6907 0.0000
      vertex 4.5253 5.6168 1.6000
      vertex 4.1777 5.6907 1.6000
    endloop
  endfacet
  facet normal -0.207908 -0.978148 -0
    outer loop
      vertex 4.5253 5.6168 1.6000
      vertex 4.1777 5.6907 0.0000
      vertex 4.5253 5.6168 0.0000
    endloop
  endfacet
  facet normal -0.743146 0.669129 -8.20341e-18
    outer loop
      vertex 5.1375 2.7367 0.0000
      vertex 5.3753 3.0008 1.6000
      vertex 5.3753 3.0008 0.0000
    endloop
  endfacet
  facet normal -0.743146 0.669129 -8.20341e-18
    outer loop
      vertex 5.3753 3.0008 1.6000
      vertex 5.1375 2.7367 0.0000
      vertex 5.1375 2.7367 1.6000
    endloop
  endfacet
  facet normal 0.994522 0.104531 8.73051e-20
    outer loop
      vertex 2.3372 3.6465 1.6000
      vertex 2.3000 4.0000 0.0000
      vertex 2.3000 4.0000 1.6000
    endloop
  endfacet
  facet normal 0.994522 0.104531 8.73051e-20
    outer loop
      vertex 2.3000 4.0000 0.0000
      vertex 2.3372 3.6465 1.6000
      vertex 2.3372 3.6465 0.0000
    endloop
  endfacet
  facet normal -0.866023 0.500004 -5.81562e-18
    outer loop
      vertex 5.3753 3.0008 0.0000
      vertex 5.5530 3.3085 1.6000
      vertex 5.5530 3.3085 0.0000
    endloop
  endfacet
  facet normal -0.866023 0.500004 -5.81562e-18
    outer loop
      vertex 5.5530 3.3085 1.6000
      vertex 5.3753 3.0008 0.0000
      vertex 5.3753 3.0008 1.6000
    endloop
  endfacet
  facet normal 0.743146 0.669129 8.20341e-18
    outer loop
      vertex 2.8625 2.7367 1.6000
      vertex 2.6247 3.0008 0.0000
      vertex 2.6247 3.0008 1.6000
    endloop
  endfacet
  facet normal 0.743146 0.669129 8.20341e-18
    outer loop
      vertex 2.6247 3.0008 0.0000
      vertex 2.8625 2.7367 1.6000
      vertex 2.8625 2.7367 0.0000
    endloop
  endfacet
  facet normal 0 -1 0
    outer loop
      vertex 3.8223 5.6907 0.0000
      vertex 4.1777 5.6907 1.6000
      vertex 3.8223 5.6907 1.6000
    endloop
  endfacet
  facet normal 0 -1 -0
    outer loop
      vertex 4.1777 5.6907 1.6000
      vertex 3.8223 5.6907 0.0000
      vertex 4.1777 5.6907 0.0000
    endloop
  endfacet
  facet normal 0.951059 -0.309008 1.71499e-18
    outer loop
      vertex 2.3372 4.3534 1.6000
      vertex 2.4470 4.6915 0.0000
      vertex 2.4470 4.6915 1.6000
    endloop
  endfacet
  facet normal 0.951059 -0.309008 1.71499e-18
    outer loop
      vertex 2.4470 4.6915 0.0000
      vertex 2.3372 4.3534 1.6000
      vertex 2.3372 4.3534 0.0000
    endloop
  endfacet
  facet normal 0.743146 -0.669129 -8.20341e-18
    outer loop
      vertex 2.6247 4.9992 1.6000
      vertex 2.8625 5.2633 0.0000
      vertex 2.8625 5.2633 1.6000
    endloop
  endfacet
  facet normal 0.743146 -0.669129 -8.20341e-18
    outer loop
      vertex 2.8625 5.2633 0.0000
      vertex 2.6247 4.9992 1.6000
      vertex 2.6247 4.9992 0.0000
    endloop
  endfacet
  facet normal -0.207908 0.978148 0
    outer loop
      vertex 4.5253 2.3832 0.0000
      vertex 4.1777 2.3093 1.6000
      vertex 4.5253 2.3832 1.6000
    endloop
  endfacet
  facet normal -0.207908 0.978148 0
    outer loop
      vertex 4.1777 2.3093 1.6000
      vertex 4.5253 2.3832 0.0000
      vertex 4.1777 2.3093 0.0000
    endloop
  endfacet
  facet normal 0.994522 -0.104531 -8.73051e-20
    outer loop
      vertex 2.3000 4.0000 1.6000
      vertex 2.3372 4.3534 0.0000
      vertex 2.3372 4.3534 1.6000
    endloop
  endfacet
  facet normal 0.994522 -0.104531 -8.73051e-20
    outer loop
      vertex 2.3372 4.3534 0.0000
      vertex 2.3000 4.0000 1.6000
      vertex 2.3000 4.0000 0.0000
    endloop
  endfacet
endsolid OpenSCAD_Model
