solid OpenSCAD_Model
  facet normal 0 0 -1
    outer loop
      vertex 0.0000 20.7500 3.5000
      vertex 11.3000 24.3500 3.5000
      vertex 11.3000 20.7500 3.5000
    endloop
  endfacet
  facet normal -0 0 -1
    outer loop
      vertex 11.3000 24.3500 3.5000
      vertex 0.0000 20.7500 3.5000
      vertex 0.0000 24.3500 3.5000
    endloop
  endfacet
  facet normal 0 0 -1
    outer loop
      vertex 0.0000 0.4000 3.5000
      vertex 11.3000 4.0000 3.5000
      vertex 11.3000 0.4000 3.5000
    endloop
  endfacet
  facet normal -0 0 -1
    outer loop
      vertex 11.3000 4.0000 3.5000
      vertex 0.0000 0.4000 3.5000
      vertex 0.0000 4.0000 3.5000
    endloop
  endfacet
  facet normal 0 0 -1
    outer loop
      vertex 115.4000 0.0000 3.5000
      vertex 90.0000 21.5000 3.5000
      vertex 115.4000 24.5000 3.5000
    endloop
  endfacet
  facet normal 0 0 -1
    outer loop
      vertex 11.3000 0.0000 3.5000
      vertex 90.0000 21.5000 3.5000
      vertex 115.4000 0.0000 3.5000
    endloop
  endfacet
  facet normal 0 0 -1
    outer loop
      vertex 11.3000 41.0500 3.5000
      vertex 15.8000 44.3000 3.5000
      vertex 15.8000 21.5000 3.5000
    endloop
  endfacet
  facet normal 0 0 -1
    outer loop
      vertex 11.3000 0.4000 3.5000
      vertex 90.0000 21.5000 3.5000
      vertex 11.3000 0.0000 3.5000
    endloop
  endfacet
  facet normal 0 0 -1
    outer loop
      vertex 11.3000 4.0000 3.5000
      vertex 90.0000 21.5000 3.5000
      vertex 11.3000 0.4000 3.5000
    endloop
  endfacet
  facet normal -0 0 -1
    outer loop
      vertex 90.0000 21.5000 3.5000
      vertex 11.3000 4.0000 3.5000
      vertex 15.8000 21.5000 3.5000
    endloop
  endfacet
  facet normal 0 0 -1
    outer loop
      vertex 11.3000 20.7500 3.5000
      vertex 15.8000 21.5000 3.5000
      vertex 11.3000 4.0000 3.5000
    endloop
  endfacet
  facet normal 0 0 -1
    outer loop
      vertex 11.3000 24.3500 3.5000
      vertex 15.8000 21.5000 3.5000
      vertex 11.3000 20.7500 3.5000
    endloop
  endfacet
  facet normal 0 0 -1
    outer loop
      vertex 11.3000 41.0500 3.5000
      vertex 15.8000 21.5000 3.5000
      vertex 11.3000 24.3500 3.5000
    endloop
  endfacet
  facet normal -0 0 -1
    outer loop
      vertex 15.8000 44.3000 3.5000
      vertex 11.3000 41.0500 3.5000
      vertex 11.3100 44.3000 3.5000
    endloop
  endfacet
  facet normal 0 0 -1
    outer loop
      vertex 0.0000 41.0500 3.5000
      vertex 11.3100 44.3000 3.5000
      vertex 11.3000 41.0500 3.5000
    endloop
  endfacet
  facet normal 0 0 -1
    outer loop
      vertex 0.0000 44.6500 3.5000
      vertex 11.3100 44.3000 3.5000
      vertex 0.0000 41.0500 3.5000
    endloop
  endfacet
  facet normal 0 0 -1
    outer loop
      vertex 11.3100 44.3000 3.5000
      vertex 0.0000 44.6500 3.5000
      vertex 11.3100 44.6500 3.5000
    endloop
  endfacet
  facet normal -0 0 -1
    outer loop
      vertex 115.4000 24.5000 3.5000
      vertex 90.0000 21.5000 3.5000
      vertex 90.0000 24.5000 3.5000
    endloop
  endfacet
  facet normal 1 -0 0
    outer loop
      vertex 11.3100 44.3000 6.1000
      vertex 11.3100 44.6500 3.5000
      vertex 11.3100 44.6500 6.1000
    endloop
  endfacet
  facet normal 1 0 0
    outer loop
      vertex 11.3100 44.6500 3.5000
      vertex 11.3100 44.3000 6.1000
      vertex 11.3100 44.3000 3.5000
    endloop
  endfacet
  facet normal -1 0 0
    outer loop
      vertex 0.0000 41.0500 3.5000
      vertex 0.0000 44.6500 6.1000
      vertex 0.0000 44.6500 3.5000
    endloop
  endfacet
  facet normal -1 -0 0
    outer loop
      vertex 0.0000 44.6500 6.1000
      vertex 0.0000 41.0500 3.5000
      vertex 0.0000 41.0500 6.1000
    endloop
  endfacet
  facet normal 0 0 1
    outer loop
      vertex 11.3100 44.6500 6.1000
      vertex 11.3000 44.3000 6.1000
      vertex 11.3100 44.3000 6.1000
    endloop
  endfacet
  facet normal -0 0 1
    outer loop
      vertex 0.0000 44.6500 6.1000
      vertex 11.3000 44.3000 6.1000
      vertex 11.3100 44.6500 6.1000
    endloop
  endfacet
  facet normal 0 0 1
    outer loop
      vertex 0.0000 41.0500 6.1000
      vertex 11.3000 44.3000 6.1000
      vertex 0.0000 44.6500 6.1000
    endloop
  endfacet
  facet normal 0 0 1
    outer loop
      vertex 11.3000 44.3000 6.1000
      vertex 0.0000 41.0500 6.1000
      vertex 11.3000 41.0500 6.1000
    endloop
  endfacet
  facet normal 0 -1 0
    outer loop
      vertex 0.0000 41.0500 3.5000
      vertex 11.3000 41.0500 6.1000
      vertex 0.0000 41.0500 6.1000
    endloop
  endfacet
  facet normal 0 -1 -0
    outer loop
      vertex 11.3000 41.0500 6.1000
      vertex 0.0000 41.0500 3.5000
      vertex 11.3000 41.0500 3.5000
    endloop
  endfacet
  facet normal 0 1 -0
    outer loop
      vertex 11.3100 44.6500 3.5000
      vertex 0.0000 44.6500 6.1000
      vertex 11.3100 44.6500 6.1000
    endloop
  endfacet
  facet normal 0 1 0
    outer loop
      vertex 0.0000 44.6500 6.1000
      vertex 11.3100 44.6500 3.5000
      vertex 0.0000 44.6500 3.5000
    endloop
  endfacet
  facet normal -1 0 0
    outer loop
      vertex 0.0000 20.7500 3.5000
      vertex 0.0000 24.3500 6.1000
      vertex 0.0000 24.3500 3.5000
    endloop
  endfacet
  facet normal -1 -0 0
    outer loop
      vertex 0.0000 24.3500 6.1000
      vertex 0.0000 20.7500 3.5000
      vertex 0.0000 20.7500 6.1000
    endloop
  endfacet
  facet normal -0 0 1
    outer loop
      vertex 0.0000 24.3500 6.1000
      vertex 11.3000 20.7500 6.1000
      vertex 11.3000 24.3500 6.1000
    endloop
  endfacet
  facet normal 0 0 1
    outer loop
      vertex 11.3000 20.7500 6.1000
      vertex 0.0000 24.3500 6.1000
      vertex 0.0000 20.7500 6.1000
    endloop
  endfacet
  facet normal 0 -1 0
    outer loop
      vertex 0.0000 20.7500 3.5000
      vertex 11.3000 20.7500 6.1000
      vertex 0.0000 20.7500 6.1000
    endloop
  endfacet
  facet normal 0 -1 -0
    outer loop
      vertex 11.3000 20.7500 6.1000
      vertex 0.0000 20.7500 3.5000
      vertex 11.3000 20.7500 3.5000
    endloop
  endfacet
  facet normal 0 1 -0
    outer loop
      vertex 11.3000 24.3500 3.5000
      vertex 0.0000 24.3500 6.1000
      vertex 11.3000 24.3500 6.1000
    endloop
  endfacet
  facet normal 0 1 0
    outer loop
      vertex 0.0000 24.3500 6.1000
      vertex 11.3000 24.3500 3.5000
      vertex 0.0000 24.3500 3.5000
    endloop
  endfacet
  facet normal -1 0 0
    outer loop
      vertex 0.0000 0.4000 3.5000
      vertex 0.0000 4.0000 6.1000
      vertex 0.0000 4.0000 3.5000
    endloop
  endfacet
  facet normal -1 -0 0
    outer loop
      vertex 0.0000 4.0000 6.1000
      vertex 0.0000 0.4000 3.5000
      vertex 0.0000 0.4000 6.1000
    endloop
  endfacet
  facet normal -0 0 1
    outer loop
      vertex 0.0000 4.0000 6.1000
      vertex 11.3000 0.4000 6.1000
      vertex 11.3000 4.0000 6.1000
    endloop
  endfacet
  facet normal 0 0 1
    outer loop
      vertex 11.3000 0.4000 6.1000
      vertex 0.0000 4.0000 6.1000
      vertex 0.0000 0.4000 6.1000
    endloop
  endfacet
  facet normal 0 -1 0
    outer loop
      vertex 0.0000 0.4000 3.5000
      vertex 11.3000 0.4000 6.1000
      vertex 0.0000 0.4000 6.1000
    endloop
  endfacet
  facet normal 0 -1 -0
    outer loop
      vertex 11.3000 0.4000 6.1000
      vertex 0.0000 0.4000 3.5000
      vertex 11.3000 0.4000 3.5000
    endloop
  endfacet
  facet normal 0 1 -0
    outer loop
      vertex 11.3000 4.0000 3.5000
      vertex 0.0000 4.0000 6.1000
      vertex 11.3000 4.0000 6.1000
    endloop
  endfacet
  facet normal 0 1 0
    outer loop
      vertex 0.0000 4.0000 6.1000
      vertex 11.3000 4.0000 3.5000
      vertex 0.0000 4.0000 3.5000
    endloop
  endfacet
  facet normal 1 -0 0
    outer loop
      vertex 15.8000 21.5000 9.0000
      vertex 15.8000 44.3000 3.5000
      vertex 15.8000 44.3000 9.0000
    endloop
  endfacet
  facet normal 1 0 0
    outer loop
      vertex 15.8000 44.3000 3.5000
      vertex 15.8000 21.5000 9.0000
      vertex 15.8000 21.5000 3.5000
    endloop
  endfacet
  facet normal -1 0 0
    outer loop
      vertex 11.3000 0.4000 3.5000
      vertex 11.3000 0.0000 3.5000
      vertex 11.3000 0.4000 6.1000
    endloop
  endfacet
  facet normal -1 0 0
    outer loop
      vertex 11.3000 20.7500 3.5000
      vertex 11.3000 4.0000 3.5000
      vertex 11.3000 20.7500 6.1000
    endloop
  endfacet
  facet normal -1 0 0
    outer loop
      vertex 11.3000 41.0500 3.5000
      vertex 11.3000 24.3500 3.5000
      vertex 11.3000 41.0500 6.1000
    endloop
  endfacet
  facet normal -1 0 0
    outer loop
      vertex 11.3000 41.0500 6.1000
      vertex 11.3000 44.3000 9.0000
      vertex 11.3000 44.3000 6.1000
    endloop
  endfacet
  facet normal -1 0 0
    outer loop
      vertex 11.3000 24.3500 6.1000
      vertex 11.3000 41.0500 6.1000
      vertex 11.3000 24.3500 3.5000
    endloop
  endfacet
  facet normal -1 0 0
    outer loop
      vertex 11.3000 41.0500 6.1000
      vertex 11.3000 24.3500 6.1000
      vertex 11.3000 44.3000 9.0000
    endloop
  endfacet
  facet normal -1 0 0
    outer loop
      vertex 11.3000 20.7500 6.1000
      vertex 11.3000 44.3000 9.0000
      vertex 11.3000 24.3500 6.1000
    endloop
  endfacet
  facet normal -1 0 0
    outer loop
      vertex 11.3000 4.0000 6.1000
      vertex 11.3000 20.7500 6.1000
      vertex 11.3000 4.0000 3.5000
    endloop
  endfacet
  facet normal -1 0 0
    outer loop
      vertex 11.3000 0.0000 9.0000
      vertex 11.3000 20.7500 6.1000
      vertex 11.3000 4.0000 6.1000
    endloop
  endfacet
  facet normal -1 0 0
    outer loop
      vertex 11.3000 0.0000 9.0000
      vertex 11.3000 4.0000 6.1000
      vertex 11.3000 0.4000 6.1000
    endloop
  endfacet
  facet normal -1 0 0
    outer loop
      vertex 11.3000 20.7500 6.1000
      vertex 11.3000 0.0000 9.0000
      vertex 11.3000 44.3000 9.0000
    endloop
  endfacet
  facet normal -1 0 0
    outer loop
      vertex 11.3000 0.0000 9.0000
      vertex 11.3000 0.4000 6.1000
      vertex 11.3000 0.0000 3.5000
    endloop
  endfacet
  facet normal 0 0 1
    outer loop
      vertex 15.8000 44.3000 9.0000
      vertex 11.3000 44.3000 9.0000
      vertex 15.8000 21.5000 9.0000
    endloop
  endfacet
  facet normal 0 0 1
    outer loop
      vertex 115.4000 24.5000 9.0000
      vertex 119.9000 46.5000 9.0000
      vertex 115.4000 46.5000 9.0000
    endloop
  endfacet
  facet normal 0 0 1
    outer loop
      vertex 119.9000 46.5000 9.0000
      vertex 115.4000 24.5000 9.0000
      vertex 119.9000 0.0000 9.0000
    endloop
  endfacet
  facet normal 0 0 1
    outer loop
      vertex 90.0000 21.5000 9.0000
      vertex 115.4000 24.5000 9.0000
      vertex 90.0000 24.5000 9.0000
    endloop
  endfacet
  facet normal 0 0 1
    outer loop
      vertex 115.4000 24.5000 9.0000
      vertex 90.0000 21.5000 9.0000
      vertex 119.9000 0.0000 9.0000
    endloop
  endfacet
  facet normal 0 0 1
    outer loop
      vertex 11.3000 0.0000 9.0000
      vertex 90.0000 21.5000 9.0000
      vertex 15.8000 21.5000 9.0000
    endloop
  endfacet
  facet normal 0 0 1
    outer loop
      vertex 90.0000 21.5000 9.0000
      vertex 11.3000 0.0000 9.0000
      vertex 119.9000 0.0000 9.0000
    endloop
  endfacet
  facet normal 0 0 1
    outer loop
      vertex 11.3000 0.0000 9.0000
      vertex 15.8000 21.5000 9.0000
      vertex 11.3000 44.3000 9.0000
    endloop
  endfacet
  facet normal 0 -1 0
    outer loop
      vertex 115.4000 0.0000 3.5000
      vertex 11.3000 0.0000 9.0000
      vertex 11.3000 0.0000 3.5000
    endloop
  endfacet
  facet normal 0 -1 0
    outer loop
      vertex 11.3000 0.0000 9.0000
      vertex 115.4000 0.0000 3.5000
      vertex 119.9000 0.0000 9.0000
    endloop
  endfacet
  facet normal 0 -1 0
    outer loop
      vertex 119.9000 0.0000 0.0000
      vertex 115.4000 0.0000 3.5000
      vertex 115.4000 0.0000 0.0000
    endloop
  endfacet
  facet normal 0 -1 0
    outer loop
      vertex 115.4000 0.0000 3.5000
      vertex 119.9000 0.0000 0.0000
      vertex 119.9000 0.0000 9.0000
    endloop
  endfacet
  facet normal 0 1 0
    outer loop
      vertex 15.8000 44.3000 9.0000
      vertex 11.3100 44.3000 6.1000
      vertex 11.3000 44.3000 9.0000
    endloop
  endfacet
  facet normal 0 1 -0
    outer loop
      vertex 15.8000 44.3000 3.5000
      vertex 11.3100 44.3000 6.1000
      vertex 15.8000 44.3000 9.0000
    endloop
  endfacet
  facet normal 0 1 0
    outer loop
      vertex 11.3100 44.3000 6.1000
      vertex 15.8000 44.3000 3.5000
      vertex 11.3100 44.3000 3.5000
    endloop
  endfacet
  facet normal 0 1 0
    outer loop
      vertex 11.3000 44.3000 9.0000
      vertex 11.3100 44.3000 6.1000
      vertex 11.3000 44.3000 6.1000
    endloop
  endfacet
  facet normal 1 -0 0
    outer loop
      vertex 119.9000 0.0000 9.0000
      vertex 119.9000 46.5000 0.0000
      vertex 119.9000 46.5000 9.0000
    endloop
  endfacet
  facet normal 1 0 0
    outer loop
      vertex 119.9000 46.5000 0.0000
      vertex 119.9000 0.0000 9.0000
      vertex 119.9000 0.0000 0.0000
    endloop
  endfacet
  facet normal 0 1 -0
    outer loop
      vertex 90.0000 21.5000 3.5000
      vertex 15.8000 21.5000 9.0000
      vertex 90.0000 21.5000 9.0000
    endloop
  endfacet
  facet normal 0 1 0
    outer loop
      vertex 15.8000 21.5000 9.0000
      vertex 90.0000 21.5000 3.5000
      vertex 15.8000 21.5000 3.5000
    endloop
  endfacet
  facet normal -1 0 0
    outer loop
      vertex 90.0000 21.5000 3.5000
      vertex 90.0000 24.5000 9.0000
      vertex 90.0000 24.5000 3.5000
    endloop
  endfacet
  facet normal -1 -0 0
    outer loop
      vertex 90.0000 24.5000 9.0000
      vertex 90.0000 21.5000 3.5000
      vertex 90.0000 21.5000 9.0000
    endloop
  endfacet
  facet normal 0 1 -0
    outer loop
      vertex 115.4000 24.5000 3.5000
      vertex 90.0000 24.5000 9.0000
      vertex 115.4000 24.5000 9.0000
    endloop
  endfacet
  facet normal 0 1 0
    outer loop
      vertex 90.0000 24.5000 9.0000
      vertex 115.4000 24.5000 3.5000
      vertex 90.0000 24.5000 3.5000
    endloop
  endfacet
  facet normal 0 0 -1
    outer loop
      vertex 115.4000 0.0000 0.0000
      vertex 119.9000 46.5000 0.0000
      vertex 119.9000 0.0000 0.0000
    endloop
  endfacet
  facet normal -0 0 -1
    outer loop
      vertex 119.9000 46.5000 0.0000
      vertex 115.4000 0.0000 0.0000
      vertex 115.4000 46.5000 0.0000
    endloop
  endfacet
  facet normal -1 0 0
    outer loop
      vertex 115.4000 46.5000 0.0000
      vertex 115.4000 24.5000 3.5000
      vertex 115.4000 46.5000 9.0000
    endloop
  endfacet
  facet normal -1 0 0
    outer loop
      vertex 115.4000 0.0000 0.0000
      vertex 115.4000 24.5000 3.5000
      vertex 115.4000 46.5000 0.0000
    endloop
  endfacet
  facet normal -1 -0 0
    outer loop
      vertex 115.4000 24.5000 3.5000
      vertex 115.4000 0.0000 0.0000
      vertex 115.4000 0.0000 3.5000
    endloop
  endfacet
  facet normal -1 -0 0
    outer loop
      vertex 115.4000 46.5000 9.0000
      vertex 115.4000 24.5000 3.5000
      vertex 115.4000 24.5000 9.0000
    endloop
  endfacet
  facet normal 0 1 -0
    outer loop
      vertex 119.9000 46.5000 0.0000
      vertex 115.4000 46.5000 9.0000
      vertex 119.9000 46.5000 9.0000
    endloop
  endfacet
  facet normal 0 1 0
    outer loop
      vertex 115.4000 46.5000 9.0000
      vertex 119.9000 46.5000 0.0000
      vertex 115.4000 46.5000 0.0000
    endloop
  endfacet
endsolid OpenSCAD_Model
