solid OpenSCAD_Model
  facet normal -1 0 0
    outer loop
      vertex 50 -41 0
      vertex 50 -38 3
      vertex 50 -38 0
    endloop
  endfacet
  facet normal -1 -0 0
    outer loop
      vertex 50 -38 3
      vertex 50 -41 0
      vertex 50 -41 3
    endloop
  endfacet
  facet normal 1 -0 0
    outer loop
      vertex 30 -41 3
      vertex 30 -38 0
      vertex 30 -38 3
    endloop
  endfacet
  facet normal 1 0 0
    outer loop
      vertex 30 -38 0
      vertex 30 -41 3
      vertex 30 -41 0
    endloop
  endfacet
  facet normal 0 1 -0
    outer loop
      vertex 50 -41 0
      vertex 30 -41 3
      vertex 50 -41 3
    endloop
  endfacet
  facet normal 0 1 0
    outer loop
      vertex 30 -41 3
      vertex 50 -41 0
      vertex 30 -41 0
    endloop
  endfacet
  facet normal 0 -1 0
    outer loop
      vertex 30 -38 0
      vertex 50 -38 3
      vertex 30 -38 3
    endloop
  endfacet
  facet normal 0 -1 -0
    outer loop
      vertex 50 -38 3
      vertex 30 -38 0
      vertex 50 -38 0
    endloop
  endfacet
  facet normal 1 -0 0
    outer loop
      vertex 54 -41 3
      vertex 54 -38 0
      vertex 54 -38 3
    endloop
  endfacet
  facet normal 1 0 0
    outer loop
      vertex 54 -38 0
      vertex 54 -41 3
      vertex 54 -41 0
    endloop
  endfacet
  facet normal 0 1 -0
    outer loop
      vertex 58 -41 0
      vertex 54 -41 3
      vertex 58 -41 3
    endloop
  endfacet
  facet normal 0 1 0
    outer loop
      vertex 54 -41 3
      vertex 58 -41 0
      vertex 54 -41 0
    endloop
  endfacet
  facet normal 0 -1 0
    outer loop
      vertex 54 -38 0
      vertex 58 -38 3
      vertex 54 -38 3
    endloop
  endfacet
  facet normal 0 -1 -0
    outer loop
      vertex 58 -38 3
      vertex 54 -38 0
      vertex 58 -38 0
    endloop
  endfacet
  facet normal -1 0 0
    outer loop
      vertex 50 -47 0
      vertex 50 -44 3
      vertex 50 -44 0
    endloop
  endfacet
  facet normal -1 -0 0
    outer loop
      vertex 50 -44 3
      vertex 50 -47 0
      vertex 50 -47 3
    endloop
  endfacet
  facet normal 1 -0 0
    outer loop
      vertex 30 -47 3
      vertex 30 -44 0
      vertex 30 -44 3
    endloop
  endfacet
  facet normal 1 0 0
    outer loop
      vertex 30 -44 0
      vertex 30 -47 3
      vertex 30 -47 0
    endloop
  endfacet
  facet normal 0 1 -0
    outer loop
      vertex 50 -47 0
      vertex 30 -47 3
      vertex 50 -47 3
    endloop
  endfacet
  facet normal 0 1 0
    outer loop
      vertex 30 -47 3
      vertex 50 -47 0
      vertex 30 -47 0
    endloop
  endfacet
  facet normal 0 -1 0
    outer loop
      vertex 30 -44 0
      vertex 50 -44 3
      vertex 30 -44 3
    endloop
  endfacet
  facet normal 0 -1 -0
    outer loop
      vertex 50 -44 3
      vertex 30 -44 0
      vertex 50 -44 0
    endloop
  endfacet
  facet normal 1 -0 0
    outer loop
      vertex 54 -47 3
      vertex 54 -44 0
      vertex 54 -44 3
    endloop
  endfacet
  facet normal 1 0 0
    outer loop
      vertex 54 -44 0
      vertex 54 -47 3
      vertex 54 -47 0
    endloop
  endfacet
  facet normal 0 1 -0
    outer loop
      vertex 58 -47 0
      vertex 54 -47 3
      vertex 58 -47 3
    endloop
  endfacet
  facet normal 0 1 0
    outer loop
      vertex 54 -47 3
      vertex 58 -47 0
      vertex 54 -47 0
    endloop
  endfacet
  facet normal 0 -1 0
    outer loop
      vertex 54 -44 0
      vertex 58 -44 3
      vertex 54 -44 3
    endloop
  endfacet
  facet normal 0 -1 -0
    outer loop
      vertex 58 -44 3
      vertex 54 -44 0
      vertex 58 -44 0
    endloop
  endfacet
  facet normal -1 0 0
    outer loop
      vertex 50 -53 0
      vertex 50 -50 3
      vertex 50 -50 0
    endloop
  endfacet
  facet normal -1 -0 0
    outer loop
      vertex 50 -50 3
      vertex 50 -53 0
      vertex 50 -53 3
    endloop
  endfacet
  facet normal 1 -0 0
    outer loop
      vertex 30 -53 3
      vertex 30 -50 0
      vertex 30 -50 3
    endloop
  endfacet
  facet normal 1 0 0
    outer loop
      vertex 30 -50 0
      vertex 30 -53 3
      vertex 30 -53 0
    endloop
  endfacet
  facet normal 0 1 -0
    outer loop
      vertex 50 -53 0
      vertex 30 -53 3
      vertex 50 -53 3
    endloop
  endfacet
  facet normal 0 1 0
    outer loop
      vertex 30 -53 3
      vertex 50 -53 0
      vertex 30 -53 0
    endloop
  endfacet
  facet normal 0 -1 0
    outer loop
      vertex 30 -50 0
      vertex 50 -50 3
      vertex 30 -50 3
    endloop
  endfacet
  facet normal 0 -1 -0
    outer loop
      vertex 50 -50 3
      vertex 30 -50 0
      vertex 50 -50 0
    endloop
  endfacet
  facet normal 1 -0 0
    outer loop
      vertex 54 -53 3
      vertex 54 -50 0
      vertex 54 -50 3
    endloop
  endfacet
  facet normal 1 0 0
    outer loop
      vertex 54 -50 0
      vertex 54 -53 3
      vertex 54 -53 0
    endloop
  endfacet
  facet normal 0 1 -0
    outer loop
      vertex 58 -53 0
      vertex 54 -53 3
      vertex 58 -53 3
    endloop
  endfacet
  facet normal 0 1 0
    outer loop
      vertex 54 -53 3
      vertex 58 -53 0
      vertex 54 -53 0
    endloop
  endfacet
  facet normal 0 -1 0
    outer loop
      vertex 54 -50 0
      vertex 58 -50 3
      vertex 54 -50 3
    endloop
  endfacet
  facet normal 0 -1 -0
    outer loop
      vertex 58 -50 3
      vertex 54 -50 0
      vertex 58 -50 0
    endloop
  endfacet
  facet normal -1 0 0
    outer loop
      vertex 50 -59 0
      vertex 50 -56 3
      vertex 50 -56 0
    endloop
  endfacet
  facet normal -1 -0 0
    outer loop
      vertex 50 -56 3
      vertex 50 -59 0
      vertex 50 -59 3
    endloop
  endfacet
  facet normal 1 -0 0
    outer loop
      vertex 30 -59 3
      vertex 30 -56 0
      vertex 30 -56 3
    endloop
  endfacet
  facet normal 1 0 0
    outer loop
      vertex 30 -56 0
      vertex 30 -59 3
      vertex 30 -59 0
    endloop
  endfacet
  facet normal 0 1 -0
    outer loop
      vertex 50 -59 0
      vertex 30 -59 3
      vertex 50 -59 3
    endloop
  endfacet
  facet normal 0 1 0
    outer loop
      vertex 30 -59 3
      vertex 50 -59 0
      vertex 30 -59 0
    endloop
  endfacet
  facet normal 0 -1 0
    outer loop
      vertex 30 -56 0
      vertex 50 -56 3
      vertex 30 -56 3
    endloop
  endfacet
  facet normal 0 -1 -0
    outer loop
      vertex 50 -56 3
      vertex 30 -56 0
      vertex 50 -56 0
    endloop
  endfacet
  facet normal 1 -0 0
    outer loop
      vertex 54 -59 3
      vertex 54 -56 0
      vertex 54 -56 3
    endloop
  endfacet
  facet normal 1 0 0
    outer loop
      vertex 54 -56 0
      vertex 54 -59 3
      vertex 54 -59 0
    endloop
  endfacet
  facet normal 0 1 -0
    outer loop
      vertex 58 -59 0
      vertex 54 -59 3
      vertex 58 -59 3
    endloop
  endfacet
  facet normal 0 1 0
    outer loop
      vertex 54 -59 3
      vertex 58 -59 0
      vertex 54 -59 0
    endloop
  endfacet
  facet normal 0 -1 0
    outer loop
      vertex 54 -56 0
      vertex 58 -56 3
      vertex 54 -56 3
    endloop
  endfacet
  facet normal 0 -1 -0
    outer loop
      vertex 58 -56 3
      vertex 54 -56 0
      vertex 58 -56 0
    endloop
  endfacet
  facet normal -1 0 0
    outer loop
      vertex 50 -65 0
      vertex 50 -62 3
      vertex 50 -62 0
    endloop
  endfacet
  facet normal -1 -0 0
    outer loop
      vertex 50 -62 3
      vertex 50 -65 0
      vertex 50 -65 3
    endloop
  endfacet
  facet normal 1 -0 0
    outer loop
      vertex 30 -65 3
      vertex 30 -62 0
      vertex 30 -62 3
    endloop
  endfacet
  facet normal 1 0 0
    outer loop
      vertex 30 -62 0
      vertex 30 -65 3
      vertex 30 -65 0
    endloop
  endfacet
  facet normal 0 1 -0
    outer loop
      vertex 50 -65 0
      vertex 30 -65 3
      vertex 50 -65 3
    endloop
  endfacet
  facet normal 0 1 0
    outer loop
      vertex 30 -65 3
      vertex 50 -65 0
      vertex 30 -65 0
    endloop
  endfacet
  facet normal 0 -1 0
    outer loop
      vertex 30 -62 0
      vertex 50 -62 3
      vertex 30 -62 3
    endloop
  endfacet
  facet normal 0 -1 -0
    outer loop
      vertex 50 -62 3
      vertex 30 -62 0
      vertex 50 -62 0
    endloop
  endfacet
  facet normal 1 -0 0
    outer loop
      vertex 54 -65 3
      vertex 54 -62 0
      vertex 54 -62 3
    endloop
  endfacet
  facet normal 1 0 0
    outer loop
      vertex 54 -62 0
      vertex 54 -65 3
      vertex 54 -65 0
    endloop
  endfacet
  facet normal 0 1 -0
    outer loop
      vertex 58 -65 0
      vertex 54 -65 3
      vertex 58 -65 3
    endloop
  endfacet
  facet normal 0 1 0
    outer loop
      vertex 54 -65 3
      vertex 58 -65 0
      vertex 54 -65 0
    endloop
  endfacet
  facet normal 0 -1 0
    outer loop
      vertex 54 -62 0
      vertex 58 -62 3
      vertex 54 -62 3
    endloop
  endfacet
  facet normal 0 -1 -0
    outer loop
      vertex 58 -62 3
      vertex 54 -62 0
      vertex 58 -62 0
    endloop
  endfacet
  facet normal -1 0 0
    outer loop
      vertex 50 -71 0
      vertex 50 -68 3
      vertex 50 -68 0
    endloop
  endfacet
  facet normal -1 -0 0
    outer loop
      vertex 50 -68 3
      vertex 50 -71 0
      vertex 50 -71 3
    endloop
  endfacet
  facet normal 1 -0 0
    outer loop
      vertex 30 -71 3
      vertex 30 -68 0
      vertex 30 -68 3
    endloop
  endfacet
  facet normal 1 0 0
    outer loop
      vertex 30 -68 0
      vertex 30 -71 3
      vertex 30 -71 0
    endloop
  endfacet
  facet normal 0 1 -0
    outer loop
      vertex 50 -71 0
      vertex 30 -71 3
      vertex 50 -71 3
    endloop
  endfacet
  facet normal 0 1 0
    outer loop
      vertex 30 -71 3
      vertex 50 -71 0
      vertex 30 -71 0
    endloop
  endfacet
  facet normal 0 -1 0
    outer loop
      vertex 30 -68 0
      vertex 50 -68 3
      vertex 30 -68 3
    endloop
  endfacet
  facet normal 0 -1 -0
    outer loop
      vertex 50 -68 3
      vertex 30 -68 0
      vertex 50 -68 0
    endloop
  endfacet
  facet normal 1 -0 0
    outer loop
      vertex 54 -71 3
      vertex 54 -68 0
      vertex 54 -68 3
    endloop
  endfacet
  facet normal 1 0 0
    outer loop
      vertex 54 -68 0
      vertex 54 -71 3
      vertex 54 -71 0
    endloop
  endfacet
  facet normal 0 1 -0
    outer loop
      vertex 58 -71 0
      vertex 54 -71 3
      vertex 58 -71 3
    endloop
  endfacet
  facet normal 0 1 0
    outer loop
      vertex 54 -71 3
      vertex 58 -71 0
      vertex 54 -71 0
    endloop
  endfacet
  facet normal 0 -1 0
    outer loop
      vertex 54 -68 0
      vertex 58 -68 3
      vertex 54 -68 3
    endloop
  endfacet
  facet normal 0 -1 -0
    outer loop
      vertex 58 -68 3
      vertex 54 -68 0
      vertex 58 -68 0
    endloop
  endfacet
  facet normal -1 0 0
    outer loop
      vertex 50 -77 0
      vertex 50 -74 3
      vertex 50 -74 0
    endloop
  endfacet
  facet normal -1 -0 0
    outer loop
      vertex 50 -74 3
      vertex 50 -77 0
      vertex 50 -77 3
    endloop
  endfacet
  facet normal 1 -0 0
    outer loop
      vertex 30 -77 3
      vertex 30 -74 0
      vertex 30 -74 3
    endloop
  endfacet
  facet normal 1 0 0
    outer loop
      vertex 30 -74 0
      vertex 30 -77 3
      vertex 30 -77 0
    endloop
  endfacet
  facet normal 0 1 -0
    outer loop
      vertex 50 -77 0
      vertex 30 -77 3
      vertex 50 -77 3
    endloop
  endfacet
  facet normal 0 1 0
    outer loop
      vertex 30 -77 3
      vertex 50 -77 0
      vertex 30 -77 0
    endloop
  endfacet
  facet normal 0 -1 0
    outer loop
      vertex 30 -74 0
      vertex 50 -74 3
      vertex 30 -74 3
    endloop
  endfacet
  facet normal 0 -1 -0
    outer loop
      vertex 50 -74 3
      vertex 30 -74 0
      vertex 50 -74 0
    endloop
  endfacet
  facet normal 1 -0 0
    outer loop
      vertex 54 -77 3
      vertex 54 -74 0
      vertex 54 -74 3
    endloop
  endfacet
  facet normal 1 0 0
    outer loop
      vertex 54 -74 0
      vertex 54 -77 3
      vertex 54 -77 0
    endloop
  endfacet
  facet normal 0 1 -0
    outer loop
      vertex 58 -77 0
      vertex 54 -77 3
      vertex 58 -77 3
    endloop
  endfacet
  facet normal 0 1 0
    outer loop
      vertex 54 -77 3
      vertex 58 -77 0
      vertex 54 -77 0
    endloop
  endfacet
  facet normal 0 -1 0
    outer loop
      vertex 54 -74 0
      vertex 58 -74 3
      vertex 54 -74 3
    endloop
  endfacet
  facet normal 0 -1 -0
    outer loop
      vertex 58 -74 3
      vertex 54 -74 0
      vertex 58 -74 0
    endloop
  endfacet
  facet normal -1 0 0
    outer loop
      vertex 50 -80.7 0
      vertex 50 -80 3
      vertex 50 -80 0
    endloop
  endfacet
  facet normal -1 -0 0
    outer loop
      vertex 50 -80 3
      vertex 50 -80.7 0
      vertex 50 -80.7 3
    endloop
  endfacet
  facet normal 1 -0 0
    outer loop
      vertex 30 -80.7 3
      vertex 30 -80 0
      vertex 30 -80 3
    endloop
  endfacet
  facet normal 1 0 0
    outer loop
      vertex 30 -80 0
      vertex 30 -80.7 3
      vertex 30 -80.7 0
    endloop
  endfacet
  facet normal 0 -1 0
    outer loop
      vertex 30 -80 0
      vertex 50 -80 3
      vertex 30 -80 3
    endloop
  endfacet
  facet normal 0 -1 -0
    outer loop
      vertex 50 -80 3
      vertex 30 -80 0
      vertex 50 -80 0
    endloop
  endfacet
  facet normal 1 -0 0
    outer loop
      vertex 54 -80.7 3
      vertex 54 -80 0
      vertex 54 -80 3
    endloop
  endfacet
  facet normal 1 0 0
    outer loop
      vertex 54 -80 0
      vertex 54 -80.7 3
      vertex 54 -80.7 0
    endloop
  endfacet
  facet normal 0 -1 0
    outer loop
      vertex 54 -80 0
      vertex 58 -80 3
      vertex 54 -80 3
    endloop
  endfacet
  facet normal 0 -1 -0
    outer loop
      vertex 58 -80 3
      vertex 54 -80 0
      vertex 58 -80 0
    endloop
  endfacet
  facet normal -1 0 0
    outer loop
      vertex 17.6 -13.9 0
      vertex 17.6 -2 3
      vertex 17.6 -2 0
    endloop
  endfacet
  facet normal -1 -0 0
    outer loop
      vertex 17.6 -2 3
      vertex 17.6 -13.9 0
      vertex 17.6 -13.9 3
    endloop
  endfacet
  facet normal 1 -0 0
    outer loop
      vertex 5.6 -17.9 3
      vertex 5.6 -2 0
      vertex 5.6 -2 3
    endloop
  endfacet
  facet normal 1 0 0
    outer loop
      vertex 5.6 -2 0
      vertex 5.6 -17.9 3
      vertex 5.6 -17.9 0
    endloop
  endfacet
  facet normal 0 1 -0
    outer loop
      vertex 14.6 -17.9 0
      vertex 5.6 -17.9 3
      vertex 14.6 -17.9 3
    endloop
  endfacet
  facet normal 0 1 0
    outer loop
      vertex 5.6 -17.9 3
      vertex 14.6 -17.9 0
      vertex 5.6 -17.9 0
    endloop
  endfacet
  facet normal 0 -1 0
    outer loop
      vertex 5.6 -2 0
      vertex 17.6 -2 3
      vertex 5.6 -2 3
    endloop
  endfacet
  facet normal 0 -1 -0
    outer loop
      vertex 17.6 -2 3
      vertex 5.6 -2 0
      vertex 17.6 -2 0
    endloop
  endfacet
  facet normal 1 -0 0
    outer loop
      vertex 14.6 -35.32 3
      vertex 14.6 -17.9 0
      vertex 14.6 -17.9 3
    endloop
  endfacet
  facet normal 1 0 0
    outer loop
      vertex 14.6 -17.9 0
      vertex 14.6 -35.32 3
      vertex 14.6 -35.32 0
    endloop
  endfacet
  facet normal 0 1 -0
    outer loop
      vertex 58 -35.32 0
      vertex 14.6 -35.32 3
      vertex 58 -35.32 3
    endloop
  endfacet
  facet normal 0 1 0
    outer loop
      vertex 14.6 -35.32 3
      vertex 58 -35.32 0
      vertex 14.6 -35.32 0
    endloop
  endfacet
  facet normal 0 -1 0
    outer loop
      vertex 17.6 -13.9 0
      vertex 58 -13.9 3
      vertex 17.6 -13.9 3
    endloop
  endfacet
  facet normal 0 -1 -0
    outer loop
      vertex 58 -13.9 3
      vertex 17.6 -13.9 0
      vertex 58 -13.9 0
    endloop
  endfacet
  facet normal -1 0 0
    outer loop
      vertex 27 -80 0
      vertex 27 -60 3
      vertex 27 -60 0
    endloop
  endfacet
  facet normal -1 -0 0
    outer loop
      vertex 27 -60 3
      vertex 27 -80 0
      vertex 27 -80 3
    endloop
  endfacet
  facet normal 1 -0 0
    outer loop
      vertex 3.5 -80 3
      vertex 3.5 -60 0
      vertex 3.5 -60 3
    endloop
  endfacet
  facet normal 1 0 0
    outer loop
      vertex 3.5 -60 0
      vertex 3.5 -80 3
      vertex 3.5 -80 0
    endloop
  endfacet
  facet normal 0 1 -0
    outer loop
      vertex 27 -80 0
      vertex 3.5 -80 3
      vertex 27 -80 3
    endloop
  endfacet
  facet normal 0 1 0
    outer loop
      vertex 3.5 -80 3
      vertex 27 -80 0
      vertex 3.5 -80 0
    endloop
  endfacet
  facet normal 0 -1 0
    outer loop
      vertex 3.5 -60 0
      vertex 27 -60 3
      vertex 3.5 -60 3
    endloop
  endfacet
  facet normal 0 -1 -0
    outer loop
      vertex 27 -60 3
      vertex 3.5 -60 0
      vertex 27 -60 0
    endloop
  endfacet
  facet normal 0 1 -0
    outer loop
      vertex 58 -80.7 0
      vertex 54 -80.7 3
      vertex 58 -80.7 3
    endloop
  endfacet
  facet normal 0 1 0
    outer loop
      vertex 54 -80.7 3
      vertex 58 -80.7 0
      vertex 54 -80.7 0
    endloop
  endfacet
  facet normal 0 1 -0
    outer loop
      vertex 50 -80.7 0
      vertex 30 -80.7 3
      vertex 50 -80.7 3
    endloop
  endfacet
  facet normal 0 1 0
    outer loop
      vertex 30 -80.7 3
      vertex 50 -80.7 0
      vertex 30 -80.7 0
    endloop
  endfacet
  facet normal 0 0 -1
    outer loop
      vertex 30 -44 0
      vertex 50 -41 0
      vertex 50 -44 0
    endloop
  endfacet
  facet normal -0 0 -1
    outer loop
      vertex 50 -41 0
      vertex 30 -44 0
      vertex 30 -41 0
    endloop
  endfacet
  facet normal 0 0 -1
    outer loop
      vertex 30 -50 0
      vertex 50 -47 0
      vertex 50 -50 0
    endloop
  endfacet
  facet normal -0 0 -1
    outer loop
      vertex 50 -47 0
      vertex 30 -50 0
      vertex 30 -47 0
    endloop
  endfacet
  facet normal 0 0 -1
    outer loop
      vertex 30 -56 0
      vertex 50 -53 0
      vertex 50 -56 0
    endloop
  endfacet
  facet normal -0 0 -1
    outer loop
      vertex 50 -53 0
      vertex 30 -56 0
      vertex 30 -53 0
    endloop
  endfacet
  facet normal 0 0 -1
    outer loop
      vertex 30 -62 0
      vertex 50 -59 0
      vertex 50 -62 0
    endloop
  endfacet
  facet normal -0 0 -1
    outer loop
      vertex 50 -59 0
      vertex 30 -62 0
      vertex 30 -59 0
    endloop
  endfacet
  facet normal 0 0 -1
    outer loop
      vertex 30 -68 0
      vertex 50 -65 0
      vertex 50 -68 0
    endloop
  endfacet
  facet normal -0 0 -1
    outer loop
      vertex 50 -65 0
      vertex 30 -68 0
      vertex 30 -65 0
    endloop
  endfacet
  facet normal 0 0 -1
    outer loop
      vertex 30 -74 0
      vertex 50 -71 0
      vertex 50 -74 0
    endloop
  endfacet
  facet normal -0 0 -1
    outer loop
      vertex 50 -71 0
      vertex 30 -74 0
      vertex 30 -71 0
    endloop
  endfacet
  facet normal 0 0 -1
    outer loop
      vertex 30 -80 0
      vertex 50 -77 0
      vertex 50 -80 0
    endloop
  endfacet
  facet normal -0 0 -1
    outer loop
      vertex 50 -77 0
      vertex 30 -80 0
      vertex 30 -77 0
    endloop
  endfacet
  facet normal 0 0 -1
    outer loop
      vertex 58 -85.7 0
      vertex 54 -80.7 0
      vertex 58 -80.7 0
    endloop
  endfacet
  facet normal 0 0 -1
    outer loop
      vertex 50 -80 0
      vertex 54 -80 0
      vertex 54 -80.7 0
    endloop
  endfacet
  facet normal 0 0 -1
    outer loop
      vertex 54 -80 0
      vertex 50 -80 0
      vertex 54 -77 0
    endloop
  endfacet
  facet normal 0 0 -1
    outer loop
      vertex 54 -77 0
      vertex 50 -77 0
      vertex 54 -74 0
    endloop
  endfacet
  facet normal 0 0 -1
    outer loop
      vertex 50 -74 0
      vertex 54 -74 0
      vertex 50 -77 0
    endloop
  endfacet
  facet normal 0 0 -1
    outer loop
      vertex 50 -71 0
      vertex 54 -71 0
      vertex 50 -74 0
    endloop
  endfacet
  facet normal 0 0 -1
    outer loop
      vertex 54 -71 0
      vertex 50 -71 0
      vertex 54 -68 0
    endloop
  endfacet
  facet normal 0 0 -1
    outer loop
      vertex 54 -68 0
      vertex 50 -68 0
      vertex 54 -65 0
    endloop
  endfacet
  facet normal 0 0 -1
    outer loop
      vertex 50 -65 0
      vertex 54 -65 0
      vertex 50 -68 0
    endloop
  endfacet
  facet normal 0 0 -1
    outer loop
      vertex 50 -62 0
      vertex 54 -62 0
      vertex 50 -65 0
    endloop
  endfacet
  facet normal 0 0 -1
    outer loop
      vertex 54 -62 0
      vertex 50 -62 0
      vertex 54 -59 0
    endloop
  endfacet
  facet normal 0 0 -1
    outer loop
      vertex 54 -59 0
      vertex 50 -59 0
      vertex 54 -56 0
    endloop
  endfacet
  facet normal 0 0 -1
    outer loop
      vertex 50 -56 0
      vertex 54 -56 0
      vertex 50 -59 0
    endloop
  endfacet
  facet normal 0 0 -1
    outer loop
      vertex 50 -53 0
      vertex 54 -53 0
      vertex 50 -56 0
    endloop
  endfacet
  facet normal 0 0 -1
    outer loop
      vertex 50 -50 0
      vertex 54 -50 0
      vertex 50 -53 0
    endloop
  endfacet
  facet normal 0 0 -1
    outer loop
      vertex 50 -80 0
      vertex 54 -80.7 0
      vertex 50 -80.7 0
    endloop
  endfacet
  facet normal 0 0 -1
    outer loop
      vertex 58 -85.7 0
      vertex 50 -80.7 0
      vertex 54 -80.7 0
    endloop
  endfacet
  facet normal 0 0 -1
    outer loop
      vertex 58 -85.7 0
      vertex 30 -80.7 0
      vertex 50 -80.7 0
    endloop
  endfacet
  facet normal 0 0 -1
    outer loop
      vertex 27 -80 0
      vertex 30 -80 0
      vertex 30 -80.7 0
    endloop
  endfacet
  facet normal 0 0 -1
    outer loop
      vertex 30 -80 0
      vertex 27 -80 0
      vertex 30 -77 0
    endloop
  endfacet
  facet normal -0 0 -1
    outer loop
      vertex 30 -77 0
      vertex 27 -80 0
      vertex 30 -74 0
    endloop
  endfacet
  facet normal -0 0 -1
    outer loop
      vertex 30 -74 0
      vertex 27 -80 0
      vertex 30 -71 0
    endloop
  endfacet
  facet normal 0 0 -1
    outer loop
      vertex 27 -60 0
      vertex 30 -71 0
      vertex 27 -80 0
    endloop
  endfacet
  facet normal 0 0 -1
    outer loop
      vertex 30 -71 0
      vertex 27 -60 0
      vertex 30 -68 0
    endloop
  endfacet
  facet normal 0 0 -1
    outer loop
      vertex 30 -68 0
      vertex 27 -60 0
      vertex 30 -65 0
    endloop
  endfacet
  facet normal 0 0 -1
    outer loop
      vertex 30 -62 0
      vertex 27 -60 0
      vertex 30 -59 0
    endloop
  endfacet
  facet normal -0 0 -1
    outer loop
      vertex 30 -59 0
      vertex 27 -60 0
      vertex 30 -56 0
    endloop
  endfacet
  facet normal -0 0 -1
    outer loop
      vertex 30 -56 0
      vertex 27 -60 0
      vertex 30 -53 0
    endloop
  endfacet
  facet normal -0 0 -1
    outer loop
      vertex 30 -53 0
      vertex 27 -60 0
      vertex 30 -50 0
    endloop
  endfacet
  facet normal 0 0 -1
    outer loop
      vertex 3.5 -60 0
      vertex 30 -50 0
      vertex 27 -60 0
    endloop
  endfacet
  facet normal 0 0 -1
    outer loop
      vertex 30 -50 0
      vertex 14.6 -35.32 0
      vertex 30 -47 0
    endloop
  endfacet
  facet normal 0 0 -1
    outer loop
      vertex 30 -47 0
      vertex 14.6 -35.32 0
      vertex 30 -44 0
    endloop
  endfacet
  facet normal 0 0 -1
    outer loop
      vertex 30 -65 0
      vertex 27 -60 0
      vertex 30 -62 0
    endloop
  endfacet
  facet normal 0 0 -1
    outer loop
      vertex 0 -85.7 0
      vertex 27 -80 0
      vertex 30 -80.7 0
    endloop
  endfacet
  facet normal 0 0 -1
    outer loop
      vertex 0 -85.7 0
      vertex 30 -80.7 0
      vertex 58 -85.7 0
    endloop
  endfacet
  facet normal -0 0 -1
    outer loop
      vertex 3.5 -80 0
      vertex 0 -85.7 0
      vertex 3.5 -60 0
    endloop
  endfacet
  facet normal -0 0 -1
    outer loop
      vertex 27 -80 0
      vertex 0 -85.7 0
      vertex 3.5 -80 0
    endloop
  endfacet
  facet normal 0 0 -1
    outer loop
      vertex 54 -80 0
      vertex 58 -77 0
      vertex 58 -80 0
    endloop
  endfacet
  facet normal -0 0 -1
    outer loop
      vertex 58 -77 0
      vertex 54 -80 0
      vertex 54 -77 0
    endloop
  endfacet
  facet normal 0 0 -1
    outer loop
      vertex 54 -74 0
      vertex 58 -71 0
      vertex 58 -74 0
    endloop
  endfacet
  facet normal -0 0 -1
    outer loop
      vertex 58 -71 0
      vertex 54 -74 0
      vertex 54 -71 0
    endloop
  endfacet
  facet normal 0 0 -1
    outer loop
      vertex 54 -68 0
      vertex 58 -65 0
      vertex 58 -68 0
    endloop
  endfacet
  facet normal -0 0 -1
    outer loop
      vertex 58 -65 0
      vertex 54 -68 0
      vertex 54 -65 0
    endloop
  endfacet
  facet normal 0 0 -1
    outer loop
      vertex 54 -62 0
      vertex 58 -59 0
      vertex 58 -62 0
    endloop
  endfacet
  facet normal -0 0 -1
    outer loop
      vertex 58 -59 0
      vertex 54 -62 0
      vertex 54 -59 0
    endloop
  endfacet
  facet normal 0 0 -1
    outer loop
      vertex 54 -56 0
      vertex 58 -53 0
      vertex 58 -56 0
    endloop
  endfacet
  facet normal -0 0 -1
    outer loop
      vertex 58 -53 0
      vertex 54 -56 0
      vertex 54 -53 0
    endloop
  endfacet
  facet normal 0 0 -1
    outer loop
      vertex 54 -50 0
      vertex 58 -47 0
      vertex 58 -50 0
    endloop
  endfacet
  facet normal -0 0 -1
    outer loop
      vertex 58 -47 0
      vertex 54 -50 0
      vertex 54 -47 0
    endloop
  endfacet
  facet normal 0 0 -1
    outer loop
      vertex 54 -44 0
      vertex 58 -41 0
      vertex 58 -44 0
    endloop
  endfacet
  facet normal -0 0 -1
    outer loop
      vertex 58 -41 0
      vertex 54 -44 0
      vertex 54 -41 0
    endloop
  endfacet
  facet normal 0 0 -1
    outer loop
      vertex 54 -38 0
      vertex 58 -35.32 0
      vertex 58 -38 0
    endloop
  endfacet
  facet normal -0 0 -1
    outer loop
      vertex 54 -77 0
      vertex 50 -80 0
      vertex 50 -77 0
    endloop
  endfacet
  facet normal 0 0 -1
    outer loop
      vertex 54 -74 0
      vertex 50 -74 0
      vertex 54 -71 0
    endloop
  endfacet
  facet normal 0 0 -1
    outer loop
      vertex 50 -68 0
      vertex 54 -68 0
      vertex 50 -71 0
    endloop
  endfacet
  facet normal 0 0 -1
    outer loop
      vertex 54 -65 0
      vertex 50 -65 0
      vertex 54 -62 0
    endloop
  endfacet
  facet normal 0 0 -1
    outer loop
      vertex 50 -59 0
      vertex 54 -59 0
      vertex 50 -62 0
    endloop
  endfacet
  facet normal 0 0 -1
    outer loop
      vertex 54 -56 0
      vertex 50 -56 0
      vertex 54 -53 0
    endloop
  endfacet
  facet normal 0 0 -1
    outer loop
      vertex 54 -53 0
      vertex 50 -53 0
      vertex 54 -50 0
    endloop
  endfacet
  facet normal 0 0 -1
    outer loop
      vertex 54 -50 0
      vertex 50 -50 0
      vertex 54 -47 0
    endloop
  endfacet
  facet normal 0 0 -1
    outer loop
      vertex 50 -47 0
      vertex 54 -47 0
      vertex 50 -50 0
    endloop
  endfacet
  facet normal 0 0 -1
    outer loop
      vertex 54 -47 0
      vertex 50 -47 0
      vertex 54 -44 0
    endloop
  endfacet
  facet normal 0 0 -1
    outer loop
      vertex 50 -44 0
      vertex 54 -44 0
      vertex 50 -47 0
    endloop
  endfacet
  facet normal 0 0 -1
    outer loop
      vertex 54 -44 0
      vertex 50 -44 0
      vertex 54 -41 0
    endloop
  endfacet
  facet normal 0 0 -1
    outer loop
      vertex 50 -41 0
      vertex 54 -41 0
      vertex 50 -44 0
    endloop
  endfacet
  facet normal 0 0 -1
    outer loop
      vertex 54 -41 0
      vertex 50 -41 0
      vertex 54 -38 0
    endloop
  endfacet
  facet normal 0 0 -1
    outer loop
      vertex 50 -38 0
      vertex 54 -38 0
      vertex 50 -41 0
    endloop
  endfacet
  facet normal 0 0 -1
    outer loop
      vertex 50 -38 0
      vertex 58 -35.32 0
      vertex 54 -38 0
    endloop
  endfacet
  facet normal 0 0 -1
    outer loop
      vertex 30 -38 0
      vertex 58 -35.32 0
      vertex 50 -38 0
    endloop
  endfacet
  facet normal 0 0 -1
    outer loop
      vertex 30 -44 0
      vertex 14.6 -35.32 0
      vertex 30 -41 0
    endloop
  endfacet
  facet normal 0 0 -1
    outer loop
      vertex 30 -38 0
      vertex 14.6 -35.32 0
      vertex 58 -35.32 0
    endloop
  endfacet
  facet normal 0 0 -1
    outer loop
      vertex 30 -41 0
      vertex 14.6 -35.32 0
      vertex 30 -38 0
    endloop
  endfacet
  facet normal 0 0 -1
    outer loop
      vertex 14.6 -35.32 0
      vertex 5.6 -17.9 0
      vertex 14.6 -17.9 0
    endloop
  endfacet
  facet normal -0 0 -1
    outer loop
      vertex 30 -50 0
      vertex 3.5 -60 0
      vertex 14.6 -35.32 0
    endloop
  endfacet
  facet normal 0 0 -1
    outer loop
      vertex 0 3 0
      vertex 5.6 -17.9 0
      vertex 3.5 -60 0
    endloop
  endfacet
  facet normal -0 0 -1
    outer loop
      vertex 14.6 -35.32 0
      vertex 3.5 -60 0
      vertex 5.6 -17.9 0
    endloop
  endfacet
  facet normal 0 0 -1
    outer loop
      vertex 17.6 -2 0
      vertex 58 -13.9 0
      vertex 17.6 -13.9 0
    endloop
  endfacet
  facet normal 0 0 -1
    outer loop
      vertex 58 -13.9 0
      vertex 17.6 -2 0
      vertex 58 3 0
    endloop
  endfacet
  facet normal 0 0 -1
    outer loop
      vertex 0 3 0
      vertex 17.6 -2 0
      vertex 5.6 -2 0
    endloop
  endfacet
  facet normal 0 0 -1
    outer loop
      vertex 0 3 0
      vertex 3.5 -60 0
      vertex 0 -85.7 0
    endloop
  endfacet
  facet normal 0 0 -1
    outer loop
      vertex 17.6 -2 0
      vertex 0 3 0
      vertex 58 3 0
    endloop
  endfacet
  facet normal 0 0 -1
    outer loop
      vertex 5.6 -17.9 0
      vertex 0 3 0
      vertex 5.6 -2 0
    endloop
  endfacet
  facet normal -1 0 0
    outer loop
      vertex 0 -85.7 0
      vertex 0 3 3
      vertex 0 3 0
    endloop
  endfacet
  facet normal -1 -0 0
    outer loop
      vertex 0 3 3
      vertex 0 -85.7 0
      vertex 0 -85.7 3
    endloop
  endfacet
  facet normal 0 0 1
    outer loop
      vertex 14.6 -17.9 3
      vertex 5.6 -17.9 3
      vertex 14.6 -35.32 3
    endloop
  endfacet
  facet normal -0 0 1
    outer loop
      vertex 30 -77 3
      vertex 50 -80 3
      vertex 50 -77 3
    endloop
  endfacet
  facet normal 0 0 1
    outer loop
      vertex 50 -80 3
      vertex 30 -77 3
      vertex 30 -80 3
    endloop
  endfacet
  facet normal -0 0 1
    outer loop
      vertex 30 -71 3
      vertex 50 -74 3
      vertex 50 -71 3
    endloop
  endfacet
  facet normal 0 0 1
    outer loop
      vertex 50 -74 3
      vertex 30 -71 3
      vertex 30 -74 3
    endloop
  endfacet
  facet normal -0 0 1
    outer loop
      vertex 30 -65 3
      vertex 50 -68 3
      vertex 50 -65 3
    endloop
  endfacet
  facet normal 0 0 1
    outer loop
      vertex 50 -68 3
      vertex 30 -65 3
      vertex 30 -68 3
    endloop
  endfacet
  facet normal -0 0 1
    outer loop
      vertex 30 -59 3
      vertex 50 -62 3
      vertex 50 -59 3
    endloop
  endfacet
  facet normal 0 0 1
    outer loop
      vertex 50 -62 3
      vertex 30 -59 3
      vertex 30 -62 3
    endloop
  endfacet
  facet normal -0 0 1
    outer loop
      vertex 30 -53 3
      vertex 50 -56 3
      vertex 50 -53 3
    endloop
  endfacet
  facet normal 0 0 1
    outer loop
      vertex 50 -56 3
      vertex 30 -53 3
      vertex 30 -56 3
    endloop
  endfacet
  facet normal -0 0 1
    outer loop
      vertex 30 -47 3
      vertex 50 -50 3
      vertex 50 -47 3
    endloop
  endfacet
  facet normal 0 0 1
    outer loop
      vertex 50 -50 3
      vertex 30 -47 3
      vertex 30 -50 3
    endloop
  endfacet
  facet normal -0 0 1
    outer loop
      vertex 30 -41 3
      vertex 50 -44 3
      vertex 50 -41 3
    endloop
  endfacet
  facet normal 0 0 1
    outer loop
      vertex 50 -44 3
      vertex 30 -41 3
      vertex 30 -44 3
    endloop
  endfacet
  facet normal 0 0 1
    outer loop
      vertex 58 -35.32 3
      vertex 54 -38 3
      vertex 58 -38 3
    endloop
  endfacet
  facet normal 0 0 1
    outer loop
      vertex 50 -41 3
      vertex 54 -41 3
      vertex 54 -38 3
    endloop
  endfacet
  facet normal 0 0 1
    outer loop
      vertex 54 -41 3
      vertex 50 -41 3
      vertex 54 -44 3
    endloop
  endfacet
  facet normal 0 0 1
    outer loop
      vertex 54 -44 3
      vertex 50 -44 3
      vertex 54 -47 3
    endloop
  endfacet
  facet normal 0 0 1
    outer loop
      vertex 50 -47 3
      vertex 54 -47 3
      vertex 50 -44 3
    endloop
  endfacet
  facet normal 0 0 1
    outer loop
      vertex 50 -50 3
      vertex 54 -50 3
      vertex 50 -47 3
    endloop
  endfacet
  facet normal 0 0 1
    outer loop
      vertex 54 -50 3
      vertex 50 -50 3
      vertex 54 -53 3
    endloop
  endfacet
  facet normal 0 0 1
    outer loop
      vertex 54 -53 3
      vertex 50 -53 3
      vertex 54 -56 3
    endloop
  endfacet
  facet normal 0 0 1
    outer loop
      vertex 50 -56 3
      vertex 54 -56 3
      vertex 50 -53 3
    endloop
  endfacet
  facet normal 0 0 1
    outer loop
      vertex 50 -59 3
      vertex 54 -59 3
      vertex 50 -56 3
    endloop
  endfacet
  facet normal 0 0 1
    outer loop
      vertex 54 -59 3
      vertex 50 -59 3
      vertex 54 -62 3
    endloop
  endfacet
  facet normal 0 0 1
    outer loop
      vertex 54 -62 3
      vertex 50 -62 3
      vertex 54 -65 3
    endloop
  endfacet
  facet normal 0 0 1
    outer loop
      vertex 50 -65 3
      vertex 54 -65 3
      vertex 50 -62 3
    endloop
  endfacet
  facet normal 0 0 1
    outer loop
      vertex 50 -68 3
      vertex 54 -68 3
      vertex 50 -65 3
    endloop
  endfacet
  facet normal 0 0 1
    outer loop
      vertex 54 -68 3
      vertex 50 -68 3
      vertex 54 -71 3
    endloop
  endfacet
  facet normal 0 0 1
    outer loop
      vertex 50 -41 3
      vertex 54 -38 3
      vertex 50 -38 3
    endloop
  endfacet
  facet normal 0 0 1
    outer loop
      vertex 58 -35.32 3
      vertex 50 -38 3
      vertex 54 -38 3
    endloop
  endfacet
  facet normal 0 0 1
    outer loop
      vertex 58 -35.32 3
      vertex 30 -38 3
      vertex 50 -38 3
    endloop
  endfacet
  facet normal 0 0 1
    outer loop
      vertex 14.6 -35.32 3
      vertex 30 -41 3
      vertex 30 -38 3
    endloop
  endfacet
  facet normal 0 0 1
    outer loop
      vertex 30 -41 3
      vertex 14.6 -35.32 3
      vertex 30 -44 3
    endloop
  endfacet
  facet normal 0 0 1
    outer loop
      vertex 30 -44 3
      vertex 14.6 -35.32 3
      vertex 30 -47 3
    endloop
  endfacet
  facet normal 0 0 1
    outer loop
      vertex 30 -47 3
      vertex 14.6 -35.32 3
      vertex 30 -50 3
    endloop
  endfacet
  facet normal 0 0 1
    outer loop
      vertex 3.5 -60 3
      vertex 30 -50 3
      vertex 14.6 -35.32 3
    endloop
  endfacet
  facet normal 0 -0 1
    outer loop
      vertex 27 -60 3
      vertex 30 -50 3
      vertex 3.5 -60 3
    endloop
  endfacet
  facet normal 0 0 1
    outer loop
      vertex 30 -56 3
      vertex 27 -60 3
      vertex 30 -59 3
    endloop
  endfacet
  facet normal 0 0 1
    outer loop
      vertex 30 -59 3
      vertex 27 -60 3
      vertex 30 -62 3
    endloop
  endfacet
  facet normal 0 0 1
    outer loop
      vertex 30 -62 3
      vertex 27 -60 3
      vertex 30 -65 3
    endloop
  endfacet
  facet normal 0 0 1
    outer loop
      vertex 30 -65 3
      vertex 27 -60 3
      vertex 30 -68 3
    endloop
  endfacet
  facet normal 0 0 1
    outer loop
      vertex 30 -68 3
      vertex 27 -60 3
      vertex 30 -71 3
    endloop
  endfacet
  facet normal 0 0 1
    outer loop
      vertex 27 -80 3
      vertex 30 -71 3
      vertex 27 -60 3
    endloop
  endfacet
  facet normal 0 0 1
    outer loop
      vertex 30 -71 3
      vertex 27 -80 3
      vertex 30 -74 3
    endloop
  endfacet
  facet normal 0 0 1
    outer loop
      vertex 30 -74 3
      vertex 27 -80 3
      vertex 30 -77 3
    endloop
  endfacet
  facet normal 0 0 1
    outer loop
      vertex 30 -77 3
      vertex 27 -80 3
      vertex 30 -80 3
    endloop
  endfacet
  facet normal -0 0 1
    outer loop
      vertex 14.6 -35.32 3
      vertex 30 -38 3
      vertex 58 -35.32 3
    endloop
  endfacet
  facet normal 0 0 1
    outer loop
      vertex 30 -53 3
      vertex 27 -60 3
      vertex 30 -56 3
    endloop
  endfacet
  facet normal 0 0 1
    outer loop
      vertex 3.5 -60 3
      vertex 14.6 -35.32 3
      vertex 5.6 -17.9 3
    endloop
  endfacet
  facet normal 0 0 1
    outer loop
      vertex 30 -50 3
      vertex 27 -60 3
      vertex 30 -53 3
    endloop
  endfacet
  facet normal -0 0 1
    outer loop
      vertex 54 -41 3
      vertex 58 -44 3
      vertex 58 -41 3
    endloop
  endfacet
  facet normal 0 0 1
    outer loop
      vertex 58 -44 3
      vertex 54 -41 3
      vertex 54 -44 3
    endloop
  endfacet
  facet normal -0 0 1
    outer loop
      vertex 54 -47 3
      vertex 58 -50 3
      vertex 58 -47 3
    endloop
  endfacet
  facet normal 0 0 1
    outer loop
      vertex 58 -50 3
      vertex 54 -47 3
      vertex 54 -50 3
    endloop
  endfacet
  facet normal -0 0 1
    outer loop
      vertex 54 -53 3
      vertex 58 -56 3
      vertex 58 -53 3
    endloop
  endfacet
  facet normal 0 0 1
    outer loop
      vertex 58 -56 3
      vertex 54 -53 3
      vertex 54 -56 3
    endloop
  endfacet
  facet normal -0 0 1
    outer loop
      vertex 54 -59 3
      vertex 58 -62 3
      vertex 58 -59 3
    endloop
  endfacet
  facet normal 0 0 1
    outer loop
      vertex 58 -62 3
      vertex 54 -59 3
      vertex 54 -62 3
    endloop
  endfacet
  facet normal -0 0 1
    outer loop
      vertex 54 -65 3
      vertex 58 -68 3
      vertex 58 -65 3
    endloop
  endfacet
  facet normal 0 0 1
    outer loop
      vertex 58 -68 3
      vertex 54 -65 3
      vertex 54 -68 3
    endloop
  endfacet
  facet normal -0 0 1
    outer loop
      vertex 54 -71 3
      vertex 58 -74 3
      vertex 58 -71 3
    endloop
  endfacet
  facet normal 0 0 1
    outer loop
      vertex 58 -74 3
      vertex 54 -71 3
      vertex 54 -74 3
    endloop
  endfacet
  facet normal -0 0 1
    outer loop
      vertex 54 -77 3
      vertex 58 -80 3
      vertex 58 -77 3
    endloop
  endfacet
  facet normal 0 0 1
    outer loop
      vertex 58 -80 3
      vertex 54 -77 3
      vertex 54 -80 3
    endloop
  endfacet
  facet normal -0 0 1
    outer loop
      vertex 54 -80.7 3
      vertex 58 -85.7 3
      vertex 58 -80.7 3
    endloop
  endfacet
  facet normal 0 0 1
    outer loop
      vertex 54 -44 3
      vertex 50 -41 3
      vertex 50 -44 3
    endloop
  endfacet
  facet normal 0 0 1
    outer loop
      vertex 54 -47 3
      vertex 50 -47 3
      vertex 54 -50 3
    endloop
  endfacet
  facet normal 0 0 1
    outer loop
      vertex 50 -53 3
      vertex 54 -53 3
      vertex 50 -50 3
    endloop
  endfacet
  facet normal 0 0 1
    outer loop
      vertex 54 -56 3
      vertex 50 -56 3
      vertex 54 -59 3
    endloop
  endfacet
  facet normal 0 0 1
    outer loop
      vertex 50 -62 3
      vertex 54 -62 3
      vertex 50 -59 3
    endloop
  endfacet
  facet normal 0 0 1
    outer loop
      vertex 54 -65 3
      vertex 50 -65 3
      vertex 54 -68 3
    endloop
  endfacet
  facet normal 0 0 1
    outer loop
      vertex 50 -71 3
      vertex 54 -71 3
      vertex 50 -68 3
    endloop
  endfacet
  facet normal 0 0 1
    outer loop
      vertex 54 -71 3
      vertex 50 -71 3
      vertex 54 -74 3
    endloop
  endfacet
  facet normal 0 0 1
    outer loop
      vertex 50 -74 3
      vertex 54 -74 3
      vertex 50 -71 3
    endloop
  endfacet
  facet normal 0 0 1
    outer loop
      vertex 54 -74 3
      vertex 50 -74 3
      vertex 54 -77 3
    endloop
  endfacet
  facet normal 0 0 1
    outer loop
      vertex 50 -77 3
      vertex 54 -77 3
      vertex 50 -74 3
    endloop
  endfacet
  facet normal 0 0 1
    outer loop
      vertex 54 -77 3
      vertex 50 -77 3
      vertex 54 -80 3
    endloop
  endfacet
  facet normal 0 0 1
    outer loop
      vertex 50 -80 3
      vertex 54 -80 3
      vertex 50 -77 3
    endloop
  endfacet
  facet normal 0 0 1
    outer loop
      vertex 54 -80 3
      vertex 50 -80 3
      vertex 54 -80.7 3
    endloop
  endfacet
  facet normal 0 0 1
    outer loop
      vertex 50 -80.7 3
      vertex 54 -80.7 3
      vertex 50 -80 3
    endloop
  endfacet
  facet normal 0 0 1
    outer loop
      vertex 54 -80.7 3
      vertex 50 -80.7 3
      vertex 58 -85.7 3
    endloop
  endfacet
  facet normal -0 0 1
    outer loop
      vertex 30 -80.7 3
      vertex 58 -85.7 3
      vertex 50 -80.7 3
    endloop
  endfacet
  facet normal 0 0 1
    outer loop
      vertex 30 -80 3
      vertex 27 -80 3
      vertex 30 -80.7 3
    endloop
  endfacet
  facet normal 0 0 1
    outer loop
      vertex 0 -85.7 3
      vertex 27 -80 3
      vertex 3.5 -80 3
    endloop
  endfacet
  facet normal 0 0 1
    outer loop
      vertex 27 -80 3
      vertex 0 -85.7 3
      vertex 30 -80.7 3
    endloop
  endfacet
  facet normal 0 0 1
    outer loop
      vertex 30 -80.7 3
      vertex 0 -85.7 3
      vertex 58 -85.7 3
    endloop
  endfacet
  facet normal 0 0 1
    outer loop
      vertex 3.5 -60 3
      vertex 0 -85.7 3
      vertex 3.5 -80 3
    endloop
  endfacet
  facet normal 0 0 1
    outer loop
      vertex 58 3 3
      vertex 17.6 -2 3
      vertex 58 -13.9 3
    endloop
  endfacet
  facet normal -0 0 1
    outer loop
      vertex 0 3 3
      vertex 17.6 -2 3
      vertex 58 3 3
    endloop
  endfacet
  facet normal 0 0 1
    outer loop
      vertex 0 3 3
      vertex 5.6 -17.9 3
      vertex 5.6 -2 3
    endloop
  endfacet
  facet normal 0 0 1
    outer loop
      vertex 0 -85.7 3
      vertex 3.5 -60 3
      vertex 0 3 3
    endloop
  endfacet
  facet normal 0 0 1
    outer loop
      vertex 5.6 -17.9 3
      vertex 0 3 3
      vertex 3.5 -60 3
    endloop
  endfacet
  facet normal 0 0 1
    outer loop
      vertex 17.6 -2 3
      vertex 0 3 3
      vertex 5.6 -2 3
    endloop
  endfacet
  facet normal 0 0 1
    outer loop
      vertex 58 -13.9 3
      vertex 17.6 -2 3
      vertex 17.6 -13.9 3
    endloop
  endfacet
  facet normal 0 -1 0
    outer loop
      vertex 0 -85.7 0
      vertex 58 -85.7 3
      vertex 0 -85.7 3
    endloop
  endfacet
  facet normal 0 -1 -0
    outer loop
      vertex 58 -85.7 3
      vertex 0 -85.7 0
      vertex 58 -85.7 0
    endloop
  endfacet
  facet normal 1 -0 0
    outer loop
      vertex 58 -85.7 3
      vertex 58 -80.7 0
      vertex 58 -80.7 3
    endloop
  endfacet
  facet normal 1 0 0
    outer loop
      vertex 58 -80.7 0
      vertex 58 -85.7 3
      vertex 58 -85.7 0
    endloop
  endfacet
  facet normal 1 -0 0
    outer loop
      vertex 58 -62 3
      vertex 58 -59 0
      vertex 58 -59 3
    endloop
  endfacet
  facet normal 1 0 0
    outer loop
      vertex 58 -59 0
      vertex 58 -62 3
      vertex 58 -62 0
    endloop
  endfacet
  facet normal 1 -0 0
    outer loop
      vertex 58 -56 3
      vertex 58 -53 0
      vertex 58 -53 3
    endloop
  endfacet
  facet normal 1 0 0
    outer loop
      vertex 58 -53 0
      vertex 58 -56 3
      vertex 58 -56 0
    endloop
  endfacet
  facet normal 1 -0 0
    outer loop
      vertex 58 -80 3
      vertex 58 -77 0
      vertex 58 -77 3
    endloop
  endfacet
  facet normal 1 0 0
    outer loop
      vertex 58 -77 0
      vertex 58 -80 3
      vertex 58 -80 0
    endloop
  endfacet
  facet normal 1 -0 0
    outer loop
      vertex 58 -50 3
      vertex 58 -47 0
      vertex 58 -47 3
    endloop
  endfacet
  facet normal 1 0 0
    outer loop
      vertex 58 -47 0
      vertex 58 -50 3
      vertex 58 -50 0
    endloop
  endfacet
  facet normal 1 -0 0
    outer loop
      vertex 58 -44 3
      vertex 58 -41 0
      vertex 58 -41 3
    endloop
  endfacet
  facet normal 1 0 0
    outer loop
      vertex 58 -41 0
      vertex 58 -44 3
      vertex 58 -44 0
    endloop
  endfacet
  facet normal 1 -0 0
    outer loop
      vertex 58 -74 3
      vertex 58 -71 0
      vertex 58 -71 3
    endloop
  endfacet
  facet normal 1 0 0
    outer loop
      vertex 58 -71 0
      vertex 58 -74 3
      vertex 58 -74 0
    endloop
  endfacet
  facet normal 1 -0 0
    outer loop
      vertex 58 -68 3
      vertex 58 -65 0
      vertex 58 -65 3
    endloop
  endfacet
  facet normal 1 0 0
    outer loop
      vertex 58 -65 0
      vertex 58 -68 3
      vertex 58 -68 0
    endloop
  endfacet
  facet normal 1 -0 0
    outer loop
      vertex 58 -38 3
      vertex 58 -35.32 0
      vertex 58 -35.32 3
    endloop
  endfacet
  facet normal 1 0 0
    outer loop
      vertex 58 -35.32 0
      vertex 58 -38 3
      vertex 58 -38 0
    endloop
  endfacet
  facet normal 1 -0 0
    outer loop
      vertex 58 -13.9 3
      vertex 58 3 0
      vertex 58 3 3
    endloop
  endfacet
  facet normal 1 0 0
    outer loop
      vertex 58 3 0
      vertex 58 -13.9 3
      vertex 58 -13.9 0
    endloop
  endfacet
  facet normal 0 1 -0
    outer loop
      vertex 58 3 0
      vertex 0 3 3
      vertex 58 3 3
    endloop
  endfacet
  facet normal 0 1 0
    outer loop
      vertex 0 3 3
      vertex 58 3 0
      vertex 0 3 0
    endloop
  endfacet
endsolid OpenSCAD_Model
