solid OpenSCAD_Model
  facet normal 0 0 -1
    outer loop
      vertex 37.8 13.9 1.90735e-07
      vertex 12.8 16.9 1.90735e-07
      vertex 37.8 16.9 1.90735e-07
    endloop
  endfacet
  facet normal -0 0 -1
    outer loop
      vertex 12.8 16.9 1.90735e-07
      vertex 0 13.9 1.90735e-07
      vertex 12.8 59.9 1.90735e-07
    endloop
  endfacet
  facet normal 0 0 -1
    outer loop
      vertex 0 13.9 1.90735e-07
      vertex 12.8 16.9 1.90735e-07
      vertex 37.8 13.9 1.90735e-07
    endloop
  endfacet
  facet normal 0 0 -1
    outer loop
      vertex 12.8 59.9 1.90735e-07
      vertex 37.8 62.9 1.90735e-07
      vertex 37.8 59.9 1.90735e-07
    endloop
  endfacet
  facet normal 0 0 -1
    outer loop
      vertex 12.8 59.9 1.90735e-07
      vertex 0 62.9 1.90735e-07
      vertex 37.8 62.9 1.90735e-07
    endloop
  endfacet
  facet normal 0 0 -1
    outer loop
      vertex 0 62.9 1.90735e-07
      vertex 12.8 59.9 1.90735e-07
      vertex 0 13.9 1.90735e-07
    endloop
  endfacet
  facet normal 1 0 0
    outer loop
      vertex 37.8 14.7787 18
      vertex 37.8 13.9 18
      vertex 37.8 14.7787 9
    endloop
  endfacet
  facet normal 1 -0 0
    outer loop
      vertex 37.8 14.7787 9
      vertex 37.8 16.9 1.90735e-07
      vertex 37.8 16.9 9
    endloop
  endfacet
  facet normal 1 0 0
    outer loop
      vertex 37.8 14.7787 9
      vertex 37.8 13.9 1.90735e-07
      vertex 37.8 16.9 1.90735e-07
    endloop
  endfacet
  facet normal 1 0 0
    outer loop
      vertex 37.8 13.9 1.90735e-07
      vertex 37.8 14.7787 9
      vertex 37.8 13.9 18
    endloop
  endfacet
  facet normal -1 0 0
    outer loop
      vertex 0 62.9 1.90735e-07
      vertex 0 55.4 6
      vertex 0 62.9 18
    endloop
  endfacet
  facet normal -1 0 0
    outer loop
      vertex 0 62.9 1.90735e-07
      vertex 0 49.4 6
      vertex 0 55.4 6
    endloop
  endfacet
  facet normal -1 0 0
    outer loop
      vertex 0 49.4 6
      vertex 0 27.4 6
      vertex 0 49.4 12
    endloop
  endfacet
  facet normal -1 0 0
    outer loop
      vertex 0 62.9 1.90735e-07
      vertex 0 27.4 6
      vertex 0 49.4 6
    endloop
  endfacet
  facet normal -1 0 0
    outer loop
      vertex 0 13.9 1.90735e-07
      vertex 0 27.4 6
      vertex 0 62.9 1.90735e-07
    endloop
  endfacet
  facet normal -1 -0 0
    outer loop
      vertex 0 21.4 6
      vertex 0 13.9 1.90735e-07
      vertex 0 21.4 12
    endloop
  endfacet
  facet normal -1 -0 0
    outer loop
      vertex 0 27.4 6
      vertex 0 13.9 1.90735e-07
      vertex 0 21.4 6
    endloop
  endfacet
  facet normal -1 0 0
    outer loop
      vertex 0 55.4 12
      vertex 0 62.9 18
      vertex 0 55.4 6
    endloop
  endfacet
  facet normal -1 0 0
    outer loop
      vertex 0 49.4 12
      vertex 0 62.9 18
      vertex 0 55.4 12
    endloop
  endfacet
  facet normal -1 0 0
    outer loop
      vertex 0 27.4 12
      vertex 0 49.4 12
      vertex 0 27.4 6
    endloop
  endfacet
  facet normal -1 0 0
    outer loop
      vertex 0 49.4 12
      vertex 0 27.4 12
      vertex 0 62.9 18
    endloop
  endfacet
  facet normal -1 0 0
    outer loop
      vertex 0 13.9 18
      vertex 0 27.4 12
      vertex 0 21.4 12
    endloop
  endfacet
  facet normal -1 0 0
    outer loop
      vertex 0 27.4 12
      vertex 0 13.9 18
      vertex 0 62.9 18
    endloop
  endfacet
  facet normal -1 0 0
    outer loop
      vertex 0 13.9 18
      vertex 0 21.4 12
      vertex 0 13.9 1.90735e-07
    endloop
  endfacet
  facet normal 0 0 1
    outer loop
      vertex 37.8 62.9 18
      vertex 35.6787 59.9 18
      vertex 37.8 62.0213 18
    endloop
  endfacet
  facet normal 0 0 1
    outer loop
      vertex 37.8 62.9 18
      vertex 12.8 59.9 18
      vertex 35.6787 59.9 18
    endloop
  endfacet
  facet normal 0 0 1
    outer loop
      vertex 12.8 59.9 18
      vertex 0 62.9 18
      vertex 12.8 16.9 18
    endloop
  endfacet
  facet normal -0 0 1
    outer loop
      vertex 0 62.9 18
      vertex 12.8 59.9 18
      vertex 37.8 62.9 18
    endloop
  endfacet
  facet normal 0 0 1
    outer loop
      vertex 35.6787 16.9 18
      vertex 37.8 13.9 18
      vertex 37.8 14.7787 18
    endloop
  endfacet
  facet normal -0 0 1
    outer loop
      vertex 12.8 16.9 18
      vertex 37.8 13.9 18
      vertex 35.6787 16.9 18
    endloop
  endfacet
  facet normal 0 0 1
    outer loop
      vertex 12.8 16.9 18
      vertex 0 13.9 18
      vertex 37.8 13.9 18
    endloop
  endfacet
  facet normal 0 0 1
    outer loop
      vertex 0 13.9 18
      vertex 12.8 16.9 18
      vertex 0 62.9 18
    endloop
  endfacet
  facet normal 0 1 0
    outer loop
      vertex 37.8 16.9 9
      vertex 37.8 16.9 1.90735e-07
      vertex 35.6787 16.9 9
    endloop
  endfacet
  facet normal 0 1 -0
    outer loop
      vertex 35.6787 16.9 9
      vertex 12.8 16.9 18
      vertex 35.6787 16.9 18
    endloop
  endfacet
  facet normal 0 1 0
    outer loop
      vertex 12.8 16.9 1.90735e-07
      vertex 35.6787 16.9 9
      vertex 37.8 16.9 1.90735e-07
    endloop
  endfacet
  facet normal 0 1 0
    outer loop
      vertex 35.6787 16.9 9
      vertex 12.8 16.9 1.90735e-07
      vertex 12.8 16.9 18
    endloop
  endfacet
  facet normal 0 -1 0
    outer loop
      vertex 0 13.9 1.90735e-07
      vertex 37.8 13.9 18
      vertex 0 13.9 18
    endloop
  endfacet
  facet normal 0 -1 -0
    outer loop
      vertex 37.8 13.9 18
      vertex 0 13.9 1.90735e-07
      vertex 37.8 13.9 1.90735e-07
    endloop
  endfacet
  facet normal 1 0 0
    outer loop
      vertex 37.8 62.0213 9
      vertex 37.8 62.9 18
      vertex 37.8 62.0213 18
    endloop
  endfacet
  facet normal 1 0 0
    outer loop
      vertex 37.8 62.9 18
      vertex 37.8 62.0213 9
      vertex 37.8 62.9 1.90735e-07
    endloop
  endfacet
  facet normal 1 0 0
    outer loop
      vertex 37.8 59.9 1.90735e-07
      vertex 37.8 62.0213 9
      vertex 37.8 59.9 9
    endloop
  endfacet
  facet normal 1 0 0
    outer loop
      vertex 37.8 62.0213 9
      vertex 37.8 59.9 1.90735e-07
      vertex 37.8 62.9 1.90735e-07
    endloop
  endfacet
  facet normal 0 1 -0
    outer loop
      vertex 37.8 62.9 1.90735e-07
      vertex 0 62.9 18
      vertex 37.8 62.9 18
    endloop
  endfacet
  facet normal 0 1 0
    outer loop
      vertex 0 62.9 18
      vertex 37.8 62.9 1.90735e-07
      vertex 0 62.9 1.90735e-07
    endloop
  endfacet
  facet normal 0 -1 0
    outer loop
      vertex 12.8 59.9 18
      vertex 35.6787 59.9 9
      vertex 35.6787 59.9 18
    endloop
  endfacet
  facet normal 0 -1 0
    outer loop
      vertex 12.8 59.9 1.90735e-07
      vertex 35.6787 59.9 9
      vertex 12.8 59.9 18
    endloop
  endfacet
  facet normal 0 -1 0
    outer loop
      vertex 37.8 59.9 1.90735e-07
      vertex 35.6787 59.9 9
      vertex 12.8 59.9 1.90735e-07
    endloop
  endfacet
  facet normal 0 -1 0
    outer loop
      vertex 35.6787 59.9 9
      vertex 37.8 59.9 1.90735e-07
      vertex 37.8 59.9 9
    endloop
  endfacet
  facet normal 1 -0 0
    outer loop
      vertex 12.8 16.9 18
      vertex 12.8 59.9 1.90735e-07
      vertex 12.8 59.9 18
    endloop
  endfacet
  facet normal 1 0 0
    outer loop
      vertex 12.8 59.9 1.90735e-07
      vertex 12.8 16.9 18
      vertex 12.8 16.9 1.90735e-07
    endloop
  endfacet
  facet normal 0 0 1
    outer loop
      vertex 37.8 16.9 9
      vertex 35.6787 16.9 9
      vertex 37.8 14.7787 9
    endloop
  endfacet
  facet normal 0.707107 0.707107 1.01162e-17
    outer loop
      vertex 37.8 14.7787 18
      vertex 35.6787 16.9 9
      vertex 35.6787 16.9 18
    endloop
  endfacet
  facet normal 0.707107 0.707107 1.01162e-17
    outer loop
      vertex 35.6787 16.9 9
      vertex 37.8 14.7787 18
      vertex 37.8 14.7787 9
    endloop
  endfacet
  facet normal 0.707107 -0.707107 -1.01162e-17
    outer loop
      vertex 35.6787 59.9 18
      vertex 37.8 62.0213 9
      vertex 37.8 62.0213 18
    endloop
  endfacet
  facet normal 0.707107 -0.707107 -1.01162e-17
    outer loop
      vertex 37.8 62.0213 9
      vertex 35.6787 59.9 18
      vertex 35.6787 59.9 9
    endloop
  endfacet
  facet normal 0 -0 1
    outer loop
      vertex 37.8 59.9 9
      vertex 37.8 62.0213 9
      vertex 35.6787 59.9 9
    endloop
  endfacet
  facet normal 0 0 -1
    outer loop
      vertex -2.4 21.4 6
      vertex 0 27.4 6
      vertex 0 21.4 6
    endloop
  endfacet
  facet normal -0 0 -1
    outer loop
      vertex 0 27.4 6
      vertex -2.4 21.4 6
      vertex -2.4 27.4 6
    endloop
  endfacet
  facet normal -1 0 0
    outer loop
      vertex -2.4 21.4 6
      vertex -2.4 27.4 12
      vertex -2.4 27.4 6
    endloop
  endfacet
  facet normal -1 -0 0
    outer loop
      vertex -2.4 27.4 12
      vertex -2.4 21.4 6
      vertex -2.4 21.4 12
    endloop
  endfacet
  facet normal -0 0 1
    outer loop
      vertex -2.4 27.4 12
      vertex 0 21.4 12
      vertex 0 27.4 12
    endloop
  endfacet
  facet normal 0 0 1
    outer loop
      vertex 0 21.4 12
      vertex -2.4 27.4 12
      vertex -2.4 21.4 12
    endloop
  endfacet
  facet normal 0 1 -0
    outer loop
      vertex 0 27.4 6
      vertex -2.4 27.4 12
      vertex 0 27.4 12
    endloop
  endfacet
  facet normal 0 1 0
    outer loop
      vertex -2.4 27.4 12
      vertex 0 27.4 6
      vertex -2.4 27.4 6
    endloop
  endfacet
  facet normal 0 -1 0
    outer loop
      vertex -2.4 21.4 6
      vertex 0 21.4 12
      vertex -2.4 21.4 12
    endloop
  endfacet
  facet normal 0 -1 -0
    outer loop
      vertex 0 21.4 12
      vertex -2.4 21.4 6
      vertex 0 21.4 6
    endloop
  endfacet
  facet normal 0 0 -1
    outer loop
      vertex -2.4 49.4 6
      vertex 0 55.4 6
      vertex 0 49.4 6
    endloop
  endfacet
  facet normal -0 0 -1
    outer loop
      vertex 0 55.4 6
      vertex -2.4 49.4 6
      vertex -2.4 55.4 6
    endloop
  endfacet
  facet normal -1 0 0
    outer loop
      vertex -2.4 49.4 6
      vertex -2.4 55.4 12
      vertex -2.4 55.4 6
    endloop
  endfacet
  facet normal -1 -0 0
    outer loop
      vertex -2.4 55.4 12
      vertex -2.4 49.4 6
      vertex -2.4 49.4 12
    endloop
  endfacet
  facet normal -0 0 1
    outer loop
      vertex -2.4 55.4 12
      vertex 0 49.4 12
      vertex 0 55.4 12
    endloop
  endfacet
  facet normal 0 0 1
    outer loop
      vertex 0 49.4 12
      vertex -2.4 55.4 12
      vertex -2.4 49.4 12
    endloop
  endfacet
  facet normal 0 1 -0
    outer loop
      vertex 0 55.4 6
      vertex -2.4 55.4 12
      vertex 0 55.4 12
    endloop
  endfacet
  facet normal 0 1 0
    outer loop
      vertex -2.4 55.4 12
      vertex 0 55.4 6
      vertex -2.4 55.4 6
    endloop
  endfacet
  facet normal 0 -1 0
    outer loop
      vertex -2.4 49.4 6
      vertex 0 49.4 12
      vertex -2.4 49.4 12
    endloop
  endfacet
  facet normal 0 -1 -0
    outer loop
      vertex 0 49.4 12
      vertex -2.4 49.4 6
      vertex 0 49.4 6
    endloop
  endfacet
endsolid OpenSCAD_Model
