solid OpenSCAD_Model
  facet normal 1 -0 0
    outer loop
      vertex 6.5000 6.5000 6.0000
      vertex 6.5000 91.0000 3.0000
      vertex 6.5000 91.0000 6.0000
    endloop
  endfacet
  facet normal 1 0 0
    outer loop
      vertex 6.5000 91.0000 3.0000
      vertex 6.5000 6.5000 6.0000
      vertex 6.5000 6.5000 3.0000
    endloop
  endfacet
  facet normal -0 0 1
    outer loop
      vertex 5.0000 91.0000 6.0000
      vertex 6.5000 6.5000 6.0000
      vertex 6.5000 91.0000 6.0000
    endloop
  endfacet
  facet normal 0 0 1
    outer loop
      vertex 6.5000 6.5000 6.0000
      vertex 5.0000 91.0000 6.0000
      vertex 5.0000 6.5000 6.0000
    endloop
  endfacet
  facet normal 0 0 1
    outer loop
      vertex 144.0000 106.5000 3.0000
      vertex 15.5000 101.5000 3.0000
      vertex 144.0000 101.5000 3.0000
    endloop
  endfacet
  facet normal 0 0 1
    outer loop
      vertex 15.5000 101.5000 3.0000
      vertex 13.2000 99.7000 3.0000
      vertex 15.5000 100.0000 3.0000
    endloop
  endfacet
  facet normal 0 0 1
    outer loop
      vertex 15.5000 101.5000 3.0000
      vertex 6.8000 99.7000 3.0000
      vertex 13.2000 99.7000 3.0000
    endloop
  endfacet
  facet normal 0 0 1
    outer loop
      vertex 5.0000 91.0000 3.0000
      vertex 6.8000 93.3000 3.0000
      vertex 6.8000 99.7000 3.0000
    endloop
  endfacet
  facet normal 0 0 1
    outer loop
      vertex 6.8000 93.3000 3.0000
      vertex 5.0000 91.0000 3.0000
      vertex 6.5000 91.0000 3.0000
    endloop
  endfacet
  facet normal -0 0 1
    outer loop
      vertex 0.0000 106.5000 3.0000
      vertex 15.5000 101.5000 3.0000
      vertex 144.0000 106.5000 3.0000
    endloop
  endfacet
  facet normal 0 0 1
    outer loop
      vertex 0.0000 106.5000 3.0000
      vertex 6.8000 99.7000 3.0000
      vertex 15.5000 101.5000 3.0000
    endloop
  endfacet
  facet normal 0 0 1
    outer loop
      vertex 0.0000 106.5000 3.0000
      vertex 5.0000 91.0000 3.0000
      vertex 6.8000 99.7000 3.0000
    endloop
  endfacet
  facet normal 0 0 1
    outer loop
      vertex 0.0000 6.5000 3.0000
      vertex 5.0000 91.0000 3.0000
      vertex 0.0000 106.5000 3.0000
    endloop
  endfacet
  facet normal 0 0 1
    outer loop
      vertex 5.0000 91.0000 3.0000
      vertex 0.0000 6.5000 3.0000
      vertex 5.0000 6.5000 3.0000
    endloop
  endfacet
  facet normal -0 0 1
    outer loop
      vertex 19.0000 64.5000 3.0000
      vertex 20.8000 35.5000 3.0000
      vertex 20.8000 64.5000 3.0000
    endloop
  endfacet
  facet normal 0 0 1
    outer loop
      vertex 20.8000 35.5000 3.0000
      vertex 19.0000 64.5000 3.0000
      vertex 19.0000 35.5000 3.0000
    endloop
  endfacet
  facet normal -0 0 1
    outer loop
      vertex 27.0000 64.5000 3.0000
      vertex 28.8000 35.5000 3.0000
      vertex 28.8000 64.5000 3.0000
    endloop
  endfacet
  facet normal 0 0 1
    outer loop
      vertex 28.8000 35.5000 3.0000
      vertex 27.0000 64.5000 3.0000
      vertex 27.0000 35.5000 3.0000
    endloop
  endfacet
  facet normal -0 0 1
    outer loop
      vertex 44.8500 29.5000 3.0000
      vertex 45.0000 6.5000 3.0000
      vertex 46.6500 29.5000 3.0000
    endloop
  endfacet
  facet normal 0 0 1
    outer loop
      vertex 28.8000 35.5000 3.0000
      vertex 44.8500 35.5000 3.0000
      vertex 28.8000 64.5000 3.0000
    endloop
  endfacet
  facet normal 0 0 1
    outer loop
      vertex 44.8500 35.5000 3.0000
      vertex 28.8000 35.5000 3.0000
      vertex 44.8500 29.5000 3.0000
    endloop
  endfacet
  facet normal 0 0 1
    outer loop
      vertex 28.8000 29.5000 3.0000
      vertex 44.8500 29.5000 3.0000
      vertex 28.8000 35.5000 3.0000
    endloop
  endfacet
  facet normal 0 0 1
    outer loop
      vertex 44.8500 29.5000 3.0000
      vertex 28.8000 29.5000 3.0000
      vertex 45.0000 6.5000 3.0000
    endloop
  endfacet
  facet normal -0 0 1
    outer loop
      vertex 27.0000 29.5000 3.0000
      vertex 45.0000 6.5000 3.0000
      vertex 28.8000 29.5000 3.0000
    endloop
  endfacet
  facet normal 0 0 1
    outer loop
      vertex 20.8000 35.5000 3.0000
      vertex 27.0000 35.5000 3.0000
      vertex 20.8000 64.5000 3.0000
    endloop
  endfacet
  facet normal 0 0 1
    outer loop
      vertex 27.0000 35.5000 3.0000
      vertex 20.8000 35.5000 3.0000
      vertex 27.0000 29.5000 3.0000
    endloop
  endfacet
  facet normal 0 0 1
    outer loop
      vertex 20.8000 29.5000 3.0000
      vertex 27.0000 29.5000 3.0000
      vertex 20.8000 35.5000 3.0000
    endloop
  endfacet
  facet normal 0 0 1
    outer loop
      vertex 6.5000 6.5000 3.0000
      vertex 27.0000 29.5000 3.0000
      vertex 20.8000 29.5000 3.0000
    endloop
  endfacet
  facet normal 0 0 1
    outer loop
      vertex 6.5000 6.5000 3.0000
      vertex 20.8000 29.5000 3.0000
      vertex 19.0000 29.5000 3.0000
    endloop
  endfacet
  facet normal 0 0 1
    outer loop
      vertex 19.0000 70.5000 3.0000
      vertex 6.5000 91.0000 3.0000
      vertex 19.0000 64.5000 3.0000
    endloop
  endfacet
  facet normal 0 0 1
    outer loop
      vertex 19.0000 64.5000 3.0000
      vertex 6.5000 91.0000 3.0000
      vertex 19.0000 35.5000 3.0000
    endloop
  endfacet
  facet normal 0 0 1
    outer loop
      vertex 6.5000 91.0000 3.0000
      vertex 13.2000 93.3000 3.0000
      vertex 6.8000 93.3000 3.0000
    endloop
  endfacet
  facet normal 0 0 1
    outer loop
      vertex 6.5000 6.5000 3.0000
      vertex 19.0000 35.5000 3.0000
      vertex 6.5000 91.0000 3.0000
    endloop
  endfacet
  facet normal 0 0 1
    outer loop
      vertex 27.0000 29.5000 3.0000
      vertex 6.5000 6.5000 3.0000
      vertex 45.0000 6.5000 3.0000
    endloop
  endfacet
  facet normal 0 0 1
    outer loop
      vertex 19.0000 35.5000 3.0000
      vertex 6.5000 6.5000 3.0000
      vertex 19.0000 29.5000 3.0000
    endloop
  endfacet
  facet normal -0 0 1
    outer loop
      vertex 44.8500 64.5000 3.0000
      vertex 46.6500 35.5000 3.0000
      vertex 46.6500 64.5000 3.0000
    endloop
  endfacet
  facet normal 0 0 1
    outer loop
      vertex 46.6500 35.5000 3.0000
      vertex 44.8500 64.5000 3.0000
      vertex 44.8500 35.5000 3.0000
    endloop
  endfacet
  facet normal -0 0 1
    outer loop
      vertex 52.8500 64.5000 3.0000
      vertex 54.6500 35.5000 3.0000
      vertex 54.6500 64.5000 3.0000
    endloop
  endfacet
  facet normal 0 0 1
    outer loop
      vertex 54.6500 35.5000 3.0000
      vertex 52.8500 64.5000 3.0000
      vertex 52.8500 35.5000 3.0000
    endloop
  endfacet
  facet normal -0 0 1
    outer loop
      vertex 70.7000 64.5000 3.0000
      vertex 72.5000 35.5000 3.0000
      vertex 72.5000 64.5000 3.0000
    endloop
  endfacet
  facet normal 0 0 1
    outer loop
      vertex 72.5000 35.5000 3.0000
      vertex 70.7000 64.5000 3.0000
      vertex 70.7000 35.5000 3.0000
    endloop
  endfacet
  facet normal -0 0 1
    outer loop
      vertex 78.7000 64.5000 3.0000
      vertex 80.5000 35.5000 3.0000
      vertex 80.5000 64.5000 3.0000
    endloop
  endfacet
  facet normal 0 0 1
    outer loop
      vertex 80.5000 35.5000 3.0000
      vertex 78.7000 64.5000 3.0000
      vertex 78.7000 35.5000 3.0000
    endloop
  endfacet
  facet normal -0 0 1
    outer loop
      vertex 91.2000 10.5000 3.0000
      vertex 93.0000 6.5000 3.0000
      vertex 94.2000 10.5000 3.0000
    endloop
  endfacet
  facet normal 0 0 1
    outer loop
      vertex 80.5000 35.5000 3.0000
      vertex 91.2000 84.5000 3.0000
      vertex 80.5000 64.5000 3.0000
    endloop
  endfacet
  facet normal 0 0 1
    outer loop
      vertex 91.2000 84.5000 3.0000
      vertex 80.5000 35.5000 3.0000
      vertex 91.2000 10.5000 3.0000
    endloop
  endfacet
  facet normal -0 0 1
    outer loop
      vertex 80.5000 29.5000 3.0000
      vertex 91.2000 10.5000 3.0000
      vertex 80.5000 35.5000 3.0000
    endloop
  endfacet
  facet normal -0 0 1
    outer loop
      vertex 78.7000 29.5000 3.0000
      vertex 91.2000 10.5000 3.0000
      vertex 80.5000 29.5000 3.0000
    endloop
  endfacet
  facet normal -0 0 1
    outer loop
      vertex 72.5000 29.5000 3.0000
      vertex 91.2000 10.5000 3.0000
      vertex 78.7000 29.5000 3.0000
    endloop
  endfacet
  facet normal 0 0 1
    outer loop
      vertex 72.5000 35.5000 3.0000
      vertex 78.7000 35.5000 3.0000
      vertex 72.5000 64.5000 3.0000
    endloop
  endfacet
  facet normal 0 0 1
    outer loop
      vertex 78.7000 35.5000 3.0000
      vertex 72.5000 35.5000 3.0000
      vertex 78.7000 29.5000 3.0000
    endloop
  endfacet
  facet normal 0 0 1
    outer loop
      vertex 72.5000 29.5000 3.0000
      vertex 78.7000 29.5000 3.0000
      vertex 72.5000 35.5000 3.0000
    endloop
  endfacet
  facet normal -0 0 1
    outer loop
      vertex 70.7000 29.5000 3.0000
      vertex 91.2000 10.5000 3.0000
      vertex 72.5000 29.5000 3.0000
    endloop
  endfacet
  facet normal 0 0 1
    outer loop
      vertex 91.2000 10.5000 3.0000
      vertex 70.7000 29.5000 3.0000
      vertex 51.0000 6.5000 3.0000
    endloop
  endfacet
  facet normal 0 0 1
    outer loop
      vertex 54.6500 35.5000 3.0000
      vertex 70.7000 35.5000 3.0000
      vertex 54.6500 64.5000 3.0000
    endloop
  endfacet
  facet normal 0 0 1
    outer loop
      vertex 70.7000 35.5000 3.0000
      vertex 54.6500 35.5000 3.0000
      vertex 70.7000 29.5000 3.0000
    endloop
  endfacet
  facet normal 0 0 1
    outer loop
      vertex 54.6500 29.5000 3.0000
      vertex 70.7000 29.5000 3.0000
      vertex 54.6500 35.5000 3.0000
    endloop
  endfacet
  facet normal 0 0 1
    outer loop
      vertex 51.0000 6.5000 3.0000
      vertex 70.7000 29.5000 3.0000
      vertex 54.6500 29.5000 3.0000
    endloop
  endfacet
  facet normal 0 0 1
    outer loop
      vertex 51.0000 6.5000 3.0000
      vertex 54.6500 29.5000 3.0000
      vertex 52.8500 29.5000 3.0000
    endloop
  endfacet
  facet normal 0 0 1
    outer loop
      vertex 91.2000 10.5000 3.0000
      vertex 51.0000 6.5000 3.0000
      vertex 93.0000 6.5000 3.0000
    endloop
  endfacet
  facet normal -0 0 1
    outer loop
      vertex 94.2000 84.5000 3.0000
      vertex 144.0000 59.5000 3.0000
      vertex 144.0000 100.0000 3.0000
    endloop
  endfacet
  facet normal 0 0 1
    outer loop
      vertex 144.0000 59.5000 3.0000
      vertex 94.2000 84.5000 3.0000
      vertex 144.0000 53.5000 3.0000
    endloop
  endfacet
  facet normal 0 0 1
    outer loop
      vertex 94.2000 10.5000 3.0000
      vertex 144.0000 53.5000 3.0000
      vertex 94.2000 84.5000 3.0000
    endloop
  endfacet
  facet normal 0 0 1
    outer loop
      vertex 144.0000 53.5000 3.0000
      vertex 99.0000 6.5000 3.0000
      vertex 144.0000 6.5000 3.0000
    endloop
  endfacet
  facet normal 0 -0 1
    outer loop
      vertex 99.0000 6.5000 3.0000
      vertex 144.0000 53.5000 3.0000
      vertex 94.2000 10.5000 3.0000
    endloop
  endfacet
  facet normal 0 0 1
    outer loop
      vertex 144.0000 100.0000 3.0000
      vertex 91.2000 84.5000 3.0000
      vertex 94.2000 84.5000 3.0000
    endloop
  endfacet
  facet normal 0 0 1
    outer loop
      vertex 80.5000 64.5000 3.0000
      vertex 91.2000 84.5000 3.0000
      vertex 80.5000 70.5000 3.0000
    endloop
  endfacet
  facet normal 0 0 1
    outer loop
      vertex 91.2000 84.5000 3.0000
      vertex 78.7000 70.5000 3.0000
      vertex 80.5000 70.5000 3.0000
    endloop
  endfacet
  facet normal -0 0 1
    outer loop
      vertex 72.5000 70.5000 3.0000
      vertex 78.7000 64.5000 3.0000
      vertex 78.7000 70.5000 3.0000
    endloop
  endfacet
  facet normal 0 0 1
    outer loop
      vertex 72.5000 64.5000 3.0000
      vertex 78.7000 64.5000 3.0000
      vertex 72.5000 70.5000 3.0000
    endloop
  endfacet
  facet normal 0 0 1
    outer loop
      vertex 78.7000 64.5000 3.0000
      vertex 72.5000 64.5000 3.0000
      vertex 78.7000 35.5000 3.0000
    endloop
  endfacet
  facet normal 0 0 1
    outer loop
      vertex 91.2000 84.5000 3.0000
      vertex 72.5000 70.5000 3.0000
      vertex 78.7000 70.5000 3.0000
    endloop
  endfacet
  facet normal 0 0 1
    outer loop
      vertex 91.2000 84.5000 3.0000
      vertex 70.7000 70.5000 3.0000
      vertex 72.5000 70.5000 3.0000
    endloop
  endfacet
  facet normal -0 0 1
    outer loop
      vertex 54.6500 70.5000 3.0000
      vertex 70.7000 64.5000 3.0000
      vertex 70.7000 70.5000 3.0000
    endloop
  endfacet
  facet normal 0 0 1
    outer loop
      vertex 54.6500 64.5000 3.0000
      vertex 70.7000 64.5000 3.0000
      vertex 54.6500 70.5000 3.0000
    endloop
  endfacet
  facet normal 0 0 1
    outer loop
      vertex 70.7000 64.5000 3.0000
      vertex 54.6500 64.5000 3.0000
      vertex 70.7000 35.5000 3.0000
    endloop
  endfacet
  facet normal 0 0 1
    outer loop
      vertex 91.2000 84.5000 3.0000
      vertex 54.6500 70.5000 3.0000
      vertex 70.7000 70.5000 3.0000
    endloop
  endfacet
  facet normal 0 0 1
    outer loop
      vertex 15.5000 100.0000 3.0000
      vertex 54.6500 70.5000 3.0000
      vertex 91.2000 84.5000 3.0000
    endloop
  endfacet
  facet normal 0 0 1
    outer loop
      vertex 46.6500 64.5000 3.0000
      vertex 52.8500 64.5000 3.0000
      vertex 52.8500 70.5000 3.0000
    endloop
  endfacet
  facet normal 0 0 1
    outer loop
      vertex 52.8500 64.5000 3.0000
      vertex 46.6500 64.5000 3.0000
      vertex 52.8500 35.5000 3.0000
    endloop
  endfacet
  facet normal 0 0 1
    outer loop
      vertex 52.8500 35.5000 3.0000
      vertex 46.6500 35.5000 3.0000
      vertex 52.8500 29.5000 3.0000
    endloop
  endfacet
  facet normal 0 0 1
    outer loop
      vertex 52.8500 35.5000 3.0000
      vertex 46.6500 64.5000 3.0000
      vertex 46.6500 35.5000 3.0000
    endloop
  endfacet
  facet normal 0 0 1
    outer loop
      vertex 46.6500 64.5000 3.0000
      vertex 52.8500 70.5000 3.0000
      vertex 46.6500 70.5000 3.0000
    endloop
  endfacet
  facet normal 0 0 1
    outer loop
      vertex 54.6500 70.5000 3.0000
      vertex 15.5000 100.0000 3.0000
      vertex 52.8500 70.5000 3.0000
    endloop
  endfacet
  facet normal 0 0 1
    outer loop
      vertex 52.8500 70.5000 3.0000
      vertex 15.5000 100.0000 3.0000
      vertex 46.6500 70.5000 3.0000
    endloop
  endfacet
  facet normal -0 0 1
    outer loop
      vertex 28.8000 70.5000 3.0000
      vertex 44.8500 64.5000 3.0000
      vertex 44.8500 70.5000 3.0000
    endloop
  endfacet
  facet normal 0 0 1
    outer loop
      vertex 28.8000 64.5000 3.0000
      vertex 44.8500 64.5000 3.0000
      vertex 28.8000 70.5000 3.0000
    endloop
  endfacet
  facet normal 0 0 1
    outer loop
      vertex 44.8500 64.5000 3.0000
      vertex 28.8000 64.5000 3.0000
      vertex 44.8500 35.5000 3.0000
    endloop
  endfacet
  facet normal 0 0 1
    outer loop
      vertex 46.6500 70.5000 3.0000
      vertex 15.5000 100.0000 3.0000
      vertex 44.8500 70.5000 3.0000
    endloop
  endfacet
  facet normal -0 0 1
    outer loop
      vertex 15.5000 100.0000 3.0000
      vertex 91.2000 84.5000 3.0000
      vertex 144.0000 100.0000 3.0000
    endloop
  endfacet
  facet normal 0 0 1
    outer loop
      vertex 44.8500 70.5000 3.0000
      vertex 15.5000 100.0000 3.0000
      vertex 28.8000 70.5000 3.0000
    endloop
  endfacet
  facet normal -0 0 1
    outer loop
      vertex 20.8000 70.5000 3.0000
      vertex 27.0000 64.5000 3.0000
      vertex 27.0000 70.5000 3.0000
    endloop
  endfacet
  facet normal 0 0 1
    outer loop
      vertex 20.8000 64.5000 3.0000
      vertex 27.0000 64.5000 3.0000
      vertex 20.8000 70.5000 3.0000
    endloop
  endfacet
  facet normal 0 0 1
    outer loop
      vertex 27.0000 64.5000 3.0000
      vertex 20.8000 64.5000 3.0000
      vertex 27.0000 35.5000 3.0000
    endloop
  endfacet
  facet normal -0 0 1
    outer loop
      vertex 13.2000 93.3000 3.0000
      vertex 28.8000 70.5000 3.0000
      vertex 15.5000 100.0000 3.0000
    endloop
  endfacet
  facet normal 0 0 1
    outer loop
      vertex 28.8000 70.5000 3.0000
      vertex 13.2000 93.3000 3.0000
      vertex 27.0000 70.5000 3.0000
    endloop
  endfacet
  facet normal 0 0 1
    outer loop
      vertex 13.2000 93.3000 3.0000
      vertex 15.5000 100.0000 3.0000
      vertex 13.2000 99.7000 3.0000
    endloop
  endfacet
  facet normal 0 0 1
    outer loop
      vertex 20.8000 70.5000 3.0000
      vertex 13.2000 93.3000 3.0000
      vertex 19.0000 70.5000 3.0000
    endloop
  endfacet
  facet normal -0 0 1
    outer loop
      vertex 6.5000 91.0000 3.0000
      vertex 19.0000 70.5000 3.0000
      vertex 13.2000 93.3000 3.0000
    endloop
  endfacet
  facet normal 0 0 1
    outer loop
      vertex 27.0000 70.5000 3.0000
      vertex 13.2000 93.3000 3.0000
      vertex 20.8000 70.5000 3.0000
    endloop
  endfacet
  facet normal 0 0 1
    outer loop
      vertex 145.0000 59.5000 3.0000
      vertex 150.5000 61.7000 3.0000
      vertex 146.2000 61.7000 3.0000
    endloop
  endfacet
  facet normal 0 0 1
    outer loop
      vertex 150.5000 61.7000 3.0000
      vertex 145.0000 59.5000 3.0000
      vertex 150.5000 51.3000 3.0000
    endloop
  endfacet
  facet normal -0 0 1
    outer loop
      vertex 145.0000 53.5000 3.0000
      vertex 150.5000 51.3000 3.0000
      vertex 145.0000 59.5000 3.0000
    endloop
  endfacet
  facet normal 0 0 1
    outer loop
      vertex 150.5000 51.3000 3.0000
      vertex 145.0000 53.5000 3.0000
      vertex 146.2000 51.3000 3.0000
    endloop
  endfacet
  facet normal -0 0 1
    outer loop
      vertex 144.0000 59.5000 3.0000
      vertex 145.0000 53.5000 3.0000
      vertex 145.0000 59.5000 3.0000
    endloop
  endfacet
  facet normal 0 0 1
    outer loop
      vertex 145.0000 53.5000 3.0000
      vertex 144.0000 59.5000 3.0000
      vertex 144.0000 53.5000 3.0000
    endloop
  endfacet
  facet normal 0 0 1
    outer loop
      vertex 99.0000 5.5000 3.0000
      vertex 101.2000 0.0000 3.0000
      vertex 101.2000 4.3000 3.0000
    endloop
  endfacet
  facet normal 0 0 1
    outer loop
      vertex 93.0000 6.5000 3.0000
      vertex 99.0000 6.5000 3.0000
      vertex 94.2000 10.5000 3.0000
    endloop
  endfacet
  facet normal 0 0 1
    outer loop
      vertex 99.0000 6.5000 3.0000
      vertex 93.0000 6.5000 3.0000
      vertex 99.0000 5.5000 3.0000
    endloop
  endfacet
  facet normal 0 0 1
    outer loop
      vertex 93.0000 5.5000 3.0000
      vertex 99.0000 5.5000 3.0000
      vertex 93.0000 6.5000 3.0000
    endloop
  endfacet
  facet normal 0 0 1
    outer loop
      vertex 99.0000 5.5000 3.0000
      vertex 93.0000 5.5000 3.0000
      vertex 101.2000 0.0000 3.0000
    endloop
  endfacet
  facet normal 0 0 1
    outer loop
      vertex 90.8000 0.0000 3.0000
      vertex 93.0000 5.5000 3.0000
      vertex 90.8000 4.3000 3.0000
    endloop
  endfacet
  facet normal 0 0 1
    outer loop
      vertex 93.0000 5.5000 3.0000
      vertex 90.8000 0.0000 3.0000
      vertex 101.2000 0.0000 3.0000
    endloop
  endfacet
  facet normal 0 0 1
    outer loop
      vertex 51.0000 5.5000 3.0000
      vertex 53.2000 0.0000 3.0000
      vertex 53.2000 4.3000 3.0000
    endloop
  endfacet
  facet normal 0 0 1
    outer loop
      vertex 46.6500 29.5000 3.0000
      vertex 52.8500 29.5000 3.0000
      vertex 46.6500 35.5000 3.0000
    endloop
  endfacet
  facet normal 0 0 1
    outer loop
      vertex 52.8500 29.5000 3.0000
      vertex 46.6500 29.5000 3.0000
      vertex 51.0000 6.5000 3.0000
    endloop
  endfacet
  facet normal 0 0 1
    outer loop
      vertex 45.0000 6.5000 3.0000
      vertex 51.0000 6.5000 3.0000
      vertex 46.6500 29.5000 3.0000
    endloop
  endfacet
  facet normal 0 0 1
    outer loop
      vertex 51.0000 6.5000 3.0000
      vertex 45.0000 6.5000 3.0000
      vertex 51.0000 5.5000 3.0000
    endloop
  endfacet
  facet normal 0 0 1
    outer loop
      vertex 45.0000 5.5000 3.0000
      vertex 51.0000 5.5000 3.0000
      vertex 45.0000 6.5000 3.0000
    endloop
  endfacet
  facet normal 0 0 1
    outer loop
      vertex 51.0000 5.5000 3.0000
      vertex 45.0000 5.5000 3.0000
      vertex 53.2000 0.0000 3.0000
    endloop
  endfacet
  facet normal 0 0 1
    outer loop
      vertex 42.8000 0.0000 3.0000
      vertex 45.0000 5.5000 3.0000
      vertex 42.8000 4.3000 3.0000
    endloop
  endfacet
  facet normal 0 0 1
    outer loop
      vertex 45.0000 5.5000 3.0000
      vertex 42.8000 0.0000 3.0000
      vertex 53.2000 0.0000 3.0000
    endloop
  endfacet
  facet normal -1 0 0
    outer loop
      vertex 5.0000 6.5000 3.0000
      vertex 5.0000 91.0000 6.0000
      vertex 5.0000 91.0000 3.0000
    endloop
  endfacet
  facet normal -1 -0 0
    outer loop
      vertex 5.0000 91.0000 6.0000
      vertex 5.0000 6.5000 3.0000
      vertex 5.0000 6.5000 6.0000
    endloop
  endfacet
  facet normal 0 1 -0
    outer loop
      vertex 6.5000 91.0000 3.0000
      vertex 5.0000 91.0000 6.0000
      vertex 6.5000 91.0000 6.0000
    endloop
  endfacet
  facet normal 0 1 0
    outer loop
      vertex 5.0000 91.0000 6.0000
      vertex 6.5000 91.0000 3.0000
      vertex 5.0000 91.0000 3.0000
    endloop
  endfacet
  facet normal -0 0 1
    outer loop
      vertex 15.5000 101.5000 6.0000
      vertex 144.0000 100.0000 6.0000
      vertex 144.0000 101.5000 6.0000
    endloop
  endfacet
  facet normal 0 0 1
    outer loop
      vertex 144.0000 100.0000 6.0000
      vertex 15.5000 101.5000 6.0000
      vertex 15.5000 100.0000 6.0000
    endloop
  endfacet
  facet normal -1 0 0
    outer loop
      vertex 15.5000 100.0000 3.0000
      vertex 15.5000 101.5000 6.0000
      vertex 15.5000 101.5000 3.0000
    endloop
  endfacet
  facet normal -1 -0 0
    outer loop
      vertex 15.5000 101.5000 6.0000
      vertex 15.5000 100.0000 3.0000
      vertex 15.5000 100.0000 6.0000
    endloop
  endfacet
  facet normal 0 -1 0
    outer loop
      vertex 15.5000 100.0000 3.0000
      vertex 144.0000 100.0000 6.0000
      vertex 15.5000 100.0000 6.0000
    endloop
  endfacet
  facet normal 0 -1 -0
    outer loop
      vertex 144.0000 100.0000 6.0000
      vertex 15.5000 100.0000 3.0000
      vertex 144.0000 100.0000 3.0000
    endloop
  endfacet
  facet normal 0 1 -0
    outer loop
      vertex 144.0000 101.5000 3.0000
      vertex 15.5000 101.5000 6.0000
      vertex 144.0000 101.5000 6.0000
    endloop
  endfacet
  facet normal 0 1 0
    outer loop
      vertex 15.5000 101.5000 6.0000
      vertex 144.0000 101.5000 3.0000
      vertex 15.5000 101.5000 3.0000
    endloop
  endfacet
  facet normal 0 0 -1
    outer loop
      vertex 101.2000 0.0000 0.0000
      vertex 99.0000 5.5000 0.0000
      vertex 101.2000 4.3000 0.0000
    endloop
  endfacet
  facet normal 0 0 -1
    outer loop
      vertex 99.0000 5.5000 0.0000
      vertex 93.0000 5.5000 0.0000
      vertex 99.0000 6.5000 0.0000
    endloop
  endfacet
  facet normal 0 0 -1
    outer loop
      vertex 101.2000 0.0000 0.0000
      vertex 93.0000 5.5000 0.0000
      vertex 99.0000 5.5000 0.0000
    endloop
  endfacet
  facet normal 0 0 -1
    outer loop
      vertex 90.8000 0.0000 0.0000
      vertex 93.0000 5.5000 0.0000
      vertex 101.2000 0.0000 0.0000
    endloop
  endfacet
  facet normal 0 0 -1
    outer loop
      vertex 93.0000 5.5000 0.0000
      vertex 90.8000 0.0000 0.0000
      vertex 90.8000 4.3000 0.0000
    endloop
  endfacet
  facet normal 0 0 -1
    outer loop
      vertex 99.0000 6.5000 0.0000
      vertex 144.0000 53.5000 0.0000
      vertex 144.0000 6.5000 0.0000
    endloop
  endfacet
  facet normal 0 0 -1
    outer loop
      vertex 80.5000 35.5000 0.0000
      vertex 144.0000 53.5000 0.0000
      vertex 99.0000 6.5000 0.0000
    endloop
  endfacet
  facet normal 0 0 -1
    outer loop
      vertex 80.5000 64.5000 0.0000
      vertex 144.0000 53.5000 0.0000
      vertex 80.5000 35.5000 0.0000
    endloop
  endfacet
  facet normal 0 0 -1
    outer loop
      vertex 93.0000 6.5000 0.0000
      vertex 99.0000 6.5000 0.0000
      vertex 93.0000 5.5000 0.0000
    endloop
  endfacet
  facet normal 0 0 -1
    outer loop
      vertex 80.5000 29.5000 0.0000
      vertex 99.0000 6.5000 0.0000
      vertex 93.0000 6.5000 0.0000
    endloop
  endfacet
  facet normal 0 0 -1
    outer loop
      vertex 99.0000 6.5000 0.0000
      vertex 80.5000 29.5000 0.0000
      vertex 80.5000 35.5000 0.0000
    endloop
  endfacet
  facet normal 0 0 -1
    outer loop
      vertex 144.0000 53.5000 0.0000
      vertex 80.5000 64.5000 0.0000
      vertex 144.0000 59.5000 0.0000
    endloop
  endfacet
  facet normal 0 0 -1
    outer loop
      vertex 80.5000 70.5000 0.0000
      vertex 144.0000 59.5000 0.0000
      vertex 80.5000 64.5000 0.0000
    endloop
  endfacet
  facet normal 0 0 -1
    outer loop
      vertex 144.0000 59.5000 0.0000
      vertex 80.5000 70.5000 0.0000
      vertex 144.0000 106.5000 0.0000
    endloop
  endfacet
  facet normal 0 0 -1
    outer loop
      vertex 78.7000 70.5000 0.0000
      vertex 144.0000 106.5000 0.0000
      vertex 80.5000 70.5000 0.0000
    endloop
  endfacet
  facet normal 0 0 -1
    outer loop
      vertex 72.5000 64.5000 0.0000
      vertex 78.7000 64.5000 0.0000
      vertex 72.5000 35.5000 0.0000
    endloop
  endfacet
  facet normal 0 0 -1
    outer loop
      vertex 78.7000 64.5000 0.0000
      vertex 72.5000 64.5000 0.0000
      vertex 78.7000 70.5000 0.0000
    endloop
  endfacet
  facet normal 0 0 -1
    outer loop
      vertex 72.5000 70.5000 0.0000
      vertex 78.7000 70.5000 0.0000
      vertex 72.5000 64.5000 0.0000
    endloop
  endfacet
  facet normal 0 0 -1
    outer loop
      vertex 72.5000 70.5000 0.0000
      vertex 144.0000 106.5000 0.0000
      vertex 78.7000 70.5000 0.0000
    endloop
  endfacet
  facet normal 0 0 -1
    outer loop
      vertex 13.2000 99.7000 0.0000
      vertex 72.5000 70.5000 0.0000
      vertex 70.7000 70.5000 0.0000
    endloop
  endfacet
  facet normal 0 0 -1
    outer loop
      vertex 54.6500 64.5000 0.0000
      vertex 70.7000 64.5000 0.0000
      vertex 54.6500 35.5000 0.0000
    endloop
  endfacet
  facet normal 0 0 -1
    outer loop
      vertex 70.7000 64.5000 0.0000
      vertex 54.6500 64.5000 0.0000
      vertex 70.7000 70.5000 0.0000
    endloop
  endfacet
  facet normal 0 0 -1
    outer loop
      vertex 54.6500 70.5000 0.0000
      vertex 70.7000 70.5000 0.0000
      vertex 54.6500 64.5000 0.0000
    endloop
  endfacet
  facet normal 0 0 -1
    outer loop
      vertex 13.2000 99.7000 0.0000
      vertex 70.7000 70.5000 0.0000
      vertex 54.6500 70.5000 0.0000
    endloop
  endfacet
  facet normal 0 0 -1
    outer loop
      vertex 13.2000 99.7000 0.0000
      vertex 54.6500 70.5000 0.0000
      vertex 52.8500 70.5000 0.0000
    endloop
  endfacet
  facet normal 0 0 -1
    outer loop
      vertex 52.8500 35.5000 0.0000
      vertex 46.6500 35.5000 0.0000
      vertex 52.8500 64.5000 0.0000
    endloop
  endfacet
  facet normal 0 0 -1
    outer loop
      vertex 46.6500 64.5000 0.0000
      vertex 52.8500 64.5000 0.0000
      vertex 46.6500 35.5000 0.0000
    endloop
  endfacet
  facet normal 0 0 -1
    outer loop
      vertex 52.8500 64.5000 0.0000
      vertex 46.6500 64.5000 0.0000
      vertex 52.8500 70.5000 0.0000
    endloop
  endfacet
  facet normal 0 0 -1
    outer loop
      vertex 46.6500 70.5000 0.0000
      vertex 52.8500 70.5000 0.0000
      vertex 46.6500 64.5000 0.0000
    endloop
  endfacet
  facet normal 0 0 -1
    outer loop
      vertex 13.2000 99.7000 0.0000
      vertex 52.8500 70.5000 0.0000
      vertex 46.6500 70.5000 0.0000
    endloop
  endfacet
  facet normal 0 0 -1
    outer loop
      vertex 13.2000 99.7000 0.0000
      vertex 46.6500 70.5000 0.0000
      vertex 44.8500 70.5000 0.0000
    endloop
  endfacet
  facet normal 0 0 -1
    outer loop
      vertex 28.8000 64.5000 0.0000
      vertex 44.8500 64.5000 0.0000
      vertex 28.8000 35.5000 0.0000
    endloop
  endfacet
  facet normal 0 0 -1
    outer loop
      vertex 44.8500 64.5000 0.0000
      vertex 28.8000 64.5000 0.0000
      vertex 44.8500 70.5000 0.0000
    endloop
  endfacet
  facet normal 0 0 -1
    outer loop
      vertex 28.8000 70.5000 0.0000
      vertex 44.8500 70.5000 0.0000
      vertex 28.8000 64.5000 0.0000
    endloop
  endfacet
  facet normal 0 0 -1
    outer loop
      vertex 13.2000 93.3000 0.0000
      vertex 44.8500 70.5000 0.0000
      vertex 28.8000 70.5000 0.0000
    endloop
  endfacet
  facet normal 0 0 -1
    outer loop
      vertex 13.2000 93.3000 0.0000
      vertex 28.8000 70.5000 0.0000
      vertex 27.0000 70.5000 0.0000
    endloop
  endfacet
  facet normal 0 0 -1
    outer loop
      vertex 20.8000 64.5000 0.0000
      vertex 27.0000 64.5000 0.0000
      vertex 20.8000 35.5000 0.0000
    endloop
  endfacet
  facet normal 0 0 -1
    outer loop
      vertex 27.0000 64.5000 0.0000
      vertex 20.8000 64.5000 0.0000
      vertex 27.0000 70.5000 0.0000
    endloop
  endfacet
  facet normal 0 0 -1
    outer loop
      vertex 20.8000 70.5000 0.0000
      vertex 27.0000 70.5000 0.0000
      vertex 20.8000 64.5000 0.0000
    endloop
  endfacet
  facet normal 0 0 -1
    outer loop
      vertex 13.2000 93.3000 0.0000
      vertex 27.0000 70.5000 0.0000
      vertex 20.8000 70.5000 0.0000
    endloop
  endfacet
  facet normal 0 0 -1
    outer loop
      vertex 13.2000 93.3000 0.0000
      vertex 20.8000 70.5000 0.0000
      vertex 19.0000 70.5000 0.0000
    endloop
  endfacet
  facet normal 0 0 -1
    outer loop
      vertex 44.8500 70.5000 0.0000
      vertex 13.2000 93.3000 0.0000
      vertex 13.2000 99.7000 0.0000
    endloop
  endfacet
  facet normal 0 0 -1
    outer loop
      vertex 72.5000 70.5000 0.0000
      vertex 13.2000 99.7000 0.0000
      vertex 144.0000 106.5000 0.0000
    endloop
  endfacet
  facet normal 0 0 -1
    outer loop
      vertex 0.0000 106.5000 0.0000
      vertex 13.2000 99.7000 0.0000
      vertex 6.8000 99.7000 0.0000
    endloop
  endfacet
  facet normal 0 0 -1
    outer loop
      vertex 13.2000 99.7000 0.0000
      vertex 0.0000 106.5000 0.0000
      vertex 144.0000 106.5000 0.0000
    endloop
  endfacet
  facet normal 0 0 -1
    outer loop
      vertex 6.8000 93.3000 0.0000
      vertex 0.0000 106.5000 0.0000
      vertex 6.8000 99.7000 0.0000
    endloop
  endfacet
  facet normal 0 0 -1
    outer loop
      vertex 145.0000 53.5000 0.0000
      vertex 150.5000 51.3000 0.0000
      vertex 146.2000 51.3000 0.0000
    endloop
  endfacet
  facet normal 0 0 -1
    outer loop
      vertex 150.5000 51.3000 0.0000
      vertex 145.0000 53.5000 0.0000
      vertex 150.5000 61.7000 0.0000
    endloop
  endfacet
  facet normal 0 0 -1
    outer loop
      vertex 145.0000 59.5000 0.0000
      vertex 150.5000 61.7000 0.0000
      vertex 145.0000 53.5000 0.0000
    endloop
  endfacet
  facet normal -0 0 -1
    outer loop
      vertex 150.5000 61.7000 0.0000
      vertex 145.0000 59.5000 0.0000
      vertex 146.2000 61.7000 0.0000
    endloop
  endfacet
  facet normal 0 0 -1
    outer loop
      vertex 144.0000 53.5000 0.0000
      vertex 145.0000 59.5000 0.0000
      vertex 145.0000 53.5000 0.0000
    endloop
  endfacet
  facet normal -0 0 -1
    outer loop
      vertex 145.0000 59.5000 0.0000
      vertex 144.0000 53.5000 0.0000
      vertex 144.0000 59.5000 0.0000
    endloop
  endfacet
  facet normal 0 0 -1
    outer loop
      vertex 19.0000 35.5000 0.0000
      vertex 20.8000 64.5000 0.0000
      vertex 20.8000 35.5000 0.0000
    endloop
  endfacet
  facet normal -0 0 -1
    outer loop
      vertex 20.8000 64.5000 0.0000
      vertex 19.0000 35.5000 0.0000
      vertex 19.0000 64.5000 0.0000
    endloop
  endfacet
  facet normal 0 0 -1
    outer loop
      vertex 27.0000 35.5000 0.0000
      vertex 28.8000 64.5000 0.0000
      vertex 28.8000 35.5000 0.0000
    endloop
  endfacet
  facet normal -0 0 -1
    outer loop
      vertex 28.8000 64.5000 0.0000
      vertex 27.0000 35.5000 0.0000
      vertex 27.0000 64.5000 0.0000
    endloop
  endfacet
  facet normal 0 0 -1
    outer loop
      vertex 44.8500 35.5000 0.0000
      vertex 46.6500 64.5000 0.0000
      vertex 46.6500 35.5000 0.0000
    endloop
  endfacet
  facet normal -0 0 -1
    outer loop
      vertex 46.6500 64.5000 0.0000
      vertex 44.8500 35.5000 0.0000
      vertex 44.8500 64.5000 0.0000
    endloop
  endfacet
  facet normal 0 0 -1
    outer loop
      vertex 53.2000 0.0000 0.0000
      vertex 51.0000 5.5000 0.0000
      vertex 53.2000 4.3000 0.0000
    endloop
  endfacet
  facet normal 0 0 -1
    outer loop
      vertex 45.0000 6.5000 0.0000
      vertex 51.0000 6.5000 0.0000
      vertex 51.0000 5.5000 0.0000
    endloop
  endfacet
  facet normal 0 0 -1
    outer loop
      vertex 45.0000 6.5000 0.0000
      vertex 51.0000 5.5000 0.0000
      vertex 45.0000 5.5000 0.0000
    endloop
  endfacet
  facet normal 0 0 -1
    outer loop
      vertex 53.2000 0.0000 0.0000
      vertex 45.0000 5.5000 0.0000
      vertex 51.0000 5.5000 0.0000
    endloop
  endfacet
  facet normal 0 0 -1
    outer loop
      vertex 42.8000 0.0000 0.0000
      vertex 45.0000 5.5000 0.0000
      vertex 53.2000 0.0000 0.0000
    endloop
  endfacet
  facet normal 0 0 -1
    outer loop
      vertex 45.0000 5.5000 0.0000
      vertex 42.8000 0.0000 0.0000
      vertex 42.8000 4.3000 0.0000
    endloop
  endfacet
  facet normal 0 0 -1
    outer loop
      vertex 51.0000 6.5000 0.0000
      vertex 45.0000 6.5000 0.0000
      vertex 46.6500 29.5000 0.0000
    endloop
  endfacet
  facet normal 0 0 -1
    outer loop
      vertex 45.0000 6.5000 0.0000
      vertex 44.8500 29.5000 0.0000
      vertex 46.6500 29.5000 0.0000
    endloop
  endfacet
  facet normal 0 0 -1
    outer loop
      vertex 28.8000 29.5000 0.0000
      vertex 44.8500 35.5000 0.0000
      vertex 44.8500 29.5000 0.0000
    endloop
  endfacet
  facet normal 0 0 -1
    outer loop
      vertex 28.8000 35.5000 0.0000
      vertex 44.8500 35.5000 0.0000
      vertex 28.8000 29.5000 0.0000
    endloop
  endfacet
  facet normal 0 0 -1
    outer loop
      vertex 44.8500 35.5000 0.0000
      vertex 28.8000 35.5000 0.0000
      vertex 44.8500 64.5000 0.0000
    endloop
  endfacet
  facet normal 0 0 -1
    outer loop
      vertex 45.0000 6.5000 0.0000
      vertex 28.8000 29.5000 0.0000
      vertex 44.8500 29.5000 0.0000
    endloop
  endfacet
  facet normal 0 0 -1
    outer loop
      vertex 45.0000 6.5000 0.0000
      vertex 27.0000 29.5000 0.0000
      vertex 28.8000 29.5000 0.0000
    endloop
  endfacet
  facet normal 0 0 -1
    outer loop
      vertex 20.8000 29.5000 0.0000
      vertex 27.0000 35.5000 0.0000
      vertex 27.0000 29.5000 0.0000
    endloop
  endfacet
  facet normal 0 0 -1
    outer loop
      vertex 20.8000 35.5000 0.0000
      vertex 27.0000 35.5000 0.0000
      vertex 20.8000 29.5000 0.0000
    endloop
  endfacet
  facet normal 0 0 -1
    outer loop
      vertex 27.0000 35.5000 0.0000
      vertex 20.8000 35.5000 0.0000
      vertex 27.0000 64.5000 0.0000
    endloop
  endfacet
  facet normal 0 0 -1
    outer loop
      vertex 45.0000 6.5000 0.0000
      vertex 20.8000 29.5000 0.0000
      vertex 27.0000 29.5000 0.0000
    endloop
  endfacet
  facet normal 0 0 -1
    outer loop
      vertex 0.0000 6.5000 0.0000
      vertex 20.8000 29.5000 0.0000
      vertex 45.0000 6.5000 0.0000
    endloop
  endfacet
  facet normal 0 0 -1
    outer loop
      vertex 0.0000 6.5000 0.0000
      vertex 19.0000 35.5000 0.0000
      vertex 19.0000 29.5000 0.0000
    endloop
  endfacet
  facet normal -0 0 -1
    outer loop
      vertex 19.0000 35.5000 0.0000
      vertex 0.0000 6.5000 0.0000
      vertex 19.0000 64.5000 0.0000
    endloop
  endfacet
  facet normal 0 -0 -1
    outer loop
      vertex 6.8000 93.3000 0.0000
      vertex 19.0000 64.5000 0.0000
      vertex 0.0000 6.5000 0.0000
    endloop
  endfacet
  facet normal 0 0 -1
    outer loop
      vertex 19.0000 70.5000 0.0000
      vertex 6.8000 93.3000 0.0000
      vertex 13.2000 93.3000 0.0000
    endloop
  endfacet
  facet normal 0 0 -1
    outer loop
      vertex 0.0000 106.5000 0.0000
      vertex 6.8000 93.3000 0.0000
      vertex 0.0000 6.5000 0.0000
    endloop
  endfacet
  facet normal 0 0 -1
    outer loop
      vertex 19.0000 64.5000 0.0000
      vertex 6.8000 93.3000 0.0000
      vertex 19.0000 70.5000 0.0000
    endloop
  endfacet
  facet normal -0 0 -1
    outer loop
      vertex 20.8000 29.5000 0.0000
      vertex 0.0000 6.5000 0.0000
      vertex 19.0000 29.5000 0.0000
    endloop
  endfacet
  facet normal 0 0 -1
    outer loop
      vertex 52.8500 35.5000 0.0000
      vertex 54.6500 64.5000 0.0000
      vertex 54.6500 35.5000 0.0000
    endloop
  endfacet
  facet normal -0 0 -1
    outer loop
      vertex 54.6500 64.5000 0.0000
      vertex 52.8500 35.5000 0.0000
      vertex 52.8500 64.5000 0.0000
    endloop
  endfacet
  facet normal 0 0 -1
    outer loop
      vertex 70.7000 35.5000 0.0000
      vertex 72.5000 64.5000 0.0000
      vertex 72.5000 35.5000 0.0000
    endloop
  endfacet
  facet normal -0 0 -1
    outer loop
      vertex 72.5000 64.5000 0.0000
      vertex 70.7000 35.5000 0.0000
      vertex 70.7000 64.5000 0.0000
    endloop
  endfacet
  facet normal 0 0 -1
    outer loop
      vertex 78.7000 35.5000 0.0000
      vertex 80.5000 64.5000 0.0000
      vertex 80.5000 35.5000 0.0000
    endloop
  endfacet
  facet normal -0 0 -1
    outer loop
      vertex 80.5000 64.5000 0.0000
      vertex 78.7000 35.5000 0.0000
      vertex 78.7000 64.5000 0.0000
    endloop
  endfacet
  facet normal 0 0 -1
    outer loop
      vertex 93.0000 6.5000 0.0000
      vertex 78.7000 29.5000 0.0000
      vertex 80.5000 29.5000 0.0000
    endloop
  endfacet
  facet normal 0 0 -1
    outer loop
      vertex 72.5000 29.5000 0.0000
      vertex 78.7000 35.5000 0.0000
      vertex 78.7000 29.5000 0.0000
    endloop
  endfacet
  facet normal 0 0 -1
    outer loop
      vertex 72.5000 35.5000 0.0000
      vertex 78.7000 35.5000 0.0000
      vertex 72.5000 29.5000 0.0000
    endloop
  endfacet
  facet normal 0 0 -1
    outer loop
      vertex 78.7000 35.5000 0.0000
      vertex 72.5000 35.5000 0.0000
      vertex 78.7000 64.5000 0.0000
    endloop
  endfacet
  facet normal 0 0 -1
    outer loop
      vertex 93.0000 6.5000 0.0000
      vertex 72.5000 29.5000 0.0000
      vertex 78.7000 29.5000 0.0000
    endloop
  endfacet
  facet normal 0 0 -1
    outer loop
      vertex 51.0000 6.5000 0.0000
      vertex 72.5000 29.5000 0.0000
      vertex 93.0000 6.5000 0.0000
    endloop
  endfacet
  facet normal 0 0 -1
    outer loop
      vertex 54.6500 29.5000 0.0000
      vertex 70.7000 35.5000 0.0000
      vertex 70.7000 29.5000 0.0000
    endloop
  endfacet
  facet normal 0 0 -1
    outer loop
      vertex 54.6500 35.5000 0.0000
      vertex 70.7000 35.5000 0.0000
      vertex 54.6500 29.5000 0.0000
    endloop
  endfacet
  facet normal 0 0 -1
    outer loop
      vertex 70.7000 35.5000 0.0000
      vertex 54.6500 35.5000 0.0000
      vertex 70.7000 64.5000 0.0000
    endloop
  endfacet
  facet normal -0 0 -1
    outer loop
      vertex 72.5000 29.5000 0.0000
      vertex 51.0000 6.5000 0.0000
      vertex 70.7000 29.5000 0.0000
    endloop
  endfacet
  facet normal -0 0 -1
    outer loop
      vertex 70.7000 29.5000 0.0000
      vertex 51.0000 6.5000 0.0000
      vertex 54.6500 29.5000 0.0000
    endloop
  endfacet
  facet normal 0 0 -1
    outer loop
      vertex 46.6500 29.5000 0.0000
      vertex 52.8500 29.5000 0.0000
      vertex 51.0000 6.5000 0.0000
    endloop
  endfacet
  facet normal 0 0 -1
    outer loop
      vertex 52.8500 29.5000 0.0000
      vertex 46.6500 29.5000 0.0000
      vertex 52.8500 35.5000 0.0000
    endloop
  endfacet
  facet normal 0 0 -1
    outer loop
      vertex 46.6500 35.5000 0.0000
      vertex 52.8500 35.5000 0.0000
      vertex 46.6500 29.5000 0.0000
    endloop
  endfacet
  facet normal -0 0 -1
    outer loop
      vertex 54.6500 29.5000 0.0000
      vertex 51.0000 6.5000 0.0000
      vertex 52.8500 29.5000 0.0000
    endloop
  endfacet
  facet normal -1 0 0
    outer loop
      vertex 0.0000 6.5000 0.0000
      vertex 0.0000 106.5000 3.0000
      vertex 0.0000 106.5000 0.0000
    endloop
  endfacet
  facet normal -1 -0 0
    outer loop
      vertex 0.0000 106.5000 3.0000
      vertex 0.0000 6.5000 0.0000
      vertex 0.0000 6.5000 3.0000
    endloop
  endfacet
  facet normal 0 1 -0
    outer loop
      vertex 144.0000 106.5000 0.0000
      vertex 0.0000 106.5000 3.0000
      vertex 144.0000 106.5000 3.0000
    endloop
  endfacet
  facet normal 0 1 0
    outer loop
      vertex 0.0000 106.5000 3.0000
      vertex 144.0000 106.5000 0.0000
      vertex 0.0000 106.5000 0.0000
    endloop
  endfacet
  facet normal 1 -0 0
    outer loop
      vertex 94.2000 10.5000 9.0000
      vertex 94.2000 84.5000 3.0000
      vertex 94.2000 84.5000 9.0000
    endloop
  endfacet
  facet normal 1 0 0
    outer loop
      vertex 94.2000 84.5000 3.0000
      vertex 94.2000 10.5000 9.0000
      vertex 94.2000 10.5000 3.0000
    endloop
  endfacet
  facet normal -0 0 1
    outer loop
      vertex 91.2000 84.5000 9.0000
      vertex 94.2000 10.5000 9.0000
      vertex 94.2000 84.5000 9.0000
    endloop
  endfacet
  facet normal 0 0 1
    outer loop
      vertex 94.2000 10.5000 9.0000
      vertex 91.2000 84.5000 9.0000
      vertex 91.2000 10.5000 9.0000
    endloop
  endfacet
  facet normal -1 0 0
    outer loop
      vertex 91.2000 10.5000 3.0000
      vertex 91.2000 84.5000 9.0000
      vertex 91.2000 84.5000 3.0000
    endloop
  endfacet
  facet normal -1 -0 0
    outer loop
      vertex 91.2000 84.5000 9.0000
      vertex 91.2000 10.5000 3.0000
      vertex 91.2000 10.5000 9.0000
    endloop
  endfacet
  facet normal 0 -1 0
    outer loop
      vertex 91.2000 10.5000 3.0000
      vertex 94.2000 10.5000 9.0000
      vertex 91.2000 10.5000 9.0000
    endloop
  endfacet
  facet normal 0 -1 -0
    outer loop
      vertex 94.2000 10.5000 9.0000
      vertex 91.2000 10.5000 3.0000
      vertex 94.2000 10.5000 3.0000
    endloop
  endfacet
  facet normal 0 1 -0
    outer loop
      vertex 94.2000 84.5000 3.0000
      vertex 91.2000 84.5000 9.0000
      vertex 94.2000 84.5000 9.0000
    endloop
  endfacet
  facet normal 0 1 0
    outer loop
      vertex 91.2000 84.5000 9.0000
      vertex 94.2000 84.5000 3.0000
      vertex 91.2000 84.5000 3.0000
    endloop
  endfacet
  facet normal -1 0 0
    outer loop
      vertex 13.2000 93.3000 0.0000
      vertex 13.2000 99.7000 3.0000
      vertex 13.2000 99.7000 0.0000
    endloop
  endfacet
  facet normal -1 -0 0
    outer loop
      vertex 13.2000 99.7000 3.0000
      vertex 13.2000 93.3000 0.0000
      vertex 13.2000 93.3000 3.0000
    endloop
  endfacet
  facet normal 1 -0 0
    outer loop
      vertex 6.8000 93.3000 3.0000
      vertex 6.8000 99.7000 0.0000
      vertex 6.8000 99.7000 3.0000
    endloop
  endfacet
  facet normal 1 0 0
    outer loop
      vertex 6.8000 99.7000 0.0000
      vertex 6.8000 93.3000 3.0000
      vertex 6.8000 93.3000 0.0000
    endloop
  endfacet
  facet normal 0 1 -0
    outer loop
      vertex 13.2000 93.3000 0.0000
      vertex 6.8000 93.3000 3.0000
      vertex 13.2000 93.3000 3.0000
    endloop
  endfacet
  facet normal 0 1 0
    outer loop
      vertex 6.8000 93.3000 3.0000
      vertex 13.2000 93.3000 0.0000
      vertex 6.8000 93.3000 0.0000
    endloop
  endfacet
  facet normal 0 -1 0
    outer loop
      vertex 6.8000 99.7000 0.0000
      vertex 13.2000 99.7000 3.0000
      vertex 6.8000 99.7000 3.0000
    endloop
  endfacet
  facet normal 0 -1 -0
    outer loop
      vertex 13.2000 99.7000 3.0000
      vertex 6.8000 99.7000 0.0000
      vertex 13.2000 99.7000 0.0000
    endloop
  endfacet
  facet normal -1 0 0
    outer loop
      vertex 20.8000 64.5000 0.0000
      vertex 20.8000 70.5000 3.0000
      vertex 20.8000 70.5000 0.0000
    endloop
  endfacet
  facet normal -1 -0 0
    outer loop
      vertex 20.8000 70.5000 3.0000
      vertex 20.8000 64.5000 0.0000
      vertex 20.8000 64.5000 3.0000
    endloop
  endfacet
  facet normal 1 -0 0
    outer loop
      vertex 19.0000 64.5000 3.0000
      vertex 19.0000 70.5000 0.0000
      vertex 19.0000 70.5000 3.0000
    endloop
  endfacet
  facet normal 1 0 0
    outer loop
      vertex 19.0000 70.5000 0.0000
      vertex 19.0000 64.5000 3.0000
      vertex 19.0000 64.5000 0.0000
    endloop
  endfacet
  facet normal 0 1 -0
    outer loop
      vertex 20.8000 64.5000 0.0000
      vertex 19.0000 64.5000 3.0000
      vertex 20.8000 64.5000 3.0000
    endloop
  endfacet
  facet normal 0 1 0
    outer loop
      vertex 19.0000 64.5000 3.0000
      vertex 20.8000 64.5000 0.0000
      vertex 19.0000 64.5000 0.0000
    endloop
  endfacet
  facet normal 0 -1 0
    outer loop
      vertex 19.0000 70.5000 0.0000
      vertex 20.8000 70.5000 3.0000
      vertex 19.0000 70.5000 3.0000
    endloop
  endfacet
  facet normal 0 -1 -0
    outer loop
      vertex 20.8000 70.5000 3.0000
      vertex 19.0000 70.5000 0.0000
      vertex 20.8000 70.5000 0.0000
    endloop
  endfacet
  facet normal -1 0 0
    outer loop
      vertex 28.8000 64.5000 0.0000
      vertex 28.8000 70.5000 3.0000
      vertex 28.8000 70.5000 0.0000
    endloop
  endfacet
  facet normal -1 -0 0
    outer loop
      vertex 28.8000 70.5000 3.0000
      vertex 28.8000 64.5000 0.0000
      vertex 28.8000 64.5000 3.0000
    endloop
  endfacet
  facet normal 1 -0 0
    outer loop
      vertex 27.0000 64.5000 3.0000
      vertex 27.0000 70.5000 0.0000
      vertex 27.0000 70.5000 3.0000
    endloop
  endfacet
  facet normal 1 0 0
    outer loop
      vertex 27.0000 70.5000 0.0000
      vertex 27.0000 64.5000 3.0000
      vertex 27.0000 64.5000 0.0000
    endloop
  endfacet
  facet normal 0 1 -0
    outer loop
      vertex 28.8000 64.5000 0.0000
      vertex 27.0000 64.5000 3.0000
      vertex 28.8000 64.5000 3.0000
    endloop
  endfacet
  facet normal 0 1 0
    outer loop
      vertex 27.0000 64.5000 3.0000
      vertex 28.8000 64.5000 0.0000
      vertex 27.0000 64.5000 0.0000
    endloop
  endfacet
  facet normal 0 -1 0
    outer loop
      vertex 27.0000 70.5000 0.0000
      vertex 28.8000 70.5000 3.0000
      vertex 27.0000 70.5000 3.0000
    endloop
  endfacet
  facet normal 0 -1 -0
    outer loop
      vertex 28.8000 70.5000 3.0000
      vertex 27.0000 70.5000 0.0000
      vertex 28.8000 70.5000 0.0000
    endloop
  endfacet
  facet normal -1 0 0
    outer loop
      vertex 20.8000 29.5000 0.0000
      vertex 20.8000 35.5000 3.0000
      vertex 20.8000 35.5000 0.0000
    endloop
  endfacet
  facet normal -1 -0 0
    outer loop
      vertex 20.8000 35.5000 3.0000
      vertex 20.8000 29.5000 0.0000
      vertex 20.8000 29.5000 3.0000
    endloop
  endfacet
  facet normal 1 -0 0
    outer loop
      vertex 19.0000 29.5000 3.0000
      vertex 19.0000 35.5000 0.0000
      vertex 19.0000 35.5000 3.0000
    endloop
  endfacet
  facet normal 1 0 0
    outer loop
      vertex 19.0000 35.5000 0.0000
      vertex 19.0000 29.5000 3.0000
      vertex 19.0000 29.5000 0.0000
    endloop
  endfacet
  facet normal 0 1 -0
    outer loop
      vertex 20.8000 29.5000 0.0000
      vertex 19.0000 29.5000 3.0000
      vertex 20.8000 29.5000 3.0000
    endloop
  endfacet
  facet normal 0 1 0
    outer loop
      vertex 19.0000 29.5000 3.0000
      vertex 20.8000 29.5000 0.0000
      vertex 19.0000 29.5000 0.0000
    endloop
  endfacet
  facet normal 0 -1 0
    outer loop
      vertex 19.0000 35.5000 0.0000
      vertex 20.8000 35.5000 3.0000
      vertex 19.0000 35.5000 3.0000
    endloop
  endfacet
  facet normal 0 -1 -0
    outer loop
      vertex 20.8000 35.5000 3.0000
      vertex 19.0000 35.5000 0.0000
      vertex 20.8000 35.5000 0.0000
    endloop
  endfacet
  facet normal -1 0 0
    outer loop
      vertex 28.8000 29.5000 0.0000
      vertex 28.8000 35.5000 3.0000
      vertex 28.8000 35.5000 0.0000
    endloop
  endfacet
  facet normal -1 -0 0
    outer loop
      vertex 28.8000 35.5000 3.0000
      vertex 28.8000 29.5000 0.0000
      vertex 28.8000 29.5000 3.0000
    endloop
  endfacet
  facet normal 1 -0 0
    outer loop
      vertex 27.0000 29.5000 3.0000
      vertex 27.0000 35.5000 0.0000
      vertex 27.0000 35.5000 3.0000
    endloop
  endfacet
  facet normal 1 0 0
    outer loop
      vertex 27.0000 35.5000 0.0000
      vertex 27.0000 29.5000 3.0000
      vertex 27.0000 29.5000 0.0000
    endloop
  endfacet
  facet normal 0 1 -0
    outer loop
      vertex 28.8000 29.5000 0.0000
      vertex 27.0000 29.5000 3.0000
      vertex 28.8000 29.5000 3.0000
    endloop
  endfacet
  facet normal 0 1 0
    outer loop
      vertex 27.0000 29.5000 3.0000
      vertex 28.8000 29.5000 0.0000
      vertex 27.0000 29.5000 0.0000
    endloop
  endfacet
  facet normal 0 -1 0
    outer loop
      vertex 27.0000 35.5000 0.0000
      vertex 28.8000 35.5000 3.0000
      vertex 27.0000 35.5000 3.0000
    endloop
  endfacet
  facet normal 0 -1 -0
    outer loop
      vertex 28.8000 35.5000 3.0000
      vertex 27.0000 35.5000 0.0000
      vertex 28.8000 35.5000 0.0000
    endloop
  endfacet
  facet normal -1 0 0
    outer loop
      vertex 46.6500 64.5000 0.0000
      vertex 46.6500 70.5000 3.0000
      vertex 46.6500 70.5000 0.0000
    endloop
  endfacet
  facet normal -1 -0 0
    outer loop
      vertex 46.6500 70.5000 3.0000
      vertex 46.6500 64.5000 0.0000
      vertex 46.6500 64.5000 3.0000
    endloop
  endfacet
  facet normal 1 -0 0
    outer loop
      vertex 44.8500 64.5000 3.0000
      vertex 44.8500 70.5000 0.0000
      vertex 44.8500 70.5000 3.0000
    endloop
  endfacet
  facet normal 1 0 0
    outer loop
      vertex 44.8500 70.5000 0.0000
      vertex 44.8500 64.5000 3.0000
      vertex 44.8500 64.5000 0.0000
    endloop
  endfacet
  facet normal 0 1 -0
    outer loop
      vertex 46.6500 64.5000 0.0000
      vertex 44.8500 64.5000 3.0000
      vertex 46.6500 64.5000 3.0000
    endloop
  endfacet
  facet normal 0 1 0
    outer loop
      vertex 44.8500 64.5000 3.0000
      vertex 46.6500 64.5000 0.0000
      vertex 44.8500 64.5000 0.0000
    endloop
  endfacet
  facet normal 0 -1 0
    outer loop
      vertex 44.8500 70.5000 0.0000
      vertex 46.6500 70.5000 3.0000
      vertex 44.8500 70.5000 3.0000
    endloop
  endfacet
  facet normal 0 -1 -0
    outer loop
      vertex 46.6500 70.5000 3.0000
      vertex 44.8500 70.5000 0.0000
      vertex 46.6500 70.5000 0.0000
    endloop
  endfacet
  facet normal -1 0 0
    outer loop
      vertex 54.6500 64.5000 0.0000
      vertex 54.6500 70.5000 3.0000
      vertex 54.6500 70.5000 0.0000
    endloop
  endfacet
  facet normal -1 -0 0
    outer loop
      vertex 54.6500 70.5000 3.0000
      vertex 54.6500 64.5000 0.0000
      vertex 54.6500 64.5000 3.0000
    endloop
  endfacet
  facet normal 1 -0 0
    outer loop
      vertex 52.8500 64.5000 3.0000
      vertex 52.8500 70.5000 0.0000
      vertex 52.8500 70.5000 3.0000
    endloop
  endfacet
  facet normal 1 0 0
    outer loop
      vertex 52.8500 70.5000 0.0000
      vertex 52.8500 64.5000 3.0000
      vertex 52.8500 64.5000 0.0000
    endloop
  endfacet
  facet normal 0 1 -0
    outer loop
      vertex 54.6500 64.5000 0.0000
      vertex 52.8500 64.5000 3.0000
      vertex 54.6500 64.5000 3.0000
    endloop
  endfacet
  facet normal 0 1 0
    outer loop
      vertex 52.8500 64.5000 3.0000
      vertex 54.6500 64.5000 0.0000
      vertex 52.8500 64.5000 0.0000
    endloop
  endfacet
  facet normal 0 -1 0
    outer loop
      vertex 52.8500 70.5000 0.0000
      vertex 54.6500 70.5000 3.0000
      vertex 52.8500 70.5000 3.0000
    endloop
  endfacet
  facet normal 0 -1 -0
    outer loop
      vertex 54.6500 70.5000 3.0000
      vertex 52.8500 70.5000 0.0000
      vertex 54.6500 70.5000 0.0000
    endloop
  endfacet
  facet normal -1 0 0
    outer loop
      vertex 46.6500 29.5000 0.0000
      vertex 46.6500 35.5000 3.0000
      vertex 46.6500 35.5000 0.0000
    endloop
  endfacet
  facet normal -1 -0 0
    outer loop
      vertex 46.6500 35.5000 3.0000
      vertex 46.6500 29.5000 0.0000
      vertex 46.6500 29.5000 3.0000
    endloop
  endfacet
  facet normal 1 -0 0
    outer loop
      vertex 44.8500 29.5000 3.0000
      vertex 44.8500 35.5000 0.0000
      vertex 44.8500 35.5000 3.0000
    endloop
  endfacet
  facet normal 1 0 0
    outer loop
      vertex 44.8500 35.5000 0.0000
      vertex 44.8500 29.5000 3.0000
      vertex 44.8500 29.5000 0.0000
    endloop
  endfacet
  facet normal 0 1 -0
    outer loop
      vertex 46.6500 29.5000 0.0000
      vertex 44.8500 29.5000 3.0000
      vertex 46.6500 29.5000 3.0000
    endloop
  endfacet
  facet normal 0 1 0
    outer loop
      vertex 44.8500 29.5000 3.0000
      vertex 46.6500 29.5000 0.0000
      vertex 44.8500 29.5000 0.0000
    endloop
  endfacet
  facet normal 0 -1 0
    outer loop
      vertex 44.8500 35.5000 0.0000
      vertex 46.6500 35.5000 3.0000
      vertex 44.8500 35.5000 3.0000
    endloop
  endfacet
  facet normal 0 -1 -0
    outer loop
      vertex 46.6500 35.5000 3.0000
      vertex 44.8500 35.5000 0.0000
      vertex 46.6500 35.5000 0.0000
    endloop
  endfacet
  facet normal -1 0 0
    outer loop
      vertex 54.6500 29.5000 0.0000
      vertex 54.6500 35.5000 3.0000
      vertex 54.6500 35.5000 0.0000
    endloop
  endfacet
  facet normal -1 -0 0
    outer loop
      vertex 54.6500 35.5000 3.0000
      vertex 54.6500 29.5000 0.0000
      vertex 54.6500 29.5000 3.0000
    endloop
  endfacet
  facet normal 1 -0 0
    outer loop
      vertex 52.8500 29.5000 3.0000
      vertex 52.8500 35.5000 0.0000
      vertex 52.8500 35.5000 3.0000
    endloop
  endfacet
  facet normal 1 0 0
    outer loop
      vertex 52.8500 35.5000 0.0000
      vertex 52.8500 29.5000 3.0000
      vertex 52.8500 29.5000 0.0000
    endloop
  endfacet
  facet normal 0 1 -0
    outer loop
      vertex 54.6500 29.5000 0.0000
      vertex 52.8500 29.5000 3.0000
      vertex 54.6500 29.5000 3.0000
    endloop
  endfacet
  facet normal 0 1 0
    outer loop
      vertex 52.8500 29.5000 3.0000
      vertex 54.6500 29.5000 0.0000
      vertex 52.8500 29.5000 0.0000
    endloop
  endfacet
  facet normal 0 -1 0
    outer loop
      vertex 52.8500 35.5000 0.0000
      vertex 54.6500 35.5000 3.0000
      vertex 52.8500 35.5000 3.0000
    endloop
  endfacet
  facet normal 0 -1 -0
    outer loop
      vertex 54.6500 35.5000 3.0000
      vertex 52.8500 35.5000 0.0000
      vertex 54.6500 35.5000 0.0000
    endloop
  endfacet
  facet normal -1 0 0
    outer loop
      vertex 72.5000 64.5000 0.0000
      vertex 72.5000 70.5000 3.0000
      vertex 72.5000 70.5000 0.0000
    endloop
  endfacet
  facet normal -1 -0 0
    outer loop
      vertex 72.5000 70.5000 3.0000
      vertex 72.5000 64.5000 0.0000
      vertex 72.5000 64.5000 3.0000
    endloop
  endfacet
  facet normal 1 -0 0
    outer loop
      vertex 70.7000 64.5000 3.0000
      vertex 70.7000 70.5000 0.0000
      vertex 70.7000 70.5000 3.0000
    endloop
  endfacet
  facet normal 1 0 0
    outer loop
      vertex 70.7000 70.5000 0.0000
      vertex 70.7000 64.5000 3.0000
      vertex 70.7000 64.5000 0.0000
    endloop
  endfacet
  facet normal 0 1 -0
    outer loop
      vertex 72.5000 64.5000 0.0000
      vertex 70.7000 64.5000 3.0000
      vertex 72.5000 64.5000 3.0000
    endloop
  endfacet
  facet normal 0 1 0
    outer loop
      vertex 70.7000 64.5000 3.0000
      vertex 72.5000 64.5000 0.0000
      vertex 70.7000 64.5000 0.0000
    endloop
  endfacet
  facet normal 0 -1 0
    outer loop
      vertex 70.7000 70.5000 0.0000
      vertex 72.5000 70.5000 3.0000
      vertex 70.7000 70.5000 3.0000
    endloop
  endfacet
  facet normal 0 -1 -0
    outer loop
      vertex 72.5000 70.5000 3.0000
      vertex 70.7000 70.5000 0.0000
      vertex 72.5000 70.5000 0.0000
    endloop
  endfacet
  facet normal -1 0 0
    outer loop
      vertex 80.5000 64.5000 0.0000
      vertex 80.5000 70.5000 3.0000
      vertex 80.5000 70.5000 0.0000
    endloop
  endfacet
  facet normal -1 -0 0
    outer loop
      vertex 80.5000 70.5000 3.0000
      vertex 80.5000 64.5000 0.0000
      vertex 80.5000 64.5000 3.0000
    endloop
  endfacet
  facet normal 1 -0 0
    outer loop
      vertex 78.7000 64.5000 3.0000
      vertex 78.7000 70.5000 0.0000
      vertex 78.7000 70.5000 3.0000
    endloop
  endfacet
  facet normal 1 0 0
    outer loop
      vertex 78.7000 70.5000 0.0000
      vertex 78.7000 64.5000 3.0000
      vertex 78.7000 64.5000 0.0000
    endloop
  endfacet
  facet normal 0 1 -0
    outer loop
      vertex 80.5000 64.5000 0.0000
      vertex 78.7000 64.5000 3.0000
      vertex 80.5000 64.5000 3.0000
    endloop
  endfacet
  facet normal 0 1 0
    outer loop
      vertex 78.7000 64.5000 3.0000
      vertex 80.5000 64.5000 0.0000
      vertex 78.7000 64.5000 0.0000
    endloop
  endfacet
  facet normal 0 -1 0
    outer loop
      vertex 78.7000 70.5000 0.0000
      vertex 80.5000 70.5000 3.0000
      vertex 78.7000 70.5000 3.0000
    endloop
  endfacet
  facet normal 0 -1 -0
    outer loop
      vertex 80.5000 70.5000 3.0000
      vertex 78.7000 70.5000 0.0000
      vertex 80.5000 70.5000 0.0000
    endloop
  endfacet
  facet normal -1 0 0
    outer loop
      vertex 72.5000 29.5000 0.0000
      vertex 72.5000 35.5000 3.0000
      vertex 72.5000 35.5000 0.0000
    endloop
  endfacet
  facet normal -1 -0 0
    outer loop
      vertex 72.5000 35.5000 3.0000
      vertex 72.5000 29.5000 0.0000
      vertex 72.5000 29.5000 3.0000
    endloop
  endfacet
  facet normal 1 -0 0
    outer loop
      vertex 70.7000 29.5000 3.0000
      vertex 70.7000 35.5000 0.0000
      vertex 70.7000 35.5000 3.0000
    endloop
  endfacet
  facet normal 1 0 0
    outer loop
      vertex 70.7000 35.5000 0.0000
      vertex 70.7000 29.5000 3.0000
      vertex 70.7000 29.5000 0.0000
    endloop
  endfacet
  facet normal 0 1 -0
    outer loop
      vertex 72.5000 29.5000 0.0000
      vertex 70.7000 29.5000 3.0000
      vertex 72.5000 29.5000 3.0000
    endloop
  endfacet
  facet normal 0 1 0
    outer loop
      vertex 70.7000 29.5000 3.0000
      vertex 72.5000 29.5000 0.0000
      vertex 70.7000 29.5000 0.0000
    endloop
  endfacet
  facet normal 0 -1 0
    outer loop
      vertex 70.7000 35.5000 0.0000
      vertex 72.5000 35.5000 3.0000
      vertex 70.7000 35.5000 3.0000
    endloop
  endfacet
  facet normal 0 -1 -0
    outer loop
      vertex 72.5000 35.5000 3.0000
      vertex 70.7000 35.5000 0.0000
      vertex 72.5000 35.5000 0.0000
    endloop
  endfacet
  facet normal -1 0 0
    outer loop
      vertex 80.5000 29.5000 0.0000
      vertex 80.5000 35.5000 3.0000
      vertex 80.5000 35.5000 0.0000
    endloop
  endfacet
  facet normal -1 -0 0
    outer loop
      vertex 80.5000 35.5000 3.0000
      vertex 80.5000 29.5000 0.0000
      vertex 80.5000 29.5000 3.0000
    endloop
  endfacet
  facet normal 1 -0 0
    outer loop
      vertex 78.7000 29.5000 3.0000
      vertex 78.7000 35.5000 0.0000
      vertex 78.7000 35.5000 3.0000
    endloop
  endfacet
  facet normal 1 0 0
    outer loop
      vertex 78.7000 35.5000 0.0000
      vertex 78.7000 29.5000 3.0000
      vertex 78.7000 29.5000 0.0000
    endloop
  endfacet
  facet normal 0 1 -0
    outer loop
      vertex 80.5000 29.5000 0.0000
      vertex 78.7000 29.5000 3.0000
      vertex 80.5000 29.5000 3.0000
    endloop
  endfacet
  facet normal 0 1 0
    outer loop
      vertex 78.7000 29.5000 3.0000
      vertex 80.5000 29.5000 0.0000
      vertex 78.7000 29.5000 0.0000
    endloop
  endfacet
  facet normal 0 -1 0
    outer loop
      vertex 78.7000 35.5000 0.0000
      vertex 80.5000 35.5000 3.0000
      vertex 78.7000 35.5000 3.0000
    endloop
  endfacet
  facet normal 0 -1 -0
    outer loop
      vertex 80.5000 35.5000 3.0000
      vertex 78.7000 35.5000 0.0000
      vertex 80.5000 35.5000 0.0000
    endloop
  endfacet
  facet normal 1 0 0
    outer loop
      vertex 144.0000 101.5000 6.0000
      vertex 144.0000 100.0000 6.0000
      vertex 144.0000 101.5000 3.0000
    endloop
  endfacet
  facet normal 1 -0 0
    outer loop
      vertex 144.0000 101.5000 3.0000
      vertex 144.0000 106.5000 0.0000
      vertex 144.0000 106.5000 3.0000
    endloop
  endfacet
  facet normal 1 0 0
    outer loop
      vertex 144.0000 100.0000 3.0000
      vertex 144.0000 101.5000 3.0000
      vertex 144.0000 100.0000 6.0000
    endloop
  endfacet
  facet normal 1 -0 0
    outer loop
      vertex 144.0000 100.0000 3.0000
      vertex 144.0000 106.5000 0.0000
      vertex 144.0000 101.5000 3.0000
    endloop
  endfacet
  facet normal 1 0 0
    outer loop
      vertex 144.0000 59.5000 0.0000
      vertex 144.0000 100.0000 3.0000
      vertex 144.0000 59.5000 3.0000
    endloop
  endfacet
  facet normal 1 0 0
    outer loop
      vertex 144.0000 100.0000 3.0000
      vertex 144.0000 59.5000 0.0000
      vertex 144.0000 106.5000 0.0000
    endloop
  endfacet
  facet normal 1 -0 0
    outer loop
      vertex 144.0000 6.5000 3.0000
      vertex 144.0000 53.5000 0.0000
      vertex 144.0000 53.5000 3.0000
    endloop
  endfacet
  facet normal 1 0 0
    outer loop
      vertex 144.0000 53.5000 0.0000
      vertex 144.0000 6.5000 3.0000
      vertex 144.0000 6.5000 0.0000
    endloop
  endfacet
  facet normal 0 -1 0
    outer loop
      vertex 0.0000 6.5000 0.0000
      vertex 5.0000 6.5000 3.0000
      vertex 0.0000 6.5000 3.0000
    endloop
  endfacet
  facet normal 0 -1 -0
    outer loop
      vertex 5.0000 6.5000 3.0000
      vertex 0.0000 6.5000 0.0000
      vertex 6.5000 6.5000 3.0000
    endloop
  endfacet
  facet normal 0 -1 0
    outer loop
      vertex 45.0000 6.5000 0.0000
      vertex 6.5000 6.5000 3.0000
      vertex 0.0000 6.5000 0.0000
    endloop
  endfacet
  facet normal 0 -1 0
    outer loop
      vertex 6.5000 6.5000 3.0000
      vertex 45.0000 6.5000 0.0000
      vertex 45.0000 6.5000 3.0000
    endloop
  endfacet
  facet normal 0 -1 0
    outer loop
      vertex 5.0000 6.5000 3.0000
      vertex 6.5000 6.5000 6.0000
      vertex 5.0000 6.5000 6.0000
    endloop
  endfacet
  facet normal 0 -1 -0
    outer loop
      vertex 6.5000 6.5000 6.0000
      vertex 5.0000 6.5000 3.0000
      vertex 6.5000 6.5000 3.0000
    endloop
  endfacet
  facet normal 0 -1 0
    outer loop
      vertex 99.0000 6.5000 0.0000
      vertex 144.0000 6.5000 3.0000
      vertex 99.0000 6.5000 3.0000
    endloop
  endfacet
  facet normal 0 -1 -0
    outer loop
      vertex 144.0000 6.5000 3.0000
      vertex 99.0000 6.5000 0.0000
      vertex 144.0000 6.5000 0.0000
    endloop
  endfacet
  facet normal 0 -1 0
    outer loop
      vertex 51.0000 6.5000 0.0000
      vertex 93.0000 6.5000 3.0000
      vertex 51.0000 6.5000 3.0000
    endloop
  endfacet
  facet normal 0 -1 -0
    outer loop
      vertex 93.0000 6.5000 3.0000
      vertex 51.0000 6.5000 0.0000
      vertex 93.0000 6.5000 0.0000
    endloop
  endfacet
  facet normal 0.478852 0.877896 -0
    outer loop
      vertex 53.2000 4.3000 0.0000
      vertex 51.0000 5.5000 3.0000
      vertex 53.2000 4.3000 3.0000
    endloop
  endfacet
  facet normal 0.478852 0.877896 0
    outer loop
      vertex 51.0000 5.5000 3.0000
      vertex 53.2000 4.3000 0.0000
      vertex 51.0000 5.5000 0.0000
    endloop
  endfacet
  facet normal 1 -0 0
    outer loop
      vertex 53.2000 0.0000 3.0000
      vertex 53.2000 4.3000 0.0000
      vertex 53.2000 4.3000 3.0000
    endloop
  endfacet
  facet normal 1 0 0
    outer loop
      vertex 53.2000 4.3000 0.0000
      vertex 53.2000 0.0000 3.0000
      vertex 53.2000 0.0000 0.0000
    endloop
  endfacet
  facet normal 0 -1 0
    outer loop
      vertex 42.8000 0.0000 0.0000
      vertex 53.2000 0.0000 3.0000
      vertex 42.8000 0.0000 3.0000
    endloop
  endfacet
  facet normal 0 -1 -0
    outer loop
      vertex 53.2000 0.0000 3.0000
      vertex 42.8000 0.0000 0.0000
      vertex 53.2000 0.0000 0.0000
    endloop
  endfacet
  facet normal -1 0 0
    outer loop
      vertex 42.8000 0.0000 0.0000
      vertex 42.8000 4.3000 3.0000
      vertex 42.8000 4.3000 0.0000
    endloop
  endfacet
  facet normal -1 -0 0
    outer loop
      vertex 42.8000 4.3000 3.0000
      vertex 42.8000 0.0000 0.0000
      vertex 42.8000 0.0000 3.0000
    endloop
  endfacet
  facet normal -0.478852 0.877896 0
    outer loop
      vertex 45.0000 5.5000 0.0000
      vertex 42.8000 4.3000 3.0000
      vertex 45.0000 5.5000 3.0000
    endloop
  endfacet
  facet normal -0.478852 0.877896 0
    outer loop
      vertex 42.8000 4.3000 3.0000
      vertex 45.0000 5.5000 0.0000
      vertex 42.8000 4.3000 0.0000
    endloop
  endfacet
  facet normal -1 0 0
    outer loop
      vertex 45.0000 5.5000 0.0000
      vertex 45.0000 6.5000 3.0000
      vertex 45.0000 6.5000 0.0000
    endloop
  endfacet
  facet normal -1 -0 0
    outer loop
      vertex 45.0000 6.5000 3.0000
      vertex 45.0000 5.5000 0.0000
      vertex 45.0000 5.5000 3.0000
    endloop
  endfacet
  facet normal 1 -0 0
    outer loop
      vertex 51.0000 5.5000 3.0000
      vertex 51.0000 6.5000 0.0000
      vertex 51.0000 6.5000 3.0000
    endloop
  endfacet
  facet normal 1 0 0
    outer loop
      vertex 51.0000 6.5000 0.0000
      vertex 51.0000 5.5000 3.0000
      vertex 51.0000 5.5000 0.0000
    endloop
  endfacet
  facet normal 0.478852 0.877896 -0
    outer loop
      vertex 101.2000 4.3000 0.0000
      vertex 99.0000 5.5000 3.0000
      vertex 101.2000 4.3000 3.0000
    endloop
  endfacet
  facet normal 0.478852 0.877896 0
    outer loop
      vertex 99.0000 5.5000 3.0000
      vertex 101.2000 4.3000 0.0000
      vertex 99.0000 5.5000 0.0000
    endloop
  endfacet
  facet normal 1 -0 0
    outer loop
      vertex 101.2000 0.0000 3.0000
      vertex 101.2000 4.3000 0.0000
      vertex 101.2000 4.3000 3.0000
    endloop
  endfacet
  facet normal 1 0 0
    outer loop
      vertex 101.2000 4.3000 0.0000
      vertex 101.2000 0.0000 3.0000
      vertex 101.2000 0.0000 0.0000
    endloop
  endfacet
  facet normal 0 -1 0
    outer loop
      vertex 90.8000 0.0000 0.0000
      vertex 101.2000 0.0000 3.0000
      vertex 90.8000 0.0000 3.0000
    endloop
  endfacet
  facet normal 0 -1 -0
    outer loop
      vertex 101.2000 0.0000 3.0000
      vertex 90.8000 0.0000 0.0000
      vertex 101.2000 0.0000 0.0000
    endloop
  endfacet
  facet normal -1 0 0
    outer loop
      vertex 90.8000 0.0000 0.0000
      vertex 90.8000 4.3000 3.0000
      vertex 90.8000 4.3000 0.0000
    endloop
  endfacet
  facet normal -1 -0 0
    outer loop
      vertex 90.8000 4.3000 3.0000
      vertex 90.8000 0.0000 0.0000
      vertex 90.8000 0.0000 3.0000
    endloop
  endfacet
  facet normal -0.478852 0.877896 0
    outer loop
      vertex 93.0000 5.5000 0.0000
      vertex 90.8000 4.3000 3.0000
      vertex 93.0000 5.5000 3.0000
    endloop
  endfacet
  facet normal -0.478852 0.877896 0
    outer loop
      vertex 90.8000 4.3000 3.0000
      vertex 93.0000 5.5000 0.0000
      vertex 90.8000 4.3000 0.0000
    endloop
  endfacet
  facet normal -1 0 0
    outer loop
      vertex 93.0000 5.5000 0.0000
      vertex 93.0000 6.5000 3.0000
      vertex 93.0000 6.5000 0.0000
    endloop
  endfacet
  facet normal -1 -0 0
    outer loop
      vertex 93.0000 6.5000 3.0000
      vertex 93.0000 5.5000 0.0000
      vertex 93.0000 5.5000 3.0000
    endloop
  endfacet
  facet normal 1 -0 0
    outer loop
      vertex 99.0000 5.5000 3.0000
      vertex 99.0000 6.5000 0.0000
      vertex 99.0000 6.5000 3.0000
    endloop
  endfacet
  facet normal 1 0 0
    outer loop
      vertex 99.0000 6.5000 0.0000
      vertex 99.0000 5.5000 3.0000
      vertex 99.0000 5.5000 0.0000
    endloop
  endfacet
  facet normal -0.877896 0.478852 4.72562e-18
    outer loop
      vertex 145.0000 59.5000 0.0000
      vertex 146.2000 61.7000 3.0000
      vertex 146.2000 61.7000 0.0000
    endloop
  endfacet
  facet normal -0.877896 0.478852 4.72562e-18
    outer loop
      vertex 146.2000 61.7000 3.0000
      vertex 145.0000 59.5000 0.0000
      vertex 145.0000 59.5000 3.0000
    endloop
  endfacet
  facet normal 0 1 -0
    outer loop
      vertex 150.5000 61.7000 0.0000
      vertex 146.2000 61.7000 3.0000
      vertex 150.5000 61.7000 3.0000
    endloop
  endfacet
  facet normal 0 1 0
    outer loop
      vertex 146.2000 61.7000 3.0000
      vertex 150.5000 61.7000 0.0000
      vertex 146.2000 61.7000 0.0000
    endloop
  endfacet
  facet normal 1 -0 0
    outer loop
      vertex 150.5000 51.3000 3.0000
      vertex 150.5000 61.7000 0.0000
      vertex 150.5000 61.7000 3.0000
    endloop
  endfacet
  facet normal 1 0 0
    outer loop
      vertex 150.5000 61.7000 0.0000
      vertex 150.5000 51.3000 3.0000
      vertex 150.5000 51.3000 0.0000
    endloop
  endfacet
  facet normal 0 -1 0
    outer loop
      vertex 146.2000 51.3000 0.0000
      vertex 150.5000 51.3000 3.0000
      vertex 146.2000 51.3000 3.0000
    endloop
  endfacet
  facet normal 0 -1 -0
    outer loop
      vertex 150.5000 51.3000 3.0000
      vertex 146.2000 51.3000 0.0000
      vertex 150.5000 51.3000 0.0000
    endloop
  endfacet
  facet normal -0.877896 -0.478852 -4.72562e-18
    outer loop
      vertex 146.2000 51.3000 0.0000
      vertex 145.0000 53.5000 3.0000
      vertex 145.0000 53.5000 0.0000
    endloop
  endfacet
  facet normal -0.877896 -0.478852 -4.72562e-18
    outer loop
      vertex 145.0000 53.5000 3.0000
      vertex 146.2000 51.3000 0.0000
      vertex 146.2000 51.3000 3.0000
    endloop
  endfacet
  facet normal 0 -1 0
    outer loop
      vertex 144.0000 53.5000 0.0000
      vertex 145.0000 53.5000 3.0000
      vertex 144.0000 53.5000 3.0000
    endloop
  endfacet
  facet normal 0 -1 -0
    outer loop
      vertex 145.0000 53.5000 3.0000
      vertex 144.0000 53.5000 0.0000
      vertex 145.0000 53.5000 0.0000
    endloop
  endfacet
  facet normal 0 1 -0
    outer loop
      vertex 145.0000 59.5000 0.0000
      vertex 144.0000 59.5000 3.0000
      vertex 145.0000 59.5000 3.0000
    endloop
  endfacet
  facet normal 0 1 0
    outer loop
      vertex 144.0000 59.5000 3.0000
      vertex 145.0000 59.5000 0.0000
      vertex 144.0000 59.5000 0.0000
    endloop
  endfacet
endsolid OpenSCAD_Model
