solid OpenSCAD_Model
  facet normal 0 0 -1
    outer loop
      vertex 44.2 43.5 1.14441e-07
      vertex 42 49 1.14441e-07
      vertex 44.2 47.8 1.14441e-07
    endloop
  endfacet
  facet normal 0 0 -1
    outer loop
      vertex 42 49 1.14441e-07
      vertex 36 49 1.14441e-07
      vertex 42 50 1.14441e-07
    endloop
  endfacet
  facet normal 0 0 -1
    outer loop
      vertex 44.2 43.5 1.14441e-07
      vertex 36 49 1.14441e-07
      vertex 42 49 1.14441e-07
    endloop
  endfacet
  facet normal 0 0 -1
    outer loop
      vertex 33.8 43.5 1.14441e-07
      vertex 36 49 1.14441e-07
      vertex 44.2 43.5 1.14441e-07
    endloop
  endfacet
  facet normal 0 0 -1
    outer loop
      vertex 36 49 1.14441e-07
      vertex 33.8 43.5 1.14441e-07
      vertex 33.8 47.8 1.14441e-07
    endloop
  endfacet
  facet normal 0 0 -1
    outer loop
      vertex 92.2 43.5 1.14441e-07
      vertex 90 49 1.14441e-07
      vertex 92.2 47.8 1.14441e-07
    endloop
  endfacet
  facet normal 0 0 -1
    outer loop
      vertex 90 49 1.14441e-07
      vertex 84 49 1.14441e-07
      vertex 90 50 1.14441e-07
    endloop
  endfacet
  facet normal 0 0 -1
    outer loop
      vertex 92.2 43.5 1.14441e-07
      vertex 84 49 1.14441e-07
      vertex 90 49 1.14441e-07
    endloop
  endfacet
  facet normal 0 0 -1
    outer loop
      vertex 81.8 43.5 1.14441e-07
      vertex 84 49 1.14441e-07
      vertex 92.2 43.5 1.14441e-07
    endloop
  endfacet
  facet normal 0 0 -1
    outer loop
      vertex 84 49 1.14441e-07
      vertex 81.8 43.5 1.14441e-07
      vertex 81.8 47.8 1.14441e-07
    endloop
  endfacet
  facet normal 0 0 -1
    outer loop
      vertex 90 50 1.14441e-07
      vertex 135 105.5 1.14441e-07
      vertex 135 50 1.14441e-07
    endloop
  endfacet
  facet normal 0 0 -1
    outer loop
      vertex 84 50 1.14441e-07
      vertex 135 105.5 1.14441e-07
      vertex 90 50 1.14441e-07
    endloop
  endfacet
  facet normal -0 0 -1
    outer loop
      vertex 135 105.5 1.14441e-07
      vertex 84 50 1.14441e-07
      vertex 135 111.5 1.14441e-07
    endloop
  endfacet
  facet normal 0 0 -1
    outer loop
      vertex 84 50 1.14441e-07
      vertex 90 50 1.14441e-07
      vertex 84 49 1.14441e-07
    endloop
  endfacet
  facet normal 0 0 -1
    outer loop
      vertex 42 50 1.14441e-07
      vertex 135 111.5 1.14441e-07
      vertex 84 50 1.14441e-07
    endloop
  endfacet
  facet normal 0 0 -1
    outer loop
      vertex -9 167 1.14441e-07
      vertex 135 111.5 1.14441e-07
      vertex 42 50 1.14441e-07
    endloop
  endfacet
  facet normal 0 0 -1
    outer loop
      vertex 36 50 1.14441e-07
      vertex 42 50 1.14441e-07
      vertex 36 49 1.14441e-07
    endloop
  endfacet
  facet normal 0 0 -1
    outer loop
      vertex -9 167 1.14441e-07
      vertex 42 50 1.14441e-07
      vertex 36 50 1.14441e-07
    endloop
  endfacet
  facet normal 0 0 -1
    outer loop
      vertex -9 167 1.14441e-07
      vertex 36 50 1.14441e-07
      vertex -9 50 1.14441e-07
    endloop
  endfacet
  facet normal 0 0 -1
    outer loop
      vertex 135 111.5 1.14441e-07
      vertex -9 167 1.14441e-07
      vertex 135 167 1.14441e-07
    endloop
  endfacet
  facet normal 0 0 -1
    outer loop
      vertex 136 105.5 1.14441e-07
      vertex 141.5 103.3 1.14441e-07
      vertex 137.2 103.3 1.14441e-07
    endloop
  endfacet
  facet normal 0 0 -1
    outer loop
      vertex 141.5 103.3 1.14441e-07
      vertex 136 105.5 1.14441e-07
      vertex 141.5 113.7 1.14441e-07
    endloop
  endfacet
  facet normal 0 0 -1
    outer loop
      vertex 136 111.5 1.14441e-07
      vertex 141.5 113.7 1.14441e-07
      vertex 136 105.5 1.14441e-07
    endloop
  endfacet
  facet normal -0 0 -1
    outer loop
      vertex 141.5 113.7 1.14441e-07
      vertex 136 111.5 1.14441e-07
      vertex 137.2 113.7 1.14441e-07
    endloop
  endfacet
  facet normal 0 0 -1
    outer loop
      vertex 135 105.5 1.14441e-07
      vertex 136 111.5 1.14441e-07
      vertex 136 105.5 1.14441e-07
    endloop
  endfacet
  facet normal -0 0 -1
    outer loop
      vertex 136 111.5 1.14441e-07
      vertex 135 105.5 1.14441e-07
      vertex 135 111.5 1.14441e-07
    endloop
  endfacet
  facet normal 0 0 1
    outer loop
      vertex 135 167 3
      vertex 6.5 162 3
      vertex 135 162 3
    endloop
  endfacet
  facet normal 0 0 1
    outer loop
      vertex 6.5 162 3
      vertex 4 160 3
      vertex 6.5 160.5 3
    endloop
  endfacet
  facet normal 0 0 1
    outer loop
      vertex 6.5 162 3
      vertex -2 160 3
      vertex 4 160 3
    endloop
  endfacet
  facet normal 0 0 1
    outer loop
      vertex -4 151.5 3
      vertex -2 154 3
      vertex -2 160 3
    endloop
  endfacet
  facet normal 0 0 1
    outer loop
      vertex -2 154 3
      vertex -4 151.5 3
      vertex -2.5 151.5 3
    endloop
  endfacet
  facet normal -0 0 1
    outer loop
      vertex -9 167 3
      vertex 6.5 162 3
      vertex 135 167 3
    endloop
  endfacet
  facet normal 0 0 1
    outer loop
      vertex -9 167 3
      vertex -2 160 3
      vertex 6.5 162 3
    endloop
  endfacet
  facet normal 0 0 1
    outer loop
      vertex -9 167 3
      vertex -4 151.5 3
      vertex -2 160 3
    endloop
  endfacet
  facet normal 0 0 1
    outer loop
      vertex -9 50 3
      vertex -4 151.5 3
      vertex -9 167 3
    endloop
  endfacet
  facet normal 0 0 1
    outer loop
      vertex -4 151.5 3
      vertex -9 50 3
      vertex -4 50 3
    endloop
  endfacet
  facet normal -0 0 1
    outer loop
      vertex 6.5 160.5 3
      vertex 135 111.5 3
      vertex 135 160.5 3
    endloop
  endfacet
  facet normal -0 0 1
    outer loop
      vertex 4 154 3
      vertex 135 111.5 3
      vertex 6.5 160.5 3
    endloop
  endfacet
  facet normal 0 0 1
    outer loop
      vertex 135 105.5 3
      vertex 90 50 3
      vertex 135 50 3
    endloop
  endfacet
  facet normal 0 0 1
    outer loop
      vertex 90 50 3
      vertex 84 50 3
      vertex 90 49 3
    endloop
  endfacet
  facet normal 0 0 1
    outer loop
      vertex 135 105.5 3
      vertex 84 50 3
      vertex 90 50 3
    endloop
  endfacet
  facet normal 0 0 1
    outer loop
      vertex 135 111.5 3
      vertex 84 50 3
      vertex 135 105.5 3
    endloop
  endfacet
  facet normal 0 0 1
    outer loop
      vertex 42 50 3
      vertex 36 50 3
      vertex 42 49 3
    endloop
  endfacet
  facet normal 0 0 1
    outer loop
      vertex 84 50 3
      vertex 4 154 3
      vertex 42 50 3
    endloop
  endfacet
  facet normal 0 -0 1
    outer loop
      vertex 84 50 3
      vertex 135 111.5 3
      vertex 4 154 3
    endloop
  endfacet
  facet normal 0 0 1
    outer loop
      vertex 4 154 3
      vertex 6.5 160.5 3
      vertex 4 160 3
    endloop
  endfacet
  facet normal 0 0 1
    outer loop
      vertex 42 50 3
      vertex 4 154 3
      vertex 36 50 3
    endloop
  endfacet
  facet normal 0 0 1
    outer loop
      vertex -2.5 151.5 3
      vertex 4 154 3
      vertex -2 154 3
    endloop
  endfacet
  facet normal 0 0 1
    outer loop
      vertex 4 154 3
      vertex -2.5 151.5 3
      vertex 36 50 3
    endloop
  endfacet
  facet normal 0 0 1
    outer loop
      vertex 36 50 3
      vertex -2.5 151.5 3
      vertex -2.5 50 3
    endloop
  endfacet
  facet normal 0 0 1
    outer loop
      vertex 136 111.5 3
      vertex 141.5 113.7 3
      vertex 137.2 113.7 3
    endloop
  endfacet
  facet normal 0 0 1
    outer loop
      vertex 141.5 113.7 3
      vertex 136 111.5 3
      vertex 141.5 103.3 3
    endloop
  endfacet
  facet normal -0 0 1
    outer loop
      vertex 136 105.5 3
      vertex 141.5 103.3 3
      vertex 136 111.5 3
    endloop
  endfacet
  facet normal 0 0 1
    outer loop
      vertex 141.5 103.3 3
      vertex 136 105.5 3
      vertex 137.2 103.3 3
    endloop
  endfacet
  facet normal -0 0 1
    outer loop
      vertex 135 111.5 3
      vertex 136 105.5 3
      vertex 136 111.5 3
    endloop
  endfacet
  facet normal 0 0 1
    outer loop
      vertex 136 105.5 3
      vertex 135 111.5 3
      vertex 135 105.5 3
    endloop
  endfacet
  facet normal 0 0 1
    outer loop
      vertex 90 49 3
      vertex 92.2 43.5 3
      vertex 92.2 47.8 3
    endloop
  endfacet
  facet normal 0 0 1
    outer loop
      vertex 84 49 3
      vertex 90 49 3
      vertex 84 50 3
    endloop
  endfacet
  facet normal 0 0 1
    outer loop
      vertex 90 49 3
      vertex 84 49 3
      vertex 92.2 43.5 3
    endloop
  endfacet
  facet normal 0 0 1
    outer loop
      vertex 81.8 43.5 3
      vertex 84 49 3
      vertex 81.8 47.8 3
    endloop
  endfacet
  facet normal 0 0 1
    outer loop
      vertex 84 49 3
      vertex 81.8 43.5 3
      vertex 92.2 43.5 3
    endloop
  endfacet
  facet normal 0 0 1
    outer loop
      vertex 42 49 3
      vertex 44.2 43.5 3
      vertex 44.2 47.8 3
    endloop
  endfacet
  facet normal 0 0 1
    outer loop
      vertex 36 49 3
      vertex 42 49 3
      vertex 36 50 3
    endloop
  endfacet
  facet normal 0 0 1
    outer loop
      vertex 42 49 3
      vertex 36 49 3
      vertex 44.2 43.5 3
    endloop
  endfacet
  facet normal 0 0 1
    outer loop
      vertex 33.8 43.5 3
      vertex 36 49 3
      vertex 33.8 47.8 3
    endloop
  endfacet
  facet normal 0 0 1
    outer loop
      vertex 36 49 3
      vertex 33.8 43.5 3
      vertex 44.2 43.5 3
    endloop
  endfacet
  facet normal -1 0 0
    outer loop
      vertex -9 50 1.14441e-07
      vertex -9 167 3
      vertex -9 167 1.14441e-07
    endloop
  endfacet
  facet normal -1 -0 0
    outer loop
      vertex -9 167 3
      vertex -9 50 1.14441e-07
      vertex -9 50 3
    endloop
  endfacet
  facet normal 0 1 -0
    outer loop
      vertex 135 167 1.14441e-07
      vertex -9 167 3
      vertex 135 167 3
    endloop
  endfacet
  facet normal 0 1 0
    outer loop
      vertex -9 167 3
      vertex 135 167 1.14441e-07
      vertex -9 167 1.14441e-07
    endloop
  endfacet
  facet normal 1 -0 0
    outer loop
      vertex -2.5 50 7
      vertex -2.5 151.5 3
      vertex -2.5 151.5 7
    endloop
  endfacet
  facet normal 1 0 0
    outer loop
      vertex -2.5 151.5 3
      vertex -2.5 50 7
      vertex -2.5 50 3
    endloop
  endfacet
  facet normal -0 0 1
    outer loop
      vertex -4 151.5 7
      vertex -2.5 50 7
      vertex -2.5 151.5 7
    endloop
  endfacet
  facet normal 0 0 1
    outer loop
      vertex -2.5 50 7
      vertex -4 151.5 7
      vertex -4 50 7
    endloop
  endfacet
  facet normal -1 0 0
    outer loop
      vertex -4 50 3
      vertex -4 151.5 7
      vertex -4 151.5 3
    endloop
  endfacet
  facet normal -1 -0 0
    outer loop
      vertex -4 151.5 7
      vertex -4 50 3
      vertex -4 50 7
    endloop
  endfacet
  facet normal 0 1 -0
    outer loop
      vertex -2.5 151.5 3
      vertex -4 151.5 7
      vertex -2.5 151.5 7
    endloop
  endfacet
  facet normal 0 1 0
    outer loop
      vertex -4 151.5 7
      vertex -2.5 151.5 3
      vertex -4 151.5 3
    endloop
  endfacet
  facet normal -0 0 1
    outer loop
      vertex 6.5 162 7
      vertex 135 160.5 7
      vertex 135 162 7
    endloop
  endfacet
  facet normal 0 0 1
    outer loop
      vertex 135 160.5 7
      vertex 6.5 162 7
      vertex 6.5 160.5 7
    endloop
  endfacet
  facet normal -1 0 0
    outer loop
      vertex 6.5 160.5 3
      vertex 6.5 162 7
      vertex 6.5 162 3
    endloop
  endfacet
  facet normal -1 -0 0
    outer loop
      vertex 6.5 162 7
      vertex 6.5 160.5 3
      vertex 6.5 160.5 7
    endloop
  endfacet
  facet normal 0 -1 0
    outer loop
      vertex 6.5 160.5 3
      vertex 135 160.5 7
      vertex 6.5 160.5 7
    endloop
  endfacet
  facet normal 0 -1 -0
    outer loop
      vertex 135 160.5 7
      vertex 6.5 160.5 3
      vertex 135 160.5 3
    endloop
  endfacet
  facet normal 0 1 -0
    outer loop
      vertex 135 162 3
      vertex 6.5 162 7
      vertex 135 162 7
    endloop
  endfacet
  facet normal 0 1 0
    outer loop
      vertex 6.5 162 7
      vertex 135 162 3
      vertex 6.5 162 3
    endloop
  endfacet
  facet normal 1 -0 0
    outer loop
      vertex 4 154 6.6
      vertex 4 160 3
      vertex 4 160 6.6
    endloop
  endfacet
  facet normal 1 0 0
    outer loop
      vertex 4 160 3
      vertex 4 154 6.6
      vertex 4 154 3
    endloop
  endfacet
  facet normal -0 0 1
    outer loop
      vertex -2 160 6.6
      vertex 4 154 6.6
      vertex 4 160 6.6
    endloop
  endfacet
  facet normal 0 0 1
    outer loop
      vertex 4 154 6.6
      vertex -2 160 6.6
      vertex -2 154 6.6
    endloop
  endfacet
  facet normal -1 0 0
    outer loop
      vertex -2 154 3
      vertex -2 160 6.6
      vertex -2 160 3
    endloop
  endfacet
  facet normal -1 -0 0
    outer loop
      vertex -2 160 6.6
      vertex -2 154 3
      vertex -2 154 6.6
    endloop
  endfacet
  facet normal 0 -1 0
    outer loop
      vertex -2 154 3
      vertex 4 154 6.6
      vertex -2 154 6.6
    endloop
  endfacet
  facet normal 0 -1 -0
    outer loop
      vertex 4 154 6.6
      vertex -2 154 3
      vertex 4 154 3
    endloop
  endfacet
  facet normal 0 1 -0
    outer loop
      vertex 4 160 3
      vertex -2 160 6.6
      vertex 4 160 6.6
    endloop
  endfacet
  facet normal 0 1 0
    outer loop
      vertex -2 160 6.6
      vertex 4 160 3
      vertex -2 160 3
    endloop
  endfacet
  facet normal 1 0 0
    outer loop
      vertex 135 162 7
      vertex 135 160.5 7
      vertex 135 162 3
    endloop
  endfacet
  facet normal 1 -0 0
    outer loop
      vertex 135 162 3
      vertex 135 167 1.14441e-07
      vertex 135 167 3
    endloop
  endfacet
  facet normal 1 0 0
    outer loop
      vertex 135 160.5 3
      vertex 135 162 3
      vertex 135 160.5 7
    endloop
  endfacet
  facet normal 1 -0 0
    outer loop
      vertex 135 160.5 3
      vertex 135 167 1.14441e-07
      vertex 135 162 3
    endloop
  endfacet
  facet normal 1 0 0
    outer loop
      vertex 135 111.5 1.14441e-07
      vertex 135 160.5 3
      vertex 135 111.5 3
    endloop
  endfacet
  facet normal 1 0 0
    outer loop
      vertex 135 160.5 3
      vertex 135 111.5 1.14441e-07
      vertex 135 167 1.14441e-07
    endloop
  endfacet
  facet normal 1 -0 0
    outer loop
      vertex 135 50 3
      vertex 135 105.5 1.14441e-07
      vertex 135 105.5 3
    endloop
  endfacet
  facet normal 1 0 0
    outer loop
      vertex 135 105.5 1.14441e-07
      vertex 135 50 3
      vertex 135 50 1.14441e-07
    endloop
  endfacet
  facet normal 0 -1 0
    outer loop
      vertex -9 50 1.14441e-07
      vertex -4 50 3
      vertex -9 50 3
    endloop
  endfacet
  facet normal 0 -1 -0
    outer loop
      vertex -4 50 3
      vertex -9 50 1.14441e-07
      vertex -2.5 50 3
    endloop
  endfacet
  facet normal 0 -1 0
    outer loop
      vertex 36 50 1.14441e-07
      vertex -2.5 50 3
      vertex -9 50 1.14441e-07
    endloop
  endfacet
  facet normal 0 -1 0
    outer loop
      vertex -2.5 50 3
      vertex 36 50 1.14441e-07
      vertex 36 50 3
    endloop
  endfacet
  facet normal 0 -1 0
    outer loop
      vertex -4 50 3
      vertex -2.5 50 7
      vertex -4 50 7
    endloop
  endfacet
  facet normal 0 -1 -0
    outer loop
      vertex -2.5 50 7
      vertex -4 50 3
      vertex -2.5 50 3
    endloop
  endfacet
  facet normal 0 -1 0
    outer loop
      vertex 90 50 1.14441e-07
      vertex 135 50 3
      vertex 90 50 3
    endloop
  endfacet
  facet normal 0 -1 -0
    outer loop
      vertex 135 50 3
      vertex 90 50 1.14441e-07
      vertex 135 50 1.14441e-07
    endloop
  endfacet
  facet normal 0 -1 0
    outer loop
      vertex 42 50 1.14441e-07
      vertex 84 50 3
      vertex 42 50 3
    endloop
  endfacet
  facet normal 0 -1 -0
    outer loop
      vertex 84 50 3
      vertex 42 50 1.14441e-07
      vertex 84 50 1.14441e-07
    endloop
  endfacet
  facet normal 0.478852 0.877896 -0
    outer loop
      vertex 44.2 47.8 1.14441e-07
      vertex 42 49 3
      vertex 44.2 47.8 3
    endloop
  endfacet
  facet normal 0.478852 0.877896 0
    outer loop
      vertex 42 49 3
      vertex 44.2 47.8 1.14441e-07
      vertex 42 49 1.14441e-07
    endloop
  endfacet
  facet normal 1 -0 0
    outer loop
      vertex 44.2 43.5 3
      vertex 44.2 47.8 1.14441e-07
      vertex 44.2 47.8 3
    endloop
  endfacet
  facet normal 1 0 0
    outer loop
      vertex 44.2 47.8 1.14441e-07
      vertex 44.2 43.5 3
      vertex 44.2 43.5 1.14441e-07
    endloop
  endfacet
  facet normal 0 -1 0
    outer loop
      vertex 33.8 43.5 1.14441e-07
      vertex 44.2 43.5 3
      vertex 33.8 43.5 3
    endloop
  endfacet
  facet normal 0 -1 -0
    outer loop
      vertex 44.2 43.5 3
      vertex 33.8 43.5 1.14441e-07
      vertex 44.2 43.5 1.14441e-07
    endloop
  endfacet
  facet normal -1 0 0
    outer loop
      vertex 33.8 43.5 1.14441e-07
      vertex 33.8 47.8 3
      vertex 33.8 47.8 1.14441e-07
    endloop
  endfacet
  facet normal -1 -0 0
    outer loop
      vertex 33.8 47.8 3
      vertex 33.8 43.5 1.14441e-07
      vertex 33.8 43.5 3
    endloop
  endfacet
  facet normal -0.478852 0.877896 0
    outer loop
      vertex 36 49 1.14441e-07
      vertex 33.8 47.8 3
      vertex 36 49 3
    endloop
  endfacet
  facet normal -0.478852 0.877896 0
    outer loop
      vertex 33.8 47.8 3
      vertex 36 49 1.14441e-07
      vertex 33.8 47.8 1.14441e-07
    endloop
  endfacet
  facet normal -1 0 0
    outer loop
      vertex 36 49 1.14441e-07
      vertex 36 50 3
      vertex 36 50 1.14441e-07
    endloop
  endfacet
  facet normal -1 -0 0
    outer loop
      vertex 36 50 3
      vertex 36 49 1.14441e-07
      vertex 36 49 3
    endloop
  endfacet
  facet normal 1 -0 0
    outer loop
      vertex 42 49 3
      vertex 42 50 1.14441e-07
      vertex 42 50 3
    endloop
  endfacet
  facet normal 1 0 0
    outer loop
      vertex 42 50 1.14441e-07
      vertex 42 49 3
      vertex 42 49 1.14441e-07
    endloop
  endfacet
  facet normal 0.478852 0.877896 -0
    outer loop
      vertex 92.2 47.8 1.14441e-07
      vertex 90 49 3
      vertex 92.2 47.8 3
    endloop
  endfacet
  facet normal 0.478852 0.877896 0
    outer loop
      vertex 90 49 3
      vertex 92.2 47.8 1.14441e-07
      vertex 90 49 1.14441e-07
    endloop
  endfacet
  facet normal 1 -0 0
    outer loop
      vertex 92.2 43.5 3
      vertex 92.2 47.8 1.14441e-07
      vertex 92.2 47.8 3
    endloop
  endfacet
  facet normal 1 0 0
    outer loop
      vertex 92.2 47.8 1.14441e-07
      vertex 92.2 43.5 3
      vertex 92.2 43.5 1.14441e-07
    endloop
  endfacet
  facet normal 0 -1 0
    outer loop
      vertex 81.8 43.5 1.14441e-07
      vertex 92.2 43.5 3
      vertex 81.8 43.5 3
    endloop
  endfacet
  facet normal 0 -1 -0
    outer loop
      vertex 92.2 43.5 3
      vertex 81.8 43.5 1.14441e-07
      vertex 92.2 43.5 1.14441e-07
    endloop
  endfacet
  facet normal -1 0 0
    outer loop
      vertex 81.8 43.5 1.14441e-07
      vertex 81.8 47.8 3
      vertex 81.8 47.8 1.14441e-07
    endloop
  endfacet
  facet normal -1 -0 0
    outer loop
      vertex 81.8 47.8 3
      vertex 81.8 43.5 1.14441e-07
      vertex 81.8 43.5 3
    endloop
  endfacet
  facet normal -0.478852 0.877896 0
    outer loop
      vertex 84 49 1.14441e-07
      vertex 81.8 47.8 3
      vertex 84 49 3
    endloop
  endfacet
  facet normal -0.478852 0.877896 0
    outer loop
      vertex 81.8 47.8 3
      vertex 84 49 1.14441e-07
      vertex 81.8 47.8 1.14441e-07
    endloop
  endfacet
  facet normal -1 0 0
    outer loop
      vertex 84 49 1.14441e-07
      vertex 84 50 3
      vertex 84 50 1.14441e-07
    endloop
  endfacet
  facet normal -1 -0 0
    outer loop
      vertex 84 50 3
      vertex 84 49 1.14441e-07
      vertex 84 49 3
    endloop
  endfacet
  facet normal 1 -0 0
    outer loop
      vertex 90 49 3
      vertex 90 50 1.14441e-07
      vertex 90 50 3
    endloop
  endfacet
  facet normal 1 0 0
    outer loop
      vertex 90 50 1.14441e-07
      vertex 90 49 3
      vertex 90 49 1.14441e-07
    endloop
  endfacet
  facet normal -0.877896 0.478852 4.72562e-18
    outer loop
      vertex 136 111.5 1.14441e-07
      vertex 137.2 113.7 3
      vertex 137.2 113.7 1.14441e-07
    endloop
  endfacet
  facet normal -0.877896 0.478852 4.72562e-18
    outer loop
      vertex 137.2 113.7 3
      vertex 136 111.5 1.14441e-07
      vertex 136 111.5 3
    endloop
  endfacet
  facet normal 0 1 -0
    outer loop
      vertex 141.5 113.7 1.14441e-07
      vertex 137.2 113.7 3
      vertex 141.5 113.7 3
    endloop
  endfacet
  facet normal 0 1 0
    outer loop
      vertex 137.2 113.7 3
      vertex 141.5 113.7 1.14441e-07
      vertex 137.2 113.7 1.14441e-07
    endloop
  endfacet
  facet normal 1 -0 0
    outer loop
      vertex 141.5 103.3 3
      vertex 141.5 113.7 1.14441e-07
      vertex 141.5 113.7 3
    endloop
  endfacet
  facet normal 1 0 0
    outer loop
      vertex 141.5 113.7 1.14441e-07
      vertex 141.5 103.3 3
      vertex 141.5 103.3 1.14441e-07
    endloop
  endfacet
  facet normal 0 -1 0
    outer loop
      vertex 137.2 103.3 1.14441e-07
      vertex 141.5 103.3 3
      vertex 137.2 103.3 3
    endloop
  endfacet
  facet normal 0 -1 -0
    outer loop
      vertex 141.5 103.3 3
      vertex 137.2 103.3 1.14441e-07
      vertex 141.5 103.3 1.14441e-07
    endloop
  endfacet
  facet normal -0.877896 -0.478852 -4.72562e-18
    outer loop
      vertex 137.2 103.3 1.14441e-07
      vertex 136 105.5 3
      vertex 136 105.5 1.14441e-07
    endloop
  endfacet
  facet normal -0.877896 -0.478852 -4.72562e-18
    outer loop
      vertex 136 105.5 3
      vertex 137.2 103.3 1.14441e-07
      vertex 137.2 103.3 3
    endloop
  endfacet
  facet normal 0 -1 0
    outer loop
      vertex 135 105.5 1.14441e-07
      vertex 136 105.5 3
      vertex 135 105.5 3
    endloop
  endfacet
  facet normal 0 -1 -0
    outer loop
      vertex 136 105.5 3
      vertex 135 105.5 1.14441e-07
      vertex 136 105.5 1.14441e-07
    endloop
  endfacet
  facet normal 0 1 -0
    outer loop
      vertex 136 111.5 1.14441e-07
      vertex 135 111.5 3
      vertex 136 111.5 3
    endloop
  endfacet
  facet normal 0 1 0
    outer loop
      vertex 135 111.5 3
      vertex 136 111.5 1.14441e-07
      vertex 135 111.5 1.14441e-07
    endloop
  endfacet
endsolid OpenSCAD_Model
