solid OpenSCAD_Model
  facet normal -1 0 0
    outer loop
      vertex 153 4 0
      vertex 153 24 3
      vertex 153 24 0
    endloop
  endfacet
  facet normal -1 -0 0
    outer loop
      vertex 153 24 3
      vertex 153 4 0
      vertex 153 4 3
    endloop
  endfacet
  facet normal 0 -1 0
    outer loop
      vertex 152.3 24 0
      vertex 153 24 3
      vertex 152.3 24 3
    endloop
  endfacet
  facet normal 0 -1 -0
    outer loop
      vertex 153 24 3
      vertex 152.3 24 0
      vertex 153 24 0
    endloop
  endfacet
  facet normal 0 1 -0
    outer loop
      vertex 153 4 0
      vertex 152.3 4 3
      vertex 153 4 3
    endloop
  endfacet
  facet normal 0 1 0
    outer loop
      vertex 152.3 4 3
      vertex 153 4 0
      vertex 152.3 4 0
    endloop
  endfacet
  facet normal -1 0 0
    outer loop
      vertex 153 28 0
      vertex 153 48 3
      vertex 153 48 0
    endloop
  endfacet
  facet normal -1 -0 0
    outer loop
      vertex 153 48 3
      vertex 153 28 0
      vertex 153 28 3
    endloop
  endfacet
  facet normal 0 -1 0
    outer loop
      vertex 152.3 48 0
      vertex 153 48 3
      vertex 152.3 48 3
    endloop
  endfacet
  facet normal 0 -1 -0
    outer loop
      vertex 153 48 3
      vertex 152.3 48 0
      vertex 153 48 0
    endloop
  endfacet
  facet normal 0 1 -0
    outer loop
      vertex 153 28 0
      vertex 152.3 28 3
      vertex 153 28 3
    endloop
  endfacet
  facet normal 0 1 0
    outer loop
      vertex 152.3 28 3
      vertex 153 28 0
      vertex 152.3 28 0
    endloop
  endfacet
  facet normal -1 0 0
    outer loop
      vertex 153 52 0
      vertex 153 72 3
      vertex 153 72 0
    endloop
  endfacet
  facet normal -1 -0 0
    outer loop
      vertex 153 72 3
      vertex 153 52 0
      vertex 153 52 3
    endloop
  endfacet
  facet normal 0 -1 0
    outer loop
      vertex 152.3 72 0
      vertex 153 72 3
      vertex 152.3 72 3
    endloop
  endfacet
  facet normal 0 -1 -0
    outer loop
      vertex 153 72 3
      vertex 152.3 72 0
      vertex 153 72 0
    endloop
  endfacet
  facet normal 0 1 -0
    outer loop
      vertex 153 52 0
      vertex 152.3 52 3
      vertex 153 52 3
    endloop
  endfacet
  facet normal 0 1 0
    outer loop
      vertex 152.3 52 3
      vertex 153 52 0
      vertex 152.3 52 0
    endloop
  endfacet
  facet normal -1 0 0
    outer loop
      vertex 153 76 0
      vertex 153 96 3
      vertex 153 96 0
    endloop
  endfacet
  facet normal -1 -0 0
    outer loop
      vertex 153 96 3
      vertex 153 76 0
      vertex 153 76 3
    endloop
  endfacet
  facet normal 0 -1 0
    outer loop
      vertex 152.3 96 0
      vertex 153 96 3
      vertex 152.3 96 3
    endloop
  endfacet
  facet normal 0 -1 -0
    outer loop
      vertex 153 96 3
      vertex 152.3 96 0
      vertex 153 96 0
    endloop
  endfacet
  facet normal 0 1 -0
    outer loop
      vertex 153 76 0
      vertex 152.3 76 3
      vertex 153 76 3
    endloop
  endfacet
  facet normal 0 1 0
    outer loop
      vertex 152.3 76 3
      vertex 153 76 0
      vertex 152.3 76 0
    endloop
  endfacet
  facet normal -1 0 0
    outer loop
      vertex 153 100 0
      vertex 153 120 3
      vertex 153 120 0
    endloop
  endfacet
  facet normal -1 -0 0
    outer loop
      vertex 153 120 3
      vertex 153 100 0
      vertex 153 100 3
    endloop
  endfacet
  facet normal 0 -1 0
    outer loop
      vertex 152.3 120 0
      vertex 153 120 3
      vertex 152.3 120 3
    endloop
  endfacet
  facet normal 0 -1 -0
    outer loop
      vertex 153 120 3
      vertex 152.3 120 0
      vertex 153 120 0
    endloop
  endfacet
  facet normal 0 1 -0
    outer loop
      vertex 153 100 0
      vertex 152.3 100 3
      vertex 153 100 3
    endloop
  endfacet
  facet normal 0 1 0
    outer loop
      vertex 152.3 100 3
      vertex 153 100 0
      vertex 152.3 100 0
    endloop
  endfacet
  facet normal -1 0 0
    outer loop
      vertex 153 124 0
      vertex 153 144 3
      vertex 153 144 0
    endloop
  endfacet
  facet normal -1 -0 0
    outer loop
      vertex 153 144 3
      vertex 153 124 0
      vertex 153 124 3
    endloop
  endfacet
  facet normal 0 -1 0
    outer loop
      vertex 152.3 144 0
      vertex 153 144 3
      vertex 152.3 144 3
    endloop
  endfacet
  facet normal 0 -1 -0
    outer loop
      vertex 153 144 3
      vertex 152.3 144 0
      vertex 153 144 0
    endloop
  endfacet
  facet normal 0 1 -0
    outer loop
      vertex 153 124 0
      vertex 152.3 124 3
      vertex 153 124 3
    endloop
  endfacet
  facet normal 0 1 0
    outer loop
      vertex 152.3 124 3
      vertex 153 124 0
      vertex 152.3 124 0
    endloop
  endfacet
  facet normal -1 0 0
    outer loop
      vertex 159 4 0
      vertex 159 24 3
      vertex 159 24 0
    endloop
  endfacet
  facet normal -1 -0 0
    outer loop
      vertex 159 24 3
      vertex 159 4 0
      vertex 159 4 3
    endloop
  endfacet
  facet normal 0 -1 0
    outer loop
      vertex 156 24 0
      vertex 159 24 3
      vertex 156 24 3
    endloop
  endfacet
  facet normal 0 -1 -0
    outer loop
      vertex 159 24 3
      vertex 156 24 0
      vertex 159 24 0
    endloop
  endfacet
  facet normal 0 1 -0
    outer loop
      vertex 159 4 0
      vertex 156 4 3
      vertex 159 4 3
    endloop
  endfacet
  facet normal 0 1 0
    outer loop
      vertex 156 4 3
      vertex 159 4 0
      vertex 156 4 0
    endloop
  endfacet
  facet normal 1 -0 0
    outer loop
      vertex 156 4 3
      vertex 156 24 0
      vertex 156 24 3
    endloop
  endfacet
  facet normal 1 0 0
    outer loop
      vertex 156 24 0
      vertex 156 4 3
      vertex 156 4 0
    endloop
  endfacet
  facet normal -1 0 0
    outer loop
      vertex 159 28 0
      vertex 159 48 3
      vertex 159 48 0
    endloop
  endfacet
  facet normal -1 -0 0
    outer loop
      vertex 159 48 3
      vertex 159 28 0
      vertex 159 28 3
    endloop
  endfacet
  facet normal 0 -1 0
    outer loop
      vertex 156 48 0
      vertex 159 48 3
      vertex 156 48 3
    endloop
  endfacet
  facet normal 0 -1 -0
    outer loop
      vertex 159 48 3
      vertex 156 48 0
      vertex 159 48 0
    endloop
  endfacet
  facet normal 0 1 -0
    outer loop
      vertex 159 28 0
      vertex 156 28 3
      vertex 159 28 3
    endloop
  endfacet
  facet normal 0 1 0
    outer loop
      vertex 156 28 3
      vertex 159 28 0
      vertex 156 28 0
    endloop
  endfacet
  facet normal 1 -0 0
    outer loop
      vertex 156 28 3
      vertex 156 48 0
      vertex 156 48 3
    endloop
  endfacet
  facet normal 1 0 0
    outer loop
      vertex 156 48 0
      vertex 156 28 3
      vertex 156 28 0
    endloop
  endfacet
  facet normal -1 0 0
    outer loop
      vertex 159 52 0
      vertex 159 72 3
      vertex 159 72 0
    endloop
  endfacet
  facet normal -1 -0 0
    outer loop
      vertex 159 72 3
      vertex 159 52 0
      vertex 159 52 3
    endloop
  endfacet
  facet normal 0 -1 0
    outer loop
      vertex 156 72 0
      vertex 159 72 3
      vertex 156 72 3
    endloop
  endfacet
  facet normal 0 -1 -0
    outer loop
      vertex 159 72 3
      vertex 156 72 0
      vertex 159 72 0
    endloop
  endfacet
  facet normal 0 1 -0
    outer loop
      vertex 159 52 0
      vertex 156 52 3
      vertex 159 52 3
    endloop
  endfacet
  facet normal 0 1 0
    outer loop
      vertex 156 52 3
      vertex 159 52 0
      vertex 156 52 0
    endloop
  endfacet
  facet normal 1 -0 0
    outer loop
      vertex 156 52 3
      vertex 156 72 0
      vertex 156 72 3
    endloop
  endfacet
  facet normal 1 0 0
    outer loop
      vertex 156 72 0
      vertex 156 52 3
      vertex 156 52 0
    endloop
  endfacet
  facet normal -1 0 0
    outer loop
      vertex 159 76 0
      vertex 159 96 3
      vertex 159 96 0
    endloop
  endfacet
  facet normal -1 -0 0
    outer loop
      vertex 159 96 3
      vertex 159 76 0
      vertex 159 76 3
    endloop
  endfacet
  facet normal 0 -1 0
    outer loop
      vertex 156 96 0
      vertex 159 96 3
      vertex 156 96 3
    endloop
  endfacet
  facet normal 0 -1 -0
    outer loop
      vertex 159 96 3
      vertex 156 96 0
      vertex 159 96 0
    endloop
  endfacet
  facet normal 0 1 -0
    outer loop
      vertex 159 76 0
      vertex 156 76 3
      vertex 159 76 3
    endloop
  endfacet
  facet normal 0 1 0
    outer loop
      vertex 156 76 3
      vertex 159 76 0
      vertex 156 76 0
    endloop
  endfacet
  facet normal 1 -0 0
    outer loop
      vertex 156 76 3
      vertex 156 96 0
      vertex 156 96 3
    endloop
  endfacet
  facet normal 1 0 0
    outer loop
      vertex 156 96 0
      vertex 156 76 3
      vertex 156 76 0
    endloop
  endfacet
  facet normal -1 0 0
    outer loop
      vertex 159 100 0
      vertex 159 120 3
      vertex 159 120 0
    endloop
  endfacet
  facet normal -1 -0 0
    outer loop
      vertex 159 120 3
      vertex 159 100 0
      vertex 159 100 3
    endloop
  endfacet
  facet normal 0 -1 0
    outer loop
      vertex 156 120 0
      vertex 159 120 3
      vertex 156 120 3
    endloop
  endfacet
  facet normal 0 -1 -0
    outer loop
      vertex 159 120 3
      vertex 156 120 0
      vertex 159 120 0
    endloop
  endfacet
  facet normal 0 1 -0
    outer loop
      vertex 159 100 0
      vertex 156 100 3
      vertex 159 100 3
    endloop
  endfacet
  facet normal 0 1 0
    outer loop
      vertex 156 100 3
      vertex 159 100 0
      vertex 156 100 0
    endloop
  endfacet
  facet normal 1 -0 0
    outer loop
      vertex 156 100 3
      vertex 156 120 0
      vertex 156 120 3
    endloop
  endfacet
  facet normal 1 0 0
    outer loop
      vertex 156 120 0
      vertex 156 100 3
      vertex 156 100 0
    endloop
  endfacet
  facet normal -1 0 0
    outer loop
      vertex 159 124 0
      vertex 159 144 3
      vertex 159 144 0
    endloop
  endfacet
  facet normal -1 -0 0
    outer loop
      vertex 159 144 3
      vertex 159 124 0
      vertex 159 124 3
    endloop
  endfacet
  facet normal 0 -1 0
    outer loop
      vertex 156 144 0
      vertex 159 144 3
      vertex 156 144 3
    endloop
  endfacet
  facet normal 0 -1 -0
    outer loop
      vertex 159 144 3
      vertex 156 144 0
      vertex 159 144 0
    endloop
  endfacet
  facet normal 0 1 -0
    outer loop
      vertex 159 124 0
      vertex 156 124 3
      vertex 159 124 3
    endloop
  endfacet
  facet normal 0 1 0
    outer loop
      vertex 156 124 3
      vertex 159 124 0
      vertex 156 124 0
    endloop
  endfacet
  facet normal 1 -0 0
    outer loop
      vertex 156 124 3
      vertex 156 144 0
      vertex 156 144 3
    endloop
  endfacet
  facet normal 1 0 0
    outer loop
      vertex 156 144 0
      vertex 156 124 3
      vertex 156 124 0
    endloop
  endfacet
  facet normal -1 0 0
    outer loop
      vertex 165 4 0
      vertex 165 24 3
      vertex 165 24 0
    endloop
  endfacet
  facet normal -1 -0 0
    outer loop
      vertex 165 24 3
      vertex 165 4 0
      vertex 165 4 3
    endloop
  endfacet
  facet normal 0 -1 0
    outer loop
      vertex 162 24 0
      vertex 165 24 3
      vertex 162 24 3
    endloop
  endfacet
  facet normal 0 -1 -0
    outer loop
      vertex 165 24 3
      vertex 162 24 0
      vertex 165 24 0
    endloop
  endfacet
  facet normal 0 1 -0
    outer loop
      vertex 165 4 0
      vertex 162 4 3
      vertex 165 4 3
    endloop
  endfacet
  facet normal 0 1 0
    outer loop
      vertex 162 4 3
      vertex 165 4 0
      vertex 162 4 0
    endloop
  endfacet
  facet normal 1 -0 0
    outer loop
      vertex 162 4 3
      vertex 162 24 0
      vertex 162 24 3
    endloop
  endfacet
  facet normal 1 0 0
    outer loop
      vertex 162 24 0
      vertex 162 4 3
      vertex 162 4 0
    endloop
  endfacet
  facet normal -1 0 0
    outer loop
      vertex 165 28 0
      vertex 165 48 3
      vertex 165 48 0
    endloop
  endfacet
  facet normal -1 -0 0
    outer loop
      vertex 165 48 3
      vertex 165 28 0
      vertex 165 28 3
    endloop
  endfacet
  facet normal 0 -1 0
    outer loop
      vertex 162 48 0
      vertex 165 48 3
      vertex 162 48 3
    endloop
  endfacet
  facet normal 0 -1 -0
    outer loop
      vertex 165 48 3
      vertex 162 48 0
      vertex 165 48 0
    endloop
  endfacet
  facet normal 0 1 -0
    outer loop
      vertex 165 28 0
      vertex 162 28 3
      vertex 165 28 3
    endloop
  endfacet
  facet normal 0 1 0
    outer loop
      vertex 162 28 3
      vertex 165 28 0
      vertex 162 28 0
    endloop
  endfacet
  facet normal 1 -0 0
    outer loop
      vertex 162 28 3
      vertex 162 48 0
      vertex 162 48 3
    endloop
  endfacet
  facet normal 1 0 0
    outer loop
      vertex 162 48 0
      vertex 162 28 3
      vertex 162 28 0
    endloop
  endfacet
  facet normal -1 0 0
    outer loop
      vertex 165 52 0
      vertex 165 72 3
      vertex 165 72 0
    endloop
  endfacet
  facet normal -1 -0 0
    outer loop
      vertex 165 72 3
      vertex 165 52 0
      vertex 165 52 3
    endloop
  endfacet
  facet normal 0 -1 0
    outer loop
      vertex 162 72 0
      vertex 165 72 3
      vertex 162 72 3
    endloop
  endfacet
  facet normal 0 -1 -0
    outer loop
      vertex 165 72 3
      vertex 162 72 0
      vertex 165 72 0
    endloop
  endfacet
  facet normal 0 1 -0
    outer loop
      vertex 165 52 0
      vertex 162 52 3
      vertex 165 52 3
    endloop
  endfacet
  facet normal 0 1 0
    outer loop
      vertex 162 52 3
      vertex 165 52 0
      vertex 162 52 0
    endloop
  endfacet
  facet normal 1 -0 0
    outer loop
      vertex 162 52 3
      vertex 162 72 0
      vertex 162 72 3
    endloop
  endfacet
  facet normal 1 0 0
    outer loop
      vertex 162 72 0
      vertex 162 52 3
      vertex 162 52 0
    endloop
  endfacet
  facet normal -1 0 0
    outer loop
      vertex 165 76 0
      vertex 165 96 3
      vertex 165 96 0
    endloop
  endfacet
  facet normal -1 -0 0
    outer loop
      vertex 165 96 3
      vertex 165 76 0
      vertex 165 76 3
    endloop
  endfacet
  facet normal 0 -1 0
    outer loop
      vertex 162 96 0
      vertex 165 96 3
      vertex 162 96 3
    endloop
  endfacet
  facet normal 0 -1 -0
    outer loop
      vertex 165 96 3
      vertex 162 96 0
      vertex 165 96 0
    endloop
  endfacet
  facet normal 0 1 -0
    outer loop
      vertex 165 76 0
      vertex 162 76 3
      vertex 165 76 3
    endloop
  endfacet
  facet normal 0 1 0
    outer loop
      vertex 162 76 3
      vertex 165 76 0
      vertex 162 76 0
    endloop
  endfacet
  facet normal 1 -0 0
    outer loop
      vertex 162 76 3
      vertex 162 96 0
      vertex 162 96 3
    endloop
  endfacet
  facet normal 1 0 0
    outer loop
      vertex 162 96 0
      vertex 162 76 3
      vertex 162 76 0
    endloop
  endfacet
  facet normal -1 0 0
    outer loop
      vertex 165 100 0
      vertex 165 120 3
      vertex 165 120 0
    endloop
  endfacet
  facet normal -1 -0 0
    outer loop
      vertex 165 120 3
      vertex 165 100 0
      vertex 165 100 3
    endloop
  endfacet
  facet normal 0 -1 0
    outer loop
      vertex 162 120 0
      vertex 165 120 3
      vertex 162 120 3
    endloop
  endfacet
  facet normal 0 -1 -0
    outer loop
      vertex 165 120 3
      vertex 162 120 0
      vertex 165 120 0
    endloop
  endfacet
  facet normal 0 1 -0
    outer loop
      vertex 165 100 0
      vertex 162 100 3
      vertex 165 100 3
    endloop
  endfacet
  facet normal 0 1 0
    outer loop
      vertex 162 100 3
      vertex 165 100 0
      vertex 162 100 0
    endloop
  endfacet
  facet normal 1 -0 0
    outer loop
      vertex 162 100 3
      vertex 162 120 0
      vertex 162 120 3
    endloop
  endfacet
  facet normal 1 0 0
    outer loop
      vertex 162 120 0
      vertex 162 100 3
      vertex 162 100 0
    endloop
  endfacet
  facet normal -1 0 0
    outer loop
      vertex 165 124 0
      vertex 165 144 3
      vertex 165 144 0
    endloop
  endfacet
  facet normal -1 -0 0
    outer loop
      vertex 165 144 3
      vertex 165 124 0
      vertex 165 124 3
    endloop
  endfacet
  facet normal 0 -1 0
    outer loop
      vertex 162 144 0
      vertex 165 144 3
      vertex 162 144 3
    endloop
  endfacet
  facet normal 0 -1 -0
    outer loop
      vertex 165 144 3
      vertex 162 144 0
      vertex 165 144 0
    endloop
  endfacet
  facet normal 0 1 -0
    outer loop
      vertex 165 124 0
      vertex 162 124 3
      vertex 165 124 3
    endloop
  endfacet
  facet normal 0 1 0
    outer loop
      vertex 162 124 3
      vertex 165 124 0
      vertex 162 124 0
    endloop
  endfacet
  facet normal 1 -0 0
    outer loop
      vertex 162 124 3
      vertex 162 144 0
      vertex 162 144 3
    endloop
  endfacet
  facet normal 1 0 0
    outer loop
      vertex 162 144 0
      vertex 162 124 3
      vertex 162 124 0
    endloop
  endfacet
  facet normal 1 -0 0
    outer loop
      vertex 152.3 28 3
      vertex 152.3 48 0
      vertex 152.3 48 3
    endloop
  endfacet
  facet normal 1 0 0
    outer loop
      vertex 152.3 48 0
      vertex 152.3 28 3
      vertex 152.3 28 0
    endloop
  endfacet
  facet normal 1 -0 0
    outer loop
      vertex 152.3 76 3
      vertex 152.3 96 0
      vertex 152.3 96 3
    endloop
  endfacet
  facet normal 1 0 0
    outer loop
      vertex 152.3 96 0
      vertex 152.3 76 3
      vertex 152.3 76 0
    endloop
  endfacet
  facet normal 1 -0 0
    outer loop
      vertex 152.3 52 3
      vertex 152.3 72 0
      vertex 152.3 72 3
    endloop
  endfacet
  facet normal 1 0 0
    outer loop
      vertex 152.3 72 0
      vertex 152.3 52 3
      vertex 152.3 52 0
    endloop
  endfacet
  facet normal 1 -0 0
    outer loop
      vertex 152.3 4 3
      vertex 152.3 24 0
      vertex 152.3 24 3
    endloop
  endfacet
  facet normal 1 0 0
    outer loop
      vertex 152.3 24 0
      vertex 152.3 4 3
      vertex 152.3 4 0
    endloop
  endfacet
  facet normal 1 -0 0
    outer loop
      vertex 152.3 124 3
      vertex 152.3 144 0
      vertex 152.3 144 3
    endloop
  endfacet
  facet normal 1 0 0
    outer loop
      vertex 152.3 144 0
      vertex 152.3 124 3
      vertex 152.3 124 0
    endloop
  endfacet
  facet normal 1 -0 0
    outer loop
      vertex 152.3 100 3
      vertex 152.3 120 0
      vertex 152.3 120 3
    endloop
  endfacet
  facet normal 1 0 0
    outer loop
      vertex 152.3 120 0
      vertex 152.3 100 3
      vertex 152.3 100 0
    endloop
  endfacet
  facet normal 1 -0 0
    outer loop
      vertex 285.85 0 3
      vertex 285.85 170.8 0
      vertex 285.85 170.8 3
    endloop
  endfacet
  facet normal 1 0 0
    outer loop
      vertex 285.85 170.8 0
      vertex 285.85 0 3
      vertex 285.85 0 0
    endloop
  endfacet
  facet normal 0 1 -0
    outer loop
      vertex 285.85 170.8 0
      vertex 147.3 170.8 3
      vertex 285.85 170.8 3
    endloop
  endfacet
  facet normal 0 1 0
    outer loop
      vertex 147.3 170.8 3
      vertex 285.85 170.8 0
      vertex 147.3 170.8 0
    endloop
  endfacet
  facet normal 0 -1 0
    outer loop
      vertex 147.3 0 0
      vertex 285.85 0 3
      vertex 147.3 0 3
    endloop
  endfacet
  facet normal 0 -1 -0
    outer loop
      vertex 285.85 0 3
      vertex 147.3 0 0
      vertex 285.85 0 0
    endloop
  endfacet
  facet normal -1 0 0
    outer loop
      vertex 147.3 0 0
      vertex 147.3 170.8 3
      vertex 147.3 170.8 0
    endloop
  endfacet
  facet normal -1 -0 0
    outer loop
      vertex 147.3 170.8 3
      vertex 147.3 0 0
      vertex 147.3 0 3
    endloop
  endfacet
  facet normal 0 0 -1
    outer loop
      vertex 152.3 120 0
      vertex 153 124 0
      vertex 153 120 0
    endloop
  endfacet
  facet normal -0 0 -1
    outer loop
      vertex 153 124 0
      vertex 152.3 120 0
      vertex 152.3 124 0
    endloop
  endfacet
  facet normal 0 0 -1
    outer loop
      vertex 152.3 96 0
      vertex 153 100 0
      vertex 153 96 0
    endloop
  endfacet
  facet normal -0 0 -1
    outer loop
      vertex 153 100 0
      vertex 152.3 96 0
      vertex 152.3 100 0
    endloop
  endfacet
  facet normal 0 0 -1
    outer loop
      vertex 152.3 72 0
      vertex 153 76 0
      vertex 153 72 0
    endloop
  endfacet
  facet normal -0 0 -1
    outer loop
      vertex 153 76 0
      vertex 152.3 72 0
      vertex 152.3 76 0
    endloop
  endfacet
  facet normal 0 0 -1
    outer loop
      vertex 152.3 48 0
      vertex 153 52 0
      vertex 153 48 0
    endloop
  endfacet
  facet normal -0 0 -1
    outer loop
      vertex 153 52 0
      vertex 152.3 48 0
      vertex 152.3 52 0
    endloop
  endfacet
  facet normal 0 0 -1
    outer loop
      vertex 152.3 24 0
      vertex 153 28 0
      vertex 153 24 0
    endloop
  endfacet
  facet normal -0 0 -1
    outer loop
      vertex 153 28 0
      vertex 152.3 24 0
      vertex 152.3 28 0
    endloop
  endfacet
  facet normal 0 0 -1
    outer loop
      vertex 156 120 0
      vertex 159 124 0
      vertex 159 120 0
    endloop
  endfacet
  facet normal -0 0 -1
    outer loop
      vertex 159 124 0
      vertex 156 120 0
      vertex 156 124 0
    endloop
  endfacet
  facet normal 0 0 -1
    outer loop
      vertex 156 96 0
      vertex 159 100 0
      vertex 159 96 0
    endloop
  endfacet
  facet normal -0 0 -1
    outer loop
      vertex 159 100 0
      vertex 156 96 0
      vertex 156 100 0
    endloop
  endfacet
  facet normal 0 0 -1
    outer loop
      vertex 156 72 0
      vertex 159 76 0
      vertex 159 72 0
    endloop
  endfacet
  facet normal -0 0 -1
    outer loop
      vertex 159 76 0
      vertex 156 72 0
      vertex 156 76 0
    endloop
  endfacet
  facet normal 0 0 -1
    outer loop
      vertex 156 48 0
      vertex 159 52 0
      vertex 159 48 0
    endloop
  endfacet
  facet normal -0 0 -1
    outer loop
      vertex 159 52 0
      vertex 156 48 0
      vertex 156 52 0
    endloop
  endfacet
  facet normal 0 0 -1
    outer loop
      vertex 156 24 0
      vertex 159 28 0
      vertex 159 24 0
    endloop
  endfacet
  facet normal -0 0 -1
    outer loop
      vertex 159 28 0
      vertex 156 24 0
      vertex 156 28 0
    endloop
  endfacet
  facet normal 0 0 -1
    outer loop
      vertex 162 120 0
      vertex 165 124 0
      vertex 165 120 0
    endloop
  endfacet
  facet normal -0 0 -1
    outer loop
      vertex 165 124 0
      vertex 162 120 0
      vertex 162 124 0
    endloop
  endfacet
  facet normal 0 0 -1
    outer loop
      vertex 162 96 0
      vertex 165 100 0
      vertex 165 96 0
    endloop
  endfacet
  facet normal -0 0 -1
    outer loop
      vertex 165 100 0
      vertex 162 96 0
      vertex 162 100 0
    endloop
  endfacet
  facet normal 0 0 -1
    outer loop
      vertex 162 72 0
      vertex 165 76 0
      vertex 165 72 0
    endloop
  endfacet
  facet normal -0 0 -1
    outer loop
      vertex 165 76 0
      vertex 162 72 0
      vertex 162 76 0
    endloop
  endfacet
  facet normal 0 0 -1
    outer loop
      vertex 162 48 0
      vertex 165 52 0
      vertex 165 48 0
    endloop
  endfacet
  facet normal -0 0 -1
    outer loop
      vertex 165 52 0
      vertex 162 48 0
      vertex 162 52 0
    endloop
  endfacet
  facet normal 0 0 -1
    outer loop
      vertex 162 24 0
      vertex 165 28 0
      vertex 165 24 0
    endloop
  endfacet
  facet normal -0 0 -1
    outer loop
      vertex 165 28 0
      vertex 162 24 0
      vertex 162 28 0
    endloop
  endfacet
  facet normal 0 0 -1
    outer loop
      vertex 165 24 0
      vertex 285.85 0 0
      vertex 165 4 0
    endloop
  endfacet
  facet normal 0 0 -1
    outer loop
      vertex 147.3 0 0
      vertex 165 4 0
      vertex 285.85 0 0
    endloop
  endfacet
  facet normal 0 0 -1
    outer loop
      vertex 159 24 0
      vertex 162 24 0
      vertex 162 4 0
    endloop
  endfacet
  facet normal 0 0 -1
    outer loop
      vertex 162 24 0
      vertex 159 24 0
      vertex 162 28 0
    endloop
  endfacet
  facet normal 0 0 -1
    outer loop
      vertex 162 28 0
      vertex 159 28 0
      vertex 162 48 0
    endloop
  endfacet
  facet normal 0 0 -1
    outer loop
      vertex 159 48 0
      vertex 162 48 0
      vertex 159 28 0
    endloop
  endfacet
  facet normal 0 0 -1
    outer loop
      vertex 159 52 0
      vertex 162 52 0
      vertex 159 48 0
    endloop
  endfacet
  facet normal 0 0 -1
    outer loop
      vertex 162 52 0
      vertex 159 52 0
      vertex 162 72 0
    endloop
  endfacet
  facet normal 0 0 -1
    outer loop
      vertex 162 72 0
      vertex 159 72 0
      vertex 162 76 0
    endloop
  endfacet
  facet normal 0 0 -1
    outer loop
      vertex 159 76 0
      vertex 162 76 0
      vertex 159 72 0
    endloop
  endfacet
  facet normal 0 0 -1
    outer loop
      vertex 159 96 0
      vertex 162 96 0
      vertex 159 76 0
    endloop
  endfacet
  facet normal 0 0 -1
    outer loop
      vertex 162 96 0
      vertex 159 96 0
      vertex 162 100 0
    endloop
  endfacet
  facet normal 0 0 -1
    outer loop
      vertex 159 24 0
      vertex 162 4 0
      vertex 159 4 0
    endloop
  endfacet
  facet normal -0 0 -1
    outer loop
      vertex 165 4 0
      vertex 147.3 0 0
      vertex 162 4 0
    endloop
  endfacet
  facet normal -0 0 -1
    outer loop
      vertex 162 4 0
      vertex 147.3 0 0
      vertex 159 4 0
    endloop
  endfacet
  facet normal 0 0 -1
    outer loop
      vertex 153 24 0
      vertex 156 24 0
      vertex 156 4 0
    endloop
  endfacet
  facet normal 0 0 -1
    outer loop
      vertex 156 24 0
      vertex 153 24 0
      vertex 156 28 0
    endloop
  endfacet
  facet normal 0 0 -1
    outer loop
      vertex 156 28 0
      vertex 153 28 0
      vertex 156 48 0
    endloop
  endfacet
  facet normal 0 0 -1
    outer loop
      vertex 153 48 0
      vertex 156 48 0
      vertex 153 28 0
    endloop
  endfacet
  facet normal 0 0 -1
    outer loop
      vertex 153 52 0
      vertex 156 52 0
      vertex 153 48 0
    endloop
  endfacet
  facet normal 0 0 -1
    outer loop
      vertex 156 52 0
      vertex 153 52 0
      vertex 156 72 0
    endloop
  endfacet
  facet normal 0 0 -1
    outer loop
      vertex 156 72 0
      vertex 153 72 0
      vertex 156 76 0
    endloop
  endfacet
  facet normal 0 0 -1
    outer loop
      vertex 153 76 0
      vertex 156 76 0
      vertex 153 72 0
    endloop
  endfacet
  facet normal 0 0 -1
    outer loop
      vertex 153 96 0
      vertex 156 96 0
      vertex 153 76 0
    endloop
  endfacet
  facet normal 0 0 -1
    outer loop
      vertex 156 96 0
      vertex 153 96 0
      vertex 156 100 0
    endloop
  endfacet
  facet normal 0 0 -1
    outer loop
      vertex 153 24 0
      vertex 156 4 0
      vertex 153 4 0
    endloop
  endfacet
  facet normal -0 0 -1
    outer loop
      vertex 159 4 0
      vertex 147.3 0 0
      vertex 156 4 0
    endloop
  endfacet
  facet normal -0 0 -1
    outer loop
      vertex 156 4 0
      vertex 147.3 0 0
      vertex 153 4 0
    endloop
  endfacet
  facet normal 0 0 -1
    outer loop
      vertex 147.3 0 0
      vertex 152.3 24 0
      vertex 152.3 4 0
    endloop
  endfacet
  facet normal -0 0 -1
    outer loop
      vertex 152.3 24 0
      vertex 147.3 0 0
      vertex 152.3 28 0
    endloop
  endfacet
  facet normal -0 0 -1
    outer loop
      vertex 152.3 28 0
      vertex 147.3 0 0
      vertex 152.3 48 0
    endloop
  endfacet
  facet normal -0 0 -1
    outer loop
      vertex 152.3 48 0
      vertex 147.3 0 0
      vertex 152.3 52 0
    endloop
  endfacet
  facet normal -0 0 -1
    outer loop
      vertex 152.3 52 0
      vertex 147.3 0 0
      vertex 152.3 72 0
    endloop
  endfacet
  facet normal -0 0 -1
    outer loop
      vertex 152.3 72 0
      vertex 147.3 0 0
      vertex 152.3 76 0
    endloop
  endfacet
  facet normal -0 0 -1
    outer loop
      vertex 152.3 76 0
      vertex 147.3 0 0
      vertex 152.3 96 0
    endloop
  endfacet
  facet normal 0 0 -1
    outer loop
      vertex 147.3 170.8 0
      vertex 152.3 96 0
      vertex 147.3 0 0
    endloop
  endfacet
  facet normal 0 0 -1
    outer loop
      vertex 152.3 96 0
      vertex 147.3 170.8 0
      vertex 152.3 100 0
    endloop
  endfacet
  facet normal 0 0 -1
    outer loop
      vertex 152.3 100 0
      vertex 147.3 170.8 0
      vertex 152.3 120 0
    endloop
  endfacet
  facet normal 0 0 -1
    outer loop
      vertex 152.3 120 0
      vertex 147.3 170.8 0
      vertex 152.3 124 0
    endloop
  endfacet
  facet normal -0 0 -1
    outer loop
      vertex 153 4 0
      vertex 147.3 0 0
      vertex 152.3 4 0
    endloop
  endfacet
  facet normal 0 0 -1
    outer loop
      vertex 165 28 0
      vertex 285.85 0 0
      vertex 165 24 0
    endloop
  endfacet
  facet normal 0 0 -1
    outer loop
      vertex 165 48 0
      vertex 285.85 0 0
      vertex 165 28 0
    endloop
  endfacet
  facet normal 0 0 -1
    outer loop
      vertex 165 52 0
      vertex 285.85 0 0
      vertex 165 48 0
    endloop
  endfacet
  facet normal 0 0 -1
    outer loop
      vertex 165 72 0
      vertex 285.85 0 0
      vertex 165 52 0
    endloop
  endfacet
  facet normal 0 0 -1
    outer loop
      vertex 165 76 0
      vertex 285.85 0 0
      vertex 165 72 0
    endloop
  endfacet
  facet normal 0 0 -1
    outer loop
      vertex 285.85 0 0
      vertex 165 76 0
      vertex 285.85 170.8 0
    endloop
  endfacet
  facet normal 0 0 -1
    outer loop
      vertex 165 96 0
      vertex 285.85 170.8 0
      vertex 165 76 0
    endloop
  endfacet
  facet normal 0 0 -1
    outer loop
      vertex 165 100 0
      vertex 285.85 170.8 0
      vertex 165 96 0
    endloop
  endfacet
  facet normal 0 0 -1
    outer loop
      vertex 165 120 0
      vertex 285.85 170.8 0
      vertex 165 100 0
    endloop
  endfacet
  facet normal 0 0 -1
    outer loop
      vertex 165 124 0
      vertex 285.85 170.8 0
      vertex 165 120 0
    endloop
  endfacet
  facet normal 0 0 -1
    outer loop
      vertex 165 144 0
      vertex 285.85 170.8 0
      vertex 165 124 0
    endloop
  endfacet
  facet normal 0 0 -1
    outer loop
      vertex 147.3 170.8 0
      vertex 165 144 0
      vertex 162 144 0
    endloop
  endfacet
  facet normal -0 0 -1
    outer loop
      vertex 162 28 0
      vertex 159 24 0
      vertex 159 28 0
    endloop
  endfacet
  facet normal 0 0 -1
    outer loop
      vertex 162 48 0
      vertex 159 48 0
      vertex 162 52 0
    endloop
  endfacet
  facet normal 0 0 -1
    outer loop
      vertex 159 72 0
      vertex 162 72 0
      vertex 159 52 0
    endloop
  endfacet
  facet normal 0 0 -1
    outer loop
      vertex 162 76 0
      vertex 159 76 0
      vertex 162 96 0
    endloop
  endfacet
  facet normal 0 0 -1
    outer loop
      vertex 159 100 0
      vertex 162 100 0
      vertex 159 96 0
    endloop
  endfacet
  facet normal 0 0 -1
    outer loop
      vertex 162 100 0
      vertex 159 100 0
      vertex 162 120 0
    endloop
  endfacet
  facet normal 0 0 -1
    outer loop
      vertex 159 120 0
      vertex 162 120 0
      vertex 159 100 0
    endloop
  endfacet
  facet normal 0 0 -1
    outer loop
      vertex 162 120 0
      vertex 159 120 0
      vertex 162 124 0
    endloop
  endfacet
  facet normal 0 0 -1
    outer loop
      vertex 159 124 0
      vertex 162 124 0
      vertex 159 120 0
    endloop
  endfacet
  facet normal 0 0 -1
    outer loop
      vertex 162 124 0
      vertex 159 124 0
      vertex 162 144 0
    endloop
  endfacet
  facet normal 0 0 -1
    outer loop
      vertex 159 144 0
      vertex 162 144 0
      vertex 159 124 0
    endloop
  endfacet
  facet normal 0 0 -1
    outer loop
      vertex 147.3 170.8 0
      vertex 162 144 0
      vertex 159 144 0
    endloop
  endfacet
  facet normal 0 0 -1
    outer loop
      vertex 147.3 170.8 0
      vertex 159 144 0
      vertex 156 144 0
    endloop
  endfacet
  facet normal -0 0 -1
    outer loop
      vertex 156 28 0
      vertex 153 24 0
      vertex 153 28 0
    endloop
  endfacet
  facet normal 0 0 -1
    outer loop
      vertex 156 48 0
      vertex 153 48 0
      vertex 156 52 0
    endloop
  endfacet
  facet normal 0 0 -1
    outer loop
      vertex 153 72 0
      vertex 156 72 0
      vertex 153 52 0
    endloop
  endfacet
  facet normal 0 0 -1
    outer loop
      vertex 156 76 0
      vertex 153 76 0
      vertex 156 96 0
    endloop
  endfacet
  facet normal 0 0 -1
    outer loop
      vertex 153 100 0
      vertex 156 100 0
      vertex 153 96 0
    endloop
  endfacet
  facet normal 0 0 -1
    outer loop
      vertex 156 100 0
      vertex 153 100 0
      vertex 156 120 0
    endloop
  endfacet
  facet normal 0 0 -1
    outer loop
      vertex 153 120 0
      vertex 156 120 0
      vertex 153 100 0
    endloop
  endfacet
  facet normal 0 0 -1
    outer loop
      vertex 156 120 0
      vertex 153 120 0
      vertex 156 124 0
    endloop
  endfacet
  facet normal 0 0 -1
    outer loop
      vertex 153 124 0
      vertex 156 124 0
      vertex 153 120 0
    endloop
  endfacet
  facet normal 0 0 -1
    outer loop
      vertex 156 124 0
      vertex 153 124 0
      vertex 156 144 0
    endloop
  endfacet
  facet normal 0 0 -1
    outer loop
      vertex 153 144 0
      vertex 156 144 0
      vertex 153 124 0
    endloop
  endfacet
  facet normal 0 0 -1
    outer loop
      vertex 147.3 170.8 0
      vertex 156 144 0
      vertex 153 144 0
    endloop
  endfacet
  facet normal 0 0 -1
    outer loop
      vertex 147.3 170.8 0
      vertex 153 144 0
      vertex 152.3 144 0
    endloop
  endfacet
  facet normal 0 0 -1
    outer loop
      vertex 165 144 0
      vertex 147.3 170.8 0
      vertex 285.85 170.8 0
    endloop
  endfacet
  facet normal 0 0 -1
    outer loop
      vertex 152.3 124 0
      vertex 147.3 170.8 0
      vertex 152.3 144 0
    endloop
  endfacet
  facet normal -0 0 1
    outer loop
      vertex 152.3 28 3
      vertex 153 24 3
      vertex 153 28 3
    endloop
  endfacet
  facet normal 0 0 1
    outer loop
      vertex 153 24 3
      vertex 152.3 28 3
      vertex 152.3 24 3
    endloop
  endfacet
  facet normal -0 0 1
    outer loop
      vertex 152.3 52 3
      vertex 153 48 3
      vertex 153 52 3
    endloop
  endfacet
  facet normal 0 0 1
    outer loop
      vertex 153 48 3
      vertex 152.3 52 3
      vertex 152.3 48 3
    endloop
  endfacet
  facet normal -0 0 1
    outer loop
      vertex 152.3 76 3
      vertex 153 72 3
      vertex 153 76 3
    endloop
  endfacet
  facet normal 0 0 1
    outer loop
      vertex 153 72 3
      vertex 152.3 76 3
      vertex 152.3 72 3
    endloop
  endfacet
  facet normal -0 0 1
    outer loop
      vertex 152.3 100 3
      vertex 153 96 3
      vertex 153 100 3
    endloop
  endfacet
  facet normal 0 0 1
    outer loop
      vertex 153 96 3
      vertex 152.3 100 3
      vertex 152.3 96 3
    endloop
  endfacet
  facet normal -0 0 1
    outer loop
      vertex 152.3 124 3
      vertex 153 120 3
      vertex 153 124 3
    endloop
  endfacet
  facet normal 0 0 1
    outer loop
      vertex 153 120 3
      vertex 152.3 124 3
      vertex 152.3 120 3
    endloop
  endfacet
  facet normal -0 0 1
    outer loop
      vertex 156 28 3
      vertex 159 24 3
      vertex 159 28 3
    endloop
  endfacet
  facet normal 0 0 1
    outer loop
      vertex 159 24 3
      vertex 156 28 3
      vertex 156 24 3
    endloop
  endfacet
  facet normal -0 0 1
    outer loop
      vertex 156 52 3
      vertex 159 48 3
      vertex 159 52 3
    endloop
  endfacet
  facet normal 0 0 1
    outer loop
      vertex 159 48 3
      vertex 156 52 3
      vertex 156 48 3
    endloop
  endfacet
  facet normal -0 0 1
    outer loop
      vertex 156 76 3
      vertex 159 72 3
      vertex 159 76 3
    endloop
  endfacet
  facet normal 0 0 1
    outer loop
      vertex 159 72 3
      vertex 156 76 3
      vertex 156 72 3
    endloop
  endfacet
  facet normal -0 0 1
    outer loop
      vertex 156 100 3
      vertex 159 96 3
      vertex 159 100 3
    endloop
  endfacet
  facet normal 0 0 1
    outer loop
      vertex 159 96 3
      vertex 156 100 3
      vertex 156 96 3
    endloop
  endfacet
  facet normal -0 0 1
    outer loop
      vertex 156 124 3
      vertex 159 120 3
      vertex 159 124 3
    endloop
  endfacet
  facet normal 0 0 1
    outer loop
      vertex 159 120 3
      vertex 156 124 3
      vertex 156 120 3
    endloop
  endfacet
  facet normal -0 0 1
    outer loop
      vertex 162 28 3
      vertex 165 24 3
      vertex 165 28 3
    endloop
  endfacet
  facet normal 0 0 1
    outer loop
      vertex 165 24 3
      vertex 162 28 3
      vertex 162 24 3
    endloop
  endfacet
  facet normal -0 0 1
    outer loop
      vertex 162 52 3
      vertex 165 48 3
      vertex 165 52 3
    endloop
  endfacet
  facet normal 0 0 1
    outer loop
      vertex 165 48 3
      vertex 162 52 3
      vertex 162 48 3
    endloop
  endfacet
  facet normal -0 0 1
    outer loop
      vertex 162 76 3
      vertex 165 72 3
      vertex 165 76 3
    endloop
  endfacet
  facet normal 0 0 1
    outer loop
      vertex 165 72 3
      vertex 162 76 3
      vertex 162 72 3
    endloop
  endfacet
  facet normal -0 0 1
    outer loop
      vertex 162 100 3
      vertex 165 96 3
      vertex 165 100 3
    endloop
  endfacet
  facet normal 0 0 1
    outer loop
      vertex 165 96 3
      vertex 162 100 3
      vertex 162 96 3
    endloop
  endfacet
  facet normal -0 0 1
    outer loop
      vertex 162 124 3
      vertex 165 120 3
      vertex 165 124 3
    endloop
  endfacet
  facet normal 0 0 1
    outer loop
      vertex 165 120 3
      vertex 162 124 3
      vertex 162 120 3
    endloop
  endfacet
  facet normal 0 0 1
    outer loop
      vertex 165 124 3
      vertex 285.85 170.8 3
      vertex 165 144 3
    endloop
  endfacet
  facet normal -0 0 1
    outer loop
      vertex 147.3 170.8 3
      vertex 165 144 3
      vertex 285.85 170.8 3
    endloop
  endfacet
  facet normal 0 0 1
    outer loop
      vertex 159 124 3
      vertex 162 124 3
      vertex 162 144 3
    endloop
  endfacet
  facet normal 0 0 1
    outer loop
      vertex 162 124 3
      vertex 159 124 3
      vertex 162 120 3
    endloop
  endfacet
  facet normal 0 0 1
    outer loop
      vertex 162 120 3
      vertex 159 120 3
      vertex 162 100 3
    endloop
  endfacet
  facet normal 0 0 1
    outer loop
      vertex 159 100 3
      vertex 162 100 3
      vertex 159 120 3
    endloop
  endfacet
  facet normal 0 0 1
    outer loop
      vertex 159 96 3
      vertex 162 96 3
      vertex 159 100 3
    endloop
  endfacet
  facet normal 0 0 1
    outer loop
      vertex 162 96 3
      vertex 159 96 3
      vertex 162 76 3
    endloop
  endfacet
  facet normal 0 0 1
    outer loop
      vertex 162 76 3
      vertex 159 76 3
      vertex 162 72 3
    endloop
  endfacet
  facet normal 0 0 1
    outer loop
      vertex 159 72 3
      vertex 162 72 3
      vertex 159 76 3
    endloop
  endfacet
  facet normal 0 0 1
    outer loop
      vertex 159 52 3
      vertex 162 52 3
      vertex 159 72 3
    endloop
  endfacet
  facet normal 0 0 1
    outer loop
      vertex 162 52 3
      vertex 159 52 3
      vertex 162 48 3
    endloop
  endfacet
  facet normal 0 0 1
    outer loop
      vertex 159 124 3
      vertex 162 144 3
      vertex 159 144 3
    endloop
  endfacet
  facet normal 0 0 1
    outer loop
      vertex 165 144 3
      vertex 147.3 170.8 3
      vertex 162 144 3
    endloop
  endfacet
  facet normal 0 0 1
    outer loop
      vertex 162 144 3
      vertex 147.3 170.8 3
      vertex 159 144 3
    endloop
  endfacet
  facet normal 0 0 1
    outer loop
      vertex 153 124 3
      vertex 156 124 3
      vertex 156 144 3
    endloop
  endfacet
  facet normal 0 0 1
    outer loop
      vertex 156 124 3
      vertex 153 124 3
      vertex 156 120 3
    endloop
  endfacet
  facet normal 0 0 1
    outer loop
      vertex 156 120 3
      vertex 153 120 3
      vertex 156 100 3
    endloop
  endfacet
  facet normal 0 0 1
    outer loop
      vertex 153 100 3
      vertex 156 100 3
      vertex 153 120 3
    endloop
  endfacet
  facet normal 0 0 1
    outer loop
      vertex 153 96 3
      vertex 156 96 3
      vertex 153 100 3
    endloop
  endfacet
  facet normal 0 0 1
    outer loop
      vertex 156 96 3
      vertex 153 96 3
      vertex 156 76 3
    endloop
  endfacet
  facet normal 0 0 1
    outer loop
      vertex 156 76 3
      vertex 153 76 3
      vertex 156 72 3
    endloop
  endfacet
  facet normal 0 0 1
    outer loop
      vertex 153 72 3
      vertex 156 72 3
      vertex 153 76 3
    endloop
  endfacet
  facet normal 0 0 1
    outer loop
      vertex 153 52 3
      vertex 156 52 3
      vertex 153 72 3
    endloop
  endfacet
  facet normal 0 0 1
    outer loop
      vertex 156 52 3
      vertex 153 52 3
      vertex 156 48 3
    endloop
  endfacet
  facet normal 0 0 1
    outer loop
      vertex 153 124 3
      vertex 156 144 3
      vertex 153 144 3
    endloop
  endfacet
  facet normal 0 0 1
    outer loop
      vertex 159 144 3
      vertex 147.3 170.8 3
      vertex 156 144 3
    endloop
  endfacet
  facet normal 0 0 1
    outer loop
      vertex 156 144 3
      vertex 147.3 170.8 3
      vertex 153 144 3
    endloop
  endfacet
  facet normal 0 0 1
    outer loop
      vertex 147.3 170.8 3
      vertex 152.3 124 3
      vertex 152.3 144 3
    endloop
  endfacet
  facet normal 0 0 1
    outer loop
      vertex 152.3 124 3
      vertex 147.3 170.8 3
      vertex 152.3 120 3
    endloop
  endfacet
  facet normal 0 0 1
    outer loop
      vertex 152.3 120 3
      vertex 147.3 170.8 3
      vertex 152.3 100 3
    endloop
  endfacet
  facet normal 0 0 1
    outer loop
      vertex 152.3 100 3
      vertex 147.3 170.8 3
      vertex 152.3 96 3
    endloop
  endfacet
  facet normal 0 0 1
    outer loop
      vertex 152.3 96 3
      vertex 147.3 170.8 3
      vertex 152.3 76 3
    endloop
  endfacet
  facet normal 0 0 1
    outer loop
      vertex 147.3 0 3
      vertex 152.3 76 3
      vertex 147.3 170.8 3
    endloop
  endfacet
  facet normal 0 0 1
    outer loop
      vertex 152.3 76 3
      vertex 147.3 0 3
      vertex 152.3 72 3
    endloop
  endfacet
  facet normal 0 0 1
    outer loop
      vertex 152.3 72 3
      vertex 147.3 0 3
      vertex 152.3 52 3
    endloop
  endfacet
  facet normal 0 0 1
    outer loop
      vertex 152.3 48 3
      vertex 147.3 0 3
      vertex 152.3 28 3
    endloop
  endfacet
  facet normal 0 0 1
    outer loop
      vertex 152.3 28 3
      vertex 147.3 0 3
      vertex 152.3 24 3
    endloop
  endfacet
  facet normal 0 0 1
    outer loop
      vertex 152.3 52 3
      vertex 147.3 0 3
      vertex 152.3 48 3
    endloop
  endfacet
  facet normal 0 0 1
    outer loop
      vertex 153 144 3
      vertex 147.3 170.8 3
      vertex 152.3 144 3
    endloop
  endfacet
  facet normal 0 0 1
    outer loop
      vertex 165 120 3
      vertex 285.85 170.8 3
      vertex 165 124 3
    endloop
  endfacet
  facet normal 0 0 1
    outer loop
      vertex 165 100 3
      vertex 285.85 170.8 3
      vertex 165 120 3
    endloop
  endfacet
  facet normal 0 0 1
    outer loop
      vertex 165 96 3
      vertex 285.85 170.8 3
      vertex 165 100 3
    endloop
  endfacet
  facet normal 0 0 1
    outer loop
      vertex 285.85 170.8 3
      vertex 165 96 3
      vertex 285.85 0 3
    endloop
  endfacet
  facet normal -0 0 1
    outer loop
      vertex 165 76 3
      vertex 285.85 0 3
      vertex 165 96 3
    endloop
  endfacet
  facet normal -0 0 1
    outer loop
      vertex 165 72 3
      vertex 285.85 0 3
      vertex 165 76 3
    endloop
  endfacet
  facet normal -0 0 1
    outer loop
      vertex 165 52 3
      vertex 285.85 0 3
      vertex 165 72 3
    endloop
  endfacet
  facet normal -0 0 1
    outer loop
      vertex 165 48 3
      vertex 285.85 0 3
      vertex 165 52 3
    endloop
  endfacet
  facet normal -0 0 1
    outer loop
      vertex 165 28 3
      vertex 285.85 0 3
      vertex 165 48 3
    endloop
  endfacet
  facet normal -0 0 1
    outer loop
      vertex 165 24 3
      vertex 285.85 0 3
      vertex 165 28 3
    endloop
  endfacet
  facet normal -0 0 1
    outer loop
      vertex 165 4 3
      vertex 285.85 0 3
      vertex 165 24 3
    endloop
  endfacet
  facet normal 0 0 1
    outer loop
      vertex 147.3 0 3
      vertex 165 4 3
      vertex 162 4 3
    endloop
  endfacet
  facet normal 0 0 1
    outer loop
      vertex 162 120 3
      vertex 159 124 3
      vertex 159 120 3
    endloop
  endfacet
  facet normal 0 0 1
    outer loop
      vertex 162 100 3
      vertex 159 100 3
      vertex 162 96 3
    endloop
  endfacet
  facet normal 0 0 1
    outer loop
      vertex 159 76 3
      vertex 162 76 3
      vertex 159 96 3
    endloop
  endfacet
  facet normal 0 0 1
    outer loop
      vertex 162 72 3
      vertex 159 72 3
      vertex 162 52 3
    endloop
  endfacet
  facet normal 0 0 1
    outer loop
      vertex 159 48 3
      vertex 162 48 3
      vertex 159 52 3
    endloop
  endfacet
  facet normal 0 0 1
    outer loop
      vertex 162 48 3
      vertex 159 48 3
      vertex 162 28 3
    endloop
  endfacet
  facet normal 0 0 1
    outer loop
      vertex 159 28 3
      vertex 162 28 3
      vertex 159 48 3
    endloop
  endfacet
  facet normal 0 0 1
    outer loop
      vertex 162 28 3
      vertex 159 28 3
      vertex 162 24 3
    endloop
  endfacet
  facet normal 0 0 1
    outer loop
      vertex 159 24 3
      vertex 162 24 3
      vertex 159 28 3
    endloop
  endfacet
  facet normal 0 0 1
    outer loop
      vertex 162 24 3
      vertex 159 24 3
      vertex 162 4 3
    endloop
  endfacet
  facet normal 0 0 1
    outer loop
      vertex 159 4 3
      vertex 162 4 3
      vertex 159 24 3
    endloop
  endfacet
  facet normal 0 0 1
    outer loop
      vertex 147.3 0 3
      vertex 162 4 3
      vertex 159 4 3
    endloop
  endfacet
  facet normal 0 0 1
    outer loop
      vertex 147.3 0 3
      vertex 159 4 3
      vertex 156 4 3
    endloop
  endfacet
  facet normal 0 0 1
    outer loop
      vertex 156 120 3
      vertex 153 124 3
      vertex 153 120 3
    endloop
  endfacet
  facet normal 0 0 1
    outer loop
      vertex 156 100 3
      vertex 153 100 3
      vertex 156 96 3
    endloop
  endfacet
  facet normal 0 0 1
    outer loop
      vertex 153 76 3
      vertex 156 76 3
      vertex 153 96 3
    endloop
  endfacet
  facet normal 0 0 1
    outer loop
      vertex 156 72 3
      vertex 153 72 3
      vertex 156 52 3
    endloop
  endfacet
  facet normal 0 0 1
    outer loop
      vertex 153 48 3
      vertex 156 48 3
      vertex 153 52 3
    endloop
  endfacet
  facet normal 0 0 1
    outer loop
      vertex 156 48 3
      vertex 153 48 3
      vertex 156 28 3
    endloop
  endfacet
  facet normal 0 0 1
    outer loop
      vertex 153 28 3
      vertex 156 28 3
      vertex 153 48 3
    endloop
  endfacet
  facet normal 0 0 1
    outer loop
      vertex 156 28 3
      vertex 153 28 3
      vertex 156 24 3
    endloop
  endfacet
  facet normal 0 0 1
    outer loop
      vertex 153 24 3
      vertex 156 24 3
      vertex 153 28 3
    endloop
  endfacet
  facet normal 0 0 1
    outer loop
      vertex 156 24 3
      vertex 153 24 3
      vertex 156 4 3
    endloop
  endfacet
  facet normal 0 0 1
    outer loop
      vertex 153 4 3
      vertex 156 4 3
      vertex 153 24 3
    endloop
  endfacet
  facet normal 0 0 1
    outer loop
      vertex 147.3 0 3
      vertex 156 4 3
      vertex 153 4 3
    endloop
  endfacet
  facet normal 0 0 1
    outer loop
      vertex 147.3 0 3
      vertex 153 4 3
      vertex 152.3 4 3
    endloop
  endfacet
  facet normal 0 0 1
    outer loop
      vertex 165 4 3
      vertex 147.3 0 3
      vertex 285.85 0 3
    endloop
  endfacet
  facet normal 0 0 1
    outer loop
      vertex 152.3 24 3
      vertex 147.3 0 3
      vertex 152.3 4 3
    endloop
  endfacet
endsolid OpenSCAD_Model
