solid OpenSCAD_Model
  facet normal 1 -0 0
    outer loop
      vertex 10 -7 171.3
      vertex 10 7 7.62939e-07
      vertex 10 7 171.3
    endloop
  endfacet
  facet normal 1 0 0
    outer loop
      vertex 10 7 7.62939e-07
      vertex 10 -7 171.3
      vertex 10 -7 7.62939e-07
    endloop
  endfacet
  facet normal 0 0 -1
    outer loop
      vertex -5 -7 7.62939e-07
      vertex -3.2 -2 7.62939e-07
      vertex -3.2 -7 7.62939e-07
    endloop
  endfacet
  facet normal -0 0 -1
    outer loop
      vertex -3.2 -2 7.62939e-07
      vertex -5 -7 7.62939e-07
      vertex -3.2 2 7.62939e-07
    endloop
  endfacet
  facet normal 0 0 -1
    outer loop
      vertex -5 7 7.62939e-07
      vertex -3.2 2 7.62939e-07
      vertex -5 -7 7.62939e-07
    endloop
  endfacet
  facet normal 0 0 -1
    outer loop
      vertex -3.2 2 7.62939e-07
      vertex -5 7 7.62939e-07
      vertex -3.2 7 7.62939e-07
    endloop
  endfacet
  facet normal 0 0 -1
    outer loop
      vertex -3.2 -2 7.62939e-07
      vertex 0.2 2 7.62939e-07
      vertex 0.2 -2 7.62939e-07
    endloop
  endfacet
  facet normal -0 0 -1
    outer loop
      vertex 0.2 2 7.62939e-07
      vertex -3.2 -2 7.62939e-07
      vertex -3.2 2 7.62939e-07
    endloop
  endfacet
  facet normal 0 0 -1
    outer loop
      vertex 10 -7 7.62939e-07
      vertex 8.2 -3.2 7.62939e-07
      vertex 10 7 7.62939e-07
    endloop
  endfacet
  facet normal 0 0 -1
    outer loop
      vertex 0.2 -7 7.62939e-07
      vertex 8.2 -3.2 7.62939e-07
      vertex 10 -7 7.62939e-07
    endloop
  endfacet
  facet normal 0 0 -1
    outer loop
      vertex 0.2 -2 7.62939e-07
      vertex 1.8 -3.2 7.62939e-07
      vertex 0.2 -7 7.62939e-07
    endloop
  endfacet
  facet normal -0 0 -1
    outer loop
      vertex 8.2 -3.2 7.62939e-07
      vertex 0.2 -7 7.62939e-07
      vertex 1.8 -3.2 7.62939e-07
    endloop
  endfacet
  facet normal 0 0 -1
    outer loop
      vertex 8.2 3.2 7.62939e-07
      vertex 10 7 7.62939e-07
      vertex 8.2 -3.2 7.62939e-07
    endloop
  endfacet
  facet normal 0 0 -1
    outer loop
      vertex 0.2 7 7.62939e-07
      vertex 8.2 3.2 7.62939e-07
      vertex 1.8 3.2 7.62939e-07
    endloop
  endfacet
  facet normal 0 0 -1
    outer loop
      vertex 1.8 -3.2 7.62939e-07
      vertex 0.2 -2 7.62939e-07
      vertex 1.8 3.2 7.62939e-07
    endloop
  endfacet
  facet normal 0 0 -1
    outer loop
      vertex 0.2 2 7.62939e-07
      vertex 1.8 3.2 7.62939e-07
      vertex 0.2 -2 7.62939e-07
    endloop
  endfacet
  facet normal 0 0 -1
    outer loop
      vertex 8.2 3.2 7.62939e-07
      vertex 0.2 7 7.62939e-07
      vertex 10 7 7.62939e-07
    endloop
  endfacet
  facet normal 0 0 -1
    outer loop
      vertex 0.2 7 7.62939e-07
      vertex 1.8 3.2 7.62939e-07
      vertex 0.2 2 7.62939e-07
    endloop
  endfacet
  facet normal -0 0 1
    outer loop
      vertex -5 7 171.3
      vertex -3.2 2 171.3
      vertex -3.2 7 171.3
    endloop
  endfacet
  facet normal 0 0 1
    outer loop
      vertex -3.2 2 171.3
      vertex -5 7 171.3
      vertex -3.2 -2 171.3
    endloop
  endfacet
  facet normal 0 0 1
    outer loop
      vertex -5 -7 171.3
      vertex -3.2 -2 171.3
      vertex -5 7 171.3
    endloop
  endfacet
  facet normal 0 0 1
    outer loop
      vertex -3.2 -2 171.3
      vertex -5 -7 171.3
      vertex -3.2 -7 171.3
    endloop
  endfacet
  facet normal -0 0 1
    outer loop
      vertex -3.2 2 171.3
      vertex 0.2 -2 171.3
      vertex 0.2 2 171.3
    endloop
  endfacet
  facet normal 0 0 1
    outer loop
      vertex 0.2 -2 171.3
      vertex -3.2 2 171.3
      vertex -3.2 -2 171.3
    endloop
  endfacet
  facet normal 0 0 1
    outer loop
      vertex 10 7 171.3
      vertex 8 3 171.3
      vertex 10 -7 171.3
    endloop
  endfacet
  facet normal -0 0 1
    outer loop
      vertex 0.2 7 171.3
      vertex 8 3 171.3
      vertex 10 7 171.3
    endloop
  endfacet
  facet normal 0 0 1
    outer loop
      vertex 0.2 2 171.3
      vertex 2 3 171.3
      vertex 0.2 7 171.3
    endloop
  endfacet
  facet normal 0 0 1
    outer loop
      vertex 8 3 171.3
      vertex 0.2 7 171.3
      vertex 2 3 171.3
    endloop
  endfacet
  facet normal -0 0 1
    outer loop
      vertex 8 -3 171.3
      vertex 10 -7 171.3
      vertex 8 3 171.3
    endloop
  endfacet
  facet normal 0 0 1
    outer loop
      vertex 0.2 -7 171.3
      vertex 8 -3 171.3
      vertex 2 -3 171.3
    endloop
  endfacet
  facet normal 0 0 1
    outer loop
      vertex 2 3 171.3
      vertex 0.2 2 171.3
      vertex 2 -3 171.3
    endloop
  endfacet
  facet normal -0 0 1
    outer loop
      vertex 0.2 -2 171.3
      vertex 2 -3 171.3
      vertex 0.2 2 171.3
    endloop
  endfacet
  facet normal 0 0 1
    outer loop
      vertex 8 -3 171.3
      vertex 0.2 -7 171.3
      vertex 10 -7 171.3
    endloop
  endfacet
  facet normal 0 0 1
    outer loop
      vertex 0.2 -7 171.3
      vertex 2 -3 171.3
      vertex 0.2 -2 171.3
    endloop
  endfacet
  facet normal -1 0 0
    outer loop
      vertex -5 -7 7.62939e-07
      vertex -5 7 171.3
      vertex -5 7 7.62939e-07
    endloop
  endfacet
  facet normal -1 -0 0
    outer loop
      vertex -5 7 171.3
      vertex -5 -7 7.62939e-07
      vertex -5 -7 171.3
    endloop
  endfacet
  facet normal 0 -1 0
    outer loop
      vertex -5 -7 7.62939e-07
      vertex -3.2 -7 171.3
      vertex -5 -7 171.3
    endloop
  endfacet
  facet normal 0 -1 -0
    outer loop
      vertex -3.2 -7 171.3
      vertex -5 -7 7.62939e-07
      vertex -3.2 -7 7.62939e-07
    endloop
  endfacet
  facet normal 0 -1 0
    outer loop
      vertex 0.2 -7 7.62939e-07
      vertex 10 -7 171.3
      vertex 0.2 -7 171.3
    endloop
  endfacet
  facet normal 0 -1 -0
    outer loop
      vertex 10 -7 171.3
      vertex 0.2 -7 7.62939e-07
      vertex 10 -7 7.62939e-07
    endloop
  endfacet
  facet normal 0 1 -0
    outer loop
      vertex -3.2 7 7.62939e-07
      vertex -5 7 171.3
      vertex -3.2 7 171.3
    endloop
  endfacet
  facet normal 0 1 0
    outer loop
      vertex -5 7 171.3
      vertex -3.2 7 7.62939e-07
      vertex -5 7 7.62939e-07
    endloop
  endfacet
  facet normal 0 1 -0
    outer loop
      vertex 10 7 7.62939e-07
      vertex 0.2 7 171.3
      vertex 10 7 171.3
    endloop
  endfacet
  facet normal 0 1 0
    outer loop
      vertex 0.2 7 171.3
      vertex 10 7 7.62939e-07
      vertex 0.2 7 7.62939e-07
    endloop
  endfacet
  facet normal -1 0 0
    outer loop
      vertex 0.2 2 7.62939e-07
      vertex 0.2 7 171.3
      vertex 0.2 7 7.62939e-07
    endloop
  endfacet
  facet normal -1 -0 0
    outer loop
      vertex 0.2 7 171.3
      vertex 0.2 2 7.62939e-07
      vertex 0.2 2 171.3
    endloop
  endfacet
  facet normal 1 -0 0
    outer loop
      vertex -3.2 2 171.3
      vertex -3.2 7 7.62939e-07
      vertex -3.2 7 171.3
    endloop
  endfacet
  facet normal 1 0 0
    outer loop
      vertex -3.2 7 7.62939e-07
      vertex -3.2 2 171.3
      vertex -3.2 2 7.62939e-07
    endloop
  endfacet
  facet normal 0 1 -0
    outer loop
      vertex 0.2 2 7.62939e-07
      vertex -3.2 2 171.3
      vertex 0.2 2 171.3
    endloop
  endfacet
  facet normal 0 1 0
    outer loop
      vertex -3.2 2 171.3
      vertex 0.2 2 7.62939e-07
      vertex -3.2 2 7.62939e-07
    endloop
  endfacet
  facet normal -1 0 0
    outer loop
      vertex 0.2 -7 7.62939e-07
      vertex 0.2 -2 171.3
      vertex 0.2 -2 7.62939e-07
    endloop
  endfacet
  facet normal -1 -0 0
    outer loop
      vertex 0.2 -2 171.3
      vertex 0.2 -7 7.62939e-07
      vertex 0.2 -7 171.3
    endloop
  endfacet
  facet normal 1 -0 0
    outer loop
      vertex -3.2 -7 171.3
      vertex -3.2 -2 7.62939e-07
      vertex -3.2 -2 171.3
    endloop
  endfacet
  facet normal 1 0 0
    outer loop
      vertex -3.2 -2 7.62939e-07
      vertex -3.2 -7 171.3
      vertex -3.2 -7 7.62939e-07
    endloop
  endfacet
  facet normal 0 -1 0
    outer loop
      vertex -3.2 -2 7.62939e-07
      vertex 0.2 -2 171.3
      vertex -3.2 -2 171.3
    endloop
  endfacet
  facet normal 0 -1 -0
    outer loop
      vertex 0.2 -2 171.3
      vertex -3.2 -2 7.62939e-07
      vertex 0.2 -2 7.62939e-07
    endloop
  endfacet
  facet normal -1 0 0
    outer loop
      vertex 8.2 -3.2 7.62939e-07
      vertex 8.2 3.2 4
      vertex 8.2 3.2 7.62939e-07
    endloop
  endfacet
  facet normal -1 -0 0
    outer loop
      vertex 8.2 3.2 4
      vertex 8.2 -3.2 7.62939e-07
      vertex 8.2 -3.2 4
    endloop
  endfacet
  facet normal 0 0 -1
    outer loop
      vertex 1.8 -3.2 4
      vertex 8.2 3.2 4
      vertex 8.2 -3.2 4
    endloop
  endfacet
  facet normal -0 0 -1
    outer loop
      vertex 8.2 3.2 4
      vertex 1.8 -3.2 4
      vertex 1.8 3.2 4
    endloop
  endfacet
  facet normal 1 -0 0
    outer loop
      vertex 1.8 -3.2 4
      vertex 1.8 3.2 7.62939e-07
      vertex 1.8 3.2 4
    endloop
  endfacet
  facet normal 1 0 0
    outer loop
      vertex 1.8 3.2 7.62939e-07
      vertex 1.8 -3.2 4
      vertex 1.8 -3.2 7.62939e-07
    endloop
  endfacet
  facet normal 0 1 -0
    outer loop
      vertex 8.2 -3.2 7.62939e-07
      vertex 1.8 -3.2 4
      vertex 8.2 -3.2 4
    endloop
  endfacet
  facet normal 0 1 0
    outer loop
      vertex 1.8 -3.2 4
      vertex 8.2 -3.2 7.62939e-07
      vertex 1.8 -3.2 7.62939e-07
    endloop
  endfacet
  facet normal 0 -1 0
    outer loop
      vertex 1.8 3.2 7.62939e-07
      vertex 8.2 3.2 4
      vertex 1.8 3.2 4
    endloop
  endfacet
  facet normal 0 -1 -0
    outer loop
      vertex 8.2 3.2 4
      vertex 1.8 3.2 7.62939e-07
      vertex 8.2 3.2 7.62939e-07
    endloop
  endfacet
  facet normal 1 -0 0
    outer loop
      vertex 8 -3 173.7
      vertex 8 3 171.3
      vertex 8 3 173.7
    endloop
  endfacet
  facet normal 1 0 0
    outer loop
      vertex 8 3 171.3
      vertex 8 -3 173.7
      vertex 8 -3 171.3
    endloop
  endfacet
  facet normal -0 0 1
    outer loop
      vertex 2 3 173.7
      vertex 8 -3 173.7
      vertex 8 3 173.7
    endloop
  endfacet
  facet normal 0 0 1
    outer loop
      vertex 8 -3 173.7
      vertex 2 3 173.7
      vertex 2 -3 173.7
    endloop
  endfacet
  facet normal -1 0 0
    outer loop
      vertex 2 -3 171.3
      vertex 2 3 173.7
      vertex 2 3 171.3
    endloop
  endfacet
  facet normal -1 -0 0
    outer loop
      vertex 2 3 173.7
      vertex 2 -3 171.3
      vertex 2 -3 173.7
    endloop
  endfacet
  facet normal 0 -1 0
    outer loop
      vertex 2 -3 171.3
      vertex 8 -3 173.7
      vertex 2 -3 173.7
    endloop
  endfacet
  facet normal 0 -1 -0
    outer loop
      vertex 8 -3 173.7
      vertex 2 -3 171.3
      vertex 8 -3 171.3
    endloop
  endfacet
  facet normal 0 1 -0
    outer loop
      vertex 8 3 171.3
      vertex 2 3 173.7
      vertex 8 3 173.7
    endloop
  endfacet
  facet normal 0 1 0
    outer loop
      vertex 2 3 173.7
      vertex 8 3 171.3
      vertex 2 3 171.3
    endloop
  endfacet
endsolid OpenSCAD_Model
