solid OpenSCAD_Model
  facet normal 1 -0 0
    outer loop
      vertex 10 -10 171.3
      vertex 10 -0.2 7.62939e-07
      vertex 10 -0.2 171.3
    endloop
  endfacet
  facet normal 1 0 0
    outer loop
      vertex 10 -0.2 7.62939e-07
      vertex 10 -10 171.3
      vertex 10 -10 7.62939e-07
    endloop
  endfacet
  facet normal 1 -0 0
    outer loop
      vertex 10 3.2 171.3
      vertex 10 5 7.62939e-07
      vertex 10 5 171.3
    endloop
  endfacet
  facet normal 1 0 0
    outer loop
      vertex 10 5 7.62939e-07
      vertex 10 3.2 171.3
      vertex 10 3.2 7.62939e-07
    endloop
  endfacet
  facet normal 0 0 -1
    outer loop
      vertex -3.2 -10 7.62939e-07
      vertex -5 -10 7.62939e-07
      vertex -3.2 -3 7.62939e-07
    endloop
  endfacet
  facet normal 0 0 -1
    outer loop
      vertex 10 -10 7.62939e-07
      vertex 8.2 -8.2 7.62939e-07
      vertex 10 -0.2 7.62939e-07
    endloop
  endfacet
  facet normal 0 0 -1
    outer loop
      vertex 0.2 -10 7.62939e-07
      vertex 8.2 -8.2 7.62939e-07
      vertex 10 -10 7.62939e-07
    endloop
  endfacet
  facet normal 0 0 -1
    outer loop
      vertex 0.2 -3 7.62939e-07
      vertex 1.8 -8.2 7.62939e-07
      vertex 0.2 -10 7.62939e-07
    endloop
  endfacet
  facet normal -0 0 -1
    outer loop
      vertex 8.2 -8.2 7.62939e-07
      vertex 0.2 -10 7.62939e-07
      vertex 1.8 -8.2 7.62939e-07
    endloop
  endfacet
  facet normal 0 0 -1
    outer loop
      vertex 8.2 -1.8 7.62939e-07
      vertex 10 -0.2 7.62939e-07
      vertex 8.2 -8.2 7.62939e-07
    endloop
  endfacet
  facet normal 0 0 -1
    outer loop
      vertex 8.2 -1.8 7.62939e-07
      vertex 3 -0.2 7.62939e-07
      vertex 10 -0.2 7.62939e-07
    endloop
  endfacet
  facet normal -0 0 -1
    outer loop
      vertex 3 -0.2 7.62939e-07
      vertex 1.8 -1.8 7.62939e-07
      vertex 3 3.2 7.62939e-07
    endloop
  endfacet
  facet normal 0 0 -1
    outer loop
      vertex 1.8 -1.8 7.62939e-07
      vertex 3 -0.2 7.62939e-07
      vertex 8.2 -1.8 7.62939e-07
    endloop
  endfacet
  facet normal 0 0 -1
    outer loop
      vertex 3 3.2 7.62939e-07
      vertex 10 5 7.62939e-07
      vertex 10 3.2 7.62939e-07
    endloop
  endfacet
  facet normal 0 0 -1
    outer loop
      vertex 1.8 -8.2 7.62939e-07
      vertex 0.2 -3 7.62939e-07
      vertex 1.8 -1.8 7.62939e-07
    endloop
  endfacet
  facet normal 0 0 -1
    outer loop
      vertex -3.2 -3 7.62939e-07
      vertex 1.8 -1.8 7.62939e-07
      vertex 0.2 -3 7.62939e-07
    endloop
  endfacet
  facet normal 0 0 -1
    outer loop
      vertex -5 5 7.62939e-07
      vertex 1.8 -1.8 7.62939e-07
      vertex -3.2 -3 7.62939e-07
    endloop
  endfacet
  facet normal 0 0 -1
    outer loop
      vertex 3 3.2 7.62939e-07
      vertex -5 5 7.62939e-07
      vertex 10 5 7.62939e-07
    endloop
  endfacet
  facet normal 0 0 -1
    outer loop
      vertex 1.8 -1.8 7.62939e-07
      vertex -5 5 7.62939e-07
      vertex 3 3.2 7.62939e-07
    endloop
  endfacet
  facet normal 0 0 -1
    outer loop
      vertex -5 5 7.62939e-07
      vertex -3.2 -3 7.62939e-07
      vertex -5 -10 7.62939e-07
    endloop
  endfacet
  facet normal 0 0 1
    outer loop
      vertex 10 5 171.3
      vertex 3 3.2 171.3
      vertex 10 3.2 171.3
    endloop
  endfacet
  facet normal 0 0 1
    outer loop
      vertex 0.2 -3 171.3
      vertex 3 -0.2 171.3
      vertex 3 3.2 171.3
    endloop
  endfacet
  facet normal 0 0 1
    outer loop
      vertex 2 -2 171.3
      vertex 0.2 -3 171.3
      vertex 2 -8 171.3
    endloop
  endfacet
  facet normal 0 0 1
    outer loop
      vertex 3 -0.2 171.3
      vertex 0.2 -3 171.3
      vertex 2 -2 171.3
    endloop
  endfacet
  facet normal 0 0 1
    outer loop
      vertex 3 3.2 171.3
      vertex -3.2 -3 171.3
      vertex 0.2 -3 171.3
    endloop
  endfacet
  facet normal -0 0 1
    outer loop
      vertex -5 5 171.3
      vertex 3 3.2 171.3
      vertex 10 5 171.3
    endloop
  endfacet
  facet normal 0 0 1
    outer loop
      vertex -5 5 171.3
      vertex -3.2 -3 171.3
      vertex 3 3.2 171.3
    endloop
  endfacet
  facet normal 0 0 1
    outer loop
      vertex -5 -10 171.3
      vertex -3.2 -3 171.3
      vertex -5 5 171.3
    endloop
  endfacet
  facet normal 0 0 1
    outer loop
      vertex -3.2 -3 171.3
      vertex -5 -10 171.3
      vertex -3.2 -10 171.3
    endloop
  endfacet
  facet normal 0 0 1
    outer loop
      vertex 8 -8 171.3
      vertex 10 -0.2 171.3
      vertex 8 -2 171.3
    endloop
  endfacet
  facet normal -0 0 1
    outer loop
      vertex 3 -0.2 171.3
      vertex 8 -2 171.3
      vertex 10 -0.2 171.3
    endloop
  endfacet
  facet normal 0 0 1
    outer loop
      vertex 8 -2 171.3
      vertex 3 -0.2 171.3
      vertex 2 -2 171.3
    endloop
  endfacet
  facet normal 0 0 1
    outer loop
      vertex 10 -0.2 171.3
      vertex 8 -8 171.3
      vertex 10 -10 171.3
    endloop
  endfacet
  facet normal 0 0 1
    outer loop
      vertex 0.2 -10 171.3
      vertex 8 -8 171.3
      vertex 2 -8 171.3
    endloop
  endfacet
  facet normal 0 0 1
    outer loop
      vertex 8 -8 171.3
      vertex 0.2 -10 171.3
      vertex 10 -10 171.3
    endloop
  endfacet
  facet normal 0 0 1
    outer loop
      vertex 0.2 -10 171.3
      vertex 2 -8 171.3
      vertex 0.2 -3 171.3
    endloop
  endfacet
  facet normal -1 0 0
    outer loop
      vertex -5 -10 7.62939e-07
      vertex -5 5 171.3
      vertex -5 5 7.62939e-07
    endloop
  endfacet
  facet normal -1 -0 0
    outer loop
      vertex -5 5 171.3
      vertex -5 -10 7.62939e-07
      vertex -5 -10 171.3
    endloop
  endfacet
  facet normal 0 -1 0
    outer loop
      vertex -5 -10 7.62939e-07
      vertex -3.2 -10 171.3
      vertex -5 -10 171.3
    endloop
  endfacet
  facet normal 0 -1 -0
    outer loop
      vertex -3.2 -10 171.3
      vertex -5 -10 7.62939e-07
      vertex -3.2 -10 7.62939e-07
    endloop
  endfacet
  facet normal 0 -1 0
    outer loop
      vertex 0.2 -10 7.62939e-07
      vertex 10 -10 171.3
      vertex 0.2 -10 171.3
    endloop
  endfacet
  facet normal 0 -1 -0
    outer loop
      vertex 10 -10 171.3
      vertex 0.2 -10 7.62939e-07
      vertex 10 -10 7.62939e-07
    endloop
  endfacet
  facet normal 0 1 -0
    outer loop
      vertex 10 5 7.62939e-07
      vertex -5 5 171.3
      vertex 10 5 171.3
    endloop
  endfacet
  facet normal 0 1 0
    outer loop
      vertex -5 5 171.3
      vertex 10 5 7.62939e-07
      vertex -5 5 7.62939e-07
    endloop
  endfacet
  facet normal -1 0 0
    outer loop
      vertex 0.2 -10 7.62939e-07
      vertex 0.2 -3 171.3
      vertex 0.2 -3 7.62939e-07
    endloop
  endfacet
  facet normal -1 -0 0
    outer loop
      vertex 0.2 -3 171.3
      vertex 0.2 -10 7.62939e-07
      vertex 0.2 -10 171.3
    endloop
  endfacet
  facet normal 1 -0 0
    outer loop
      vertex -3.2 -10 171.3
      vertex -3.2 -3 7.62939e-07
      vertex -3.2 -3 171.3
    endloop
  endfacet
  facet normal 1 0 0
    outer loop
      vertex -3.2 -3 7.62939e-07
      vertex -3.2 -10 171.3
      vertex -3.2 -10 7.62939e-07
    endloop
  endfacet
  facet normal 0 -1 0
    outer loop
      vertex -3.2 -3 7.62939e-07
      vertex 0.2 -3 171.3
      vertex -3.2 -3 171.3
    endloop
  endfacet
  facet normal 0 -1 -0
    outer loop
      vertex 0.2 -3 171.3
      vertex -3.2 -3 7.62939e-07
      vertex 0.2 -3 7.62939e-07
    endloop
  endfacet
  facet normal 1 -0 0
    outer loop
      vertex 3 -0.2 171.3
      vertex 3 3.2 7.62939e-07
      vertex 3 3.2 171.3
    endloop
  endfacet
  facet normal 1 0 0
    outer loop
      vertex 3 3.2 7.62939e-07
      vertex 3 -0.2 171.3
      vertex 3 -0.2 7.62939e-07
    endloop
  endfacet
  facet normal 0 1 -0
    outer loop
      vertex 10 -0.2 7.62939e-07
      vertex 3 -0.2 171.3
      vertex 10 -0.2 171.3
    endloop
  endfacet
  facet normal 0 1 0
    outer loop
      vertex 3 -0.2 171.3
      vertex 10 -0.2 7.62939e-07
      vertex 3 -0.2 7.62939e-07
    endloop
  endfacet
  facet normal 0 -1 0
    outer loop
      vertex 3 3.2 7.62939e-07
      vertex 10 3.2 171.3
      vertex 3 3.2 171.3
    endloop
  endfacet
  facet normal 0 -1 -0
    outer loop
      vertex 10 3.2 171.3
      vertex 3 3.2 7.62939e-07
      vertex 10 3.2 7.62939e-07
    endloop
  endfacet
  facet normal -1 0 0
    outer loop
      vertex 8.2 -8.2 7.62939e-07
      vertex 8.2 -1.8 4
      vertex 8.2 -1.8 7.62939e-07
    endloop
  endfacet
  facet normal -1 -0 0
    outer loop
      vertex 8.2 -1.8 4
      vertex 8.2 -8.2 7.62939e-07
      vertex 8.2 -8.2 4
    endloop
  endfacet
  facet normal 0 0 -1
    outer loop
      vertex 1.8 -8.2 4
      vertex 8.2 -1.8 4
      vertex 8.2 -8.2 4
    endloop
  endfacet
  facet normal -0 0 -1
    outer loop
      vertex 8.2 -1.8 4
      vertex 1.8 -8.2 4
      vertex 1.8 -1.8 4
    endloop
  endfacet
  facet normal 1 -0 0
    outer loop
      vertex 1.8 -8.2 4
      vertex 1.8 -1.8 7.62939e-07
      vertex 1.8 -1.8 4
    endloop
  endfacet
  facet normal 1 0 0
    outer loop
      vertex 1.8 -1.8 7.62939e-07
      vertex 1.8 -8.2 4
      vertex 1.8 -8.2 7.62939e-07
    endloop
  endfacet
  facet normal 0 1 -0
    outer loop
      vertex 8.2 -8.2 7.62939e-07
      vertex 1.8 -8.2 4
      vertex 8.2 -8.2 4
    endloop
  endfacet
  facet normal 0 1 0
    outer loop
      vertex 1.8 -8.2 4
      vertex 8.2 -8.2 7.62939e-07
      vertex 1.8 -8.2 7.62939e-07
    endloop
  endfacet
  facet normal 0 -1 0
    outer loop
      vertex 1.8 -1.8 7.62939e-07
      vertex 8.2 -1.8 4
      vertex 1.8 -1.8 4
    endloop
  endfacet
  facet normal 0 -1 -0
    outer loop
      vertex 8.2 -1.8 4
      vertex 1.8 -1.8 7.62939e-07
      vertex 8.2 -1.8 7.62939e-07
    endloop
  endfacet
  facet normal 1 -0 0
    outer loop
      vertex 8 -8 173.7
      vertex 8 -2 171.3
      vertex 8 -2 173.7
    endloop
  endfacet
  facet normal 1 0 0
    outer loop
      vertex 8 -2 171.3
      vertex 8 -8 173.7
      vertex 8 -8 171.3
    endloop
  endfacet
  facet normal -0 0 1
    outer loop
      vertex 2 -2 173.7
      vertex 8 -8 173.7
      vertex 8 -2 173.7
    endloop
  endfacet
  facet normal 0 0 1
    outer loop
      vertex 8 -8 173.7
      vertex 2 -2 173.7
      vertex 2 -8 173.7
    endloop
  endfacet
  facet normal -1 0 0
    outer loop
      vertex 2 -8 171.3
      vertex 2 -2 173.7
      vertex 2 -2 171.3
    endloop
  endfacet
  facet normal -1 -0 0
    outer loop
      vertex 2 -2 173.7
      vertex 2 -8 171.3
      vertex 2 -8 173.7
    endloop
  endfacet
  facet normal 0 -1 0
    outer loop
      vertex 2 -8 171.3
      vertex 8 -8 173.7
      vertex 2 -8 173.7
    endloop
  endfacet
  facet normal 0 -1 -0
    outer loop
      vertex 8 -8 173.7
      vertex 2 -8 171.3
      vertex 8 -8 171.3
    endloop
  endfacet
  facet normal 0 1 -0
    outer loop
      vertex 8 -2 171.3
      vertex 2 -2 173.7
      vertex 8 -2 173.7
    endloop
  endfacet
  facet normal 0 1 0
    outer loop
      vertex 2 -2 173.7
      vertex 8 -2 171.3
      vertex 2 -2 171.3
    endloop
  endfacet
endsolid OpenSCAD_Model
