solid OpenSCAD_Model
  facet normal -0.972364 0.233468 -3.12613e-19
    outer loop
      vertex 11.9021 9.3820 0.0000
      vertex 11.9754 9.6871 5.6000
      vertex 11.9754 9.6871 0.0000
    endloop
  endfacet
  facet normal -0.972364 0.233468 -3.12613e-19
    outer loop
      vertex 11.9754 9.6871 5.6000
      vertex 11.9021 9.3820 0.0000
      vertex 11.9021 9.3820 5.6000
    endloop
  endfacet
  facet normal -0.972364 -0.233468 3.12613e-19
    outer loop
      vertex 11.9754 10.3129 0.0000
      vertex 11.9021 10.6180 5.6000
      vertex 11.9021 10.6180 0.0000
    endloop
  endfacet
  facet normal -0.972364 -0.233468 3.12613e-19
    outer loop
      vertex 11.9021 10.6180 5.6000
      vertex 11.9754 10.3129 0.0000
      vertex 11.9754 10.3129 5.6000
    endloop
  endfacet
  facet normal -0.996918 -0.0784483 -1.16233e-19
    outer loop
      vertex 12.0000 10.0000 0.0000
      vertex 11.9754 10.3129 5.6000
      vertex 11.9754 10.3129 0.0000
    endloop
  endfacet
  facet normal -0.996918 -0.0784483 -1.16233e-19
    outer loop
      vertex 11.9754 10.3129 5.6000
      vertex 12.0000 10.0000 0.0000
      vertex 12.0000 10.0000 5.6000
    endloop
  endfacet
  facet normal -0.923881 -0.38268 -4.41497e-19
    outer loop
      vertex 11.9021 10.6180 0.0000
      vertex 11.7820 10.9080 5.6000
      vertex 11.7820 10.9080 0.0000
    endloop
  endfacet
  facet normal -0.923881 -0.38268 -4.41497e-19
    outer loop
      vertex 11.7820 10.9080 5.6000
      vertex 11.9021 10.6180 0.0000
      vertex 11.9021 10.6180 5.6000
    endloop
  endfacet
  facet normal 0.923881 0.38268 7.01447e-21
    outer loop
      vertex 8.2180 9.0920 5.6000
      vertex 8.0979 9.3820 0.0000
      vertex 8.0979 9.3820 5.6000
    endloop
  endfacet
  facet normal 0.923881 0.38268 7.01447e-21
    outer loop
      vertex 8.0979 9.3820 0.0000
      vertex 8.2180 9.0920 5.6000
      vertex 8.2180 9.0920 0.0000
    endloop
  endfacet
  facet normal 0.649452 0.760403 -0
    outer loop
      vertex 8.8244 8.3820 0.0000
      vertex 8.5858 8.5858 5.6000
      vertex 8.8244 8.3820 5.6000
    endloop
  endfacet
  facet normal 0.649452 0.760403 0
    outer loop
      vertex 8.5858 8.5858 5.6000
      vertex 8.8244 8.3820 0.0000
      vertex 8.5858 8.5858 0.0000
    endloop
  endfacet
  facet normal 0.233468 -0.972364 0
    outer loop
      vertex 9.3820 11.9021 0.0000
      vertex 9.6871 11.9754 5.6000
      vertex 9.3820 11.9021 5.6000
    endloop
  endfacet
  facet normal 0.233468 -0.972364 0
    outer loop
      vertex 9.6871 11.9754 5.6000
      vertex 9.3820 11.9021 0.0000
      vertex 9.6871 11.9754 0.0000
    endloop
  endfacet
  facet normal -0.0784483 0.996918 0
    outer loop
      vertex 10.3129 8.0246 0.0000
      vertex 10.0000 8.0000 5.6000
      vertex 10.3129 8.0246 5.6000
    endloop
  endfacet
  facet normal -0.0784483 0.996918 0
    outer loop
      vertex 10.0000 8.0000 5.6000
      vertex 10.3129 8.0246 0.0000
      vertex 10.0000 8.0000 0.0000
    endloop
  endfacet
  facet normal 0.760403 -0.649452 -1.18004e-18
    outer loop
      vertex 8.3820 11.1756 5.6000
      vertex 8.5858 11.4142 0.0000
      vertex 8.5858 11.4142 5.6000
    endloop
  endfacet
  facet normal 0.760403 -0.649452 -1.18004e-18
    outer loop
      vertex 8.5858 11.4142 0.0000
      vertex 8.3820 11.1756 5.6000
      vertex 8.3820 11.1756 0.0000
    endloop
  endfacet
  facet normal -0.852639 -0.5225 2.40109e-19
    outer loop
      vertex 11.7820 10.9080 0.0000
      vertex 11.6180 11.1756 5.6000
      vertex 11.6180 11.1756 0.0000
    endloop
  endfacet
  facet normal -0.852639 -0.5225 2.40109e-19
    outer loop
      vertex 11.6180 11.1756 5.6000
      vertex 11.7820 10.9080 0.0000
      vertex 11.7820 10.9080 5.6000
    endloop
  endfacet
  facet normal -0.923881 0.38268 4.41497e-19
    outer loop
      vertex 11.7820 9.0920 0.0000
      vertex 11.9021 9.3820 5.6000
      vertex 11.9021 9.3820 0.0000
    endloop
  endfacet
  facet normal -0.923881 0.38268 4.41497e-19
    outer loop
      vertex 11.9021 9.3820 5.6000
      vertex 11.7820 9.0920 0.0000
      vertex 11.7820 9.0920 5.6000
    endloop
  endfacet
  facet normal -0.760403 -0.649452 1.02336e-19
    outer loop
      vertex 11.6180 11.1756 0.0000
      vertex 11.4142 11.4142 5.6000
      vertex 11.4142 11.4142 0.0000
    endloop
  endfacet
  facet normal -0.760403 -0.649452 1.02336e-19
    outer loop
      vertex 11.4142 11.4142 5.6000
      vertex 11.6180 11.1756 0.0000
      vertex 11.6180 11.1756 5.6000
    endloop
  endfacet
  facet normal -0.233468 -0.972364 0
    outer loop
      vertex 10.3129 11.9754 0.0000
      vertex 10.6180 11.9021 5.6000
      vertex 10.3129 11.9754 5.6000
    endloop
  endfacet
  facet normal -0.233468 -0.972364 -0
    outer loop
      vertex 10.6180 11.9021 5.6000
      vertex 10.3129 11.9754 0.0000
      vertex 10.6180 11.9021 0.0000
    endloop
  endfacet
  facet normal -0.852639 0.5225 1.71314e-18
    outer loop
      vertex 11.6180 8.8244 0.0000
      vertex 11.7820 9.0920 5.6000
      vertex 11.7820 9.0920 0.0000
    endloop
  endfacet
  facet normal -0.852639 0.5225 1.71314e-18
    outer loop
      vertex 11.7820 9.0920 5.6000
      vertex 11.6180 8.8244 0.0000
      vertex 11.6180 8.8244 5.6000
    endloop
  endfacet
  facet normal -0.38268 0.923881 0
    outer loop
      vertex 10.9080 8.2180 0.0000
      vertex 10.6180 8.0979 5.6000
      vertex 10.9080 8.2180 5.6000
    endloop
  endfacet
  facet normal -0.38268 0.923881 0
    outer loop
      vertex 10.6180 8.0979 5.6000
      vertex 10.9080 8.2180 0.0000
      vertex 10.6180 8.0979 0.0000
    endloop
  endfacet
  facet normal 0.972364 0.233468 3.12613e-19
    outer loop
      vertex 8.0979 9.3820 5.6000
      vertex 8.0246 9.6871 0.0000
      vertex 8.0246 9.6871 5.6000
    endloop
  endfacet
  facet normal 0.972364 0.233468 3.12613e-19
    outer loop
      vertex 8.0246 9.6871 0.0000
      vertex 8.0979 9.3820 5.6000
      vertex 8.0979 9.3820 0.0000
    endloop
  endfacet
  facet normal 0.0784483 -0.996918 0
    outer loop
      vertex 9.6871 11.9754 0.0000
      vertex 10.0000 12.0000 5.6000
      vertex 9.6871 11.9754 5.6000
    endloop
  endfacet
  facet normal 0.0784483 -0.996918 0
    outer loop
      vertex 10.0000 12.0000 5.6000
      vertex 9.6871 11.9754 0.0000
      vertex 10.0000 12.0000 0.0000
    endloop
  endfacet
  facet normal 0.0784483 0.996918 -0
    outer loop
      vertex 10.0000 8.0000 0.0000
      vertex 9.6871 8.0246 5.6000
      vertex 10.0000 8.0000 5.6000
    endloop
  endfacet
  facet normal 0.0784483 0.996918 0
    outer loop
      vertex 9.6871 8.0246 5.6000
      vertex 10.0000 8.0000 0.0000
      vertex 9.6871 8.0246 0.0000
    endloop
  endfacet
  facet normal 0.972364 -0.233468 -3.12613e-19
    outer loop
      vertex 8.0246 10.3129 5.6000
      vertex 8.0979 10.6180 0.0000
      vertex 8.0979 10.6180 5.6000
    endloop
  endfacet
  facet normal 0.972364 -0.233468 -3.12613e-19
    outer loop
      vertex 8.0979 10.6180 0.0000
      vertex 8.0246 10.3129 5.6000
      vertex 8.0246 10.3129 0.0000
    endloop
  endfacet
  facet normal 0.649452 -0.760403 0
    outer loop
      vertex 8.5858 11.4142 0.0000
      vertex 8.8244 11.6180 5.6000
      vertex 8.5858 11.4142 5.6000
    endloop
  endfacet
  facet normal 0.649452 -0.760403 0
    outer loop
      vertex 8.8244 11.6180 5.6000
      vertex 8.5858 11.4142 0.0000
      vertex 8.8244 11.6180 0.0000
    endloop
  endfacet
  facet normal -0.5225 -0.852639 0
    outer loop
      vertex 10.9080 11.7820 0.0000
      vertex 11.1756 11.6180 5.6000
      vertex 10.9080 11.7820 5.6000
    endloop
  endfacet
  facet normal -0.5225 -0.852639 -0
    outer loop
      vertex 11.1756 11.6180 5.6000
      vertex 10.9080 11.7820 0.0000
      vertex 11.1756 11.6180 0.0000
    endloop
  endfacet
  facet normal 0.5225 0.852639 -0
    outer loop
      vertex 9.0920 8.2180 0.0000
      vertex 8.8244 8.3820 5.6000
      vertex 9.0920 8.2180 5.6000
    endloop
  endfacet
  facet normal 0.5225 0.852639 0
    outer loop
      vertex 8.8244 8.3820 5.6000
      vertex 9.0920 8.2180 0.0000
      vertex 8.8244 8.3820 0.0000
    endloop
  endfacet
  facet normal -0.760403 0.649452 -1.02336e-19
    outer loop
      vertex 11.4142 8.5858 0.0000
      vertex 11.6180 8.8244 5.6000
      vertex 11.6180 8.8244 0.0000
    endloop
  endfacet
  facet normal -0.760403 0.649452 -1.02336e-19
    outer loop
      vertex 11.6180 8.8244 5.6000
      vertex 11.4142 8.5858 0.0000
      vertex 11.4142 8.5858 5.6000
    endloop
  endfacet
  facet normal -0.5225 0.852639 0
    outer loop
      vertex 11.1756 8.3820 0.0000
      vertex 10.9080 8.2180 5.6000
      vertex 11.1756 8.3820 5.6000
    endloop
  endfacet
  facet normal -0.5225 0.852639 0
    outer loop
      vertex 10.9080 8.2180 5.6000
      vertex 11.1756 8.3820 0.0000
      vertex 10.9080 8.2180 0.0000
    endloop
  endfacet
  facet normal -0.996918 0.0784483 1.16233e-19
    outer loop
      vertex 11.9754 9.6871 0.0000
      vertex 12.0000 10.0000 5.6000
      vertex 12.0000 10.0000 0.0000
    endloop
  endfacet
  facet normal -0.996918 0.0784483 1.16233e-19
    outer loop
      vertex 12.0000 10.0000 5.6000
      vertex 11.9754 9.6871 0.0000
      vertex 11.9754 9.6871 5.6000
    endloop
  endfacet
  facet normal 0.5225 -0.852639 0
    outer loop
      vertex 8.8244 11.6180 0.0000
      vertex 9.0920 11.7820 5.6000
      vertex 8.8244 11.6180 5.6000
    endloop
  endfacet
  facet normal 0.5225 -0.852639 0
    outer loop
      vertex 9.0920 11.7820 5.6000
      vertex 8.8244 11.6180 0.0000
      vertex 9.0920 11.7820 0.0000
    endloop
  endfacet
  facet normal -0.649452 -0.760403 0
    outer loop
      vertex 11.1756 11.6180 0.0000
      vertex 11.4142 11.4142 5.6000
      vertex 11.1756 11.6180 5.6000
    endloop
  endfacet
  facet normal -0.649452 -0.760403 -0
    outer loop
      vertex 11.4142 11.4142 5.6000
      vertex 11.1756 11.6180 0.0000
      vertex 11.4142 11.4142 0.0000
    endloop
  endfacet
  facet normal -0.38268 -0.923881 0
    outer loop
      vertex 10.6180 11.9021 0.0000
      vertex 10.9080 11.7820 5.6000
      vertex 10.6180 11.9021 5.6000
    endloop
  endfacet
  facet normal -0.38268 -0.923881 -0
    outer loop
      vertex 10.9080 11.7820 5.6000
      vertex 10.6180 11.9021 0.0000
      vertex 10.9080 11.7820 0.0000
    endloop
  endfacet
  facet normal 0.923881 -0.38268 -7.01447e-21
    outer loop
      vertex 8.0979 10.6180 5.6000
      vertex 8.2180 10.9080 0.0000
      vertex 8.2180 10.9080 5.6000
    endloop
  endfacet
  facet normal 0.923881 -0.38268 -7.01447e-21
    outer loop
      vertex 8.2180 10.9080 0.0000
      vertex 8.0979 10.6180 5.6000
      vertex 8.0979 10.6180 0.0000
    endloop
  endfacet
  facet normal -0.233468 0.972364 0
    outer loop
      vertex 10.6180 8.0979 0.0000
      vertex 10.3129 8.0246 5.6000
      vertex 10.6180 8.0979 5.6000
    endloop
  endfacet
  facet normal -0.233468 0.972364 0
    outer loop
      vertex 10.3129 8.0246 5.6000
      vertex 10.6180 8.0979 0.0000
      vertex 10.3129 8.0246 0.0000
    endloop
  endfacet
  facet normal -0.0784483 -0.996918 0
    outer loop
      vertex 10.0000 12.0000 0.0000
      vertex 10.3129 11.9754 5.6000
      vertex 10.0000 12.0000 5.6000
    endloop
  endfacet
  facet normal -0.0784483 -0.996918 -0
    outer loop
      vertex 10.3129 11.9754 5.6000
      vertex 10.0000 12.0000 0.0000
      vertex 10.3129 11.9754 0.0000
    endloop
  endfacet
  facet normal 0.38268 -0.923881 0
    outer loop
      vertex 9.0920 11.7820 0.0000
      vertex 9.3820 11.9021 5.6000
      vertex 9.0920 11.7820 5.6000
    endloop
  endfacet
  facet normal 0.38268 -0.923881 0
    outer loop
      vertex 9.3820 11.9021 5.6000
      vertex 9.0920 11.7820 0.0000
      vertex 9.3820 11.9021 0.0000
    endloop
  endfacet
  facet normal 0.233468 0.972364 -0
    outer loop
      vertex 9.6871 8.0246 0.0000
      vertex 9.3820 8.0979 5.6000
      vertex 9.6871 8.0246 5.6000
    endloop
  endfacet
  facet normal 0.233468 0.972364 0
    outer loop
      vertex 9.3820 8.0979 5.6000
      vertex 9.6871 8.0246 0.0000
      vertex 9.3820 8.0979 0.0000
    endloop
  endfacet
  facet normal 0.852639 0.5225 1.73852e-18
    outer loop
      vertex 8.3820 8.8244 5.6000
      vertex 8.2180 9.0920 0.0000
      vertex 8.2180 9.0920 5.6000
    endloop
  endfacet
  facet normal 0.852639 0.5225 1.73852e-18
    outer loop
      vertex 8.2180 9.0920 0.0000
      vertex 8.3820 8.8244 5.6000
      vertex 8.3820 8.8244 0.0000
    endloop
  endfacet
  facet normal 0.760403 0.649452 1.18004e-18
    outer loop
      vertex 8.5858 8.5858 5.6000
      vertex 8.3820 8.8244 0.0000
      vertex 8.3820 8.8244 5.6000
    endloop
  endfacet
  facet normal 0.760403 0.649452 1.18004e-18
    outer loop
      vertex 8.3820 8.8244 0.0000
      vertex 8.5858 8.5858 5.6000
      vertex 8.5858 8.5858 0.0000
    endloop
  endfacet
  facet normal 0.996918 0.0784483 -2.09726e-19
    outer loop
      vertex 8.0246 9.6871 5.6000
      vertex 8.0000 10.0000 0.0000
      vertex 8.0000 10.0000 5.6000
    endloop
  endfacet
  facet normal 0.996918 0.0784483 -2.09726e-19
    outer loop
      vertex 8.0000 10.0000 0.0000
      vertex 8.0246 9.6871 5.6000
      vertex 8.0246 9.6871 0.0000
    endloop
  endfacet
  facet normal 0 0 -1
    outer loop
      vertex 11.6000 10.0000 5.6000
      vertex 12.0000 10.0000 5.6000
      vertex 11.9754 9.6871 5.6000
    endloop
  endfacet
  facet normal 0 0 -1
    outer loop
      vertex 11.5650 9.6673 5.6000
      vertex 11.9754 9.6871 5.6000
      vertex 11.9021 9.3820 5.6000
    endloop
  endfacet
  facet normal 0 0 -1
    outer loop
      vertex 12.0000 10.0000 5.6000
      vertex 11.6000 10.0000 5.6000
      vertex 11.9754 10.3129 5.6000
    endloop
  endfacet
  facet normal 0 0 -1
    outer loop
      vertex 11.4617 9.3492 5.6000
      vertex 11.9021 9.3820 5.6000
      vertex 11.7820 9.0920 5.6000
    endloop
  endfacet
  facet normal 0 0 -1
    outer loop
      vertex 11.5650 10.3327 5.6000
      vertex 11.9754 10.3129 5.6000
      vertex 11.6000 10.0000 5.6000
    endloop
  endfacet
  facet normal 0 0 -1
    outer loop
      vertex 11.2944 9.0595 5.6000
      vertex 11.7820 9.0920 5.6000
      vertex 11.6180 8.8244 5.6000
    endloop
  endfacet
  facet normal 0 0 -1
    outer loop
      vertex 11.9754 10.3129 5.6000
      vertex 11.5650 10.3327 5.6000
      vertex 11.9021 10.6180 5.6000
    endloop
  endfacet
  facet normal 0 0 -1
    outer loop
      vertex 11.4617 10.6508 5.6000
      vertex 11.9021 10.6180 5.6000
      vertex 11.5650 10.3327 5.6000
    endloop
  endfacet
  facet normal -0 0 -1
    outer loop
      vertex 11.9754 9.6871 5.6000
      vertex 11.5650 9.6673 5.6000
      vertex 11.6000 10.0000 5.6000
    endloop
  endfacet
  facet normal -0 0 -1
    outer loop
      vertex 11.9021 9.3820 5.6000
      vertex 11.4617 9.3492 5.6000
      vertex 11.5650 9.6673 5.6000
    endloop
  endfacet
  facet normal 0 0 -1
    outer loop
      vertex 11.2944 9.0595 5.6000
      vertex 11.6180 8.8244 5.6000
      vertex 11.4142 8.5858 5.6000
    endloop
  endfacet
  facet normal -0 0 -1
    outer loop
      vertex 11.7820 9.0920 5.6000
      vertex 11.2944 9.0595 5.6000
      vertex 11.4617 9.3492 5.6000
    endloop
  endfacet
  facet normal 0 0 -1
    outer loop
      vertex 11.0706 8.8110 5.6000
      vertex 11.4142 8.5858 5.6000
      vertex 11.1756 8.3820 5.6000
    endloop
  endfacet
  facet normal 0 0 -1
    outer loop
      vertex 11.4142 8.5858 5.6000
      vertex 11.0706 8.8110 5.6000
      vertex 11.2944 9.0595 5.6000
    endloop
  endfacet
  facet normal 0 0 -1
    outer loop
      vertex 10.8000 8.6144 5.6000
      vertex 11.1756 8.3820 5.6000
      vertex 10.9080 8.2180 5.6000
    endloop
  endfacet
  facet normal 0 0 -1
    outer loop
      vertex 11.1756 8.3820 5.6000
      vertex 10.8000 8.6144 5.6000
      vertex 11.0706 8.8110 5.6000
    endloop
  endfacet
  facet normal 0 0 -1
    outer loop
      vertex 10.4944 8.4783 5.6000
      vertex 10.9080 8.2180 5.6000
      vertex 10.6180 8.0979 5.6000
    endloop
  endfacet
  facet normal 0 0 -1
    outer loop
      vertex 10.9080 8.2180 5.6000
      vertex 10.4944 8.4783 5.6000
      vertex 10.8000 8.6144 5.6000
    endloop
  endfacet
  facet normal 0 0 -1
    outer loop
      vertex 10.3129 8.0246 5.6000
      vertex 10.4944 8.4783 5.6000
      vertex 10.6180 8.0979 5.6000
    endloop
  endfacet
  facet normal 0 0 -1
    outer loop
      vertex 10.3129 8.0246 5.6000
      vertex 10.1672 8.4088 5.6000
      vertex 10.4944 8.4783 5.6000
    endloop
  endfacet
  facet normal 0 0 -1
    outer loop
      vertex 10.0000 8.0000 5.6000
      vertex 10.1672 8.4088 5.6000
      vertex 10.3129 8.0246 5.6000
    endloop
  endfacet
  facet normal 0 0 -1
    outer loop
      vertex 10.0000 8.0000 5.6000
      vertex 9.8328 8.4088 5.6000
      vertex 10.1672 8.4088 5.6000
    endloop
  endfacet
  facet normal 0 0 -1
    outer loop
      vertex 9.6871 8.0246 5.6000
      vertex 9.8328 8.4088 5.6000
      vertex 10.0000 8.0000 5.6000
    endloop
  endfacet
  facet normal 0 0 -1
    outer loop
      vertex 9.6871 8.0246 5.6000
      vertex 9.5056 8.4783 5.6000
      vertex 9.8328 8.4088 5.6000
    endloop
  endfacet
  facet normal 0 0 -1
    outer loop
      vertex 9.3820 8.0979 5.6000
      vertex 9.5056 8.4783 5.6000
      vertex 9.6871 8.0246 5.6000
    endloop
  endfacet
  facet normal 0 0 -1
    outer loop
      vertex 9.0920 8.2180 5.6000
      vertex 9.5056 8.4783 5.6000
      vertex 9.3820 8.0979 5.6000
    endloop
  endfacet
  facet normal -0 0 -1
    outer loop
      vertex 9.5056 8.4783 5.6000
      vertex 9.0920 8.2180 5.6000
      vertex 9.2000 8.6144 5.6000
    endloop
  endfacet
  facet normal 0 0 -1
    outer loop
      vertex 8.8244 8.3820 5.6000
      vertex 9.2000 8.6144 5.6000
      vertex 9.0920 8.2180 5.6000
    endloop
  endfacet
  facet normal -0 0 -1
    outer loop
      vertex 9.2000 8.6144 5.6000
      vertex 8.8244 8.3820 5.6000
      vertex 8.9294 8.8110 5.6000
    endloop
  endfacet
  facet normal 0 0 -1
    outer loop
      vertex 8.5858 8.5858 5.6000
      vertex 8.9294 8.8110 5.6000
      vertex 8.8244 8.3820 5.6000
    endloop
  endfacet
  facet normal -0 0 -1
    outer loop
      vertex 8.9294 8.8110 5.6000
      vertex 8.5858 8.5858 5.6000
      vertex 8.7056 9.0595 5.6000
    endloop
  endfacet
  facet normal 0 0 -1
    outer loop
      vertex 8.3820 8.8244 5.6000
      vertex 8.7056 9.0595 5.6000
      vertex 8.5858 8.5858 5.6000
    endloop
  endfacet
  facet normal 0 0 -1
    outer loop
      vertex 8.2180 9.0920 5.6000
      vertex 8.7056 9.0595 5.6000
      vertex 8.3820 8.8244 5.6000
    endloop
  endfacet
  facet normal 0 0 -1
    outer loop
      vertex 8.0979 9.3820 5.6000
      vertex 8.5383 9.3492 5.6000
      vertex 8.2180 9.0920 5.6000
    endloop
  endfacet
  facet normal 0 0 -1
    outer loop
      vertex 8.7056 9.0595 5.6000
      vertex 8.2180 9.0920 5.6000
      vertex 8.5383 9.3492 5.6000
    endloop
  endfacet
  facet normal 0 0 -1
    outer loop
      vertex 11.9021 10.6180 5.6000
      vertex 11.4617 10.6508 5.6000
      vertex 11.7820 10.9080 5.6000
    endloop
  endfacet
  facet normal 0 0 -1
    outer loop
      vertex 11.2944 10.9405 5.6000
      vertex 11.7820 10.9080 5.6000
      vertex 11.4617 10.6508 5.6000
    endloop
  endfacet
  facet normal 0 0 -1
    outer loop
      vertex 11.7820 10.9080 5.6000
      vertex 11.2944 10.9405 5.6000
      vertex 11.6180 11.1756 5.6000
    endloop
  endfacet
  facet normal -0 0 -1
    outer loop
      vertex 11.6180 11.1756 5.6000
      vertex 11.2944 10.9405 5.6000
      vertex 11.4142 11.4142 5.6000
    endloop
  endfacet
  facet normal 0 0 -1
    outer loop
      vertex 11.0706 11.1890 5.6000
      vertex 11.4142 11.4142 5.6000
      vertex 11.2944 10.9405 5.6000
    endloop
  endfacet
  facet normal -0 0 -1
    outer loop
      vertex 11.4142 11.4142 5.6000
      vertex 11.0706 11.1890 5.6000
      vertex 11.1756 11.6180 5.6000
    endloop
  endfacet
  facet normal 0 0 -1
    outer loop
      vertex 10.8000 11.3856 5.6000
      vertex 11.1756 11.6180 5.6000
      vertex 11.0706 11.1890 5.6000
    endloop
  endfacet
  facet normal -0 0 -1
    outer loop
      vertex 11.1756 11.6180 5.6000
      vertex 10.8000 11.3856 5.6000
      vertex 10.9080 11.7820 5.6000
    endloop
  endfacet
  facet normal 0 0 -1
    outer loop
      vertex 10.4944 11.5217 5.6000
      vertex 10.9080 11.7820 5.6000
      vertex 10.8000 11.3856 5.6000
    endloop
  endfacet
  facet normal -0 0 -1
    outer loop
      vertex 10.9080 11.7820 5.6000
      vertex 10.4944 11.5217 5.6000
      vertex 10.6180 11.9021 5.6000
    endloop
  endfacet
  facet normal 0 0 -1
    outer loop
      vertex 10.4944 11.5217 5.6000
      vertex 10.3129 11.9754 5.6000
      vertex 10.6180 11.9021 5.6000
    endloop
  endfacet
  facet normal 0 0 -1
    outer loop
      vertex 10.1672 11.5912 5.6000
      vertex 10.3129 11.9754 5.6000
      vertex 10.4944 11.5217 5.6000
    endloop
  endfacet
  facet normal 0 0 -1
    outer loop
      vertex 10.1672 11.5912 5.6000
      vertex 10.0000 12.0000 5.6000
      vertex 10.3129 11.9754 5.6000
    endloop
  endfacet
  facet normal 0 0 -1
    outer loop
      vertex 9.8328 11.5912 5.6000
      vertex 10.0000 12.0000 5.6000
      vertex 10.1672 11.5912 5.6000
    endloop
  endfacet
  facet normal 0 0 -1
    outer loop
      vertex 9.8328 11.5912 5.6000
      vertex 9.6871 11.9754 5.6000
      vertex 10.0000 12.0000 5.6000
    endloop
  endfacet
  facet normal 0 0 -1
    outer loop
      vertex 9.5056 11.5217 5.6000
      vertex 9.6871 11.9754 5.6000
      vertex 9.8328 11.5912 5.6000
    endloop
  endfacet
  facet normal 0 0 -1
    outer loop
      vertex 9.5056 11.5217 5.6000
      vertex 9.3820 11.9021 5.6000
      vertex 9.6871 11.9754 5.6000
    endloop
  endfacet
  facet normal 0 0 -1
    outer loop
      vertex 9.0920 11.7820 5.6000
      vertex 9.5056 11.5217 5.6000
      vertex 9.2000 11.3856 5.6000
    endloop
  endfacet
  facet normal 0 0 -1
    outer loop
      vertex 9.5056 11.5217 5.6000
      vertex 9.0920 11.7820 5.6000
      vertex 9.3820 11.9021 5.6000
    endloop
  endfacet
  facet normal 0 0 -1
    outer loop
      vertex 8.8244 11.6180 5.6000
      vertex 9.2000 11.3856 5.6000
      vertex 8.9294 11.1890 5.6000
    endloop
  endfacet
  facet normal 0 0 -1
    outer loop
      vertex 9.2000 11.3856 5.6000
      vertex 8.8244 11.6180 5.6000
      vertex 9.0920 11.7820 5.6000
    endloop
  endfacet
  facet normal 0 0 -1
    outer loop
      vertex 8.5858 11.4142 5.6000
      vertex 8.9294 11.1890 5.6000
      vertex 8.7056 10.9405 5.6000
    endloop
  endfacet
  facet normal 0 0 -1
    outer loop
      vertex 8.9294 11.1890 5.6000
      vertex 8.5858 11.4142 5.6000
      vertex 8.8244 11.6180 5.6000
    endloop
  endfacet
  facet normal 0 0 -1
    outer loop
      vertex 8.2180 10.9080 5.6000
      vertex 8.7056 10.9405 5.6000
      vertex 8.5383 10.6508 5.6000
    endloop
  endfacet
  facet normal 0 0 -1
    outer loop
      vertex 8.0979 10.6180 5.6000
      vertex 8.5383 10.6508 5.6000
      vertex 8.4350 10.3327 5.6000
    endloop
  endfacet
  facet normal 0 0 -1
    outer loop
      vertex 8.7056 10.9405 5.6000
      vertex 8.3820 11.1756 5.6000
      vertex 8.5858 11.4142 5.6000
    endloop
  endfacet
  facet normal 0 0 -1
    outer loop
      vertex 8.0246 10.3129 5.6000
      vertex 8.4350 10.3327 5.6000
      vertex 8.4000 10.0000 5.6000
    endloop
  endfacet
  facet normal 0 0 -1
    outer loop
      vertex 8.5383 9.3492 5.6000
      vertex 8.0979 9.3820 5.6000
      vertex 8.4350 9.6673 5.6000
    endloop
  endfacet
  facet normal 0 0 -1
    outer loop
      vertex 8.0246 9.6871 5.6000
      vertex 8.4350 9.6673 5.6000
      vertex 8.0979 9.3820 5.6000
    endloop
  endfacet
  facet normal -0 0 -1
    outer loop
      vertex 8.7056 10.9405 5.6000
      vertex 8.2180 10.9080 5.6000
      vertex 8.3820 11.1756 5.6000
    endloop
  endfacet
  facet normal 0 0 -1
    outer loop
      vertex 8.4350 9.6673 5.6000
      vertex 8.0246 9.6871 5.6000
      vertex 8.4000 10.0000 5.6000
    endloop
  endfacet
  facet normal -0 0 -1
    outer loop
      vertex 8.5383 10.6508 5.6000
      vertex 8.0979 10.6180 5.6000
      vertex 8.2180 10.9080 5.6000
    endloop
  endfacet
  facet normal 0 0 -1
    outer loop
      vertex 8.0000 10.0000 5.6000
      vertex 8.4000 10.0000 5.6000
      vertex 8.0246 9.6871 5.6000
    endloop
  endfacet
  facet normal -0 0 -1
    outer loop
      vertex 8.4350 10.3327 5.6000
      vertex 8.0246 10.3129 5.6000
      vertex 8.0979 10.6180 5.6000
    endloop
  endfacet
  facet normal 0 0 -1
    outer loop
      vertex 8.4000 10.0000 5.6000
      vertex 8.0000 10.0000 5.6000
      vertex 8.0246 10.3129 5.6000
    endloop
  endfacet
  facet normal 0.996918 -0.0784483 2.09726e-19
    outer loop
      vertex 8.0000 10.0000 5.6000
      vertex 8.0246 10.3129 0.0000
      vertex 8.0246 10.3129 5.6000
    endloop
  endfacet
  facet normal 0.996918 -0.0784483 2.09726e-19
    outer loop
      vertex 8.0246 10.3129 0.0000
      vertex 8.0000 10.0000 5.6000
      vertex 8.0000 10.0000 0.0000
    endloop
  endfacet
  facet normal 0.38268 0.923881 -0
    outer loop
      vertex 9.3820 8.0979 0.0000
      vertex 9.0920 8.2180 5.6000
      vertex 9.3820 8.0979 5.6000
    endloop
  endfacet
  facet normal 0.38268 0.923881 0
    outer loop
      vertex 9.0920 8.2180 5.6000
      vertex 9.3820 8.0979 0.0000
      vertex 9.0920 8.2180 0.0000
    endloop
  endfacet
  facet normal 0.852639 -0.5225 2.56415e-19
    outer loop
      vertex 8.2180 10.9080 5.6000
      vertex 8.3820 11.1756 0.0000
      vertex 8.3820 11.1756 5.6000
    endloop
  endfacet
  facet normal 0.852639 -0.5225 2.56415e-19
    outer loop
      vertex 8.3820 11.1756 0.0000
      vertex 8.2180 10.9080 5.6000
      vertex 8.2180 10.9080 0.0000
    endloop
  endfacet
  facet normal -0.649452 0.760403 0
    outer loop
      vertex 11.4142 8.5858 0.0000
      vertex 11.1756 8.3820 5.6000
      vertex 11.4142 8.5858 5.6000
    endloop
  endfacet
  facet normal -0.649452 0.760403 0
    outer loop
      vertex 11.1756 8.3820 5.6000
      vertex 11.4142 8.5858 0.0000
      vertex 11.1756 8.3820 0.0000
    endloop
  endfacet
  facet normal 0.994523 -0.104517 3.85401e-19
    outer loop
      vertex 8.4000 10.0000 10.6000
      vertex 8.4350 10.3327 5.6000
      vertex 8.4350 10.3327 10.6000
    endloop
  endfacet
  facet normal 0.994523 -0.104517 3.85401e-19
    outer loop
      vertex 8.4350 10.3327 5.6000
      vertex 8.4000 10.0000 10.6000
      vertex 8.4000 10.0000 5.6000
    endloop
  endfacet
  facet normal -0.951051 -0.309035 7.0816e-19
    outer loop
      vertex 11.5650 10.3327 5.6000
      vertex 11.4617 10.6508 10.6000
      vertex 11.4617 10.6508 5.6000
    endloop
  endfacet
  facet normal -0.951051 -0.309035 7.0816e-19
    outer loop
      vertex 11.4617 10.6508 10.6000
      vertex 11.5650 10.3327 5.6000
      vertex 11.5650 10.3327 10.6000
    endloop
  endfacet
  facet normal -0.994523 -0.104517 -3.85401e-19
    outer loop
      vertex 11.6000 10.0000 5.6000
      vertex 11.5650 10.3327 10.6000
      vertex 11.5650 10.3327 5.6000
    endloop
  endfacet
  facet normal -0.994523 -0.104517 -3.85401e-19
    outer loop
      vertex 11.5650 10.3327 10.6000
      vertex 11.6000 10.0000 5.6000
      vertex 11.6000 10.0000 10.6000
    endloop
  endfacet
  facet normal -0.866034 -0.499985 -1.64879e-18
    outer loop
      vertex 11.4617 10.6508 5.6000
      vertex 11.2944 10.9405 10.6000
      vertex 11.2944 10.9405 5.6000
    endloop
  endfacet
  facet normal -0.866034 -0.499985 -1.64879e-18
    outer loop
      vertex 11.2944 10.9405 10.6000
      vertex 11.4617 10.6508 5.6000
      vertex 11.4617 10.6508 10.6000
    endloop
  endfacet
  facet normal -0.994523 0.104517 3.85401e-19
    outer loop
      vertex 11.5650 9.6673 5.6000
      vertex 11.6000 10.0000 10.6000
      vertex 11.6000 10.0000 5.6000
    endloop
  endfacet
  facet normal -0.994523 0.104517 3.85401e-19
    outer loop
      vertex 11.6000 10.0000 10.6000
      vertex 11.5650 9.6673 5.6000
      vertex 11.5650 9.6673 10.6000
    endloop
  endfacet
  facet normal -0.743135 -0.669141 -9.35083e-19
    outer loop
      vertex 11.2944 10.9405 5.6000
      vertex 11.0706 11.1890 10.6000
      vertex 11.0706 11.1890 5.6000
    endloop
  endfacet
  facet normal -0.743135 -0.669141 -9.35083e-19
    outer loop
      vertex 11.0706 11.1890 10.6000
      vertex 11.2944 10.9405 5.6000
      vertex 11.2944 10.9405 10.6000
    endloop
  endfacet
  facet normal -0.866034 0.499985 1.64879e-18
    outer loop
      vertex 11.2944 9.0595 5.6000
      vertex 11.4617 9.3492 10.6000
      vertex 11.4617 9.3492 5.6000
    endloop
  endfacet
  facet normal -0.866034 0.499985 1.64879e-18
    outer loop
      vertex 11.4617 9.3492 10.6000
      vertex 11.2944 9.0595 5.6000
      vertex 11.2944 9.0595 10.6000
    endloop
  endfacet
  facet normal -0.207893 -0.978151 0
    outer loop
      vertex 10.1672 11.5912 5.6000
      vertex 10.4944 11.5217 10.6000
      vertex 10.1672 11.5912 10.6000
    endloop
  endfacet
  facet normal -0.207893 -0.978151 -0
    outer loop
      vertex 10.4944 11.5217 10.6000
      vertex 10.1672 11.5912 5.6000
      vertex 10.4944 11.5217 5.6000
    endloop
  endfacet
  facet normal 0.951051 0.309035 -7.84117e-19
    outer loop
      vertex 8.5383 9.3492 10.6000
      vertex 8.4350 9.6673 5.6000
      vertex 8.4350 9.6673 10.6000
    endloop
  endfacet
  facet normal 0.951051 0.309035 -7.84117e-19
    outer loop
      vertex 8.4350 9.6673 5.6000
      vertex 8.5383 9.3492 10.6000
      vertex 8.5383 9.3492 5.6000
    endloop
  endfacet
  facet normal 0 1 -0
    outer loop
      vertex 10.1672 8.4088 5.6000
      vertex 9.8328 8.4088 10.6000
      vertex 10.1672 8.4088 10.6000
    endloop
  endfacet
  facet normal 0 1 0
    outer loop
      vertex 9.8328 8.4088 10.6000
      vertex 10.1672 8.4088 5.6000
      vertex 9.8328 8.4088 5.6000
    endloop
  endfacet
  facet normal -0.587786 -0.809017 0
    outer loop
      vertex 10.8000 11.3856 5.6000
      vertex 11.0706 11.1890 10.6000
      vertex 10.8000 11.3856 10.6000
    endloop
  endfacet
  facet normal -0.587786 -0.809017 -0
    outer loop
      vertex 11.0706 11.1890 10.6000
      vertex 10.8000 11.3856 5.6000
      vertex 11.0706 11.1890 5.6000
    endloop
  endfacet
  facet normal 0.743135 0.669141 -5.5537e-19
    outer loop
      vertex 8.9294 8.8110 10.6000
      vertex 8.7056 9.0595 5.6000
      vertex 8.7056 9.0595 10.6000
    endloop
  endfacet
  facet normal 0.743135 0.669141 -5.5537e-19
    outer loop
      vertex 8.7056 9.0595 5.6000
      vertex 8.9294 8.8110 10.6000
      vertex 8.9294 8.8110 5.6000
    endloop
  endfacet
  facet normal 0.587786 -0.809017 0
    outer loop
      vertex 8.9294 11.1890 5.6000
      vertex 9.2000 11.3856 10.6000
      vertex 8.9294 11.1890 10.6000
    endloop
  endfacet
  facet normal 0.587786 -0.809017 0
    outer loop
      vertex 9.2000 11.3856 10.6000
      vertex 8.9294 11.1890 5.6000
      vertex 9.2000 11.3856 5.6000
    endloop
  endfacet
  facet normal -0.207893 0.978151 0
    outer loop
      vertex 10.4944 8.4783 5.6000
      vertex 10.1672 8.4088 10.6000
      vertex 10.4944 8.4783 10.6000
    endloop
  endfacet
  facet normal -0.207893 0.978151 0
    outer loop
      vertex 10.1672 8.4088 10.6000
      vertex 10.4944 8.4783 5.6000
      vertex 10.1672 8.4088 5.6000
    endloop
  endfacet
  facet normal -0.743135 0.669141 9.35083e-19
    outer loop
      vertex 11.0706 8.8110 5.6000
      vertex 11.2944 9.0595 10.6000
      vertex 11.2944 9.0595 5.6000
    endloop
  endfacet
  facet normal -0.743135 0.669141 9.35083e-19
    outer loop
      vertex 11.2944 9.0595 10.6000
      vertex 11.0706 8.8110 5.6000
      vertex 11.0706 8.8110 10.6000
    endloop
  endfacet
  facet normal 0.951051 -0.309035 7.84117e-19
    outer loop
      vertex 8.4350 10.3327 10.6000
      vertex 8.5383 10.6508 5.6000
      vertex 8.5383 10.6508 10.6000
    endloop
  endfacet
  facet normal 0.951051 -0.309035 7.84117e-19
    outer loop
      vertex 8.5383 10.6508 5.6000
      vertex 8.4350 10.3327 10.6000
      vertex 8.4350 10.3327 5.6000
    endloop
  endfacet
  facet normal 0.40674 0.913544 -0
    outer loop
      vertex 9.5056 8.4783 5.6000
      vertex 9.2000 8.6144 10.6000
      vertex 9.5056 8.4783 10.6000
    endloop
  endfacet
  facet normal 0.40674 0.913544 0
    outer loop
      vertex 9.2000 8.6144 10.6000
      vertex 9.5056 8.4783 5.6000
      vertex 9.2000 8.6144 5.6000
    endloop
  endfacet
  facet normal 0.40674 -0.913544 0
    outer loop
      vertex 9.2000 11.3856 5.6000
      vertex 9.5056 11.5217 10.6000
      vertex 9.2000 11.3856 10.6000
    endloop
  endfacet
  facet normal 0.40674 -0.913544 0
    outer loop
      vertex 9.5056 11.5217 10.6000
      vertex 9.2000 11.3856 5.6000
      vertex 9.5056 11.5217 5.6000
    endloop
  endfacet
  facet normal -0.40674 0.913544 0
    outer loop
      vertex 10.8000 8.6144 5.6000
      vertex 10.4944 8.4783 10.6000
      vertex 10.8000 8.6144 10.6000
    endloop
  endfacet
  facet normal -0.40674 0.913544 0
    outer loop
      vertex 10.4944 8.4783 10.6000
      vertex 10.8000 8.6144 5.6000
      vertex 10.4944 8.4783 5.6000
    endloop
  endfacet
  facet normal -0.951051 0.309035 -7.0816e-19
    outer loop
      vertex 11.4617 9.3492 5.6000
      vertex 11.5650 9.6673 10.6000
      vertex 11.5650 9.6673 5.6000
    endloop
  endfacet
  facet normal -0.951051 0.309035 -7.0816e-19
    outer loop
      vertex 11.5650 9.6673 10.6000
      vertex 11.4617 9.3492 5.6000
      vertex 11.4617 9.3492 10.6000
    endloop
  endfacet
  facet normal 0.994523 0.104517 -3.85401e-19
    outer loop
      vertex 8.4350 9.6673 10.6000
      vertex 8.4000 10.0000 5.6000
      vertex 8.4000 10.0000 10.6000
    endloop
  endfacet
  facet normal 0.994523 0.104517 -3.85401e-19
    outer loop
      vertex 8.4000 10.0000 5.6000
      vertex 8.4350 9.6673 10.6000
      vertex 8.4350 9.6673 5.6000
    endloop
  endfacet
  facet normal 0.207893 0.978151 -0
    outer loop
      vertex 9.8328 8.4088 5.6000
      vertex 9.5056 8.4783 10.6000
      vertex 9.8328 8.4088 10.6000
    endloop
  endfacet
  facet normal 0.207893 0.978151 0
    outer loop
      vertex 9.5056 8.4783 10.6000
      vertex 9.8328 8.4088 5.6000
      vertex 9.5056 8.4783 5.6000
    endloop
  endfacet
  facet normal 0.866034 0.499985 -1.64879e-18
    outer loop
      vertex 8.7056 9.0595 10.6000
      vertex 8.5383 9.3492 5.6000
      vertex 8.5383 9.3492 10.6000
    endloop
  endfacet
  facet normal 0.866034 0.499985 -1.64879e-18
    outer loop
      vertex 8.5383 9.3492 5.6000
      vertex 8.7056 9.0595 10.6000
      vertex 8.7056 9.0595 5.6000
    endloop
  endfacet
  facet normal 0.207893 -0.978151 0
    outer loop
      vertex 9.5056 11.5217 5.6000
      vertex 9.8328 11.5912 10.6000
      vertex 9.5056 11.5217 10.6000
    endloop
  endfacet
  facet normal 0.207893 -0.978151 0
    outer loop
      vertex 9.8328 11.5912 10.6000
      vertex 9.5056 11.5217 5.6000
      vertex 9.8328 11.5912 5.6000
    endloop
  endfacet
  facet normal -0.40674 -0.913544 0
    outer loop
      vertex 10.4944 11.5217 5.6000
      vertex 10.8000 11.3856 10.6000
      vertex 10.4944 11.5217 10.6000
    endloop
  endfacet
  facet normal -0.40674 -0.913544 -0
    outer loop
      vertex 10.8000 11.3856 10.6000
      vertex 10.4944 11.5217 5.6000
      vertex 10.8000 11.3856 5.6000
    endloop
  endfacet
  facet normal 0.743135 -0.669141 5.5537e-19
    outer loop
      vertex 8.7056 10.9405 10.6000
      vertex 8.9294 11.1890 5.6000
      vertex 8.9294 11.1890 10.6000
    endloop
  endfacet
  facet normal 0.743135 -0.669141 5.5537e-19
    outer loop
      vertex 8.9294 11.1890 5.6000
      vertex 8.7056 10.9405 10.6000
      vertex 8.7056 10.9405 5.6000
    endloop
  endfacet
  facet normal 0.866034 -0.499985 1.64879e-18
    outer loop
      vertex 8.5383 10.6508 10.6000
      vertex 8.7056 10.9405 5.6000
      vertex 8.7056 10.9405 10.6000
    endloop
  endfacet
  facet normal 0.866034 -0.499985 1.64879e-18
    outer loop
      vertex 8.7056 10.9405 5.6000
      vertex 8.5383 10.6508 10.6000
      vertex 8.5383 10.6508 5.6000
    endloop
  endfacet
  facet normal -0.587786 0.809017 0
    outer loop
      vertex 11.0706 8.8110 5.6000
      vertex 10.8000 8.6144 10.6000
      vertex 11.0706 8.8110 10.6000
    endloop
  endfacet
  facet normal -0.587786 0.809017 0
    outer loop
      vertex 10.8000 8.6144 10.6000
      vertex 11.0706 8.8110 5.6000
      vertex 10.8000 8.6144 5.6000
    endloop
  endfacet
  facet normal 0 -1 0
    outer loop
      vertex 9.8328 11.5912 5.6000
      vertex 10.1672 11.5912 10.6000
      vertex 9.8328 11.5912 10.6000
    endloop
  endfacet
  facet normal 0 -1 -0
    outer loop
      vertex 10.1672 11.5912 10.6000
      vertex 9.8328 11.5912 5.6000
      vertex 10.1672 11.5912 5.6000
    endloop
  endfacet
  facet normal 0.587786 0.809017 -0
    outer loop
      vertex 9.2000 8.6144 5.6000
      vertex 8.9294 8.8110 10.6000
      vertex 9.2000 8.6144 10.6000
    endloop
  endfacet
  facet normal 0.587786 0.809017 0
    outer loop
      vertex 8.9294 8.8110 10.6000
      vertex 9.2000 8.6144 5.6000
      vertex 8.9294 8.8110 5.6000
    endloop
  endfacet
  facet normal 0 0 -1
    outer loop
      vertex 11.5650 9.6673 10.6000
      vertex 11.5650 10.3327 10.6000
      vertex 11.6000 10.0000 10.6000
    endloop
  endfacet
  facet normal 0 0 -1
    outer loop
      vertex 11.4617 9.3492 10.6000
      vertex 11.5650 10.3327 10.6000
      vertex 11.5650 9.6673 10.6000
    endloop
  endfacet
  facet normal 0 0 -1
    outer loop
      vertex 11.4617 9.3492 10.6000
      vertex 11.4617 10.6508 10.6000
      vertex 11.5650 10.3327 10.6000
    endloop
  endfacet
  facet normal 0 0 -1
    outer loop
      vertex 11.2944 9.0595 10.6000
      vertex 11.4617 10.6508 10.6000
      vertex 11.4617 9.3492 10.6000
    endloop
  endfacet
  facet normal 0 0 -1
    outer loop
      vertex 11.2944 9.0595 10.6000
      vertex 11.2944 10.9405 10.6000
      vertex 11.4617 10.6508 10.6000
    endloop
  endfacet
  facet normal 0 0 -1
    outer loop
      vertex 11.0706 8.8110 10.6000
      vertex 11.2944 10.9405 10.6000
      vertex 11.2944 9.0595 10.6000
    endloop
  endfacet
  facet normal 0 0 -1
    outer loop
      vertex 11.0706 8.8110 10.6000
      vertex 11.0706 11.1890 10.6000
      vertex 11.2944 10.9405 10.6000
    endloop
  endfacet
  facet normal 0 0 -1
    outer loop
      vertex 10.8000 8.6144 10.6000
      vertex 11.0706 11.1890 10.6000
      vertex 11.0706 8.8110 10.6000
    endloop
  endfacet
  facet normal 0 0 -1
    outer loop
      vertex 10.8000 8.6144 10.6000
      vertex 10.8000 11.3856 10.6000
      vertex 11.0706 11.1890 10.6000
    endloop
  endfacet
  facet normal 0 0 -1
    outer loop
      vertex 10.4944 8.4783 10.6000
      vertex 10.8000 11.3856 10.6000
      vertex 10.8000 8.6144 10.6000
    endloop
  endfacet
  facet normal 0 0 -1
    outer loop
      vertex 10.4944 8.4783 10.6000
      vertex 10.4944 11.5217 10.6000
      vertex 10.8000 11.3856 10.6000
    endloop
  endfacet
  facet normal 0 0 -1
    outer loop
      vertex 10.1672 8.4088 10.6000
      vertex 10.4944 11.5217 10.6000
      vertex 10.4944 8.4783 10.6000
    endloop
  endfacet
  facet normal 0 0 -1
    outer loop
      vertex 10.1672 8.4088 10.6000
      vertex 10.1672 11.5912 10.6000
      vertex 10.4944 11.5217 10.6000
    endloop
  endfacet
  facet normal 0 0 -1
    outer loop
      vertex 9.8328 8.4088 10.6000
      vertex 10.1672 11.5912 10.6000
      vertex 10.1672 8.4088 10.6000
    endloop
  endfacet
  facet normal 0 0 -1
    outer loop
      vertex 9.8328 8.4088 10.6000
      vertex 9.8328 11.5912 10.6000
      vertex 10.1672 11.5912 10.6000
    endloop
  endfacet
  facet normal 0 0 -1
    outer loop
      vertex 9.5056 8.4783 10.6000
      vertex 9.8328 11.5912 10.6000
      vertex 9.8328 8.4088 10.6000
    endloop
  endfacet
  facet normal 0 0 -1
    outer loop
      vertex 9.5056 8.4783 10.6000
      vertex 9.5056 11.5217 10.6000
      vertex 9.8328 11.5912 10.6000
    endloop
  endfacet
  facet normal 0 0 -1
    outer loop
      vertex 9.2000 8.6144 10.6000
      vertex 9.5056 11.5217 10.6000
      vertex 9.5056 8.4783 10.6000
    endloop
  endfacet
  facet normal 0 0 -1
    outer loop
      vertex 9.2000 8.6144 10.6000
      vertex 9.2000 11.3856 10.6000
      vertex 9.5056 11.5217 10.6000
    endloop
  endfacet
  facet normal 0 0 -1
    outer loop
      vertex 8.9294 8.8110 10.6000
      vertex 9.2000 11.3856 10.6000
      vertex 9.2000 8.6144 10.6000
    endloop
  endfacet
  facet normal 0 0 -1
    outer loop
      vertex 8.9294 8.8110 10.6000
      vertex 8.9294 11.1890 10.6000
      vertex 9.2000 11.3856 10.6000
    endloop
  endfacet
  facet normal 0 0 -1
    outer loop
      vertex 8.7056 9.0595 10.6000
      vertex 8.9294 11.1890 10.6000
      vertex 8.9294 8.8110 10.6000
    endloop
  endfacet
  facet normal 0 0 -1
    outer loop
      vertex 8.7056 9.0595 10.6000
      vertex 8.7056 10.9405 10.6000
      vertex 8.9294 11.1890 10.6000
    endloop
  endfacet
  facet normal 0 0 -1
    outer loop
      vertex 8.5383 9.3492 10.6000
      vertex 8.7056 10.9405 10.6000
      vertex 8.7056 9.0595 10.6000
    endloop
  endfacet
  facet normal 0 0 -1
    outer loop
      vertex 8.5383 9.3492 10.6000
      vertex 8.5383 10.6508 10.6000
      vertex 8.7056 10.9405 10.6000
    endloop
  endfacet
  facet normal 0 0 -1
    outer loop
      vertex 8.4350 9.6673 10.6000
      vertex 8.5383 10.6508 10.6000
      vertex 8.5383 9.3492 10.6000
    endloop
  endfacet
  facet normal 0 0 -1
    outer loop
      vertex 8.4350 9.6673 10.6000
      vertex 8.4350 10.3327 10.6000
      vertex 8.5383 10.6508 10.6000
    endloop
  endfacet
  facet normal 0 -0 -1
    outer loop
      vertex 8.4350 10.3327 10.6000
      vertex 8.4350 9.6673 10.6000
      vertex 8.4000 10.0000 10.6000
    endloop
  endfacet
  facet normal 1 -0 0
    outer loop
      vertex 15.0000 5.2000 177.9000
      vertex 15.0000 15.0000 0.0000
      vertex 15.0000 15.0000 177.9000
    endloop
  endfacet
  facet normal 1 0 0
    outer loop
      vertex 15.0000 15.0000 0.0000
      vertex 15.0000 5.2000 177.9000
      vertex 15.0000 5.2000 0.0000
    endloop
  endfacet
  facet normal 1 -0 0
    outer loop
      vertex 15.0000 0.0000 177.9000
      vertex 15.0000 1.8000 0.0000
      vertex 15.0000 1.8000 177.9000
    endloop
  endfacet
  facet normal 1 0 0
    outer loop
      vertex 15.0000 1.8000 0.0000
      vertex 15.0000 0.0000 177.9000
      vertex 15.0000 0.0000 0.0000
    endloop
  endfacet
  facet normal 0 0 -1
    outer loop
      vertex 15.0000 0.0000 0.0000
      vertex 8.0000 1.8000 0.0000
      vertex 15.0000 1.8000 0.0000
    endloop
  endfacet
  facet normal 0 0 -1
    outer loop
      vertex 5.2000 8.0000 0.0000
      vertex 8.0000 5.2000 0.0000
      vertex 8.0000 1.8000 0.0000
    endloop
  endfacet
  facet normal 0 0 -1
    outer loop
      vertex 8.0000 5.2000 0.0000
      vertex 5.2000 8.0000 0.0000
      vertex 8.0000 10.0000 0.0000
    endloop
  endfacet
  facet normal 0 0 -1
    outer loop
      vertex 8.0000 1.8000 0.0000
      vertex 1.8000 8.0000 0.0000
      vertex 5.2000 8.0000 0.0000
    endloop
  endfacet
  facet normal 0 0 -1
    outer loop
      vertex 0.0000 0.0000 0.0000
      vertex 8.0000 1.8000 0.0000
      vertex 15.0000 0.0000 0.0000
    endloop
  endfacet
  facet normal 0 0 -1
    outer loop
      vertex 0.0000 0.0000 0.0000
      vertex 1.8000 8.0000 0.0000
      vertex 8.0000 1.8000 0.0000
    endloop
  endfacet
  facet normal 0 0 -1
    outer loop
      vertex 0.0000 15.0000 0.0000
      vertex 1.8000 8.0000 0.0000
      vertex 0.0000 0.0000 0.0000
    endloop
  endfacet
  facet normal 0 0 -1
    outer loop
      vertex 1.8000 8.0000 0.0000
      vertex 0.0000 15.0000 0.0000
      vertex 1.8000 15.0000 0.0000
    endloop
  endfacet
  facet normal 0 0 -1
    outer loop
      vertex 15.0000 5.2000 0.0000
      vertex 12.0000 10.0000 0.0000
      vertex 15.0000 15.0000 0.0000
    endloop
  endfacet
  facet normal 0 0 -1
    outer loop
      vertex 15.0000 5.2000 0.0000
      vertex 11.9754 9.6871 0.0000
      vertex 12.0000 10.0000 0.0000
    endloop
  endfacet
  facet normal 0 0 -1
    outer loop
      vertex 15.0000 5.2000 0.0000
      vertex 11.9021 9.3820 0.0000
      vertex 11.9754 9.6871 0.0000
    endloop
  endfacet
  facet normal 0 0 -1
    outer loop
      vertex 15.0000 5.2000 0.0000
      vertex 11.7820 9.0920 0.0000
      vertex 11.9021 9.3820 0.0000
    endloop
  endfacet
  facet normal 0 0 -1
    outer loop
      vertex 15.0000 5.2000 0.0000
      vertex 11.6180 8.8244 0.0000
      vertex 11.7820 9.0920 0.0000
    endloop
  endfacet
  facet normal 0 0 -1
    outer loop
      vertex 15.0000 5.2000 0.0000
      vertex 11.4142 8.5858 0.0000
      vertex 11.6180 8.8244 0.0000
    endloop
  endfacet
  facet normal 0 0 -1
    outer loop
      vertex 15.0000 5.2000 0.0000
      vertex 11.1756 8.3820 0.0000
      vertex 11.4142 8.5858 0.0000
    endloop
  endfacet
  facet normal 0 0 -1
    outer loop
      vertex 15.0000 5.2000 0.0000
      vertex 10.9080 8.2180 0.0000
      vertex 11.1756 8.3820 0.0000
    endloop
  endfacet
  facet normal 0 0 -1
    outer loop
      vertex 15.0000 5.2000 0.0000
      vertex 10.6180 8.0979 0.0000
      vertex 10.9080 8.2180 0.0000
    endloop
  endfacet
  facet normal 0 0 -1
    outer loop
      vertex 8.0000 5.2000 0.0000
      vertex 10.6180 8.0979 0.0000
      vertex 15.0000 5.2000 0.0000
    endloop
  endfacet
  facet normal 0 0 -1
    outer loop
      vertex 10.6180 8.0979 0.0000
      vertex 8.0000 5.2000 0.0000
      vertex 10.3129 8.0246 0.0000
    endloop
  endfacet
  facet normal 0 0 -1
    outer loop
      vertex 10.3129 8.0246 0.0000
      vertex 8.0000 5.2000 0.0000
      vertex 10.0000 8.0000 0.0000
    endloop
  endfacet
  facet normal -0 0 -1
    outer loop
      vertex 10.0000 8.0000 0.0000
      vertex 8.0000 5.2000 0.0000
      vertex 9.6871 8.0246 0.0000
    endloop
  endfacet
  facet normal -0 0 -1
    outer loop
      vertex 9.6871 8.0246 0.0000
      vertex 8.0000 5.2000 0.0000
      vertex 9.3820 8.0979 0.0000
    endloop
  endfacet
  facet normal -0 0 -1
    outer loop
      vertex 9.3820 8.0979 0.0000
      vertex 8.0000 5.2000 0.0000
      vertex 9.0920 8.2180 0.0000
    endloop
  endfacet
  facet normal 0 0 -1
    outer loop
      vertex 8.0000 5.2000 0.0000
      vertex 8.8244 8.3820 0.0000
      vertex 9.0920 8.2180 0.0000
    endloop
  endfacet
  facet normal 0 0 -1
    outer loop
      vertex 8.0000 5.2000 0.0000
      vertex 8.5858 8.5858 0.0000
      vertex 8.8244 8.3820 0.0000
    endloop
  endfacet
  facet normal 0 0 -1
    outer loop
      vertex 8.0000 5.2000 0.0000
      vertex 8.3820 8.8244 0.0000
      vertex 8.5858 8.5858 0.0000
    endloop
  endfacet
  facet normal 0 0 -1
    outer loop
      vertex 8.0000 5.2000 0.0000
      vertex 8.2180 9.0920 0.0000
      vertex 8.3820 8.8244 0.0000
    endloop
  endfacet
  facet normal 0 0 -1
    outer loop
      vertex 8.0000 5.2000 0.0000
      vertex 8.0979 9.3820 0.0000
      vertex 8.2180 9.0920 0.0000
    endloop
  endfacet
  facet normal 0 0 -1
    outer loop
      vertex 8.0000 5.2000 0.0000
      vertex 8.0246 9.6871 0.0000
      vertex 8.0979 9.3820 0.0000
    endloop
  endfacet
  facet normal -0 0 -1
    outer loop
      vertex 8.0246 9.6871 0.0000
      vertex 8.0000 5.2000 0.0000
      vertex 8.0000 10.0000 0.0000
    endloop
  endfacet
  facet normal 0 0 -1
    outer loop
      vertex 11.9754 10.3129 0.0000
      vertex 15.0000 15.0000 0.0000
      vertex 12.0000 10.0000 0.0000
    endloop
  endfacet
  facet normal 0 0 -1
    outer loop
      vertex 11.9021 10.6180 0.0000
      vertex 15.0000 15.0000 0.0000
      vertex 11.9754 10.3129 0.0000
    endloop
  endfacet
  facet normal 0 0 -1
    outer loop
      vertex 11.7820 10.9080 0.0000
      vertex 15.0000 15.0000 0.0000
      vertex 11.9021 10.6180 0.0000
    endloop
  endfacet
  facet normal 0 0 -1
    outer loop
      vertex 11.6180 11.1756 0.0000
      vertex 15.0000 15.0000 0.0000
      vertex 11.7820 10.9080 0.0000
    endloop
  endfacet
  facet normal 0 0 -1
    outer loop
      vertex 11.4142 11.4142 0.0000
      vertex 15.0000 15.0000 0.0000
      vertex 11.6180 11.1756 0.0000
    endloop
  endfacet
  facet normal 0 0 -1
    outer loop
      vertex 11.1756 11.6180 0.0000
      vertex 15.0000 15.0000 0.0000
      vertex 11.4142 11.4142 0.0000
    endloop
  endfacet
  facet normal 0 0 -1
    outer loop
      vertex 10.9080 11.7820 0.0000
      vertex 15.0000 15.0000 0.0000
      vertex 11.1756 11.6180 0.0000
    endloop
  endfacet
  facet normal 0 0 -1
    outer loop
      vertex 10.6180 11.9021 0.0000
      vertex 15.0000 15.0000 0.0000
      vertex 10.9080 11.7820 0.0000
    endloop
  endfacet
  facet normal 0 0 -1
    outer loop
      vertex 10.3129 11.9754 0.0000
      vertex 15.0000 15.0000 0.0000
      vertex 10.6180 11.9021 0.0000
    endloop
  endfacet
  facet normal 0 0 -1
    outer loop
      vertex 10.0000 12.0000 0.0000
      vertex 15.0000 15.0000 0.0000
      vertex 10.3129 11.9754 0.0000
    endloop
  endfacet
  facet normal 0 0 -1
    outer loop
      vertex 5.2000 15.0000 0.0000
      vertex 10.0000 12.0000 0.0000
      vertex 9.6871 11.9754 0.0000
    endloop
  endfacet
  facet normal 0 0 -1
    outer loop
      vertex 5.2000 15.0000 0.0000
      vertex 9.6871 11.9754 0.0000
      vertex 9.3820 11.9021 0.0000
    endloop
  endfacet
  facet normal 0 0 -1
    outer loop
      vertex 5.2000 15.0000 0.0000
      vertex 9.3820 11.9021 0.0000
      vertex 9.0920 11.7820 0.0000
    endloop
  endfacet
  facet normal 0 0 -1
    outer loop
      vertex 5.2000 8.0000 0.0000
      vertex 8.0246 10.3129 0.0000
      vertex 8.0000 10.0000 0.0000
    endloop
  endfacet
  facet normal 0 0 -1
    outer loop
      vertex 5.2000 8.0000 0.0000
      vertex 8.0979 10.6180 0.0000
      vertex 8.0246 10.3129 0.0000
    endloop
  endfacet
  facet normal 0 0 -1
    outer loop
      vertex 5.2000 15.0000 0.0000
      vertex 8.0979 10.6180 0.0000
      vertex 5.2000 8.0000 0.0000
    endloop
  endfacet
  facet normal 0 0 -1
    outer loop
      vertex 8.0979 10.6180 0.0000
      vertex 5.2000 15.0000 0.0000
      vertex 8.2180 10.9080 0.0000
    endloop
  endfacet
  facet normal 0 0 -1
    outer loop
      vertex 8.2180 10.9080 0.0000
      vertex 5.2000 15.0000 0.0000
      vertex 8.3820 11.1756 0.0000
    endloop
  endfacet
  facet normal 0 0 -1
    outer loop
      vertex 10.0000 12.0000 0.0000
      vertex 5.2000 15.0000 0.0000
      vertex 15.0000 15.0000 0.0000
    endloop
  endfacet
  facet normal 0 0 -1
    outer loop
      vertex 8.8244 11.6180 0.0000
      vertex 5.2000 15.0000 0.0000
      vertex 9.0920 11.7820 0.0000
    endloop
  endfacet
  facet normal 0 0 -1
    outer loop
      vertex 8.5858 11.4142 0.0000
      vertex 5.2000 15.0000 0.0000
      vertex 8.8244 11.6180 0.0000
    endloop
  endfacet
  facet normal 0 0 -1
    outer loop
      vertex 8.3820 11.1756 0.0000
      vertex 5.2000 15.0000 0.0000
      vertex 8.5858 11.4142 0.0000
    endloop
  endfacet
  facet normal 0 0 1
    outer loop
      vertex 1.8000 15.0000 177.9000
      vertex 0.0000 15.0000 177.9000
      vertex 1.8000 8.0000 177.9000
    endloop
  endfacet
  facet normal 0 0 1
    outer loop
      vertex 15.0000 15.0000 177.9000
      vertex 13.0000 13.0000 177.9000
      vertex 15.0000 5.2000 177.9000
    endloop
  endfacet
  facet normal -0 0 1
    outer loop
      vertex 5.2000 15.0000 177.9000
      vertex 13.0000 13.0000 177.9000
      vertex 15.0000 15.0000 177.9000
    endloop
  endfacet
  facet normal 0 0 1
    outer loop
      vertex 5.2000 8.0000 177.9000
      vertex 7.0000 13.0000 177.9000
      vertex 5.2000 15.0000 177.9000
    endloop
  endfacet
  facet normal 0 0 1
    outer loop
      vertex 13.0000 13.0000 177.9000
      vertex 5.2000 15.0000 177.9000
      vertex 7.0000 13.0000 177.9000
    endloop
  endfacet
  facet normal -0 0 1
    outer loop
      vertex 13.0000 7.0000 177.9000
      vertex 15.0000 5.2000 177.9000
      vertex 13.0000 13.0000 177.9000
    endloop
  endfacet
  facet normal 0 0 1
    outer loop
      vertex 13.0000 7.0000 177.9000
      vertex 8.0000 5.2000 177.9000
      vertex 15.0000 5.2000 177.9000
    endloop
  endfacet
  facet normal 0 0 1
    outer loop
      vertex 5.2000 8.0000 177.9000
      vertex 8.0000 5.2000 177.9000
      vertex 7.0000 7.0000 177.9000
    endloop
  endfacet
  facet normal -0 0 1
    outer loop
      vertex 7.0000 7.0000 177.9000
      vertex 8.0000 5.2000 177.9000
      vertex 13.0000 7.0000 177.9000
    endloop
  endfacet
  facet normal -0 0 1
    outer loop
      vertex 8.0000 1.8000 177.9000
      vertex 15.0000 0.0000 177.9000
      vertex 15.0000 1.8000 177.9000
    endloop
  endfacet
  facet normal 0 0 1
    outer loop
      vertex 7.0000 13.0000 177.9000
      vertex 5.2000 8.0000 177.9000
      vertex 7.0000 7.0000 177.9000
    endloop
  endfacet
  facet normal 0 0 1
    outer loop
      vertex 8.0000 5.2000 177.9000
      vertex 5.2000 8.0000 177.9000
      vertex 8.0000 1.8000 177.9000
    endloop
  endfacet
  facet normal -0 0 1
    outer loop
      vertex 1.8000 8.0000 177.9000
      vertex 8.0000 1.8000 177.9000
      vertex 5.2000 8.0000 177.9000
    endloop
  endfacet
  facet normal 0 0 1
    outer loop
      vertex 8.0000 1.8000 177.9000
      vertex 0.0000 0.0000 177.9000
      vertex 15.0000 0.0000 177.9000
    endloop
  endfacet
  facet normal 0 0 1
    outer loop
      vertex 1.8000 8.0000 177.9000
      vertex 0.0000 0.0000 177.9000
      vertex 8.0000 1.8000 177.9000
    endloop
  endfacet
  facet normal 0 0 1
    outer loop
      vertex 0.0000 0.0000 177.9000
      vertex 1.8000 8.0000 177.9000
      vertex 0.0000 15.0000 177.9000
    endloop
  endfacet
  facet normal -1 0 0
    outer loop
      vertex 0.0000 0.0000 0.0000
      vertex 0.0000 15.0000 177.9000
      vertex 0.0000 15.0000 0.0000
    endloop
  endfacet
  facet normal -1 -0 0
    outer loop
      vertex 0.0000 15.0000 177.9000
      vertex 0.0000 0.0000 0.0000
      vertex 0.0000 0.0000 177.9000
    endloop
  endfacet
  facet normal 0 1 -0
    outer loop
      vertex 1.8000 15.0000 0.0000
      vertex 0.0000 15.0000 177.9000
      vertex 1.8000 15.0000 177.9000
    endloop
  endfacet
  facet normal 0 1 0
    outer loop
      vertex 0.0000 15.0000 177.9000
      vertex 1.8000 15.0000 0.0000
      vertex 0.0000 15.0000 0.0000
    endloop
  endfacet
  facet normal 0 1 -0
    outer loop
      vertex 15.0000 15.0000 0.0000
      vertex 5.2000 15.0000 177.9000
      vertex 15.0000 15.0000 177.9000
    endloop
  endfacet
  facet normal 0 1 0
    outer loop
      vertex 5.2000 15.0000 177.9000
      vertex 15.0000 15.0000 0.0000
      vertex 5.2000 15.0000 0.0000
    endloop
  endfacet
  facet normal 0 -1 0
    outer loop
      vertex 0.0000 0.0000 0.0000
      vertex 15.0000 0.0000 177.9000
      vertex 0.0000 0.0000 177.9000
    endloop
  endfacet
  facet normal 0 -1 -0
    outer loop
      vertex 15.0000 0.0000 177.9000
      vertex 0.0000 0.0000 0.0000
      vertex 15.0000 0.0000 0.0000
    endloop
  endfacet
  facet normal -1 0 0
    outer loop
      vertex 5.2000 8.0000 0.0000
      vertex 5.2000 15.0000 177.9000
      vertex 5.2000 15.0000 0.0000
    endloop
  endfacet
  facet normal -1 -0 0
    outer loop
      vertex 5.2000 15.0000 177.9000
      vertex 5.2000 8.0000 0.0000
      vertex 5.2000 8.0000 177.9000
    endloop
  endfacet
  facet normal 1 -0 0
    outer loop
      vertex 1.8000 8.0000 177.9000
      vertex 1.8000 15.0000 0.0000
      vertex 1.8000 15.0000 177.9000
    endloop
  endfacet
  facet normal 1 0 0
    outer loop
      vertex 1.8000 15.0000 0.0000
      vertex 1.8000 8.0000 177.9000
      vertex 1.8000 8.0000 0.0000
    endloop
  endfacet
  facet normal 0 1 -0
    outer loop
      vertex 5.2000 8.0000 0.0000
      vertex 1.8000 8.0000 177.9000
      vertex 5.2000 8.0000 177.9000
    endloop
  endfacet
  facet normal 0 1 0
    outer loop
      vertex 1.8000 8.0000 177.9000
      vertex 5.2000 8.0000 0.0000
      vertex 1.8000 8.0000 0.0000
    endloop
  endfacet
  facet normal 1 -0 0
    outer loop
      vertex 8.0000 1.8000 177.9000
      vertex 8.0000 5.2000 0.0000
      vertex 8.0000 5.2000 177.9000
    endloop
  endfacet
  facet normal 1 0 0
    outer loop
      vertex 8.0000 5.2000 0.0000
      vertex 8.0000 1.8000 177.9000
      vertex 8.0000 1.8000 0.0000
    endloop
  endfacet
  facet normal 0 -1 0
    outer loop
      vertex 8.0000 5.2000 0.0000
      vertex 15.0000 5.2000 177.9000
      vertex 8.0000 5.2000 177.9000
    endloop
  endfacet
  facet normal 0 -1 -0
    outer loop
      vertex 15.0000 5.2000 177.9000
      vertex 8.0000 5.2000 0.0000
      vertex 15.0000 5.2000 0.0000
    endloop
  endfacet
  facet normal 0 1 -0
    outer loop
      vertex 15.0000 1.8000 0.0000
      vertex 8.0000 1.8000 177.9000
      vertex 15.0000 1.8000 177.9000
    endloop
  endfacet
  facet normal 0 1 0
    outer loop
      vertex 8.0000 1.8000 177.9000
      vertex 15.0000 1.8000 0.0000
      vertex 8.0000 1.8000 0.0000
    endloop
  endfacet
  facet normal 1 -0 0
    outer loop
      vertex 13.0000 7.0000 180.3000
      vertex 13.0000 13.0000 177.9000
      vertex 13.0000 13.0000 180.3000
    endloop
  endfacet
  facet normal 1 0 0
    outer loop
      vertex 13.0000 13.0000 177.9000
      vertex 13.0000 7.0000 180.3000
      vertex 13.0000 7.0000 177.9000
    endloop
  endfacet
  facet normal -0 0 1
    outer loop
      vertex 7.0000 13.0000 180.3000
      vertex 13.0000 7.0000 180.3000
      vertex 13.0000 13.0000 180.3000
    endloop
  endfacet
  facet normal 0 0 1
    outer loop
      vertex 13.0000 7.0000 180.3000
      vertex 7.0000 13.0000 180.3000
      vertex 7.0000 7.0000 180.3000
    endloop
  endfacet
  facet normal -1 0 0
    outer loop
      vertex 7.0000 7.0000 177.9000
      vertex 7.0000 13.0000 180.3000
      vertex 7.0000 13.0000 177.9000
    endloop
  endfacet
  facet normal -1 -0 0
    outer loop
      vertex 7.0000 13.0000 180.3000
      vertex 7.0000 7.0000 177.9000
      vertex 7.0000 7.0000 180.3000
    endloop
  endfacet
  facet normal 0 1 -0
    outer loop
      vertex 13.0000 13.0000 177.9000
      vertex 7.0000 13.0000 180.3000
      vertex 13.0000 13.0000 180.3000
    endloop
  endfacet
  facet normal 0 1 0
    outer loop
      vertex 7.0000 13.0000 180.3000
      vertex 13.0000 13.0000 177.9000
      vertex 7.0000 13.0000 177.9000
    endloop
  endfacet
  facet normal 0 -1 0
    outer loop
      vertex 7.0000 7.0000 177.9000
      vertex 13.0000 7.0000 180.3000
      vertex 7.0000 7.0000 180.3000
    endloop
  endfacet
  facet normal 0 -1 -0
    outer loop
      vertex 13.0000 7.0000 180.3000
      vertex 7.0000 7.0000 177.9000
      vertex 13.0000 7.0000 177.9000
    endloop
  endfacet
endsolid OpenSCAD_Model
