solid OpenSCAD_Model
  facet normal 0 0 1
    outer loop
      vertex 119.4000 49.1500 2.6000
      vertex 108.1000 48.8000 2.6000
      vertex 119.4000 45.5500 2.6000
    endloop
  endfacet
  facet normal -0 0 1
    outer loop
      vertex 108.0900 49.1500 2.6000
      vertex 108.1000 48.8000 2.6000
      vertex 119.4000 49.1500 2.6000
    endloop
  endfacet
  facet normal 0 0 1
    outer loop
      vertex 108.1000 48.8000 2.6000
      vertex 108.0900 49.1500 2.6000
      vertex 108.0900 48.8000 2.6000
    endloop
  endfacet
  facet normal 0 0 1
    outer loop
      vertex 119.4000 45.5500 2.6000
      vertex 108.1000 48.8000 2.6000
      vertex 108.1000 45.5500 2.6000
    endloop
  endfacet
  facet normal -1 0 0
    outer loop
      vertex 108.0900 48.8000 0.0000
      vertex 108.0900 49.1500 2.6000
      vertex 108.0900 49.1500 0.0000
    endloop
  endfacet
  facet normal -1 -0 0
    outer loop
      vertex 108.0900 49.1500 2.6000
      vertex 108.0900 48.8000 0.0000
      vertex 108.0900 48.8000 2.6000
    endloop
  endfacet
  facet normal 1 -0 0
    outer loop
      vertex 119.4000 45.5500 2.6000
      vertex 119.4000 49.1500 0.0000
      vertex 119.4000 49.1500 2.6000
    endloop
  endfacet
  facet normal 1 0 0
    outer loop
      vertex 119.4000 49.1500 0.0000
      vertex 119.4000 45.5500 2.6000
      vertex 119.4000 45.5500 0.0000
    endloop
  endfacet
  facet normal 0 0 -1
    outer loop
      vertex 19.4021 3.8820 0.0000
      vertex 29.9000 4.5000 0.0000
      vertex 29.9000 0.0000 0.0000
    endloop
  endfacet
  facet normal 0 0 -1
    outer loop
      vertex 18.9142 5.9142 0.0000
      vertex 29.9000 4.5000 0.0000
      vertex 19.1180 5.6756 0.0000
    endloop
  endfacet
  facet normal 0 0 -1
    outer loop
      vertex 29.9000 4.5000 0.0000
      vertex 19.5000 4.5000 0.0000
      vertex 19.4754 4.8129 0.0000
    endloop
  endfacet
  facet normal -0 0 -1
    outer loop
      vertex 29.9000 4.5000 0.0000
      vertex 19.4754 4.1871 0.0000
      vertex 19.5000 4.5000 0.0000
    endloop
  endfacet
  facet normal 0 0 -1
    outer loop
      vertex 29.9000 4.5000 0.0000
      vertex 19.4021 3.8820 0.0000
      vertex 19.4754 4.1871 0.0000
    endloop
  endfacet
  facet normal 0 0 -1
    outer loop
      vertex 29.9000 0.0000 0.0000
      vertex 19.2820 3.5920 0.0000
      vertex 19.4021 3.8820 0.0000
    endloop
  endfacet
  facet normal 0 0 -1
    outer loop
      vertex 29.9000 0.0000 0.0000
      vertex 19.1180 3.3244 0.0000
      vertex 19.2820 3.5920 0.0000
    endloop
  endfacet
  facet normal 0 0 -1
    outer loop
      vertex 29.9000 0.0000 0.0000
      vertex 18.9142 3.0858 0.0000
      vertex 19.1180 3.3244 0.0000
    endloop
  endfacet
  facet normal 0 0 -1
    outer loop
      vertex 29.9000 0.0000 0.0000
      vertex 18.6756 2.8820 0.0000
      vertex 18.9142 3.0858 0.0000
    endloop
  endfacet
  facet normal 0 0 -1
    outer loop
      vertex 29.9000 0.0000 0.0000
      vertex 18.4080 2.7180 0.0000
      vertex 18.6756 2.8820 0.0000
    endloop
  endfacet
  facet normal 0 0 -1
    outer loop
      vertex 29.9000 0.0000 0.0000
      vertex 18.1180 2.5979 0.0000
      vertex 18.4080 2.7180 0.0000
    endloop
  endfacet
  facet normal 0 0 -1
    outer loop
      vertex 29.9000 0.0000 0.0000
      vertex 17.8129 2.5246 0.0000
      vertex 18.1180 2.5979 0.0000
    endloop
  endfacet
  facet normal 0 0 -1
    outer loop
      vertex 29.9000 0.0000 0.0000
      vertex 17.5000 2.5000 0.0000
      vertex 17.8129 2.5246 0.0000
    endloop
  endfacet
  facet normal 0 0 -1
    outer loop
      vertex 0.0000 0.0000 0.0000
      vertex 17.5000 2.5000 0.0000
      vertex 29.9000 0.0000 0.0000
    endloop
  endfacet
  facet normal 0 0 -1
    outer loop
      vertex 0.0000 0.0000 0.0000
      vertex 15.5000 4.5000 0.0000
      vertex 15.5250 4.1871 0.0000
    endloop
  endfacet
  facet normal 0 0 -1
    outer loop
      vertex 11.0000 29.0000 0.0000
      vertex 4.5000 30.5000 0.0000
      vertex 11.0000 30.5000 0.0000
    endloop
  endfacet
  facet normal 0 0 -1
    outer loop
      vertex 15.5000 4.5000 0.0000
      vertex 4.5000 30.5000 0.0000
      vertex 11.0000 29.0000 0.0000
    endloop
  endfacet
  facet normal 0 0 -1
    outer loop
      vertex 0.0000 0.0000 0.0000
      vertex 15.5250 4.1871 0.0000
      vertex 15.5980 3.8820 0.0000
    endloop
  endfacet
  facet normal 0 0 -1
    outer loop
      vertex 0.0000 0.0000 0.0000
      vertex 15.5980 3.8820 0.0000
      vertex 15.7180 3.5920 0.0000
    endloop
  endfacet
  facet normal -0 0 -1
    outer loop
      vertex 17.5000 2.5000 0.0000
      vertex 0.0000 0.0000 0.0000
      vertex 17.1870 2.5246 0.0000
    endloop
  endfacet
  facet normal 0 0 -1
    outer loop
      vertex 0.0000 0.0000 0.0000
      vertex 16.8820 2.5979 0.0000
      vertex 17.1870 2.5246 0.0000
    endloop
  endfacet
  facet normal 0 0 -1
    outer loop
      vertex 0.0000 0.0000 0.0000
      vertex 16.5920 2.7180 0.0000
      vertex 16.8820 2.5979 0.0000
    endloop
  endfacet
  facet normal 0 0 -1
    outer loop
      vertex 0.0000 0.0000 0.0000
      vertex 16.3240 2.8820 0.0000
      vertex 16.5920 2.7180 0.0000
    endloop
  endfacet
  facet normal 0 0 -1
    outer loop
      vertex 0.0000 0.0000 0.0000
      vertex 16.0860 3.0858 0.0000
      vertex 16.3240 2.8820 0.0000
    endloop
  endfacet
  facet normal 0 0 -1
    outer loop
      vertex 0.0000 0.0000 0.0000
      vertex 15.8820 3.3244 0.0000
      vertex 16.0860 3.0858 0.0000
    endloop
  endfacet
  facet normal 0 0 -1
    outer loop
      vertex 0.0000 0.0000 0.0000
      vertex 15.7180 3.5920 0.0000
      vertex 15.8820 3.3244 0.0000
    endloop
  endfacet
  facet normal -0 0 -1
    outer loop
      vertex 15.5000 4.5000 0.0000
      vertex 0.0000 0.0000 0.0000
      vertex 4.5000 30.5000 0.0000
    endloop
  endfacet
  facet normal 0 0 -1
    outer loop
      vertex 0.0000 51.0000 0.0000
      vertex 4.5000 30.5000 0.0000
      vertex 0.0000 0.0000 0.0000
    endloop
  endfacet
  facet normal 0 0 -1
    outer loop
      vertex 4.5000 30.5000 0.0000
      vertex 0.0000 51.0000 0.0000
      vertex 4.5000 51.0000 0.0000
    endloop
  endfacet
  facet normal 0 0 -1
    outer loop
      vertex 29.9000 4.5000 0.0000
      vertex 108.1000 4.9000 0.0000
      vertex 108.1000 4.5000 0.0000
    endloop
  endfacet
  facet normal -0 0 -1
    outer loop
      vertex 108.1000 4.9000 0.0000
      vertex 29.9000 4.5000 0.0000
      vertex 108.1000 8.5000 0.0000
    endloop
  endfacet
  facet normal 0 0 -1
    outer loop
      vertex 108.1000 8.5000 0.0000
      vertex 103.6000 26.0000 0.0000
      vertex 108.1000 25.2500 0.0000
    endloop
  endfacet
  facet normal 0 0 -1
    outer loop
      vertex 108.1000 25.2500 0.0000
      vertex 103.6000 26.0000 0.0000
      vertex 108.1000 28.8500 0.0000
    endloop
  endfacet
  facet normal -0 0 -1
    outer loop
      vertex 108.1000 28.8500 0.0000
      vertex 103.6000 26.0000 0.0000
      vertex 108.1000 45.5500 0.0000
    endloop
  endfacet
  facet normal 0 0 -1
    outer loop
      vertex 103.6000 48.8000 0.0000
      vertex 108.1000 45.5500 0.0000
      vertex 103.6000 26.0000 0.0000
    endloop
  endfacet
  facet normal -0 0 -1
    outer loop
      vertex 108.1000 8.5000 0.0000
      vertex 29.9000 4.5000 0.0000
      vertex 103.6000 26.0000 0.0000
    endloop
  endfacet
  facet normal -0 0 -1
    outer loop
      vertex 103.6000 26.0000 0.0000
      vertex 29.9000 4.5000 0.0000
      vertex 29.9000 26.0000 0.0000
    endloop
  endfacet
  facet normal 0 0 -1
    outer loop
      vertex 108.1000 4.9000 0.0000
      vertex 119.4000 8.5000 0.0000
      vertex 119.4000 4.9000 0.0000
    endloop
  endfacet
  facet normal -0 0 -1
    outer loop
      vertex 119.4000 8.5000 0.0000
      vertex 108.1000 4.9000 0.0000
      vertex 108.1000 8.5000 0.0000
    endloop
  endfacet
  facet normal 0 0 -1
    outer loop
      vertex 108.1000 25.2500 0.0000
      vertex 119.4000 28.8500 0.0000
      vertex 119.4000 25.2500 0.0000
    endloop
  endfacet
  facet normal -0 0 -1
    outer loop
      vertex 119.4000 28.8500 0.0000
      vertex 108.1000 25.2500 0.0000
      vertex 108.1000 28.8500 0.0000
    endloop
  endfacet
  facet normal 0 0 -1
    outer loop
      vertex 108.0900 48.8000 0.0000
      vertex 119.4000 45.5500 0.0000
      vertex 108.1000 45.5500 0.0000
    endloop
  endfacet
  facet normal 0 0 -1
    outer loop
      vertex 119.4000 45.5500 0.0000
      vertex 108.0900 48.8000 0.0000
      vertex 119.4000 49.1500 0.0000
    endloop
  endfacet
  facet normal -0 0 -1
    outer loop
      vertex 119.4000 49.1500 0.0000
      vertex 108.0900 48.8000 0.0000
      vertex 108.0900 49.1500 0.0000
    endloop
  endfacet
  facet normal 0 0 -1
    outer loop
      vertex 108.1000 45.5500 0.0000
      vertex 103.6000 48.8000 0.0000
      vertex 108.0900 48.8000 0.0000
    endloop
  endfacet
  facet normal 0 0 -1
    outer loop
      vertex 29.9000 4.5000 0.0000
      vertex 19.4754 4.8129 0.0000
      vertex 19.4021 5.1180 0.0000
    endloop
  endfacet
  facet normal 0 0 -1
    outer loop
      vertex 29.9000 4.5000 0.0000
      vertex 19.4021 5.1180 0.0000
      vertex 19.2820 5.4080 0.0000
    endloop
  endfacet
  facet normal 0 0 -1
    outer loop
      vertex 29.9000 4.5000 0.0000
      vertex 19.2820 5.4080 0.0000
      vertex 19.1180 5.6756 0.0000
    endloop
  endfacet
  facet normal 0 0 -1
    outer loop
      vertex 18.6756 6.1180 0.0000
      vertex 29.9000 4.5000 0.0000
      vertex 18.9142 5.9142 0.0000
    endloop
  endfacet
  facet normal 0 0 -1
    outer loop
      vertex 29.9000 4.5000 0.0000
      vertex 18.6756 6.1180 0.0000
      vertex 29.9000 26.0000 0.0000
    endloop
  endfacet
  facet normal 0 0 -1
    outer loop
      vertex 18.4080 6.2820 0.0000
      vertex 29.9000 26.0000 0.0000
      vertex 18.6756 6.1180 0.0000
    endloop
  endfacet
  facet normal 0 0 -1
    outer loop
      vertex 18.1180 6.4021 0.0000
      vertex 29.9000 26.0000 0.0000
      vertex 18.4080 6.2820 0.0000
    endloop
  endfacet
  facet normal 0 0 -1
    outer loop
      vertex 17.8129 6.4754 0.0000
      vertex 29.9000 26.0000 0.0000
      vertex 18.1180 6.4021 0.0000
    endloop
  endfacet
  facet normal 0 0 -1
    outer loop
      vertex 11.0000 29.0000 0.0000
      vertex 29.9000 26.0000 0.0000
      vertex 17.8129 6.4754 0.0000
    endloop
  endfacet
  facet normal 0 0 -1
    outer loop
      vertex 11.0000 29.0000 0.0000
      vertex 17.8129 6.4754 0.0000
      vertex 17.5000 6.5000 0.0000
    endloop
  endfacet
  facet normal 0 0 -1
    outer loop
      vertex 11.0000 29.0000 0.0000
      vertex 17.5000 6.5000 0.0000
      vertex 17.1870 6.4754 0.0000
    endloop
  endfacet
  facet normal 0 0 -1
    outer loop
      vertex 11.0000 29.0000 0.0000
      vertex 17.1870 6.4754 0.0000
      vertex 16.8820 6.4021 0.0000
    endloop
  endfacet
  facet normal 0 0 -1
    outer loop
      vertex 11.0000 29.0000 0.0000
      vertex 16.8820 6.4021 0.0000
      vertex 16.5920 6.2820 0.0000
    endloop
  endfacet
  facet normal 0 0 -1
    outer loop
      vertex 11.0000 29.0000 0.0000
      vertex 16.5920 6.2820 0.0000
      vertex 16.3240 6.1180 0.0000
    endloop
  endfacet
  facet normal 0 0 -1
    outer loop
      vertex 11.0000 29.0000 0.0000
      vertex 16.3240 6.1180 0.0000
      vertex 16.0860 5.9142 0.0000
    endloop
  endfacet
  facet normal 0 0 -1
    outer loop
      vertex 11.0000 29.0000 0.0000
      vertex 16.0860 5.9142 0.0000
      vertex 15.8820 5.6756 0.0000
    endloop
  endfacet
  facet normal 0 0 -1
    outer loop
      vertex 11.0000 29.0000 0.0000
      vertex 15.8820 5.6756 0.0000
      vertex 15.7180 5.4080 0.0000
    endloop
  endfacet
  facet normal 0 0 -1
    outer loop
      vertex 29.9000 26.0000 0.0000
      vertex 11.0000 29.0000 0.0000
      vertex 29.9000 29.0000 0.0000
    endloop
  endfacet
  facet normal 0 0 -1
    outer loop
      vertex 15.5980 5.1180 0.0000
      vertex 11.0000 29.0000 0.0000
      vertex 15.7180 5.4080 0.0000
    endloop
  endfacet
  facet normal 0 0 -1
    outer loop
      vertex 15.5250 4.8129 0.0000
      vertex 11.0000 29.0000 0.0000
      vertex 15.5980 5.1180 0.0000
    endloop
  endfacet
  facet normal 0 0 -1
    outer loop
      vertex 11.0000 29.0000 0.0000
      vertex 15.5250 4.8129 0.0000
      vertex 15.5000 4.5000 0.0000
    endloop
  endfacet
  facet normal 0 -1 0
    outer loop
      vertex 108.1000 45.5500 0.0000
      vertex 119.4000 45.5500 2.6000
      vertex 108.1000 45.5500 2.6000
    endloop
  endfacet
  facet normal 0 -1 -0
    outer loop
      vertex 119.4000 45.5500 2.6000
      vertex 108.1000 45.5500 0.0000
      vertex 119.4000 45.5500 0.0000
    endloop
  endfacet
  facet normal 0 1 -0
    outer loop
      vertex 119.4000 49.1500 0.0000
      vertex 108.0900 49.1500 2.6000
      vertex 119.4000 49.1500 2.6000
    endloop
  endfacet
  facet normal 0 1 0
    outer loop
      vertex 108.0900 49.1500 2.6000
      vertex 119.4000 49.1500 0.0000
      vertex 108.0900 49.1500 0.0000
    endloop
  endfacet
  facet normal -0 0 1
    outer loop
      vertex 108.1000 28.8500 2.6000
      vertex 119.4000 25.2500 2.6000
      vertex 119.4000 28.8500 2.6000
    endloop
  endfacet
  facet normal 0 0 1
    outer loop
      vertex 119.4000 25.2500 2.6000
      vertex 108.1000 28.8500 2.6000
      vertex 108.1000 25.2500 2.6000
    endloop
  endfacet
  facet normal 1 -0 0
    outer loop
      vertex 119.4000 25.2500 2.6000
      vertex 119.4000 28.8500 0.0000
      vertex 119.4000 28.8500 2.6000
    endloop
  endfacet
  facet normal 1 0 0
    outer loop
      vertex 119.4000 28.8500 0.0000
      vertex 119.4000 25.2500 2.6000
      vertex 119.4000 25.2500 0.0000
    endloop
  endfacet
  facet normal 0 -1 0
    outer loop
      vertex 108.1000 25.2500 0.0000
      vertex 119.4000 25.2500 2.6000
      vertex 108.1000 25.2500 2.6000
    endloop
  endfacet
  facet normal 0 -1 -0
    outer loop
      vertex 119.4000 25.2500 2.6000
      vertex 108.1000 25.2500 0.0000
      vertex 119.4000 25.2500 0.0000
    endloop
  endfacet
  facet normal 0 1 -0
    outer loop
      vertex 119.4000 28.8500 0.0000
      vertex 108.1000 28.8500 2.6000
      vertex 119.4000 28.8500 2.6000
    endloop
  endfacet
  facet normal 0 1 0
    outer loop
      vertex 108.1000 28.8500 2.6000
      vertex 119.4000 28.8500 0.0000
      vertex 108.1000 28.8500 0.0000
    endloop
  endfacet
  facet normal -0 0 1
    outer loop
      vertex 108.1000 8.5000 2.6000
      vertex 119.4000 4.9000 2.6000
      vertex 119.4000 8.5000 2.6000
    endloop
  endfacet
  facet normal 0 0 1
    outer loop
      vertex 119.4000 4.9000 2.6000
      vertex 108.1000 8.5000 2.6000
      vertex 108.1000 4.9000 2.6000
    endloop
  endfacet
  facet normal 1 -0 0
    outer loop
      vertex 119.4000 4.9000 2.6000
      vertex 119.4000 8.5000 0.0000
      vertex 119.4000 8.5000 2.6000
    endloop
  endfacet
  facet normal 1 0 0
    outer loop
      vertex 119.4000 8.5000 0.0000
      vertex 119.4000 4.9000 2.6000
      vertex 119.4000 4.9000 0.0000
    endloop
  endfacet
  facet normal 0 -1 0
    outer loop
      vertex 108.1000 4.9000 0.0000
      vertex 119.4000 4.9000 2.6000
      vertex 108.1000 4.9000 2.6000
    endloop
  endfacet
  facet normal 0 -1 -0
    outer loop
      vertex 119.4000 4.9000 2.6000
      vertex 108.1000 4.9000 0.0000
      vertex 119.4000 4.9000 0.0000
    endloop
  endfacet
  facet normal 0 1 -0
    outer loop
      vertex 119.4000 8.5000 0.0000
      vertex 108.1000 8.5000 2.6000
      vertex 119.4000 8.5000 2.6000
    endloop
  endfacet
  facet normal 0 1 0
    outer loop
      vertex 108.1000 8.5000 2.6000
      vertex 119.4000 8.5000 0.0000
      vertex 108.1000 8.5000 0.0000
    endloop
  endfacet
  facet normal 0 0 1
    outer loop
      vertex 4.5000 51.0000 6.2000
      vertex 0.0000 51.0000 6.2000
      vertex 4.5000 30.5000 6.2000
    endloop
  endfacet
  facet normal 0 0 1
    outer loop
      vertex 11.0000 30.5000 6.2000
      vertex 4.5000 30.5000 6.2000
      vertex 11.0000 29.0000 6.2000
    endloop
  endfacet
  facet normal -0 0 1
    outer loop
      vertex 11.0000 29.0000 6.2000
      vertex 29.9000 26.0000 6.2000
      vertex 29.9000 29.0000 6.2000
    endloop
  endfacet
  facet normal 0 0 1
    outer loop
      vertex 29.9000 26.0000 6.2000
      vertex 11.0000 29.0000 6.2000
      vertex 29.9000 4.5000 6.2000
    endloop
  endfacet
  facet normal 0 0 1
    outer loop
      vertex 0.0000 0.0000 6.2000
      vertex 29.9000 4.5000 6.2000
      vertex 11.0000 29.0000 6.2000
    endloop
  endfacet
  facet normal 0 0 1
    outer loop
      vertex 0.0000 0.0000 6.2000
      vertex 11.0000 29.0000 6.2000
      vertex 4.5000 30.5000 6.2000
    endloop
  endfacet
  facet normal 0 0 1
    outer loop
      vertex 29.9000 4.5000 6.2000
      vertex 0.0000 0.0000 6.2000
      vertex 29.9000 0.0000 6.2000
    endloop
  endfacet
  facet normal 0 0 1
    outer loop
      vertex 0.0000 0.0000 6.2000
      vertex 4.5000 30.5000 6.2000
      vertex 0.0000 51.0000 6.2000
    endloop
  endfacet
  facet normal 0 0 1
    outer loop
      vertex 103.6000 26.0000 6.2000
      vertex 108.1000 48.8000 6.2000
      vertex 103.6000 48.8000 6.2000
    endloop
  endfacet
  facet normal 0 0 1
    outer loop
      vertex 108.1000 48.8000 6.2000
      vertex 103.6000 26.0000 6.2000
      vertex 108.1000 4.5000 6.2000
    endloop
  endfacet
  facet normal 0 0 1
    outer loop
      vertex 29.9000 4.5000 6.2000
      vertex 103.6000 26.0000 6.2000
      vertex 29.9000 26.0000 6.2000
    endloop
  endfacet
  facet normal 0 0 1
    outer loop
      vertex 103.6000 26.0000 6.2000
      vertex 29.9000 4.5000 6.2000
      vertex 108.1000 4.5000 6.2000
    endloop
  endfacet
  facet normal -1 0 0
    outer loop
      vertex 103.6000 26.0000 0.0000
      vertex 103.6000 48.8000 6.2000
      vertex 103.6000 48.8000 0.0000
    endloop
  endfacet
  facet normal -1 -0 0
    outer loop
      vertex 103.6000 48.8000 6.2000
      vertex 103.6000 26.0000 0.0000
      vertex 103.6000 26.0000 6.2000
    endloop
  endfacet
  facet normal 1 0 0
    outer loop
      vertex 108.1000 48.8000 6.2000
      vertex 108.1000 45.5500 2.6000
      vertex 108.1000 48.8000 2.6000
    endloop
  endfacet
  facet normal 1 0 0
    outer loop
      vertex 108.1000 45.5500 2.6000
      vertex 108.1000 28.8500 2.6000
      vertex 108.1000 45.5500 0.0000
    endloop
  endfacet
  facet normal 1 0 0
    outer loop
      vertex 108.1000 48.8000 6.2000
      vertex 108.1000 28.8500 2.6000
      vertex 108.1000 45.5500 2.6000
    endloop
  endfacet
  facet normal 1 0 0
    outer loop
      vertex 108.1000 48.8000 6.2000
      vertex 108.1000 25.2500 2.6000
      vertex 108.1000 28.8500 2.6000
    endloop
  endfacet
  facet normal 1 0 0
    outer loop
      vertex 108.1000 25.2500 2.6000
      vertex 108.1000 8.5000 2.6000
      vertex 108.1000 25.2500 0.0000
    endloop
  endfacet
  facet normal 1 -0 0
    outer loop
      vertex 108.1000 4.5000 6.2000
      vertex 108.1000 25.2500 2.6000
      vertex 108.1000 48.8000 6.2000
    endloop
  endfacet
  facet normal 1 0 0
    outer loop
      vertex 108.1000 25.2500 2.6000
      vertex 108.1000 4.5000 6.2000
      vertex 108.1000 8.5000 2.6000
    endloop
  endfacet
  facet normal 1 0 0
    outer loop
      vertex 108.1000 8.5000 2.6000
      vertex 108.1000 4.5000 6.2000
      vertex 108.1000 4.9000 2.6000
    endloop
  endfacet
  facet normal 1 0 0
    outer loop
      vertex 108.1000 4.5000 0.0000
      vertex 108.1000 4.9000 2.6000
      vertex 108.1000 4.5000 6.2000
    endloop
  endfacet
  facet normal 1 0 0
    outer loop
      vertex 108.1000 4.9000 2.6000
      vertex 108.1000 4.5000 0.0000
      vertex 108.1000 4.9000 0.0000
    endloop
  endfacet
  facet normal 1 0 0
    outer loop
      vertex 108.1000 45.5500 0.0000
      vertex 108.1000 28.8500 2.6000
      vertex 108.1000 28.8500 0.0000
    endloop
  endfacet
  facet normal 1 0 0
    outer loop
      vertex 108.1000 25.2500 0.0000
      vertex 108.1000 8.5000 2.6000
      vertex 108.1000 8.5000 0.0000
    endloop
  endfacet
  facet normal 0 -1 0
    outer loop
      vertex 29.9000 4.5000 0.0000
      vertex 108.1000 4.5000 6.2000
      vertex 29.9000 4.5000 6.2000
    endloop
  endfacet
  facet normal 0 -1 -0
    outer loop
      vertex 108.1000 4.5000 6.2000
      vertex 29.9000 4.5000 0.0000
      vertex 108.1000 4.5000 0.0000
    endloop
  endfacet
  facet normal 0 1 0
    outer loop
      vertex 108.0900 48.8000 2.6000
      vertex 108.1000 48.8000 6.2000
      vertex 108.1000 48.8000 2.6000
    endloop
  endfacet
  facet normal 0 1 0
    outer loop
      vertex 108.1000 48.8000 6.2000
      vertex 108.0900 48.8000 2.6000
      vertex 103.6000 48.8000 6.2000
    endloop
  endfacet
  facet normal 0 1 0
    outer loop
      vertex 103.6000 48.8000 0.0000
      vertex 108.0900 48.8000 2.6000
      vertex 108.0900 48.8000 0.0000
    endloop
  endfacet
  facet normal 0 1 0
    outer loop
      vertex 108.0900 48.8000 2.6000
      vertex 103.6000 48.8000 0.0000
      vertex 103.6000 48.8000 6.2000
    endloop
  endfacet
  facet normal -1 0 0
    outer loop
      vertex 0.0000 51.0000 0.0000
      vertex 0.0000 28.9000 2.9000
      vertex 0.0000 51.0000 6.2000
    endloop
  endfacet
  facet normal -1 0 0
    outer loop
      vertex 0.0000 51.0000 0.0000
      vertex 0.0000 28.8754 2.5871
      vertex 0.0000 28.9000 2.9000
    endloop
  endfacet
  facet normal -1 0 0
    outer loop
      vertex 0.0000 51.0000 0.0000
      vertex 0.0000 28.8021 2.2820
      vertex 0.0000 28.8754 2.5871
    endloop
  endfacet
  facet normal -1 0 0
    outer loop
      vertex 0.0000 51.0000 0.0000
      vertex 0.0000 28.6820 1.9920
      vertex 0.0000 28.8021 2.2820
    endloop
  endfacet
  facet normal -1 0 0
    outer loop
      vertex 0.0000 51.0000 0.0000
      vertex 0.0000 28.5180 1.7244
      vertex 0.0000 28.6820 1.9920
    endloop
  endfacet
  facet normal -1 0 0
    outer loop
      vertex 0.0000 51.0000 0.0000
      vertex 0.0000 28.3142 1.4858
      vertex 0.0000 28.5180 1.7244
    endloop
  endfacet
  facet normal -1 0 0
    outer loop
      vertex 0.0000 51.0000 0.0000
      vertex 0.0000 28.0756 1.2820
      vertex 0.0000 28.3142 1.4858
    endloop
  endfacet
  facet normal -1 0 0
    outer loop
      vertex 0.0000 51.0000 0.0000
      vertex 0.0000 27.8080 1.1180
      vertex 0.0000 28.0756 1.2820
    endloop
  endfacet
  facet normal -1 0 0
    outer loop
      vertex 0.0000 51.0000 0.0000
      vertex 0.0000 27.5180 0.9979
      vertex 0.0000 27.8080 1.1180
    endloop
  endfacet
  facet normal -1 0 0
    outer loop
      vertex 0.0000 51.0000 0.0000
      vertex 0.0000 27.2129 0.9246
      vertex 0.0000 27.5180 0.9979
    endloop
  endfacet
  facet normal -1 0 0
    outer loop
      vertex 0.0000 51.0000 0.0000
      vertex 0.0000 26.9000 0.9000
      vertex 0.0000 27.2129 0.9246
    endloop
  endfacet
  facet normal -1 -0 0
    outer loop
      vertex 0.0000 24.9246 2.5871
      vertex 0.0000 0.0000 0.0000
      vertex 0.0000 24.9000 2.9000
    endloop
  endfacet
  facet normal -1 -0 0
    outer loop
      vertex 0.0000 24.9979 2.2820
      vertex 0.0000 0.0000 0.0000
      vertex 0.0000 24.9246 2.5871
    endloop
  endfacet
  facet normal -1 -0 0
    outer loop
      vertex 0.0000 25.1180 1.9920
      vertex 0.0000 0.0000 0.0000
      vertex 0.0000 24.9979 2.2820
    endloop
  endfacet
  facet normal -1 -0 0
    outer loop
      vertex 0.0000 25.2820 1.7244
      vertex 0.0000 0.0000 0.0000
      vertex 0.0000 25.1180 1.9920
    endloop
  endfacet
  facet normal -1 -0 0
    outer loop
      vertex 0.0000 25.4858 1.4858
      vertex 0.0000 0.0000 0.0000
      vertex 0.0000 25.2820 1.7244
    endloop
  endfacet
  facet normal -1 -0 0
    outer loop
      vertex 0.0000 25.7244 1.2820
      vertex 0.0000 0.0000 0.0000
      vertex 0.0000 25.4858 1.4858
    endloop
  endfacet
  facet normal -1 -0 0
    outer loop
      vertex 0.0000 25.9920 1.1180
      vertex 0.0000 0.0000 0.0000
      vertex 0.0000 25.7244 1.2820
    endloop
  endfacet
  facet normal -1 -0 0
    outer loop
      vertex 0.0000 26.2820 0.9979
      vertex 0.0000 0.0000 0.0000
      vertex 0.0000 25.9920 1.1180
    endloop
  endfacet
  facet normal -1 -0 0
    outer loop
      vertex 0.0000 26.5871 0.9246
      vertex 0.0000 0.0000 0.0000
      vertex 0.0000 26.2820 0.9979
    endloop
  endfacet
  facet normal -1 -0 0
    outer loop
      vertex 0.0000 26.9000 0.9000
      vertex 0.0000 0.0000 0.0000
      vertex 0.0000 26.5871 0.9246
    endloop
  endfacet
  facet normal -1 0 0
    outer loop
      vertex 0.0000 0.0000 0.0000
      vertex 0.0000 26.9000 0.9000
      vertex 0.0000 51.0000 0.0000
    endloop
  endfacet
  facet normal -1 0 0
    outer loop
      vertex 0.0000 28.8754 3.2129
      vertex 0.0000 51.0000 6.2000
      vertex 0.0000 28.9000 2.9000
    endloop
  endfacet
  facet normal -1 0 0
    outer loop
      vertex 0.0000 28.8021 3.5180
      vertex 0.0000 51.0000 6.2000
      vertex 0.0000 28.8754 3.2129
    endloop
  endfacet
  facet normal -1 0 0
    outer loop
      vertex 0.0000 28.6820 3.8080
      vertex 0.0000 51.0000 6.2000
      vertex 0.0000 28.8021 3.5180
    endloop
  endfacet
  facet normal -1 0 0
    outer loop
      vertex 0.0000 28.5180 4.0756
      vertex 0.0000 51.0000 6.2000
      vertex 0.0000 28.6820 3.8080
    endloop
  endfacet
  facet normal -1 0 0
    outer loop
      vertex 0.0000 28.3142 4.3142
      vertex 0.0000 51.0000 6.2000
      vertex 0.0000 28.5180 4.0756
    endloop
  endfacet
  facet normal -1 0 0
    outer loop
      vertex 0.0000 28.0756 4.5180
      vertex 0.0000 51.0000 6.2000
      vertex 0.0000 28.3142 4.3142
    endloop
  endfacet
  facet normal -1 0 0
    outer loop
      vertex 0.0000 27.8080 4.6820
      vertex 0.0000 51.0000 6.2000
      vertex 0.0000 28.0756 4.5180
    endloop
  endfacet
  facet normal -1 0 0
    outer loop
      vertex 0.0000 27.5180 4.8021
      vertex 0.0000 51.0000 6.2000
      vertex 0.0000 27.8080 4.6820
    endloop
  endfacet
  facet normal -1 0 0
    outer loop
      vertex 0.0000 27.2129 4.8754
      vertex 0.0000 51.0000 6.2000
      vertex 0.0000 27.5180 4.8021
    endloop
  endfacet
  facet normal -1 0 0
    outer loop
      vertex 0.0000 26.9000 4.9000
      vertex 0.0000 51.0000 6.2000
      vertex 0.0000 27.2129 4.8754
    endloop
  endfacet
  facet normal -1 0 0
    outer loop
      vertex 0.0000 0.0000 6.2000
      vertex 0.0000 24.9000 2.9000
      vertex 0.0000 0.0000 0.0000
    endloop
  endfacet
  facet normal -1 0 0
    outer loop
      vertex 0.0000 24.9000 2.9000
      vertex 0.0000 0.0000 6.2000
      vertex 0.0000 24.9246 3.2129
    endloop
  endfacet
  facet normal -1 0 0
    outer loop
      vertex 0.0000 24.9246 3.2129
      vertex 0.0000 0.0000 6.2000
      vertex 0.0000 24.9979 3.5180
    endloop
  endfacet
  facet normal -1 0 0
    outer loop
      vertex 0.0000 24.9979 3.5180
      vertex 0.0000 0.0000 6.2000
      vertex 0.0000 25.1180 3.8080
    endloop
  endfacet
  facet normal -1 0 0
    outer loop
      vertex 0.0000 25.1180 3.8080
      vertex 0.0000 0.0000 6.2000
      vertex 0.0000 25.2820 4.0756
    endloop
  endfacet
  facet normal -1 0 0
    outer loop
      vertex 0.0000 25.2820 4.0756
      vertex 0.0000 0.0000 6.2000
      vertex 0.0000 25.4858 4.3142
    endloop
  endfacet
  facet normal -1 0 0
    outer loop
      vertex 0.0000 25.4858 4.3142
      vertex 0.0000 0.0000 6.2000
      vertex 0.0000 25.7244 4.5180
    endloop
  endfacet
  facet normal -1 0 0
    outer loop
      vertex 0.0000 25.7244 4.5180
      vertex 0.0000 0.0000 6.2000
      vertex 0.0000 25.9920 4.6820
    endloop
  endfacet
  facet normal -1 0 0
    outer loop
      vertex 0.0000 25.9920 4.6820
      vertex 0.0000 0.0000 6.2000
      vertex 0.0000 26.2820 4.8021
    endloop
  endfacet
  facet normal -1 0 0
    outer loop
      vertex 0.0000 26.9000 4.9000
      vertex 0.0000 0.0000 6.2000
      vertex 0.0000 51.0000 6.2000
    endloop
  endfacet
  facet normal -1 0 0
    outer loop
      vertex 0.0000 26.5871 4.8754
      vertex 0.0000 0.0000 6.2000
      vertex 0.0000 26.9000 4.9000
    endloop
  endfacet
  facet normal -1 0 0
    outer loop
      vertex 0.0000 26.2820 4.8021
      vertex 0.0000 0.0000 6.2000
      vertex 0.0000 26.5871 4.8754
    endloop
  endfacet
  facet normal 0 1 -0
    outer loop
      vertex 103.6000 26.0000 0.0000
      vertex 29.9000 26.0000 6.2000
      vertex 103.6000 26.0000 6.2000
    endloop
  endfacet
  facet normal 0 1 0
    outer loop
      vertex 29.9000 26.0000 6.2000
      vertex 103.6000 26.0000 0.0000
      vertex 29.9000 26.0000 0.0000
    endloop
  endfacet
  facet normal 1 -0 0
    outer loop
      vertex 29.9000 0.0000 6.2000
      vertex 29.9000 4.5000 0.0000
      vertex 29.9000 4.5000 6.2000
    endloop
  endfacet
  facet normal 1 0 0
    outer loop
      vertex 29.9000 4.5000 0.0000
      vertex 29.9000 0.0000 6.2000
      vertex 29.9000 0.0000 0.0000
    endloop
  endfacet
  facet normal 1 -0 0
    outer loop
      vertex 29.9000 26.0000 6.2000
      vertex 29.9000 29.0000 0.0000
      vertex 29.9000 29.0000 6.2000
    endloop
  endfacet
  facet normal 1 0 0
    outer loop
      vertex 29.9000 29.0000 0.0000
      vertex 29.9000 26.0000 6.2000
      vertex 29.9000 26.0000 0.0000
    endloop
  endfacet
  facet normal 0 -1 0
    outer loop
      vertex 0.0000 0.0000 0.0000
      vertex 29.9000 0.0000 6.2000
      vertex 0.0000 0.0000 6.2000
    endloop
  endfacet
  facet normal 0 -1 -0
    outer loop
      vertex 29.9000 0.0000 6.2000
      vertex 0.0000 0.0000 0.0000
      vertex 29.9000 0.0000 0.0000
    endloop
  endfacet
  facet normal 0 1 -0
    outer loop
      vertex 29.9000 29.0000 0.0000
      vertex 11.0000 29.0000 6.2000
      vertex 29.9000 29.0000 6.2000
    endloop
  endfacet
  facet normal 0 1 0
    outer loop
      vertex 11.0000 29.0000 6.2000
      vertex 29.9000 29.0000 0.0000
      vertex 11.0000 29.0000 0.0000
    endloop
  endfacet
  facet normal 1 -0 0
    outer loop
      vertex 4.5000 30.5000 6.2000
      vertex 4.5000 51.0000 0.0000
      vertex 4.5000 51.0000 6.2000
    endloop
  endfacet
  facet normal 1 0 0
    outer loop
      vertex 4.5000 51.0000 0.0000
      vertex 4.5000 30.5000 6.2000
      vertex 4.5000 30.5000 0.0000
    endloop
  endfacet
  facet normal 0 1 -0
    outer loop
      vertex 4.5000 51.0000 0.0000
      vertex 0.0000 51.0000 6.2000
      vertex 4.5000 51.0000 6.2000
    endloop
  endfacet
  facet normal 0 1 0
    outer loop
      vertex 0.0000 51.0000 6.2000
      vertex 4.5000 51.0000 0.0000
      vertex 0.0000 51.0000 0.0000
    endloop
  endfacet
  facet normal 1 -0 0
    outer loop
      vertex 11.0000 29.0000 6.2000
      vertex 11.0000 30.5000 0.0000
      vertex 11.0000 30.5000 6.2000
    endloop
  endfacet
  facet normal 1 0 0
    outer loop
      vertex 11.0000 30.5000 0.0000
      vertex 11.0000 29.0000 6.2000
      vertex 11.0000 29.0000 0.0000
    endloop
  endfacet
  facet normal 0 1 -0
    outer loop
      vertex 11.0000 30.5000 0.0000
      vertex 4.5000 30.5000 6.2000
      vertex 11.0000 30.5000 6.2000
    endloop
  endfacet
  facet normal 0 1 0
    outer loop
      vertex 4.5000 30.5000 6.2000
      vertex 11.0000 30.5000 0.0000
      vertex 4.5000 30.5000 0.0000
    endloop
  endfacet
  facet normal 0 0.233512 -0.972354
    outer loop
      vertex 0.0000 26.2820 4.8021
      vertex 5.6000 26.5871 4.8754
      vertex 5.6000 26.2820 4.8021
    endloop
  endfacet
  facet normal 0 0.233512 -0.972354
    outer loop
      vertex 5.6000 26.5871 4.8754
      vertex 0.0000 26.2820 4.8021
      vertex 0.0000 26.5871 4.8754
    endloop
  endfacet
  facet normal 0 0.0784408 -0.996919
    outer loop
      vertex 0.0000 26.5871 4.8754
      vertex 5.6000 26.9000 4.9000
      vertex 5.6000 26.5871 4.8754
    endloop
  endfacet
  facet normal 0 0.0784408 -0.996919
    outer loop
      vertex 5.6000 26.9000 4.9000
      vertex 0.0000 26.5871 4.8754
      vertex 0.0000 26.9000 4.9000
    endloop
  endfacet
  facet normal 0 0.382624 -0.923904
    outer loop
      vertex 0.0000 25.9920 4.6820
      vertex 5.6000 26.2820 4.8021
      vertex 5.6000 25.9920 4.6820
    endloop
  endfacet
  facet normal 0 0.382624 -0.923904
    outer loop
      vertex 5.6000 26.2820 4.8021
      vertex 0.0000 25.9920 4.6820
      vertex 0.0000 26.2820 4.8021
    endloop
  endfacet
  facet normal -0 0.0784503 0.996918
    outer loop
      vertex 0.0000 26.9000 0.9000
      vertex 5.6000 26.5871 0.9246
      vertex 5.6000 26.9000 0.9000
    endloop
  endfacet
  facet normal 0 0.0784503 0.996918
    outer loop
      vertex 5.6000 26.5871 0.9246
      vertex 0.0000 26.9000 0.9000
      vertex 0.0000 26.5871 0.9246
    endloop
  endfacet
  facet normal 4.41497e-19 0.923881 -0.38268
    outer loop
      vertex 5.6000 24.9979 3.5180
      vertex 0.0000 25.1180 3.8080
      vertex 5.6000 25.1180 3.8080
    endloop
  endfacet
  facet normal 4.41497e-19 0.923881 -0.38268
    outer loop
      vertex 0.0000 25.1180 3.8080
      vertex 5.6000 24.9979 3.5180
      vertex 0.0000 24.9979 3.5180
    endloop
  endfacet
  facet normal 4.15867e-20 0.996923 -0.078385
    outer loop
      vertex 5.6000 24.9000 2.9000
      vertex 0.0000 24.9246 3.2129
      vertex 5.6000 24.9246 3.2129
    endloop
  endfacet
  facet normal 4.15867e-20 0.996923 -0.078385
    outer loop
      vertex 0.0000 24.9246 3.2129
      vertex 5.6000 24.9000 2.9000
      vertex 0.0000 24.9000 2.9000
    endloop
  endfacet
  facet normal 0 -0.0784408 -0.996919
    outer loop
      vertex 0.0000 26.9000 4.9000
      vertex 5.6000 27.2129 4.8754
      vertex 5.6000 26.9000 4.9000
    endloop
  endfacet
  facet normal -0 -0.0784408 -0.996919
    outer loop
      vertex 5.6000 27.2129 4.8754
      vertex 0.0000 26.9000 4.9000
      vertex 0.0000 27.2129 4.8754
    endloop
  endfacet
  facet normal -1.56924e-18 -0.852611 0.522546
    outer loop
      vertex 0.0000 28.5180 1.7244
      vertex 5.6000 28.6820 1.9920
      vertex 0.0000 28.6820 1.9920
    endloop
  endfacet
  facet normal -1.56924e-18 -0.852611 0.522546
    outer loop
      vertex 5.6000 28.6820 1.9920
      vertex 0.0000 28.5180 1.7244
      vertex 5.6000 28.5180 1.7244
    endloop
  endfacet
  facet normal 0 0.522486 -0.852648
    outer loop
      vertex 0.0000 25.7244 4.5180
      vertex 5.6000 25.9920 4.6820
      vertex 5.6000 25.7244 4.5180
    endloop
  endfacet
  facet normal 0 0.522486 -0.852648
    outer loop
      vertex 5.6000 25.9920 4.6820
      vertex 0.0000 25.7244 4.5180
      vertex 0.0000 25.9920 4.6820
    endloop
  endfacet
  facet normal 0 -0.522486 0.852648
    outer loop
      vertex 0.0000 28.0756 1.2820
      vertex 5.6000 27.8080 1.1180
      vertex 5.6000 28.0756 1.2820
    endloop
  endfacet
  facet normal 0 -0.522486 0.852648
    outer loop
      vertex 5.6000 27.8080 1.1180
      vertex 0.0000 28.0756 1.2820
      vertex 0.0000 27.8080 1.1180
    endloop
  endfacet
  facet normal -2.41366e-19 0.996923 0.078385
    outer loop
      vertex 5.6000 24.9246 2.5871
      vertex 0.0000 24.9000 2.9000
      vertex 5.6000 24.9000 2.9000
    endloop
  endfacet
  facet normal -2.41366e-19 0.996923 0.078385
    outer loop
      vertex 0.0000 24.9000 2.9000
      vertex 5.6000 24.9246 2.5871
      vertex 0.0000 24.9246 2.5871
    endloop
  endfacet
  facet normal 0 -0.382624 -0.923904
    outer loop
      vertex 0.0000 27.5180 4.8021
      vertex 5.6000 27.8080 4.6820
      vertex 5.6000 27.5180 4.8021
    endloop
  endfacet
  facet normal -0 -0.382624 -0.923904
    outer loop
      vertex 5.6000 27.8080 4.6820
      vertex 0.0000 27.5180 4.8021
      vertex 0.0000 27.8080 4.6820
    endloop
  endfacet
  facet normal -1.84889e-19 0.760434 0.649415
    outer loop
      vertex 5.6000 25.4858 1.4858
      vertex 0.0000 25.2820 1.7244
      vertex 5.6000 25.2820 1.7244
    endloop
  endfacet
  facet normal -1.84889e-19 0.760434 0.649415
    outer loop
      vertex 0.0000 25.2820 1.7244
      vertex 5.6000 25.4858 1.4858
      vertex 0.0000 25.4858 1.4858
    endloop
  endfacet
  facet normal -5.3997e-19 -0.972343 -0.233559
    outer loop
      vertex 0.0000 28.8754 3.2129
      vertex 5.6000 28.8021 3.5180
      vertex 0.0000 28.8021 3.5180
    endloop
  endfacet
  facet normal -5.3997e-19 -0.972343 -0.233559
    outer loop
      vertex 5.6000 28.8021 3.5180
      vertex 0.0000 28.8754 3.2129
      vertex 5.6000 28.8754 3.2129
    endloop
  endfacet
  facet normal 1.06057e-18 -0.923881 0.38268
    outer loop
      vertex 0.0000 28.6820 1.9920
      vertex 5.6000 28.8021 2.2820
      vertex 0.0000 28.8021 2.2820
    endloop
  endfacet
  facet normal 1.06057e-18 -0.923881 0.38268
    outer loop
      vertex 5.6000 28.8021 2.2820
      vertex 0.0000 28.6820 1.9920
      vertex 5.6000 28.6820 1.9920
    endloop
  endfacet
  facet normal 4.76168e-19 0.972343 -0.233559
    outer loop
      vertex 5.6000 24.9246 3.2129
      vertex 0.0000 24.9979 3.5180
      vertex 5.6000 24.9979 3.5180
    endloop
  endfacet
  facet normal 4.76168e-19 0.972343 -0.233559
    outer loop
      vertex 0.0000 24.9979 3.5180
      vertex 5.6000 24.9246 3.2129
      vertex 0.0000 24.9246 3.2129
    endloop
  endfacet
  facet normal 0 -0.382632 0.923901
    outer loop
      vertex 0.0000 27.8080 1.1180
      vertex 5.6000 27.5180 0.9979
      vertex 5.6000 27.8080 1.1180
    endloop
  endfacet
  facet normal 0 -0.382632 0.923901
    outer loop
      vertex 5.6000 27.5180 0.9979
      vertex 0.0000 27.8080 1.1180
      vertex 0.0000 27.5180 0.9979
    endloop
  endfacet
  facet normal 0 -0.0784503 0.996918
    outer loop
      vertex 0.0000 27.2129 0.9246
      vertex 5.6000 26.9000 0.9000
      vertex 5.6000 27.2129 0.9246
    endloop
  endfacet
  facet normal 0 -0.0784503 0.996918
    outer loop
      vertex 5.6000 26.9000 0.9000
      vertex 0.0000 27.2129 0.9246
      vertex 0.0000 26.9000 0.9000
    endloop
  endfacet
  facet normal 1.61724e-18 0.852611 0.522546
    outer loop
      vertex 5.6000 25.2820 1.7244
      vertex 0.0000 25.1180 1.9920
      vertex 5.6000 25.1180 1.9920
    endloop
  endfacet
  facet normal 1.61724e-18 0.852611 0.522546
    outer loop
      vertex 0.0000 25.1180 1.9920
      vertex 5.6000 25.2820 1.7244
      vertex 0.0000 25.2820 1.7244
    endloop
  endfacet
  facet normal -4.15867e-20 -0.996923 -0.078385
    outer loop
      vertex 0.0000 28.9000 2.9000
      vertex 5.6000 28.8754 3.2129
      vertex 0.0000 28.8754 3.2129
    endloop
  endfacet
  facet normal -4.15867e-20 -0.996923 -0.078385
    outer loop
      vertex 5.6000 28.8754 3.2129
      vertex 0.0000 28.9000 2.9000
      vertex 5.6000 28.9000 2.9000
    endloop
  endfacet
  facet normal 0 -0.522486 -0.852648
    outer loop
      vertex 0.0000 27.8080 4.6820
      vertex 5.6000 28.0756 4.5180
      vertex 5.6000 27.8080 4.6820
    endloop
  endfacet
  facet normal -0 -0.522486 -0.852648
    outer loop
      vertex 5.6000 28.0756 4.5180
      vertex 0.0000 27.8080 4.6820
      vertex 0.0000 28.0756 4.5180
    endloop
  endfacet
  facet normal -0 0.649515 0.760349
    outer loop
      vertex 0.0000 25.7244 1.2820
      vertex 5.6000 25.4858 1.4858
      vertex 5.6000 25.7244 1.2820
    endloop
  endfacet
  facet normal 0 0.649515 0.760349
    outer loop
      vertex 5.6000 25.4858 1.4858
      vertex 0.0000 25.7244 1.2820
      vertex 0.0000 25.4858 1.4858
    endloop
  endfacet
  facet normal -1.70402e-18 0.760434 -0.649415
    outer loop
      vertex 5.6000 25.2820 4.0756
      vertex 0.0000 25.4858 4.3142
      vertex 5.6000 25.4858 4.3142
    endloop
  endfacet
  facet normal -1.70402e-18 0.760434 -0.649415
    outer loop
      vertex 0.0000 25.4858 4.3142
      vertex 5.6000 25.2820 4.0756
      vertex 0.0000 25.2820 4.0756
    endloop
  endfacet
  facet normal -4.41497e-19 -0.923881 -0.38268
    outer loop
      vertex 0.0000 28.8021 3.5180
      vertex 5.6000 28.6820 3.8080
      vertex 0.0000 28.6820 3.8080
    endloop
  endfacet
  facet normal -4.41497e-19 -0.923881 -0.38268
    outer loop
      vertex 5.6000 28.6820 3.8080
      vertex 0.0000 28.8021 3.5180
      vertex 5.6000 28.8021 3.5180
    endloop
  endfacet
  facet normal 1.35169e-18 0.852611 -0.522546
    outer loop
      vertex 5.6000 25.1180 3.8080
      vertex 0.0000 25.2820 4.0756
      vertex 5.6000 25.2820 4.0756
    endloop
  endfacet
  facet normal 1.35169e-18 0.852611 -0.522546
    outer loop
      vertex 0.0000 25.2820 4.0756
      vertex 5.6000 25.1180 3.8080
      vertex 0.0000 25.1180 3.8080
    endloop
  endfacet
  facet normal -0 0.522486 0.852648
    outer loop
      vertex 0.0000 25.9920 1.1180
      vertex 5.6000 25.7244 1.2820
      vertex 5.6000 25.9920 1.1180
    endloop
  endfacet
  facet normal 0 0.522486 0.852648
    outer loop
      vertex 5.6000 25.7244 1.2820
      vertex 0.0000 25.9920 1.1180
      vertex 0.0000 25.7244 1.2820
    endloop
  endfacet
  facet normal -1.3997e-18 -0.852611 -0.522546
    outer loop
      vertex 0.0000 28.6820 3.8080
      vertex 5.6000 28.5180 4.0756
      vertex 0.0000 28.5180 4.0756
    endloop
  endfacet
  facet normal -1.3997e-18 -0.852611 -0.522546
    outer loop
      vertex 5.6000 28.5180 4.0756
      vertex 0.0000 28.6820 3.8080
      vertex 5.6000 28.6820 3.8080
    endloop
  endfacet
  facet normal 7.43022e-19 0.972343 0.233559
    outer loop
      vertex 5.6000 24.9979 2.2820
      vertex 0.0000 24.9246 2.5871
      vertex 5.6000 24.9246 2.5871
    endloop
  endfacet
  facet normal 7.43022e-19 0.972343 0.233559
    outer loop
      vertex 0.0000 24.9246 2.5871
      vertex 5.6000 24.9979 2.2820
      vertex 0.0000 24.9979 2.2820
    endloop
  endfacet
  facet normal 0 0.649515 -0.760349
    outer loop
      vertex 0.0000 25.4858 4.3142
      vertex 5.6000 25.7244 4.5180
      vertex 5.6000 25.4858 4.3142
    endloop
  endfacet
  facet normal 0 0.649515 -0.760349
    outer loop
      vertex 5.6000 25.7244 4.5180
      vertex 0.0000 25.4858 4.3142
      vertex 0.0000 25.7244 4.5180
    endloop
  endfacet
  facet normal 0 -0.649515 0.760349
    outer loop
      vertex 0.0000 28.3142 1.4858
      vertex 5.6000 28.0756 1.2820
      vertex 5.6000 28.3142 1.4858
    endloop
  endfacet
  facet normal 0 -0.649515 0.760349
    outer loop
      vertex 5.6000 28.0756 1.2820
      vertex 0.0000 28.3142 1.4858
      vertex 0.0000 28.0756 1.2820
    endloop
  endfacet
  facet normal 0 -0.649515 -0.760349
    outer loop
      vertex 0.0000 28.0756 4.5180
      vertex 5.6000 28.3142 4.3142
      vertex 5.6000 28.0756 4.5180
    endloop
  endfacet
  facet normal -0 -0.649515 -0.760349
    outer loop
      vertex 5.6000 28.3142 4.3142
      vertex 0.0000 28.0756 4.5180
      vertex 0.0000 28.3142 4.3142
    endloop
  endfacet
  facet normal 1.70402e-18 -0.760434 -0.649415
    outer loop
      vertex 0.0000 28.5180 4.0756
      vertex 5.6000 28.3142 4.3142
      vertex 0.0000 28.3142 4.3142
    endloop
  endfacet
  facet normal 1.70402e-18 -0.760434 -0.649415
    outer loop
      vertex 5.6000 28.3142 4.3142
      vertex 0.0000 28.5180 4.0756
      vertex 5.6000 28.5180 4.0756
    endloop
  endfacet
  facet normal 0 -0.233512 -0.972354
    outer loop
      vertex 0.0000 27.2129 4.8754
      vertex 5.6000 27.5180 4.8021
      vertex 5.6000 27.2129 4.8754
    endloop
  endfacet
  facet normal -0 -0.233512 -0.972354
    outer loop
      vertex 5.6000 27.5180 4.8021
      vertex 0.0000 27.2129 4.8754
      vertex 0.0000 27.5180 4.8021
    endloop
  endfacet
  facet normal 1.84889e-19 -0.760434 0.649415
    outer loop
      vertex 0.0000 28.3142 1.4858
      vertex 5.6000 28.5180 1.7244
      vertex 0.0000 28.5180 1.7244
    endloop
  endfacet
  facet normal 1.84889e-19 -0.760434 0.649415
    outer loop
      vertex 5.6000 28.5180 1.7244
      vertex 0.0000 28.3142 1.4858
      vertex 5.6000 28.3142 1.4858
    endloop
  endfacet
  facet normal 2.41366e-19 -0.996923 0.078385
    outer loop
      vertex 0.0000 28.8754 2.5871
      vertex 5.6000 28.9000 2.9000
      vertex 0.0000 28.9000 2.9000
    endloop
  endfacet
  facet normal 2.41366e-19 -0.996923 0.078385
    outer loop
      vertex 5.6000 28.9000 2.9000
      vertex 0.0000 28.8754 2.5871
      vertex 5.6000 28.8754 2.5871
    endloop
  endfacet
  facet normal 0 -0.233493 0.972358
    outer loop
      vertex 0.0000 27.5180 0.9979
      vertex 5.6000 27.2129 0.9246
      vertex 5.6000 27.5180 0.9979
    endloop
  endfacet
  facet normal 0 -0.233493 0.972358
    outer loop
      vertex 5.6000 27.2129 0.9246
      vertex 0.0000 27.5180 0.9979
      vertex 0.0000 27.2129 0.9246
    endloop
  endfacet
  facet normal -6.7922e-19 -0.972343 0.233559
    outer loop
      vertex 0.0000 28.8021 2.2820
      vertex 5.6000 28.8754 2.5871
      vertex 0.0000 28.8754 2.5871
    endloop
  endfacet
  facet normal -6.7922e-19 -0.972343 0.233559
    outer loop
      vertex 5.6000 28.8754 2.5871
      vertex 0.0000 28.8021 2.2820
      vertex 5.6000 28.8021 2.2820
    endloop
  endfacet
  facet normal -1.06057e-18 0.923881 0.38268
    outer loop
      vertex 5.6000 25.1180 1.9920
      vertex 0.0000 24.9979 2.2820
      vertex 5.6000 24.9979 2.2820
    endloop
  endfacet
  facet normal -1.06057e-18 0.923881 0.38268
    outer loop
      vertex 0.0000 24.9979 2.2820
      vertex 5.6000 25.1180 1.9920
      vertex 0.0000 25.1180 1.9920
    endloop
  endfacet
  facet normal -1 0 0
    outer loop
      vertex 5.6000 28.5500 2.9000
      vertex 5.6000 28.9000 2.9000
      vertex 5.6000 28.8754 2.5871
    endloop
  endfacet
  facet normal -1 0 0
    outer loop
      vertex 5.6000 28.4938 2.4730
      vertex 5.6000 28.8754 2.5871
      vertex 5.6000 28.8021 2.2820
    endloop
  endfacet
  facet normal -1 0 0
    outer loop
      vertex 5.6000 28.9000 2.9000
      vertex 5.6000 28.5500 2.9000
      vertex 5.6000 28.8754 3.2129
    endloop
  endfacet
  facet normal -1 0 0
    outer loop
      vertex 5.6000 28.4938 2.4730
      vertex 5.6000 28.8021 2.2820
      vertex 5.6000 28.6820 1.9920
    endloop
  endfacet
  facet normal -1 0 0
    outer loop
      vertex 5.6000 28.4938 3.3271
      vertex 5.6000 28.8754 3.2129
      vertex 5.6000 28.5500 2.9000
    endloop
  endfacet
  facet normal -1 0 0
    outer loop
      vertex 5.6000 28.8754 3.2129
      vertex 5.6000 28.4938 3.3271
      vertex 5.6000 28.8021 3.5180
    endloop
  endfacet
  facet normal -1 0 0
    outer loop
      vertex 5.6000 28.3289 2.0750
      vertex 5.6000 28.6820 1.9920
      vertex 5.6000 28.5180 1.7244
    endloop
  endfacet
  facet normal -1 -0 0
    outer loop
      vertex 5.6000 28.8754 2.5871
      vertex 5.6000 28.4938 2.4730
      vertex 5.6000 28.5500 2.9000
    endloop
  endfacet
  facet normal -1 0 0
    outer loop
      vertex 5.6000 28.6820 1.9920
      vertex 5.6000 28.3289 2.0750
      vertex 5.6000 28.4938 2.4730
    endloop
  endfacet
  facet normal -1 0 0
    outer loop
      vertex 5.6000 28.0667 1.7333
      vertex 5.6000 28.5180 1.7244
      vertex 5.6000 28.3142 1.4858
    endloop
  endfacet
  facet normal -1 0 0
    outer loop
      vertex 5.6000 28.0667 1.7333
      vertex 5.6000 28.3142 1.4858
      vertex 5.6000 28.0756 1.2820
    endloop
  endfacet
  facet normal -1 0 0
    outer loop
      vertex 5.6000 28.5180 1.7244
      vertex 5.6000 28.0667 1.7333
      vertex 5.6000 28.3289 2.0750
    endloop
  endfacet
  facet normal -1 0 0
    outer loop
      vertex 5.6000 27.7250 1.4711
      vertex 5.6000 28.0756 1.2820
      vertex 5.6000 27.8080 1.1180
    endloop
  endfacet
  facet normal -1 0 0
    outer loop
      vertex 5.6000 28.0756 1.2820
      vertex 5.6000 27.7250 1.4711
      vertex 5.6000 28.0667 1.7333
    endloop
  endfacet
  facet normal -1 0 0
    outer loop
      vertex 5.6000 27.5180 0.9979
      vertex 5.6000 27.7250 1.4711
      vertex 5.6000 27.8080 1.1180
    endloop
  endfacet
  facet normal -1 0 0
    outer loop
      vertex 5.6000 27.5180 0.9979
      vertex 5.6000 27.3271 1.3062
      vertex 5.6000 27.7250 1.4711
    endloop
  endfacet
  facet normal -1 0 0
    outer loop
      vertex 5.6000 27.2129 0.9246
      vertex 5.6000 27.3271 1.3062
      vertex 5.6000 27.5180 0.9979
    endloop
  endfacet
  facet normal -1 0 0
    outer loop
      vertex 5.6000 26.9000 1.2500
      vertex 5.6000 27.2129 0.9246
      vertex 5.6000 26.9000 0.9000
    endloop
  endfacet
  facet normal -1 0 0
    outer loop
      vertex 5.6000 27.2129 0.9246
      vertex 5.6000 26.9000 1.2500
      vertex 5.6000 27.3271 1.3062
    endloop
  endfacet
  facet normal -1 0 0
    outer loop
      vertex 5.6000 26.5871 0.9246
      vertex 5.6000 26.9000 1.2500
      vertex 5.6000 26.9000 0.9000
    endloop
  endfacet
  facet normal -1 0 0
    outer loop
      vertex 5.6000 26.5871 0.9246
      vertex 5.6000 26.4729 1.3062
      vertex 5.6000 26.9000 1.2500
    endloop
  endfacet
  facet normal -1 0 0
    outer loop
      vertex 5.6000 26.2820 0.9979
      vertex 5.6000 26.4729 1.3062
      vertex 5.6000 26.5871 0.9246
    endloop
  endfacet
  facet normal -1 0 0
    outer loop
      vertex 5.6000 26.2820 0.9979
      vertex 5.6000 26.0750 1.4711
      vertex 5.6000 26.4729 1.3062
    endloop
  endfacet
  facet normal -1 0 0
    outer loop
      vertex 5.6000 25.9920 1.1180
      vertex 5.6000 26.0750 1.4711
      vertex 5.6000 26.2820 0.9979
    endloop
  endfacet
  facet normal -1 0 0
    outer loop
      vertex 5.6000 25.7244 1.2820
      vertex 5.6000 26.0750 1.4711
      vertex 5.6000 25.9920 1.1180
    endloop
  endfacet
  facet normal -1 -0 0
    outer loop
      vertex 5.6000 26.0750 1.4711
      vertex 5.6000 25.7244 1.2820
      vertex 5.6000 25.7333 1.7333
    endloop
  endfacet
  facet normal -1 0 0
    outer loop
      vertex 5.6000 25.4858 1.4858
      vertex 5.6000 25.7333 1.7333
      vertex 5.6000 25.7244 1.2820
    endloop
  endfacet
  facet normal -1 0 0
    outer loop
      vertex 5.6000 25.2820 1.7244
      vertex 5.6000 25.7333 1.7333
      vertex 5.6000 25.4858 1.4858
    endloop
  endfacet
  facet normal -1 -0 0
    outer loop
      vertex 5.6000 25.7333 1.7333
      vertex 5.6000 25.2820 1.7244
      vertex 5.6000 25.4711 2.0750
    endloop
  endfacet
  facet normal -1 0 0
    outer loop
      vertex 5.6000 25.1180 1.9920
      vertex 5.6000 25.4711 2.0750
      vertex 5.6000 25.2820 1.7244
    endloop
  endfacet
  facet normal -1 -0 0
    outer loop
      vertex 5.6000 25.4711 2.0750
      vertex 5.6000 25.1180 1.9920
      vertex 5.6000 25.3062 2.4730
    endloop
  endfacet
  facet normal -1 0 0
    outer loop
      vertex 5.6000 24.9979 2.2820
      vertex 5.6000 25.3062 2.4730
      vertex 5.6000 25.1180 1.9920
    endloop
  endfacet
  facet normal -1 -0 0
    outer loop
      vertex 5.6000 28.8021 3.5180
      vertex 5.6000 28.4938 3.3271
      vertex 5.6000 28.6820 3.8080
    endloop
  endfacet
  facet normal -1 0 0
    outer loop
      vertex 5.6000 28.3289 3.7250
      vertex 5.6000 28.6820 3.8080
      vertex 5.6000 28.4938 3.3271
    endloop
  endfacet
  facet normal -1 -0 0
    outer loop
      vertex 5.6000 28.6820 3.8080
      vertex 5.6000 28.3289 3.7250
      vertex 5.6000 28.5180 4.0756
    endloop
  endfacet
  facet normal -1 0 0
    outer loop
      vertex 5.6000 28.0667 4.0667
      vertex 5.6000 28.5180 4.0756
      vertex 5.6000 28.3289 3.7250
    endloop
  endfacet
  facet normal -1 -0 0
    outer loop
      vertex 5.6000 28.5180 4.0756
      vertex 5.6000 28.0667 4.0667
      vertex 5.6000 28.3142 4.3142
    endloop
  endfacet
  facet normal -1 -0 0
    outer loop
      vertex 5.6000 28.3142 4.3142
      vertex 5.6000 28.0667 4.0667
      vertex 5.6000 28.0756 4.5180
    endloop
  endfacet
  facet normal -1 0 0
    outer loop
      vertex 5.6000 27.7250 4.3289
      vertex 5.6000 28.0756 4.5180
      vertex 5.6000 28.0667 4.0667
    endloop
  endfacet
  facet normal -1 -0 0
    outer loop
      vertex 5.6000 28.0756 4.5180
      vertex 5.6000 27.7250 4.3289
      vertex 5.6000 27.8080 4.6820
    endloop
  endfacet
  facet normal -1 0 0
    outer loop
      vertex 5.6000 27.7250 4.3289
      vertex 5.6000 27.5180 4.8021
      vertex 5.6000 27.8080 4.6820
    endloop
  endfacet
  facet normal -1 0 0
    outer loop
      vertex 5.6000 27.3271 4.4938
      vertex 5.6000 27.5180 4.8021
      vertex 5.6000 27.7250 4.3289
    endloop
  endfacet
  facet normal -1 0 0
    outer loop
      vertex 5.6000 27.3271 4.4938
      vertex 5.6000 27.2129 4.8754
      vertex 5.6000 27.5180 4.8021
    endloop
  endfacet
  facet normal -1 0 0
    outer loop
      vertex 5.6000 26.9000 4.5500
      vertex 5.6000 27.2129 4.8754
      vertex 5.6000 27.3271 4.4938
    endloop
  endfacet
  facet normal -1 0 0
    outer loop
      vertex 5.6000 26.9000 4.5500
      vertex 5.6000 26.9000 4.9000
      vertex 5.6000 27.2129 4.8754
    endloop
  endfacet
  facet normal -1 0 0
    outer loop
      vertex 5.6000 26.9000 4.5500
      vertex 5.6000 26.5871 4.8754
      vertex 5.6000 26.9000 4.9000
    endloop
  endfacet
  facet normal -1 0 0
    outer loop
      vertex 5.6000 26.4729 4.4938
      vertex 5.6000 26.5871 4.8754
      vertex 5.6000 26.9000 4.5500
    endloop
  endfacet
  facet normal -1 0 0
    outer loop
      vertex 5.6000 26.4729 4.4938
      vertex 5.6000 26.2820 4.8021
      vertex 5.6000 26.5871 4.8754
    endloop
  endfacet
  facet normal -1 0 0
    outer loop
      vertex 5.6000 26.0750 4.3289
      vertex 5.6000 26.2820 4.8021
      vertex 5.6000 26.4729 4.4938
    endloop
  endfacet
  facet normal -1 0 0
    outer loop
      vertex 5.6000 26.0750 4.3289
      vertex 5.6000 25.9920 4.6820
      vertex 5.6000 26.2820 4.8021
    endloop
  endfacet
  facet normal -1 0 0
    outer loop
      vertex 5.6000 25.7244 4.5180
      vertex 5.6000 26.0750 4.3289
      vertex 5.6000 25.7333 4.0667
    endloop
  endfacet
  facet normal -1 0 0
    outer loop
      vertex 5.6000 26.0750 4.3289
      vertex 5.6000 25.7244 4.5180
      vertex 5.6000 25.9920 4.6820
    endloop
  endfacet
  facet normal -1 0 0
    outer loop
      vertex 5.6000 25.7333 4.0667
      vertex 5.6000 25.4858 4.3142
      vertex 5.6000 25.7244 4.5180
    endloop
  endfacet
  facet normal -1 0 0
    outer loop
      vertex 5.6000 25.2820 4.0756
      vertex 5.6000 25.7333 4.0667
      vertex 5.6000 25.4711 3.7250
    endloop
  endfacet
  facet normal -1 0 0
    outer loop
      vertex 5.6000 25.1180 3.8080
      vertex 5.6000 25.4711 3.7250
      vertex 5.6000 25.3062 3.3271
    endloop
  endfacet
  facet normal -1 0 0
    outer loop
      vertex 5.6000 25.7333 4.0667
      vertex 5.6000 25.2820 4.0756
      vertex 5.6000 25.4858 4.3142
    endloop
  endfacet
  facet normal -1 0 0
    outer loop
      vertex 5.6000 24.9246 3.2129
      vertex 5.6000 25.3062 3.3271
      vertex 5.6000 25.2500 2.9000
    endloop
  endfacet
  facet normal -1 0 0
    outer loop
      vertex 5.6000 24.9246 2.5871
      vertex 5.6000 25.3062 2.4730
      vertex 5.6000 24.9979 2.2820
    endloop
  endfacet
  facet normal -1 0 0
    outer loop
      vertex 5.6000 25.4711 3.7250
      vertex 5.6000 25.1180 3.8080
      vertex 5.6000 25.2820 4.0756
    endloop
  endfacet
  facet normal -1 0 0
    outer loop
      vertex 5.6000 25.3062 2.4730
      vertex 5.6000 24.9246 2.5871
      vertex 5.6000 25.2500 2.9000
    endloop
  endfacet
  facet normal -1 0 0
    outer loop
      vertex 5.6000 25.3062 3.3271
      vertex 5.6000 24.9979 3.5180
      vertex 5.6000 25.1180 3.8080
    endloop
  endfacet
  facet normal -1 0 0
    outer loop
      vertex 5.6000 24.9000 2.9000
      vertex 5.6000 25.2500 2.9000
      vertex 5.6000 24.9246 2.5871
    endloop
  endfacet
  facet normal -1 -0 0
    outer loop
      vertex 5.6000 25.3062 3.3271
      vertex 5.6000 24.9246 3.2129
      vertex 5.6000 24.9979 3.5180
    endloop
  endfacet
  facet normal -1 0 0
    outer loop
      vertex 5.6000 25.2500 2.9000
      vertex 5.6000 24.9000 2.9000
      vertex 5.6000 24.9246 3.2129
    endloop
  endfacet
  facet normal -0 0.233493 0.972358
    outer loop
      vertex 0.0000 26.5871 0.9246
      vertex 5.6000 26.2820 0.9979
      vertex 5.6000 26.5871 0.9246
    endloop
  endfacet
  facet normal 0 0.233493 0.972358
    outer loop
      vertex 5.6000 26.2820 0.9979
      vertex 0.0000 26.5871 0.9246
      vertex 0.0000 26.2820 0.9979
    endloop
  endfacet
  facet normal -0 0.382632 0.923901
    outer loop
      vertex 0.0000 26.2820 0.9979
      vertex 5.6000 25.9920 1.1180
      vertex 5.6000 26.2820 0.9979
    endloop
  endfacet
  facet normal 0 0.382632 0.923901
    outer loop
      vertex 5.6000 25.9920 1.1180
      vertex 0.0000 26.2820 0.9979
      vertex 0.0000 25.9920 1.1180
    endloop
  endfacet
  facet normal 0 0.382732 -0.923859
    outer loop
      vertex 5.6000 26.0750 4.3289
      vertex 9.0000 26.4729 4.4938
      vertex 9.0000 26.0750 4.3289
    endloop
  endfacet
  facet normal 0 0.382732 -0.923859
    outer loop
      vertex 9.0000 26.4729 4.4938
      vertex 5.6000 26.0750 4.3289
      vertex 5.6000 26.4729 4.4938
    endloop
  endfacet
  facet normal 0 0.130506 -0.991447
    outer loop
      vertex 5.6000 26.4729 4.4938
      vertex 9.0000 26.9000 4.5500
      vertex 9.0000 26.4729 4.4938
    endloop
  endfacet
  facet normal 0 0.130506 -0.991447
    outer loop
      vertex 9.0000 26.9000 4.5500
      vertex 5.6000 26.4729 4.4938
      vertex 5.6000 26.9000 4.5500
    endloop
  endfacet
  facet normal 0 0.608782 -0.793337
    outer loop
      vertex 5.6000 25.7333 4.0667
      vertex 9.0000 26.0750 4.3289
      vertex 9.0000 25.7333 4.0667
    endloop
  endfacet
  facet normal 0 0.608782 -0.793337
    outer loop
      vertex 9.0000 26.0750 4.3289
      vertex 5.6000 25.7333 4.0667
      vertex 5.6000 26.0750 4.3289
    endloop
  endfacet
  facet normal 0 -0.608782 -0.793337
    outer loop
      vertex 5.6000 27.7250 4.3289
      vertex 9.0000 28.0667 4.0667
      vertex 9.0000 27.7250 4.3289
    endloop
  endfacet
  facet normal -0 -0.608782 -0.793337
    outer loop
      vertex 9.0000 28.0667 4.0667
      vertex 5.6000 27.7250 4.3289
      vertex 5.6000 28.0667 4.0667
    endloop
  endfacet
  facet normal -6.01288e-20 0.793374 -0.608734
    outer loop
      vertex 9.0000 25.4711 3.7250
      vertex 5.6000 25.7333 4.0667
      vertex 9.0000 25.7333 4.0667
    endloop
  endfacet
  facet normal -6.01288e-20 0.793374 -0.608734
    outer loop
      vertex 5.6000 25.7333 4.0667
      vertex 9.0000 25.4711 3.7250
      vertex 5.6000 25.4711 3.7250
    endloop
  endfacet
  facet normal -3.6394e-18 0.793374 0.608734
    outer loop
      vertex 9.0000 25.7333 1.7333
      vertex 5.6000 25.4711 2.0750
      vertex 9.0000 25.4711 2.0750
    endloop
  endfacet
  facet normal -3.6394e-18 0.793374 0.608734
    outer loop
      vertex 5.6000 25.4711 2.0750
      vertex 9.0000 25.7333 1.7333
      vertex 5.6000 25.7333 1.7333
    endloop
  endfacet
  facet normal 0 -0.130506 0.991447
    outer loop
      vertex 5.6000 27.3271 1.3062
      vertex 9.0000 26.9000 1.2500
      vertex 9.0000 27.3271 1.3062
    endloop
  endfacet
  facet normal 0 -0.130506 0.991447
    outer loop
      vertex 9.0000 26.9000 1.2500
      vertex 5.6000 27.3271 1.3062
      vertex 5.6000 26.9000 1.2500
    endloop
  endfacet
  facet normal 8.27831e-19 -0.923827 0.38281
    outer loop
      vertex 5.6000 28.3289 2.0750
      vertex 9.0000 28.4938 2.4730
      vertex 5.6000 28.4938 2.4730
    endloop
  endfacet
  facet normal 8.27831e-19 -0.923827 0.38281
    outer loop
      vertex 9.0000 28.4938 2.4730
      vertex 5.6000 28.3289 2.0750
      vertex 9.0000 28.3289 2.0750
    endloop
  endfacet
  facet normal 8.29484e-19 -0.991452 0.130476
    outer loop
      vertex 5.6000 28.4938 2.4730
      vertex 9.0000 28.5500 2.9000
      vertex 5.6000 28.5500 2.9000
    endloop
  endfacet
  facet normal 8.29484e-19 -0.991452 0.130476
    outer loop
      vertex 9.0000 28.5500 2.9000
      vertex 5.6000 28.4938 2.4730
      vertex 9.0000 28.4938 2.4730
    endloop
  endfacet
  facet normal -8.29484e-19 0.991452 0.130476
    outer loop
      vertex 9.0000 25.3062 2.4730
      vertex 5.6000 25.2500 2.9000
      vertex 9.0000 25.2500 2.9000
    endloop
  endfacet
  facet normal -8.29484e-19 0.991452 0.130476
    outer loop
      vertex 5.6000 25.2500 2.9000
      vertex 9.0000 25.3062 2.4730
      vertex 5.6000 25.3062 2.4730
    endloop
  endfacet
  facet normal 0 -0.130506 -0.991447
    outer loop
      vertex 5.6000 26.9000 4.5500
      vertex 9.0000 27.3271 4.4938
      vertex 9.0000 26.9000 4.5500
    endloop
  endfacet
  facet normal -0 -0.130506 -0.991447
    outer loop
      vertex 9.0000 27.3271 4.4938
      vertex 5.6000 26.9000 4.5500
      vertex 5.6000 27.3271 4.4938
    endloop
  endfacet
  facet normal 6.01288e-20 -0.793374 -0.608734
    outer loop
      vertex 5.6000 28.3289 3.7250
      vertex 9.0000 28.0667 4.0667
      vertex 5.6000 28.0667 4.0667
    endloop
  endfacet
  facet normal 6.01288e-20 -0.793374 -0.608734
    outer loop
      vertex 9.0000 28.0667 4.0667
      vertex 5.6000 28.3289 3.7250
      vertex 9.0000 28.3289 3.7250
    endloop
  endfacet
  facet normal 3.45066e-18 0.923827 -0.38281
    outer loop
      vertex 9.0000 25.3062 3.3271
      vertex 5.6000 25.4711 3.7250
      vertex 9.0000 25.4711 3.7250
    endloop
  endfacet
  facet normal 3.45066e-18 0.923827 -0.38281
    outer loop
      vertex 5.6000 25.4711 3.7250
      vertex 9.0000 25.3062 3.3271
      vertex 5.6000 25.3062 3.3271
    endloop
  endfacet
  facet normal -8.29484e-19 -0.991452 -0.130476
    outer loop
      vertex 5.6000 28.5500 2.9000
      vertex 9.0000 28.4938 3.3271
      vertex 5.6000 28.4938 3.3271
    endloop
  endfacet
  facet normal -8.29484e-19 -0.991452 -0.130476
    outer loop
      vertex 9.0000 28.4938 3.3271
      vertex 5.6000 28.5500 2.9000
      vertex 9.0000 28.5500 2.9000
    endloop
  endfacet
  facet normal 8.29484e-19 0.991452 -0.130476
    outer loop
      vertex 9.0000 25.2500 2.9000
      vertex 5.6000 25.3062 3.3271
      vertex 9.0000 25.3062 3.3271
    endloop
  endfacet
  facet normal 8.29484e-19 0.991452 -0.130476
    outer loop
      vertex 5.6000 25.3062 3.3271
      vertex 9.0000 25.2500 2.9000
      vertex 5.6000 25.2500 2.9000
    endloop
  endfacet
  facet normal -8.27831e-19 0.923827 0.38281
    outer loop
      vertex 9.0000 25.4711 2.0750
      vertex 5.6000 25.3062 2.4730
      vertex 9.0000 25.3062 2.4730
    endloop
  endfacet
  facet normal -8.27831e-19 0.923827 0.38281
    outer loop
      vertex 5.6000 25.3062 2.4730
      vertex 9.0000 25.4711 2.0750
      vertex 5.6000 25.4711 2.0750
    endloop
  endfacet
  facet normal -3.45066e-18 -0.923827 -0.38281
    outer loop
      vertex 5.6000 28.4938 3.3271
      vertex 9.0000 28.3289 3.7250
      vertex 5.6000 28.3289 3.7250
    endloop
  endfacet
  facet normal -3.45066e-18 -0.923827 -0.38281
    outer loop
      vertex 9.0000 28.3289 3.7250
      vertex 5.6000 28.4938 3.3271
      vertex 9.0000 28.4938 3.3271
    endloop
  endfacet
  facet normal 0 -0.382732 -0.923859
    outer loop
      vertex 5.6000 27.3271 4.4938
      vertex 9.0000 27.7250 4.3289
      vertex 9.0000 27.3271 4.4938
    endloop
  endfacet
  facet normal -0 -0.382732 -0.923859
    outer loop
      vertex 9.0000 27.7250 4.3289
      vertex 5.6000 27.3271 4.4938
      vertex 5.6000 27.7250 4.3289
    endloop
  endfacet
  facet normal -0 0.130506 0.991447
    outer loop
      vertex 5.6000 26.9000 1.2500
      vertex 9.0000 26.4729 1.3062
      vertex 9.0000 26.9000 1.2500
    endloop
  endfacet
  facet normal 0 0.130506 0.991447
    outer loop
      vertex 9.0000 26.4729 1.3062
      vertex 5.6000 26.9000 1.2500
      vertex 5.6000 26.4729 1.3062
    endloop
  endfacet
  facet normal 0 -0.608782 0.793337
    outer loop
      vertex 5.6000 28.0667 1.7333
      vertex 9.0000 27.7250 1.4711
      vertex 9.0000 28.0667 1.7333
    endloop
  endfacet
  facet normal 0 -0.608782 0.793337
    outer loop
      vertex 9.0000 27.7250 1.4711
      vertex 5.6000 28.0667 1.7333
      vertex 5.6000 27.7250 1.4711
    endloop
  endfacet
  facet normal -0 0.382732 0.923859
    outer loop
      vertex 5.6000 26.4729 1.3062
      vertex 9.0000 26.0750 1.4711
      vertex 9.0000 26.4729 1.3062
    endloop
  endfacet
  facet normal 0 0.382732 0.923859
    outer loop
      vertex 9.0000 26.0750 1.4711
      vertex 5.6000 26.4729 1.3062
      vertex 5.6000 26.0750 1.4711
    endloop
  endfacet
  facet normal -0 0.608782 0.793337
    outer loop
      vertex 5.6000 26.0750 1.4711
      vertex 9.0000 25.7333 1.7333
      vertex 9.0000 26.0750 1.4711
    endloop
  endfacet
  facet normal 0 0.608782 0.793337
    outer loop
      vertex 9.0000 25.7333 1.7333
      vertex 5.6000 26.0750 1.4711
      vertex 5.6000 25.7333 1.7333
    endloop
  endfacet
  facet normal 0 -0.382732 0.923859
    outer loop
      vertex 5.6000 27.7250 1.4711
      vertex 9.0000 27.3271 1.3062
      vertex 9.0000 27.7250 1.4711
    endloop
  endfacet
  facet normal 0 -0.382732 0.923859
    outer loop
      vertex 9.0000 27.3271 1.3062
      vertex 5.6000 27.7250 1.4711
      vertex 5.6000 27.3271 1.3062
    endloop
  endfacet
  facet normal -1 0 0
    outer loop
      vertex 9.0000 28.4938 2.4730
      vertex 9.0000 28.4938 3.3271
      vertex 9.0000 28.5500 2.9000
    endloop
  endfacet
  facet normal -1 0 0
    outer loop
      vertex 9.0000 28.3289 2.0750
      vertex 9.0000 28.4938 3.3271
      vertex 9.0000 28.4938 2.4730
    endloop
  endfacet
  facet normal -1 0 0
    outer loop
      vertex 9.0000 28.3289 2.0750
      vertex 9.0000 28.3289 3.7250
      vertex 9.0000 28.4938 3.3271
    endloop
  endfacet
  facet normal -1 0 0
    outer loop
      vertex 9.0000 28.0667 1.7333
      vertex 9.0000 28.3289 3.7250
      vertex 9.0000 28.3289 2.0750
    endloop
  endfacet
  facet normal -1 0 0
    outer loop
      vertex 9.0000 28.0667 1.7333
      vertex 9.0000 28.0667 4.0667
      vertex 9.0000 28.3289 3.7250
    endloop
  endfacet
  facet normal -1 0 0
    outer loop
      vertex 9.0000 27.7250 1.4711
      vertex 9.0000 28.0667 4.0667
      vertex 9.0000 28.0667 1.7333
    endloop
  endfacet
  facet normal -1 0 0
    outer loop
      vertex 9.0000 27.7250 1.4711
      vertex 9.0000 27.7250 4.3289
      vertex 9.0000 28.0667 4.0667
    endloop
  endfacet
  facet normal -1 0 0
    outer loop
      vertex 9.0000 27.3271 1.3062
      vertex 9.0000 27.7250 4.3289
      vertex 9.0000 27.7250 1.4711
    endloop
  endfacet
  facet normal -1 0 0
    outer loop
      vertex 9.0000 27.3271 1.3062
      vertex 9.0000 27.3271 4.4938
      vertex 9.0000 27.7250 4.3289
    endloop
  endfacet
  facet normal -1 0 0
    outer loop
      vertex 9.0000 26.9000 1.2500
      vertex 9.0000 27.3271 4.4938
      vertex 9.0000 27.3271 1.3062
    endloop
  endfacet
  facet normal -1 0 0
    outer loop
      vertex 9.0000 26.9000 1.2500
      vertex 9.0000 26.9000 4.5500
      vertex 9.0000 27.3271 4.4938
    endloop
  endfacet
  facet normal -1 0 0
    outer loop
      vertex 9.0000 26.4729 1.3062
      vertex 9.0000 26.9000 4.5500
      vertex 9.0000 26.9000 1.2500
    endloop
  endfacet
  facet normal -1 0 0
    outer loop
      vertex 9.0000 26.4729 1.3062
      vertex 9.0000 26.4729 4.4938
      vertex 9.0000 26.9000 4.5500
    endloop
  endfacet
  facet normal -1 0 0
    outer loop
      vertex 9.0000 26.0750 1.4711
      vertex 9.0000 26.4729 4.4938
      vertex 9.0000 26.4729 1.3062
    endloop
  endfacet
  facet normal -1 0 0
    outer loop
      vertex 9.0000 26.0750 1.4711
      vertex 9.0000 26.0750 4.3289
      vertex 9.0000 26.4729 4.4938
    endloop
  endfacet
  facet normal -1 0 0
    outer loop
      vertex 9.0000 25.7333 1.7333
      vertex 9.0000 26.0750 4.3289
      vertex 9.0000 26.0750 1.4711
    endloop
  endfacet
  facet normal -1 0 0
    outer loop
      vertex 9.0000 25.7333 1.7333
      vertex 9.0000 25.7333 4.0667
      vertex 9.0000 26.0750 4.3289
    endloop
  endfacet
  facet normal -1 0 0
    outer loop
      vertex 9.0000 25.4711 2.0750
      vertex 9.0000 25.7333 4.0667
      vertex 9.0000 25.7333 1.7333
    endloop
  endfacet
  facet normal -1 0 0
    outer loop
      vertex 9.0000 25.4711 2.0750
      vertex 9.0000 25.4711 3.7250
      vertex 9.0000 25.7333 4.0667
    endloop
  endfacet
  facet normal -1 0 0
    outer loop
      vertex 9.0000 25.3062 2.4730
      vertex 9.0000 25.4711 3.7250
      vertex 9.0000 25.4711 2.0750
    endloop
  endfacet
  facet normal -1 0 0
    outer loop
      vertex 9.0000 25.3062 2.4730
      vertex 9.0000 25.3062 3.3271
      vertex 9.0000 25.4711 3.7250
    endloop
  endfacet
  facet normal -1 0 -0
    outer loop
      vertex 9.0000 25.3062 3.3271
      vertex 9.0000 25.3062 2.4730
      vertex 9.0000 25.2500 2.9000
    endloop
  endfacet
  facet normal 3.6394e-18 -0.793374 0.608734
    outer loop
      vertex 5.6000 28.0667 1.7333
      vertex 9.0000 28.3289 2.0750
      vertex 5.6000 28.3289 2.0750
    endloop
  endfacet
  facet normal 3.6394e-18 -0.793374 0.608734
    outer loop
      vertex 9.0000 28.3289 2.0750
      vertex 5.6000 28.0667 1.7333
      vertex 9.0000 28.0667 1.7333
    endloop
  endfacet
  facet normal -0.923904 0.382624 7.97854e-19
    outer loop
      vertex 19.2820 3.5920 0.0000
      vertex 19.4021 3.8820 5.6000
      vertex 19.4021 3.8820 0.0000
    endloop
  endfacet
  facet normal -0.923904 0.382624 7.97854e-19
    outer loop
      vertex 19.4021 3.8820 5.6000
      vertex 19.2820 3.5920 0.0000
      vertex 19.2820 3.5920 5.6000
    endloop
  endfacet
  facet normal -0.923904 -0.382624 -7.97854e-19
    outer loop
      vertex 19.4021 5.1180 0.0000
      vertex 19.2820 5.4080 5.6000
      vertex 19.2820 5.4080 0.0000
    endloop
  endfacet
  facet normal -0.923904 -0.382624 -7.97854e-19
    outer loop
      vertex 19.2820 5.4080 5.6000
      vertex 19.4021 5.1180 0.0000
      vertex 19.4021 5.1180 5.6000
    endloop
  endfacet
  facet normal -0.382624 0.923904 0
    outer loop
      vertex 18.4080 2.7180 0.0000
      vertex 18.1180 2.5979 5.6000
      vertex 18.4080 2.7180 5.6000
    endloop
  endfacet
  facet normal -0.382624 0.923904 0
    outer loop
      vertex 18.1180 2.5979 5.6000
      vertex 18.4080 2.7180 0.0000
      vertex 18.1180 2.5979 0.0000
    endloop
  endfacet
  facet normal 0.972549 -0.232698 9.68698e-19
    outer loop
      vertex 15.5250 4.8129 5.6000
      vertex 15.5980 5.1180 0.0000
      vertex 15.5980 5.1180 5.6000
    endloop
  endfacet
  facet normal 0.972549 -0.232698 9.68698e-19
    outer loop
      vertex 15.5980 5.1180 0.0000
      vertex 15.5250 4.8129 5.6000
      vertex 15.5250 4.8129 0.0000
    endloop
  endfacet
  facet normal 0.0783526 -0.996926 0
    outer loop
      vertex 17.1870 6.4754 0.0000
      vertex 17.5000 6.5000 5.6000
      vertex 17.1870 6.4754 5.6000
    endloop
  endfacet
  facet normal 0.0783526 -0.996926 0
    outer loop
      vertex 17.5000 6.5000 5.6000
      vertex 17.1870 6.4754 0.0000
      vertex 17.5000 6.5000 0.0000
    endloop
  endfacet
  facet normal -0.85262 0.522532 1.1554e-18
    outer loop
      vertex 19.1180 3.3244 0.0000
      vertex 19.2820 3.5920 5.6000
      vertex 19.2820 3.5920 0.0000
    endloop
  endfacet
  facet normal -0.85262 0.522532 1.1554e-18
    outer loop
      vertex 19.2820 3.5920 5.6000
      vertex 19.1180 3.3244 0.0000
      vertex 19.1180 3.3244 5.6000
    endloop
  endfacet
  facet normal -0.996924 0.0783775 -7.02903e-21
    outer loop
      vertex 19.4754 4.1871 0.0000
      vertex 19.5000 4.5000 5.6000
      vertex 19.5000 4.5000 0.0000
    endloop
  endfacet
  facet normal -0.996924 0.0783775 -7.02903e-21
    outer loop
      vertex 19.5000 4.5000 5.6000
      vertex 19.4754 4.1871 0.0000
      vertex 19.4754 4.1871 5.6000
    endloop
  endfacet
  facet normal -0.649478 0.76038 0
    outer loop
      vertex 18.9142 3.0858 0.0000
      vertex 18.6756 2.8820 5.6000
      vertex 18.9142 3.0858 5.6000
    endloop
  endfacet
  facet normal -0.649478 0.76038 0
    outer loop
      vertex 18.6756 2.8820 5.6000
      vertex 18.9142 3.0858 0.0000
      vertex 18.6756 2.8820 0.0000
    endloop
  endfacet
  facet normal -0.996924 -0.0783775 7.02903e-21
    outer loop
      vertex 19.5000 4.5000 0.0000
      vertex 19.4754 4.8129 5.6000
      vertex 19.4754 4.8129 0.0000
    endloop
  endfacet
  facet normal -0.996924 -0.0783775 7.02903e-21
    outer loop
      vertex 19.4754 4.8129 5.6000
      vertex 19.5000 4.5000 0.0000
      vertex 19.5000 4.5000 5.6000
    endloop
  endfacet
  facet normal -0.972332 -0.233602 -4.30043e-20
    outer loop
      vertex 19.4754 4.8129 0.0000
      vertex 19.4021 5.1180 5.6000
      vertex 19.4021 5.1180 0.0000
    endloop
  endfacet
  facet normal -0.972332 -0.233602 -4.30043e-20
    outer loop
      vertex 19.4021 5.1180 5.6000
      vertex 19.4754 4.8129 0.0000
      vertex 19.4754 4.8129 5.6000
    endloop
  endfacet
  facet normal 0.521965 -0.852967 0
    outer loop
      vertex 16.3240 6.1180 0.0000
      vertex 16.5920 6.2820 5.6000
      vertex 16.3240 6.1180 5.6000
    endloop
  endfacet
  facet normal 0.521965 -0.852967 0
    outer loop
      vertex 16.5920 6.2820 5.6000
      vertex 16.3240 6.1180 0.0000
      vertex 16.5920 6.2820 0.0000
    endloop
  endfacet
  facet normal 0.924017 0.382352 1.36445e-18
    outer loop
      vertex 15.7180 3.5920 5.6000
      vertex 15.5980 3.8820 0.0000
      vertex 15.5980 3.8820 5.6000
    endloop
  endfacet
  facet normal 0.924017 0.382352 1.36445e-18
    outer loop
      vertex 15.5980 3.8820 0.0000
      vertex 15.7180 3.5920 5.6000
      vertex 15.7180 3.5920 0.0000
    endloop
  endfacet
  facet normal 0.233674 0.972315 -0
    outer loop
      vertex 17.1870 2.5246 0.0000
      vertex 16.8820 2.5979 5.6000
      vertex 17.1870 2.5246 5.6000
    endloop
  endfacet
  facet normal 0.233674 0.972315 0
    outer loop
      vertex 16.8820 2.5979 5.6000
      vertex 17.1870 2.5246 0.0000
      vertex 16.8820 2.5979 0.0000
    endloop
  endfacet
  facet normal 0.0783526 0.996926 -0
    outer loop
      vertex 17.5000 2.5000 0.0000
      vertex 17.1870 2.5246 5.6000
      vertex 17.5000 2.5000 5.6000
    endloop
  endfacet
  facet normal 0.0783526 0.996926 0
    outer loop
      vertex 17.1870 2.5246 5.6000
      vertex 17.5000 2.5000 0.0000
      vertex 17.1870 2.5246 0.0000
    endloop
  endfacet
  facet normal 0.382624 -0.923904 0
    outer loop
      vertex 16.5920 6.2820 0.0000
      vertex 16.8820 6.4021 5.6000
      vertex 16.5920 6.2820 5.6000
    endloop
  endfacet
  facet normal 0.382624 -0.923904 0
    outer loop
      vertex 16.8820 6.4021 5.6000
      vertex 16.5920 6.2820 0.0000
      vertex 16.8820 6.4021 0.0000
    endloop
  endfacet
  facet normal -0.76038 0.649478 1.24677e-18
    outer loop
      vertex 18.9142 3.0858 0.0000
      vertex 19.1180 3.3244 5.6000
      vertex 19.1180 3.3244 0.0000
    endloop
  endfacet
  facet normal -0.76038 0.649478 1.24677e-18
    outer loop
      vertex 19.1180 3.3244 5.6000
      vertex 18.9142 3.0858 0.0000
      vertex 18.9142 3.0858 5.6000
    endloop
  endfacet
  facet normal 0.85262 0.522532 -1.1554e-18
    outer loop
      vertex 15.8820 3.3244 5.6000
      vertex 15.7180 3.5920 0.0000
      vertex 15.7180 3.5920 5.6000
    endloop
  endfacet
  facet normal 0.85262 0.522532 -1.1554e-18
    outer loop
      vertex 15.7180 3.5920 0.0000
      vertex 15.8820 3.3244 5.6000
      vertex 15.8820 3.3244 0.0000
    endloop
  endfacet
  facet normal -0.972332 0.233602 4.30043e-20
    outer loop
      vertex 19.4021 3.8820 0.0000
      vertex 19.4754 4.1871 5.6000
      vertex 19.4754 4.1871 0.0000
    endloop
  endfacet
  facet normal -0.972332 0.233602 4.30043e-20
    outer loop
      vertex 19.4754 4.1871 5.6000
      vertex 19.4021 3.8820 0.0000
      vertex 19.4021 3.8820 5.6000
    endloop
  endfacet
  facet normal 0.650423 0.759572 -0
    outer loop
      vertex 16.3240 2.8820 0.0000
      vertex 16.0860 3.0858 5.6000
      vertex 16.3240 2.8820 5.6000
    endloop
  endfacet
  facet normal 0.650423 0.759572 0
    outer loop
      vertex 16.0860 3.0858 5.6000
      vertex 16.3240 2.8820 0.0000
      vertex 16.0860 3.0858 0.0000
    endloop
  endfacet
  facet normal 0.521965 0.852967 -0
    outer loop
      vertex 16.5920 2.7180 0.0000
      vertex 16.3240 2.8820 5.6000
      vertex 16.5920 2.7180 5.6000
    endloop
  endfacet
  facet normal 0.521965 0.852967 0
    outer loop
      vertex 16.3240 2.8820 5.6000
      vertex 16.5920 2.7180 0.0000
      vertex 16.3240 2.8820 0.0000
    endloop
  endfacet
  facet normal 0.996823 -0.0796439 1.09265e-19
    outer loop
      vertex 15.5000 4.5000 5.6000
      vertex 15.5250 4.8129 0.0000
      vertex 15.5250 4.8129 5.6000
    endloop
  endfacet
  facet normal 0.996823 -0.0796439 1.09265e-19
    outer loop
      vertex 15.5250 4.8129 0.0000
      vertex 15.5000 4.5000 5.6000
      vertex 15.5000 4.5000 0.0000
    endloop
  endfacet
  facet normal 0.760066 -0.649846 -9.8551e-19
    outer loop
      vertex 15.8820 5.6756 5.6000
      vertex 16.0860 5.9142 0.0000
      vertex 16.0860 5.9142 5.6000
    endloop
  endfacet
  facet normal 0.760066 -0.649846 -9.8551e-19
    outer loop
      vertex 16.0860 5.9142 0.0000
      vertex 15.8820 5.6756 5.6000
      vertex 15.8820 5.6756 0.0000
    endloop
  endfacet
  facet normal -0.233602 -0.972332 0
    outer loop
      vertex 17.8129 6.4754 0.0000
      vertex 18.1180 6.4021 5.6000
      vertex 17.8129 6.4754 5.6000
    endloop
  endfacet
  facet normal -0.233602 -0.972332 -0
    outer loop
      vertex 18.1180 6.4021 5.6000
      vertex 17.8129 6.4754 0.0000
      vertex 18.1180 6.4021 0.0000
    endloop
  endfacet
  facet normal 0 0 -1
    outer loop
      vertex 19.4754 4.1871 5.6000
      vertex 19.4754 4.8129 5.6000
      vertex 19.5000 4.5000 5.6000
    endloop
  endfacet
  facet normal 0 0 -1
    outer loop
      vertex 19.4021 3.8820 5.6000
      vertex 19.4754 4.8129 5.6000
      vertex 19.4754 4.1871 5.6000
    endloop
  endfacet
  facet normal 0 0 -1
    outer loop
      vertex 19.4021 3.8820 5.6000
      vertex 19.4021 5.1180 5.6000
      vertex 19.4754 4.8129 5.6000
    endloop
  endfacet
  facet normal 0 0 -1
    outer loop
      vertex 19.2820 3.5920 5.6000
      vertex 19.4021 5.1180 5.6000
      vertex 19.4021 3.8820 5.6000
    endloop
  endfacet
  facet normal 0 0 -1
    outer loop
      vertex 19.2820 3.5920 5.6000
      vertex 19.2820 5.4080 5.6000
      vertex 19.4021 5.1180 5.6000
    endloop
  endfacet
  facet normal 0 0 -1
    outer loop
      vertex 19.1180 3.3244 5.6000
      vertex 19.2820 5.4080 5.6000
      vertex 19.2820 3.5920 5.6000
    endloop
  endfacet
  facet normal 0 0 -1
    outer loop
      vertex 19.1180 3.3244 5.6000
      vertex 19.1180 5.6756 5.6000
      vertex 19.2820 5.4080 5.6000
    endloop
  endfacet
  facet normal 0 0 -1
    outer loop
      vertex 18.9142 3.0858 5.6000
      vertex 19.1180 5.6756 5.6000
      vertex 19.1180 3.3244 5.6000
    endloop
  endfacet
  facet normal 0 0 -1
    outer loop
      vertex 18.9142 3.0858 5.6000
      vertex 18.9142 5.9142 5.6000
      vertex 19.1180 5.6756 5.6000
    endloop
  endfacet
  facet normal 0 0 -1
    outer loop
      vertex 18.6756 2.8820 5.6000
      vertex 18.9142 5.9142 5.6000
      vertex 18.9142 3.0858 5.6000
    endloop
  endfacet
  facet normal 0 0 -1
    outer loop
      vertex 18.6756 2.8820 5.6000
      vertex 18.6756 6.1180 5.6000
      vertex 18.9142 5.9142 5.6000
    endloop
  endfacet
  facet normal 0 0 -1
    outer loop
      vertex 18.4080 2.7180 5.6000
      vertex 18.6756 6.1180 5.6000
      vertex 18.6756 2.8820 5.6000
    endloop
  endfacet
  facet normal 0 0 -1
    outer loop
      vertex 18.4080 2.7180 5.6000
      vertex 18.4080 6.2820 5.6000
      vertex 18.6756 6.1180 5.6000
    endloop
  endfacet
  facet normal 0 0 -1
    outer loop
      vertex 18.1180 2.5979 5.6000
      vertex 18.4080 6.2820 5.6000
      vertex 18.4080 2.7180 5.6000
    endloop
  endfacet
  facet normal 0 0 -1
    outer loop
      vertex 18.1180 2.5979 5.6000
      vertex 18.1180 6.4021 5.6000
      vertex 18.4080 6.2820 5.6000
    endloop
  endfacet
  facet normal 0 0 -1
    outer loop
      vertex 17.8129 2.5246 5.6000
      vertex 18.1180 6.4021 5.6000
      vertex 18.1180 2.5979 5.6000
    endloop
  endfacet
  facet normal 0 0 -1
    outer loop
      vertex 17.8129 2.5246 5.6000
      vertex 17.8129 6.4754 5.6000
      vertex 18.1180 6.4021 5.6000
    endloop
  endfacet
  facet normal 0 0 -1
    outer loop
      vertex 17.5000 2.5000 5.6000
      vertex 17.8129 6.4754 5.6000
      vertex 17.8129 2.5246 5.6000
    endloop
  endfacet
  facet normal 0 0 -1
    outer loop
      vertex 17.5000 2.5000 5.6000
      vertex 17.5000 6.5000 5.6000
      vertex 17.8129 6.4754 5.6000
    endloop
  endfacet
  facet normal 0 0 -1
    outer loop
      vertex 17.1870 2.5246 5.6000
      vertex 17.5000 6.5000 5.6000
      vertex 17.5000 2.5000 5.6000
    endloop
  endfacet
  facet normal 0 0 -1
    outer loop
      vertex 17.1870 2.5246 5.6000
      vertex 17.1870 6.4754 5.6000
      vertex 17.5000 6.5000 5.6000
    endloop
  endfacet
  facet normal 0 0 -1
    outer loop
      vertex 16.8820 2.5979 5.6000
      vertex 17.1870 6.4754 5.6000
      vertex 17.1870 2.5246 5.6000
    endloop
  endfacet
  facet normal 0 0 -1
    outer loop
      vertex 16.8820 2.5979 5.6000
      vertex 16.8820 6.4021 5.6000
      vertex 17.1870 6.4754 5.6000
    endloop
  endfacet
  facet normal 0 0 -1
    outer loop
      vertex 16.5920 2.7180 5.6000
      vertex 16.8820 6.4021 5.6000
      vertex 16.8820 2.5979 5.6000
    endloop
  endfacet
  facet normal 0 0 -1
    outer loop
      vertex 16.5920 2.7180 5.6000
      vertex 16.5920 6.2820 5.6000
      vertex 16.8820 6.4021 5.6000
    endloop
  endfacet
  facet normal 0 0 -1
    outer loop
      vertex 16.3240 2.8820 5.6000
      vertex 16.5920 6.2820 5.6000
      vertex 16.5920 2.7180 5.6000
    endloop
  endfacet
  facet normal 0 0 -1
    outer loop
      vertex 16.3240 2.8820 5.6000
      vertex 16.3240 6.1180 5.6000
      vertex 16.5920 6.2820 5.6000
    endloop
  endfacet
  facet normal 0 0 -1
    outer loop
      vertex 16.0860 3.0858 5.6000
      vertex 16.3240 6.1180 5.6000
      vertex 16.3240 2.8820 5.6000
    endloop
  endfacet
  facet normal 0 0 -1
    outer loop
      vertex 16.0860 3.0858 5.6000
      vertex 16.0860 5.9142 5.6000
      vertex 16.3240 6.1180 5.6000
    endloop
  endfacet
  facet normal 0 0 -1
    outer loop
      vertex 15.8820 3.3244 5.6000
      vertex 16.0860 5.9142 5.6000
      vertex 16.0860 3.0858 5.6000
    endloop
  endfacet
  facet normal 0 0 -1
    outer loop
      vertex 15.8820 3.3244 5.6000
      vertex 15.8820 5.6756 5.6000
      vertex 16.0860 5.9142 5.6000
    endloop
  endfacet
  facet normal 0 0 -1
    outer loop
      vertex 15.7180 3.5920 5.6000
      vertex 15.8820 5.6756 5.6000
      vertex 15.8820 3.3244 5.6000
    endloop
  endfacet
  facet normal 0 0 -1
    outer loop
      vertex 15.7180 3.5920 5.6000
      vertex 15.7180 5.4080 5.6000
      vertex 15.8820 5.6756 5.6000
    endloop
  endfacet
  facet normal 0 0 -1
    outer loop
      vertex 15.5980 3.8820 5.6000
      vertex 15.7180 5.4080 5.6000
      vertex 15.7180 3.5920 5.6000
    endloop
  endfacet
  facet normal 0 0 -1
    outer loop
      vertex 15.5980 3.8820 5.6000
      vertex 15.5980 5.1180 5.6000
      vertex 15.7180 5.4080 5.6000
    endloop
  endfacet
  facet normal 0 0 -1
    outer loop
      vertex 15.5250 4.1871 5.6000
      vertex 15.5980 5.1180 5.6000
      vertex 15.5980 3.8820 5.6000
    endloop
  endfacet
  facet normal 0 0 -1
    outer loop
      vertex 15.5250 4.1871 5.6000
      vertex 15.5250 4.8129 5.6000
      vertex 15.5980 5.1180 5.6000
    endloop
  endfacet
  facet normal 0 -0 -1
    outer loop
      vertex 15.5250 4.8129 5.6000
      vertex 15.5250 4.1871 5.6000
      vertex 15.5000 4.5000 5.6000
    endloop
  endfacet
  facet normal -0.382624 -0.923904 0
    outer loop
      vertex 18.1180 6.4021 0.0000
      vertex 18.4080 6.2820 5.6000
      vertex 18.1180 6.4021 5.6000
    endloop
  endfacet
  facet normal -0.382624 -0.923904 -0
    outer loop
      vertex 18.4080 6.2820 5.6000
      vertex 18.1180 6.4021 0.0000
      vertex 18.4080 6.2820 0.0000
    endloop
  endfacet
  facet normal -0.85262 -0.522532 -1.1554e-18
    outer loop
      vertex 19.2820 5.4080 0.0000
      vertex 19.1180 5.6756 5.6000
      vertex 19.1180 5.6756 0.0000
    endloop
  endfacet
  facet normal -0.85262 -0.522532 -1.1554e-18
    outer loop
      vertex 19.1180 5.6756 5.6000
      vertex 19.2820 5.4080 0.0000
      vertex 19.2820 5.4080 5.6000
    endloop
  endfacet
  facet normal -0.522532 -0.85262 0
    outer loop
      vertex 18.4080 6.2820 0.0000
      vertex 18.6756 6.1180 5.6000
      vertex 18.4080 6.2820 5.6000
    endloop
  endfacet
  facet normal -0.522532 -0.85262 -0
    outer loop
      vertex 18.6756 6.1180 5.6000
      vertex 18.4080 6.2820 0.0000
      vertex 18.6756 6.1180 0.0000
    endloop
  endfacet
  facet normal -0.522532 0.85262 0
    outer loop
      vertex 18.6756 2.8820 0.0000
      vertex 18.4080 2.7180 5.6000
      vertex 18.6756 2.8820 5.6000
    endloop
  endfacet
  facet normal -0.522532 0.85262 0
    outer loop
      vertex 18.4080 2.7180 5.6000
      vertex 18.6756 2.8820 0.0000
      vertex 18.4080 2.7180 0.0000
    endloop
  endfacet
  facet normal 0.382624 0.923904 -0
    outer loop
      vertex 16.8820 2.5979 0.0000
      vertex 16.5920 2.7180 5.6000
      vertex 16.8820 2.5979 5.6000
    endloop
  endfacet
  facet normal 0.382624 0.923904 0
    outer loop
      vertex 16.5920 2.7180 5.6000
      vertex 16.8820 2.5979 0.0000
      vertex 16.5920 2.7180 0.0000
    endloop
  endfacet
  facet normal -0.76038 -0.649478 -1.24677e-18
    outer loop
      vertex 19.1180 5.6756 0.0000
      vertex 18.9142 5.9142 5.6000
      vertex 18.9142 5.9142 0.0000
    endloop
  endfacet
  facet normal -0.76038 -0.649478 -1.24677e-18
    outer loop
      vertex 18.9142 5.9142 5.6000
      vertex 19.1180 5.6756 0.0000
      vertex 19.1180 5.6756 5.6000
    endloop
  endfacet
  facet normal 0.650423 -0.759572 0
    outer loop
      vertex 16.0860 5.9142 0.0000
      vertex 16.3240 6.1180 5.6000
      vertex 16.0860 5.9142 5.6000
    endloop
  endfacet
  facet normal 0.650423 -0.759572 0
    outer loop
      vertex 16.3240 6.1180 5.6000
      vertex 16.0860 5.9142 0.0000
      vertex 16.3240 6.1180 0.0000
    endloop
  endfacet
  facet normal 0.996823 0.0796439 -1.09265e-19
    outer loop
      vertex 15.5250 4.1871 5.6000
      vertex 15.5000 4.5000 0.0000
      vertex 15.5000 4.5000 5.6000
    endloop
  endfacet
  facet normal 0.996823 0.0796439 -1.09265e-19
    outer loop
      vertex 15.5000 4.5000 0.0000
      vertex 15.5250 4.1871 5.6000
      vertex 15.5250 4.1871 0.0000
    endloop
  endfacet
  facet normal 0.85262 -0.522532 1.1554e-18
    outer loop
      vertex 15.7180 5.4080 5.6000
      vertex 15.8820 5.6756 0.0000
      vertex 15.8820 5.6756 5.6000
    endloop
  endfacet
  facet normal 0.85262 -0.522532 1.1554e-18
    outer loop
      vertex 15.8820 5.6756 0.0000
      vertex 15.7180 5.4080 5.6000
      vertex 15.7180 5.4080 0.0000
    endloop
  endfacet
  facet normal -0.233602 0.972332 0
    outer loop
      vertex 18.1180 2.5979 0.0000
      vertex 17.8129 2.5246 5.6000
      vertex 18.1180 2.5979 5.6000
    endloop
  endfacet
  facet normal -0.233602 0.972332 0
    outer loop
      vertex 17.8129 2.5246 5.6000
      vertex 18.1180 2.5979 0.0000
      vertex 17.8129 2.5246 0.0000
    endloop
  endfacet
  facet normal -0.0783775 0.996924 0
    outer loop
      vertex 17.8129 2.5246 0.0000
      vertex 17.5000 2.5000 5.6000
      vertex 17.8129 2.5246 5.6000
    endloop
  endfacet
  facet normal -0.0783775 0.996924 0
    outer loop
      vertex 17.5000 2.5000 5.6000
      vertex 17.8129 2.5246 0.0000
      vertex 17.5000 2.5000 0.0000
    endloop
  endfacet
  facet normal 0.924017 -0.382352 -1.36445e-18
    outer loop
      vertex 15.5980 5.1180 5.6000
      vertex 15.7180 5.4080 0.0000
      vertex 15.7180 5.4080 5.6000
    endloop
  endfacet
  facet normal 0.924017 -0.382352 -1.36445e-18
    outer loop
      vertex 15.7180 5.4080 0.0000
      vertex 15.5980 5.1180 5.6000
      vertex 15.5980 5.1180 0.0000
    endloop
  endfacet
  facet normal -0.0783775 -0.996924 0
    outer loop
      vertex 17.5000 6.5000 0.0000
      vertex 17.8129 6.4754 5.6000
      vertex 17.5000 6.5000 5.6000
    endloop
  endfacet
  facet normal -0.0783775 -0.996924 -0
    outer loop
      vertex 17.8129 6.4754 5.6000
      vertex 17.5000 6.5000 0.0000
      vertex 17.8129 6.4754 0.0000
    endloop
  endfacet
  facet normal 0.972549 0.232698 -9.68698e-19
    outer loop
      vertex 15.5980 3.8820 5.6000
      vertex 15.5250 4.1871 0.0000
      vertex 15.5250 4.1871 5.6000
    endloop
  endfacet
  facet normal 0.972549 0.232698 -9.68698e-19
    outer loop
      vertex 15.5250 4.1871 0.0000
      vertex 15.5980 3.8820 5.6000
      vertex 15.5980 3.8820 0.0000
    endloop
  endfacet
  facet normal 0.233674 -0.972315 0
    outer loop
      vertex 16.8820 6.4021 0.0000
      vertex 17.1870 6.4754 5.6000
      vertex 16.8820 6.4021 5.6000
    endloop
  endfacet
  facet normal 0.233674 -0.972315 0
    outer loop
      vertex 17.1870 6.4754 5.6000
      vertex 16.8820 6.4021 0.0000
      vertex 17.1870 6.4754 0.0000
    endloop
  endfacet
  facet normal -0.649478 -0.76038 0
    outer loop
      vertex 18.6756 6.1180 0.0000
      vertex 18.9142 5.9142 5.6000
      vertex 18.6756 6.1180 5.6000
    endloop
  endfacet
  facet normal -0.649478 -0.76038 -0
    outer loop
      vertex 18.9142 5.9142 5.6000
      vertex 18.6756 6.1180 0.0000
      vertex 18.9142 5.9142 0.0000
    endloop
  endfacet
  facet normal 0.760066 0.649846 9.8551e-19
    outer loop
      vertex 16.0860 3.0858 5.6000
      vertex 15.8820 3.3244 0.0000
      vertex 15.8820 3.3244 5.6000
    endloop
  endfacet
  facet normal 0.760066 0.649846 9.8551e-19
    outer loop
      vertex 15.8820 3.3244 0.0000
      vertex 16.0860 3.0858 5.6000
      vertex 16.0860 3.0858 0.0000
    endloop
  endfacet
endsolid OpenSCAD_Model
