solid OpenSCAD_Model
  facet normal -1 0 0
    outer loop
      vertex 147.0000 8.7000 0.0000
      vertex 147.0000 88.7000 3.0000
      vertex 147.0000 88.7000 0.0000
    endloop
  endfacet
  facet normal -1 -0 0
    outer loop
      vertex 147.0000 88.7000 3.0000
      vertex 147.0000 8.7000 0.0000
      vertex 147.0000 8.7000 3.0000
    endloop
  endfacet
  facet normal 0 1 -0
    outer loop
      vertex 147.0000 8.7000 0.0000
      vertex 3.5000 8.7000 3.0000
      vertex 147.0000 8.7000 3.0000
    endloop
  endfacet
  facet normal 0 1 0
    outer loop
      vertex 3.5000 8.7000 3.0000
      vertex 147.0000 8.7000 0.0000
      vertex 3.5000 8.7000 0.0000
    endloop
  endfacet
  facet normal 0 -1 0
    outer loop
      vertex 3.5000 88.7000 0.0000
      vertex 147.0000 88.7000 3.0000
      vertex 3.5000 88.7000 3.0000
    endloop
  endfacet
  facet normal 0 -1 -0
    outer loop
      vertex 147.0000 88.7000 3.0000
      vertex 3.5000 88.7000 0.0000
      vertex 147.0000 88.7000 0.0000
    endloop
  endfacet
  facet normal 1 -0 0
    outer loop
      vertex 3.5000 8.7000 3.0000
      vertex 3.5000 88.7000 0.0000
      vertex 3.5000 88.7000 3.0000
    endloop
  endfacet
  facet normal 1 0 0
    outer loop
      vertex 3.5000 88.7000 0.0000
      vertex 3.5000 8.7000 3.0000
      vertex 3.5000 8.7000 0.0000
    endloop
  endfacet
  facet normal 0 0 -1
    outer loop
      vertex 147.0000 88.7000 0.0000
      vertex 177.4000 0.0000 0.0000
      vertex 147.0000 8.7000 0.0000
    endloop
  endfacet
  facet normal 0 0 -1
    outer loop
      vertex 0.0000 0.0000 0.0000
      vertex 147.0000 8.7000 0.0000
      vertex 177.4000 0.0000 0.0000
    endloop
  endfacet
  facet normal -0 0 -1
    outer loop
      vertex 3.5000 8.7000 0.0000
      vertex 0.0000 0.0000 0.0000
      vertex 3.5000 88.7000 0.0000
    endloop
  endfacet
  facet normal -0 0 -1
    outer loop
      vertex 147.0000 8.7000 0.0000
      vertex 0.0000 0.0000 0.0000
      vertex 3.5000 8.7000 0.0000
    endloop
  endfacet
  facet normal 0 0 -1
    outer loop
      vertex 177.4000 0.0000 0.0000
      vertex 147.0000 88.7000 0.0000
      vertex 177.4000 99.4000 0.0000
    endloop
  endfacet
  facet normal 0 0 -1
    outer loop
      vertex 0.0000 99.4000 0.0000
      vertex 147.0000 88.7000 0.0000
      vertex 3.5000 88.7000 0.0000
    endloop
  endfacet
  facet normal 0 0 -1
    outer loop
      vertex 147.0000 88.7000 0.0000
      vertex 0.0000 99.4000 0.0000
      vertex 177.4000 99.4000 0.0000
    endloop
  endfacet
  facet normal 0 0 -1
    outer loop
      vertex 0.0000 99.4000 0.0000
      vertex 3.5000 88.7000 0.0000
      vertex 0.0000 0.0000 0.0000
    endloop
  endfacet
  facet normal 1 -0 0
    outer loop
      vertex 177.4000 0.0000 3.0000
      vertex 177.4000 99.4000 0.0000
      vertex 177.4000 99.4000 3.0000
    endloop
  endfacet
  facet normal 1 0 0
    outer loop
      vertex 177.4000 99.4000 0.0000
      vertex 177.4000 0.0000 3.0000
      vertex 177.4000 0.0000 0.0000
    endloop
  endfacet
  facet normal -1 0 0
    outer loop
      vertex 0.0000 0.0000 0.0000
      vertex 0.0000 99.4000 3.0000
      vertex 0.0000 99.4000 0.0000
    endloop
  endfacet
  facet normal -1 -0 0
    outer loop
      vertex 0.0000 99.4000 3.0000
      vertex 0.0000 0.0000 0.0000
      vertex 0.0000 0.0000 3.0000
    endloop
  endfacet
  facet normal 0 0 1
    outer loop
      vertex 177.4000 99.4000 3.0000
      vertex 147.0000 88.7000 3.0000
      vertex 177.4000 0.0000 3.0000
    endloop
  endfacet
  facet normal -0 0 1
    outer loop
      vertex 0.0000 99.4000 3.0000
      vertex 147.0000 88.7000 3.0000
      vertex 177.4000 99.4000 3.0000
    endloop
  endfacet
  facet normal 0 0 1
    outer loop
      vertex 0.0000 0.0000 3.0000
      vertex 3.5000 88.7000 3.0000
      vertex 0.0000 99.4000 3.0000
    endloop
  endfacet
  facet normal 0 0 1
    outer loop
      vertex 147.0000 88.7000 3.0000
      vertex 0.0000 99.4000 3.0000
      vertex 3.5000 88.7000 3.0000
    endloop
  endfacet
  facet normal -0 0 1
    outer loop
      vertex 147.0000 8.7000 3.0000
      vertex 177.4000 0.0000 3.0000
      vertex 147.0000 88.7000 3.0000
    endloop
  endfacet
  facet normal 0 0 1
    outer loop
      vertex 0.0000 0.0000 3.0000
      vertex 147.0000 8.7000 3.0000
      vertex 3.5000 8.7000 3.0000
    endloop
  endfacet
  facet normal 0 0 1
    outer loop
      vertex 147.0000 8.7000 3.0000
      vertex 0.0000 0.0000 3.0000
      vertex 177.4000 0.0000 3.0000
    endloop
  endfacet
  facet normal 0 0 1
    outer loop
      vertex 3.5000 88.7000 3.0000
      vertex 0.0000 0.0000 3.0000
      vertex 3.5000 8.7000 3.0000
    endloop
  endfacet
  facet normal 0 -1 0
    outer loop
      vertex 0.0000 0.0000 0.0000
      vertex 177.4000 0.0000 3.0000
      vertex 0.0000 0.0000 3.0000
    endloop
  endfacet
  facet normal 0 -1 -0
    outer loop
      vertex 177.4000 0.0000 3.0000
      vertex 0.0000 0.0000 0.0000
      vertex 177.4000 0.0000 0.0000
    endloop
  endfacet
  facet normal 0 1 -0
    outer loop
      vertex 177.4000 99.4000 0.0000
      vertex 0.0000 99.4000 3.0000
      vertex 177.4000 99.4000 3.0000
    endloop
  endfacet
  facet normal 0 1 0
    outer loop
      vertex 0.0000 99.4000 3.0000
      vertex 177.4000 99.4000 0.0000
      vertex 0.0000 99.4000 0.0000
    endloop
  endfacet
endsolid OpenSCAD_Model
