solid OpenSCAD_Model
  facet normal 1 0 0
    outer loop
      vertex 8.5 40 11.4
      vertex 8.5 20.45 6.9
      vertex 8.5 37.15 6.9
    endloop
  endfacet
  facet normal 1 -0 0
    outer loop
      vertex 8.5 17.2 11.4
      vertex 8.5 20.45 6.9
      vertex 8.5 40 11.4
    endloop
  endfacet
  facet normal 1 -0 0
    outer loop
      vertex 8.5 17.2 6.91
      vertex 8.5 20.45 6.9
      vertex 8.5 17.2 11.4
    endloop
  endfacet
  facet normal 1 0 0
    outer loop
      vertex 8.5 20.45 6.9
      vertex 8.5 17.2 6.91
      vertex 8.5 20.45 -2.4
    endloop
  endfacet
  facet normal 1 0 0
    outer loop
      vertex 8.5 16.85 -2.4
      vertex 8.5 17.2 6.91
      vertex 8.5 16.85 6.91
    endloop
  endfacet
  facet normal 1 0 0
    outer loop
      vertex 8.5 17.2 6.91
      vertex 8.5 16.85 -2.4
      vertex 8.5 20.45 -2.4
    endloop
  endfacet
  facet normal 1 -0 0
    outer loop
      vertex 8.5 40 83.3
      vertex 8.5 62 6.9
      vertex 8.5 62 113.2
    endloop
  endfacet
  facet normal 1 0 0
    outer loop
      vertex 8.5 61.1 6.9
      vertex 8.5 57.5 6.9
      vertex 8.5 61.1 -2.4
    endloop
  endfacet
  facet normal 1 0 0
    outer loop
      vertex 8.5 62 6.9
      vertex 8.5 40 83.3
      vertex 8.5 61.1 6.9
    endloop
  endfacet
  facet normal 1 0 0
    outer loop
      vertex 8.5 61.1 6.9
      vertex 8.5 40 83.3
      vertex 8.5 57.5 6.9
    endloop
  endfacet
  facet normal 1 0 0
    outer loop
      vertex 8.5 57.5 6.9
      vertex 8.5 40 11.4
      vertex 8.5 40.75 6.9
    endloop
  endfacet
  facet normal 1 0 0
    outer loop
      vertex 8.5 57.5 6.9
      vertex 8.5 40 83.3
      vertex 8.5 40 11.4
    endloop
  endfacet
  facet normal 1 0 0
    outer loop
      vertex 8.5 62 113.2
      vertex 8.5 37 101.3
      vertex 8.5 40 83.3
    endloop
  endfacet
  facet normal 1 -0 0
    outer loop
      vertex 8.5 11 113.2
      vertex 8.5 37 101.3
      vertex 8.5 62 113.2
    endloop
  endfacet
  facet normal 1 0 0
    outer loop
      vertex 8.5 37 101.3
      vertex 8.5 11 113.2
      vertex 8.5 11 101.3
    endloop
  endfacet
  facet normal 1 0 0
    outer loop
      vertex 8.5 61.1 -2.4
      vertex 8.5 57.5 6.9
      vertex 8.5 57.5 -2.4
    endloop
  endfacet
  facet normal 1 0 0
    outer loop
      vertex 8.5 37.15 6.9
      vertex 8.5 40.75 6.9
      vertex 8.5 40 11.4
    endloop
  endfacet
  facet normal 1 0 0
    outer loop
      vertex 8.5 40.75 6.9
      vertex 8.5 37.15 6.9
      vertex 8.5 40.75 -2.4
    endloop
  endfacet
  facet normal 1 0 0
    outer loop
      vertex 8.5 40.75 -2.4
      vertex 8.5 37.15 6.9
      vertex 8.5 37.15 -2.4
    endloop
  endfacet
  facet normal 1 0 0
    outer loop
      vertex 8.5 40 83.3
      vertex 8.5 37 101.3
      vertex 8.5 37 83.3
    endloop
  endfacet
  facet normal -0 0 1
    outer loop
      vertex 5.9 17.2 6.91
      vertex 8.5 16.85 6.91
      vertex 8.5 17.2 6.91
    endloop
  endfacet
  facet normal 0 0 1
    outer loop
      vertex 8.5 16.85 6.91
      vertex 5.9 17.2 6.91
      vertex 5.9 16.85 6.91
    endloop
  endfacet
  facet normal 0 0 -1
    outer loop
      vertex 5.9 16.85 -2.4
      vertex 8.5 20.45 -2.4
      vertex 8.5 16.85 -2.4
    endloop
  endfacet
  facet normal -0 0 -1
    outer loop
      vertex 8.5 20.45 -2.4
      vertex 5.9 16.85 -2.4
      vertex 5.9 20.45 -2.4
    endloop
  endfacet
  facet normal -1 0 0
    outer loop
      vertex 5.9 20.45 -2.4
      vertex 5.9 17.2 6.9
      vertex 5.9 20.45 6.9
    endloop
  endfacet
  facet normal -1 0 0
    outer loop
      vertex 5.9 16.85 -2.4
      vertex 5.9 17.2 6.9
      vertex 5.9 20.45 -2.4
    endloop
  endfacet
  facet normal -1 0 0
    outer loop
      vertex 5.9 16.85 6.91
      vertex 5.9 17.2 6.9
      vertex 5.9 16.85 -2.4
    endloop
  endfacet
  facet normal -1 0 0
    outer loop
      vertex 5.9 17.2 6.9
      vertex 5.9 16.85 6.91
      vertex 5.9 17.2 6.91
    endloop
  endfacet
  facet normal 0 1 -0
    outer loop
      vertex 8.5 20.45 -2.4
      vertex 5.9 20.45 6.9
      vertex 8.5 20.45 6.9
    endloop
  endfacet
  facet normal 0 1 0
    outer loop
      vertex 5.9 20.45 6.9
      vertex 8.5 20.45 -2.4
      vertex 5.9 20.45 -2.4
    endloop
  endfacet
  facet normal 0 -1 0
    outer loop
      vertex 5.9 16.85 -2.4
      vertex 8.5 16.85 6.91
      vertex 5.9 16.85 6.91
    endloop
  endfacet
  facet normal 0 -1 -0
    outer loop
      vertex 8.5 16.85 6.91
      vertex 5.9 16.85 -2.4
      vertex 8.5 16.85 -2.4
    endloop
  endfacet
  facet normal 0 0 -1
    outer loop
      vertex 5.9 37.15 -2.4
      vertex 8.5 40.75 -2.4
      vertex 8.5 37.15 -2.4
    endloop
  endfacet
  facet normal -0 0 -1
    outer loop
      vertex 8.5 40.75 -2.4
      vertex 5.9 37.15 -2.4
      vertex 5.9 40.75 -2.4
    endloop
  endfacet
  facet normal -1 0 0
    outer loop
      vertex 5.9 37.15 -2.4
      vertex 5.9 40.75 6.9
      vertex 5.9 40.75 -2.4
    endloop
  endfacet
  facet normal -1 -0 0
    outer loop
      vertex 5.9 40.75 6.9
      vertex 5.9 37.15 -2.4
      vertex 5.9 37.15 6.9
    endloop
  endfacet
  facet normal 0 1 -0
    outer loop
      vertex 8.5 40.75 -2.4
      vertex 5.9 40.75 6.9
      vertex 8.5 40.75 6.9
    endloop
  endfacet
  facet normal 0 1 0
    outer loop
      vertex 5.9 40.75 6.9
      vertex 8.5 40.75 -2.4
      vertex 5.9 40.75 -2.4
    endloop
  endfacet
  facet normal 0 -1 0
    outer loop
      vertex 5.9 37.15 -2.4
      vertex 8.5 37.15 6.9
      vertex 5.9 37.15 6.9
    endloop
  endfacet
  facet normal 0 -1 -0
    outer loop
      vertex 8.5 37.15 6.9
      vertex 5.9 37.15 -2.4
      vertex 8.5 37.15 -2.4
    endloop
  endfacet
  facet normal 0 0 -1
    outer loop
      vertex 5.9 57.5 -2.4
      vertex 8.5 61.1 -2.4
      vertex 8.5 57.5 -2.4
    endloop
  endfacet
  facet normal -0 0 -1
    outer loop
      vertex 8.5 61.1 -2.4
      vertex 5.9 57.5 -2.4
      vertex 5.9 61.1 -2.4
    endloop
  endfacet
  facet normal -1 0 0
    outer loop
      vertex 5.9 57.5 -2.4
      vertex 5.9 61.1 6.9
      vertex 5.9 61.1 -2.4
    endloop
  endfacet
  facet normal -1 -0 0
    outer loop
      vertex 5.9 61.1 6.9
      vertex 5.9 57.5 -2.4
      vertex 5.9 57.5 6.9
    endloop
  endfacet
  facet normal 0 1 -0
    outer loop
      vertex 8.5 61.1 -2.4
      vertex 5.9 61.1 6.9
      vertex 8.5 61.1 6.9
    endloop
  endfacet
  facet normal 0 1 0
    outer loop
      vertex 5.9 61.1 6.9
      vertex 8.5 61.1 -2.4
      vertex 5.9 61.1 -2.4
    endloop
  endfacet
  facet normal 0 -1 0
    outer loop
      vertex 5.9 57.5 -2.4
      vertex 8.5 57.5 6.9
      vertex 5.9 57.5 6.9
    endloop
  endfacet
  facet normal 0 -1 -0
    outer loop
      vertex 8.5 57.5 6.9
      vertex 5.9 57.5 -2.4
      vertex 8.5 57.5 -2.4
    endloop
  endfacet
  facet normal -0 0 1
    outer loop
      vertex 3 40 11.4
      vertex 8.5 17.2 11.4
      vertex 8.5 40 11.4
    endloop
  endfacet
  facet normal 0 0 1
    outer loop
      vertex 8.5 17.2 11.4
      vertex 3 40 11.4
      vertex 3 17.2 11.4
    endloop
  endfacet
  facet normal 0 0 -1
    outer loop
      vertex 3 17.2 6.9
      vertex 5.9 20.45 6.9
      vertex 5.9 17.2 6.9
    endloop
  endfacet
  facet normal -0 0 -1
    outer loop
      vertex 5.9 20.45 6.9
      vertex 3 17.2 6.9
      vertex 5.9 37.15 6.9
    endloop
  endfacet
  facet normal -0 0 -1
    outer loop
      vertex 5.9 37.15 6.9
      vertex 3 17.2 6.9
      vertex 5.9 40.75 6.9
    endloop
  endfacet
  facet normal 0 0 -1
    outer loop
      vertex 3 62 6.9
      vertex 5.9 40.75 6.9
      vertex 3 17.2 6.9
    endloop
  endfacet
  facet normal 0 0 -1
    outer loop
      vertex 5.9 40.75 6.9
      vertex 3 62 6.9
      vertex 5.9 57.5 6.9
    endloop
  endfacet
  facet normal 0 0 -1
    outer loop
      vertex 5.9 20.45 6.9
      vertex 8.5 37.15 6.9
      vertex 8.5 20.45 6.9
    endloop
  endfacet
  facet normal -0 0 -1
    outer loop
      vertex 8.5 37.15 6.9
      vertex 5.9 20.45 6.9
      vertex 5.9 37.15 6.9
    endloop
  endfacet
  facet normal 0 0 -1
    outer loop
      vertex 5.9 40.75 6.9
      vertex 8.5 57.5 6.9
      vertex 8.5 40.75 6.9
    endloop
  endfacet
  facet normal -0 0 -1
    outer loop
      vertex 8.5 57.5 6.9
      vertex 5.9 40.75 6.9
      vertex 5.9 57.5 6.9
    endloop
  endfacet
  facet normal 0 0 -1
    outer loop
      vertex 5.9 61.1 6.9
      vertex 8.5 62 6.9
      vertex 8.5 61.1 6.9
    endloop
  endfacet
  facet normal 0 0 -1
    outer loop
      vertex 5.9 61.1 6.9
      vertex 3 62 6.9
      vertex 8.5 62 6.9
    endloop
  endfacet
  facet normal 0 0 -1
    outer loop
      vertex 5.9 57.5 6.9
      vertex 3 62 6.9
      vertex 5.9 61.1 6.9
    endloop
  endfacet
  facet normal -1 0 0
    outer loop
      vertex 3 40 83.3
      vertex 3 62 6.9
      vertex 3 40 11.4
    endloop
  endfacet
  facet normal -1 0 0
    outer loop
      vertex 3 17.2 6.9
      vertex 3 40 11.4
      vertex 3 62 6.9
    endloop
  endfacet
  facet normal -1 -0 0
    outer loop
      vertex 3 40 11.4
      vertex 3 17.2 6.9
      vertex 3 17.2 11.4
    endloop
  endfacet
  facet normal -1 0 0
    outer loop
      vertex 3 62 6.9
      vertex 3 40 83.3
      vertex 3 62 113.2
    endloop
  endfacet
  facet normal -1 0 0
    outer loop
      vertex 3 37 101.3
      vertex 3 40 83.3
      vertex 3 37 83.3
    endloop
  endfacet
  facet normal -1 0 0
    outer loop
      vertex 3 40 83.3
      vertex 3 37 101.3
      vertex 3 62 113.2
    endloop
  endfacet
  facet normal -1 0 0
    outer loop
      vertex 3 11 113.2
      vertex 3 37 101.3
      vertex 3 11 101.3
    endloop
  endfacet
  facet normal -1 0 0
    outer loop
      vertex 3 37 101.3
      vertex 3 11 113.2
      vertex 3 62 113.2
    endloop
  endfacet
  facet normal 0 1 -0
    outer loop
      vertex 8.5 62 6.9
      vertex 3 62 113.2
      vertex 8.5 62 113.2
    endloop
  endfacet
  facet normal 0 1 0
    outer loop
      vertex 3 62 113.2
      vertex 8.5 62 6.9
      vertex 3 62 6.9
    endloop
  endfacet
  facet normal 0 -1 0
    outer loop
      vertex 3 17.2 11.4
      vertex 5.9 17.2 6.91
      vertex 8.5 17.2 11.4
    endloop
  endfacet
  facet normal 0 -1 0
    outer loop
      vertex 3 17.2 6.9
      vertex 5.9 17.2 6.91
      vertex 3 17.2 11.4
    endloop
  endfacet
  facet normal 0 -1 -0
    outer loop
      vertex 5.9 17.2 6.91
      vertex 3 17.2 6.9
      vertex 5.9 17.2 6.9
    endloop
  endfacet
  facet normal 0 -1 -0
    outer loop
      vertex 8.5 17.2 11.4
      vertex 5.9 17.2 6.91
      vertex 8.5 17.2 6.91
    endloop
  endfacet
  facet normal -0 0 1
    outer loop
      vertex 3 62 113.2
      vertex 8.5 11 113.2
      vertex 8.5 62 113.2
    endloop
  endfacet
  facet normal 0 0 1
    outer loop
      vertex 8.5 11 113.2
      vertex 3 62 113.2
      vertex 3 11 113.2
    endloop
  endfacet
  facet normal 0 -1 0
    outer loop
      vertex 3 40 11.4
      vertex 8.5 40 83.3
      vertex 3 40 83.3
    endloop
  endfacet
  facet normal 0 -1 -0
    outer loop
      vertex 8.5 40 83.3
      vertex 3 40 11.4
      vertex 8.5 40 11.4
    endloop
  endfacet
  facet normal 0 0 -1
    outer loop
      vertex 3 37 83.3
      vertex 8.5 40 83.3
      vertex 8.5 37 83.3
    endloop
  endfacet
  facet normal -0 0 -1
    outer loop
      vertex 8.5 40 83.3
      vertex 3 37 83.3
      vertex 3 40 83.3
    endloop
  endfacet
  facet normal 0 -1 0
    outer loop
      vertex 3 37 83.3
      vertex 8.5 37 101.3
      vertex 3 37 101.3
    endloop
  endfacet
  facet normal 0 -1 -0
    outer loop
      vertex 8.5 37 101.3
      vertex 3 37 83.3
      vertex 8.5 37 83.3
    endloop
  endfacet
  facet normal 0 0 -1
    outer loop
      vertex 3 11 101.3
      vertex 8.5 37 101.3
      vertex 8.5 11 101.3
    endloop
  endfacet
  facet normal -0 0 -1
    outer loop
      vertex 8.5 37 101.3
      vertex 3 11 101.3
      vertex 3 37 101.3
    endloop
  endfacet
  facet normal 0 -1 0
    outer loop
      vertex 3 11 101.3
      vertex 8.5 11 113.2
      vertex 3 11 113.2
    endloop
  endfacet
  facet normal 0 -1 -0
    outer loop
      vertex 8.5 11 113.2
      vertex 3 11 101.3
      vertex 8.5 11 101.3
    endloop
  endfacet
endsolid OpenSCAD_Model
