solid OpenSCAD_Model
  facet normal 1 -0 0
    outer loop
      vertex 253.7 17.4 131.62
      vertex 253.7 59.6 13.1
      vertex 253.7 59.6 131.62
    endloop
  endfacet
  facet normal 1 0 0
    outer loop
      vertex 253.7 59.6 13.1
      vertex 253.7 17.4 131.62
      vertex 253.7 17.4 13.1
    endloop
  endfacet
  facet normal -0 0 1
    outer loop
      vertex 13.7 59.6 131.62
      vertex 253.7 17.4 131.62
      vertex 253.7 59.6 131.62
    endloop
  endfacet
  facet normal 0 0 1
    outer loop
      vertex 253.7 17.4 131.62
      vertex 13.7 59.6 131.62
      vertex 13.7 17.4 131.62
    endloop
  endfacet
  facet normal 0 0 -1
    outer loop
      vertex 148.15 21.5 13.1
      vertex 253.7 17.4 13.1
      vertex 148.15 19.9 13.1
    endloop
  endfacet
  facet normal 0 0 -1
    outer loop
      vertex 14.56 17.4 13.1
      vertex 148.15 19.9 13.1
      vertex 253.7 17.4 13.1
    endloop
  endfacet
  facet normal -0 0 -1
    outer loop
      vertex 57.15 19.9 13.1
      vertex 14.56 17.4 13.1
      vertex 57.15 21.5 13.1
    endloop
  endfacet
  facet normal -0 0 -1
    outer loop
      vertex 148.15 19.9 13.1
      vertex 14.56 17.4 13.1
      vertex 57.15 19.9 13.1
    endloop
  endfacet
  facet normal 0 0 -1
    outer loop
      vertex 253.7 17.4 13.1
      vertex 148.15 21.5 13.1
      vertex 253.7 59.6 13.1
    endloop
  endfacet
  facet normal 0 0 -1
    outer loop
      vertex 13.7 59.6 13.1
      vertex 148.15 21.5 13.1
      vertex 57.15 21.5 13.1
    endloop
  endfacet
  facet normal 0 0 -1
    outer loop
      vertex 14.56 33.82 13.1
      vertex 57.15 21.5 13.1
      vertex 14.56 17.4 13.1
    endloop
  endfacet
  facet normal 0 0 -1
    outer loop
      vertex 13.7 59.6 13.1
      vertex 57.15 21.5 13.1
      vertex 14.56 33.82 13.1
    endloop
  endfacet
  facet normal 0 0 -1
    outer loop
      vertex 13.7 59.6 13.1
      vertex 14.56 33.82 13.1
      vertex 13.7 33.82 13.1
    endloop
  endfacet
  facet normal 0 0 -1
    outer loop
      vertex 148.15 21.5 13.1
      vertex 13.7 59.6 13.1
      vertex 253.7 59.6 13.1
    endloop
  endfacet
  facet normal -1 0 0
    outer loop
      vertex 13.7 33.82 113.3
      vertex 13.7 59.6 13.1
      vertex 13.7 33.82 13.1
    endloop
  endfacet
  facet normal -1 0 0
    outer loop
      vertex 13.7 59.6 13.1
      vertex 13.7 33.82 113.3
      vertex 13.7 59.6 131.62
    endloop
  endfacet
  facet normal -1 0 0
    outer loop
      vertex 13.7 33.82 114.2
      vertex 13.7 59.6 131.62
      vertex 13.7 33.82 113.3
    endloop
  endfacet
  facet normal -1 0 0
    outer loop
      vertex 13.7 17.4 131.62
      vertex 13.7 33.82 114.2
      vertex 13.7 17.4 114.2
    endloop
  endfacet
  facet normal -1 0 0
    outer loop
      vertex 13.7 33.82 114.2
      vertex 13.7 17.4 131.62
      vertex 13.7 59.6 131.62
    endloop
  endfacet
  facet normal -1 0 0
    outer loop
      vertex 13.7 15.4 0.52
      vertex 13.7 33.82 13.1
      vertex 13.7 33.82 0.52
    endloop
  endfacet
  facet normal -1 0 0
    outer loop
      vertex 13.7 33.82 13.1
      vertex 13.7 17.4 113.3
      vertex 13.7 33.82 113.3
    endloop
  endfacet
  facet normal -1 0 0
    outer loop
      vertex 13.7 15.4 113.3
      vertex 13.7 33.82 13.1
      vertex 13.7 15.4 0.52
    endloop
  endfacet
  facet normal -1 0 0
    outer loop
      vertex 13.7 33.82 13.1
      vertex 13.7 15.4 113.3
      vertex 13.7 17.4 113.3
    endloop
  endfacet
  facet normal 1 -0 0
    outer loop
      vertex 13.7 15.4 114.2
      vertex 13.7 17.4 113.3
      vertex 13.7 17.4 114.2
    endloop
  endfacet
  facet normal 1 0 0
    outer loop
      vertex 13.7 17.4 113.3
      vertex 13.7 15.4 114.2
      vertex 13.7 15.4 113.3
    endloop
  endfacet
  facet normal 0 1 -0
    outer loop
      vertex 253.7 59.6 13.1
      vertex 13.7 59.6 131.62
      vertex 253.7 59.6 131.62
    endloop
  endfacet
  facet normal 0 1 0
    outer loop
      vertex 13.7 59.6 131.62
      vertex 253.7 59.6 13.1
      vertex 13.7 59.6 13.1
    endloop
  endfacet
  facet normal 0 -1 0
    outer loop
      vertex 14.56 17.4 113.3
      vertex 13.7 17.4 131.62
      vertex 13.7 17.4 114.2
    endloop
  endfacet
  facet normal 0 -1 0
    outer loop
      vertex 14.56 17.4 113.3
      vertex 13.7 17.4 114.2
      vertex 13.7 17.4 113.3
    endloop
  endfacet
  facet normal 0 -1 0
    outer loop
      vertex 13.7 17.4 131.62
      vertex 14.56 17.4 113.3
      vertex 253.7 17.4 131.62
    endloop
  endfacet
  facet normal 0 -1 0
    outer loop
      vertex 253.7 17.4 13.1
      vertex 14.56 17.4 113.3
      vertex 14.56 17.4 13.1
    endloop
  endfacet
  facet normal 0 -1 0
    outer loop
      vertex 14.56 17.4 113.3
      vertex 253.7 17.4 13.1
      vertex 253.7 17.4 131.62
    endloop
  endfacet
  facet normal 1 -0 0
    outer loop
      vertex 148.15 19.9 13.1
      vertex 148.15 21.5 8.42
      vertex 148.15 21.5 13.1
    endloop
  endfacet
  facet normal 1 0 0
    outer loop
      vertex 148.15 21.5 8.42
      vertex 148.15 19.9 13.1
      vertex 148.15 19.9 8.42
    endloop
  endfacet
  facet normal 0 0 -1
    outer loop
      vertex 57.15 19.9 8.42
      vertex 148.15 21.5 8.42
      vertex 148.15 19.9 8.42
    endloop
  endfacet
  facet normal -0 0 -1
    outer loop
      vertex 148.15 21.5 8.42
      vertex 57.15 19.9 8.42
      vertex 57.15 21.5 8.42
    endloop
  endfacet
  facet normal -1 0 0
    outer loop
      vertex 57.15 19.9 8.42
      vertex 57.15 21.5 13.1
      vertex 57.15 21.5 8.42
    endloop
  endfacet
  facet normal -1 -0 0
    outer loop
      vertex 57.15 21.5 13.1
      vertex 57.15 19.9 8.42
      vertex 57.15 19.9 13.1
    endloop
  endfacet
  facet normal 0 1 -0
    outer loop
      vertex 148.15 21.5 8.42
      vertex 57.15 21.5 13.1
      vertex 148.15 21.5 13.1
    endloop
  endfacet
  facet normal 0 1 0
    outer loop
      vertex 57.15 21.5 13.1
      vertex 148.15 21.5 8.42
      vertex 57.15 21.5 8.42
    endloop
  endfacet
  facet normal 0 -1 0
    outer loop
      vertex 57.15 19.9 8.42
      vertex 148.15 19.9 13.1
      vertex 57.15 19.9 13.1
    endloop
  endfacet
  facet normal 0 -1 -0
    outer loop
      vertex 148.15 19.9 13.1
      vertex 57.15 19.9 8.42
      vertex 148.15 19.9 8.42
    endloop
  endfacet
  facet normal 1 0 0
    outer loop
      vertex 14.56 17.4 113.3
      vertex 14.56 15.4 113.3
      vertex 14.56 17.4 13.1
    endloop
  endfacet
  facet normal 1 -0 0
    outer loop
      vertex 14.56 17.4 13.1
      vertex 14.56 33.82 0.52
      vertex 14.56 33.82 13.1
    endloop
  endfacet
  facet normal 1 0 0
    outer loop
      vertex 14.56 17.4 13.1
      vertex 14.56 15.4 0.52
      vertex 14.56 33.82 0.52
    endloop
  endfacet
  facet normal 1 0 0
    outer loop
      vertex 14.56 15.4 0.52
      vertex 14.56 17.4 13.1
      vertex 14.56 15.4 113.3
    endloop
  endfacet
  facet normal -0 0 1
    outer loop
      vertex 13.7 17.4 113.3
      vertex 14.56 15.4 113.3
      vertex 14.56 17.4 113.3
    endloop
  endfacet
  facet normal 0 0 1
    outer loop
      vertex 14.56 15.4 113.3
      vertex 13.7 17.4 113.3
      vertex 13.7 15.4 113.3
    endloop
  endfacet
  facet normal 0 0 -1
    outer loop
      vertex 13.7 15.4 0.52
      vertex 14.56 33.82 0.52
      vertex 14.56 15.4 0.52
    endloop
  endfacet
  facet normal -0 0 -1
    outer loop
      vertex 14.56 33.82 0.52
      vertex 13.7 15.4 0.52
      vertex 13.7 33.82 0.52
    endloop
  endfacet
  facet normal 0 1 -0
    outer loop
      vertex 14.56 33.82 0.52
      vertex 13.7 33.82 13.1
      vertex 14.56 33.82 13.1
    endloop
  endfacet
  facet normal 0 1 0
    outer loop
      vertex 13.7 33.82 13.1
      vertex 14.56 33.82 0.52
      vertex 13.7 33.82 0.52
    endloop
  endfacet
  facet normal 0 -1 0
    outer loop
      vertex 13.7 15.4 0.52
      vertex 14.56 15.4 113.3
      vertex 13.7 15.4 113.3
    endloop
  endfacet
  facet normal 0 -1 -0
    outer loop
      vertex 14.56 15.4 113.3
      vertex 13.7 15.4 0.52
      vertex 14.56 15.4 0.52
    endloop
  endfacet
  facet normal -0 0 1
    outer loop
      vertex 3.5 33.82 114.2
      vertex 13.7 17.4 114.2
      vertex 13.7 33.82 114.2
    endloop
  endfacet
  facet normal 0 0 1
    outer loop
      vertex 3.5 15.4 114.2
      vertex 13.7 17.4 114.2
      vertex 3.5 33.82 114.2
    endloop
  endfacet
  facet normal 0 0 1
    outer loop
      vertex 13.7 17.4 114.2
      vertex 3.5 15.4 114.2
      vertex 13.7 15.4 114.2
    endloop
  endfacet
  facet normal 0 0 -1
    outer loop
      vertex 3.5 15.4 113.3
      vertex 13.7 17.4 113.3
      vertex 13.7 15.4 113.3
    endloop
  endfacet
  facet normal 0 0 -1
    outer loop
      vertex 3.5 33.82 113.3
      vertex 13.7 17.4 113.3
      vertex 3.5 15.4 113.3
    endloop
  endfacet
  facet normal 0 0 -1
    outer loop
      vertex 13.7 17.4 113.3
      vertex 3.5 33.82 113.3
      vertex 13.7 33.82 113.3
    endloop
  endfacet
  facet normal -1 0 0
    outer loop
      vertex 3.5 15.4 113.3
      vertex 3.5 33.82 114.2
      vertex 3.5 33.82 113.3
    endloop
  endfacet
  facet normal -1 -0 0
    outer loop
      vertex 3.5 33.82 114.2
      vertex 3.5 15.4 113.3
      vertex 3.5 15.4 114.2
    endloop
  endfacet
  facet normal 0 1 -0
    outer loop
      vertex 13.7 33.82 113.3
      vertex 3.5 33.82 114.2
      vertex 13.7 33.82 114.2
    endloop
  endfacet
  facet normal 0 1 0
    outer loop
      vertex 3.5 33.82 114.2
      vertex 13.7 33.82 113.3
      vertex 3.5 33.82 113.3
    endloop
  endfacet
  facet normal 0 -1 0
    outer loop
      vertex 3.5 15.4 113.3
      vertex 13.7 15.4 114.2
      vertex 3.5 15.4 114.2
    endloop
  endfacet
  facet normal 0 -1 -0
    outer loop
      vertex 13.7 15.4 114.2
      vertex 3.5 15.4 113.3
      vertex 13.7 15.4 113.3
    endloop
  endfacet
endsolid OpenSCAD_Model
