solid OpenSCAD_Model
  facet normal 1 0 0
    outer loop
      vertex 253.7 16.9 37.8
      vertex 253.7 13.9 37.8
      vertex 253.7 16.9 12.8
    endloop
  endfacet
  facet normal 1 0 0
    outer loop
      vertex 253.7 59.9 12.8
      vertex 253.7 62.9 37.8
      vertex 253.7 59.9 37.8
    endloop
  endfacet
  facet normal 1 0 0
    outer loop
      vertex 253.7 62.9 37.8
      vertex 253.7 59.9 12.8
      vertex 253.7 62.9 0
    endloop
  endfacet
  facet normal 1 -0 0
    outer loop
      vertex 253.7 16.9 12.8
      vertex 253.7 62.9 0
      vertex 253.7 59.9 12.8
    endloop
  endfacet
  facet normal 1 0 0
    outer loop
      vertex 253.7 16.9 12.8
      vertex 253.7 13.9 0
      vertex 253.7 62.9 0
    endloop
  endfacet
  facet normal 1 0 0
    outer loop
      vertex 253.7 13.9 0
      vertex 253.7 16.9 12.8
      vertex 253.7 13.9 37.8
    endloop
  endfacet
  facet normal 0 0 1
    outer loop
      vertex 244.7 14.7787 37.8
      vertex 253.7 16.9 37.8
      vertex 244.7 16.9 37.8
    endloop
  endfacet
  facet normal 0 0 1
    outer loop
      vertex 253.7 16.9 37.8
      vertex 244.7 14.7787 37.8
      vertex 253.7 13.9 37.8
    endloop
  endfacet
  facet normal 0 0 1
    outer loop
      vertex 235.7 13.9 37.8
      vertex 244.7 14.7787 37.8
      vertex 235.7 14.7787 37.8
    endloop
  endfacet
  facet normal 0 0 1
    outer loop
      vertex 244.7 14.7787 37.8
      vertex 235.7 13.9 37.8
      vertex 253.7 13.9 37.8
    endloop
  endfacet
  facet normal 0 0 -1
    outer loop
      vertex 241.7 27.4 0
      vertex 247.7 49.4 0
      vertex 247.7 27.4 0
    endloop
  endfacet
  facet normal -0 0 -1
    outer loop
      vertex 247.7 49.4 0
      vertex 241.7 27.4 0
      vertex 241.7 49.4 0
    endloop
  endfacet
  facet normal 0 0 -1
    outer loop
      vertex 247.7 27.4 0
      vertex 253.7 13.9 0
      vertex 247.7 21.4 0
    endloop
  endfacet
  facet normal 0 0 -1
    outer loop
      vertex 253.7 13.9 0
      vertex 241.7 21.4 0
      vertex 247.7 21.4 0
    endloop
  endfacet
  facet normal 0 0 -1
    outer loop
      vertex 235.7 13.9 0
      vertex 241.7 27.4 0
      vertex 241.7 21.4 0
    endloop
  endfacet
  facet normal -0 0 -1
    outer loop
      vertex 241.7 27.4 0
      vertex 235.7 13.9 0
      vertex 241.7 49.4 0
    endloop
  endfacet
  facet normal 0 0 -1
    outer loop
      vertex 235.7 62.9 0
      vertex 241.7 49.4 0
      vertex 235.7 13.9 0
    endloop
  endfacet
  facet normal 0 0 -1
    outer loop
      vertex 235.7 13.9 0
      vertex 241.7 21.4 0
      vertex 253.7 13.9 0
    endloop
  endfacet
  facet normal 0 0 -1
    outer loop
      vertex 253.7 13.9 0
      vertex 247.7 27.4 0
      vertex 253.7 62.9 0
    endloop
  endfacet
  facet normal 0 0 -1
    outer loop
      vertex 247.7 49.4 0
      vertex 253.7 62.9 0
      vertex 247.7 27.4 0
    endloop
  endfacet
  facet normal 0 0 -1
    outer loop
      vertex 247.7 55.4 0
      vertex 253.7 62.9 0
      vertex 247.7 49.4 0
    endloop
  endfacet
  facet normal 0 0 -1
    outer loop
      vertex 241.7 55.4 0
      vertex 253.7 62.9 0
      vertex 247.7 55.4 0
    endloop
  endfacet
  facet normal 0 0 -1
    outer loop
      vertex 241.7 55.4 0
      vertex 235.7 62.9 0
      vertex 253.7 62.9 0
    endloop
  endfacet
  facet normal 0 0 -1
    outer loop
      vertex 241.7 49.4 0
      vertex 235.7 62.9 0
      vertex 241.7 55.4 0
    endloop
  endfacet
  facet normal -1 0 0
    outer loop
      vertex 235.7 59.9 12.8
      vertex 235.7 62.9 37.8
      vertex 235.7 62.9 0
    endloop
  endfacet
  facet normal -1 0 0
    outer loop
      vertex 235.7 59.9 35.6787
      vertex 235.7 62.9 37.8
      vertex 235.7 59.9 12.8
    endloop
  endfacet
  facet normal -1 0 0
    outer loop
      vertex 235.7 62.9 0
      vertex 235.7 16.9 12.8
      vertex 235.7 59.9 12.8
    endloop
  endfacet
  facet normal -1 0 0
    outer loop
      vertex 235.7 13.9 37.8
      vertex 235.7 16.9 35.6787
      vertex 235.7 16.9 12.8
    endloop
  endfacet
  facet normal -1 0 0
    outer loop
      vertex 235.7 13.9 0
      vertex 235.7 16.9 12.8
      vertex 235.7 62.9 0
    endloop
  endfacet
  facet normal -1 0 0
    outer loop
      vertex 235.7 13.9 37.8
      vertex 235.7 16.9 12.8
      vertex 235.7 13.9 0
    endloop
  endfacet
  facet normal -1 0 0
    outer loop
      vertex 235.7 16.9 35.6787
      vertex 235.7 13.9 37.8
      vertex 235.7 14.7787 37.8
    endloop
  endfacet
  facet normal -1 -0 0
    outer loop
      vertex 235.7 62.9 37.8
      vertex 235.7 59.9 35.6787
      vertex 235.7 62.0213 37.8
    endloop
  endfacet
  facet normal 0 1 0
    outer loop
      vertex 253.7 16.9 37.8
      vertex 244.7 16.9 35.6787
      vertex 244.7 16.9 37.8
    endloop
  endfacet
  facet normal 0 1 -0
    outer loop
      vertex 253.7 16.9 12.8
      vertex 244.7 16.9 35.6787
      vertex 253.7 16.9 37.8
    endloop
  endfacet
  facet normal 0 1 0
    outer loop
      vertex 235.7 16.9 12.8
      vertex 244.7 16.9 35.6787
      vertex 253.7 16.9 12.8
    endloop
  endfacet
  facet normal 0 1 0
    outer loop
      vertex 244.7 16.9 35.6787
      vertex 235.7 16.9 12.8
      vertex 235.7 16.9 35.6787
    endloop
  endfacet
  facet normal 0 -1 0
    outer loop
      vertex 235.7 13.9 0
      vertex 253.7 13.9 37.8
      vertex 235.7 13.9 37.8
    endloop
  endfacet
  facet normal 0 -1 -0
    outer loop
      vertex 253.7 13.9 37.8
      vertex 235.7 13.9 0
      vertex 253.7 13.9 0
    endloop
  endfacet
  facet normal 0 0 1
    outer loop
      vertex 253.7 62.9 37.8
      vertex 244.7 62.0213 37.8
      vertex 253.7 59.9 37.8
    endloop
  endfacet
  facet normal -0 0 1
    outer loop
      vertex 235.7 62.9 37.8
      vertex 244.7 62.0213 37.8
      vertex 253.7 62.9 37.8
    endloop
  endfacet
  facet normal 0 0 1
    outer loop
      vertex 244.7 62.0213 37.8
      vertex 235.7 62.9 37.8
      vertex 235.7 62.0213 37.8
    endloop
  endfacet
  facet normal 0 0 1
    outer loop
      vertex 253.7 59.9 37.8
      vertex 244.7 62.0213 37.8
      vertex 244.7 59.9 37.8
    endloop
  endfacet
  facet normal 0 1 -0
    outer loop
      vertex 253.7 62.9 0
      vertex 235.7 62.9 37.8
      vertex 253.7 62.9 37.8
    endloop
  endfacet
  facet normal 0 1 0
    outer loop
      vertex 235.7 62.9 37.8
      vertex 253.7 62.9 0
      vertex 235.7 62.9 0
    endloop
  endfacet
  facet normal 0 -1 0
    outer loop
      vertex 235.7 59.9 35.6787
      vertex 235.7 59.9 12.8
      vertex 244.7 59.9 35.6787
    endloop
  endfacet
  facet normal 0 -1 0
    outer loop
      vertex 244.7 59.9 35.6787
      vertex 253.7 59.9 37.8
      vertex 244.7 59.9 37.8
    endloop
  endfacet
  facet normal 0 -1 0
    outer loop
      vertex 253.7 59.9 12.8
      vertex 244.7 59.9 35.6787
      vertex 235.7 59.9 12.8
    endloop
  endfacet
  facet normal 0 -1 0
    outer loop
      vertex 244.7 59.9 35.6787
      vertex 253.7 59.9 12.8
      vertex 253.7 59.9 37.8
    endloop
  endfacet
  facet normal -0 0 1
    outer loop
      vertex 235.7 59.9 12.8
      vertex 253.7 16.9 12.8
      vertex 253.7 59.9 12.8
    endloop
  endfacet
  facet normal 0 0 1
    outer loop
      vertex 253.7 16.9 12.8
      vertex 235.7 59.9 12.8
      vertex 235.7 16.9 12.8
    endloop
  endfacet
  facet normal -0 0.707107 0.707107
    outer loop
      vertex 235.7 16.9 35.6787
      vertex 244.7 14.7787 37.8
      vertex 244.7 16.9 35.6787
    endloop
  endfacet
  facet normal 0 0.707107 0.707107
    outer loop
      vertex 244.7 14.7787 37.8
      vertex 235.7 16.9 35.6787
      vertex 235.7 14.7787 37.8
    endloop
  endfacet
  facet normal -1 -0 -0
    outer loop
      vertex 244.7 16.9 37.8
      vertex 244.7 16.9 35.6787
      vertex 244.7 14.7787 37.8
    endloop
  endfacet
  facet normal -1 0 0
    outer loop
      vertex 244.7 59.9 37.8
      vertex 244.7 62.0213 37.8
      vertex 244.7 59.9 35.6787
    endloop
  endfacet
  facet normal -1.01162e-17 -0.707107 0.707107
    outer loop
      vertex 235.7 59.9 35.6787
      vertex 244.7 62.0213 37.8
      vertex 235.7 62.0213 37.8
    endloop
  endfacet
  facet normal -1.01162e-17 -0.707107 0.707107
    outer loop
      vertex 244.7 62.0213 37.8
      vertex 235.7 59.9 35.6787
      vertex 244.7 59.9 35.6787
    endloop
  endfacet
  facet normal 1 -0 0
    outer loop
      vertex 247.7 21.4 0
      vertex 247.7 27.4 -2.4
      vertex 247.7 27.4 0
    endloop
  endfacet
  facet normal 1 0 0
    outer loop
      vertex 247.7 27.4 -2.4
      vertex 247.7 21.4 0
      vertex 247.7 21.4 -2.4
    endloop
  endfacet
  facet normal 0 0 -1
    outer loop
      vertex 241.7 21.4 -2.4
      vertex 247.7 27.4 -2.4
      vertex 247.7 21.4 -2.4
    endloop
  endfacet
  facet normal -0 0 -1
    outer loop
      vertex 247.7 27.4 -2.4
      vertex 241.7 21.4 -2.4
      vertex 241.7 27.4 -2.4
    endloop
  endfacet
  facet normal -1 0 0
    outer loop
      vertex 241.7 21.4 -2.4
      vertex 241.7 27.4 0
      vertex 241.7 27.4 -2.4
    endloop
  endfacet
  facet normal -1 -0 0
    outer loop
      vertex 241.7 27.4 0
      vertex 241.7 21.4 -2.4
      vertex 241.7 21.4 0
    endloop
  endfacet
  facet normal 0 1 -0
    outer loop
      vertex 247.7 27.4 -2.4
      vertex 241.7 27.4 0
      vertex 247.7 27.4 0
    endloop
  endfacet
  facet normal 0 1 0
    outer loop
      vertex 241.7 27.4 0
      vertex 247.7 27.4 -2.4
      vertex 241.7 27.4 -2.4
    endloop
  endfacet
  facet normal 0 -1 0
    outer loop
      vertex 241.7 21.4 -2.4
      vertex 247.7 21.4 0
      vertex 241.7 21.4 0
    endloop
  endfacet
  facet normal 0 -1 -0
    outer loop
      vertex 247.7 21.4 0
      vertex 241.7 21.4 -2.4
      vertex 247.7 21.4 -2.4
    endloop
  endfacet
  facet normal 1 -0 0
    outer loop
      vertex 247.7 49.4 0
      vertex 247.7 55.4 -2.4
      vertex 247.7 55.4 0
    endloop
  endfacet
  facet normal 1 0 0
    outer loop
      vertex 247.7 55.4 -2.4
      vertex 247.7 49.4 0
      vertex 247.7 49.4 -2.4
    endloop
  endfacet
  facet normal 0 0 -1
    outer loop
      vertex 241.7 49.4 -2.4
      vertex 247.7 55.4 -2.4
      vertex 247.7 49.4 -2.4
    endloop
  endfacet
  facet normal -0 0 -1
    outer loop
      vertex 247.7 55.4 -2.4
      vertex 241.7 49.4 -2.4
      vertex 241.7 55.4 -2.4
    endloop
  endfacet
  facet normal -1 0 0
    outer loop
      vertex 241.7 49.4 -2.4
      vertex 241.7 55.4 0
      vertex 241.7 55.4 -2.4
    endloop
  endfacet
  facet normal -1 -0 0
    outer loop
      vertex 241.7 55.4 0
      vertex 241.7 49.4 -2.4
      vertex 241.7 49.4 0
    endloop
  endfacet
  facet normal 0 1 -0
    outer loop
      vertex 247.7 55.4 -2.4
      vertex 241.7 55.4 0
      vertex 247.7 55.4 0
    endloop
  endfacet
  facet normal 0 1 0
    outer loop
      vertex 241.7 55.4 0
      vertex 247.7 55.4 -2.4
      vertex 241.7 55.4 -2.4
    endloop
  endfacet
  facet normal 0 -1 0
    outer loop
      vertex 241.7 49.4 -2.4
      vertex 247.7 49.4 0
      vertex 241.7 49.4 0
    endloop
  endfacet
  facet normal 0 -1 -0
    outer loop
      vertex 247.7 49.4 0
      vertex 241.7 49.4 -2.4
      vertex 247.7 49.4 -2.4
    endloop
  endfacet
endsolid OpenSCAD_Model
