solid OpenSCAD_Model
  facet normal 0 0 -1
    outer loop
      vertex -7 -59 50
      vertex -4 -56 50
      vertex -4 -59 50
    endloop
  endfacet
  facet normal -0 0 -1
    outer loop
      vertex -4 -56 50
      vertex -7 -59 50
      vertex -7 -56 50
    endloop
  endfacet
  facet normal -0 0 1
    outer loop
      vertex -7 -56 30
      vertex -4 -59 30
      vertex -4 -56 30
    endloop
  endfacet
  facet normal 0 0 1
    outer loop
      vertex -4 -59 30
      vertex -7 -56 30
      vertex -7 -59 30
    endloop
  endfacet
  facet normal 0 -1 0
    outer loop
      vertex -7 -56 30
      vertex -4 -56 50
      vertex -7 -56 50
    endloop
  endfacet
  facet normal 0 -1 -0
    outer loop
      vertex -4 -56 50
      vertex -7 -56 30
      vertex -4 -56 30
    endloop
  endfacet
  facet normal 0 1 -0
    outer loop
      vertex -4 -59 30
      vertex -7 -59 50
      vertex -4 -59 50
    endloop
  endfacet
  facet normal 0 1 0
    outer loop
      vertex -7 -59 50
      vertex -4 -59 30
      vertex -7 -59 30
    endloop
  endfacet
  facet normal 0 0 -1
    outer loop
      vertex -7 -59 74
      vertex -4 -56 74
      vertex -4 -59 74
    endloop
  endfacet
  facet normal -0 0 -1
    outer loop
      vertex -4 -56 74
      vertex -7 -59 74
      vertex -7 -56 74
    endloop
  endfacet
  facet normal -0 0 1
    outer loop
      vertex -7 -56 54
      vertex -4 -59 54
      vertex -4 -56 54
    endloop
  endfacet
  facet normal 0 0 1
    outer loop
      vertex -4 -59 54
      vertex -7 -56 54
      vertex -7 -59 54
    endloop
  endfacet
  facet normal 0 -1 0
    outer loop
      vertex -7 -56 54
      vertex -4 -56 74
      vertex -7 -56 74
    endloop
  endfacet
  facet normal 0 -1 -0
    outer loop
      vertex -4 -56 74
      vertex -7 -56 54
      vertex -4 -56 54
    endloop
  endfacet
  facet normal 0 1 -0
    outer loop
      vertex -4 -59 54
      vertex -7 -59 74
      vertex -4 -59 74
    endloop
  endfacet
  facet normal 0 1 0
    outer loop
      vertex -7 -59 74
      vertex -4 -59 54
      vertex -7 -59 54
    endloop
  endfacet
  facet normal 0 0 -1
    outer loop
      vertex -7 -59 98
      vertex -4 -56 98
      vertex -4 -59 98
    endloop
  endfacet
  facet normal -0 0 -1
    outer loop
      vertex -4 -56 98
      vertex -7 -59 98
      vertex -7 -56 98
    endloop
  endfacet
  facet normal -0 0 1
    outer loop
      vertex -7 -56 78
      vertex -4 -59 78
      vertex -4 -56 78
    endloop
  endfacet
  facet normal 0 0 1
    outer loop
      vertex -4 -59 78
      vertex -7 -56 78
      vertex -7 -59 78
    endloop
  endfacet
  facet normal 0 -1 0
    outer loop
      vertex -7 -56 78
      vertex -4 -56 98
      vertex -7 -56 98
    endloop
  endfacet
  facet normal 0 -1 -0
    outer loop
      vertex -4 -56 98
      vertex -7 -56 78
      vertex -4 -56 78
    endloop
  endfacet
  facet normal 0 1 -0
    outer loop
      vertex -4 -59 78
      vertex -7 -59 98
      vertex -4 -59 98
    endloop
  endfacet
  facet normal 0 1 0
    outer loop
      vertex -7 -59 98
      vertex -4 -59 78
      vertex -7 -59 78
    endloop
  endfacet
  facet normal 0 0 -1
    outer loop
      vertex -7 -59 122
      vertex -4 -56 122
      vertex -4 -59 122
    endloop
  endfacet
  facet normal -0 0 -1
    outer loop
      vertex -4 -56 122
      vertex -7 -59 122
      vertex -7 -56 122
    endloop
  endfacet
  facet normal -0 0 1
    outer loop
      vertex -7 -56 102
      vertex -4 -59 102
      vertex -4 -56 102
    endloop
  endfacet
  facet normal 0 0 1
    outer loop
      vertex -4 -59 102
      vertex -7 -56 102
      vertex -7 -59 102
    endloop
  endfacet
  facet normal 0 -1 0
    outer loop
      vertex -7 -56 102
      vertex -4 -56 122
      vertex -7 -56 122
    endloop
  endfacet
  facet normal 0 -1 -0
    outer loop
      vertex -4 -56 122
      vertex -7 -56 102
      vertex -4 -56 102
    endloop
  endfacet
  facet normal 0 1 -0
    outer loop
      vertex -4 -59 102
      vertex -7 -59 122
      vertex -4 -59 122
    endloop
  endfacet
  facet normal 0 1 0
    outer loop
      vertex -7 -59 122
      vertex -4 -59 102
      vertex -7 -59 102
    endloop
  endfacet
  facet normal 0 0 -1
    outer loop
      vertex -7 -59 146
      vertex -4 -56 146
      vertex -4 -59 146
    endloop
  endfacet
  facet normal -0 0 -1
    outer loop
      vertex -4 -56 146
      vertex -7 -59 146
      vertex -7 -56 146
    endloop
  endfacet
  facet normal -0 0 1
    outer loop
      vertex -7 -56 126
      vertex -4 -59 126
      vertex -4 -56 126
    endloop
  endfacet
  facet normal 0 0 1
    outer loop
      vertex -4 -59 126
      vertex -7 -56 126
      vertex -7 -59 126
    endloop
  endfacet
  facet normal 0 -1 0
    outer loop
      vertex -7 -56 126
      vertex -4 -56 146
      vertex -7 -56 146
    endloop
  endfacet
  facet normal 0 -1 -0
    outer loop
      vertex -4 -56 146
      vertex -7 -56 126
      vertex -4 -56 126
    endloop
  endfacet
  facet normal 0 1 -0
    outer loop
      vertex -4 -59 126
      vertex -7 -59 146
      vertex -4 -59 146
    endloop
  endfacet
  facet normal 0 1 0
    outer loop
      vertex -7 -59 146
      vertex -4 -59 126
      vertex -7 -59 126
    endloop
  endfacet
  facet normal 0 0 -1
    outer loop
      vertex -7 -53 50
      vertex -4 -50 50
      vertex -4 -53 50
    endloop
  endfacet
  facet normal -0 0 -1
    outer loop
      vertex -4 -50 50
      vertex -7 -53 50
      vertex -7 -50 50
    endloop
  endfacet
  facet normal -0 0 1
    outer loop
      vertex -7 -50 30
      vertex -4 -53 30
      vertex -4 -50 30
    endloop
  endfacet
  facet normal 0 0 1
    outer loop
      vertex -4 -53 30
      vertex -7 -50 30
      vertex -7 -53 30
    endloop
  endfacet
  facet normal 0 -1 0
    outer loop
      vertex -7 -50 30
      vertex -4 -50 50
      vertex -7 -50 50
    endloop
  endfacet
  facet normal 0 -1 -0
    outer loop
      vertex -4 -50 50
      vertex -7 -50 30
      vertex -4 -50 30
    endloop
  endfacet
  facet normal 0 1 -0
    outer loop
      vertex -4 -53 30
      vertex -7 -53 50
      vertex -4 -53 50
    endloop
  endfacet
  facet normal 0 1 0
    outer loop
      vertex -7 -53 50
      vertex -4 -53 30
      vertex -7 -53 30
    endloop
  endfacet
  facet normal 0 0 -1
    outer loop
      vertex -7 -53 74
      vertex -4 -50 74
      vertex -4 -53 74
    endloop
  endfacet
  facet normal -0 0 -1
    outer loop
      vertex -4 -50 74
      vertex -7 -53 74
      vertex -7 -50 74
    endloop
  endfacet
  facet normal -0 0 1
    outer loop
      vertex -7 -50 54
      vertex -4 -53 54
      vertex -4 -50 54
    endloop
  endfacet
  facet normal 0 0 1
    outer loop
      vertex -4 -53 54
      vertex -7 -50 54
      vertex -7 -53 54
    endloop
  endfacet
  facet normal 0 -1 0
    outer loop
      vertex -7 -50 54
      vertex -4 -50 74
      vertex -7 -50 74
    endloop
  endfacet
  facet normal 0 -1 -0
    outer loop
      vertex -4 -50 74
      vertex -7 -50 54
      vertex -4 -50 54
    endloop
  endfacet
  facet normal 0 1 -0
    outer loop
      vertex -4 -53 54
      vertex -7 -53 74
      vertex -4 -53 74
    endloop
  endfacet
  facet normal 0 1 0
    outer loop
      vertex -7 -53 74
      vertex -4 -53 54
      vertex -7 -53 54
    endloop
  endfacet
  facet normal 0 0 -1
    outer loop
      vertex -7 -53 98
      vertex -4 -50 98
      vertex -4 -53 98
    endloop
  endfacet
  facet normal -0 0 -1
    outer loop
      vertex -4 -50 98
      vertex -7 -53 98
      vertex -7 -50 98
    endloop
  endfacet
  facet normal -0 0 1
    outer loop
      vertex -7 -50 78
      vertex -4 -53 78
      vertex -4 -50 78
    endloop
  endfacet
  facet normal 0 0 1
    outer loop
      vertex -4 -53 78
      vertex -7 -50 78
      vertex -7 -53 78
    endloop
  endfacet
  facet normal 0 -1 0
    outer loop
      vertex -7 -50 78
      vertex -4 -50 98
      vertex -7 -50 98
    endloop
  endfacet
  facet normal 0 -1 -0
    outer loop
      vertex -4 -50 98
      vertex -7 -50 78
      vertex -4 -50 78
    endloop
  endfacet
  facet normal 0 1 -0
    outer loop
      vertex -4 -53 78
      vertex -7 -53 98
      vertex -4 -53 98
    endloop
  endfacet
  facet normal 0 1 0
    outer loop
      vertex -7 -53 98
      vertex -4 -53 78
      vertex -7 -53 78
    endloop
  endfacet
  facet normal 0 0 -1
    outer loop
      vertex -7 -53 122
      vertex -4 -50 122
      vertex -4 -53 122
    endloop
  endfacet
  facet normal -0 0 -1
    outer loop
      vertex -4 -50 122
      vertex -7 -53 122
      vertex -7 -50 122
    endloop
  endfacet
  facet normal -0 0 1
    outer loop
      vertex -7 -50 102
      vertex -4 -53 102
      vertex -4 -50 102
    endloop
  endfacet
  facet normal 0 0 1
    outer loop
      vertex -4 -53 102
      vertex -7 -50 102
      vertex -7 -53 102
    endloop
  endfacet
  facet normal 0 -1 0
    outer loop
      vertex -7 -50 102
      vertex -4 -50 122
      vertex -7 -50 122
    endloop
  endfacet
  facet normal 0 -1 -0
    outer loop
      vertex -4 -50 122
      vertex -7 -50 102
      vertex -4 -50 102
    endloop
  endfacet
  facet normal 0 1 -0
    outer loop
      vertex -4 -53 102
      vertex -7 -53 122
      vertex -4 -53 122
    endloop
  endfacet
  facet normal 0 1 0
    outer loop
      vertex -7 -53 122
      vertex -4 -53 102
      vertex -7 -53 102
    endloop
  endfacet
  facet normal 0 0 -1
    outer loop
      vertex -7 -53 146
      vertex -4 -50 146
      vertex -4 -53 146
    endloop
  endfacet
  facet normal -0 0 -1
    outer loop
      vertex -4 -50 146
      vertex -7 -53 146
      vertex -7 -50 146
    endloop
  endfacet
  facet normal -0 0 1
    outer loop
      vertex -7 -50 126
      vertex -4 -53 126
      vertex -4 -50 126
    endloop
  endfacet
  facet normal 0 0 1
    outer loop
      vertex -4 -53 126
      vertex -7 -50 126
      vertex -7 -53 126
    endloop
  endfacet
  facet normal 0 -1 0
    outer loop
      vertex -7 -50 126
      vertex -4 -50 146
      vertex -7 -50 146
    endloop
  endfacet
  facet normal 0 -1 -0
    outer loop
      vertex -4 -50 146
      vertex -7 -50 126
      vertex -4 -50 126
    endloop
  endfacet
  facet normal 0 1 -0
    outer loop
      vertex -4 -53 126
      vertex -7 -53 146
      vertex -4 -53 146
    endloop
  endfacet
  facet normal 0 1 0
    outer loop
      vertex -7 -53 146
      vertex -4 -53 126
      vertex -7 -53 126
    endloop
  endfacet
  facet normal 0 0 -1
    outer loop
      vertex -7 -148 147
      vertex -4 -68 147
      vertex -4 -148 147
    endloop
  endfacet
  facet normal -0 0 -1
    outer loop
      vertex -4 -68 147
      vertex -7 -148 147
      vertex -7 -68 147
    endloop
  endfacet
  facet normal 0 -1 0
    outer loop
      vertex -7 -68 3.5
      vertex -4 -68 147
      vertex -7 -68 147
    endloop
  endfacet
  facet normal 0 -1 -0
    outer loop
      vertex -4 -68 147
      vertex -7 -68 3.5
      vertex -4 -68 3.5
    endloop
  endfacet
  facet normal 0 1 -0
    outer loop
      vertex -4 -148 3.5
      vertex -7 -148 147
      vertex -4 -148 147
    endloop
  endfacet
  facet normal 0 1 0
    outer loop
      vertex -7 -148 147
      vertex -4 -148 3.5
      vertex -7 -148 3.5
    endloop
  endfacet
  facet normal -0 0 1
    outer loop
      vertex -7 -68 3.5
      vertex -4 -148 3.5
      vertex -4 -68 3.5
    endloop
  endfacet
  facet normal 0 0 1
    outer loop
      vertex -4 -148 3.5
      vertex -7 -68 3.5
      vertex -7 -148 3.5
    endloop
  endfacet
  facet normal 1 -0 0
    outer loop
      vertex -4 -59 54
      vertex -4 -56 50
      vertex -4 -56 54
    endloop
  endfacet
  facet normal 1 0 0
    outer loop
      vertex -4 -56 50
      vertex -4 -59 54
      vertex -4 -59 50
    endloop
  endfacet
  facet normal 1 -0 0
    outer loop
      vertex -4 -59 78
      vertex -4 -56 74
      vertex -4 -56 78
    endloop
  endfacet
  facet normal 1 0 0
    outer loop
      vertex -4 -56 74
      vertex -4 -59 78
      vertex -4 -59 74
    endloop
  endfacet
  facet normal 1 -0 0
    outer loop
      vertex -4 -59 102
      vertex -4 -56 98
      vertex -4 -56 102
    endloop
  endfacet
  facet normal 1 0 0
    outer loop
      vertex -4 -56 98
      vertex -4 -59 102
      vertex -4 -59 98
    endloop
  endfacet
  facet normal 1 -0 0
    outer loop
      vertex -4 -59 126
      vertex -4 -56 122
      vertex -4 -56 126
    endloop
  endfacet
  facet normal 1 0 0
    outer loop
      vertex -4 -56 122
      vertex -4 -59 126
      vertex -4 -59 122
    endloop
  endfacet
  facet normal 1 -0 0
    outer loop
      vertex -4 -53 54
      vertex -4 -50 50
      vertex -4 -50 54
    endloop
  endfacet
  facet normal 1 0 0
    outer loop
      vertex -4 -50 50
      vertex -4 -53 54
      vertex -4 -53 50
    endloop
  endfacet
  facet normal 1 -0 0
    outer loop
      vertex -4 -53 78
      vertex -4 -50 74
      vertex -4 -50 78
    endloop
  endfacet
  facet normal 1 0 0
    outer loop
      vertex -4 -50 74
      vertex -4 -53 78
      vertex -4 -53 74
    endloop
  endfacet
  facet normal 1 -0 0
    outer loop
      vertex -4 -53 102
      vertex -4 -50 98
      vertex -4 -50 102
    endloop
  endfacet
  facet normal 1 0 0
    outer loop
      vertex -4 -50 98
      vertex -4 -53 102
      vertex -4 -53 98
    endloop
  endfacet
  facet normal 1 -0 0
    outer loop
      vertex -4 -53 126
      vertex -4 -50 122
      vertex -4 -50 126
    endloop
  endfacet
  facet normal 1 0 0
    outer loop
      vertex -4 -50 122
      vertex -4 -53 126
      vertex -4 -53 122
    endloop
  endfacet
  facet normal 1 0 0
    outer loop
      vertex -4 -50 126
      vertex -4 -42.3 173.12
      vertex -4 -50 146
    endloop
  endfacet
  facet normal 1 0 0
    outer loop
      vertex -4 -42.3 173.12
      vertex -4 -53 146
      vertex -4 -50 146
    endloop
  endfacet
  facet normal 1 0 0
    outer loop
      vertex -4 -56 126
      vertex -4 -53 126
      vertex -4 -53 146
    endloop
  endfacet
  facet normal 1 0 0
    outer loop
      vertex -4 -53 126
      vertex -4 -56 126
      vertex -4 -53 122
    endloop
  endfacet
  facet normal 1 0 0
    outer loop
      vertex -4 -53 122
      vertex -4 -56 122
      vertex -4 -53 102
    endloop
  endfacet
  facet normal 1 0 0
    outer loop
      vertex -4 -56 102
      vertex -4 -53 102
      vertex -4 -56 122
    endloop
  endfacet
  facet normal 1 0 0
    outer loop
      vertex -4 -56 98
      vertex -4 -53 98
      vertex -4 -56 102
    endloop
  endfacet
  facet normal 1 0 0
    outer loop
      vertex -4 -53 98
      vertex -4 -56 98
      vertex -4 -53 78
    endloop
  endfacet
  facet normal 1 0 0
    outer loop
      vertex -4 -53 78
      vertex -4 -56 78
      vertex -4 -53 74
    endloop
  endfacet
  facet normal 1 0 0
    outer loop
      vertex -4 -56 74
      vertex -4 -53 74
      vertex -4 -56 78
    endloop
  endfacet
  facet normal 1 0 0
    outer loop
      vertex -4 -56 126
      vertex -4 -53 146
      vertex -4 -56 146
    endloop
  endfacet
  facet normal 1 0 0
    outer loop
      vertex -4 -42.3 173.12
      vertex -4 -56 146
      vertex -4 -53 146
    endloop
  endfacet
  facet normal 1 0 0
    outer loop
      vertex -4 -42.3 173.12
      vertex -4 -59 146
      vertex -4 -56 146
    endloop
  endfacet
  facet normal 1 0 0
    outer loop
      vertex -4 -68 147
      vertex -4 -59 126
      vertex -4 -59 146
    endloop
  endfacet
  facet normal 1 0 0
    outer loop
      vertex -4 -59 126
      vertex -4 -68 147
      vertex -4 -59 122
    endloop
  endfacet
  facet normal 1 0 0
    outer loop
      vertex -4 -59 122
      vertex -4 -68 147
      vertex -4 -59 102
    endloop
  endfacet
  facet normal 1 0 0
    outer loop
      vertex -4 -59 102
      vertex -4 -68 147
      vertex -4 -59 98
    endloop
  endfacet
  facet normal 1 0 0
    outer loop
      vertex -4 -59 98
      vertex -4 -68 147
      vertex -4 -59 78
    endloop
  endfacet
  facet normal 1 0 0
    outer loop
      vertex -4 -59 78
      vertex -4 -68 147
      vertex -4 -59 74
    endloop
  endfacet
  facet normal 1 0 0
    outer loop
      vertex -4 -68 3.5
      vertex -4 -59 74
      vertex -4 -68 147
    endloop
  endfacet
  facet normal 1 0 0
    outer loop
      vertex -4 -59 74
      vertex -4 -68 3.5
      vertex -4 -59 54
    endloop
  endfacet
  facet normal 1 0 0
    outer loop
      vertex -4 -59 54
      vertex -4 -68 3.5
      vertex -4 -59 50
    endloop
  endfacet
  facet normal 1 0 0
    outer loop
      vertex -4 -42.3 173.12
      vertex -4 -68 147
      vertex -4 -59 146
    endloop
  endfacet
  facet normal 1 -0 0
    outer loop
      vertex -4 -158.7 173.12
      vertex -4 -68 147
      vertex -4 -42.3 173.12
    endloop
  endfacet
  facet normal 1 0 0
    outer loop
      vertex -4 -158.7 0
      vertex -4 -148 147
      vertex -4 -158.7 173.12
    endloop
  endfacet
  facet normal 1 0 0
    outer loop
      vertex -4 -68 147
      vertex -4 -158.7 173.12
      vertex -4 -148 147
    endloop
  endfacet
  facet normal 1 0 0
    outer loop
      vertex -4 -50 122
      vertex -4 -42.3 173.12
      vertex -4 -50 126
    endloop
  endfacet
  facet normal 1 0 0
    outer loop
      vertex -4 -50 102
      vertex -4 -42.3 173.12
      vertex -4 -50 122
    endloop
  endfacet
  facet normal 1 0 0
    outer loop
      vertex -4 -50 98
      vertex -4 -42.3 173.12
      vertex -4 -50 102
    endloop
  endfacet
  facet normal 1 0 0
    outer loop
      vertex -4 -42.3 173.12
      vertex -4 -50 98
      vertex -4 -42.3 0
    endloop
  endfacet
  facet normal 1 -0 0
    outer loop
      vertex -4 -50 78
      vertex -4 -42.3 0
      vertex -4 -50 98
    endloop
  endfacet
  facet normal 1 -0 0
    outer loop
      vertex -4 -50 74
      vertex -4 -42.3 0
      vertex -4 -50 78
    endloop
  endfacet
  facet normal 1 -0 0
    outer loop
      vertex -4 -50 54
      vertex -4 -42.3 0
      vertex -4 -50 74
    endloop
  endfacet
  facet normal 1 -0 0
    outer loop
      vertex -4 -50 50
      vertex -4 -42.3 0
      vertex -4 -50 54
    endloop
  endfacet
  facet normal 1 -0 0
    outer loop
      vertex -4 -50 30
      vertex -4 -42.3 0
      vertex -4 -50 50
    endloop
  endfacet
  facet normal 1 -0 0
    outer loop
      vertex -4 -53 30
      vertex -4 -42.3 0
      vertex -4 -50 30
    endloop
  endfacet
  facet normal 1 0 0
    outer loop
      vertex -4 -53 122
      vertex -4 -56 126
      vertex -4 -56 122
    endloop
  endfacet
  facet normal 1 0 0
    outer loop
      vertex -4 -53 102
      vertex -4 -56 102
      vertex -4 -53 98
    endloop
  endfacet
  facet normal 1 0 0
    outer loop
      vertex -4 -56 78
      vertex -4 -53 78
      vertex -4 -56 98
    endloop
  endfacet
  facet normal 1 0 0
    outer loop
      vertex -4 -53 74
      vertex -4 -56 74
      vertex -4 -53 54
    endloop
  endfacet
  facet normal 1 0 0
    outer loop
      vertex -4 -56 54
      vertex -4 -53 54
      vertex -4 -56 74
    endloop
  endfacet
  facet normal 1 0 0
    outer loop
      vertex -4 -53 54
      vertex -4 -56 54
      vertex -4 -53 50
    endloop
  endfacet
  facet normal 1 0 0
    outer loop
      vertex -4 -56 50
      vertex -4 -53 50
      vertex -4 -56 54
    endloop
  endfacet
  facet normal 1 0 0
    outer loop
      vertex -4 -53 50
      vertex -4 -56 50
      vertex -4 -53 30
    endloop
  endfacet
  facet normal 1 0 0
    outer loop
      vertex -4 -56 30
      vertex -4 -53 30
      vertex -4 -56 50
    endloop
  endfacet
  facet normal 1 0 0
    outer loop
      vertex -4 -68 3.5
      vertex -4 -53 30
      vertex -4 -56 30
    endloop
  endfacet
  facet normal 1 0 0
    outer loop
      vertex -4 -68 3.5
      vertex -4 -56 30
      vertex -4 -59 30
    endloop
  endfacet
  facet normal 1 0 0
    outer loop
      vertex -4 -59 50
      vertex -4 -68 3.5
      vertex -4 -59 30
    endloop
  endfacet
  facet normal 1 0 0
    outer loop
      vertex -4 -53 30
      vertex -4 -68 3.5
      vertex -4 -42.3 0
    endloop
  endfacet
  facet normal 1 0 0
    outer loop
      vertex -4 -158.7 0
      vertex -4 -68 3.5
      vertex -4 -148 3.5
    endloop
  endfacet
  facet normal 1 0 0
    outer loop
      vertex -4 -68 3.5
      vertex -4 -158.7 0
      vertex -4 -42.3 0
    endloop
  endfacet
  facet normal 1 0 0
    outer loop
      vertex -4 -148 147
      vertex -4 -158.7 0
      vertex -4 -148 3.5
    endloop
  endfacet
  facet normal -0 0 1
    outer loop
      vertex -7 -42.3 173.12
      vertex -4 -158.7 173.12
      vertex -4 -42.3 173.12
    endloop
  endfacet
  facet normal 0 0 1
    outer loop
      vertex -4 -158.7 173.12
      vertex -7 -42.3 173.12
      vertex -7 -158.7 173.12
    endloop
  endfacet
  facet normal 0 0 -1
    outer loop
      vertex -7 -158.7 0
      vertex -4 -42.3 0
      vertex -4 -158.7 0
    endloop
  endfacet
  facet normal -0 0 -1
    outer loop
      vertex -4 -42.3 0
      vertex -7 -158.7 0
      vertex -7 -42.3 0
    endloop
  endfacet
  facet normal -1 0 0
    outer loop
      vertex -7 -59 122
      vertex -7 -56 126
      vertex -7 -56 122
    endloop
  endfacet
  facet normal -1 -0 0
    outer loop
      vertex -7 -56 126
      vertex -7 -59 122
      vertex -7 -59 126
    endloop
  endfacet
  facet normal -1 0 0
    outer loop
      vertex -7 -59 98
      vertex -7 -56 102
      vertex -7 -56 98
    endloop
  endfacet
  facet normal -1 -0 0
    outer loop
      vertex -7 -56 102
      vertex -7 -59 98
      vertex -7 -59 102
    endloop
  endfacet
  facet normal -1 0 0
    outer loop
      vertex -7 -59 74
      vertex -7 -56 78
      vertex -7 -56 74
    endloop
  endfacet
  facet normal -1 -0 0
    outer loop
      vertex -7 -56 78
      vertex -7 -59 74
      vertex -7 -59 78
    endloop
  endfacet
  facet normal -1 0 0
    outer loop
      vertex -7 -59 50
      vertex -7 -56 54
      vertex -7 -56 50
    endloop
  endfacet
  facet normal -1 -0 0
    outer loop
      vertex -7 -56 54
      vertex -7 -59 50
      vertex -7 -59 54
    endloop
  endfacet
  facet normal -1 0 0
    outer loop
      vertex -7 -53 122
      vertex -7 -50 126
      vertex -7 -50 122
    endloop
  endfacet
  facet normal -1 -0 0
    outer loop
      vertex -7 -50 126
      vertex -7 -53 122
      vertex -7 -53 126
    endloop
  endfacet
  facet normal -1 0 0
    outer loop
      vertex -7 -53 98
      vertex -7 -50 102
      vertex -7 -50 98
    endloop
  endfacet
  facet normal -1 -0 0
    outer loop
      vertex -7 -50 102
      vertex -7 -53 98
      vertex -7 -53 102
    endloop
  endfacet
  facet normal -1 0 0
    outer loop
      vertex -7 -53 74
      vertex -7 -50 78
      vertex -7 -50 74
    endloop
  endfacet
  facet normal -1 -0 0
    outer loop
      vertex -7 -50 78
      vertex -7 -53 74
      vertex -7 -53 78
    endloop
  endfacet
  facet normal -1 0 0
    outer loop
      vertex -7 -53 50
      vertex -7 -50 54
      vertex -7 -50 50
    endloop
  endfacet
  facet normal -1 -0 0
    outer loop
      vertex -7 -50 54
      vertex -7 -53 50
      vertex -7 -53 54
    endloop
  endfacet
  facet normal -1 0 0
    outer loop
      vertex -7 -50 50
      vertex -7 -42.3 0
      vertex -7 -50 30
    endloop
  endfacet
  facet normal -1 0 0
    outer loop
      vertex -7 -42.3 0
      vertex -7 -53 30
      vertex -7 -50 30
    endloop
  endfacet
  facet normal -1 0 0
    outer loop
      vertex -7 -56 50
      vertex -7 -53 50
      vertex -7 -53 30
    endloop
  endfacet
  facet normal -1 0 0
    outer loop
      vertex -7 -53 50
      vertex -7 -56 50
      vertex -7 -53 54
    endloop
  endfacet
  facet normal -1 0 0
    outer loop
      vertex -7 -53 54
      vertex -7 -56 54
      vertex -7 -53 74
    endloop
  endfacet
  facet normal -1 0 0
    outer loop
      vertex -7 -56 74
      vertex -7 -53 74
      vertex -7 -56 54
    endloop
  endfacet
  facet normal -1 0 0
    outer loop
      vertex -7 -56 78
      vertex -7 -53 78
      vertex -7 -56 74
    endloop
  endfacet
  facet normal -1 0 0
    outer loop
      vertex -7 -53 78
      vertex -7 -56 78
      vertex -7 -53 98
    endloop
  endfacet
  facet normal -1 0 0
    outer loop
      vertex -7 -53 98
      vertex -7 -56 98
      vertex -7 -53 102
    endloop
  endfacet
  facet normal -1 0 0
    outer loop
      vertex -7 -56 102
      vertex -7 -53 102
      vertex -7 -56 98
    endloop
  endfacet
  facet normal -1 0 0
    outer loop
      vertex -7 -56 50
      vertex -7 -53 30
      vertex -7 -56 30
    endloop
  endfacet
  facet normal -1 0 0
    outer loop
      vertex -7 -68 3.5
      vertex -7 -53 30
      vertex -7 -42.3 0
    endloop
  endfacet
  facet normal -1 -0 0
    outer loop
      vertex -7 -53 30
      vertex -7 -68 3.5
      vertex -7 -56 30
    endloop
  endfacet
  facet normal -1 0 0
    outer loop
      vertex -7 -68 3.5
      vertex -7 -59 50
      vertex -7 -59 30
    endloop
  endfacet
  facet normal -1 -0 0
    outer loop
      vertex -7 -59 50
      vertex -7 -68 3.5
      vertex -7 -59 54
    endloop
  endfacet
  facet normal -1 -0 0
    outer loop
      vertex -7 -59 54
      vertex -7 -68 3.5
      vertex -7 -59 74
    endloop
  endfacet
  facet normal -1 -0 0
    outer loop
      vertex -7 -59 74
      vertex -7 -68 3.5
      vertex -7 -59 78
    endloop
  endfacet
  facet normal -1 0 0
    outer loop
      vertex -7 -68 147
      vertex -7 -59 78
      vertex -7 -68 3.5
    endloop
  endfacet
  facet normal -1 0 0
    outer loop
      vertex -7 -59 78
      vertex -7 -68 147
      vertex -7 -59 98
    endloop
  endfacet
  facet normal -1 0 0
    outer loop
      vertex -7 -59 102
      vertex -7 -68 147
      vertex -7 -59 122
    endloop
  endfacet
  facet normal -1 0 0
    outer loop
      vertex -7 -59 122
      vertex -7 -68 147
      vertex -7 -59 126
    endloop
  endfacet
  facet normal -1 0 0
    outer loop
      vertex -7 -59 98
      vertex -7 -68 147
      vertex -7 -59 102
    endloop
  endfacet
  facet normal -1 -0 0
    outer loop
      vertex -7 -56 30
      vertex -7 -68 3.5
      vertex -7 -59 30
    endloop
  endfacet
  facet normal -1 0 0
    outer loop
      vertex -7 -158.7 0
      vertex -7 -68 3.5
      vertex -7 -42.3 0
    endloop
  endfacet
  facet normal -1 -0 0
    outer loop
      vertex -7 -148 3.5
      vertex -7 -158.7 0
      vertex -7 -148 147
    endloop
  endfacet
  facet normal -1 -0 0
    outer loop
      vertex -7 -68 3.5
      vertex -7 -158.7 0
      vertex -7 -148 3.5
    endloop
  endfacet
  facet normal -1 0 0
    outer loop
      vertex -7 -50 54
      vertex -7 -42.3 0
      vertex -7 -50 50
    endloop
  endfacet
  facet normal -1 0 0
    outer loop
      vertex -7 -50 74
      vertex -7 -42.3 0
      vertex -7 -50 54
    endloop
  endfacet
  facet normal -1 0 0
    outer loop
      vertex -7 -50 78
      vertex -7 -42.3 0
      vertex -7 -50 74
    endloop
  endfacet
  facet normal -1 0 0
    outer loop
      vertex -7 -42.3 0
      vertex -7 -50 78
      vertex -7 -42.3 173.12
    endloop
  endfacet
  facet normal -1 0 0
    outer loop
      vertex -7 -50 98
      vertex -7 -42.3 173.12
      vertex -7 -50 78
    endloop
  endfacet
  facet normal -1 0 0
    outer loop
      vertex -7 -50 102
      vertex -7 -42.3 173.12
      vertex -7 -50 98
    endloop
  endfacet
  facet normal -1 0 0
    outer loop
      vertex -7 -50 122
      vertex -7 -42.3 173.12
      vertex -7 -50 102
    endloop
  endfacet
  facet normal -1 0 0
    outer loop
      vertex -7 -50 126
      vertex -7 -42.3 173.12
      vertex -7 -50 122
    endloop
  endfacet
  facet normal -1 0 0
    outer loop
      vertex -7 -50 146
      vertex -7 -42.3 173.12
      vertex -7 -50 126
    endloop
  endfacet
  facet normal -1 0 0
    outer loop
      vertex -7 -53 146
      vertex -7 -42.3 173.12
      vertex -7 -50 146
    endloop
  endfacet
  facet normal -1 -0 0
    outer loop
      vertex -7 -53 54
      vertex -7 -56 50
      vertex -7 -56 54
    endloop
  endfacet
  facet normal -1 0 0
    outer loop
      vertex -7 -53 74
      vertex -7 -56 74
      vertex -7 -53 78
    endloop
  endfacet
  facet normal -1 0 0
    outer loop
      vertex -7 -56 98
      vertex -7 -53 98
      vertex -7 -56 78
    endloop
  endfacet
  facet normal -1 0 0
    outer loop
      vertex -7 -53 102
      vertex -7 -56 102
      vertex -7 -53 122
    endloop
  endfacet
  facet normal -1 0 0
    outer loop
      vertex -7 -56 122
      vertex -7 -53 122
      vertex -7 -56 102
    endloop
  endfacet
  facet normal -1 0 0
    outer loop
      vertex -7 -53 122
      vertex -7 -56 122
      vertex -7 -53 126
    endloop
  endfacet
  facet normal -1 0 0
    outer loop
      vertex -7 -56 126
      vertex -7 -53 126
      vertex -7 -56 122
    endloop
  endfacet
  facet normal -1 0 0
    outer loop
      vertex -7 -53 126
      vertex -7 -56 126
      vertex -7 -53 146
    endloop
  endfacet
  facet normal -1 0 0
    outer loop
      vertex -7 -56 146
      vertex -7 -53 146
      vertex -7 -56 126
    endloop
  endfacet
  facet normal -1 0 0
    outer loop
      vertex -7 -56 146
      vertex -7 -42.3 173.12
      vertex -7 -53 146
    endloop
  endfacet
  facet normal -1 0 0
    outer loop
      vertex -7 -59 146
      vertex -7 -42.3 173.12
      vertex -7 -56 146
    endloop
  endfacet
  facet normal -1 0 0
    outer loop
      vertex -7 -59 126
      vertex -7 -68 147
      vertex -7 -59 146
    endloop
  endfacet
  facet normal -1 0 0
    outer loop
      vertex -7 -68 147
      vertex -7 -42.3 173.12
      vertex -7 -59 146
    endloop
  endfacet
  facet normal -1 0 0
    outer loop
      vertex -7 -158.7 173.12
      vertex -7 -68 147
      vertex -7 -148 147
    endloop
  endfacet
  facet normal -1 0 0
    outer loop
      vertex -7 -68 147
      vertex -7 -158.7 173.12
      vertex -7 -42.3 173.12
    endloop
  endfacet
  facet normal -1 0 0
    outer loop
      vertex -7 -158.7 173.12
      vertex -7 -148 147
      vertex -7 -158.7 0
    endloop
  endfacet
  facet normal 0 1 -0
    outer loop
      vertex -4 -42.3 0
      vertex -7 -42.3 173.12
      vertex -4 -42.3 173.12
    endloop
  endfacet
  facet normal 0 1 0
    outer loop
      vertex -7 -42.3 173.12
      vertex -4 -42.3 0
      vertex -7 -42.3 0
    endloop
  endfacet
  facet normal 0 -1 0
    outer loop
      vertex -7 -158.7 0
      vertex -4 -158.7 173.12
      vertex -7 -158.7 173.12
    endloop
  endfacet
  facet normal 0 -1 -0
    outer loop
      vertex -4 -158.7 173.12
      vertex -7 -158.7 0
      vertex -4 -158.7 0
    endloop
  endfacet
endsolid OpenSCAD_Model
