solid OpenSCAD_Model
  facet normal -1 0 0
    outer loop
      vertex 156 -165 4
      vertex 156 -162 24
      vertex 156 -162 4
    endloop
  endfacet
  facet normal -1 -0 0
    outer loop
      vertex 156 -162 24
      vertex 156 -165 4
      vertex 156 -165 24
    endloop
  endfacet
  facet normal 0 0 -1
    outer loop
      vertex 153 -165 24
      vertex 156 -162 24
      vertex 156 -165 24
    endloop
  endfacet
  facet normal -0 0 -1
    outer loop
      vertex 156 -162 24
      vertex 153 -165 24
      vertex 153 -162 24
    endloop
  endfacet
  facet normal -0 0 1
    outer loop
      vertex 153 -162 4
      vertex 156 -165 4
      vertex 156 -162 4
    endloop
  endfacet
  facet normal 0 0 1
    outer loop
      vertex 156 -165 4
      vertex 153 -162 4
      vertex 153 -165 4
    endloop
  endfacet
  facet normal 1 -0 0
    outer loop
      vertex 153 -165 24
      vertex 153 -162 4
      vertex 153 -162 24
    endloop
  endfacet
  facet normal 1 0 0
    outer loop
      vertex 153 -162 4
      vertex 153 -165 24
      vertex 153 -165 4
    endloop
  endfacet
  facet normal -1 0 0
    outer loop
      vertex 156 -165 28
      vertex 156 -162 48
      vertex 156 -162 28
    endloop
  endfacet
  facet normal -1 -0 0
    outer loop
      vertex 156 -162 48
      vertex 156 -165 28
      vertex 156 -165 48
    endloop
  endfacet
  facet normal 0 0 -1
    outer loop
      vertex 153 -165 48
      vertex 156 -162 48
      vertex 156 -165 48
    endloop
  endfacet
  facet normal -0 0 -1
    outer loop
      vertex 156 -162 48
      vertex 153 -165 48
      vertex 153 -162 48
    endloop
  endfacet
  facet normal -0 0 1
    outer loop
      vertex 153 -162 28
      vertex 156 -165 28
      vertex 156 -162 28
    endloop
  endfacet
  facet normal 0 0 1
    outer loop
      vertex 156 -165 28
      vertex 153 -162 28
      vertex 153 -165 28
    endloop
  endfacet
  facet normal 1 -0 0
    outer loop
      vertex 153 -165 48
      vertex 153 -162 28
      vertex 153 -162 48
    endloop
  endfacet
  facet normal 1 0 0
    outer loop
      vertex 153 -162 28
      vertex 153 -165 48
      vertex 153 -165 28
    endloop
  endfacet
  facet normal -1 0 0
    outer loop
      vertex 156 -165 52
      vertex 156 -162 72
      vertex 156 -162 52
    endloop
  endfacet
  facet normal -1 -0 0
    outer loop
      vertex 156 -162 72
      vertex 156 -165 52
      vertex 156 -165 72
    endloop
  endfacet
  facet normal 0 0 -1
    outer loop
      vertex 153 -165 72
      vertex 156 -162 72
      vertex 156 -165 72
    endloop
  endfacet
  facet normal -0 0 -1
    outer loop
      vertex 156 -162 72
      vertex 153 -165 72
      vertex 153 -162 72
    endloop
  endfacet
  facet normal -0 0 1
    outer loop
      vertex 153 -162 52
      vertex 156 -165 52
      vertex 156 -162 52
    endloop
  endfacet
  facet normal 0 0 1
    outer loop
      vertex 156 -165 52
      vertex 153 -162 52
      vertex 153 -165 52
    endloop
  endfacet
  facet normal 1 -0 0
    outer loop
      vertex 153 -165 72
      vertex 153 -162 52
      vertex 153 -162 72
    endloop
  endfacet
  facet normal 1 0 0
    outer loop
      vertex 153 -162 52
      vertex 153 -165 72
      vertex 153 -165 52
    endloop
  endfacet
  facet normal -1 0 0
    outer loop
      vertex 156 -165 76
      vertex 156 -162 96
      vertex 156 -162 76
    endloop
  endfacet
  facet normal -1 -0 0
    outer loop
      vertex 156 -162 96
      vertex 156 -165 76
      vertex 156 -165 96
    endloop
  endfacet
  facet normal 0 0 -1
    outer loop
      vertex 153 -165 96
      vertex 156 -162 96
      vertex 156 -165 96
    endloop
  endfacet
  facet normal -0 0 -1
    outer loop
      vertex 156 -162 96
      vertex 153 -165 96
      vertex 153 -162 96
    endloop
  endfacet
  facet normal -0 0 1
    outer loop
      vertex 153 -162 76
      vertex 156 -165 76
      vertex 156 -162 76
    endloop
  endfacet
  facet normal 0 0 1
    outer loop
      vertex 156 -165 76
      vertex 153 -162 76
      vertex 153 -165 76
    endloop
  endfacet
  facet normal 1 -0 0
    outer loop
      vertex 153 -165 96
      vertex 153 -162 76
      vertex 153 -162 96
    endloop
  endfacet
  facet normal 1 0 0
    outer loop
      vertex 153 -162 76
      vertex 153 -165 96
      vertex 153 -165 76
    endloop
  endfacet
  facet normal -1 0 0
    outer loop
      vertex 156 -165 100
      vertex 156 -162 120
      vertex 156 -162 100
    endloop
  endfacet
  facet normal -1 -0 0
    outer loop
      vertex 156 -162 120
      vertex 156 -165 100
      vertex 156 -165 120
    endloop
  endfacet
  facet normal 0 0 -1
    outer loop
      vertex 153 -165 120
      vertex 156 -162 120
      vertex 156 -165 120
    endloop
  endfacet
  facet normal -0 0 -1
    outer loop
      vertex 156 -162 120
      vertex 153 -165 120
      vertex 153 -162 120
    endloop
  endfacet
  facet normal -0 0 1
    outer loop
      vertex 153 -162 100
      vertex 156 -165 100
      vertex 156 -162 100
    endloop
  endfacet
  facet normal 0 0 1
    outer loop
      vertex 156 -165 100
      vertex 153 -162 100
      vertex 153 -165 100
    endloop
  endfacet
  facet normal 1 -0 0
    outer loop
      vertex 153 -165 120
      vertex 153 -162 100
      vertex 153 -162 120
    endloop
  endfacet
  facet normal 1 0 0
    outer loop
      vertex 153 -162 100
      vertex 153 -165 120
      vertex 153 -165 100
    endloop
  endfacet
  facet normal -1 0 0
    outer loop
      vertex 156 -165 124
      vertex 156 -162 144
      vertex 156 -162 124
    endloop
  endfacet
  facet normal -1 -0 0
    outer loop
      vertex 156 -162 144
      vertex 156 -165 124
      vertex 156 -165 144
    endloop
  endfacet
  facet normal 0 0 -1
    outer loop
      vertex 153 -165 144
      vertex 156 -162 144
      vertex 156 -165 144
    endloop
  endfacet
  facet normal -0 0 -1
    outer loop
      vertex 156 -162 144
      vertex 153 -165 144
      vertex 153 -162 144
    endloop
  endfacet
  facet normal -0 0 1
    outer loop
      vertex 153 -162 124
      vertex 156 -165 124
      vertex 156 -162 124
    endloop
  endfacet
  facet normal 0 0 1
    outer loop
      vertex 156 -165 124
      vertex 153 -162 124
      vertex 153 -165 124
    endloop
  endfacet
  facet normal 1 -0 0
    outer loop
      vertex 153 -165 144
      vertex 153 -162 124
      vertex 153 -162 144
    endloop
  endfacet
  facet normal 1 0 0
    outer loop
      vertex 153 -162 124
      vertex 153 -165 144
      vertex 153 -165 124
    endloop
  endfacet
  facet normal -1 0 0
    outer loop
      vertex 162 -165 4
      vertex 162 -162 24
      vertex 162 -162 4
    endloop
  endfacet
  facet normal -1 -0 0
    outer loop
      vertex 162 -162 24
      vertex 162 -165 4
      vertex 162 -165 24
    endloop
  endfacet
  facet normal 0 0 -1
    outer loop
      vertex 159 -165 24
      vertex 162 -162 24
      vertex 162 -165 24
    endloop
  endfacet
  facet normal -0 0 -1
    outer loop
      vertex 162 -162 24
      vertex 159 -165 24
      vertex 159 -162 24
    endloop
  endfacet
  facet normal -0 0 1
    outer loop
      vertex 159 -162 4
      vertex 162 -165 4
      vertex 162 -162 4
    endloop
  endfacet
  facet normal 0 0 1
    outer loop
      vertex 162 -165 4
      vertex 159 -162 4
      vertex 159 -165 4
    endloop
  endfacet
  facet normal 1 -0 0
    outer loop
      vertex 159 -165 24
      vertex 159 -162 4
      vertex 159 -162 24
    endloop
  endfacet
  facet normal 1 0 0
    outer loop
      vertex 159 -162 4
      vertex 159 -165 24
      vertex 159 -165 4
    endloop
  endfacet
  facet normal -1 0 0
    outer loop
      vertex 162 -165 28
      vertex 162 -162 48
      vertex 162 -162 28
    endloop
  endfacet
  facet normal -1 -0 0
    outer loop
      vertex 162 -162 48
      vertex 162 -165 28
      vertex 162 -165 48
    endloop
  endfacet
  facet normal 0 0 -1
    outer loop
      vertex 159 -165 48
      vertex 162 -162 48
      vertex 162 -165 48
    endloop
  endfacet
  facet normal -0 0 -1
    outer loop
      vertex 162 -162 48
      vertex 159 -165 48
      vertex 159 -162 48
    endloop
  endfacet
  facet normal -0 0 1
    outer loop
      vertex 159 -162 28
      vertex 162 -165 28
      vertex 162 -162 28
    endloop
  endfacet
  facet normal 0 0 1
    outer loop
      vertex 162 -165 28
      vertex 159 -162 28
      vertex 159 -165 28
    endloop
  endfacet
  facet normal 1 -0 0
    outer loop
      vertex 159 -165 48
      vertex 159 -162 28
      vertex 159 -162 48
    endloop
  endfacet
  facet normal 1 0 0
    outer loop
      vertex 159 -162 28
      vertex 159 -165 48
      vertex 159 -165 28
    endloop
  endfacet
  facet normal -1 0 0
    outer loop
      vertex 162 -165 52
      vertex 162 -162 72
      vertex 162 -162 52
    endloop
  endfacet
  facet normal -1 -0 0
    outer loop
      vertex 162 -162 72
      vertex 162 -165 52
      vertex 162 -165 72
    endloop
  endfacet
  facet normal 0 0 -1
    outer loop
      vertex 159 -165 72
      vertex 162 -162 72
      vertex 162 -165 72
    endloop
  endfacet
  facet normal -0 0 -1
    outer loop
      vertex 162 -162 72
      vertex 159 -165 72
      vertex 159 -162 72
    endloop
  endfacet
  facet normal -0 0 1
    outer loop
      vertex 159 -162 52
      vertex 162 -165 52
      vertex 162 -162 52
    endloop
  endfacet
  facet normal 0 0 1
    outer loop
      vertex 162 -165 52
      vertex 159 -162 52
      vertex 159 -165 52
    endloop
  endfacet
  facet normal 1 -0 0
    outer loop
      vertex 159 -165 72
      vertex 159 -162 52
      vertex 159 -162 72
    endloop
  endfacet
  facet normal 1 0 0
    outer loop
      vertex 159 -162 52
      vertex 159 -165 72
      vertex 159 -165 52
    endloop
  endfacet
  facet normal -1 0 0
    outer loop
      vertex 162 -165 76
      vertex 162 -162 96
      vertex 162 -162 76
    endloop
  endfacet
  facet normal -1 -0 0
    outer loop
      vertex 162 -162 96
      vertex 162 -165 76
      vertex 162 -165 96
    endloop
  endfacet
  facet normal 0 0 -1
    outer loop
      vertex 159 -165 96
      vertex 162 -162 96
      vertex 162 -165 96
    endloop
  endfacet
  facet normal -0 0 -1
    outer loop
      vertex 162 -162 96
      vertex 159 -165 96
      vertex 159 -162 96
    endloop
  endfacet
  facet normal -0 0 1
    outer loop
      vertex 159 -162 76
      vertex 162 -165 76
      vertex 162 -162 76
    endloop
  endfacet
  facet normal 0 0 1
    outer loop
      vertex 162 -165 76
      vertex 159 -162 76
      vertex 159 -165 76
    endloop
  endfacet
  facet normal 1 -0 0
    outer loop
      vertex 159 -165 96
      vertex 159 -162 76
      vertex 159 -162 96
    endloop
  endfacet
  facet normal 1 0 0
    outer loop
      vertex 159 -162 76
      vertex 159 -165 96
      vertex 159 -165 76
    endloop
  endfacet
  facet normal -1 0 0
    outer loop
      vertex 162 -165 100
      vertex 162 -162 120
      vertex 162 -162 100
    endloop
  endfacet
  facet normal -1 -0 0
    outer loop
      vertex 162 -162 120
      vertex 162 -165 100
      vertex 162 -165 120
    endloop
  endfacet
  facet normal 0 0 -1
    outer loop
      vertex 159 -165 120
      vertex 162 -162 120
      vertex 162 -165 120
    endloop
  endfacet
  facet normal -0 0 -1
    outer loop
      vertex 162 -162 120
      vertex 159 -165 120
      vertex 159 -162 120
    endloop
  endfacet
  facet normal -0 0 1
    outer loop
      vertex 159 -162 100
      vertex 162 -165 100
      vertex 162 -162 100
    endloop
  endfacet
  facet normal 0 0 1
    outer loop
      vertex 162 -165 100
      vertex 159 -162 100
      vertex 159 -165 100
    endloop
  endfacet
  facet normal 1 -0 0
    outer loop
      vertex 159 -165 120
      vertex 159 -162 100
      vertex 159 -162 120
    endloop
  endfacet
  facet normal 1 0 0
    outer loop
      vertex 159 -162 100
      vertex 159 -165 120
      vertex 159 -165 100
    endloop
  endfacet
  facet normal -1 0 0
    outer loop
      vertex 162 -165 124
      vertex 162 -162 144
      vertex 162 -162 124
    endloop
  endfacet
  facet normal -1 -0 0
    outer loop
      vertex 162 -162 144
      vertex 162 -165 124
      vertex 162 -165 144
    endloop
  endfacet
  facet normal 0 0 -1
    outer loop
      vertex 159 -165 144
      vertex 162 -162 144
      vertex 162 -165 144
    endloop
  endfacet
  facet normal -0 0 -1
    outer loop
      vertex 162 -162 144
      vertex 159 -165 144
      vertex 159 -162 144
    endloop
  endfacet
  facet normal -0 0 1
    outer loop
      vertex 159 -162 124
      vertex 162 -165 124
      vertex 162 -162 124
    endloop
  endfacet
  facet normal 0 0 1
    outer loop
      vertex 162 -165 124
      vertex 159 -162 124
      vertex 159 -165 124
    endloop
  endfacet
  facet normal 1 -0 0
    outer loop
      vertex 159 -165 144
      vertex 159 -162 124
      vertex 159 -162 144
    endloop
  endfacet
  facet normal 1 0 0
    outer loop
      vertex 159 -162 124
      vertex 159 -165 144
      vertex 159 -165 124
    endloop
  endfacet
  facet normal 1 -0 0
    outer loop
      vertex 253.4 -165 173.12
      vertex 253.4 -162 0
      vertex 253.4 -162 173.12
    endloop
  endfacet
  facet normal 1 0 0
    outer loop
      vertex 253.4 -162 0
      vertex 253.4 -165 173.12
      vertex 253.4 -165 0
    endloop
  endfacet
  facet normal -0 0 1
    outer loop
      vertex 147.3 -162 173.12
      vertex 253.4 -165 173.12
      vertex 253.4 -162 173.12
    endloop
  endfacet
  facet normal 0 0 1
    outer loop
      vertex 253.4 -165 173.12
      vertex 147.3 -162 173.12
      vertex 147.3 -165 173.12
    endloop
  endfacet
  facet normal 0 0 -1
    outer loop
      vertex 147.3 -165 0
      vertex 253.4 -162 0
      vertex 253.4 -165 0
    endloop
  endfacet
  facet normal -0 0 -1
    outer loop
      vertex 253.4 -162 0
      vertex 147.3 -165 0
      vertex 147.3 -162 0
    endloop
  endfacet
  facet normal -1 0 0
    outer loop
      vertex 147.3 -165 0
      vertex 147.3 -162 173.12
      vertex 147.3 -162 0
    endloop
  endfacet
  facet normal -1 -0 0
    outer loop
      vertex 147.3 -162 173.12
      vertex 147.3 -165 0
      vertex 147.3 -165 173.12
    endloop
  endfacet
  facet normal 0 1 -0
    outer loop
      vertex 159 -162 4
      vertex 156 -162 24
      vertex 159 -162 24
    endloop
  endfacet
  facet normal 0 1 0
    outer loop
      vertex 156 -162 24
      vertex 159 -162 4
      vertex 156 -162 4
    endloop
  endfacet
  facet normal 0 1 -0
    outer loop
      vertex 159 -162 28
      vertex 156 -162 48
      vertex 159 -162 48
    endloop
  endfacet
  facet normal 0 1 0
    outer loop
      vertex 156 -162 48
      vertex 159 -162 28
      vertex 156 -162 28
    endloop
  endfacet
  facet normal 0 1 -0
    outer loop
      vertex 159 -162 52
      vertex 156 -162 72
      vertex 159 -162 72
    endloop
  endfacet
  facet normal 0 1 0
    outer loop
      vertex 156 -162 72
      vertex 159 -162 52
      vertex 156 -162 52
    endloop
  endfacet
  facet normal 0 1 -0
    outer loop
      vertex 159 -162 76
      vertex 156 -162 96
      vertex 159 -162 96
    endloop
  endfacet
  facet normal 0 1 0
    outer loop
      vertex 156 -162 96
      vertex 159 -162 76
      vertex 156 -162 76
    endloop
  endfacet
  facet normal 0 1 -0
    outer loop
      vertex 159 -162 100
      vertex 156 -162 120
      vertex 159 -162 120
    endloop
  endfacet
  facet normal 0 1 0
    outer loop
      vertex 156 -162 120
      vertex 159 -162 100
      vertex 156 -162 100
    endloop
  endfacet
  facet normal 0 1 -0
    outer loop
      vertex 159 -162 124
      vertex 156 -162 144
      vertex 159 -162 144
    endloop
  endfacet
  facet normal 0 1 0
    outer loop
      vertex 156 -162 144
      vertex 159 -162 124
      vertex 156 -162 124
    endloop
  endfacet
  facet normal 0 1 0
    outer loop
      vertex 253.4 -162 173.12
      vertex 162 -162 144
      vertex 147.3 -162 173.12
    endloop
  endfacet
  facet normal 0 1 0
    outer loop
      vertex 253.4 -162 173.12
      vertex 162 -162 124
      vertex 162 -162 144
    endloop
  endfacet
  facet normal 0 1 0
    outer loop
      vertex 159 -162 120
      vertex 159 -162 124
      vertex 162 -162 124
    endloop
  endfacet
  facet normal 0 1 0
    outer loop
      vertex 159 -162 124
      vertex 159 -162 120
      vertex 156 -162 124
    endloop
  endfacet
  facet normal 0 1 0
    outer loop
      vertex 159 -162 120
      vertex 162 -162 124
      vertex 162 -162 120
    endloop
  endfacet
  facet normal 0 1 0
    outer loop
      vertex 253.4 -162 173.12
      vertex 162 -162 120
      vertex 162 -162 124
    endloop
  endfacet
  facet normal 0 1 0
    outer loop
      vertex 253.4 -162 173.12
      vertex 162 -162 100
      vertex 162 -162 120
    endloop
  endfacet
  facet normal 0 1 0
    outer loop
      vertex 159 -162 96
      vertex 159 -162 100
      vertex 162 -162 100
    endloop
  endfacet
  facet normal 0 1 0
    outer loop
      vertex 159 -162 100
      vertex 159 -162 96
      vertex 156 -162 100
    endloop
  endfacet
  facet normal 0 1 0
    outer loop
      vertex 159 -162 96
      vertex 162 -162 100
      vertex 162 -162 96
    endloop
  endfacet
  facet normal 0 1 0
    outer loop
      vertex 253.4 -162 173.12
      vertex 162 -162 96
      vertex 162 -162 100
    endloop
  endfacet
  facet normal 0 1 0
    outer loop
      vertex 253.4 -162 173.12
      vertex 162 -162 76
      vertex 162 -162 96
    endloop
  endfacet
  facet normal 0 1 0
    outer loop
      vertex 159 -162 72
      vertex 159 -162 76
      vertex 162 -162 76
    endloop
  endfacet
  facet normal 0 1 0
    outer loop
      vertex 159 -162 76
      vertex 159 -162 72
      vertex 156 -162 76
    endloop
  endfacet
  facet normal 0 1 0
    outer loop
      vertex 159 -162 72
      vertex 162 -162 76
      vertex 162 -162 72
    endloop
  endfacet
  facet normal 0 1 -0
    outer loop
      vertex 253.4 -162 0
      vertex 162 -162 76
      vertex 253.4 -162 173.12
    endloop
  endfacet
  facet normal 0 1 0
    outer loop
      vertex 162 -162 76
      vertex 253.4 -162 0
      vertex 162 -162 72
    endloop
  endfacet
  facet normal 0 1 0
    outer loop
      vertex 159 -162 48
      vertex 159 -162 52
      vertex 162 -162 52
    endloop
  endfacet
  facet normal 0 1 0
    outer loop
      vertex 159 -162 52
      vertex 159 -162 48
      vertex 156 -162 52
    endloop
  endfacet
  facet normal 0 1 0
    outer loop
      vertex 159 -162 48
      vertex 162 -162 52
      vertex 162 -162 48
    endloop
  endfacet
  facet normal 0 1 0
    outer loop
      vertex 162 -162 72
      vertex 253.4 -162 0
      vertex 162 -162 52
    endloop
  endfacet
  facet normal 0 1 0
    outer loop
      vertex 162 -162 52
      vertex 253.4 -162 0
      vertex 162 -162 48
    endloop
  endfacet
  facet normal 0 1 0
    outer loop
      vertex 159 -162 24
      vertex 159 -162 28
      vertex 162 -162 28
    endloop
  endfacet
  facet normal 0 1 0
    outer loop
      vertex 159 -162 28
      vertex 159 -162 24
      vertex 156 -162 28
    endloop
  endfacet
  facet normal 0 1 0
    outer loop
      vertex 159 -162 24
      vertex 162 -162 28
      vertex 162 -162 24
    endloop
  endfacet
  facet normal 0 1 0
    outer loop
      vertex 162 -162 48
      vertex 253.4 -162 0
      vertex 162 -162 28
    endloop
  endfacet
  facet normal 0 1 0
    outer loop
      vertex 162 -162 28
      vertex 253.4 -162 0
      vertex 162 -162 24
    endloop
  endfacet
  facet normal 0 1 0
    outer loop
      vertex 147.3 -162 0
      vertex 159 -162 4
      vertex 162 -162 4
    endloop
  endfacet
  facet normal 0 1 0
    outer loop
      vertex 159 -162 4
      vertex 147.3 -162 0
      vertex 156 -162 4
    endloop
  endfacet
  facet normal 0 1 0
    outer loop
      vertex 147.3 -162 0
      vertex 162 -162 4
      vertex 253.4 -162 0
    endloop
  endfacet
  facet normal 0 1 0
    outer loop
      vertex 162 -162 24
      vertex 253.4 -162 0
      vertex 162 -162 4
    endloop
  endfacet
  facet normal 0 1 -0
    outer loop
      vertex 159 -162 144
      vertex 147.3 -162 173.12
      vertex 162 -162 144
    endloop
  endfacet
  facet normal 0 1 -0
    outer loop
      vertex 156 -162 144
      vertex 147.3 -162 173.12
      vertex 159 -162 144
    endloop
  endfacet
  facet normal 0 1 -0
    outer loop
      vertex 153 -162 144
      vertex 147.3 -162 173.12
      vertex 156 -162 144
    endloop
  endfacet
  facet normal 0 1 -0
    outer loop
      vertex 153 -162 124
      vertex 147.3 -162 173.12
      vertex 153 -162 144
    endloop
  endfacet
  facet normal 0 1 0
    outer loop
      vertex 156 -162 120
      vertex 156 -162 124
      vertex 159 -162 120
    endloop
  endfacet
  facet normal 0 1 0
    outer loop
      vertex 156 -162 124
      vertex 156 -162 120
      vertex 153 -162 124
    endloop
  endfacet
  facet normal 0 1 0
    outer loop
      vertex 153 -162 120
      vertex 153 -162 124
      vertex 156 -162 120
    endloop
  endfacet
  facet normal 0 1 -0
    outer loop
      vertex 153 -162 120
      vertex 147.3 -162 173.12
      vertex 153 -162 124
    endloop
  endfacet
  facet normal 0 1 -0
    outer loop
      vertex 153 -162 100
      vertex 147.3 -162 173.12
      vertex 153 -162 120
    endloop
  endfacet
  facet normal 0 1 0
    outer loop
      vertex 156 -162 96
      vertex 156 -162 100
      vertex 159 -162 96
    endloop
  endfacet
  facet normal 0 1 0
    outer loop
      vertex 156 -162 100
      vertex 156 -162 96
      vertex 153 -162 100
    endloop
  endfacet
  facet normal 0 1 0
    outer loop
      vertex 153 -162 96
      vertex 153 -162 100
      vertex 156 -162 96
    endloop
  endfacet
  facet normal 0 1 -0
    outer loop
      vertex 153 -162 96
      vertex 147.3 -162 173.12
      vertex 153 -162 100
    endloop
  endfacet
  facet normal 0 1 -0
    outer loop
      vertex 153 -162 76
      vertex 147.3 -162 173.12
      vertex 153 -162 96
    endloop
  endfacet
  facet normal 0 1 0
    outer loop
      vertex 156 -162 72
      vertex 156 -162 76
      vertex 159 -162 72
    endloop
  endfacet
  facet normal 0 1 0
    outer loop
      vertex 156 -162 76
      vertex 156 -162 72
      vertex 153 -162 76
    endloop
  endfacet
  facet normal 0 1 0
    outer loop
      vertex 153 -162 72
      vertex 153 -162 76
      vertex 156 -162 72
    endloop
  endfacet
  facet normal 0 1 0
    outer loop
      vertex 147.3 -162 0
      vertex 153 -162 76
      vertex 153 -162 72
    endloop
  endfacet
  facet normal 0 1 0
    outer loop
      vertex 147.3 -162 0
      vertex 153 -162 72
      vertex 153 -162 52
    endloop
  endfacet
  facet normal 0 1 0
    outer loop
      vertex 156 -162 48
      vertex 156 -162 52
      vertex 159 -162 48
    endloop
  endfacet
  facet normal 0 1 0
    outer loop
      vertex 156 -162 52
      vertex 156 -162 48
      vertex 153 -162 52
    endloop
  endfacet
  facet normal 0 1 0
    outer loop
      vertex 153 -162 48
      vertex 153 -162 52
      vertex 156 -162 48
    endloop
  endfacet
  facet normal 0 1 0
    outer loop
      vertex 147.3 -162 0
      vertex 153 -162 52
      vertex 153 -162 48
    endloop
  endfacet
  facet normal 0 1 0
    outer loop
      vertex 147.3 -162 0
      vertex 153 -162 48
      vertex 153 -162 28
    endloop
  endfacet
  facet normal 0 1 0
    outer loop
      vertex 156 -162 24
      vertex 156 -162 28
      vertex 159 -162 24
    endloop
  endfacet
  facet normal 0 1 0
    outer loop
      vertex 156 -162 28
      vertex 156 -162 24
      vertex 153 -162 28
    endloop
  endfacet
  facet normal 0 1 0
    outer loop
      vertex 153 -162 24
      vertex 153 -162 28
      vertex 156 -162 24
    endloop
  endfacet
  facet normal 0 1 0
    outer loop
      vertex 147.3 -162 0
      vertex 153 -162 28
      vertex 153 -162 24
    endloop
  endfacet
  facet normal 0 1 0
    outer loop
      vertex 147.3 -162 0
      vertex 153 -162 24
      vertex 153 -162 4
    endloop
  endfacet
  facet normal 0 1 0
    outer loop
      vertex 153 -162 76
      vertex 147.3 -162 0
      vertex 147.3 -162 173.12
    endloop
  endfacet
  facet normal 0 1 0
    outer loop
      vertex 156 -162 4
      vertex 147.3 -162 0
      vertex 153 -162 4
    endloop
  endfacet
  facet normal 0 -1 0
    outer loop
      vertex 156 -165 4
      vertex 159 -165 24
      vertex 156 -165 24
    endloop
  endfacet
  facet normal 0 -1 -0
    outer loop
      vertex 159 -165 24
      vertex 156 -165 4
      vertex 159 -165 4
    endloop
  endfacet
  facet normal 0 -1 0
    outer loop
      vertex 156 -165 28
      vertex 159 -165 48
      vertex 156 -165 48
    endloop
  endfacet
  facet normal 0 -1 -0
    outer loop
      vertex 159 -165 48
      vertex 156 -165 28
      vertex 159 -165 28
    endloop
  endfacet
  facet normal 0 -1 0
    outer loop
      vertex 156 -165 52
      vertex 159 -165 72
      vertex 156 -165 72
    endloop
  endfacet
  facet normal 0 -1 -0
    outer loop
      vertex 159 -165 72
      vertex 156 -165 52
      vertex 159 -165 52
    endloop
  endfacet
  facet normal 0 -1 0
    outer loop
      vertex 156 -165 76
      vertex 159 -165 96
      vertex 156 -165 96
    endloop
  endfacet
  facet normal 0 -1 -0
    outer loop
      vertex 159 -165 96
      vertex 156 -165 76
      vertex 159 -165 76
    endloop
  endfacet
  facet normal 0 -1 0
    outer loop
      vertex 156 -165 100
      vertex 159 -165 120
      vertex 156 -165 120
    endloop
  endfacet
  facet normal 0 -1 -0
    outer loop
      vertex 159 -165 120
      vertex 156 -165 100
      vertex 159 -165 100
    endloop
  endfacet
  facet normal 0 -1 0
    outer loop
      vertex 156 -165 124
      vertex 159 -165 144
      vertex 156 -165 144
    endloop
  endfacet
  facet normal 0 -1 -0
    outer loop
      vertex 159 -165 144
      vertex 156 -165 124
      vertex 159 -165 124
    endloop
  endfacet
  facet normal 0 -1 0
    outer loop
      vertex 156 -165 144
      vertex 147.3 -165 173.12
      vertex 153 -165 144
    endloop
  endfacet
  facet normal 0 -1 0
    outer loop
      vertex 147.3 -165 173.12
      vertex 153 -165 124
      vertex 153 -165 144
    endloop
  endfacet
  facet normal 0 -1 0
    outer loop
      vertex 156 -165 120
      vertex 156 -165 124
      vertex 153 -165 124
    endloop
  endfacet
  facet normal 0 -1 0
    outer loop
      vertex 156 -165 124
      vertex 156 -165 120
      vertex 159 -165 124
    endloop
  endfacet
  facet normal 0 -1 0
    outer loop
      vertex 156 -165 120
      vertex 153 -165 124
      vertex 153 -165 120
    endloop
  endfacet
  facet normal 0 -1 0
    outer loop
      vertex 147.3 -165 173.12
      vertex 153 -165 120
      vertex 153 -165 124
    endloop
  endfacet
  facet normal 0 -1 0
    outer loop
      vertex 147.3 -165 173.12
      vertex 153 -165 100
      vertex 153 -165 120
    endloop
  endfacet
  facet normal 0 -1 0
    outer loop
      vertex 156 -165 96
      vertex 156 -165 100
      vertex 153 -165 100
    endloop
  endfacet
  facet normal 0 -1 0
    outer loop
      vertex 156 -165 100
      vertex 156 -165 96
      vertex 159 -165 100
    endloop
  endfacet
  facet normal 0 -1 0
    outer loop
      vertex 156 -165 96
      vertex 153 -165 100
      vertex 153 -165 96
    endloop
  endfacet
  facet normal 0 -1 0
    outer loop
      vertex 147.3 -165 173.12
      vertex 153 -165 96
      vertex 153 -165 100
    endloop
  endfacet
  facet normal 0 -1 0
    outer loop
      vertex 147.3 -165 173.12
      vertex 153 -165 76
      vertex 153 -165 96
    endloop
  endfacet
  facet normal 0 -1 0
    outer loop
      vertex 156 -165 72
      vertex 156 -165 76
      vertex 153 -165 76
    endloop
  endfacet
  facet normal 0 -1 0
    outer loop
      vertex 156 -165 76
      vertex 156 -165 72
      vertex 159 -165 76
    endloop
  endfacet
  facet normal 0 -1 0
    outer loop
      vertex 156 -165 72
      vertex 153 -165 76
      vertex 153 -165 72
    endloop
  endfacet
  facet normal 0 -1 0
    outer loop
      vertex 147.3 -165 0
      vertex 153 -165 76
      vertex 147.3 -165 173.12
    endloop
  endfacet
  facet normal 0 -1 -0
    outer loop
      vertex 153 -165 76
      vertex 147.3 -165 0
      vertex 153 -165 72
    endloop
  endfacet
  facet normal 0 -1 0
    outer loop
      vertex 156 -165 48
      vertex 156 -165 52
      vertex 153 -165 52
    endloop
  endfacet
  facet normal 0 -1 0
    outer loop
      vertex 156 -165 52
      vertex 156 -165 48
      vertex 159 -165 52
    endloop
  endfacet
  facet normal 0 -1 0
    outer loop
      vertex 156 -165 48
      vertex 153 -165 52
      vertex 153 -165 48
    endloop
  endfacet
  facet normal 0 -1 -0
    outer loop
      vertex 153 -165 72
      vertex 147.3 -165 0
      vertex 153 -165 52
    endloop
  endfacet
  facet normal 0 -1 -0
    outer loop
      vertex 153 -165 52
      vertex 147.3 -165 0
      vertex 153 -165 48
    endloop
  endfacet
  facet normal 0 -1 0
    outer loop
      vertex 156 -165 24
      vertex 156 -165 28
      vertex 153 -165 28
    endloop
  endfacet
  facet normal 0 -1 0
    outer loop
      vertex 156 -165 28
      vertex 156 -165 24
      vertex 159 -165 28
    endloop
  endfacet
  facet normal 0 -1 0
    outer loop
      vertex 156 -165 24
      vertex 153 -165 28
      vertex 153 -165 24
    endloop
  endfacet
  facet normal 0 -1 -0
    outer loop
      vertex 153 -165 48
      vertex 147.3 -165 0
      vertex 153 -165 28
    endloop
  endfacet
  facet normal 0 -1 -0
    outer loop
      vertex 153 -165 28
      vertex 147.3 -165 0
      vertex 153 -165 24
    endloop
  endfacet
  facet normal 0 -1 0
    outer loop
      vertex 147.3 -165 0
      vertex 156 -165 4
      vertex 153 -165 4
    endloop
  endfacet
  facet normal 0 -1 -0
    outer loop
      vertex 156 -165 4
      vertex 147.3 -165 0
      vertex 159 -165 4
    endloop
  endfacet
  facet normal 0 -1 -0
    outer loop
      vertex 159 -165 4
      vertex 147.3 -165 0
      vertex 162 -165 4
    endloop
  endfacet
  facet normal 0 -1 -0
    outer loop
      vertex 153 -165 24
      vertex 147.3 -165 0
      vertex 153 -165 4
    endloop
  endfacet
  facet normal 0 -1 0
    outer loop
      vertex 159 -165 144
      vertex 147.3 -165 173.12
      vertex 156 -165 144
    endloop
  endfacet
  facet normal 0 -1 0
    outer loop
      vertex 162 -165 144
      vertex 147.3 -165 173.12
      vertex 159 -165 144
    endloop
  endfacet
  facet normal 0 -1 0
    outer loop
      vertex 147.3 -165 173.12
      vertex 162 -165 144
      vertex 253.4 -165 173.12
    endloop
  endfacet
  facet normal 0 -1 0
    outer loop
      vertex 162 -165 124
      vertex 253.4 -165 173.12
      vertex 162 -165 144
    endloop
  endfacet
  facet normal 0 -1 0
    outer loop
      vertex 159 -165 120
      vertex 159 -165 124
      vertex 156 -165 120
    endloop
  endfacet
  facet normal 0 -1 0
    outer loop
      vertex 159 -165 124
      vertex 159 -165 120
      vertex 162 -165 124
    endloop
  endfacet
  facet normal 0 -1 0
    outer loop
      vertex 162 -165 120
      vertex 162 -165 124
      vertex 159 -165 120
    endloop
  endfacet
  facet normal 0 -1 0
    outer loop
      vertex 162 -165 124
      vertex 162 -165 120
      vertex 253.4 -165 173.12
    endloop
  endfacet
  facet normal 0 -1 0
    outer loop
      vertex 162 -165 100
      vertex 253.4 -165 173.12
      vertex 162 -165 120
    endloop
  endfacet
  facet normal 0 -1 0
    outer loop
      vertex 159 -165 96
      vertex 159 -165 100
      vertex 156 -165 96
    endloop
  endfacet
  facet normal 0 -1 0
    outer loop
      vertex 159 -165 100
      vertex 159 -165 96
      vertex 162 -165 100
    endloop
  endfacet
  facet normal 0 -1 0
    outer loop
      vertex 162 -165 96
      vertex 162 -165 100
      vertex 159 -165 96
    endloop
  endfacet
  facet normal 0 -1 0
    outer loop
      vertex 162 -165 100
      vertex 162 -165 96
      vertex 253.4 -165 173.12
    endloop
  endfacet
  facet normal 0 -1 0
    outer loop
      vertex 162 -165 76
      vertex 253.4 -165 173.12
      vertex 162 -165 96
    endloop
  endfacet
  facet normal 0 -1 0
    outer loop
      vertex 159 -165 72
      vertex 159 -165 76
      vertex 156 -165 72
    endloop
  endfacet
  facet normal 0 -1 0
    outer loop
      vertex 159 -165 76
      vertex 159 -165 72
      vertex 162 -165 76
    endloop
  endfacet
  facet normal 0 -1 0
    outer loop
      vertex 162 -165 72
      vertex 162 -165 76
      vertex 159 -165 72
    endloop
  endfacet
  facet normal 0 -1 0
    outer loop
      vertex 253.4 -165 0
      vertex 162 -165 76
      vertex 162 -165 72
    endloop
  endfacet
  facet normal 0 -1 0
    outer loop
      vertex 253.4 -165 0
      vertex 162 -165 72
      vertex 162 -165 52
    endloop
  endfacet
  facet normal 0 -1 0
    outer loop
      vertex 159 -165 48
      vertex 159 -165 52
      vertex 156 -165 48
    endloop
  endfacet
  facet normal 0 -1 0
    outer loop
      vertex 159 -165 52
      vertex 159 -165 48
      vertex 162 -165 52
    endloop
  endfacet
  facet normal 0 -1 0
    outer loop
      vertex 162 -165 48
      vertex 162 -165 52
      vertex 159 -165 48
    endloop
  endfacet
  facet normal 0 -1 0
    outer loop
      vertex 253.4 -165 0
      vertex 162 -165 52
      vertex 162 -165 48
    endloop
  endfacet
  facet normal 0 -1 0
    outer loop
      vertex 253.4 -165 0
      vertex 162 -165 48
      vertex 162 -165 28
    endloop
  endfacet
  facet normal 0 -1 0
    outer loop
      vertex 159 -165 24
      vertex 159 -165 28
      vertex 156 -165 24
    endloop
  endfacet
  facet normal 0 -1 0
    outer loop
      vertex 159 -165 28
      vertex 159 -165 24
      vertex 162 -165 28
    endloop
  endfacet
  facet normal 0 -1 0
    outer loop
      vertex 162 -165 24
      vertex 162 -165 28
      vertex 159 -165 24
    endloop
  endfacet
  facet normal 0 -1 0
    outer loop
      vertex 253.4 -165 0
      vertex 162 -165 28
      vertex 162 -165 24
    endloop
  endfacet
  facet normal 0 -1 0
    outer loop
      vertex 253.4 -165 0
      vertex 162 -165 24
      vertex 162 -165 4
    endloop
  endfacet
  facet normal 0 -1 0
    outer loop
      vertex 162 -165 76
      vertex 253.4 -165 0
      vertex 253.4 -165 173.12
    endloop
  endfacet
  facet normal 0 -1 0
    outer loop
      vertex 253.4 -165 0
      vertex 162 -165 4
      vertex 147.3 -165 0
    endloop
  endfacet
endsolid OpenSCAD_Model
