solid OpenSCAD_Model
  facet normal -0.972337 -0.233584 4.45026e-19
    outer loop
      vertex 2.97538 140.313 172.3
      vertex 2.90211 140.618 177.9
      vertex 2.90211 140.618 172.3
    endloop
  endfacet
  facet normal -0.972337 -0.233584 4.45026e-19
    outer loop
      vertex 2.90211 140.618 177.9
      vertex 2.97538 140.313 172.3
      vertex 2.97538 140.313 177.9
    endloop
  endfacet
  facet normal -0.972337 0.233584 -4.45026e-19
    outer loop
      vertex 2.90211 139.382 172.3
      vertex 2.97538 139.687 177.9
      vertex 2.97538 139.687 172.3
    endloop
  endfacet
  facet normal -0.972337 0.233584 -4.45026e-19
    outer loop
      vertex 2.97538 139.687 177.9
      vertex 2.90211 139.382 172.3
      vertex 2.90211 139.382 177.9
    endloop
  endfacet
  facet normal -0.996921 0.0784159 -1.33805e-19
    outer loop
      vertex 2.97538 139.687 172.3
      vertex 3 140 177.9
      vertex 3 140 172.3
    endloop
  endfacet
  facet normal -0.996921 0.0784159 -1.33805e-19
    outer loop
      vertex 3 140 177.9
      vertex 2.97538 139.687 172.3
      vertex 2.97538 139.687 177.9
    endloop
  endfacet
  facet normal -0.923904 0.382624 5.51525e-19
    outer loop
      vertex 2.78201 139.092 172.3
      vertex 2.90211 139.382 177.9
      vertex 2.90211 139.382 172.3
    endloop
  endfacet
  facet normal -0.923904 0.382624 5.51525e-19
    outer loop
      vertex 2.90211 139.382 177.9
      vertex 2.78201 139.092 172.3
      vertex 2.78201 139.092 177.9
    endloop
  endfacet
  facet normal 0.923904 -0.382624 1.65685e-18
    outer loop
      vertex -0.902113 140.618 177.9
      vertex -0.782013 140.908 172.3
      vertex -0.782013 140.908 177.9
    endloop
  endfacet
  facet normal 0.923904 -0.382624 1.65685e-18
    outer loop
      vertex -0.782013 140.908 172.3
      vertex -0.902113 140.618 177.9
      vertex -0.902113 140.618 172.3
    endloop
  endfacet
  facet normal 0.649779 -0.760123 0
    outer loop
      vertex -0.414213 141.414 172.3
      vertex -0.17557 141.618 177.9
      vertex -0.414213 141.414 177.9
    endloop
  endfacet
  facet normal 0.649779 -0.760123 0
    outer loop
      vertex -0.17557 141.618 177.9
      vertex -0.414213 141.414 172.3
      vertex -0.17557 141.618 172.3
    endloop
  endfacet
  facet normal 0.232651 0.97256 -0
    outer loop
      vertex 0.687132 138.025 172.3
      vertex 0.381967 138.098 177.9
      vertex 0.687132 138.025 177.9
    endloop
  endfacet
  facet normal 0.232651 0.97256 0
    outer loop
      vertex 0.381967 138.098 177.9
      vertex 0.687132 138.025 172.3
      vertex 0.381967 138.098 172.3
    endloop
  endfacet
  facet normal -0.0796515 -0.996823 0
    outer loop
      vertex 1 142 172.3
      vertex 1.31287 141.975 177.9
      vertex 1 142 177.9
    endloop
  endfacet
  facet normal -0.0796515 -0.996823 -0
    outer loop
      vertex 1.31287 141.975 177.9
      vertex 1 142 172.3
      vertex 1.31287 141.975 172.3
    endloop
  endfacet
  facet normal 0.75954 0.65046 -8.6384e-19
    outer loop
      vertex -0.414213 138.586 177.9
      vertex -0.618033 138.824 172.3
      vertex -0.618033 138.824 177.9
    endloop
  endfacet
  facet normal 0.75954 0.65046 -8.6384e-19
    outer loop
      vertex -0.618033 138.824 172.3
      vertex -0.414213 138.586 177.9
      vertex -0.414213 138.586 172.3
    endloop
  endfacet
  facet normal -0.852995 0.521919 1.51398e-18
    outer loop
      vertex 2.61803 138.824 172.3
      vertex 2.78201 139.092 177.9
      vertex 2.78201 139.092 172.3
    endloop
  endfacet
  facet normal -0.852995 0.521919 1.51398e-18
    outer loop
      vertex 2.78201 139.092 177.9
      vertex 2.61803 138.824 172.3
      vertex 2.61803 138.824 177.9
    endloop
  endfacet
  facet normal -0.923904 -0.382624 -5.51525e-19
    outer loop
      vertex 2.90211 140.618 172.3
      vertex 2.78201 140.908 177.9
      vertex 2.78201 140.908 172.3
    endloop
  endfacet
  facet normal -0.923904 -0.382624 -5.51525e-19
    outer loop
      vertex 2.78201 140.908 177.9
      vertex 2.90211 140.618 172.3
      vertex 2.90211 140.618 177.9
    endloop
  endfacet
  facet normal -0.75954 0.65046 -1.95166e-18
    outer loop
      vertex 2.41421 138.586 172.3
      vertex 2.61803 138.824 177.9
      vertex 2.61803 138.824 172.3
    endloop
  endfacet
  facet normal -0.75954 0.65046 -1.95166e-18
    outer loop
      vertex 2.61803 138.824 177.9
      vertex 2.41421 138.586 172.3
      vertex 2.41421 138.586 177.9
    endloop
  endfacet
  facet normal -0.232654 0.972559 0
    outer loop
      vertex 1.61803 138.098 172.3
      vertex 1.31287 138.025 177.9
      vertex 1.61803 138.098 177.9
    endloop
  endfacet
  facet normal -0.232654 0.972559 0
    outer loop
      vertex 1.31287 138.025 177.9
      vertex 1.61803 138.098 172.3
      vertex 1.31287 138.025 172.3
    endloop
  endfacet
  facet normal -0.852995 -0.521919 -1.51398e-18
    outer loop
      vertex 2.78201 140.908 172.3
      vertex 2.61803 141.176 177.9
      vertex 2.61803 141.176 172.3
    endloop
  endfacet
  facet normal -0.852995 -0.521919 -1.51398e-18
    outer loop
      vertex 2.61803 141.176 177.9
      vertex 2.78201 140.908 172.3
      vertex 2.78201 140.908 177.9
    endloop
  endfacet
  facet normal -0.382408 -0.923994 0
    outer loop
      vertex 1.61803 141.902 172.3
      vertex 1.90798 141.782 177.9
      vertex 1.61803 141.902 177.9
    endloop
  endfacet
  facet normal -0.382408 -0.923994 -0
    outer loop
      vertex 1.90798 141.782 177.9
      vertex 1.61803 141.902 172.3
      vertex 1.90798 141.782 172.3
    endloop
  endfacet
  facet normal 0.972342 -0.233563 -6.3022e-19
    outer loop
      vertex -0.975376 140.313 177.9
      vertex -0.902113 140.618 172.3
      vertex -0.902113 140.618 177.9
    endloop
  endfacet
  facet normal 0.972342 -0.233563 -6.3022e-19
    outer loop
      vertex -0.902113 140.618 172.3
      vertex -0.975376 140.313 177.9
      vertex -0.975376 140.313 172.3
    endloop
  endfacet
  facet normal 0.079652 0.996823 -0
    outer loop
      vertex 1 138 172.3
      vertex 0.687132 138.025 177.9
      vertex 1 138 177.9
    endloop
  endfacet
  facet normal 0.079652 0.996823 0
    outer loop
      vertex 0.687132 138.025 177.9
      vertex 1 138 172.3
      vertex 0.687132 138.025 172.3
    endloop
  endfacet
  facet normal 0.079652 -0.996823 0
    outer loop
      vertex 0.687132 141.975 172.3
      vertex 1 142 177.9
      vertex 0.687132 141.975 177.9
    endloop
  endfacet
  facet normal 0.079652 -0.996823 0
    outer loop
      vertex 1 142 177.9
      vertex 0.687132 141.975 172.3
      vertex 1 142 172.3
    endloop
  endfacet
  facet normal 0.972342 0.233563 6.3022e-19
    outer loop
      vertex -0.902113 139.382 177.9
      vertex -0.975376 139.687 172.3
      vertex -0.975376 139.687 177.9
    endloop
  endfacet
  facet normal 0.972342 0.233563 6.3022e-19
    outer loop
      vertex -0.975376 139.687 172.3
      vertex -0.902113 139.382 177.9
      vertex -0.902113 139.382 172.3
    endloop
  endfacet
  facet normal 0.649779 0.760123 -0
    outer loop
      vertex -0.17557 138.382 172.3
      vertex -0.414213 138.586 177.9
      vertex -0.17557 138.382 177.9
    endloop
  endfacet
  facet normal 0.649779 0.760123 0
    outer loop
      vertex -0.414213 138.586 177.9
      vertex -0.17557 138.382 172.3
      vertex -0.414213 138.586 172.3
    endloop
  endfacet
  facet normal -0.522546 0.852611 0
    outer loop
      vertex 2.17557 138.382 172.3
      vertex 1.90798 138.218 177.9
      vertex 2.17557 138.382 177.9
    endloop
  endfacet
  facet normal -0.522546 0.852611 0
    outer loop
      vertex 1.90798 138.218 177.9
      vertex 2.17557 138.382 172.3
      vertex 1.90798 138.218 172.3
    endloop
  endfacet
  facet normal 0.522548 -0.85261 0
    outer loop
      vertex -0.17557 141.618 172.3
      vertex 0.0920191 141.782 177.9
      vertex -0.17557 141.618 177.9
    endloop
  endfacet
  facet normal 0.522548 -0.85261 0
    outer loop
      vertex 0.0920191 141.782 177.9
      vertex -0.17557 141.618 172.3
      vertex 0.0920191 141.782 172.3
    endloop
  endfacet
  facet normal -0.75954 -0.65046 1.95166e-18
    outer loop
      vertex 2.61803 141.176 172.3
      vertex 2.41421 141.414 177.9
      vertex 2.41421 141.414 172.3
    endloop
  endfacet
  facet normal -0.75954 -0.65046 1.95166e-18
    outer loop
      vertex 2.41421 141.414 177.9
      vertex 2.61803 141.176 172.3
      vertex 2.61803 141.176 177.9
    endloop
  endfacet
  facet normal -0.522546 -0.852611 0
    outer loop
      vertex 1.90798 141.782 172.3
      vertex 2.17557 141.618 177.9
      vertex 1.90798 141.782 177.9
    endloop
  endfacet
  facet normal -0.522546 -0.852611 -0
    outer loop
      vertex 2.17557 141.618 177.9
      vertex 1.90798 141.782 172.3
      vertex 2.17557 141.618 172.3
    endloop
  endfacet
  facet normal -0.996921 -0.0784159 1.33805e-19
    outer loop
      vertex 3 140 172.3
      vertex 2.97538 140.313 177.9
      vertex 2.97538 140.313 172.3
    endloop
  endfacet
  facet normal -0.996921 -0.0784159 1.33805e-19
    outer loop
      vertex 2.97538 140.313 177.9
      vertex 3 140 172.3
      vertex 3 140 177.9
    endloop
  endfacet
  facet normal 0.522548 0.85261 -0
    outer loop
      vertex 0.0920191 138.218 172.3
      vertex -0.17557 138.382 177.9
      vertex 0.0920191 138.218 177.9
    endloop
  endfacet
  facet normal 0.522548 0.85261 0
    outer loop
      vertex -0.17557 138.382 177.9
      vertex 0.0920191 138.218 172.3
      vertex -0.17557 138.382 172.3
    endloop
  endfacet
  facet normal -0.649784 0.760119 0
    outer loop
      vertex 2.41421 138.586 172.3
      vertex 2.17557 138.382 177.9
      vertex 2.41421 138.586 177.9
    endloop
  endfacet
  facet normal -0.649784 0.760119 0
    outer loop
      vertex 2.17557 138.382 177.9
      vertex 2.41421 138.586 172.3
      vertex 2.17557 138.382 172.3
    endloop
  endfacet
  facet normal -0.382408 0.923994 0
    outer loop
      vertex 1.90798 138.218 172.3
      vertex 1.61803 138.098 177.9
      vertex 1.90798 138.218 177.9
    endloop
  endfacet
  facet normal -0.382408 0.923994 0
    outer loop
      vertex 1.61803 138.098 177.9
      vertex 1.90798 138.218 172.3
      vertex 1.61803 138.098 172.3
    endloop
  endfacet
  facet normal 0.923904 0.382624 -1.65685e-18
    outer loop
      vertex -0.782013 139.092 177.9
      vertex -0.902113 139.382 172.3
      vertex -0.902113 139.382 177.9
    endloop
  endfacet
  facet normal 0.923904 0.382624 -1.65685e-18
    outer loop
      vertex -0.902113 139.382 172.3
      vertex -0.782013 139.092 177.9
      vertex -0.782013 139.092 172.3
    endloop
  endfacet
  facet normal -0.232654 -0.972559 0
    outer loop
      vertex 1.31287 141.975 172.3
      vertex 1.61803 141.902 177.9
      vertex 1.31287 141.975 177.9
    endloop
  endfacet
  facet normal -0.232654 -0.972559 -0
    outer loop
      vertex 1.61803 141.902 177.9
      vertex 1.31287 141.975 172.3
      vertex 1.61803 141.902 172.3
    endloop
  endfacet
  facet normal -0.0796515 0.996823 0
    outer loop
      vertex 1.31287 138.025 172.3
      vertex 1 138 177.9
      vertex 1.31287 138.025 177.9
    endloop
  endfacet
  facet normal -0.0796515 0.996823 0
    outer loop
      vertex 1 138 177.9
      vertex 1.31287 138.025 172.3
      vertex 1 138 172.3
    endloop
  endfacet
  facet normal 0.38241 0.923993 -0
    outer loop
      vertex 0.381967 138.098 172.3
      vertex 0.0920191 138.218 177.9
      vertex 0.381967 138.098 177.9
    endloop
  endfacet
  facet normal 0.38241 0.923993 0
    outer loop
      vertex 0.0920191 138.218 177.9
      vertex 0.381967 138.098 172.3
      vertex 0.0920191 138.218 172.3
    endloop
  endfacet
  facet normal 0.232651 -0.97256 0
    outer loop
      vertex 0.381967 141.902 172.3
      vertex 0.687132 141.975 177.9
      vertex 0.381967 141.902 177.9
    endloop
  endfacet
  facet normal 0.232651 -0.97256 0
    outer loop
      vertex 0.687132 141.975 177.9
      vertex 0.381967 141.902 172.3
      vertex 0.687132 141.975 172.3
    endloop
  endfacet
  facet normal 0.852995 -0.521919 3.7817e-19
    outer loop
      vertex -0.782013 140.908 177.9
      vertex -0.618033 141.176 172.3
      vertex -0.618033 141.176 177.9
    endloop
  endfacet
  facet normal 0.852995 -0.521919 3.7817e-19
    outer loop
      vertex -0.618033 141.176 172.3
      vertex -0.782013 140.908 177.9
      vertex -0.782013 140.908 172.3
    endloop
  endfacet
  facet normal 0.75954 -0.65046 8.6384e-19
    outer loop
      vertex -0.618033 141.176 177.9
      vertex -0.414213 141.414 172.3
      vertex -0.414213 141.414 177.9
    endloop
  endfacet
  facet normal 0.75954 -0.65046 8.6384e-19
    outer loop
      vertex -0.414213 141.414 172.3
      vertex -0.618033 141.176 177.9
      vertex -0.618033 141.176 172.3
    endloop
  endfacet
  facet normal 0.99692 -0.0784286 -8.57194e-20
    outer loop
      vertex -1 140 177.9
      vertex -0.975376 140.313 172.3
      vertex -0.975376 140.313 177.9
    endloop
  endfacet
  facet normal 0.99692 -0.0784286 -8.57194e-20
    outer loop
      vertex -0.975376 140.313 172.3
      vertex -1 140 177.9
      vertex -1 140 172.3
    endloop
  endfacet
  facet normal 0 0 1
    outer loop
      vertex 2.6 140 172.3
      vertex 3 140 172.3
      vertex 2.97538 140.313 172.3
    endloop
  endfacet
  facet normal -0 0 1
    outer loop
      vertex 2.56504 140.333 172.3
      vertex 2.97538 140.313 172.3
      vertex 2.90211 140.618 172.3
    endloop
  endfacet
  facet normal 0 0 1
    outer loop
      vertex 3 140 172.3
      vertex 2.6 140 172.3
      vertex 2.97538 139.687 172.3
    endloop
  endfacet
  facet normal -0 0 1
    outer loop
      vertex 2.46167 140.651 172.3
      vertex 2.90211 140.618 172.3
      vertex 2.78201 140.908 172.3
    endloop
  endfacet
  facet normal 0 0 1
    outer loop
      vertex 2.56504 139.667 172.3
      vertex 2.97538 139.687 172.3
      vertex 2.6 140 172.3
    endloop
  endfacet
  facet normal -0 0 1
    outer loop
      vertex 2.29443 140.94 172.3
      vertex 2.78201 140.908 172.3
      vertex 2.61803 141.176 172.3
    endloop
  endfacet
  facet normal 0 0 1
    outer loop
      vertex 2.97538 139.687 172.3
      vertex 2.56504 139.667 172.3
      vertex 2.90211 139.382 172.3
    endloop
  endfacet
  facet normal 0 0 1
    outer loop
      vertex 2.46167 139.349 172.3
      vertex 2.90211 139.382 172.3
      vertex 2.56504 139.667 172.3
    endloop
  endfacet
  facet normal 0 0 1
    outer loop
      vertex 2.97538 140.313 172.3
      vertex 2.56504 140.333 172.3
      vertex 2.6 140 172.3
    endloop
  endfacet
  facet normal 0 0 1
    outer loop
      vertex 2.90211 140.618 172.3
      vertex 2.46167 140.651 172.3
      vertex 2.56504 140.333 172.3
    endloop
  endfacet
  facet normal 0 0 1
    outer loop
      vertex 2.29443 140.94 172.3
      vertex 2.61803 141.176 172.3
      vertex 2.41421 141.414 172.3
    endloop
  endfacet
  facet normal 0 0 1
    outer loop
      vertex 2.78201 140.908 172.3
      vertex 2.29443 140.94 172.3
      vertex 2.46167 140.651 172.3
    endloop
  endfacet
  facet normal 0 0 1
    outer loop
      vertex 2.07061 141.189 172.3
      vertex 2.41421 141.414 172.3
      vertex 2.17557 141.618 172.3
    endloop
  endfacet
  facet normal 0 0 1
    outer loop
      vertex 2.41421 141.414 172.3
      vertex 2.07061 141.189 172.3
      vertex 2.29443 140.94 172.3
    endloop
  endfacet
  facet normal 0 0 1
    outer loop
      vertex 1.8 141.386 172.3
      vertex 2.17557 141.618 172.3
      vertex 1.90798 141.782 172.3
    endloop
  endfacet
  facet normal 0 0 1
    outer loop
      vertex 2.17557 141.618 172.3
      vertex 1.8 141.386 172.3
      vertex 2.07061 141.189 172.3
    endloop
  endfacet
  facet normal 0 0 1
    outer loop
      vertex 1.49443 141.522 172.3
      vertex 1.90798 141.782 172.3
      vertex 1.61803 141.902 172.3
    endloop
  endfacet
  facet normal 0 0 1
    outer loop
      vertex 1.90798 141.782 172.3
      vertex 1.49443 141.522 172.3
      vertex 1.8 141.386 172.3
    endloop
  endfacet
  facet normal 0 0 1
    outer loop
      vertex 1.31287 141.975 172.3
      vertex 1.49443 141.522 172.3
      vertex 1.61803 141.902 172.3
    endloop
  endfacet
  facet normal 0 0 1
    outer loop
      vertex 1.31287 141.975 172.3
      vertex 1.16724 141.591 172.3
      vertex 1.49443 141.522 172.3
    endloop
  endfacet
  facet normal 0 0 1
    outer loop
      vertex 1 142 172.3
      vertex 1.16724 141.591 172.3
      vertex 1.31287 141.975 172.3
    endloop
  endfacet
  facet normal 0 0 1
    outer loop
      vertex 1 142 172.3
      vertex 0.832755 141.591 172.3
      vertex 1.16724 141.591 172.3
    endloop
  endfacet
  facet normal -0 0 1
    outer loop
      vertex 0.687132 141.975 172.3
      vertex 0.832755 141.591 172.3
      vertex 1 142 172.3
    endloop
  endfacet
  facet normal 0 0 1
    outer loop
      vertex 0.687132 141.975 172.3
      vertex 0.505573 141.522 172.3
      vertex 0.832755 141.591 172.3
    endloop
  endfacet
  facet normal -0 0 1
    outer loop
      vertex 0.381967 141.902 172.3
      vertex 0.505573 141.522 172.3
      vertex 0.687132 141.975 172.3
    endloop
  endfacet
  facet normal -0 0 1
    outer loop
      vertex 0.0920191 141.782 172.3
      vertex 0.505573 141.522 172.3
      vertex 0.381967 141.902 172.3
    endloop
  endfacet
  facet normal 0 0 1
    outer loop
      vertex 0.505573 141.522 172.3
      vertex 0.0920191 141.782 172.3
      vertex 0.200001 141.386 172.3
    endloop
  endfacet
  facet normal -0 0 1
    outer loop
      vertex -0.17557 141.618 172.3
      vertex 0.200001 141.386 172.3
      vertex 0.0920191 141.782 172.3
    endloop
  endfacet
  facet normal 0 0 1
    outer loop
      vertex 0.200001 141.386 172.3
      vertex -0.17557 141.618 172.3
      vertex -0.0706081 141.189 172.3
    endloop
  endfacet
  facet normal -0 0 1
    outer loop
      vertex -0.414213 141.414 172.3
      vertex -0.0706081 141.189 172.3
      vertex -0.17557 141.618 172.3
    endloop
  endfacet
  facet normal 0 0 1
    outer loop
      vertex -0.0706081 141.189 172.3
      vertex -0.414213 141.414 172.3
      vertex -0.294427 140.94 172.3
    endloop
  endfacet
  facet normal -0 0 1
    outer loop
      vertex -0.618033 141.176 172.3
      vertex -0.294427 140.94 172.3
      vertex -0.414213 141.414 172.3
    endloop
  endfacet
  facet normal 0 0 1
    outer loop
      vertex -0.782013 140.908 172.3
      vertex -0.294427 140.94 172.3
      vertex -0.618033 141.176 172.3
    endloop
  endfacet
  facet normal 0 0 1
    outer loop
      vertex -0.902113 140.618 172.3
      vertex -0.461672 140.651 172.3
      vertex -0.782013 140.908 172.3
    endloop
  endfacet
  facet normal 0 0 1
    outer loop
      vertex -0.294427 140.94 172.3
      vertex -0.782013 140.908 172.3
      vertex -0.461672 140.651 172.3
    endloop
  endfacet
  facet normal 0 0 1
    outer loop
      vertex 2.90211 139.382 172.3
      vertex 2.46167 139.349 172.3
      vertex 2.78201 139.092 172.3
    endloop
  endfacet
  facet normal 0 0 1
    outer loop
      vertex 2.29443 139.06 172.3
      vertex 2.78201 139.092 172.3
      vertex 2.46167 139.349 172.3
    endloop
  endfacet
  facet normal 0 0 1
    outer loop
      vertex 2.78201 139.092 172.3
      vertex 2.29443 139.06 172.3
      vertex 2.61803 138.824 172.3
    endloop
  endfacet
  facet normal 0 0 1
    outer loop
      vertex 2.61803 138.824 172.3
      vertex 2.29443 139.06 172.3
      vertex 2.41421 138.586 172.3
    endloop
  endfacet
  facet normal -0 0 1
    outer loop
      vertex 2.07061 138.811 172.3
      vertex 2.41421 138.586 172.3
      vertex 2.29443 139.06 172.3
    endloop
  endfacet
  facet normal 0 0 1
    outer loop
      vertex 2.41421 138.586 172.3
      vertex 2.07061 138.811 172.3
      vertex 2.17557 138.382 172.3
    endloop
  endfacet
  facet normal -0 0 1
    outer loop
      vertex 1.8 138.614 172.3
      vertex 2.17557 138.382 172.3
      vertex 2.07061 138.811 172.3
    endloop
  endfacet
  facet normal 0 0 1
    outer loop
      vertex 2.17557 138.382 172.3
      vertex 1.8 138.614 172.3
      vertex 1.90798 138.218 172.3
    endloop
  endfacet
  facet normal -0 0 1
    outer loop
      vertex 1.49443 138.478 172.3
      vertex 1.90798 138.218 172.3
      vertex 1.8 138.614 172.3
    endloop
  endfacet
  facet normal 0 0 1
    outer loop
      vertex 1.90798 138.218 172.3
      vertex 1.49443 138.478 172.3
      vertex 1.61803 138.098 172.3
    endloop
  endfacet
  facet normal 0 0 1
    outer loop
      vertex 1.49443 138.478 172.3
      vertex 1.31287 138.025 172.3
      vertex 1.61803 138.098 172.3
    endloop
  endfacet
  facet normal -0 0 1
    outer loop
      vertex 1.16724 138.409 172.3
      vertex 1.31287 138.025 172.3
      vertex 1.49443 138.478 172.3
    endloop
  endfacet
  facet normal 0 0 1
    outer loop
      vertex 1.16724 138.409 172.3
      vertex 1 138 172.3
      vertex 1.31287 138.025 172.3
    endloop
  endfacet
  facet normal -0 0 1
    outer loop
      vertex 0.832755 138.409 172.3
      vertex 1 138 172.3
      vertex 1.16724 138.409 172.3
    endloop
  endfacet
  facet normal 0 0 1
    outer loop
      vertex 0.832755 138.409 172.3
      vertex 0.687132 138.025 172.3
      vertex 1 138 172.3
    endloop
  endfacet
  facet normal 0 0 1
    outer loop
      vertex 0.505573 138.478 172.3
      vertex 0.687132 138.025 172.3
      vertex 0.832755 138.409 172.3
    endloop
  endfacet
  facet normal 0 0 1
    outer loop
      vertex 0.505573 138.478 172.3
      vertex 0.381967 138.098 172.3
      vertex 0.687132 138.025 172.3
    endloop
  endfacet
  facet normal 0 0 1
    outer loop
      vertex 0.0920191 138.218 172.3
      vertex 0.505573 138.478 172.3
      vertex 0.200001 138.614 172.3
    endloop
  endfacet
  facet normal 0 0 1
    outer loop
      vertex 0.505573 138.478 172.3
      vertex 0.0920191 138.218 172.3
      vertex 0.381967 138.098 172.3
    endloop
  endfacet
  facet normal 0 0 1
    outer loop
      vertex -0.17557 138.382 172.3
      vertex 0.200001 138.614 172.3
      vertex -0.0706081 138.811 172.3
    endloop
  endfacet
  facet normal 0 0 1
    outer loop
      vertex 0.200001 138.614 172.3
      vertex -0.17557 138.382 172.3
      vertex 0.0920191 138.218 172.3
    endloop
  endfacet
  facet normal 0 0 1
    outer loop
      vertex -0.414213 138.586 172.3
      vertex -0.0706081 138.811 172.3
      vertex -0.294427 139.06 172.3
    endloop
  endfacet
  facet normal 0 0 1
    outer loop
      vertex -0.0706081 138.811 172.3
      vertex -0.414213 138.586 172.3
      vertex -0.17557 138.382 172.3
    endloop
  endfacet
  facet normal -0 0 1
    outer loop
      vertex -0.782013 139.092 172.3
      vertex -0.294427 139.06 172.3
      vertex -0.461672 139.349 172.3
    endloop
  endfacet
  facet normal -0 0 1
    outer loop
      vertex -0.902113 139.382 172.3
      vertex -0.461672 139.349 172.3
      vertex -0.565036 139.667 172.3
    endloop
  endfacet
  facet normal 0 0 1
    outer loop
      vertex -0.294427 139.06 172.3
      vertex -0.618033 138.824 172.3
      vertex -0.414213 138.586 172.3
    endloop
  endfacet
  facet normal -0 0 1
    outer loop
      vertex -0.975376 139.687 172.3
      vertex -0.565036 139.667 172.3
      vertex -0.599999 140 172.3
    endloop
  endfacet
  facet normal 0 0 1
    outer loop
      vertex -0.461672 140.651 172.3
      vertex -0.902113 140.618 172.3
      vertex -0.565036 140.333 172.3
    endloop
  endfacet
  facet normal 0 0 1
    outer loop
      vertex -0.975376 140.313 172.3
      vertex -0.565036 140.333 172.3
      vertex -0.902113 140.618 172.3
    endloop
  endfacet
  facet normal 0 0 1
    outer loop
      vertex -0.294427 139.06 172.3
      vertex -0.782013 139.092 172.3
      vertex -0.618033 138.824 172.3
    endloop
  endfacet
  facet normal 0 0 1
    outer loop
      vertex -0.565036 140.333 172.3
      vertex -0.975376 140.313 172.3
      vertex -0.599999 140 172.3
    endloop
  endfacet
  facet normal 0 0 1
    outer loop
      vertex -0.461672 139.349 172.3
      vertex -0.902113 139.382 172.3
      vertex -0.782013 139.092 172.3
    endloop
  endfacet
  facet normal 0 0 1
    outer loop
      vertex -1 140 172.3
      vertex -0.599999 140 172.3
      vertex -0.975376 140.313 172.3
    endloop
  endfacet
  facet normal 0 0 1
    outer loop
      vertex -0.565036 139.667 172.3
      vertex -0.975376 139.687 172.3
      vertex -0.902113 139.382 172.3
    endloop
  endfacet
  facet normal 0 0 1
    outer loop
      vertex -0.599999 140 172.3
      vertex -1 140 172.3
      vertex -0.975376 139.687 172.3
    endloop
  endfacet
  facet normal 0.99692 0.0784286 8.57194e-20
    outer loop
      vertex -0.975376 139.687 177.9
      vertex -1 140 172.3
      vertex -1 140 177.9
    endloop
  endfacet
  facet normal 0.99692 0.0784286 8.57194e-20
    outer loop
      vertex -1 140 172.3
      vertex -0.975376 139.687 177.9
      vertex -0.975376 139.687 172.3
    endloop
  endfacet
  facet normal 0.38241 -0.923993 0
    outer loop
      vertex 0.0920191 141.782 172.3
      vertex 0.381967 141.902 177.9
      vertex 0.0920191 141.782 177.9
    endloop
  endfacet
  facet normal 0.38241 -0.923993 0
    outer loop
      vertex 0.381967 141.902 177.9
      vertex 0.0920191 141.782 172.3
      vertex 0.381967 141.902 172.3
    endloop
  endfacet
  facet normal 0.852995 0.521919 -3.7817e-19
    outer loop
      vertex -0.618033 138.824 177.9
      vertex -0.782013 139.092 172.3
      vertex -0.782013 139.092 177.9
    endloop
  endfacet
  facet normal 0.852995 0.521919 -3.7817e-19
    outer loop
      vertex -0.782013 139.092 172.3
      vertex -0.618033 138.824 177.9
      vertex -0.618033 138.824 172.3
    endloop
  endfacet
  facet normal -0.649784 -0.760119 0
    outer loop
      vertex 2.17557 141.618 172.3
      vertex 2.41421 141.414 177.9
      vertex 2.17557 141.618 177.9
    endloop
  endfacet
  facet normal -0.649784 -0.760119 -0
    outer loop
      vertex 2.41421 141.414 177.9
      vertex 2.17557 141.618 172.3
      vertex 2.41421 141.414 172.3
    endloop
  endfacet
  facet normal 0.994533 0.10442 2.80486e-19
    outer loop
      vertex -0.565036 139.667 172.3
      vertex -0.599999 140 167.3
      vertex -0.599999 140 172.3
    endloop
  endfacet
  facet normal 0.994533 0.10442 2.80486e-19
    outer loop
      vertex -0.599999 140 167.3
      vertex -0.565036 139.667 172.3
      vertex -0.565036 139.667 167.3
    endloop
  endfacet
  facet normal -0.951016 0.30914 -1.8133e-18
    outer loop
      vertex 2.46167 139.349 167.3
      vertex 2.56504 139.667 172.3
      vertex 2.56504 139.667 167.3
    endloop
  endfacet
  facet normal -0.951016 0.30914 -1.8133e-18
    outer loop
      vertex 2.56504 139.667 172.3
      vertex 2.46167 139.349 167.3
      vertex 2.46167 139.349 172.3
    endloop
  endfacet
  facet normal -0.994534 0.104411 5.39438e-20
    outer loop
      vertex 2.56504 139.667 167.3
      vertex 2.6 140 172.3
      vertex 2.6 140 167.3
    endloop
  endfacet
  facet normal -0.994534 0.104411 5.39438e-20
    outer loop
      vertex 2.6 140 172.3
      vertex 2.56504 139.667 167.3
      vertex 2.56504 139.667 172.3
    endloop
  endfacet
  facet normal -0.865525 0.500866 9.69496e-19
    outer loop
      vertex 2.29443 139.06 167.3
      vertex 2.46167 139.349 172.3
      vertex 2.46167 139.349 167.3
    endloop
  endfacet
  facet normal -0.865525 0.500866 9.69496e-19
    outer loop
      vertex 2.46167 139.349 172.3
      vertex 2.29443 139.06 167.3
      vertex 2.29443 139.06 172.3
    endloop
  endfacet
  facet normal -0.994534 -0.104411 -5.39438e-20
    outer loop
      vertex 2.6 140 167.3
      vertex 2.56504 140.333 172.3
      vertex 2.56504 140.333 167.3
    endloop
  endfacet
  facet normal -0.994534 -0.104411 -5.39438e-20
    outer loop
      vertex 2.56504 140.333 172.3
      vertex 2.6 140 167.3
      vertex 2.6 140 172.3
    endloop
  endfacet
  facet normal -0.74371 0.668503 -5.33913e-19
    outer loop
      vertex 2.07061 138.811 167.3
      vertex 2.29443 139.06 172.3
      vertex 2.29443 139.06 167.3
    endloop
  endfacet
  facet normal -0.74371 0.668503 -5.33913e-19
    outer loop
      vertex 2.29443 139.06 172.3
      vertex 2.07061 138.811 167.3
      vertex 2.07061 138.811 172.3
    endloop
  endfacet
  facet normal -0.865525 -0.500866 -9.69496e-19
    outer loop
      vertex 2.46167 140.651 167.3
      vertex 2.29443 140.94 172.3
      vertex 2.29443 140.94 167.3
    endloop
  endfacet
  facet normal -0.865525 -0.500866 -9.69496e-19
    outer loop
      vertex 2.29443 140.94 172.3
      vertex 2.46167 140.651 167.3
      vertex 2.46167 140.651 172.3
    endloop
  endfacet
  facet normal -0.206348 0.978479 0
    outer loop
      vertex 1.49443 138.478 167.3
      vertex 1.16724 138.409 172.3
      vertex 1.49443 138.478 172.3
    endloop
  endfacet
  facet normal -0.206348 0.978479 0
    outer loop
      vertex 1.16724 138.409 172.3
      vertex 1.49443 138.478 167.3
      vertex 1.16724 138.409 167.3
    endloop
  endfacet
  facet normal 0.951022 -0.309124 7.99655e-19
    outer loop
      vertex -0.565036 140.333 172.3
      vertex -0.461672 140.651 167.3
      vertex -0.461672 140.651 172.3
    endloop
  endfacet
  facet normal 0.951022 -0.309124 7.99655e-19
    outer loop
      vertex -0.461672 140.651 167.3
      vertex -0.565036 140.333 172.3
      vertex -0.565036 140.333 167.3
    endloop
  endfacet
  facet normal -0.588548 0.808462 0
    outer loop
      vertex 2.07061 138.811 167.3
      vertex 1.8 138.614 172.3
      vertex 2.07061 138.811 172.3
    endloop
  endfacet
  facet normal -0.588548 0.808462 0
    outer loop
      vertex 1.8 138.614 172.3
      vertex 2.07061 138.811 167.3
      vertex 1.8 138.614 167.3
    endloop
  endfacet
  facet normal 0.743711 -0.668501 -7.96057e-19
    outer loop
      vertex -0.294427 140.94 172.3
      vertex -0.0706081 141.189 167.3
      vertex -0.0706081 141.189 172.3
    endloop
  endfacet
  facet normal 0.743711 -0.668501 -7.96057e-19
    outer loop
      vertex -0.0706081 141.189 167.3
      vertex -0.294427 140.94 172.3
      vertex -0.294427 140.94 167.3
    endloop
  endfacet
  facet normal 0.58855 0.808461 -0
    outer loop
      vertex 0.200001 138.614 167.3
      vertex -0.0706081 138.811 172.3
      vertex 0.200001 138.614 172.3
    endloop
  endfacet
  facet normal 0.58855 0.808461 0
    outer loop
      vertex -0.0706081 138.811 172.3
      vertex 0.200001 138.614 167.3
      vertex -0.0706081 138.811 167.3
    endloop
  endfacet
  facet normal -0.206348 -0.978479 0
    outer loop
      vertex 1.16724 141.591 167.3
      vertex 1.49443 141.522 172.3
      vertex 1.16724 141.591 172.3
    endloop
  endfacet
  facet normal -0.206348 -0.978479 -0
    outer loop
      vertex 1.49443 141.522 172.3
      vertex 1.16724 141.591 167.3
      vertex 1.49443 141.522 167.3
    endloop
  endfacet
  facet normal -0.74371 -0.668503 5.33913e-19
    outer loop
      vertex 2.29443 140.94 167.3
      vertex 2.07061 141.189 172.3
      vertex 2.07061 141.189 167.3
    endloop
  endfacet
  facet normal -0.74371 -0.668503 5.33913e-19
    outer loop
      vertex 2.07061 141.189 172.3
      vertex 2.29443 140.94 167.3
      vertex 2.29443 140.94 172.3
    endloop
  endfacet
  facet normal 0.951022 0.309124 -7.99655e-19
    outer loop
      vertex -0.461672 139.349 172.3
      vertex -0.565036 139.667 167.3
      vertex -0.565036 139.667 172.3
    endloop
  endfacet
  facet normal 0.951022 0.309124 -7.99655e-19
    outer loop
      vertex -0.565036 139.667 167.3
      vertex -0.461672 139.349 172.3
      vertex -0.461672 139.349 167.3
    endloop
  endfacet
  facet normal 0.406613 -0.9136 0
    outer loop
      vertex 0.200001 141.386 167.3
      vertex 0.505573 141.522 172.3
      vertex 0.200001 141.386 172.3
    endloop
  endfacet
  facet normal 0.406613 -0.9136 0
    outer loop
      vertex 0.505573 141.522 172.3
      vertex 0.200001 141.386 167.3
      vertex 0.505573 141.522 167.3
    endloop
  endfacet
  facet normal 0.406613 0.9136 -0
    outer loop
      vertex 0.505573 138.478 167.3
      vertex 0.200001 138.614 172.3
      vertex 0.505573 138.478 172.3
    endloop
  endfacet
  facet normal 0.406613 0.9136 0
    outer loop
      vertex 0.200001 138.614 172.3
      vertex 0.505573 138.478 167.3
      vertex 0.200001 138.614 167.3
    endloop
  endfacet
  facet normal -0.406616 -0.913599 0
    outer loop
      vertex 1.49443 141.522 167.3
      vertex 1.8 141.386 172.3
      vertex 1.49443 141.522 172.3
    endloop
  endfacet
  facet normal -0.406616 -0.913599 -0
    outer loop
      vertex 1.8 141.386 172.3
      vertex 1.49443 141.522 167.3
      vertex 1.8 141.386 167.3
    endloop
  endfacet
  facet normal -0.951016 -0.30914 1.8133e-18
    outer loop
      vertex 2.56504 140.333 167.3
      vertex 2.46167 140.651 172.3
      vertex 2.46167 140.651 167.3
    endloop
  endfacet
  facet normal -0.951016 -0.30914 1.8133e-18
    outer loop
      vertex 2.46167 140.651 172.3
      vertex 2.56504 140.333 167.3
      vertex 2.56504 140.333 172.3
    endloop
  endfacet
  facet normal 0.994533 -0.10442 -2.80486e-19
    outer loop
      vertex -0.599999 140 172.3
      vertex -0.565036 140.333 167.3
      vertex -0.565036 140.333 172.3
    endloop
  endfacet
  facet normal 0.994533 -0.10442 -2.80486e-19
    outer loop
      vertex -0.565036 140.333 167.3
      vertex -0.599999 140 172.3
      vertex -0.599999 140 167.3
    endloop
  endfacet
  facet normal 0.206353 -0.978478 0
    outer loop
      vertex 0.505573 141.522 167.3
      vertex 0.832755 141.591 172.3
      vertex 0.505573 141.522 172.3
    endloop
  endfacet
  facet normal 0.206353 -0.978478 0
    outer loop
      vertex 0.832755 141.591 172.3
      vertex 0.505573 141.522 167.3
      vertex 0.832755 141.591 167.3
    endloop
  endfacet
  facet normal 0.865518 -0.500877 1.59635e-18
    outer loop
      vertex -0.461672 140.651 172.3
      vertex -0.294427 140.94 167.3
      vertex -0.294427 140.94 172.3
    endloop
  endfacet
  facet normal 0.865518 -0.500877 1.59635e-18
    outer loop
      vertex -0.294427 140.94 167.3
      vertex -0.461672 140.651 172.3
      vertex -0.461672 140.651 167.3
    endloop
  endfacet
  facet normal 0.206353 0.978478 -0
    outer loop
      vertex 0.832755 138.409 167.3
      vertex 0.505573 138.478 172.3
      vertex 0.832755 138.409 172.3
    endloop
  endfacet
  facet normal 0.206353 0.978478 0
    outer loop
      vertex 0.505573 138.478 172.3
      vertex 0.832755 138.409 167.3
      vertex 0.505573 138.478 167.3
    endloop
  endfacet
  facet normal -0.406616 0.913599 0
    outer loop
      vertex 1.8 138.614 167.3
      vertex 1.49443 138.478 172.3
      vertex 1.8 138.614 172.3
    endloop
  endfacet
  facet normal -0.406616 0.913599 0
    outer loop
      vertex 1.49443 138.478 172.3
      vertex 1.8 138.614 167.3
      vertex 1.49443 138.478 167.3
    endloop
  endfacet
  facet normal 0.743711 0.668501 7.96057e-19
    outer loop
      vertex -0.0706081 138.811 172.3
      vertex -0.294427 139.06 167.3
      vertex -0.294427 139.06 172.3
    endloop
  endfacet
  facet normal 0.743711 0.668501 7.96057e-19
    outer loop
      vertex -0.294427 139.06 167.3
      vertex -0.0706081 138.811 172.3
      vertex -0.0706081 138.811 167.3
    endloop
  endfacet
  facet normal 0.865518 0.500877 -1.59635e-18
    outer loop
      vertex -0.294427 139.06 172.3
      vertex -0.461672 139.349 167.3
      vertex -0.461672 139.349 172.3
    endloop
  endfacet
  facet normal 0.865518 0.500877 -1.59635e-18
    outer loop
      vertex -0.461672 139.349 167.3
      vertex -0.294427 139.06 172.3
      vertex -0.294427 139.06 167.3
    endloop
  endfacet
  facet normal 0 -1 0
    outer loop
      vertex 0.832755 141.591 167.3
      vertex 1.16724 141.591 172.3
      vertex 0.832755 141.591 172.3
    endloop
  endfacet
  facet normal 0 -1 -0
    outer loop
      vertex 1.16724 141.591 172.3
      vertex 0.832755 141.591 167.3
      vertex 1.16724 141.591 167.3
    endloop
  endfacet
  facet normal -0.588548 -0.808462 0
    outer loop
      vertex 1.8 141.386 167.3
      vertex 2.07061 141.189 172.3
      vertex 1.8 141.386 172.3
    endloop
  endfacet
  facet normal -0.588548 -0.808462 -0
    outer loop
      vertex 2.07061 141.189 172.3
      vertex 1.8 141.386 167.3
      vertex 2.07061 141.189 167.3
    endloop
  endfacet
  facet normal 0 1 -0
    outer loop
      vertex 1.16724 138.409 167.3
      vertex 0.832755 138.409 172.3
      vertex 1.16724 138.409 172.3
    endloop
  endfacet
  facet normal 0 1 0
    outer loop
      vertex 0.832755 138.409 172.3
      vertex 1.16724 138.409 167.3
      vertex 0.832755 138.409 167.3
    endloop
  endfacet
  facet normal 0.58855 -0.808461 0
    outer loop
      vertex -0.0706081 141.189 167.3
      vertex 0.200001 141.386 172.3
      vertex -0.0706081 141.189 172.3
    endloop
  endfacet
  facet normal 0.58855 -0.808461 0
    outer loop
      vertex 0.200001 141.386 172.3
      vertex -0.0706081 141.189 167.3
      vertex 0.200001 141.386 167.3
    endloop
  endfacet
  facet normal 0 0 1
    outer loop
      vertex 2.56504 140.333 167.3
      vertex 2.56504 139.667 167.3
      vertex 2.6 140 167.3
    endloop
  endfacet
  facet normal 0 0 1
    outer loop
      vertex 2.46167 140.651 167.3
      vertex 2.56504 139.667 167.3
      vertex 2.56504 140.333 167.3
    endloop
  endfacet
  facet normal 0 0 1
    outer loop
      vertex 2.46167 140.651 167.3
      vertex 2.46167 139.349 167.3
      vertex 2.56504 139.667 167.3
    endloop
  endfacet
  facet normal 0 0 1
    outer loop
      vertex 2.29443 140.94 167.3
      vertex 2.46167 139.349 167.3
      vertex 2.46167 140.651 167.3
    endloop
  endfacet
  facet normal 0 0 1
    outer loop
      vertex 2.29443 140.94 167.3
      vertex 2.29443 139.06 167.3
      vertex 2.46167 139.349 167.3
    endloop
  endfacet
  facet normal 0 0 1
    outer loop
      vertex 2.07061 141.189 167.3
      vertex 2.29443 139.06 167.3
      vertex 2.29443 140.94 167.3
    endloop
  endfacet
  facet normal 0 0 1
    outer loop
      vertex 2.07061 141.189 167.3
      vertex 2.07061 138.811 167.3
      vertex 2.29443 139.06 167.3
    endloop
  endfacet
  facet normal 0 0 1
    outer loop
      vertex 1.8 141.386 167.3
      vertex 2.07061 138.811 167.3
      vertex 2.07061 141.189 167.3
    endloop
  endfacet
  facet normal 0 0 1
    outer loop
      vertex 1.8 141.386 167.3
      vertex 1.8 138.614 167.3
      vertex 2.07061 138.811 167.3
    endloop
  endfacet
  facet normal 0 0 1
    outer loop
      vertex 1.49443 141.522 167.3
      vertex 1.8 138.614 167.3
      vertex 1.8 141.386 167.3
    endloop
  endfacet
  facet normal 0 0 1
    outer loop
      vertex 1.49443 141.522 167.3
      vertex 1.49443 138.478 167.3
      vertex 1.8 138.614 167.3
    endloop
  endfacet
  facet normal 0 0 1
    outer loop
      vertex 1.16724 141.591 167.3
      vertex 1.49443 138.478 167.3
      vertex 1.49443 141.522 167.3
    endloop
  endfacet
  facet normal 0 0 1
    outer loop
      vertex 1.16724 141.591 167.3
      vertex 1.16724 138.409 167.3
      vertex 1.49443 138.478 167.3
    endloop
  endfacet
  facet normal -0 0 1
    outer loop
      vertex 0.832755 141.591 167.3
      vertex 1.16724 138.409 167.3
      vertex 1.16724 141.591 167.3
    endloop
  endfacet
  facet normal 0 0 1
    outer loop
      vertex 0.832755 141.591 167.3
      vertex 0.832755 138.409 167.3
      vertex 1.16724 138.409 167.3
    endloop
  endfacet
  facet normal -0 0 1
    outer loop
      vertex 0.505573 141.522 167.3
      vertex 0.832755 138.409 167.3
      vertex 0.832755 141.591 167.3
    endloop
  endfacet
  facet normal 0 0 1
    outer loop
      vertex 0.505573 141.522 167.3
      vertex 0.505573 138.478 167.3
      vertex 0.832755 138.409 167.3
    endloop
  endfacet
  facet normal -0 0 1
    outer loop
      vertex 0.200001 141.386 167.3
      vertex 0.505573 138.478 167.3
      vertex 0.505573 141.522 167.3
    endloop
  endfacet
  facet normal 0 0 1
    outer loop
      vertex 0.200001 141.386 167.3
      vertex 0.200001 138.614 167.3
      vertex 0.505573 138.478 167.3
    endloop
  endfacet
  facet normal -0 0 1
    outer loop
      vertex -0.0706081 141.189 167.3
      vertex 0.200001 138.614 167.3
      vertex 0.200001 141.386 167.3
    endloop
  endfacet
  facet normal 0 0 1
    outer loop
      vertex -0.0706081 141.189 167.3
      vertex -0.0706081 138.811 167.3
      vertex 0.200001 138.614 167.3
    endloop
  endfacet
  facet normal -0 0 1
    outer loop
      vertex -0.294427 140.94 167.3
      vertex -0.0706081 138.811 167.3
      vertex -0.0706081 141.189 167.3
    endloop
  endfacet
  facet normal 0 0 1
    outer loop
      vertex -0.294427 140.94 167.3
      vertex -0.294427 139.06 167.3
      vertex -0.0706081 138.811 167.3
    endloop
  endfacet
  facet normal -0 0 1
    outer loop
      vertex -0.461672 140.651 167.3
      vertex -0.294427 139.06 167.3
      vertex -0.294427 140.94 167.3
    endloop
  endfacet
  facet normal 0 0 1
    outer loop
      vertex -0.461672 140.651 167.3
      vertex -0.461672 139.349 167.3
      vertex -0.294427 139.06 167.3
    endloop
  endfacet
  facet normal -0 0 1
    outer loop
      vertex -0.565036 140.333 167.3
      vertex -0.461672 139.349 167.3
      vertex -0.461672 140.651 167.3
    endloop
  endfacet
  facet normal 0 0 1
    outer loop
      vertex -0.565036 140.333 167.3
      vertex -0.565036 139.667 167.3
      vertex -0.461672 139.349 167.3
    endloop
  endfacet
  facet normal 0 -0 1
    outer loop
      vertex -0.565036 139.667 167.3
      vertex -0.565036 140.333 167.3
      vertex -0.599999 140 167.3
    endloop
  endfacet
  facet normal 1 -0 0
    outer loop
      vertex 6 135 177.9
      vertex 6 144.8 0
      vertex 6 144.8 177.9
    endloop
  endfacet
  facet normal 1 0 0
    outer loop
      vertex 6 144.8 0
      vertex 6 135 177.9
      vertex 6 135 0
    endloop
  endfacet
  facet normal 1 -0 0
    outer loop
      vertex 6 148.2 177.9
      vertex 6 150 0
      vertex 6 150 177.9
    endloop
  endfacet
  facet normal 1 0 0
    outer loop
      vertex 6 150 0
      vertex 6 148.2 177.9
      vertex 6 148.2 0
    endloop
  endfacet
  facet normal 0 0 1
    outer loop
      vertex 6 150 177.9
      vertex -1 148.2 177.9
      vertex 6 148.2 177.9
    endloop
  endfacet
  facet normal 0 0 1
    outer loop
      vertex -3.8 142 177.9
      vertex -1 144.8 177.9
      vertex -1 148.2 177.9
    endloop
  endfacet
  facet normal 0 0 1
    outer loop
      vertex -1 144.8 177.9
      vertex -3.8 142 177.9
      vertex -1 140 177.9
    endloop
  endfacet
  facet normal 0 0 1
    outer loop
      vertex -1 148.2 177.9
      vertex -7.2 142 177.9
      vertex -3.8 142 177.9
    endloop
  endfacet
  facet normal -0 0 1
    outer loop
      vertex -9 150 177.9
      vertex -1 148.2 177.9
      vertex 6 150 177.9
    endloop
  endfacet
  facet normal 0 0 1
    outer loop
      vertex -9 150 177.9
      vertex -7.2 142 177.9
      vertex -1 148.2 177.9
    endloop
  endfacet
  facet normal 0 0 1
    outer loop
      vertex -9 135 177.9
      vertex -7.2 142 177.9
      vertex -9 150 177.9
    endloop
  endfacet
  facet normal 0 0 1
    outer loop
      vertex -7.2 142 177.9
      vertex -9 135 177.9
      vertex -7.2 135 177.9
    endloop
  endfacet
  facet normal 0 0 1
    outer loop
      vertex 6 144.8 177.9
      vertex 3 140 177.9
      vertex 6 135 177.9
    endloop
  endfacet
  facet normal 0 0 1
    outer loop
      vertex 6 144.8 177.9
      vertex 2.97538 140.313 177.9
      vertex 3 140 177.9
    endloop
  endfacet
  facet normal 0 0 1
    outer loop
      vertex 6 144.8 177.9
      vertex 2.90211 140.618 177.9
      vertex 2.97538 140.313 177.9
    endloop
  endfacet
  facet normal 0 0 1
    outer loop
      vertex 6 144.8 177.9
      vertex 2.78201 140.908 177.9
      vertex 2.90211 140.618 177.9
    endloop
  endfacet
  facet normal 0 0 1
    outer loop
      vertex 6 144.8 177.9
      vertex 2.61803 141.176 177.9
      vertex 2.78201 140.908 177.9
    endloop
  endfacet
  facet normal 0 0 1
    outer loop
      vertex 6 144.8 177.9
      vertex 2.41421 141.414 177.9
      vertex 2.61803 141.176 177.9
    endloop
  endfacet
  facet normal 0 0 1
    outer loop
      vertex 6 144.8 177.9
      vertex 2.17557 141.618 177.9
      vertex 2.41421 141.414 177.9
    endloop
  endfacet
  facet normal 0 0 1
    outer loop
      vertex 6 144.8 177.9
      vertex 1.90798 141.782 177.9
      vertex 2.17557 141.618 177.9
    endloop
  endfacet
  facet normal 0 0 1
    outer loop
      vertex 6 144.8 177.9
      vertex 1.61803 141.902 177.9
      vertex 1.90798 141.782 177.9
    endloop
  endfacet
  facet normal -0 0 1
    outer loop
      vertex -1 144.8 177.9
      vertex 1.61803 141.902 177.9
      vertex 6 144.8 177.9
    endloop
  endfacet
  facet normal 0 0 1
    outer loop
      vertex 1.61803 141.902 177.9
      vertex -1 144.8 177.9
      vertex 1.31287 141.975 177.9
    endloop
  endfacet
  facet normal 0 0 1
    outer loop
      vertex 1.31287 141.975 177.9
      vertex -1 144.8 177.9
      vertex 1 142 177.9
    endloop
  endfacet
  facet normal 0 0 1
    outer loop
      vertex 1 142 177.9
      vertex -1 144.8 177.9
      vertex 0.687132 141.975 177.9
    endloop
  endfacet
  facet normal 0 0 1
    outer loop
      vertex 0.687132 141.975 177.9
      vertex -1 144.8 177.9
      vertex 0.381967 141.902 177.9
    endloop
  endfacet
  facet normal 0 0 1
    outer loop
      vertex 0.381967 141.902 177.9
      vertex -1 144.8 177.9
      vertex 0.0920191 141.782 177.9
    endloop
  endfacet
  facet normal 0 0 1
    outer loop
      vertex -1 144.8 177.9
      vertex -0.17557 141.618 177.9
      vertex 0.0920191 141.782 177.9
    endloop
  endfacet
  facet normal 0 0 1
    outer loop
      vertex -1 144.8 177.9
      vertex -0.414213 141.414 177.9
      vertex -0.17557 141.618 177.9
    endloop
  endfacet
  facet normal 0 0 1
    outer loop
      vertex -1 144.8 177.9
      vertex -0.618033 141.176 177.9
      vertex -0.414213 141.414 177.9
    endloop
  endfacet
  facet normal 0 0 1
    outer loop
      vertex -1 144.8 177.9
      vertex -0.782013 140.908 177.9
      vertex -0.618033 141.176 177.9
    endloop
  endfacet
  facet normal 0 0 1
    outer loop
      vertex -1 144.8 177.9
      vertex -0.902113 140.618 177.9
      vertex -0.782013 140.908 177.9
    endloop
  endfacet
  facet normal 0 0 1
    outer loop
      vertex -1 144.8 177.9
      vertex -0.975376 140.313 177.9
      vertex -0.902113 140.618 177.9
    endloop
  endfacet
  facet normal 0 0 1
    outer loop
      vertex -0.975376 140.313 177.9
      vertex -1 144.8 177.9
      vertex -1 140 177.9
    endloop
  endfacet
  facet normal -0 0 1
    outer loop
      vertex 2.97538 139.687 177.9
      vertex 6 135 177.9
      vertex 3 140 177.9
    endloop
  endfacet
  facet normal -0 0 1
    outer loop
      vertex 2.90211 139.382 177.9
      vertex 6 135 177.9
      vertex 2.97538 139.687 177.9
    endloop
  endfacet
  facet normal -0 0 1
    outer loop
      vertex 2.78201 139.092 177.9
      vertex 6 135 177.9
      vertex 2.90211 139.382 177.9
    endloop
  endfacet
  facet normal -0 0 1
    outer loop
      vertex 2.61803 138.824 177.9
      vertex 6 135 177.9
      vertex 2.78201 139.092 177.9
    endloop
  endfacet
  facet normal -0 0 1
    outer loop
      vertex 2.41421 138.586 177.9
      vertex 6 135 177.9
      vertex 2.61803 138.824 177.9
    endloop
  endfacet
  facet normal -0 0 1
    outer loop
      vertex 2.17557 138.382 177.9
      vertex 6 135 177.9
      vertex 2.41421 138.586 177.9
    endloop
  endfacet
  facet normal -0 0 1
    outer loop
      vertex 1.90798 138.218 177.9
      vertex 6 135 177.9
      vertex 2.17557 138.382 177.9
    endloop
  endfacet
  facet normal -0 0 1
    outer loop
      vertex 1.61803 138.098 177.9
      vertex 6 135 177.9
      vertex 1.90798 138.218 177.9
    endloop
  endfacet
  facet normal -0 0 1
    outer loop
      vertex 1.31287 138.025 177.9
      vertex 6 135 177.9
      vertex 1.61803 138.098 177.9
    endloop
  endfacet
  facet normal -0 0 1
    outer loop
      vertex 1 138 177.9
      vertex 6 135 177.9
      vertex 1.31287 138.025 177.9
    endloop
  endfacet
  facet normal 0 0 1
    outer loop
      vertex -3.8 135 177.9
      vertex 1 138 177.9
      vertex 0.687132 138.025 177.9
    endloop
  endfacet
  facet normal 0 0 1
    outer loop
      vertex -3.8 135 177.9
      vertex 0.687132 138.025 177.9
      vertex 0.381967 138.098 177.9
    endloop
  endfacet
  facet normal 0 0 1
    outer loop
      vertex -3.8 135 177.9
      vertex 0.381967 138.098 177.9
      vertex 0.0920191 138.218 177.9
    endloop
  endfacet
  facet normal 0 0 1
    outer loop
      vertex -3.8 142 177.9
      vertex -0.975376 139.687 177.9
      vertex -1 140 177.9
    endloop
  endfacet
  facet normal 0 0 1
    outer loop
      vertex -3.8 142 177.9
      vertex -0.902113 139.382 177.9
      vertex -0.975376 139.687 177.9
    endloop
  endfacet
  facet normal 0 0 1
    outer loop
      vertex -3.8 135 177.9
      vertex -0.902113 139.382 177.9
      vertex -3.8 142 177.9
    endloop
  endfacet
  facet normal 0 0 1
    outer loop
      vertex -0.902113 139.382 177.9
      vertex -3.8 135 177.9
      vertex -0.782013 139.092 177.9
    endloop
  endfacet
  facet normal 0 0 1
    outer loop
      vertex -0.782013 139.092 177.9
      vertex -3.8 135 177.9
      vertex -0.618033 138.824 177.9
    endloop
  endfacet
  facet normal 0 0 1
    outer loop
      vertex 1 138 177.9
      vertex -3.8 135 177.9
      vertex 6 135 177.9
    endloop
  endfacet
  facet normal 0 0 1
    outer loop
      vertex -0.17557 138.382 177.9
      vertex -3.8 135 177.9
      vertex 0.0920191 138.218 177.9
    endloop
  endfacet
  facet normal 0 0 1
    outer loop
      vertex -0.414213 138.586 177.9
      vertex -3.8 135 177.9
      vertex -0.17557 138.382 177.9
    endloop
  endfacet
  facet normal 0 0 1
    outer loop
      vertex -0.618033 138.824 177.9
      vertex -3.8 135 177.9
      vertex -0.414213 138.586 177.9
    endloop
  endfacet
  facet normal 0 0 -1
    outer loop
      vertex -7.2 135 0
      vertex -9 135 0
      vertex -7.2 142 0
    endloop
  endfacet
  facet normal 0 0 -1
    outer loop
      vertex 6 135 0
      vertex 4 137 0
      vertex 6 144.8 0
    endloop
  endfacet
  facet normal 0 0 -1
    outer loop
      vertex -3.8 135 0
      vertex 4 137 0
      vertex 6 135 0
    endloop
  endfacet
  facet normal 0 0 -1
    outer loop
      vertex -3.8 142 0
      vertex -2 137 0
      vertex -3.8 135 0
    endloop
  endfacet
  facet normal -0 0 -1
    outer loop
      vertex 4 137 0
      vertex -3.8 135 0
      vertex -2 137 0
    endloop
  endfacet
  facet normal 0 0 -1
    outer loop
      vertex 4 143 0
      vertex 6 144.8 0
      vertex 4 137 0
    endloop
  endfacet
  facet normal 0 0 -1
    outer loop
      vertex 4 143 0
      vertex -1 144.8 0
      vertex 6 144.8 0
    endloop
  endfacet
  facet normal 0 0 -1
    outer loop
      vertex -3.8 142 0
      vertex -1 144.8 0
      vertex -2 143 0
    endloop
  endfacet
  facet normal 0 0 -1
    outer loop
      vertex -2 143 0
      vertex -1 144.8 0
      vertex 4 143 0
    endloop
  endfacet
  facet normal 0 0 -1
    outer loop
      vertex -1 148.2 0
      vertex 6 150 0
      vertex 6 148.2 0
    endloop
  endfacet
  facet normal 0 0 -1
    outer loop
      vertex -2 137 0
      vertex -3.8 142 0
      vertex -2 143 0
    endloop
  endfacet
  facet normal -0 0 -1
    outer loop
      vertex -1 144.8 0
      vertex -3.8 142 0
      vertex -1 148.2 0
    endloop
  endfacet
  facet normal 0 0 -1
    outer loop
      vertex -7.2 142 0
      vertex -1 148.2 0
      vertex -3.8 142 0
    endloop
  endfacet
  facet normal 0 0 -1
    outer loop
      vertex -1 148.2 0
      vertex -9 150 0
      vertex 6 150 0
    endloop
  endfacet
  facet normal 0 0 -1
    outer loop
      vertex -7.2 142 0
      vertex -9 150 0
      vertex -1 148.2 0
    endloop
  endfacet
  facet normal 0 0 -1
    outer loop
      vertex -9 150 0
      vertex -7.2 142 0
      vertex -9 135 0
    endloop
  endfacet
  facet normal -1 0 0
    outer loop
      vertex -9 135 0
      vertex -9 150 177.9
      vertex -9 150 0
    endloop
  endfacet
  facet normal -1 -0 0
    outer loop
      vertex -9 150 177.9
      vertex -9 135 0
      vertex -9 135 177.9
    endloop
  endfacet
  facet normal 0 -1 0
    outer loop
      vertex -9 135 0
      vertex -7.2 135 177.9
      vertex -9 135 177.9
    endloop
  endfacet
  facet normal 0 -1 -0
    outer loop
      vertex -7.2 135 177.9
      vertex -9 135 0
      vertex -7.2 135 0
    endloop
  endfacet
  facet normal 0 -1 0
    outer loop
      vertex -3.8 135 0
      vertex 6 135 177.9
      vertex -3.8 135 177.9
    endloop
  endfacet
  facet normal 0 -1 -0
    outer loop
      vertex 6 135 177.9
      vertex -3.8 135 0
      vertex 6 135 0
    endloop
  endfacet
  facet normal 0 1 -0
    outer loop
      vertex 6 150 0
      vertex -9 150 177.9
      vertex 6 150 177.9
    endloop
  endfacet
  facet normal 0 1 0
    outer loop
      vertex -9 150 177.9
      vertex 6 150 0
      vertex -9 150 0
    endloop
  endfacet
  facet normal -1 0 0
    outer loop
      vertex -3.8 135 0
      vertex -3.8 142 177.9
      vertex -3.8 142 0
    endloop
  endfacet
  facet normal -1 -0 0
    outer loop
      vertex -3.8 142 177.9
      vertex -3.8 135 0
      vertex -3.8 135 177.9
    endloop
  endfacet
  facet normal 1 -0 0
    outer loop
      vertex -7.2 135 177.9
      vertex -7.2 142 0
      vertex -7.2 142 177.9
    endloop
  endfacet
  facet normal 1 0 0
    outer loop
      vertex -7.2 142 0
      vertex -7.2 135 177.9
      vertex -7.2 135 0
    endloop
  endfacet
  facet normal 0 -1 0
    outer loop
      vertex -7.2 142 0
      vertex -3.8 142 177.9
      vertex -7.2 142 177.9
    endloop
  endfacet
  facet normal 0 -1 -0
    outer loop
      vertex -3.8 142 177.9
      vertex -7.2 142 0
      vertex -3.8 142 0
    endloop
  endfacet
  facet normal 1 -0 0
    outer loop
      vertex -1 144.8 177.9
      vertex -1 148.2 0
      vertex -1 148.2 177.9
    endloop
  endfacet
  facet normal 1 0 0
    outer loop
      vertex -1 148.2 0
      vertex -1 144.8 177.9
      vertex -1 144.8 0
    endloop
  endfacet
  facet normal 0 1 -0
    outer loop
      vertex 6 144.8 0
      vertex -1 144.8 177.9
      vertex 6 144.8 177.9
    endloop
  endfacet
  facet normal 0 1 0
    outer loop
      vertex -1 144.8 177.9
      vertex 6 144.8 0
      vertex -1 144.8 0
    endloop
  endfacet
  facet normal 0 -1 0
    outer loop
      vertex -1 148.2 0
      vertex 6 148.2 177.9
      vertex -1 148.2 177.9
    endloop
  endfacet
  facet normal 0 -1 -0
    outer loop
      vertex 6 148.2 177.9
      vertex -1 148.2 0
      vertex 6 148.2 0
    endloop
  endfacet
  facet normal 1 -0 0
    outer loop
      vertex 4 137 0
      vertex 4 143 -2.4
      vertex 4 143 0
    endloop
  endfacet
  facet normal 1 0 0
    outer loop
      vertex 4 143 -2.4
      vertex 4 137 0
      vertex 4 137 -2.4
    endloop
  endfacet
  facet normal 0 0 -1
    outer loop
      vertex -2 137 -2.4
      vertex 4 143 -2.4
      vertex 4 137 -2.4
    endloop
  endfacet
  facet normal -0 0 -1
    outer loop
      vertex 4 143 -2.4
      vertex -2 137 -2.4
      vertex -2 143 -2.4
    endloop
  endfacet
  facet normal -1 0 0
    outer loop
      vertex -2 137 -2.4
      vertex -2 143 0
      vertex -2 143 -2.4
    endloop
  endfacet
  facet normal -1 -0 0
    outer loop
      vertex -2 143 0
      vertex -2 137 -2.4
      vertex -2 137 0
    endloop
  endfacet
  facet normal 0 -1 0
    outer loop
      vertex -2 137 -2.4
      vertex 4 137 0
      vertex -2 137 0
    endloop
  endfacet
  facet normal 0 -1 -0
    outer loop
      vertex 4 137 0
      vertex -2 137 -2.4
      vertex 4 137 -2.4
    endloop
  endfacet
  facet normal 0 1 -0
    outer loop
      vertex 4 143 -2.4
      vertex -2 143 0
      vertex 4 143 0
    endloop
  endfacet
  facet normal 0 1 0
    outer loop
      vertex -2 143 0
      vertex 4 143 -2.4
      vertex -2 143 -2.4
    endloop
  endfacet
endsolid OpenSCAD_Model
