solid OpenSCAD_Model
  facet normal -1 0 0
    outer loop
      vertex 246.7 -161.8 0
      vertex 246.7 -152 173.62
      vertex 246.7 -152 0
    endloop
  endfacet
  facet normal -1 -0 0
    outer loop
      vertex 246.7 -152 173.62
      vertex 246.7 -161.8 0
      vertex 246.7 -161.8 173.62
    endloop
  endfacet
  facet normal -1 0 0
    outer loop
      vertex 246.7 -167 0
      vertex 246.7 -165.2 173.62
      vertex 246.7 -165.2 0
    endloop
  endfacet
  facet normal -1 -0 0
    outer loop
      vertex 246.7 -165.2 173.62
      vertex 246.7 -167 0
      vertex 246.7 -167 173.62
    endloop
  endfacet
  facet normal -0 0 1
    outer loop
      vertex 248.5 -160.2 173.62
      vertex 253.7 -161.8 173.62
      vertex 254.9 -160.2 173.62
    endloop
  endfacet
  facet normal 0 0 1
    outer loop
      vertex 248.5 -160.2 173.62
      vertex 246.7 -161.8 173.62
      vertex 253.7 -161.8 173.62
    endloop
  endfacet
  facet normal 0 0 1
    outer loop
      vertex 248.5 -153.8 173.62
      vertex 246.7 -161.8 173.62
      vertex 248.5 -160.2 173.62
    endloop
  endfacet
  facet normal 0 0 1
    outer loop
      vertex 256.5 -152 173.62
      vertex 254.9 -153.8 173.62
      vertex 256.5 -159 173.62
    endloop
  endfacet
  facet normal 0 0 1
    outer loop
      vertex 256.5 -152 173.62
      vertex 248.5 -153.8 173.62
      vertex 254.9 -153.8 173.62
    endloop
  endfacet
  facet normal 0 0 1
    outer loop
      vertex 246.7 -161.8 173.62
      vertex 248.5 -153.8 173.62
      vertex 246.7 -152 173.62
    endloop
  endfacet
  facet normal -0 0 1
    outer loop
      vertex 246.7 -152 173.62
      vertex 248.5 -153.8 173.62
      vertex 256.5 -152 173.62
    endloop
  endfacet
  facet normal 0 0 1
    outer loop
      vertex 259.9 -159 173.62
      vertex 261.7 -152 173.62
      vertex 259.9 -152 173.62
    endloop
  endfacet
  facet normal 0 0 1
    outer loop
      vertex 261.7 -152 173.62
      vertex 259.9 -159 173.62
      vertex 261.7 -167 173.62
    endloop
  endfacet
  facet normal 0 0 1
    outer loop
      vertex 254.9 -160.2 173.62
      vertex 259.9 -159 173.62
      vertex 256.5 -159 173.62
    endloop
  endfacet
  facet normal 0 0 1
    outer loop
      vertex 254.9 -160.2 173.62
      vertex 256.5 -159 173.62
      vertex 254.9 -153.8 173.62
    endloop
  endfacet
  facet normal 0 0 1
    outer loop
      vertex 259.9 -159 173.62
      vertex 254.9 -160.2 173.62
      vertex 261.7 -167 173.62
    endloop
  endfacet
  facet normal 0 0 1
    outer loop
      vertex 253.7 -165.2 173.62
      vertex 254.9 -160.2 173.62
      vertex 253.7 -161.8 173.62
    endloop
  endfacet
  facet normal 0 0 1
    outer loop
      vertex 254.9 -160.2 173.62
      vertex 253.7 -165.2 173.62
      vertex 261.7 -167 173.62
    endloop
  endfacet
  facet normal 0 0 1
    outer loop
      vertex 246.7 -167 173.62
      vertex 253.7 -165.2 173.62
      vertex 246.7 -165.2 173.62
    endloop
  endfacet
  facet normal 0 0 1
    outer loop
      vertex 253.7 -165.2 173.62
      vertex 246.7 -167 173.62
      vertex 261.7 -167 173.62
    endloop
  endfacet
  facet normal 0 0 -1
    outer loop
      vertex 261.7 -167 0
      vertex 259.9 -159 0
      vertex 261.7 -152 0
    endloop
  endfacet
  facet normal 0 0 -1
    outer loop
      vertex 253.7 -165.2 0
      vertex 259.9 -159 0
      vertex 261.7 -167 0
    endloop
  endfacet
  facet normal 0 0 -1
    outer loop
      vertex 254.7 -154 0
      vertex 256.5 -159 0
      vertex 254.7 -160 0
    endloop
  endfacet
  facet normal -0 0 -1
    outer loop
      vertex 259.9 -159 0
      vertex 253.7 -165.2 0
      vertex 256.5 -159 0
    endloop
  endfacet
  facet normal 0 0 -1
    outer loop
      vertex 256.5 -159 0
      vertex 253.7 -165.2 0
      vertex 253.7 -161.8 0
    endloop
  endfacet
  facet normal 0 0 -1
    outer loop
      vertex 246.7 -167 0
      vertex 253.7 -165.2 0
      vertex 261.7 -167 0
    endloop
  endfacet
  facet normal -0 0 -1
    outer loop
      vertex 253.7 -165.2 0
      vertex 246.7 -167 0
      vertex 246.7 -165.2 0
    endloop
  endfacet
  facet normal -0 0 -1
    outer loop
      vertex 261.7 -152 0
      vertex 259.9 -159 0
      vertex 259.9 -152 0
    endloop
  endfacet
  facet normal 0 0 -1
    outer loop
      vertex 256.5 -159 0
      vertex 254.7 -154 0
      vertex 256.5 -152 0
    endloop
  endfacet
  facet normal 0 0 -1
    outer loop
      vertex 248.7 -154 0
      vertex 256.5 -152 0
      vertex 254.7 -154 0
    endloop
  endfacet
  facet normal 0 0 -1
    outer loop
      vertex 248.7 -154 0
      vertex 246.7 -152 0
      vertex 256.5 -152 0
    endloop
  endfacet
  facet normal 0 0 -1
    outer loop
      vertex 246.7 -152 0
      vertex 248.7 -154 0
      vertex 246.7 -161.8 0
    endloop
  endfacet
  facet normal 0 0 -1
    outer loop
      vertex 256.5 -159 0
      vertex 253.7 -161.8 0
      vertex 254.7 -160 0
    endloop
  endfacet
  facet normal 0 0 -1
    outer loop
      vertex 253.7 -161.8 0
      vertex 248.7 -160 0
      vertex 254.7 -160 0
    endloop
  endfacet
  facet normal -0 0 -1
    outer loop
      vertex 248.7 -160 0
      vertex 246.7 -161.8 0
      vertex 248.7 -154 0
    endloop
  endfacet
  facet normal 0 0 -1
    outer loop
      vertex 246.7 -161.8 0
      vertex 248.7 -160 0
      vertex 253.7 -161.8 0
    endloop
  endfacet
  facet normal 1 -0 0
    outer loop
      vertex 261.7 -167 173.62
      vertex 261.7 -152 0
      vertex 261.7 -152 173.62
    endloop
  endfacet
  facet normal 1 0 0
    outer loop
      vertex 261.7 -152 0
      vertex 261.7 -167 173.62
      vertex 261.7 -167 0
    endloop
  endfacet
  facet normal 0 1 -0
    outer loop
      vertex 261.7 -152 0
      vertex 259.9 -152 173.62
      vertex 261.7 -152 173.62
    endloop
  endfacet
  facet normal 0 1 0
    outer loop
      vertex 259.9 -152 173.62
      vertex 261.7 -152 0
      vertex 259.9 -152 0
    endloop
  endfacet
  facet normal 0 1 -0
    outer loop
      vertex 256.5 -152 0
      vertex 246.7 -152 173.62
      vertex 256.5 -152 173.62
    endloop
  endfacet
  facet normal 0 1 0
    outer loop
      vertex 246.7 -152 173.62
      vertex 256.5 -152 0
      vertex 246.7 -152 0
    endloop
  endfacet
  facet normal 0 -1 0
    outer loop
      vertex 246.7 -167 0
      vertex 261.7 -167 173.62
      vertex 246.7 -167 173.62
    endloop
  endfacet
  facet normal 0 -1 -0
    outer loop
      vertex 261.7 -167 173.62
      vertex 246.7 -167 0
      vertex 261.7 -167 0
    endloop
  endfacet
  facet normal 1 -0 0
    outer loop
      vertex 256.5 -159 173.62
      vertex 256.5 -152 0
      vertex 256.5 -152 173.62
    endloop
  endfacet
  facet normal 1 0 0
    outer loop
      vertex 256.5 -152 0
      vertex 256.5 -159 173.62
      vertex 256.5 -159 0
    endloop
  endfacet
  facet normal -1 0 0
    outer loop
      vertex 259.9 -159 0
      vertex 259.9 -152 173.62
      vertex 259.9 -152 0
    endloop
  endfacet
  facet normal -1 -0 0
    outer loop
      vertex 259.9 -152 173.62
      vertex 259.9 -159 0
      vertex 259.9 -159 173.62
    endloop
  endfacet
  facet normal 0 1 -0
    outer loop
      vertex 259.9 -159 0
      vertex 256.5 -159 173.62
      vertex 259.9 -159 173.62
    endloop
  endfacet
  facet normal 0 1 0
    outer loop
      vertex 256.5 -159 173.62
      vertex 259.9 -159 0
      vertex 256.5 -159 0
    endloop
  endfacet
  facet normal -1 0 0
    outer loop
      vertex 253.7 -165.2 0
      vertex 253.7 -161.8 173.62
      vertex 253.7 -161.8 0
    endloop
  endfacet
  facet normal -1 -0 0
    outer loop
      vertex 253.7 -161.8 173.62
      vertex 253.7 -165.2 0
      vertex 253.7 -165.2 173.62
    endloop
  endfacet
  facet normal 0 -1 0
    outer loop
      vertex 246.7 -161.8 0
      vertex 253.7 -161.8 173.62
      vertex 246.7 -161.8 173.62
    endloop
  endfacet
  facet normal 0 -1 -0
    outer loop
      vertex 253.7 -161.8 173.62
      vertex 246.7 -161.8 0
      vertex 253.7 -161.8 0
    endloop
  endfacet
  facet normal 0 1 -0
    outer loop
      vertex 253.7 -165.2 0
      vertex 246.7 -165.2 173.62
      vertex 253.7 -165.2 173.62
    endloop
  endfacet
  facet normal 0 1 0
    outer loop
      vertex 246.7 -165.2 173.62
      vertex 253.7 -165.2 0
      vertex 246.7 -165.2 0
    endloop
  endfacet
  facet normal 1 -0 0
    outer loop
      vertex 248.5 -160.2 173.62
      vertex 248.5 -153.8 169.62
      vertex 248.5 -153.8 173.62
    endloop
  endfacet
  facet normal 1 0 0
    outer loop
      vertex 248.5 -153.8 169.62
      vertex 248.5 -160.2 173.62
      vertex 248.5 -160.2 169.62
    endloop
  endfacet
  facet normal -0 0 1
    outer loop
      vertex 248.5 -153.8 169.62
      vertex 254.9 -160.2 169.62
      vertex 254.9 -153.8 169.62
    endloop
  endfacet
  facet normal 0 0 1
    outer loop
      vertex 254.9 -160.2 169.62
      vertex 248.5 -153.8 169.62
      vertex 248.5 -160.2 169.62
    endloop
  endfacet
  facet normal -1 0 0
    outer loop
      vertex 254.9 -160.2 169.62
      vertex 254.9 -153.8 173.62
      vertex 254.9 -153.8 169.62
    endloop
  endfacet
  facet normal -1 -0 0
    outer loop
      vertex 254.9 -153.8 173.62
      vertex 254.9 -160.2 169.62
      vertex 254.9 -160.2 173.62
    endloop
  endfacet
  facet normal 0 -1 0
    outer loop
      vertex 248.5 -153.8 169.62
      vertex 254.9 -153.8 173.62
      vertex 248.5 -153.8 173.62
    endloop
  endfacet
  facet normal 0 -1 -0
    outer loop
      vertex 254.9 -153.8 173.62
      vertex 248.5 -153.8 169.62
      vertex 254.9 -153.8 169.62
    endloop
  endfacet
  facet normal 0 1 -0
    outer loop
      vertex 254.9 -160.2 169.62
      vertex 248.5 -160.2 173.62
      vertex 254.9 -160.2 173.62
    endloop
  endfacet
  facet normal 0 1 0
    outer loop
      vertex 248.5 -160.2 173.62
      vertex 254.9 -160.2 169.62
      vertex 248.5 -160.2 169.62
    endloop
  endfacet
  facet normal -1 0 0
    outer loop
      vertex 248.7 -160 -2.4
      vertex 248.7 -154 0
      vertex 248.7 -154 -2.4
    endloop
  endfacet
  facet normal -1 -0 0
    outer loop
      vertex 248.7 -154 0
      vertex 248.7 -160 -2.4
      vertex 248.7 -160 0
    endloop
  endfacet
  facet normal 0 0 -1
    outer loop
      vertex 248.7 -160 -2.4
      vertex 254.7 -154 -2.4
      vertex 254.7 -160 -2.4
    endloop
  endfacet
  facet normal -0 0 -1
    outer loop
      vertex 254.7 -154 -2.4
      vertex 248.7 -160 -2.4
      vertex 248.7 -154 -2.4
    endloop
  endfacet
  facet normal 1 -0 0
    outer loop
      vertex 254.7 -160 0
      vertex 254.7 -154 -2.4
      vertex 254.7 -154 0
    endloop
  endfacet
  facet normal 1 0 0
    outer loop
      vertex 254.7 -154 -2.4
      vertex 254.7 -160 0
      vertex 254.7 -160 -2.4
    endloop
  endfacet
  facet normal 0 1 -0
    outer loop
      vertex 254.7 -154 -2.4
      vertex 248.7 -154 0
      vertex 254.7 -154 0
    endloop
  endfacet
  facet normal 0 1 0
    outer loop
      vertex 248.7 -154 0
      vertex 254.7 -154 -2.4
      vertex 248.7 -154 -2.4
    endloop
  endfacet
  facet normal 0 -1 0
    outer loop
      vertex 248.7 -160 -2.4
      vertex 254.7 -160 0
      vertex 248.7 -160 0
    endloop
  endfacet
  facet normal 0 -1 -0
    outer loop
      vertex 254.7 -160 0
      vertex 248.7 -160 -2.4
      vertex 254.7 -160 -2.4
    endloop
  endfacet
endsolid OpenSCAD_Model
