solid OpenSCAD_Model
  facet normal 1 -0 0
    outer loop
      vertex 6 -47 173.62
      vertex 6 -33 0
      vertex 6 -33 173.62
    endloop
  endfacet
  facet normal 1 0 0
    outer loop
      vertex 6 -33 0
      vertex 6 -47 173.62
      vertex 6 -47 0
    endloop
  endfacet
  facet normal -0 0 1
    outer loop
      vertex -9 -33 173.62
      vertex -7.2 -38 173.62
      vertex -7.2 -33 173.62
    endloop
  endfacet
  facet normal 0 0 1
    outer loop
      vertex -7.2 -38 173.62
      vertex -9 -33 173.62
      vertex -7.2 -42 173.62
    endloop
  endfacet
  facet normal 0 0 1
    outer loop
      vertex -9 -47 173.62
      vertex -7.2 -42 173.62
      vertex -9 -33 173.62
    endloop
  endfacet
  facet normal 0 0 1
    outer loop
      vertex -7.2 -42 173.62
      vertex -9 -47 173.62
      vertex -7.2 -47 173.62
    endloop
  endfacet
  facet normal -0 0 1
    outer loop
      vertex -7.2 -38 173.62
      vertex -3.8 -42 173.62
      vertex -3.8 -38 173.62
    endloop
  endfacet
  facet normal 0 0 1
    outer loop
      vertex -3.8 -42 173.62
      vertex -7.2 -38 173.62
      vertex -7.2 -42 173.62
    endloop
  endfacet
  facet normal 0 0 1
    outer loop
      vertex 6 -33 173.62
      vertex 4.2 -36.8 173.62
      vertex 6 -47 173.62
    endloop
  endfacet
  facet normal -0 0 1
    outer loop
      vertex -3.8 -33 173.62
      vertex 4.2 -36.8 173.62
      vertex 6 -33 173.62
    endloop
  endfacet
  facet normal 0 0 1
    outer loop
      vertex -3.8 -38 173.62
      vertex -2.2 -36.8 173.62
      vertex -3.8 -33 173.62
    endloop
  endfacet
  facet normal 0 0 1
    outer loop
      vertex 4.2 -36.8 173.62
      vertex -3.8 -33 173.62
      vertex -2.2 -36.8 173.62
    endloop
  endfacet
  facet normal -0 0 1
    outer loop
      vertex 4.2 -43.2 173.62
      vertex 6 -47 173.62
      vertex 4.2 -36.8 173.62
    endloop
  endfacet
  facet normal 0 0 1
    outer loop
      vertex -3.8 -47 173.62
      vertex 4.2 -43.2 173.62
      vertex -2.2 -43.2 173.62
    endloop
  endfacet
  facet normal 0 0 1
    outer loop
      vertex -2.2 -36.8 173.62
      vertex -3.8 -38 173.62
      vertex -2.2 -43.2 173.62
    endloop
  endfacet
  facet normal -0 0 1
    outer loop
      vertex -3.8 -42 173.62
      vertex -2.2 -43.2 173.62
      vertex -3.8 -38 173.62
    endloop
  endfacet
  facet normal 0 0 1
    outer loop
      vertex 4.2 -43.2 173.62
      vertex -3.8 -47 173.62
      vertex 6 -47 173.62
    endloop
  endfacet
  facet normal 0 0 1
    outer loop
      vertex -3.8 -47 173.62
      vertex -2.2 -43.2 173.62
      vertex -3.8 -42 173.62
    endloop
  endfacet
  facet normal 0 0 -1
    outer loop
      vertex -9 -47 0
      vertex -7.2 -42 0
      vertex -7.2 -47 0
    endloop
  endfacet
  facet normal -0 0 -1
    outer loop
      vertex -7.2 -42 0
      vertex -9 -47 0
      vertex -7.2 -38 0
    endloop
  endfacet
  facet normal 0 0 -1
    outer loop
      vertex -9 -33 0
      vertex -7.2 -38 0
      vertex -9 -47 0
    endloop
  endfacet
  facet normal 0 0 -1
    outer loop
      vertex -7.2 -38 0
      vertex -9 -33 0
      vertex -7.2 -33 0
    endloop
  endfacet
  facet normal 0 0 -1
    outer loop
      vertex -7.2 -42 0
      vertex -3.8 -38 0
      vertex -3.8 -42 0
    endloop
  endfacet
  facet normal -0 0 -1
    outer loop
      vertex -3.8 -38 0
      vertex -7.2 -42 0
      vertex -7.2 -38 0
    endloop
  endfacet
  facet normal 0 0 -1
    outer loop
      vertex 6 -47 0
      vertex 4 -43 0
      vertex 6 -33 0
    endloop
  endfacet
  facet normal 0 0 -1
    outer loop
      vertex -3.8 -47 0
      vertex 4 -43 0
      vertex 6 -47 0
    endloop
  endfacet
  facet normal 0 0 -1
    outer loop
      vertex -3.8 -42 0
      vertex -2 -43 0
      vertex -3.8 -47 0
    endloop
  endfacet
  facet normal -0 0 -1
    outer loop
      vertex 4 -43 0
      vertex -3.8 -47 0
      vertex -2 -43 0
    endloop
  endfacet
  facet normal 0 0 -1
    outer loop
      vertex 4 -37 0
      vertex 6 -33 0
      vertex 4 -43 0
    endloop
  endfacet
  facet normal 0 0 -1
    outer loop
      vertex -3.8 -33 0
      vertex 4 -37 0
      vertex -2 -37 0
    endloop
  endfacet
  facet normal 0 0 -1
    outer loop
      vertex -2 -43 0
      vertex -3.8 -42 0
      vertex -2 -37 0
    endloop
  endfacet
  facet normal 0 0 -1
    outer loop
      vertex -3.8 -38 0
      vertex -2 -37 0
      vertex -3.8 -42 0
    endloop
  endfacet
  facet normal 0 0 -1
    outer loop
      vertex 4 -37 0
      vertex -3.8 -33 0
      vertex 6 -33 0
    endloop
  endfacet
  facet normal 0 0 -1
    outer loop
      vertex -3.8 -33 0
      vertex -2 -37 0
      vertex -3.8 -38 0
    endloop
  endfacet
  facet normal -1 0 0
    outer loop
      vertex -9 -47 0
      vertex -9 -33 173.62
      vertex -9 -33 0
    endloop
  endfacet
  facet normal -1 -0 0
    outer loop
      vertex -9 -33 173.62
      vertex -9 -47 0
      vertex -9 -47 173.62
    endloop
  endfacet
  facet normal 0 1 -0
    outer loop
      vertex -7.2 -33 0
      vertex -9 -33 173.62
      vertex -7.2 -33 173.62
    endloop
  endfacet
  facet normal 0 1 0
    outer loop
      vertex -9 -33 173.62
      vertex -7.2 -33 0
      vertex -9 -33 0
    endloop
  endfacet
  facet normal 0 1 -0
    outer loop
      vertex 6 -33 0
      vertex -3.8 -33 173.62
      vertex 6 -33 173.62
    endloop
  endfacet
  facet normal 0 1 0
    outer loop
      vertex -3.8 -33 173.62
      vertex 6 -33 0
      vertex -3.8 -33 0
    endloop
  endfacet
  facet normal 0 -1 0
    outer loop
      vertex -9 -47 0
      vertex -7.2 -47 173.62
      vertex -9 -47 173.62
    endloop
  endfacet
  facet normal 0 -1 -0
    outer loop
      vertex -7.2 -47 173.62
      vertex -9 -47 0
      vertex -7.2 -47 0
    endloop
  endfacet
  facet normal 0 -1 0
    outer loop
      vertex -3.8 -47 0
      vertex 6 -47 173.62
      vertex -3.8 -47 173.62
    endloop
  endfacet
  facet normal 0 -1 -0
    outer loop
      vertex 6 -47 173.62
      vertex -3.8 -47 0
      vertex 6 -47 0
    endloop
  endfacet
  facet normal -1 0 0
    outer loop
      vertex -3.8 -47 0
      vertex -3.8 -42 173.62
      vertex -3.8 -42 0
    endloop
  endfacet
  facet normal -1 -0 0
    outer loop
      vertex -3.8 -42 173.62
      vertex -3.8 -47 0
      vertex -3.8 -47 173.62
    endloop
  endfacet
  facet normal 1 -0 0
    outer loop
      vertex -7.2 -47 173.62
      vertex -7.2 -42 0
      vertex -7.2 -42 173.62
    endloop
  endfacet
  facet normal 1 0 0
    outer loop
      vertex -7.2 -42 0
      vertex -7.2 -47 173.62
      vertex -7.2 -47 0
    endloop
  endfacet
  facet normal 0 -1 0
    outer loop
      vertex -7.2 -42 0
      vertex -3.8 -42 173.62
      vertex -7.2 -42 173.62
    endloop
  endfacet
  facet normal 0 -1 -0
    outer loop
      vertex -3.8 -42 173.62
      vertex -7.2 -42 0
      vertex -3.8 -42 0
    endloop
  endfacet
  facet normal -1 0 0
    outer loop
      vertex -3.8 -38 0
      vertex -3.8 -33 173.62
      vertex -3.8 -33 0
    endloop
  endfacet
  facet normal -1 -0 0
    outer loop
      vertex -3.8 -33 173.62
      vertex -3.8 -38 0
      vertex -3.8 -38 173.62
    endloop
  endfacet
  facet normal 1 -0 0
    outer loop
      vertex -7.2 -38 173.62
      vertex -7.2 -33 0
      vertex -7.2 -33 173.62
    endloop
  endfacet
  facet normal 1 0 0
    outer loop
      vertex -7.2 -33 0
      vertex -7.2 -38 173.62
      vertex -7.2 -38 0
    endloop
  endfacet
  facet normal 0 1 -0
    outer loop
      vertex -3.8 -38 0
      vertex -7.2 -38 173.62
      vertex -3.8 -38 173.62
    endloop
  endfacet
  facet normal 0 1 0
    outer loop
      vertex -7.2 -38 173.62
      vertex -3.8 -38 0
      vertex -7.2 -38 0
    endloop
  endfacet
  facet normal -1 0 0
    outer loop
      vertex 4.2 -43.2 169.62
      vertex 4.2 -36.8 173.62
      vertex 4.2 -36.8 169.62
    endloop
  endfacet
  facet normal -1 -0 0
    outer loop
      vertex 4.2 -36.8 173.62
      vertex 4.2 -43.2 169.62
      vertex 4.2 -43.2 173.62
    endloop
  endfacet
  facet normal -0 0 1
    outer loop
      vertex -2.2 -36.8 169.62
      vertex 4.2 -43.2 169.62
      vertex 4.2 -36.8 169.62
    endloop
  endfacet
  facet normal 0 0 1
    outer loop
      vertex 4.2 -43.2 169.62
      vertex -2.2 -36.8 169.62
      vertex -2.2 -43.2 169.62
    endloop
  endfacet
  facet normal 1 -0 0
    outer loop
      vertex -2.2 -43.2 173.62
      vertex -2.2 -36.8 169.62
      vertex -2.2 -36.8 173.62
    endloop
  endfacet
  facet normal 1 0 0
    outer loop
      vertex -2.2 -36.8 169.62
      vertex -2.2 -43.2 173.62
      vertex -2.2 -43.2 169.62
    endloop
  endfacet
  facet normal 0 -1 0
    outer loop
      vertex -2.2 -36.8 169.62
      vertex 4.2 -36.8 173.62
      vertex -2.2 -36.8 173.62
    endloop
  endfacet
  facet normal 0 -1 -0
    outer loop
      vertex 4.2 -36.8 173.62
      vertex -2.2 -36.8 169.62
      vertex 4.2 -36.8 169.62
    endloop
  endfacet
  facet normal 0 1 -0
    outer loop
      vertex 4.2 -43.2 169.62
      vertex -2.2 -43.2 173.62
      vertex 4.2 -43.2 173.62
    endloop
  endfacet
  facet normal 0 1 0
    outer loop
      vertex -2.2 -43.2 173.62
      vertex 4.2 -43.2 169.62
      vertex -2.2 -43.2 169.62
    endloop
  endfacet
  facet normal 1 -0 0
    outer loop
      vertex 4 -43 0
      vertex 4 -37 -2.4
      vertex 4 -37 0
    endloop
  endfacet
  facet normal 1 0 0
    outer loop
      vertex 4 -37 -2.4
      vertex 4 -43 0
      vertex 4 -43 -2.4
    endloop
  endfacet
  facet normal 0 0 -1
    outer loop
      vertex -2 -43 -2.4
      vertex 4 -37 -2.4
      vertex 4 -43 -2.4
    endloop
  endfacet
  facet normal -0 0 -1
    outer loop
      vertex 4 -37 -2.4
      vertex -2 -43 -2.4
      vertex -2 -37 -2.4
    endloop
  endfacet
  facet normal -1 0 0
    outer loop
      vertex -2 -43 -2.4
      vertex -2 -37 0
      vertex -2 -37 -2.4
    endloop
  endfacet
  facet normal -1 -0 0
    outer loop
      vertex -2 -37 0
      vertex -2 -43 -2.4
      vertex -2 -43 0
    endloop
  endfacet
  facet normal 0 1 -0
    outer loop
      vertex 4 -37 -2.4
      vertex -2 -37 0
      vertex 4 -37 0
    endloop
  endfacet
  facet normal 0 1 0
    outer loop
      vertex -2 -37 0
      vertex 4 -37 -2.4
      vertex -2 -37 -2.4
    endloop
  endfacet
  facet normal 0 -1 0
    outer loop
      vertex -2 -43 -2.4
      vertex 4 -43 0
      vertex -2 -43 0
    endloop
  endfacet
  facet normal 0 -1 -0
    outer loop
      vertex 4 -43 0
      vertex -2 -43 -2.4
      vertex 4 -43 -2.4
    endloop
  endfacet
endsolid OpenSCAD_Model
