solid OpenSCAD_Model
  facet normal 0 1 -0
    outer loop
      vertex 152 -135 0
      vertex 138 -135 177.9
      vertex 152 -135 177.9
    endloop
  endfacet
  facet normal 0 1 0
    outer loop
      vertex 138 -135 177.9
      vertex 152 -135 0
      vertex 138 -135 0
    endloop
  endfacet
  facet normal 0 0 1
    outer loop
      vertex 152 -135 177.9
      vertex 148.2 -136.8 177.9
      vertex 152 -144.8 177.9
    endloop
  endfacet
  facet normal 0 0 1
    outer loop
      vertex 152 -135 177.9
      vertex 141.8 -136.8 177.9
      vertex 148.2 -136.8 177.9
    endloop
  endfacet
  facet normal 0 0 1
    outer loop
      vertex 138 -144.8 177.9
      vertex 141.8 -136.8 177.9
      vertex 138 -135 177.9
    endloop
  endfacet
  facet normal -0 0 1
    outer loop
      vertex 138 -135 177.9
      vertex 141.8 -136.8 177.9
      vertex 152 -135 177.9
    endloop
  endfacet
  facet normal -0 0 1
    outer loop
      vertex 148.2 -143.2 177.9
      vertex 152 -144.8 177.9
      vertex 148.2 -136.8 177.9
    endloop
  endfacet
  facet normal 0 0 1
    outer loop
      vertex 148.2 -143.2 177.9
      vertex 147 -144.8 177.9
      vertex 152 -144.8 177.9
    endloop
  endfacet
  facet normal 0 0 1
    outer loop
      vertex 147 -144.8 177.9
      vertex 143 -144.8 177.9
      vertex 147 -148.2 177.9
    endloop
  endfacet
  facet normal 0 0 1
    outer loop
      vertex 148.2 -143.2 177.9
      vertex 143 -144.8 177.9
      vertex 147 -144.8 177.9
    endloop
  endfacet
  facet normal -0 0 1
    outer loop
      vertex 141.8 -143.2 177.9
      vertex 143 -144.8 177.9
      vertex 148.2 -143.2 177.9
    endloop
  endfacet
  facet normal 0 0 1
    outer loop
      vertex 141.8 -143.2 177.9
      vertex 138 -144.8 177.9
      vertex 143 -144.8 177.9
    endloop
  endfacet
  facet normal 0 0 1
    outer loop
      vertex 141.8 -136.8 177.9
      vertex 138 -144.8 177.9
      vertex 141.8 -143.2 177.9
    endloop
  endfacet
  facet normal -0 0 1
    outer loop
      vertex 147 -148.2 177.9
      vertex 152 -150 177.9
      vertex 152 -148.2 177.9
    endloop
  endfacet
  facet normal 0 0 1
    outer loop
      vertex 143 -148.2 177.9
      vertex 147 -148.2 177.9
      vertex 143 -144.8 177.9
    endloop
  endfacet
  facet normal -0 0 1
    outer loop
      vertex 143 -148.2 177.9
      vertex 152 -150 177.9
      vertex 147 -148.2 177.9
    endloop
  endfacet
  facet normal 0 0 1
    outer loop
      vertex 138 -150 177.9
      vertex 143 -148.2 177.9
      vertex 138 -148.2 177.9
    endloop
  endfacet
  facet normal 0 0 1
    outer loop
      vertex 143 -148.2 177.9
      vertex 138 -150 177.9
      vertex 152 -150 177.9
    endloop
  endfacet
  facet normal 0 0 -1
    outer loop
      vertex 152 -150 0
      vertex 147 -148.2 0
      vertex 152 -148.2 0
    endloop
  endfacet
  facet normal 0 0 -1
    outer loop
      vertex 147 -148.2 0
      vertex 143 -148.2 0
      vertex 147 -144.8 0
    endloop
  endfacet
  facet normal 0 0 -1
    outer loop
      vertex 152 -150 0
      vertex 143 -148.2 0
      vertex 147 -148.2 0
    endloop
  endfacet
  facet normal 0 0 -1
    outer loop
      vertex 138 -150 0
      vertex 143 -148.2 0
      vertex 152 -150 0
    endloop
  endfacet
  facet normal -0 0 -1
    outer loop
      vertex 143 -148.2 0
      vertex 138 -150 0
      vertex 138 -148.2 0
    endloop
  endfacet
  facet normal 0 0 -1
    outer loop
      vertex 148 -137 0
      vertex 152 -144.8 0
      vertex 148 -143 0
    endloop
  endfacet
  facet normal 0 0 -1
    outer loop
      vertex 147 -144.8 0
      vertex 148 -143 0
      vertex 152 -144.8 0
    endloop
  endfacet
  facet normal 0 0 -1
    outer loop
      vertex 143 -144.8 0
      vertex 147 -144.8 0
      vertex 143 -148.2 0
    endloop
  endfacet
  facet normal 0 0 -1
    outer loop
      vertex 147 -144.8 0
      vertex 143 -144.8 0
      vertex 148 -143 0
    endloop
  endfacet
  facet normal 0 0 -1
    outer loop
      vertex 143 -144.8 0
      vertex 142 -143 0
      vertex 148 -143 0
    endloop
  endfacet
  facet normal -0 0 -1
    outer loop
      vertex 142 -143 0
      vertex 138 -144.8 0
      vertex 142 -137 0
    endloop
  endfacet
  facet normal 0 0 -1
    outer loop
      vertex 138 -144.8 0
      vertex 142 -143 0
      vertex 143 -144.8 0
    endloop
  endfacet
  facet normal 0 0 -1
    outer loop
      vertex 152 -144.8 0
      vertex 148 -137 0
      vertex 152 -135 0
    endloop
  endfacet
  facet normal 0 0 -1
    outer loop
      vertex 142 -137 0
      vertex 152 -135 0
      vertex 148 -137 0
    endloop
  endfacet
  facet normal 0 0 -1
    outer loop
      vertex 142 -137 0
      vertex 138 -135 0
      vertex 152 -135 0
    endloop
  endfacet
  facet normal 0 0 -1
    outer loop
      vertex 138 -135 0
      vertex 142 -137 0
      vertex 138 -144.8 0
    endloop
  endfacet
  facet normal 0 -1 0
    outer loop
      vertex 138 -150 0
      vertex 152 -150 177.9
      vertex 138 -150 177.9
    endloop
  endfacet
  facet normal 0 -1 -0
    outer loop
      vertex 152 -150 177.9
      vertex 138 -150 0
      vertex 152 -150 0
    endloop
  endfacet
  facet normal 1 -0 0
    outer loop
      vertex 152 -150 177.9
      vertex 152 -148.2 0
      vertex 152 -148.2 177.9
    endloop
  endfacet
  facet normal 1 0 0
    outer loop
      vertex 152 -148.2 0
      vertex 152 -150 177.9
      vertex 152 -150 0
    endloop
  endfacet
  facet normal 1 -0 0
    outer loop
      vertex 152 -144.8 177.9
      vertex 152 -135 0
      vertex 152 -135 177.9
    endloop
  endfacet
  facet normal 1 0 0
    outer loop
      vertex 152 -135 0
      vertex 152 -144.8 177.9
      vertex 152 -144.8 0
    endloop
  endfacet
  facet normal -1 0 0
    outer loop
      vertex 138 -150 0
      vertex 138 -148.2 177.9
      vertex 138 -148.2 0
    endloop
  endfacet
  facet normal -1 -0 0
    outer loop
      vertex 138 -148.2 177.9
      vertex 138 -150 0
      vertex 138 -150 177.9
    endloop
  endfacet
  facet normal -1 0 0
    outer loop
      vertex 138 -144.8 0
      vertex 138 -135 177.9
      vertex 138 -135 0
    endloop
  endfacet
  facet normal -1 -0 0
    outer loop
      vertex 138 -135 177.9
      vertex 138 -144.8 0
      vertex 138 -144.8 177.9
    endloop
  endfacet
  facet normal 0 -1 0
    outer loop
      vertex 138 -144.8 0
      vertex 143 -144.8 177.9
      vertex 138 -144.8 177.9
    endloop
  endfacet
  facet normal 0 -1 -0
    outer loop
      vertex 143 -144.8 177.9
      vertex 138 -144.8 0
      vertex 143 -144.8 0
    endloop
  endfacet
  facet normal 0 1 -0
    outer loop
      vertex 143 -148.2 0
      vertex 138 -148.2 177.9
      vertex 143 -148.2 177.9
    endloop
  endfacet
  facet normal 0 1 0
    outer loop
      vertex 138 -148.2 177.9
      vertex 143 -148.2 0
      vertex 138 -148.2 0
    endloop
  endfacet
  facet normal -1 0 0
    outer loop
      vertex 143 -148.2 0
      vertex 143 -144.8 177.9
      vertex 143 -144.8 0
    endloop
  endfacet
  facet normal -1 -0 0
    outer loop
      vertex 143 -144.8 177.9
      vertex 143 -148.2 0
      vertex 143 -148.2 177.9
    endloop
  endfacet
  facet normal 0 -1 0
    outer loop
      vertex 147 -144.8 0
      vertex 152 -144.8 177.9
      vertex 147 -144.8 177.9
    endloop
  endfacet
  facet normal 0 -1 -0
    outer loop
      vertex 152 -144.8 177.9
      vertex 147 -144.8 0
      vertex 152 -144.8 0
    endloop
  endfacet
  facet normal 0 1 -0
    outer loop
      vertex 152 -148.2 0
      vertex 147 -148.2 177.9
      vertex 152 -148.2 177.9
    endloop
  endfacet
  facet normal 0 1 0
    outer loop
      vertex 147 -148.2 177.9
      vertex 152 -148.2 0
      vertex 147 -148.2 0
    endloop
  endfacet
  facet normal 1 -0 0
    outer loop
      vertex 147 -148.2 177.9
      vertex 147 -144.8 0
      vertex 147 -144.8 177.9
    endloop
  endfacet
  facet normal 1 0 0
    outer loop
      vertex 147 -144.8 0
      vertex 147 -148.2 177.9
      vertex 147 -148.2 0
    endloop
  endfacet
  facet normal 0 -1 0
    outer loop
      vertex 141.8 -136.8 173.9
      vertex 148.2 -136.8 177.9
      vertex 141.8 -136.8 177.9
    endloop
  endfacet
  facet normal 0 -1 -0
    outer loop
      vertex 148.2 -136.8 177.9
      vertex 141.8 -136.8 173.9
      vertex 148.2 -136.8 173.9
    endloop
  endfacet
  facet normal -0 0 1
    outer loop
      vertex 141.8 -136.8 173.9
      vertex 148.2 -143.2 173.9
      vertex 148.2 -136.8 173.9
    endloop
  endfacet
  facet normal 0 0 1
    outer loop
      vertex 148.2 -143.2 173.9
      vertex 141.8 -136.8 173.9
      vertex 141.8 -143.2 173.9
    endloop
  endfacet
  facet normal 0 1 -0
    outer loop
      vertex 148.2 -143.2 173.9
      vertex 141.8 -143.2 177.9
      vertex 148.2 -143.2 177.9
    endloop
  endfacet
  facet normal 0 1 0
    outer loop
      vertex 141.8 -143.2 177.9
      vertex 148.2 -143.2 173.9
      vertex 141.8 -143.2 173.9
    endloop
  endfacet
  facet normal -1 0 0
    outer loop
      vertex 148.2 -143.2 173.9
      vertex 148.2 -136.8 177.9
      vertex 148.2 -136.8 173.9
    endloop
  endfacet
  facet normal -1 -0 0
    outer loop
      vertex 148.2 -136.8 177.9
      vertex 148.2 -143.2 173.9
      vertex 148.2 -143.2 177.9
    endloop
  endfacet
  facet normal 1 -0 0
    outer loop
      vertex 141.8 -143.2 177.9
      vertex 141.8 -136.8 173.9
      vertex 141.8 -136.8 177.9
    endloop
  endfacet
  facet normal 1 0 0
    outer loop
      vertex 141.8 -136.8 173.9
      vertex 141.8 -143.2 177.9
      vertex 141.8 -143.2 173.9
    endloop
  endfacet
  facet normal 0 1 -0
    outer loop
      vertex 148 -137 -2.4
      vertex 142 -137 0
      vertex 148 -137 0
    endloop
  endfacet
  facet normal 0 1 0
    outer loop
      vertex 142 -137 0
      vertex 148 -137 -2.4
      vertex 142 -137 -2.4
    endloop
  endfacet
  facet normal 0 0 -1
    outer loop
      vertex 142 -143 -2.4
      vertex 148 -137 -2.4
      vertex 148 -143 -2.4
    endloop
  endfacet
  facet normal -0 0 -1
    outer loop
      vertex 148 -137 -2.4
      vertex 142 -143 -2.4
      vertex 142 -137 -2.4
    endloop
  endfacet
  facet normal 0 -1 0
    outer loop
      vertex 142 -143 -2.4
      vertex 148 -143 0
      vertex 142 -143 0
    endloop
  endfacet
  facet normal 0 -1 -0
    outer loop
      vertex 148 -143 0
      vertex 142 -143 -2.4
      vertex 148 -143 -2.4
    endloop
  endfacet
  facet normal 1 -0 0
    outer loop
      vertex 148 -143 0
      vertex 148 -137 -2.4
      vertex 148 -137 0
    endloop
  endfacet
  facet normal 1 0 0
    outer loop
      vertex 148 -137 -2.4
      vertex 148 -143 0
      vertex 148 -143 -2.4
    endloop
  endfacet
  facet normal -1 0 0
    outer loop
      vertex 142 -143 -2.4
      vertex 142 -137 0
      vertex 142 -137 -2.4
    endloop
  endfacet
  facet normal -1 -0 0
    outer loop
      vertex 142 -137 0
      vertex 142 -143 -2.4
      vertex 142 -143 0
    endloop
  endfacet
endsolid OpenSCAD_Model
