solid OpenSCAD_Model
  facet normal -0 0 1
    outer loop
      vertex 7 -65 150
      vertex 167 -151 150
      vertex 167 -65 150
    endloop
  endfacet
  facet normal 0 0 1
    outer loop
      vertex 167 -151 150
      vertex 7 -65 150
      vertex 7 -151 150
    endloop
  endfacet
  facet normal 0 0 -1
    outer loop
      vertex 7 -151 0.05
      vertex 167 -65 0.05
      vertex 167 -151 0.05
    endloop
  endfacet
  facet normal -0 0 -1
    outer loop
      vertex 167 -65 0.05
      vertex 7 -151 0.05
      vertex 7 -65 0.05
    endloop
  endfacet
  facet normal 0 -1 0
    outer loop
      vertex 7 -151 0.05
      vertex 167 -151 150
      vertex 7 -151 150
    endloop
  endfacet
  facet normal 0 -1 -0
    outer loop
      vertex 167 -151 150
      vertex 7 -151 0.05
      vertex 167 -151 0.05
    endloop
  endfacet
  facet normal 1 -0 0
    outer loop
      vertex 167 -151 150
      vertex 167 -65 0.05
      vertex 167 -65 150
    endloop
  endfacet
  facet normal 1 0 0
    outer loop
      vertex 167 -65 0.05
      vertex 167 -151 150
      vertex 167 -151 0.05
    endloop
  endfacet
  facet normal 0 1 -0
    outer loop
      vertex 167 -65 0.05
      vertex 7 -65 150
      vertex 167 -65 150
    endloop
  endfacet
  facet normal 0 1 0
    outer loop
      vertex 7 -65 150
      vertex 167 -65 0.05
      vertex 7 -65 0.05
    endloop
  endfacet
  facet normal -1 0 0
    outer loop
      vertex 7 -151 0.05
      vertex 7 -65 150
      vertex 7 -65 0.05
    endloop
  endfacet
  facet normal -1 -0 0
    outer loop
      vertex 7 -65 150
      vertex 7 -151 0.05
      vertex 7 -151 150
    endloop
  endfacet
endsolid OpenSCAD_Model
