solid OpenSCAD_Model
  facet normal 1 0 0
    outer loop
      vertex 85.7 134 145
      vertex 85.7 102 34
      vertex 85.7 134 10
    endloop
  endfacet
  facet normal 1 0 0
    outer loop
      vertex 85.7 134 145
      vertex 85.7 92 36.6
      vertex 85.7 102 34
    endloop
  endfacet
  facet normal 1 -0 0
    outer loop
      vertex 85.7 48 145
      vertex 85.7 92 36.6
      vertex 85.7 134 145
    endloop
  endfacet
  facet normal 1 0 0
    outer loop
      vertex 85.7 92 36.6
      vertex 85.7 48 145
      vertex 85.7 48 36.6
    endloop
  endfacet
  facet normal 1 0 0
    outer loop
      vertex 85.7 134 10
      vertex 85.7 102 34
      vertex 85.7 102 10
    endloop
  endfacet
  facet normal 1 0 0
    outer loop
      vertex 85.7 102 34
      vertex 85.7 92 36.6
      vertex 85.7 92 34
    endloop
  endfacet
  facet normal -0 0 1
    outer loop
      vertex 55.7 134 145
      vertex 85.7 48 145
      vertex 85.7 134 145
    endloop
  endfacet
  facet normal 0 0 1
    outer loop
      vertex 85.7 48 145
      vertex 55.7 134 145
      vertex 55.7 48 145
    endloop
  endfacet
  facet normal 0 0 -1
    outer loop
      vertex 55.7 102 10
      vertex 85.7 134 10
      vertex 85.7 102 10
    endloop
  endfacet
  facet normal -0 0 -1
    outer loop
      vertex 85.7 134 10
      vertex 55.7 102 10
      vertex 55.7 134 10
    endloop
  endfacet
  facet normal -1 0 0
    outer loop
      vertex 55.7 102 34
      vertex 55.7 134 10
      vertex 55.7 102 10
    endloop
  endfacet
  facet normal -1 0 0
    outer loop
      vertex 55.7 134 10
      vertex 55.7 102 34
      vertex 55.7 134 145
    endloop
  endfacet
  facet normal -1 0 0
    outer loop
      vertex 55.7 92 36.6
      vertex 55.7 102 34
      vertex 55.7 92 34
    endloop
  endfacet
  facet normal -1 0 0
    outer loop
      vertex 55.7 102 34
      vertex 55.7 92 36.6
      vertex 55.7 134 145
    endloop
  endfacet
  facet normal -1 0 0
    outer loop
      vertex 55.7 48 145
      vertex 55.7 92 36.6
      vertex 55.7 48 36.6
    endloop
  endfacet
  facet normal -1 0 0
    outer loop
      vertex 55.7 92 36.6
      vertex 55.7 48 145
      vertex 55.7 134 145
    endloop
  endfacet
  facet normal 0 -1 0
    outer loop
      vertex 55.7 48 36.6
      vertex 85.7 48 145
      vertex 55.7 48 145
    endloop
  endfacet
  facet normal 0 -1 -0
    outer loop
      vertex 85.7 48 145
      vertex 55.7 48 36.6
      vertex 85.7 48 36.6
    endloop
  endfacet
  facet normal 0 1 -0
    outer loop
      vertex 85.7 134 10
      vertex 55.7 134 145
      vertex 85.7 134 145
    endloop
  endfacet
  facet normal 0 1 0
    outer loop
      vertex 55.7 134 145
      vertex 85.7 134 10
      vertex 55.7 134 10
    endloop
  endfacet
  facet normal 1 -0 0
    outer loop
      vertex 284.7 51 144
      vertex 284.7 131 6
      vertex 284.7 131 144
    endloop
  endfacet
  facet normal 1 0 0
    outer loop
      vertex 284.7 131 6
      vertex 284.7 51 144
      vertex 284.7 51 6
    endloop
  endfacet
  facet normal -0 0 1
    outer loop
      vertex 245.7 131 144
      vertex 284.7 51 144
      vertex 284.7 131 144
    endloop
  endfacet
  facet normal 0 0 1
    outer loop
      vertex 284.7 51 144
      vertex 245.7 131 144
      vertex 245.7 51 144
    endloop
  endfacet
  facet normal 0 0 -1
    outer loop
      vertex 245.7 51 6
      vertex 284.7 131 6
      vertex 284.7 51 6
    endloop
  endfacet
  facet normal -0 0 -1
    outer loop
      vertex 284.7 131 6
      vertex 245.7 51 6
      vertex 245.7 131 6
    endloop
  endfacet
  facet normal -1 0 0
    outer loop
      vertex 245.7 51 6
      vertex 245.7 131 144
      vertex 245.7 131 6
    endloop
  endfacet
  facet normal -1 -0 0
    outer loop
      vertex 245.7 131 144
      vertex 245.7 51 6
      vertex 245.7 51 144
    endloop
  endfacet
  facet normal 0 -1 0
    outer loop
      vertex 245.7 51 6
      vertex 284.7 51 144
      vertex 245.7 51 144
    endloop
  endfacet
  facet normal 0 -1 -0
    outer loop
      vertex 284.7 51 144
      vertex 245.7 51 6
      vertex 284.7 51 6
    endloop
  endfacet
  facet normal 0 1 -0
    outer loop
      vertex 284.7 131 6
      vertex 245.7 131 144
      vertex 284.7 131 144
    endloop
  endfacet
  facet normal 0 1 0
    outer loop
      vertex 245.7 131 144
      vertex 284.7 131 6
      vertex 245.7 131 6
    endloop
  endfacet
  facet normal 1 -0 0
    outer loop
      vertex 87.2 0 36.6
      vertex 87.2 92 7.6
      vertex 87.2 92 36.6
    endloop
  endfacet
  facet normal 1 0 0
    outer loop
      vertex 87.2 92 7.6
      vertex 87.2 0 36.6
      vertex 87.2 0 7.6
    endloop
  endfacet
  facet normal 0 0 1
    outer loop
      vertex 55.7 92 36.6
      vertex 28.5 92 36.6
      vertex 55.7 48 36.6
    endloop
  endfacet
  facet normal 0 0 1
    outer loop
      vertex 85.7 48 36.6
      vertex 87.2 92 36.6
      vertex 85.7 92 36.6
    endloop
  endfacet
  facet normal 0 0 1
    outer loop
      vertex 87.2 92 36.6
      vertex 85.7 48 36.6
      vertex 87.2 0 36.6
    endloop
  endfacet
  facet normal -0 0 1
    outer loop
      vertex 55.7 48 36.6
      vertex 87.2 0 36.6
      vertex 85.7 48 36.6
    endloop
  endfacet
  facet normal 0 0 1
    outer loop
      vertex 55.7 48 36.6
      vertex 28.5 0 36.6
      vertex 87.2 0 36.6
    endloop
  endfacet
  facet normal 0 0 1
    outer loop
      vertex 28.5 0 36.6
      vertex 55.7 48 36.6
      vertex 28.5 92 36.6
    endloop
  endfacet
  facet normal 0 0 -1
    outer loop
      vertex 87.2 0 7.6
      vertex 86.7 56 7.6
      vertex 87.2 92 7.6
    endloop
  endfacet
  facet normal 0 0 -1
    outer loop
      vertex 28.5 0 7.6
      vertex 86.7 56 7.6
      vertex 87.2 0 7.6
    endloop
  endfacet
  facet normal -0 0 -1
    outer loop
      vertex 86.7 56 7.6
      vertex 28.5 0 7.6
      vertex 28.5 56 7.6
    endloop
  endfacet
  facet normal -0 0 -1
    outer loop
      vertex 87.2 92 7.6
      vertex 86.7 56 7.6
      vertex 86.7 92 7.6
    endloop
  endfacet
  facet normal -1 0 0
    outer loop
      vertex 28.5 56 7.6
      vertex 28.5 0 7.6
      vertex 28.5 56 34
    endloop
  endfacet
  facet normal -1 0 0
    outer loop
      vertex 28.5 56 34
      vertex 28.5 92 36.6
      vertex 28.5 92 34
    endloop
  endfacet
  facet normal -1 0 0
    outer loop
      vertex 28.5 56 34
      vertex 28.5 0 36.6
      vertex 28.5 92 36.6
    endloop
  endfacet
  facet normal -1 0 0
    outer loop
      vertex 28.5 0 36.6
      vertex 28.5 56 34
      vertex 28.5 0 7.6
    endloop
  endfacet
  facet normal 0 -1 0
    outer loop
      vertex 28.5 0 7.6
      vertex 87.2 0 36.6
      vertex 28.5 0 36.6
    endloop
  endfacet
  facet normal 0 -1 -0
    outer loop
      vertex 87.2 0 36.6
      vertex 28.5 0 7.6
      vertex 87.2 0 7.6
    endloop
  endfacet
  facet normal 0 1 -0
    outer loop
      vertex 55.7 92 34
      vertex 28.5 92 36.6
      vertex 55.7 92 36.6
    endloop
  endfacet
  facet normal 0 1 0
    outer loop
      vertex 28.5 92 36.6
      vertex 55.7 92 34
      vertex 28.5 92 34
    endloop
  endfacet
  facet normal 0 1 0
    outer loop
      vertex 87.2 92 36.6
      vertex 86.7 92 34
      vertex 85.7 92 36.6
    endloop
  endfacet
  facet normal 0 1 -0
    outer loop
      vertex 87.2 92 7.6
      vertex 86.7 92 34
      vertex 87.2 92 36.6
    endloop
  endfacet
  facet normal 0 1 0
    outer loop
      vertex 86.7 92 34
      vertex 87.2 92 7.6
      vertex 86.7 92 7.6
    endloop
  endfacet
  facet normal 0 1 0
    outer loop
      vertex 85.7 92 36.6
      vertex 86.7 92 34
      vertex 85.7 92 34
    endloop
  endfacet
  facet normal 1 -0 0
    outer loop
      vertex 253.7 -59.6 177.8
      vertex 253.7 -17.4 135.9
      vertex 253.7 -17.4 177.8
    endloop
  endfacet
  facet normal 1 0 0
    outer loop
      vertex 253.7 -17.4 135.9
      vertex 253.7 -59.6 177.8
      vertex 253.7 -59.6 135.9
    endloop
  endfacet
  facet normal -0 0 1
    outer loop
      vertex 143.7 -17.4 177.8
      vertex 253.7 -59.6 177.8
      vertex 253.7 -17.4 177.8
    endloop
  endfacet
  facet normal 0 0 1
    outer loop
      vertex 253.7 -59.6 177.8
      vertex 143.7 -17.4 177.8
      vertex 143.7 -59.6 177.8
    endloop
  endfacet
  facet normal 0 0 -1
    outer loop
      vertex 143.7 -59.6 135.9
      vertex 253.7 -17.4 135.9
      vertex 253.7 -59.6 135.9
    endloop
  endfacet
  facet normal -0 0 -1
    outer loop
      vertex 253.7 -17.4 135.9
      vertex 143.7 -59.6 135.9
      vertex 143.7 -17.4 135.9
    endloop
  endfacet
  facet normal -1 0 0
    outer loop
      vertex 143.7 -59.6 135.9
      vertex 143.7 -17.4 177.8
      vertex 143.7 -17.4 135.9
    endloop
  endfacet
  facet normal -1 -0 0
    outer loop
      vertex 143.7 -17.4 177.8
      vertex 143.7 -59.6 135.9
      vertex 143.7 -59.6 177.8
    endloop
  endfacet
  facet normal 0 -1 0
    outer loop
      vertex 143.7 -59.6 135.9
      vertex 253.7 -59.6 177.8
      vertex 143.7 -59.6 177.8
    endloop
  endfacet
  facet normal 0 -1 -0
    outer loop
      vertex 253.7 -59.6 177.8
      vertex 143.7 -59.6 135.9
      vertex 253.7 -59.6 135.9
    endloop
  endfacet
  facet normal 0 1 -0
    outer loop
      vertex 253.7 -17.4 135.9
      vertex 143.7 -17.4 177.8
      vertex 253.7 -17.4 177.8
    endloop
  endfacet
  facet normal 0 1 0
    outer loop
      vertex 143.7 -17.4 177.8
      vertex 253.7 -17.4 135.9
      vertex 143.7 -17.4 135.9
    endloop
  endfacet
  facet normal 1 -0 0
    outer loop
      vertex 138.2 -76 15.6
      vertex 138.2 -65.5 7.6
      vertex 138.2 -65.5 15.6
    endloop
  endfacet
  facet normal 1 0 0
    outer loop
      vertex 138.2 -65.5 7.6
      vertex 138.2 -76 15.6
      vertex 138.2 -76 7.6
    endloop
  endfacet
  facet normal -0 0 1
    outer loop
      vertex 37 -65.5 15.6
      vertex 138.2 -76 15.6
      vertex 138.2 -65.5 15.6
    endloop
  endfacet
  facet normal 0 0 1
    outer loop
      vertex 138.2 -76 15.6
      vertex 37 -65.5 15.6
      vertex 37 -76 15.6
    endloop
  endfacet
  facet normal 0 0 -1
    outer loop
      vertex 37 -76 7.6
      vertex 138.2 -65.5 7.6
      vertex 138.2 -76 7.6
    endloop
  endfacet
  facet normal -0 0 -1
    outer loop
      vertex 138.2 -65.5 7.6
      vertex 37 -76 7.6
      vertex 37 -65.5 7.6
    endloop
  endfacet
  facet normal 0 -1 0
    outer loop
      vertex 37 -76 7.6
      vertex 138.2 -76 15.6
      vertex 37 -76 15.6
    endloop
  endfacet
  facet normal 0 -1 -0
    outer loop
      vertex 138.2 -76 15.6
      vertex 37 -76 7.6
      vertex 138.2 -76 7.6
    endloop
  endfacet
  facet normal 0 1 -0
    outer loop
      vertex 138.2 -65.5 7.6
      vertex 37 -65.5 15.6
      vertex 138.2 -65.5 15.6
    endloop
  endfacet
  facet normal 0 1 0
    outer loop
      vertex 37 -65.5 15.6
      vertex 138.2 -65.5 7.6
      vertex 37 -65.5 7.6
    endloop
  endfacet
  facet normal 1 0 0
    outer loop
      vertex 37 -63 21
      vertex 37 -65.5 15.6
      vertex 37 -63 3.5
    endloop
  endfacet
  facet normal 1 -0 0
    outer loop
      vertex 37 -78 21
      vertex 37 -65.5 15.6
      vertex 37 -63 21
    endloop
  endfacet
  facet normal 1 0 0
    outer loop
      vertex 37 -78 3.5
      vertex 37 -76 15.6
      vertex 37 -78 21
    endloop
  endfacet
  facet normal 1 0 0
    outer loop
      vertex 37 -65.5 15.6
      vertex 37 -78 21
      vertex 37 -76 15.6
    endloop
  endfacet
  facet normal 1 -0 0
    outer loop
      vertex 37 -65.5 7.6
      vertex 37 -63 3.5
      vertex 37 -65.5 15.6
    endloop
  endfacet
  facet normal 1 0 0
    outer loop
      vertex 37 -78 3.5
      vertex 37 -65.5 7.6
      vertex 37 -76 7.6
    endloop
  endfacet
  facet normal 1 0 0
    outer loop
      vertex 37 -65.5 7.6
      vertex 37 -78 3.5
      vertex 37 -63 3.5
    endloop
  endfacet
  facet normal 1 0 0
    outer loop
      vertex 37 -76 15.6
      vertex 37 -78 3.5
      vertex 37 -76 7.6
    endloop
  endfacet
  facet normal -0 0 1
    outer loop
      vertex -17 -63 21
      vertex 37 -78 21
      vertex 37 -63 21
    endloop
  endfacet
  facet normal 0 0 1
    outer loop
      vertex 37 -78 21
      vertex -17 -63 21
      vertex -17 -78 21
    endloop
  endfacet
  facet normal 0 0 -1
    outer loop
      vertex -17 -78 3.5
      vertex 37 -63 3.5
      vertex 37 -78 3.5
    endloop
  endfacet
  facet normal -0 0 -1
    outer loop
      vertex 37 -63 3.5
      vertex -17 -78 3.5
      vertex -17 -63 3.5
    endloop
  endfacet
  facet normal -1 0 0
    outer loop
      vertex -17 -78 3.5
      vertex -17 -63 21
      vertex -17 -63 3.5
    endloop
  endfacet
  facet normal -1 -0 0
    outer loop
      vertex -17 -63 21
      vertex -17 -78 3.5
      vertex -17 -78 21
    endloop
  endfacet
  facet normal 0 -1 0
    outer loop
      vertex -17 -78 3.5
      vertex 37 -78 21
      vertex -17 -78 21
    endloop
  endfacet
  facet normal 0 -1 -0
    outer loop
      vertex 37 -78 21
      vertex -17 -78 3.5
      vertex 37 -78 3.5
    endloop
  endfacet
  facet normal 0 1 -0
    outer loop
      vertex 37 -63 3.5
      vertex -17 -63 21
      vertex 37 -63 21
    endloop
  endfacet
  facet normal 0 1 0
    outer loop
      vertex -17 -63 21
      vertex 37 -63 3.5
      vertex -17 -63 3.5
    endloop
  endfacet
  facet normal 1 0 0
    outer loop
      vertex 86.7 92 7.6
      vertex 86.7 102 34
      vertex 86.7 92 34
    endloop
  endfacet
  facet normal 1 0 0
    outer loop
      vertex 86.7 102 34
      vertex 86.7 92 7.6
      vertex 86.7 102 7
    endloop
  endfacet
  facet normal 1 0 0
    outer loop
      vertex 86.7 56 7
      vertex 86.7 92 7.6
      vertex 86.7 56 7.6
    endloop
  endfacet
  facet normal 1 0 0
    outer loop
      vertex 86.7 92 7.6
      vertex 86.7 56 7
      vertex 86.7 102 7
    endloop
  endfacet
  facet normal 0 0 1
    outer loop
      vertex 55.7 102 34
      vertex 28.5 92 34
      vertex 55.7 92 34
    endloop
  endfacet
  facet normal -0 0 1
    outer loop
      vertex 0 102 34
      vertex 28.5 92 34
      vertex 55.7 102 34
    endloop
  endfacet
  facet normal 0 0 1
    outer loop
      vertex 0 56 34
      vertex 28.5 92 34
      vertex 0 102 34
    endloop
  endfacet
  facet normal 0 0 1
    outer loop
      vertex 28.5 92 34
      vertex 0 56 34
      vertex 28.5 56 34
    endloop
  endfacet
  facet normal -0 0 1
    outer loop
      vertex 85.7 102 34
      vertex 86.7 92 34
      vertex 86.7 102 34
    endloop
  endfacet
  facet normal 0 0 1
    outer loop
      vertex 86.7 92 34
      vertex 85.7 102 34
      vertex 85.7 92 34
    endloop
  endfacet
  facet normal 0 0 -1
    outer loop
      vertex 0 56 7
      vertex 86.7 102 7
      vertex 86.7 56 7
    endloop
  endfacet
  facet normal -0 0 -1
    outer loop
      vertex 86.7 102 7
      vertex 0 56 7
      vertex 0 102 7
    endloop
  endfacet
  facet normal -1 0 0
    outer loop
      vertex 0 56 7
      vertex 0 102 34
      vertex 0 102 7
    endloop
  endfacet
  facet normal -1 -0 0
    outer loop
      vertex 0 102 34
      vertex 0 56 7
      vertex 0 56 34
    endloop
  endfacet
  facet normal 0 -1 0
    outer loop
      vertex 0 56 34
      vertex 28.5 56 7.6
      vertex 28.5 56 34
    endloop
  endfacet
  facet normal 0 -1 0
    outer loop
      vertex 0 56 7
      vertex 28.5 56 7.6
      vertex 0 56 34
    endloop
  endfacet
  facet normal 0 -1 0
    outer loop
      vertex 86.7 56 7
      vertex 28.5 56 7.6
      vertex 0 56 7
    endloop
  endfacet
  facet normal 0 -1 0
    outer loop
      vertex 28.5 56 7.6
      vertex 86.7 56 7
      vertex 86.7 56 7.6
    endloop
  endfacet
  facet normal 0 1 0
    outer loop
      vertex 86.7 102 34
      vertex 85.7 102 10
      vertex 85.7 102 34
    endloop
  endfacet
  facet normal 0 1 0
    outer loop
      vertex 85.7 102 10
      vertex 86.7 102 7
      vertex 55.7 102 10
    endloop
  endfacet
  facet normal 0 1 -0
    outer loop
      vertex 86.7 102 7
      vertex 85.7 102 10
      vertex 86.7 102 34
    endloop
  endfacet
  facet normal 0 1 -0
    outer loop
      vertex 55.7 102 10
      vertex 0 102 34
      vertex 55.7 102 34
    endloop
  endfacet
  facet normal 0 1 0
    outer loop
      vertex 55.7 102 10
      vertex 0 102 7
      vertex 0 102 34
    endloop
  endfacet
  facet normal 0 1 0
    outer loop
      vertex 0 102 7
      vertex 55.7 102 10
      vertex 86.7 102 7
    endloop
  endfacet
  facet normal 1 -0 0
    outer loop
      vertex 12.7 -33.32 112.1
      vertex 12.7 -15.9 15.1
      vertex 12.7 -15.9 112.1
    endloop
  endfacet
  facet normal 1 0 0
    outer loop
      vertex 12.7 -15.9 15.1
      vertex 12.7 -33.32 112.1
      vertex 12.7 -33.32 15.1
    endloop
  endfacet
  facet normal -0 0 1
    outer loop
      vertex -4 -15.9 112.1
      vertex 12.7 -33.32 112.1
      vertex 12.7 -15.9 112.1
    endloop
  endfacet
  facet normal 0 0 1
    outer loop
      vertex 12.7 -33.32 112.1
      vertex -4 -15.9 112.1
      vertex -4 -33.32 112.1
    endloop
  endfacet
  facet normal 0 0 -1
    outer loop
      vertex 12.7 -33.32 15.1
      vertex 10 -16.4 15.1
      vertex 12.7 -15.9 15.1
    endloop
  endfacet
  facet normal 0 0 -1
    outer loop
      vertex -4 -33.32 15.1
      vertex 10 -16.4 15.1
      vertex 12.7 -33.32 15.1
    endloop
  endfacet
  facet normal -0 0 -1
    outer loop
      vertex 10 -16.4 15.1
      vertex -4 -33.32 15.1
      vertex -4 -16.4 15.1
    endloop
  endfacet
  facet normal -0 0 -1
    outer loop
      vertex 12.7 -15.9 15.1
      vertex 10 -16.4 15.1
      vertex 10 -15.9 15.1
    endloop
  endfacet
  facet normal -1 0 0
    outer loop
      vertex -4 -16.4 15.1
      vertex -4 -33.32 15.1
      vertex -4 -16.4 17.1
    endloop
  endfacet
  facet normal -1 0 0
    outer loop
      vertex -4 -16.4 17.1
      vertex -4 -15.9 112.1
      vertex -4 -15.9 17.1
    endloop
  endfacet
  facet normal -1 0 0
    outer loop
      vertex -4 -33.32 112.1
      vertex -4 -16.4 17.1
      vertex -4 -33.32 15.1
    endloop
  endfacet
  facet normal -1 0 0
    outer loop
      vertex -4 -16.4 17.1
      vertex -4 -33.32 112.1
      vertex -4 -15.9 112.1
    endloop
  endfacet
  facet normal 0 -1 0
    outer loop
      vertex -4 -33.32 15.1
      vertex 12.7 -33.32 112.1
      vertex -4 -33.32 112.1
    endloop
  endfacet
  facet normal 0 -1 -0
    outer loop
      vertex 12.7 -33.32 112.1
      vertex -4 -33.32 15.1
      vertex 12.7 -33.32 15.1
    endloop
  endfacet
  facet normal 0 1 0
    outer loop
      vertex 12.7 -15.9 112.1
      vertex 10 -15.9 17.1
      vertex -4 -15.9 112.1
    endloop
  endfacet
  facet normal 0 1 -0
    outer loop
      vertex 12.7 -15.9 15.1
      vertex 10 -15.9 17.1
      vertex 12.7 -15.9 112.1
    endloop
  endfacet
  facet normal 0 1 0
    outer loop
      vertex 10 -15.9 17.1
      vertex 12.7 -15.9 15.1
      vertex 10 -15.9 15.1
    endloop
  endfacet
  facet normal 0 1 0
    outer loop
      vertex -4 -15.9 112.1
      vertex 10 -15.9 17.1
      vertex -4 -15.9 17.1
    endloop
  endfacet
  facet normal 1 0 0
    outer loop
      vertex 10 -15.9 15.1
      vertex 10 -3 17.1
      vertex 10 -15.9 17.1
    endloop
  endfacet
  facet normal 1 0 0
    outer loop
      vertex 10 -3 17.1
      vertex 10 -15.9 15.1
      vertex 10 -3 6.1
    endloop
  endfacet
  facet normal 1 0 0
    outer loop
      vertex 10 -16.4 6.1
      vertex 10 -15.9 15.1
      vertex 10 -16.4 15.1
    endloop
  endfacet
  facet normal 1 0 0
    outer loop
      vertex 10 -15.9 15.1
      vertex 10 -16.4 6.1
      vertex 10 -3 6.1
    endloop
  endfacet
  facet normal 0 0 1
    outer loop
      vertex 10 -3 17.1
      vertex -4 -15.9 17.1
      vertex 10 -15.9 17.1
    endloop
  endfacet
  facet normal -0 0 1
    outer loop
      vertex -13 -3 17.1
      vertex -4 -15.9 17.1
      vertex 10 -3 17.1
    endloop
  endfacet
  facet normal 0 0 1
    outer loop
      vertex -13 -16.4 17.1
      vertex -4 -15.9 17.1
      vertex -13 -3 17.1
    endloop
  endfacet
  facet normal 0 0 1
    outer loop
      vertex -4 -15.9 17.1
      vertex -13 -16.4 17.1
      vertex -4 -16.4 17.1
    endloop
  endfacet
  facet normal 0 0 -1
    outer loop
      vertex -13 -16.4 6.1
      vertex 10 -3 6.1
      vertex 10 -16.4 6.1
    endloop
  endfacet
  facet normal -0 0 -1
    outer loop
      vertex 10 -3 6.1
      vertex -13 -16.4 6.1
      vertex -13 -3 6.1
    endloop
  endfacet
  facet normal -1 0 0
    outer loop
      vertex -13 -16.4 6.1
      vertex -13 -3 17.1
      vertex -13 -3 6.1
    endloop
  endfacet
  facet normal -1 -0 0
    outer loop
      vertex -13 -3 17.1
      vertex -13 -16.4 6.1
      vertex -13 -16.4 17.1
    endloop
  endfacet
  facet normal 0 -1 0
    outer loop
      vertex -13 -16.4 17.1
      vertex -4 -16.4 15.1
      vertex -4 -16.4 17.1
    endloop
  endfacet
  facet normal 0 -1 0
    outer loop
      vertex -13 -16.4 6.1
      vertex -4 -16.4 15.1
      vertex -13 -16.4 17.1
    endloop
  endfacet
  facet normal 0 -1 0
    outer loop
      vertex 10 -16.4 6.1
      vertex -4 -16.4 15.1
      vertex -13 -16.4 6.1
    endloop
  endfacet
  facet normal 0 -1 0
    outer loop
      vertex -4 -16.4 15.1
      vertex 10 -16.4 6.1
      vertex 10 -16.4 15.1
    endloop
  endfacet
  facet normal 0 1 -0
    outer loop
      vertex 10 -3 6.1
      vertex -13 -3 17.1
      vertex 10 -3 17.1
    endloop
  endfacet
  facet normal 0 1 0
    outer loop
      vertex -13 -3 17.1
      vertex 10 -3 6.1
      vertex -13 -3 6.1
    endloop
  endfacet
endsolid OpenSCAD_Model
